<svg xmlns="http://www.w3.org/2000/svg" xmlns:xlink="http://www.w3.org/1999/xlink" contentStyleType="text/css" data-diagram-type="SEQUENCE" height="1366px" preserveAspectRatio="none" style="width:1713px;height:1366px;background:#FFFFFF;" version="1.1" viewBox="0 0 1713 1366" width="1713px" zoomAndPan="magnify"><title>Create Storage Area - Process View</title><defs/><g><text fill="#000000" font-family="sans-serif" font-size="14" font-weight="bold" lengthAdjust="spacing" textLength="256.4092" x="730.0632" y="28.5352">Create Storage Area - Process View</text><g><title>.SPA</title><rect fill="#FFFFFF" height="1041.4688" style="stroke:#181818;stroke-width:1;" width="10" x="342.2007" y="205.2188"/></g><g><title>.StorageAreaController</title><rect fill="#FFFFFF" height="967.5371" style="stroke:#181818;stroke-width:1;" width="10" x="571.5498" y="249.8398"/></g><g><title>.StorageAreaService</title><rect fill="#FFFFFF" height="908.916" style="stroke:#181818;stroke-width:1;" width="10" x="801.502" y="279.1504"/></g><g><title>.DockService</title><rect fill="#FFFFFF" height="244.4395" style="stroke:#181818;stroke-width:1;" width="10" x="1073.3613" y="595.2109"/></g><g><title>.StorageAreaRepository</title><rect fill="#FFFFFF" height="87.9316" style="stroke:#181818;stroke-width:1;" width="10" x="1219.8818" y="308.4609"/></g><g><title>.StorageAreaRepository</title><rect fill="#FFFFFF" height="87.9316" style="stroke:#181818;stroke-width:1;" width="10" x="1219.8818" y="911.2715"/></g><g><title>.StorageAreaRepository</title><rect fill="#FFFFFF" height="87.9316" style="stroke:#181818;stroke-width:1;" width="10" x="1219.8818" y="1028.5137"/></g><g><title>.PortLogisticsDB</title><rect fill="#FFFFFF" height="29.3105" style="stroke:#181818;stroke-width:1;" width="10" x="1610.6157" y="337.7715"/></g><g><title>.PortLogisticsDB</title><rect fill="#FFFFFF" height="29.3105" style="stroke:#181818;stroke-width:1;" width="10" x="1610.6157" y="624.5215"/></g><g><title>.PortLogisticsDB</title><rect fill="#FFFFFF" height="29.3105" style="stroke:#181818;stroke-width:1;" width="10" x="1610.6157" y="940.582"/></g><g><title>.PortLogisticsDB</title><rect fill="#FFFFFF" height="29.3105" style="stroke:#181818;stroke-width:1;" width="10" x="1610.6157" y="1057.8242"/></g><rect fill="none" height="1132.7109" style="stroke:#000000;stroke-width:1.5;" width="1697.5356" x="10" y="135.9766"/><rect fill="none" height="807.9844" style="stroke:#000000;stroke-width:1.5;" width="1677.5356" x="20" y="453.7031"/><rect fill="none" height="585.8555" style="stroke:#000000;stroke-width:1.5;" width="1657.5356" x="30" y="668.832"/><g><title>Port Authority Officer</title><rect fill="#000000" fill-opacity="0.00000" height="1166.7109" width="8" x="111.6387" y="118.9766"/><line style="stroke:#181818;stroke-width:0.5;stroke-dasharray:5,5;" x1="115" x2="115" y1="118.9766" y2="1285.6875"/></g><g><title>.SPA</title><rect fill="#000000" fill-opacity="0.00000" height="1166.7109" width="8" x="343.2007" y="118.9766"/><line style="stroke:#181818;stroke-width:0.5;stroke-dasharray:5,5;" x1="346.5171" x2="346.5171" y1="118.9766" y2="1285.6875"/></g><g><title>.StorageAreaController</title><rect fill="#000000" fill-opacity="0.00000" height="1166.7109" width="8" x="572.5498" y="118.9766"/><line style="stroke:#181818;stroke-width:0.5;stroke-dasharray:5,5;" x1="576.1123" x2="576.1123" y1="118.9766" y2="1285.6875"/></g><g><title>.StorageAreaService</title><rect fill="#000000" fill-opacity="0.00000" height="1166.7109" width="8" x="802.502" y="118.9766"/><line style="stroke:#181818;stroke-width:0.5;stroke-dasharray:5,5;" x1="806.479" x2="806.479" y1="118.9766" y2="1285.6875"/></g><g><title>.DockService</title><rect fill="#000000" fill-opacity="0.00000" height="1166.7109" width="8" x="1074.3613" y="118.9766"/><line style="stroke:#181818;stroke-width:0.5;stroke-dasharray:5,5;" x1="1078.2607" x2="1078.2607" y1="118.9766" y2="1285.6875"/></g><g><title>.StorageAreaRepository</title><rect fill="#000000" fill-opacity="0.00000" height="1166.7109" width="8" x="1220.8818" y="118.9766"/><line style="stroke:#181818;stroke-width:0.5;stroke-dasharray:5,5;" x1="1224.4619" x2="1224.4619" y1="118.9766" y2="1285.6875"/></g><g><title>.PortLogisticsDB</title><rect fill="#000000" fill-opacity="0.00000" height="1166.7109" width="8" x="1611.6157" y="118.9766"/><line style="stroke:#181818;stroke-width:0.5;stroke-dasharray:5,5;" x1="1614.6958" x2="1614.6958" y1="118.9766" y2="1285.6875"/></g><g class="participant participant-head" data-participant="PAO"><text fill="#000000" font-family="sans-serif" font-size="14" lengthAdjust="spacing" textLength="145.2773" x="40" y="116.0234">Port Authority Officer</text><ellipse cx="115.6387" cy="50.9883" fill="#E2E2F0" rx="8" ry="8" style="stroke:#181818;stroke-width:0.5;"/><path d="M115.6387,58.9883 L115.6387,85.9883 M102.6387,66.9883 L128.6387,66.9883 M115.6387,85.9883 L102.6387,100.9883 M115.6387,85.9883 L128.6387,100.9883" fill="none" style="stroke:#181818;stroke-width:0.5;"/></g><g class="participant participant-tail" data-participant="PAO"><text fill="#000000" font-family="sans-serif" font-size="14" lengthAdjust="spacing" textLength="145.2773" x="40" y="1298.2227">Port Authority Officer</text><ellipse cx="115.6387" cy="1309.6758" fill="#E2E2F0" rx="8" ry="8" style="stroke:#181818;stroke-width:0.5;"/><path d="M115.6387,1317.6758 L115.6387,1344.6758 M102.6387,1325.6758 L128.6387,1325.6758 M115.6387,1344.6758 L102.6387,1359.6758 M115.6387,1344.6758 L128.6387,1359.6758" fill="none" style="stroke:#181818;stroke-width:0.5;"/></g><g class="participant participant-head" data-participant="SPA"><rect fill="#E2E2F0" height="30.4883" rx="2.5" ry="2.5" style="stroke:#181818;stroke-width:0.5;" width="43.3672" x="325.5171" y="87.4883"/><text fill="#000000" font-family="sans-serif" font-size="14" lengthAdjust="spacing" textLength="29.3672" x="332.5171" y="108.0234">:SPA</text></g><g class="participant participant-tail" data-participant="SPA"><rect fill="#E2E2F0" height="30.4883" rx="2.5" ry="2.5" style="stroke:#181818;stroke-width:0.5;" width="43.3672" x="325.5171" y="1284.6875"/><text fill="#000000" font-family="sans-serif" font-size="14" lengthAdjust="spacing" textLength="29.3672" x="332.5171" y="1305.2227">:SPA</text></g><g class="participant participant-head" data-participant="CTRL"><rect fill="#E2E2F0" height="30.4883" rx="2.5" ry="2.5" style="stroke:#181818;stroke-width:0.5;" width="168.875" x="492.1123" y="87.4883"/><text fill="#000000" font-family="sans-serif" font-size="14" lengthAdjust="spacing" textLength="154.875" x="499.1123" y="108.0234">:StorageAreaController</text></g><g class="participant participant-tail" data-participant="CTRL"><rect fill="#E2E2F0" height="30.4883" rx="2.5" ry="2.5" style="stroke:#181818;stroke-width:0.5;" width="168.875" x="492.1123" y="1284.6875"/><text fill="#000000" font-family="sans-serif" font-size="14" lengthAdjust="spacing" textLength="154.875" x="499.1123" y="1305.2227">:StorageAreaController</text></g><g class="participant participant-head" data-participant="SVC"><rect fill="#E2E2F0" height="30.4883" rx="2.5" ry="2.5" style="stroke:#181818;stroke-width:0.5;" width="148.0459" x="732.479" y="87.4883"/><text fill="#000000" font-family="sans-serif" font-size="14" lengthAdjust="spacing" textLength="134.0459" x="739.479" y="108.0234">:StorageAreaService</text></g><g class="participant participant-tail" data-participant="SVC"><rect fill="#E2E2F0" height="30.4883" rx="2.5" ry="2.5" style="stroke:#181818;stroke-width:0.5;" width="148.0459" x="732.479" y="1284.6875"/><text fill="#000000" font-family="sans-serif" font-size="14" lengthAdjust="spacing" textLength="134.0459" x="739.479" y="1305.2227">:StorageAreaService</text></g><g class="participant participant-head" data-participant="DOCK_SVC"><rect fill="#E2E2F0" height="30.4883" rx="2.5" ry="2.5" style="stroke:#181818;stroke-width:0.5;" width="100.2012" x="1028.2607" y="87.4883"/><text fill="#000000" font-family="sans-serif" font-size="14" lengthAdjust="spacing" textLength="86.2012" x="1035.2607" y="108.0234">:DockService</text></g><g class="participant participant-tail" data-participant="DOCK_SVC"><rect fill="#E2E2F0" height="30.4883" rx="2.5" ry="2.5" style="stroke:#181818;stroke-width:0.5;" width="100.2012" x="1028.2607" y="1284.6875"/><text fill="#000000" font-family="sans-serif" font-size="14" lengthAdjust="spacing" textLength="86.2012" x="1035.2607" y="1305.2227">:DockService</text></g><g class="participant participant-head" data-participant="REPO"><rect fill="#E2E2F0" height="30.4883" rx="2.5" ry="2.5" style="stroke:#181818;stroke-width:0.5;" width="172.8398" x="1138.4619" y="87.4883"/><text fill="#000000" font-family="sans-serif" font-size="14" lengthAdjust="spacing" textLength="158.8398" x="1145.4619" y="108.0234">:StorageAreaRepository</text></g><g class="participant participant-tail" data-participant="REPO"><rect fill="#E2E2F0" height="30.4883" rx="2.5" ry="2.5" style="stroke:#181818;stroke-width:0.5;" width="172.8398" x="1138.4619" y="1284.6875"/><text fill="#000000" font-family="sans-serif" font-size="14" lengthAdjust="spacing" textLength="158.8398" x="1145.4619" y="1305.2227">:StorageAreaRepository</text></g><g class="participant participant-head" data-participant="DB"><rect fill="#E2E2F0" height="30.4883" rx="2.5" ry="2.5" style="stroke:#181818;stroke-width:0.5;" width="123.8398" x="1553.6958" y="87.4883"/><text fill="#000000" font-family="sans-serif" font-size="14" lengthAdjust="spacing" textLength="109.8398" x="1560.6958" y="108.0234">:PortLogisticsDB</text></g><g class="participant participant-tail" data-participant="DB"><rect fill="#E2E2F0" height="30.4883" rx="2.5" ry="2.5" style="stroke:#181818;stroke-width:0.5;" width="123.8398" x="1553.6958" y="1284.6875"/><text fill="#000000" font-family="sans-serif" font-size="14" lengthAdjust="spacing" textLength="109.8398" x="1560.6958" y="1305.2227">:PortLogisticsDB</text></g><g><title>.SPA</title><rect fill="#FFFFFF" height="1041.4688" style="stroke:#181818;stroke-width:1;" width="10" x="342.2007" y="205.2188"/></g><g><title>.StorageAreaController</title><rect fill="#FFFFFF" height="967.5371" style="stroke:#181818;stroke-width:1;" width="10" x="571.5498" y="249.8398"/></g><g><title>.StorageAreaService</title><rect fill="#FFFFFF" height="908.916" style="stroke:#181818;stroke-width:1;" width="10" x="801.502" y="279.1504"/></g><g><title>.DockService</title><rect fill="#FFFFFF" height="244.4395" style="stroke:#181818;stroke-width:1;" width="10" x="1073.3613" y="595.2109"/></g><g><title>.StorageAreaRepository</title><rect fill="#FFFFFF" height="87.9316" style="stroke:#181818;stroke-width:1;" width="10" x="1219.8818" y="308.4609"/></g><g><title>.StorageAreaRepository</title><rect fill="#FFFFFF" height="87.9316" style="stroke:#181818;stroke-width:1;" width="10" x="1219.8818" y="911.2715"/></g><g><title>.StorageAreaRepository</title><rect fill="#FFFFFF" height="87.9316" style="stroke:#181818;stroke-width:1;" width="10" x="1219.8818" y="1028.5137"/></g><g><title>.PortLogisticsDB</title><rect fill="#FFFFFF" height="29.3105" style="stroke:#181818;stroke-width:1;" width="10" x="1610.6157" y="337.7715"/></g><g><title>.PortLogisticsDB</title><rect fill="#FFFFFF" height="29.3105" style="stroke:#181818;stroke-width:1;" width="10" x="1610.6157" y="624.5215"/></g><g><title>.PortLogisticsDB</title><rect fill="#FFFFFF" height="29.3105" style="stroke:#181818;stroke-width:1;" width="10" x="1610.6157" y="940.582"/></g><g><title>.PortLogisticsDB</title><rect fill="#FFFFFF" height="29.3105" style="stroke:#181818;stroke-width:1;" width="10" x="1610.6157" y="1057.8242"/></g><path d="M10,135.9766 L188.3706,135.9766 L188.3706,143.2871 L178.3706,153.2871 L10,153.2871 L10,135.9766" fill="#EEEEEE" style="stroke:#000000;stroke-width:1.5;"/><rect fill="none" height="1132.7109" style="stroke:#000000;stroke-width:1.5;" width="1697.5356" x="10" y="135.9766"/><text fill="#000000" font-family="sans-serif" font-size="13" font-weight="bold" lengthAdjust="spacing" textLength="133.3706" x="25" y="149.5449">Create Storage Area</text><g class="message" data-participant-1="PAO" data-participant-2="SPA"><polygon fill="#181818" points="330.2007,201.2188,340.2007,205.2188,330.2007,209.2188,334.2007,205.2188" style="stroke:#181818;stroke-width:1;"/><line style="stroke:#181818;stroke-width:1;" x1="115.6387" x2="336.2007" y1="205.2188" y2="205.2188"/><text fill="#000000" font-family="sans-serif" font-size="13" lengthAdjust="spacing" textLength="207.562" x="122.6387" y="169.8555">fillForm(identifier, type, location,</text><text fill="#000000" font-family="sans-serif" font-size="13" lengthAdjust="spacing" textLength="207.1367" x="122.6387" y="185.166">maxCapacity, currentOccupancy,</text><text fill="#000000" font-family="sans-serif" font-size="13" lengthAdjust="spacing" textLength="167.3369" x="122.6387" y="200.4766">docksServed[], distances[])</text></g><g class="message" data-participant-1="SPA" data-participant-2="CTRL"><polygon fill="#181818" points="559.5498,245.8398,569.5498,249.8398,559.5498,253.8398,563.5498,249.8398" style="stroke:#181818;stroke-width:1;"/><line style="stroke:#181818;stroke-width:1;" x1="352.2007" x2="565.5498" y1="249.8398" y2="249.8398"/><text fill="#000000" font-family="sans-serif" font-size="13" lengthAdjust="spacing" textLength="150.2427" x="359.2007" y="229.7871">POST /api/storageareas</text><text fill="#000000" font-family="sans-serif" font-size="13" lengthAdjust="spacing" textLength="148.2876" x="359.2007" y="245.0977">{CreateStorageAreaDto}</text></g><g class="message" data-participant-1="CTRL" data-participant-2="SVC"><polygon fill="#181818" points="789.502,275.1504,799.502,279.1504,789.502,283.1504,793.502,279.1504" style="stroke:#181818;stroke-width:1;"/><line style="stroke:#181818;stroke-width:1;" x1="581.5498" x2="795.502" y1="279.1504" y2="279.1504"/><text fill="#000000" font-family="sans-serif" font-size="13" lengthAdjust="spacing" textLength="91.9331" x="588.5498" y="274.4082">AddAsync(dto)</text></g><g class="message" data-participant-1="SVC" data-participant-2="REPO"><polygon fill="#181818" points="1207.8818,304.4609,1217.8818,308.4609,1207.8818,312.4609,1211.8818,308.4609" style="stroke:#181818;stroke-width:1;"/><line style="stroke:#181818;stroke-width:1;" x1="811.502" x2="1213.8818" y1="308.4609" y2="308.4609"/><text fill="#000000" font-family="sans-serif" font-size="13" lengthAdjust="spacing" textLength="235.8027" x="818.502" y="303.7188">ExistsByIdentifierAsync(dto.identifier)</text></g><g class="message" data-participant-1="REPO" data-participant-2="DB"><polygon fill="#181818" points="1598.6157,333.7715,1608.6157,337.7715,1598.6157,341.7715,1602.6157,337.7715" style="stroke:#181818;stroke-width:1;"/><line style="stroke:#181818;stroke-width:1;" x1="1229.8818" x2="1604.6157" y1="337.7715" y2="337.7715"/><text fill="#000000" font-family="sans-serif" font-size="13" lengthAdjust="spacing" textLength="361.7339" x="1236.8818" y="333.0293">SELECT COUNT(*) FROM StorageAreas WHERE Identifier=?</text></g><g class="message" data-participant-1="DB" data-participant-2="REPO"><polygon fill="#181818" points="1240.8818,363.082,1230.8818,367.082,1240.8818,371.082,1236.8818,367.082" style="stroke:#181818;stroke-width:1;"/><line style="stroke:#181818;stroke-width:1;stroke-dasharray:2,2;" x1="1234.8818" x2="1614.6157" y1="367.082" y2="367.082"/><text fill="#000000" font-family="sans-serif" font-size="13" lengthAdjust="spacing" textLength="8.2202" x="1246.8818" y="362.3398">0</text></g><g class="message" data-participant-1="REPO" data-participant-2="SVC"><polygon fill="#181818" points="822.502,392.3926,812.502,396.3926,822.502,400.3926,818.502,396.3926" style="stroke:#181818;stroke-width:1;"/><line style="stroke:#181818;stroke-width:1;stroke-dasharray:2,2;" x1="816.502" x2="1223.8818" y1="396.3926" y2="396.3926"/><text fill="#000000" font-family="sans-serif" font-size="13" lengthAdjust="spacing" textLength="29.5864" x="828.502" y="391.6504">false</text></g><g class="message" data-participant-1="SVC" data-participant-2="SVC"><line style="stroke:#181818;stroke-width:1;" x1="811.502" x2="853.502" y1="425.7031" y2="425.7031"/><line style="stroke:#181818;stroke-width:1;" x1="853.502" x2="853.502" y1="425.7031" y2="438.7031"/><line style="stroke:#181818;stroke-width:1;" x1="812.502" x2="853.502" y1="438.7031" y2="438.7031"/><polygon fill="#181818" points="822.502,434.7031,812.502,438.7031,822.502,442.7031,818.502,438.7031" style="stroke:#181818;stroke-width:1;"/><text fill="#000000" font-family="sans-serif" font-size="13" lengthAdjust="spacing" textLength="237.8594" x="818.502" y="420.9609">Validate(currentOcc &lt;= maxCapacity)</text></g><path d="M20,453.7031 L82.1387,453.7031 L82.1387,461.0137 L72.1387,471.0137 L20,471.0137 L20,453.7031" fill="#EEEEEE" style="stroke:#000000;stroke-width:1.5;"/><rect fill="none" height="807.9844" style="stroke:#000000;stroke-width:1.5;" width="1677.5356" x="20" y="453.7031"/><text fill="#000000" font-family="sans-serif" font-size="13" font-weight="bold" lengthAdjust="spacing" textLength="17.1387" x="35" y="467.2715">alt</text><text fill="#000000" font-family="sans-serif" font-size="11" font-weight="bold" lengthAdjust="spacing" textLength="96.395" x="97.1387" y="466.3379">[invalid capacity]</text><g class="message" data-participant-1="SVC" data-participant-2="CTRL"><polygon fill="#181818" points="592.5498,488.3242,582.5498,492.3242,592.5498,496.3242,588.5498,492.3242" style="stroke:#181818;stroke-width:1;"/><line style="stroke:#181818;stroke-width:1;stroke-dasharray:2,2;" x1="586.5498" x2="800.502" y1="492.3242" y2="492.3242"/><text fill="#000000" font-family="sans-serif" font-size="13" lengthAdjust="spacing" textLength="106.1709" x="598.5498" y="487.582">400 Bad Request</text></g><g class="message" data-participant-1="CTRL" data-participant-2="SPA"><polygon fill="#181818" points="363.2007,517.6348,353.2007,521.6348,363.2007,525.6348,359.2007,521.6348" style="stroke:#181818;stroke-width:1;"/><line style="stroke:#181818;stroke-width:1;stroke-dasharray:2,2;" x1="357.2007" x2="570.5498" y1="521.6348" y2="521.6348"/><text fill="#000000" font-family="sans-serif" font-size="13" lengthAdjust="spacing" textLength="133.5674" x="369.2007" y="516.8926">show validation error</text></g><g class="message" data-participant-1="SPA" data-participant-2="PAO"><polygon fill="#181818" points="126.6387,546.9453,116.6387,550.9453,126.6387,554.9453,122.6387,550.9453" style="stroke:#181818;stroke-width:1;"/><line style="stroke:#181818;stroke-width:1;stroke-dasharray:2,2;" x1="120.6387" x2="341.2007" y1="550.9453" y2="550.9453"/><text fill="#000000" font-family="sans-serif" font-size="13" lengthAdjust="spacing" textLength="82.5068" x="132.6387" y="546.2031">correct fields</text></g><line style="stroke:#000000;stroke-width:1;stroke-dasharray:2,2;" x1="20" x2="1697.5356" y1="559.9453" y2="559.9453"/><text fill="#000000" font-family="sans-serif" font-size="11" font-weight="bold" lengthAdjust="spacing" textLength="35.5889" x="25" y="570.5801">[valid]</text><g class="message" data-participant-1="SVC" data-participant-2="DOCK_SVC"><polygon fill="#181818" points="1061.3613,591.2109,1071.3613,595.2109,1061.3613,599.2109,1065.3613,595.2109" style="stroke:#181818;stroke-width:1;"/><line style="stroke:#181818;stroke-width:1;" x1="811.502" x2="1067.3613" y1="595.2109" y2="595.2109"/><text fill="#000000" font-family="sans-serif" font-size="13" lengthAdjust="spacing" textLength="213.5605" x="818.502" y="590.4688">ValidateDockIds(dto.docksServed)</text></g><g class="message" data-participant-1="DOCK_SVC" data-participant-2="DB"><polygon fill="#181818" points="1598.6157,620.5215,1608.6157,624.5215,1598.6157,628.5215,1602.6157,624.5215" style="stroke:#181818;stroke-width:1;"/><line style="stroke:#181818;stroke-width:1;" x1="1083.3613" x2="1604.6157" y1="624.5215" y2="624.5215"/><text fill="#000000" font-family="sans-serif" font-size="13" lengthAdjust="spacing" textLength="200.1353" x="1090.3613" y="619.7793">SELECT Docks WHERE Id IN (list)</text></g><g class="message" data-participant-1="DB" data-participant-2="DOCK_SVC"><polygon fill="#181818" points="1094.3613,649.832,1084.3613,653.832,1094.3613,657.832,1090.3613,653.832" style="stroke:#181818;stroke-width:1;"/><line style="stroke:#181818;stroke-width:1;stroke-dasharray:2,2;" x1="1088.3613" x2="1614.6157" y1="653.832" y2="653.832"/><text fill="#000000" font-family="sans-serif" font-size="13" lengthAdjust="spacing" textLength="90.1748" x="1100.3613" y="649.0898">dockIds found</text></g><path d="M30,668.832 L92.1387,668.832 L92.1387,676.1426 L82.1387,686.1426 L30,686.1426 L30,668.832" fill="#EEEEEE" style="stroke:#000000;stroke-width:1.5;"/><rect fill="none" height="585.8555" style="stroke:#000000;stroke-width:1.5;" width="1657.5356" x="30" y="668.832"/><text fill="#000000" font-family="sans-serif" font-size="13" font-weight="bold" lengthAdjust="spacing" textLength="17.1387" x="45" y="682.4004">alt</text><text fill="#000000" font-family="sans-serif" font-size="11" font-weight="bold" lengthAdjust="spacing" textLength="83.6494" x="107.1387" y="681.4668">[missing dock]</text><g class="message" data-participant-1="DOCK_SVC" data-participant-2="SVC"><polygon fill="#181818" points="822.502,703.4531,812.502,707.4531,822.502,711.4531,818.502,707.4531" style="stroke:#181818;stroke-width:1;"/><line style="stroke:#181818;stroke-width:1;stroke-dasharray:2,2;" x1="816.502" x2="1072.3613" y1="707.4531" y2="707.4531"/><text fill="#000000" font-family="sans-serif" font-size="13" lengthAdjust="spacing" textLength="31.186" x="828.502" y="702.7109">error</text></g><g class="message" data-participant-1="SVC" data-participant-2="CTRL"><polygon fill="#181818" points="592.5498,732.7637,582.5498,736.7637,592.5498,740.7637,588.5498,736.7637" style="stroke:#181818;stroke-width:1;"/><line style="stroke:#181818;stroke-width:1;stroke-dasharray:2,2;" x1="586.5498" x2="800.502" y1="736.7637" y2="736.7637"/><text fill="#000000" font-family="sans-serif" font-size="13" lengthAdjust="spacing" textLength="195.9521" x="598.5498" y="732.0215">400 Bad Request "Invalid dock"</text></g><g class="message" data-participant-1="CTRL" data-participant-2="SPA"><polygon fill="#181818" points="363.2007,762.0742,353.2007,766.0742,363.2007,770.0742,359.2007,766.0742" style="stroke:#181818;stroke-width:1;"/><line style="stroke:#181818;stroke-width:1;stroke-dasharray:2,2;" x1="357.2007" x2="570.5498" y1="766.0742" y2="766.0742"/><text fill="#000000" font-family="sans-serif" font-size="13" lengthAdjust="spacing" textLength="67.9961" x="369.2007" y="761.332">show error</text></g><g class="message" data-participant-1="SPA" data-participant-2="PAO"><polygon fill="#181818" points="126.6387,791.3848,116.6387,795.3848,126.6387,799.3848,122.6387,795.3848" style="stroke:#181818;stroke-width:1;"/><line style="stroke:#181818;stroke-width:1;stroke-dasharray:2,2;" x1="120.6387" x2="341.2007" y1="795.3848" y2="795.3848"/><text fill="#000000" font-family="sans-serif" font-size="13" lengthAdjust="spacing" textLength="85.2109" x="132.6387" y="790.6426">correct docks</text></g><line style="stroke:#000000;stroke-width:1;stroke-dasharray:2,2;" x1="30" x2="1687.5356" y1="804.3848" y2="804.3848"/><text fill="#000000" font-family="sans-serif" font-size="11" font-weight="bold" lengthAdjust="spacing" textLength="89.8101" x="35" y="815.0195">[all docks valid]</text><g class="message" data-participant-1="DOCK_SVC" data-participant-2="SVC"><polygon fill="#181818" points="822.502,835.6504,812.502,839.6504,822.502,843.6504,818.502,839.6504" style="stroke:#181818;stroke-width:1;"/><line style="stroke:#181818;stroke-width:1;stroke-dasharray:2,2;" x1="816.502" x2="1077.3613" y1="839.6504" y2="839.6504"/><text fill="#000000" font-family="sans-serif" font-size="13" lengthAdjust="spacing" textLength="29.6055" x="828.502" y="834.9082">valid</text></g><g class="message" data-participant-1="SVC" data-participant-2="SVC"><line style="stroke:#181818;stroke-width:1;" x1="811.502" x2="853.502" y1="868.9609" y2="868.9609"/><line style="stroke:#181818;stroke-width:1;" x1="853.502" x2="853.502" y1="868.9609" y2="881.9609"/><line style="stroke:#181818;stroke-width:1;" x1="812.502" x2="853.502" y1="881.9609" y2="881.9609"/><polygon fill="#181818" points="822.502,877.9609,812.502,881.9609,822.502,885.9609,818.502,881.9609" style="stroke:#181818;stroke-width:1;"/><text fill="#000000" font-family="sans-serif" font-size="13" lengthAdjust="spacing" textLength="135.332" x="818.502" y="864.2188">new StorageArea(dto)</text></g><g class="message" data-participant-1="SVC" data-participant-2="REPO"><polygon fill="#181818" points="1207.8818,907.2715,1217.8818,911.2715,1207.8818,915.2715,1211.8818,911.2715" style="stroke:#181818;stroke-width:1;"/><line style="stroke:#181818;stroke-width:1;" x1="811.502" x2="1213.8818" y1="911.2715" y2="911.2715"/><text fill="#000000" font-family="sans-serif" font-size="13" lengthAdjust="spacing" textLength="106.4883" x="818.502" y="906.5293">AddAsync(entity)</text></g><g class="message" data-participant-1="REPO" data-participant-2="DB"><polygon fill="#181818" points="1598.6157,936.582,1608.6157,940.582,1598.6157,944.582,1602.6157,940.582" style="stroke:#181818;stroke-width:1;"/><line style="stroke:#181818;stroke-width:1;" x1="1229.8818" x2="1604.6157" y1="940.582" y2="940.582"/><text fill="#000000" font-family="sans-serif" font-size="13" lengthAdjust="spacing" textLength="183.2188" x="1236.8818" y="935.8398">INSERT INTO StorageAreas ...</text></g><g class="message" data-participant-1="DB" data-participant-2="REPO"><polygon fill="#181818" points="1240.8818,965.8926,1230.8818,969.8926,1240.8818,973.8926,1236.8818,969.8926" style="stroke:#181818;stroke-width:1;"/><line style="stroke:#181818;stroke-width:1;stroke-dasharray:2,2;" x1="1234.8818" x2="1614.6157" y1="969.8926" y2="969.8926"/><text fill="#000000" font-family="sans-serif" font-size="13" lengthAdjust="spacing" textLength="71.6841" x="1246.8818" y="965.1504">inserted(Id)</text></g><g class="message" data-participant-1="REPO" data-participant-2="SVC"><polygon fill="#181818" points="822.502,995.2031,812.502,999.2031,822.502,1003.2031,818.502,999.2031" style="stroke:#181818;stroke-width:1;"/><line style="stroke:#181818;stroke-width:1;stroke-dasharray:2,2;" x1="816.502" x2="1223.8818" y1="999.2031" y2="999.2031"/><text fill="#000000" font-family="sans-serif" font-size="13" lengthAdjust="spacing" textLength="35.585" x="828.502" y="994.4609">entity</text></g><g class="message" data-participant-1="SVC" data-participant-2="REPO"><polygon fill="#181818" points="1207.8818,1024.5137,1217.8818,1028.5137,1207.8818,1032.5137,1211.8818,1028.5137" style="stroke:#181818;stroke-width:1;"/><line style="stroke:#181818;stroke-width:1;" x1="811.502" x2="1213.8818" y1="1028.5137" y2="1028.5137"/><text fill="#000000" font-family="sans-serif" font-size="13" lengthAdjust="spacing" textLength="128.0068" x="818.502" y="1023.7715">SaveChangesAsync()</text></g><g class="message" data-participant-1="REPO" data-participant-2="DB"><polygon fill="#181818" points="1598.6157,1053.8242,1608.6157,1057.8242,1598.6157,1061.8242,1602.6157,1057.8242" style="stroke:#181818;stroke-width:1;"/><line style="stroke:#181818;stroke-width:1;" x1="1229.8818" x2="1604.6157" y1="1057.8242" y2="1057.8242"/><text fill="#000000" font-family="sans-serif" font-size="13" lengthAdjust="spacing" textLength="90.8921" x="1236.8818" y="1053.082">SaveChanges()</text></g><g class="message" data-participant-1="DB" data-participant-2="REPO"><polygon fill="#181818" points="1240.8818,1083.1348,1230.8818,1087.1348,1240.8818,1091.1348,1236.8818,1087.1348" style="stroke:#181818;stroke-width:1;"/><line style="stroke:#181818;stroke-width:1;stroke-dasharray:2,2;" x1="1234.8818" x2="1614.6157" y1="1087.1348" y2="1087.1348"/><text fill="#000000" font-family="sans-serif" font-size="13" lengthAdjust="spacing" textLength="48.5088" x="1246.8818" y="1082.3926">success</text></g><g class="message" data-participant-1="REPO" data-participant-2="SVC"><polygon fill="#181818" points="822.502,1112.4453,812.502,1116.4453,822.502,1120.4453,818.502,1116.4453" style="stroke:#181818;stroke-width:1;"/><line style="stroke:#181818;stroke-width:1;stroke-dasharray:2,2;" x1="816.502" x2="1223.8818" y1="1116.4453" y2="1116.4453"/><text fill="#000000" font-family="sans-serif" font-size="13" lengthAdjust="spacing" textLength="48.5088" x="828.502" y="1111.7031">success</text></g><g class="message" data-participant-1="SVC" data-participant-2="SVC"><line style="stroke:#181818;stroke-width:1;" x1="811.502" x2="853.502" y1="1145.7559" y2="1145.7559"/><line style="stroke:#181818;stroke-width:1;" x1="853.502" x2="853.502" y1="1145.7559" y2="1158.7559"/><line style="stroke:#181818;stroke-width:1;" x1="812.502" x2="853.502" y1="1158.7559" y2="1158.7559"/><polygon fill="#181818" points="822.502,1154.7559,812.502,1158.7559,822.502,1162.7559,818.502,1158.7559" style="stroke:#181818;stroke-width:1;"/><text fill="#000000" font-family="sans-serif" font-size="13" lengthAdjust="spacing" textLength="82.8306" x="818.502" y="1141.0137">ToDto(entity)</text></g><g class="message" data-participant-1="SVC" data-participant-2="CTRL"><polygon fill="#181818" points="592.5498,1184.0664,582.5498,1188.0664,592.5498,1192.0664,588.5498,1188.0664" style="stroke:#181818;stroke-width:1;"/><line style="stroke:#181818;stroke-width:1;stroke-dasharray:2,2;" x1="586.5498" x2="805.502" y1="1188.0664" y2="1188.0664"/><text fill="#000000" font-family="sans-serif" font-size="13" lengthAdjust="spacing" textLength="98.9917" x="598.5498" y="1183.3242">StorageAreaDto</text></g><g class="message" data-participant-1="CTRL" data-participant-2="SPA"><polygon fill="#181818" points="363.2007,1213.377,353.2007,1217.377,363.2007,1221.377,359.2007,1217.377" style="stroke:#181818;stroke-width:1;"/><line style="stroke:#181818;stroke-width:1;stroke-dasharray:2,2;" x1="357.2007" x2="575.5498" y1="1217.377" y2="1217.377"/><text fill="#000000" font-family="sans-serif" font-size="13" lengthAdjust="spacing" textLength="195.3491" x="369.2007" y="1212.6348">201 Created + StorageAreaDto</text></g><g class="message" data-participant-1="SPA" data-participant-2="PAO"><polygon fill="#181818" points="126.6387,1242.6875,116.6387,1246.6875,126.6387,1250.6875,122.6387,1246.6875" style="stroke:#181818;stroke-width:1;"/><line style="stroke:#181818;stroke-width:1;stroke-dasharray:2,2;" x1="120.6387" x2="346.2007" y1="1246.6875" y2="1246.6875"/><text fill="#000000" font-family="sans-serif" font-size="13" lengthAdjust="spacing" textLength="91.1968" x="132.6387" y="1241.9453">success notice</text></g><!--SRC=[ZLN1RXen4Btp5ICkWPQGjEefQbB1GbJKD20WwI69AiiUYDNDcjg615NzzuxjPTUx43L8WDOUltbltipQIfiY91gPHPXPfTaIeKUFS0mJhJWQ0xSIdniDncaNcXEbBVJMzb5fQRSmNYmaHzq4Pc3I6pTMJ5l9vOfb5ffdiqdFxz1_VIUaSfaIbLcjqZH7IURJgzU3PwWtb32WtYQrm87Yl-A8mJZvzdC_BCARuaePISzRVs0wdDGrEC5NQYaDhPb1F-3s6usbLklLeSerm5K2ZY-SR3Y3XKpJIwMVMb9WPkL2ekw0tQwm0wdYp4gLTUwp9_QIi1NZLDGEyBNM53lcV4qi-9Rs1KapJXkAkuSE2E93EsZk7jgKaCoH6q-4AatFBZCHSBKa1fFnR0udR2LFJE39YAQvp_u4zb4v1bRzZU6y6RJWWPoYsuJmUaBqp3RZBM5LDJkLcfwFu9QbKdXfPt2JoTzhX5AzuqSu1EVAJNZ35r9Z-jjH4LB0TyjZbKpUA0W013Je4yniU3LCvf2CRwxdhNTjk9oElqCapi2FhyFf4CeqvrzYJ78L7D9noUoKLWHM8qBEeXWBbXgiXdbolWw5W_3v77R-ble3GbuiR9Msk_2e8zeEZQKMPBPnmS1Bg1oiTFlJwIdqcO0fKjcDzI71lw8bpQDwXatX4Q3MIWSirpWKvphu3BWYGjnI2sCg30KWQGq7VNHXD8B61H9vZW9ygm8wKqj-5yKmHehTl8w4yKP73TxsnyggxwROhHOeDTS7FkdEO1XTGoib0dMeVW099aUCH6022xNEWhQwxS609scCp9O-tY_6Z0f7oth-pnreZd9B7M8pFtF8hWhcGPTy1Ns4jucbQMv5QTX1jl5sh7fNzdphQFUoSzEJjrwjapDyZWSkl1-AuwFCeBRLS_cS5M-KWDtEW-hZxZwLaHzTpuRJEVtDnzL9xtQxTOpSnVg8IyyAHMiasWUAqA-aBHsEQt1Wz8FY6TjWyiYo9Pg3igFz8F_DmgEJ-uTUKMhMtDtdRnVvwe5OPQK1vefka9g9jG6etZRxs577rSRWu-c7l0K5lFylpkxgsf-NN1PaYgvqFC20xb0_HVvDu7xf-my0]--></g></svg>