<svg xmlns="http://www.w3.org/2000/svg" xmlns:xlink="http://www.w3.org/1999/xlink" contentStyleType="text/css" data-diagram-type="SEQUENCE" height="586px" preserveAspectRatio="none" style="width:1537px;height:586px;background:#FFFFFF;" version="1.1" viewBox="0 0 1537 586" width="1537px" zoomAndPan="magnify"><title>Search Storage Areas - Process View</title><defs/><g><text fill="#000000" font-family="sans-serif" font-size="14" font-weight="bold" lengthAdjust="spacing" textLength="265.1182" x="637.4438" y="28.5352">Search Storage Areas - Process View</text><g><title>.SPA</title><rect fill="#FFFFFF" height="306.1055" style="stroke:#181818;stroke-width:1;" width="10" x="372.436" y="174.5977"/></g><g><title>.StorageAreaController</title><rect fill="#FFFFFF" height="247.4844" style="stroke:#181818;stroke-width:1;" width="10" x="609.6011" y="203.9082"/></g><g><title>.StorageAreaService</title><rect fill="#FFFFFF" height="188.8633" style="stroke:#181818;stroke-width:1;" width="10" x="833.2456" y="233.2188"/></g><g><title>.StorageAreaRepository</title><rect fill="#FFFFFF" height="87.9316" style="stroke:#181818;stroke-width:1;" width="10" x="1056.8901" y="262.5293"/></g><g><title>.PortLogisticsDB</title><rect fill="#FFFFFF" height="29.3105" style="stroke:#181818;stroke-width:1;" width="10" x="1454.0859" y="291.8398"/></g><rect fill="none" height="352.7266" style="stroke:#000000;stroke-width:1.5;" width="1521.0059" x="10" y="135.9766"/><g><title>Port Authority Officer</title><rect fill="#000000" fill-opacity="0.00000" height="386.7266" width="8" x="91.6387" y="118.9766"/><line style="stroke:#181818;stroke-width:0.5;stroke-dasharray:5,5;" x1="95" x2="95" y1="118.9766" y2="505.7031"/></g><g><title>.SPA</title><rect fill="#000000" fill-opacity="0.00000" height="386.7266" width="8" x="373.436" y="118.9766"/><line style="stroke:#181818;stroke-width:0.5;stroke-dasharray:5,5;" x1="376.7524" x2="376.7524" y1="118.9766" y2="505.7031"/></g><g><title>.StorageAreaController</title><rect fill="#000000" fill-opacity="0.00000" height="386.7266" width="8" x="610.6011" y="118.9766"/><line style="stroke:#181818;stroke-width:0.5;stroke-dasharray:5,5;" x1="614.1636" x2="614.1636" y1="118.9766" y2="505.7031"/></g><g><title>.StorageAreaService</title><rect fill="#000000" fill-opacity="0.00000" height="386.7266" width="8" x="834.2456" y="118.9766"/><line style="stroke:#181818;stroke-width:0.5;stroke-dasharray:5,5;" x1="838.2227" x2="838.2227" y1="118.9766" y2="505.7031"/></g><g><title>.StorageAreaRepository</title><rect fill="#000000" fill-opacity="0.00000" height="386.7266" width="8" x="1057.8901" y="118.9766"/><line style="stroke:#181818;stroke-width:0.5;stroke-dasharray:5,5;" x1="1061.4702" x2="1061.4702" y1="118.9766" y2="505.7031"/></g><g><title>.PortLogisticsDB</title><rect fill="#000000" fill-opacity="0.00000" height="386.7266" width="8" x="1455.0859" y="118.9766"/><line style="stroke:#181818;stroke-width:0.5;stroke-dasharray:5,5;" x1="1458.166" x2="1458.166" y1="118.9766" y2="505.7031"/></g><g class="participant participant-head" data-participant="PAO"><text fill="#000000" font-family="sans-serif" font-size="14" lengthAdjust="spacing" textLength="145.2773" x="20" y="116.0234">Port Authority Officer</text><ellipse cx="95.6387" cy="50.9883" fill="#E2E2F0" rx="8" ry="8" style="stroke:#181818;stroke-width:0.5;"/><path d="M95.6387,58.9883 L95.6387,85.9883 M82.6387,66.9883 L108.6387,66.9883 M95.6387,85.9883 L82.6387,100.9883 M95.6387,85.9883 L108.6387,100.9883" fill="none" style="stroke:#181818;stroke-width:0.5;"/></g><g class="participant participant-tail" data-participant="PAO"><text fill="#000000" font-family="sans-serif" font-size="14" lengthAdjust="spacing" textLength="145.2773" x="20" y="518.2383">Port Authority Officer</text><ellipse cx="95.6387" cy="529.6914" fill="#E2E2F0" rx="8" ry="8" style="stroke:#181818;stroke-width:0.5;"/><path d="M95.6387,537.6914 L95.6387,564.6914 M82.6387,545.6914 L108.6387,545.6914 M95.6387,564.6914 L82.6387,579.6914 M95.6387,564.6914 L108.6387,579.6914" fill="none" style="stroke:#181818;stroke-width:0.5;"/></g><g class="participant participant-head" data-participant="SPA"><rect fill="#E2E2F0" height="30.4883" rx="2.5" ry="2.5" style="stroke:#181818;stroke-width:0.5;" width="43.3672" x="355.7524" y="87.4883"/><text fill="#000000" font-family="sans-serif" font-size="14" lengthAdjust="spacing" textLength="29.3672" x="362.7524" y="108.0234">:SPA</text></g><g class="participant participant-tail" data-participant="SPA"><rect fill="#E2E2F0" height="30.4883" rx="2.5" ry="2.5" style="stroke:#181818;stroke-width:0.5;" width="43.3672" x="355.7524" y="504.7031"/><text fill="#000000" font-family="sans-serif" font-size="14" lengthAdjust="spacing" textLength="29.3672" x="362.7524" y="525.2383">:SPA</text></g><g class="participant participant-head" data-participant="CTRL"><rect fill="#E2E2F0" height="30.4883" rx="2.5" ry="2.5" style="stroke:#181818;stroke-width:0.5;" width="168.875" x="530.1636" y="87.4883"/><text fill="#000000" font-family="sans-serif" font-size="14" lengthAdjust="spacing" textLength="154.875" x="537.1636" y="108.0234">:StorageAreaController</text></g><g class="participant participant-tail" data-participant="CTRL"><rect fill="#E2E2F0" height="30.4883" rx="2.5" ry="2.5" style="stroke:#181818;stroke-width:0.5;" width="168.875" x="530.1636" y="504.7031"/><text fill="#000000" font-family="sans-serif" font-size="14" lengthAdjust="spacing" textLength="154.875" x="537.1636" y="525.2383">:StorageAreaController</text></g><g class="participant participant-head" data-participant="SVC"><rect fill="#E2E2F0" height="30.4883" rx="2.5" ry="2.5" style="stroke:#181818;stroke-width:0.5;" width="148.0459" x="764.2227" y="87.4883"/><text fill="#000000" font-family="sans-serif" font-size="14" lengthAdjust="spacing" textLength="134.0459" x="771.2227" y="108.0234">:StorageAreaService</text></g><g class="participant participant-tail" data-participant="SVC"><rect fill="#E2E2F0" height="30.4883" rx="2.5" ry="2.5" style="stroke:#181818;stroke-width:0.5;" width="148.0459" x="764.2227" y="504.7031"/><text fill="#000000" font-family="sans-serif" font-size="14" lengthAdjust="spacing" textLength="134.0459" x="771.2227" y="525.2383">:StorageAreaService</text></g><g class="participant participant-head" data-participant="REPO"><rect fill="#E2E2F0" height="30.4883" rx="2.5" ry="2.5" style="stroke:#181818;stroke-width:0.5;" width="172.8398" x="975.4702" y="87.4883"/><text fill="#000000" font-family="sans-serif" font-size="14" lengthAdjust="spacing" textLength="158.8398" x="982.4702" y="108.0234">:StorageAreaRepository</text></g><g class="participant participant-tail" data-participant="REPO"><rect fill="#E2E2F0" height="30.4883" rx="2.5" ry="2.5" style="stroke:#181818;stroke-width:0.5;" width="172.8398" x="975.4702" y="504.7031"/><text fill="#000000" font-family="sans-serif" font-size="14" lengthAdjust="spacing" textLength="158.8398" x="982.4702" y="525.2383">:StorageAreaRepository</text></g><g class="participant participant-head" data-participant="DB"><rect fill="#E2E2F0" height="30.4883" rx="2.5" ry="2.5" style="stroke:#181818;stroke-width:0.5;" width="123.8398" x="1397.166" y="87.4883"/><text fill="#000000" font-family="sans-serif" font-size="14" lengthAdjust="spacing" textLength="109.8398" x="1404.166" y="108.0234">:PortLogisticsDB</text></g><g class="participant participant-tail" data-participant="DB"><rect fill="#E2E2F0" height="30.4883" rx="2.5" ry="2.5" style="stroke:#181818;stroke-width:0.5;" width="123.8398" x="1397.166" y="504.7031"/><text fill="#000000" font-family="sans-serif" font-size="14" lengthAdjust="spacing" textLength="109.8398" x="1404.166" y="525.2383">:PortLogisticsDB</text></g><g><title>.SPA</title><rect fill="#FFFFFF" height="306.1055" style="stroke:#181818;stroke-width:1;" width="10" x="372.436" y="174.5977"/></g><g><title>.StorageAreaController</title><rect fill="#FFFFFF" height="247.4844" style="stroke:#181818;stroke-width:1;" width="10" x="609.6011" y="203.9082"/></g><g><title>.StorageAreaService</title><rect fill="#FFFFFF" height="188.8633" style="stroke:#181818;stroke-width:1;" width="10" x="833.2456" y="233.2188"/></g><g><title>.StorageAreaRepository</title><rect fill="#FFFFFF" height="87.9316" style="stroke:#181818;stroke-width:1;" width="10" x="1056.8901" y="262.5293"/></g><g><title>.PortLogisticsDB</title><rect fill="#FFFFFF" height="29.3105" style="stroke:#181818;stroke-width:1;" width="10" x="1454.0859" y="291.8398"/></g><path d="M10,135.9766 L196.4575,135.9766 L196.4575,143.2871 L186.4575,153.2871 L10,153.2871 L10,135.9766" fill="#EEEEEE" style="stroke:#000000;stroke-width:1.5;"/><rect fill="none" height="352.7266" style="stroke:#000000;stroke-width:1.5;" width="1521.0059" x="10" y="135.9766"/><text fill="#000000" font-family="sans-serif" font-size="13" font-weight="bold" lengthAdjust="spacing" textLength="141.4575" x="25" y="149.5449">Search Storage Areas</text><g class="message" data-participant-1="PAO" data-participant-2="SPA"><polygon fill="#181818" points="360.436,170.5977,370.436,174.5977,360.436,178.5977,364.436,174.5977" style="stroke:#181818;stroke-width:1;"/><line style="stroke:#181818;stroke-width:1;" x1="95.6387" x2="366.436" y1="174.5977" y2="174.5977"/><text fill="#000000" font-family="sans-serif" font-size="13" lengthAdjust="spacing" textLength="257.7974" x="102.6387" y="169.8555">filter(identifier?, type?, dock?, page, size)</text></g><g class="message" data-participant-1="SPA" data-participant-2="CTRL"><polygon fill="#181818" points="597.6011,199.9082,607.6011,203.9082,597.6011,207.9082,601.6011,203.9082" style="stroke:#181818;stroke-width:1;"/><line style="stroke:#181818;stroke-width:1;" x1="382.436" x2="603.6011" y1="203.9082" y2="203.9082"/><text fill="#000000" font-family="sans-serif" font-size="13" lengthAdjust="spacing" textLength="208.165" x="389.436" y="199.166">GET /api/storageareas?...query...</text></g><g class="message" data-participant-1="CTRL" data-participant-2="SVC"><polygon fill="#181818" points="821.2456,229.2188,831.2456,233.2188,821.2456,237.2188,825.2456,233.2188" style="stroke:#181818;stroke-width:1;"/><line style="stroke:#181818;stroke-width:1;" x1="619.6011" x2="827.2456" y1="233.2188" y2="233.2188"/><text fill="#000000" font-family="sans-serif" font-size="13" lengthAdjust="spacing" textLength="194.6445" x="626.6011" y="228.4766">SearchAsync(filters,pagination)</text></g><g class="message" data-participant-1="SVC" data-participant-2="REPO"><polygon fill="#181818" points="1044.8901,258.5293,1054.8901,262.5293,1044.8901,266.5293,1048.8901,262.5293" style="stroke:#181818;stroke-width:1;"/><line style="stroke:#181818;stroke-width:1;" x1="843.2456" x2="1050.8901" y1="262.5293" y2="262.5293"/><text fill="#000000" font-family="sans-serif" font-size="13" lengthAdjust="spacing" textLength="194.6445" x="850.2456" y="257.7871">SearchAsync(filters,pagination)</text></g><g class="message" data-participant-1="REPO" data-participant-2="DB"><polygon fill="#181818" points="1442.0859,287.8398,1452.0859,291.8398,1442.0859,295.8398,1446.0859,291.8398" style="stroke:#181818;stroke-width:1;"/><line style="stroke:#181818;stroke-width:1;" x1="1066.8901" x2="1448.0859" y1="291.8398" y2="291.8398"/><text fill="#000000" font-family="sans-serif" font-size="13" lengthAdjust="spacing" textLength="368.1958" x="1073.8901" y="287.0977">SELECT * FROM StorageAreas WHERE ... LIMIT ... OFFSET ...</text></g><g class="message" data-participant-1="DB" data-participant-2="REPO"><polygon fill="#181818" points="1077.8901,317.1504,1067.8901,321.1504,1077.8901,325.1504,1073.8901,321.1504" style="stroke:#181818;stroke-width:1;"/><line style="stroke:#181818;stroke-width:1;stroke-dasharray:2,2;" x1="1071.8901" x2="1458.0859" y1="321.1504" y2="321.1504"/><text fill="#000000" font-family="sans-serif" font-size="13" lengthAdjust="spacing" textLength="134.9702" x="1083.8901" y="316.4082">Paged&lt;StorageArea&gt;</text></g><g class="message" data-participant-1="REPO" data-participant-2="SVC"><polygon fill="#181818" points="854.2456,346.4609,844.2456,350.4609,854.2456,354.4609,850.2456,350.4609" style="stroke:#181818;stroke-width:1;"/><line style="stroke:#181818;stroke-width:1;stroke-dasharray:2,2;" x1="848.2456" x2="1060.8901" y1="350.4609" y2="350.4609"/><text fill="#000000" font-family="sans-serif" font-size="13" lengthAdjust="spacing" textLength="19.0049" x="860.2456" y="345.7188">list</text></g><g class="message" data-participant-1="SVC" data-participant-2="SVC"><line style="stroke:#181818;stroke-width:1;" x1="843.2456" x2="885.2456" y1="379.7715" y2="379.7715"/><line style="stroke:#181818;stroke-width:1;" x1="885.2456" x2="885.2456" y1="379.7715" y2="392.7715"/><line style="stroke:#181818;stroke-width:1;" x1="844.2456" x2="885.2456" y1="392.7715" y2="392.7715"/><polygon fill="#181818" points="854.2456,388.7715,844.2456,392.7715,854.2456,396.7715,850.2456,392.7715" style="stroke:#181818;stroke-width:1;"/><text fill="#000000" font-family="sans-serif" font-size="13" lengthAdjust="spacing" textLength="92.8091" x="850.2456" y="375.0293">MapToDto(list)</text></g><g class="message" data-participant-1="SVC" data-participant-2="CTRL"><polygon fill="#181818" points="630.6011,418.082,620.6011,422.082,630.6011,426.082,626.6011,422.082" style="stroke:#181818;stroke-width:1;"/><line style="stroke:#181818;stroke-width:1;stroke-dasharray:2,2;" x1="624.6011" x2="837.2456" y1="422.082" y2="422.082"/><text fill="#000000" font-family="sans-serif" font-size="13" lengthAdjust="spacing" textLength="149.373" x="636.6011" y="417.3398">Page&lt;StorageAreaDto&gt;</text></g><g class="message" data-participant-1="CTRL" data-participant-2="SPA"><polygon fill="#181818" points="393.436,447.3926,383.436,451.3926,393.436,455.3926,389.436,451.3926" style="stroke:#181818;stroke-width:1;"/><line style="stroke:#181818;stroke-width:1;stroke-dasharray:2,2;" x1="387.436" x2="613.6011" y1="451.3926" y2="451.3926"/><text fill="#000000" font-family="sans-serif" font-size="13" lengthAdjust="spacing" textLength="108.4243" x="399.436" y="446.6504">200 OK + results</text></g><g class="message" data-participant-1="SPA" data-participant-2="PAO"><polygon fill="#181818" points="106.6387,476.7031,96.6387,480.7031,106.6387,484.7031,102.6387,480.7031" style="stroke:#181818;stroke-width:1;"/><line style="stroke:#181818;stroke-width:1;stroke-dasharray:2,2;" x1="100.6387" x2="376.436" y1="480.7031" y2="480.7031"/><text fill="#000000" font-family="sans-serif" font-size="13" lengthAdjust="spacing" textLength="116.854" x="112.6387" y="475.9609">display filtered list</text></g><!--SRC=[bLB1Rk8m4BtdAqQSQ1TerIDQjGeXTAk24YKHUxQIWOuQnLxRjCf-_OvjMW9g3tjoOh_tvisRiMHRX1A5hb-Wj5ABFKAiKHYOGgvbZSR0bl0zYaJDpp3AfROG7-oBr6Hxo7Oxgb6FW1bvd4LAQ4irAT5P6CtBFFOlV5w-X5gkL28xgsNR7bMIgbX_3ovHlt71eBfDlWSMgAGX_kyzjaZpItEkaxNSa-4xirnus78HHNij3-hBJ29mFSBqtZK4SzXHQr6FgS7EqevGFqp0zWhvQ6JzoeTYxWGC_SKh9dE4z2Oi-ZputwcmcEkOrHxJ2cw4eXiJQWfNyc4sc_qveExv72hubFZ2SvsXRS8ImNHi-guU1tDcmXQe4vPaTsw1mtCMcCTq5y__yNsW48Wii5muUhfEamgkOLLa6nWCmy3lNscH0ZS1wwVDK-M_ijMgJFtdK9X704vkUhALiqppSw1tpv06pod1oMSKBS_r7EKTdreEi8rGbLnQENRugu_Nqr1SwM5bXbuKFmOP1l6v6dUtjv0zmm_GQ0wjDUUSZ-dv1M2EswevD6HKA_hZMc7pHGzkSR1h_W40]--></g></svg>