<svg xmlns="http://www.w3.org/2000/svg" xmlns:xlink="http://www.w3.org/1999/xlink" contentStyleType="text/css" data-diagram-type="SEQUENCE" height="1470px" preserveAspectRatio="none" style="width:1812px;height:1470px;background:#FFFFFF;" version="1.1" viewBox="0 0 1812 1470" width="1812px" zoomAndPan="magnify"><title>Update Storage Area - Process View</title><defs/><g><text fill="#000000" font-family="sans-serif" font-size="14" font-weight="bold" lengthAdjust="spacing" textLength="260.7295" x="777.3982" y="28.5352">Update Storage Area - Process View</text><g><title>.SPA</title><rect fill="#FFFFFF" height="1168.666" style="stroke:#181818;stroke-width:1;" width="10" x="281.3145" y="174.5977"/></g><g><title>.StorageAreaController</title><rect fill="#FFFFFF" height="1094.7344" style="stroke:#181818;stroke-width:1;" width="10" x="498.186" y="219.2188"/></g><g><title>.StorageAreaService</title><rect fill="#FFFFFF" height="1036.1133" style="stroke:#181818;stroke-width:1;" width="10" x="932.3296" y="248.5293"/></g><g><title>.DockService</title><rect fill="#FFFFFF" height="244.4395" style="stroke:#181818;stroke-width:1;" width="10" x="1261.7622" y="691.7871"/></g><g><title>.StorageAreaRepository</title><rect fill="#FFFFFF" height="87.9316" style="stroke:#181818;stroke-width:1;" width="10" x="1408.2827" y="277.8398"/></g><g><title>.StorageAreaRepository</title><rect fill="#FFFFFF" height="87.9316" style="stroke:#181818;stroke-width:1;" width="10" x="1408.2827" y="1007.8477"/></g><g><title>.StorageAreaRepository</title><rect fill="#FFFFFF" height="87.9316" style="stroke:#181818;stroke-width:1;" width="10" x="1408.2827" y="1125.0898"/></g><g><title>.PortLogisticsDB</title><rect fill="#FFFFFF" height="29.3105" style="stroke:#181818;stroke-width:1;" width="10" x="1699.606" y="307.1504"/></g><g><title>.PortLogisticsDB</title><rect fill="#FFFFFF" height="29.3105" style="stroke:#181818;stroke-width:1;" width="10" x="1699.606" y="721.0977"/></g><g><title>.PortLogisticsDB</title><rect fill="#FFFFFF" height="29.3105" style="stroke:#181818;stroke-width:1;" width="10" x="1699.606" y="1037.1582"/></g><g><title>.PortLogisticsDB</title><rect fill="#FFFFFF" height="29.3105" style="stroke:#181818;stroke-width:1;" width="10" x="1699.606" y="1154.4004"/></g><rect fill="none" height="1236.2871" style="stroke:#000000;stroke-width:1.5;" width="1796.5259" x="10" y="135.9766"/><rect fill="none" height="984.4922" style="stroke:#000000;stroke-width:1.5;" width="1776.5259" x="20" y="380.7715"/><rect fill="none" height="807.9844" style="stroke:#000000;stroke-width:1.5;" width="1756.5259" x="30" y="550.2793"/><rect fill="none" height="585.8555" style="stroke:#000000;stroke-width:1.5;" width="1736.5259" x="40" y="765.4082"/><g><title>Port Authority Officer</title><rect fill="#000000" fill-opacity="0.00000" height="1270.2871" width="8" x="121.6387" y="118.9766"/><line style="stroke:#181818;stroke-width:0.5;stroke-dasharray:5,5;" x1="125" x2="125" y1="118.9766" y2="1389.2637"/></g><g><title>.SPA</title><rect fill="#000000" fill-opacity="0.00000" height="1270.2871" width="8" x="282.3145" y="118.9766"/><line style="stroke:#181818;stroke-width:0.5;stroke-dasharray:5,5;" x1="285.6309" x2="285.6309" y1="118.9766" y2="1389.2637"/></g><g><title>.StorageAreaController</title><rect fill="#000000" fill-opacity="0.00000" height="1270.2871" width="8" x="499.186" y="118.9766"/><line style="stroke:#181818;stroke-width:0.5;stroke-dasharray:5,5;" x1="502.7485" x2="502.7485" y1="118.9766" y2="1389.2637"/></g><g><title>.StorageAreaService</title><rect fill="#000000" fill-opacity="0.00000" height="1270.2871" width="8" x="933.3296" y="118.9766"/><line style="stroke:#181818;stroke-width:0.5;stroke-dasharray:5,5;" x1="937.3066" x2="937.3066" y1="118.9766" y2="1389.2637"/></g><g><title>.DockService</title><rect fill="#000000" fill-opacity="0.00000" height="1270.2871" width="8" x="1262.7622" y="118.9766"/><line style="stroke:#181818;stroke-width:0.5;stroke-dasharray:5,5;" x1="1266.6616" x2="1266.6616" y1="118.9766" y2="1389.2637"/></g><g><title>.StorageAreaRepository</title><rect fill="#000000" fill-opacity="0.00000" height="1270.2871" width="8" x="1409.2827" y="118.9766"/><line style="stroke:#181818;stroke-width:0.5;stroke-dasharray:5,5;" x1="1412.8628" x2="1412.8628" y1="118.9766" y2="1389.2637"/></g><g><title>.PortLogisticsDB</title><rect fill="#000000" fill-opacity="0.00000" height="1270.2871" width="8" x="1700.606" y="118.9766"/><line style="stroke:#181818;stroke-width:0.5;stroke-dasharray:5,5;" x1="1703.686" x2="1703.686" y1="118.9766" y2="1389.2637"/></g><g class="participant participant-head" data-participant="PAO"><text fill="#000000" font-family="sans-serif" font-size="14" lengthAdjust="spacing" textLength="145.2773" x="50" y="116.0234">Port Authority Officer</text><ellipse cx="125.6387" cy="50.9883" fill="#E2E2F0" rx="8" ry="8" style="stroke:#181818;stroke-width:0.5;"/><path d="M125.6387,58.9883 L125.6387,85.9883 M112.6387,66.9883 L138.6387,66.9883 M125.6387,85.9883 L112.6387,100.9883 M125.6387,85.9883 L138.6387,100.9883" fill="none" style="stroke:#181818;stroke-width:0.5;"/></g><g class="participant participant-tail" data-participant="PAO"><text fill="#000000" font-family="sans-serif" font-size="14" lengthAdjust="spacing" textLength="145.2773" x="50" y="1401.7988">Port Authority Officer</text><ellipse cx="125.6387" cy="1413.252" fill="#E2E2F0" rx="8" ry="8" style="stroke:#181818;stroke-width:0.5;"/><path d="M125.6387,1421.252 L125.6387,1448.252 M112.6387,1429.252 L138.6387,1429.252 M125.6387,1448.252 L112.6387,1463.252 M125.6387,1448.252 L138.6387,1463.252" fill="none" style="stroke:#181818;stroke-width:0.5;"/></g><g class="participant participant-head" data-participant="SPA"><rect fill="#E2E2F0" height="30.4883" rx="2.5" ry="2.5" style="stroke:#181818;stroke-width:0.5;" width="43.3672" x="264.6309" y="87.4883"/><text fill="#000000" font-family="sans-serif" font-size="14" lengthAdjust="spacing" textLength="29.3672" x="271.6309" y="108.0234">:SPA</text></g><g class="participant participant-tail" data-participant="SPA"><rect fill="#E2E2F0" height="30.4883" rx="2.5" ry="2.5" style="stroke:#181818;stroke-width:0.5;" width="43.3672" x="264.6309" y="1388.2637"/><text fill="#000000" font-family="sans-serif" font-size="14" lengthAdjust="spacing" textLength="29.3672" x="271.6309" y="1408.7988">:SPA</text></g><g class="participant participant-head" data-participant="CTRL"><rect fill="#E2E2F0" height="30.4883" rx="2.5" ry="2.5" style="stroke:#181818;stroke-width:0.5;" width="168.875" x="418.7485" y="87.4883"/><text fill="#000000" font-family="sans-serif" font-size="14" lengthAdjust="spacing" textLength="154.875" x="425.7485" y="108.0234">:StorageAreaController</text></g><g class="participant participant-tail" data-participant="CTRL"><rect fill="#E2E2F0" height="30.4883" rx="2.5" ry="2.5" style="stroke:#181818;stroke-width:0.5;" width="168.875" x="418.7485" y="1388.2637"/><text fill="#000000" font-family="sans-serif" font-size="14" lengthAdjust="spacing" textLength="154.875" x="425.7485" y="1408.7988">:StorageAreaController</text></g><g class="participant participant-head" data-participant="SVC"><rect fill="#E2E2F0" height="30.4883" rx="2.5" ry="2.5" style="stroke:#181818;stroke-width:0.5;" width="148.0459" x="863.3066" y="87.4883"/><text fill="#000000" font-family="sans-serif" font-size="14" lengthAdjust="spacing" textLength="134.0459" x="870.3066" y="108.0234">:StorageAreaService</text></g><g class="participant participant-tail" data-participant="SVC"><rect fill="#E2E2F0" height="30.4883" rx="2.5" ry="2.5" style="stroke:#181818;stroke-width:0.5;" width="148.0459" x="863.3066" y="1388.2637"/><text fill="#000000" font-family="sans-serif" font-size="14" lengthAdjust="spacing" textLength="134.0459" x="870.3066" y="1408.7988">:StorageAreaService</text></g><g class="participant participant-head" data-participant="DOCK_SVC"><rect fill="#E2E2F0" height="30.4883" rx="2.5" ry="2.5" style="stroke:#181818;stroke-width:0.5;" width="100.2012" x="1216.6616" y="87.4883"/><text fill="#000000" font-family="sans-serif" font-size="14" lengthAdjust="spacing" textLength="86.2012" x="1223.6616" y="108.0234">:DockService</text></g><g class="participant participant-tail" data-participant="DOCK_SVC"><rect fill="#E2E2F0" height="30.4883" rx="2.5" ry="2.5" style="stroke:#181818;stroke-width:0.5;" width="100.2012" x="1216.6616" y="1388.2637"/><text fill="#000000" font-family="sans-serif" font-size="14" lengthAdjust="spacing" textLength="86.2012" x="1223.6616" y="1408.7988">:DockService</text></g><g class="participant participant-head" data-participant="REPO"><rect fill="#E2E2F0" height="30.4883" rx="2.5" ry="2.5" style="stroke:#181818;stroke-width:0.5;" width="172.8398" x="1326.8628" y="87.4883"/><text fill="#000000" font-family="sans-serif" font-size="14" lengthAdjust="spacing" textLength="158.8398" x="1333.8628" y="108.0234">:StorageAreaRepository</text></g><g class="participant participant-tail" data-participant="REPO"><rect fill="#E2E2F0" height="30.4883" rx="2.5" ry="2.5" style="stroke:#181818;stroke-width:0.5;" width="172.8398" x="1326.8628" y="1388.2637"/><text fill="#000000" font-family="sans-serif" font-size="14" lengthAdjust="spacing" textLength="158.8398" x="1333.8628" y="1408.7988">:StorageAreaRepository</text></g><g class="participant participant-head" data-participant="DB"><rect fill="#E2E2F0" height="30.4883" rx="2.5" ry="2.5" style="stroke:#181818;stroke-width:0.5;" width="123.8398" x="1642.686" y="87.4883"/><text fill="#000000" font-family="sans-serif" font-size="14" lengthAdjust="spacing" textLength="109.8398" x="1649.686" y="108.0234">:PortLogisticsDB</text></g><g class="participant participant-tail" data-participant="DB"><rect fill="#E2E2F0" height="30.4883" rx="2.5" ry="2.5" style="stroke:#181818;stroke-width:0.5;" width="123.8398" x="1642.686" y="1388.2637"/><text fill="#000000" font-family="sans-serif" font-size="14" lengthAdjust="spacing" textLength="109.8398" x="1649.686" y="1408.7988">:PortLogisticsDB</text></g><g><title>.SPA</title><rect fill="#FFFFFF" height="1168.666" style="stroke:#181818;stroke-width:1;" width="10" x="281.3145" y="174.5977"/></g><g><title>.StorageAreaController</title><rect fill="#FFFFFF" height="1094.7344" style="stroke:#181818;stroke-width:1;" width="10" x="498.186" y="219.2188"/></g><g><title>.StorageAreaService</title><rect fill="#FFFFFF" height="1036.1133" style="stroke:#181818;stroke-width:1;" width="10" x="932.3296" y="248.5293"/></g><g><title>.DockService</title><rect fill="#FFFFFF" height="244.4395" style="stroke:#181818;stroke-width:1;" width="10" x="1261.7622" y="691.7871"/></g><g><title>.StorageAreaRepository</title><rect fill="#FFFFFF" height="87.9316" style="stroke:#181818;stroke-width:1;" width="10" x="1408.2827" y="277.8398"/></g><g><title>.StorageAreaRepository</title><rect fill="#FFFFFF" height="87.9316" style="stroke:#181818;stroke-width:1;" width="10" x="1408.2827" y="1007.8477"/></g><g><title>.StorageAreaRepository</title><rect fill="#FFFFFF" height="87.9316" style="stroke:#181818;stroke-width:1;" width="10" x="1408.2827" y="1125.0898"/></g><g><title>.PortLogisticsDB</title><rect fill="#FFFFFF" height="29.3105" style="stroke:#181818;stroke-width:1;" width="10" x="1699.606" y="307.1504"/></g><g><title>.PortLogisticsDB</title><rect fill="#FFFFFF" height="29.3105" style="stroke:#181818;stroke-width:1;" width="10" x="1699.606" y="721.0977"/></g><g><title>.PortLogisticsDB</title><rect fill="#FFFFFF" height="29.3105" style="stroke:#181818;stroke-width:1;" width="10" x="1699.606" y="1037.1582"/></g><g><title>.PortLogisticsDB</title><rect fill="#FFFFFF" height="29.3105" style="stroke:#181818;stroke-width:1;" width="10" x="1699.606" y="1154.4004"/></g><path d="M10,135.9766 L192.3823,135.9766 L192.3823,143.2871 L182.3823,153.2871 L10,153.2871 L10,135.9766" fill="#EEEEEE" style="stroke:#000000;stroke-width:1.5;"/><rect fill="none" height="1236.2871" style="stroke:#000000;stroke-width:1.5;" width="1796.5259" x="10" y="135.9766"/><text fill="#000000" font-family="sans-serif" font-size="13" font-weight="bold" lengthAdjust="spacing" textLength="137.3823" x="25" y="149.5449">Update Storage Area</text><g class="message" data-participant-1="PAO" data-participant-2="SPA"><polygon fill="#181818" points="269.3145,170.5977,279.3145,174.5977,269.3145,178.5977,273.3145,174.5977" style="stroke:#181818;stroke-width:1;"/><line style="stroke:#181818;stroke-width:1;" x1="125.6387" x2="275.3145" y1="174.5977" y2="174.5977"/><text fill="#000000" font-family="sans-serif" font-size="13" lengthAdjust="spacing" textLength="135.04" x="132.6387" y="169.8555">openEditForm(areaId)</text></g><g class="message" data-participant-1="SPA" data-participant-2="CTRL"><polygon fill="#181818" points="486.186,215.2188,496.186,219.2188,486.186,223.2188,490.186,219.2188" style="stroke:#181818;stroke-width:1;"/><line style="stroke:#181818;stroke-width:1;" x1="291.3145" x2="492.186" y1="219.2188" y2="219.2188"/><text fill="#000000" font-family="sans-serif" font-size="13" lengthAdjust="spacing" textLength="187.8716" x="298.3145" y="199.166">PATCH /api/storageareas/{id}</text><text fill="#000000" font-family="sans-serif" font-size="13" lengthAdjust="spacing" textLength="152.1025" x="298.3145" y="214.4766">{UpdateStorageAreaDto}</text></g><g class="message" data-participant-1="CTRL" data-participant-2="SVC"><polygon fill="#181818" points="920.3296,244.5293,930.3296,248.5293,920.3296,252.5293,924.3296,248.5293" style="stroke:#181818;stroke-width:1;"/><line style="stroke:#181818;stroke-width:1;" x1="508.186" x2="926.3296" y1="248.5293" y2="248.5293"/><text fill="#000000" font-family="sans-serif" font-size="13" lengthAdjust="spacing" textLength="127.3086" x="515.186" y="243.7871">UpdateAsync(id,dto)</text></g><g class="message" data-participant-1="SVC" data-participant-2="REPO"><polygon fill="#181818" points="1396.2827,273.8398,1406.2827,277.8398,1396.2827,281.8398,1400.2827,277.8398" style="stroke:#181818;stroke-width:1;"/><line style="stroke:#181818;stroke-width:1;" x1="942.3296" x2="1402.2827" y1="277.8398" y2="277.8398"/><text fill="#000000" font-family="sans-serif" font-size="13" lengthAdjust="spacing" textLength="105.2061" x="949.3296" y="273.0977">GetByIdAsync(id)</text></g><g class="message" data-participant-1="REPO" data-participant-2="DB"><polygon fill="#181818" points="1687.606,303.1504,1697.606,307.1504,1687.606,311.1504,1691.606,307.1504" style="stroke:#181818;stroke-width:1;"/><line style="stroke:#181818;stroke-width:1;" x1="1418.2827" x2="1693.606" y1="307.1504" y2="307.1504"/><text fill="#000000" font-family="sans-serif" font-size="13" lengthAdjust="spacing" textLength="262.3232" x="1425.2827" y="302.4082">SELECT * FROM StorageAreas WHERE Id=?</text></g><g class="message" data-participant-1="DB" data-participant-2="REPO"><polygon fill="#181818" points="1429.2827,332.4609,1419.2827,336.4609,1429.2827,340.4609,1425.2827,336.4609" style="stroke:#181818;stroke-width:1;"/><line style="stroke:#181818;stroke-width:1;stroke-dasharray:2,2;" x1="1423.2827" x2="1703.606" y1="336.4609" y2="336.4609"/><text fill="#000000" font-family="sans-serif" font-size="13" lengthAdjust="spacing" textLength="72.103" x="1435.2827" y="331.7188">area or null</text></g><g class="message" data-participant-1="REPO" data-participant-2="SVC"><polygon fill="#181818" points="953.3296,361.7715,943.3296,365.7715,953.3296,369.7715,949.3296,365.7715" style="stroke:#181818;stroke-width:1;"/><line style="stroke:#181818;stroke-width:1;stroke-dasharray:2,2;" x1="947.3296" x2="1412.2827" y1="365.7715" y2="365.7715"/><text fill="#000000" font-family="sans-serif" font-size="13" lengthAdjust="spacing" textLength="26.9204" x="959.3296" y="361.0293">area</text></g><path d="M20,380.7715 L82.1387,380.7715 L82.1387,388.082 L72.1387,398.082 L20,398.082 L20,380.7715" fill="#EEEEEE" style="stroke:#000000;stroke-width:1.5;"/><rect fill="none" height="984.4922" style="stroke:#000000;stroke-width:1.5;" width="1776.5259" x="20" y="380.7715"/><text fill="#000000" font-family="sans-serif" font-size="13" font-weight="bold" lengthAdjust="spacing" textLength="17.1387" x="35" y="394.3398">alt</text><text fill="#000000" font-family="sans-serif" font-size="11" font-weight="bold" lengthAdjust="spacing" textLength="63.8086" x="97.1387" y="393.4063">[not found]</text><g class="message" data-participant-1="SVC" data-participant-2="CTRL"><polygon fill="#181818" points="519.186,415.3926,509.186,419.3926,519.186,423.3926,515.186,419.3926" style="stroke:#181818;stroke-width:1;"/><line style="stroke:#181818;stroke-width:1;stroke-dasharray:2,2;" x1="513.186" x2="931.3296" y1="419.3926" y2="419.3926"/><text fill="#000000" font-family="sans-serif" font-size="13" lengthAdjust="spacing" textLength="94.6118" x="525.186" y="414.6504">404 Not Found</text></g><g class="message" data-participant-1="CTRL" data-participant-2="SPA"><polygon fill="#181818" points="302.3145,444.7031,292.3145,448.7031,302.3145,452.7031,298.3145,448.7031" style="stroke:#181818;stroke-width:1;"/><line style="stroke:#181818;stroke-width:1;stroke-dasharray:2,2;" x1="296.3145" x2="497.186" y1="448.7031" y2="448.7031"/><text fill="#000000" font-family="sans-serif" font-size="13" lengthAdjust="spacing" textLength="98.9219" x="308.3145" y="443.9609">show not found</text></g><g class="message" data-participant-1="SPA" data-participant-2="PAO"><polygon fill="#181818" points="136.6387,474.0137,126.6387,478.0137,136.6387,482.0137,132.6387,478.0137" style="stroke:#181818;stroke-width:1;"/><line style="stroke:#181818;stroke-width:1;stroke-dasharray:2,2;" x1="130.6387" x2="280.3145" y1="478.0137" y2="478.0137"/><text fill="#000000" font-family="sans-serif" font-size="13" lengthAdjust="spacing" textLength="36.2451" x="142.6387" y="473.2715">notify</text></g><line style="stroke:#000000;stroke-width:1;stroke-dasharray:2,2;" x1="20" x2="1796.5259" y1="487.0137" y2="487.0137"/><text fill="#000000" font-family="sans-serif" font-size="11" font-weight="bold" lengthAdjust="spacing" textLength="41.4756" x="25" y="497.6484">[found]</text><g class="message" data-participant-1="SVC" data-participant-2="SVC"><line style="stroke:#181818;stroke-width:1;" x1="942.3296" x2="984.3296" y1="522.2793" y2="522.2793"/><line style="stroke:#181818;stroke-width:1;" x1="984.3296" x2="984.3296" y1="522.2793" y2="535.2793"/><line style="stroke:#181818;stroke-width:1;" x1="943.3296" x2="984.3296" y1="535.2793" y2="535.2793"/><polygon fill="#181818" points="953.3296,531.2793,943.3296,535.2793,953.3296,539.2793,949.3296,535.2793" style="stroke:#181818;stroke-width:1;"/><text fill="#000000" font-family="sans-serif" font-size="13" lengthAdjust="spacing" textLength="295.4326" x="949.3296" y="517.5371">Validate(area.CurrentOcc &lt;= dto.MaxCapacity)</text></g><path d="M30,550.2793 L92.1387,550.2793 L92.1387,557.5898 L82.1387,567.5898 L30,567.5898 L30,550.2793" fill="#EEEEEE" style="stroke:#000000;stroke-width:1.5;"/><rect fill="none" height="807.9844" style="stroke:#000000;stroke-width:1.5;" width="1756.5259" x="30" y="550.2793"/><text fill="#000000" font-family="sans-serif" font-size="13" font-weight="bold" lengthAdjust="spacing" textLength="17.1387" x="45" y="563.8477">alt</text><text fill="#000000" font-family="sans-serif" font-size="11" font-weight="bold" lengthAdjust="spacing" textLength="192.9727" x="107.1387" y="562.9141">[occupancy exceeds new capacity]</text><g class="message" data-participant-1="SVC" data-participant-2="CTRL"><polygon fill="#181818" points="519.186,584.9004,509.186,588.9004,519.186,592.9004,515.186,588.9004" style="stroke:#181818;stroke-width:1;"/><line style="stroke:#181818;stroke-width:1;stroke-dasharray:2,2;" x1="513.186" x2="931.3296" y1="588.9004" y2="588.9004"/><text fill="#000000" font-family="sans-serif" font-size="13" lengthAdjust="spacing" textLength="400.1436" x="525.186" y="584.1582">409 Conflict "Cannot reduce capacity below current occupancy"</text></g><g class="message" data-participant-1="CTRL" data-participant-2="SPA"><polygon fill="#181818" points="302.3145,614.2109,292.3145,618.2109,302.3145,622.2109,298.3145,618.2109" style="stroke:#181818;stroke-width:1;"/><line style="stroke:#181818;stroke-width:1;stroke-dasharray:2,2;" x1="296.3145" x2="497.186" y1="618.2109" y2="618.2109"/><text fill="#000000" font-family="sans-serif" font-size="13" lengthAdjust="spacing" textLength="135.4971" x="308.3145" y="613.4688">show constraint error</text></g><g class="message" data-participant-1="SPA" data-participant-2="PAO"><polygon fill="#181818" points="136.6387,643.5215,126.6387,647.5215,136.6387,651.5215,132.6387,647.5215" style="stroke:#181818;stroke-width:1;"/><line style="stroke:#181818;stroke-width:1;stroke-dasharray:2,2;" x1="130.6387" x2="280.3145" y1="647.5215" y2="647.5215"/><text fill="#000000" font-family="sans-serif" font-size="13" lengthAdjust="spacing" textLength="75.5625" x="142.6387" y="642.7793">correct data</text></g><line style="stroke:#000000;stroke-width:1;stroke-dasharray:2,2;" x1="30" x2="1786.5259" y1="656.5215" y2="656.5215"/><text fill="#000000" font-family="sans-serif" font-size="11" font-weight="bold" lengthAdjust="spacing" textLength="22.1396" x="35" y="667.1563">[ok]</text><g class="message" data-participant-1="SVC" data-participant-2="DOCK_SVC"><polygon fill="#181818" points="1249.7622,687.7871,1259.7622,691.7871,1249.7622,695.7871,1253.7622,691.7871" style="stroke:#181818;stroke-width:1;"/><line style="stroke:#181818;stroke-width:1;" x1="942.3296" x2="1255.7622" y1="691.7871" y2="691.7871"/><text fill="#000000" font-family="sans-serif" font-size="13" lengthAdjust="spacing" textLength="213.5605" x="949.3296" y="687.0449">ValidateDockIds(dto.docksServed)</text></g><g class="message" data-participant-1="DOCK_SVC" data-participant-2="DB"><polygon fill="#181818" points="1687.606,717.0977,1697.606,721.0977,1687.606,725.0977,1691.606,721.0977" style="stroke:#181818;stroke-width:1;"/><line style="stroke:#181818;stroke-width:1;" x1="1271.7622" x2="1693.606" y1="721.0977" y2="721.0977"/><text fill="#000000" font-family="sans-serif" font-size="13" lengthAdjust="spacing" textLength="191.6802" x="1278.7622" y="716.3555">SELECT Docks WHERE Id IN list</text></g><g class="message" data-participant-1="DB" data-participant-2="DOCK_SVC"><polygon fill="#181818" points="1282.7622,746.4082,1272.7622,750.4082,1282.7622,754.4082,1278.7622,750.4082" style="stroke:#181818;stroke-width:1;"/><line style="stroke:#181818;stroke-width:1;stroke-dasharray:2,2;" x1="1276.7622" x2="1703.606" y1="750.4082" y2="750.4082"/><text fill="#000000" font-family="sans-serif" font-size="13" lengthAdjust="spacing" textLength="83.5542" x="1288.7622" y="745.666">dockIds exist</text></g><path d="M40,765.4082 L102.1387,765.4082 L102.1387,772.7188 L92.1387,782.7188 L40,782.7188 L40,765.4082" fill="#EEEEEE" style="stroke:#000000;stroke-width:1.5;"/><rect fill="none" height="585.8555" style="stroke:#000000;stroke-width:1.5;" width="1736.5259" x="40" y="765.4082"/><text fill="#000000" font-family="sans-serif" font-size="13" font-weight="bold" lengthAdjust="spacing" textLength="17.1387" x="55" y="778.9766">alt</text><text fill="#000000" font-family="sans-serif" font-size="11" font-weight="bold" lengthAdjust="spacing" textLength="83.6494" x="117.1387" y="778.043">[missing dock]</text><g class="message" data-participant-1="DOCK_SVC" data-participant-2="SVC"><polygon fill="#181818" points="953.3296,800.0293,943.3296,804.0293,953.3296,808.0293,949.3296,804.0293" style="stroke:#181818;stroke-width:1;"/><line style="stroke:#181818;stroke-width:1;stroke-dasharray:2,2;" x1="947.3296" x2="1260.7622" y1="804.0293" y2="804.0293"/><text fill="#000000" font-family="sans-serif" font-size="13" lengthAdjust="spacing" textLength="31.186" x="959.3296" y="799.2871">error</text></g><g class="message" data-participant-1="SVC" data-participant-2="CTRL"><polygon fill="#181818" points="519.186,829.3398,509.186,833.3398,519.186,837.3398,515.186,833.3398" style="stroke:#181818;stroke-width:1;"/><line style="stroke:#181818;stroke-width:1;stroke-dasharray:2,2;" x1="513.186" x2="931.3296" y1="833.3398" y2="833.3398"/><text fill="#000000" font-family="sans-serif" font-size="13" lengthAdjust="spacing" textLength="106.1709" x="525.186" y="828.5977">400 Bad Request</text></g><g class="message" data-participant-1="CTRL" data-participant-2="SPA"><polygon fill="#181818" points="302.3145,858.6504,292.3145,862.6504,302.3145,866.6504,298.3145,862.6504" style="stroke:#181818;stroke-width:1;"/><line style="stroke:#181818;stroke-width:1;stroke-dasharray:2,2;" x1="296.3145" x2="497.186" y1="862.6504" y2="862.6504"/><text fill="#000000" font-family="sans-serif" font-size="13" lengthAdjust="spacing" textLength="67.9961" x="308.3145" y="857.9082">show error</text></g><g class="message" data-participant-1="SPA" data-participant-2="PAO"><polygon fill="#181818" points="136.6387,887.9609,126.6387,891.9609,136.6387,895.9609,132.6387,891.9609" style="stroke:#181818;stroke-width:1;"/><line style="stroke:#181818;stroke-width:1;stroke-dasharray:2,2;" x1="130.6387" x2="280.3145" y1="891.9609" y2="891.9609"/><text fill="#000000" font-family="sans-serif" font-size="13" lengthAdjust="spacing" textLength="85.2109" x="142.6387" y="887.2188">correct docks</text></g><line style="stroke:#000000;stroke-width:1;stroke-dasharray:2,2;" x1="40" x2="1776.5259" y1="900.9609" y2="900.9609"/><text fill="#000000" font-family="sans-serif" font-size="11" font-weight="bold" lengthAdjust="spacing" textLength="35.5889" x="45" y="911.5957">[valid]</text><g class="message" data-participant-1="DOCK_SVC" data-participant-2="SVC"><polygon fill="#181818" points="953.3296,932.2266,943.3296,936.2266,953.3296,940.2266,949.3296,936.2266" style="stroke:#181818;stroke-width:1;"/><line style="stroke:#181818;stroke-width:1;stroke-dasharray:2,2;" x1="947.3296" x2="1265.7622" y1="936.2266" y2="936.2266"/><text fill="#000000" font-family="sans-serif" font-size="13" lengthAdjust="spacing" textLength="29.6055" x="959.3296" y="931.4844">valid</text></g><g class="message" data-participant-1="SVC" data-participant-2="SVC"><line style="stroke:#181818;stroke-width:1;" x1="942.3296" x2="984.3296" y1="965.5371" y2="965.5371"/><line style="stroke:#181818;stroke-width:1;" x1="984.3296" x2="984.3296" y1="965.5371" y2="978.5371"/><line style="stroke:#181818;stroke-width:1;" x1="943.3296" x2="984.3296" y1="978.5371" y2="978.5371"/><polygon fill="#181818" points="953.3296,974.5371,943.3296,978.5371,953.3296,982.5371,949.3296,978.5371" style="stroke:#181818;stroke-width:1;"/><text fill="#000000" font-family="sans-serif" font-size="13" lengthAdjust="spacing" textLength="137.5854" x="949.3296" y="960.7949">area.UpdateFrom(dto)</text></g><g class="message" data-participant-1="SVC" data-participant-2="REPO"><polygon fill="#181818" points="1396.2827,1003.8477,1406.2827,1007.8477,1396.2827,1011.8477,1400.2827,1007.8477" style="stroke:#181818;stroke-width:1;"/><line style="stroke:#181818;stroke-width:1;" x1="942.3296" x2="1402.2827" y1="1007.8477" y2="1007.8477"/><text fill="#000000" font-family="sans-serif" font-size="13" lengthAdjust="spacing" textLength="117.146" x="949.3296" y="1003.1055">UpdateAsync(area)</text></g><g class="message" data-participant-1="REPO" data-participant-2="DB"><polygon fill="#181818" points="1687.606,1033.1582,1697.606,1037.1582,1687.606,1041.1582,1691.606,1037.1582" style="stroke:#181818;stroke-width:1;"/><line style="stroke:#181818;stroke-width:1;" x1="1418.2827" x2="1693.606" y1="1037.1582" y2="1037.1582"/><text fill="#000000" font-family="sans-serif" font-size="13" lengthAdjust="spacing" textLength="153.7656" x="1425.2827" y="1032.416">UPDATE StorageAreas ...</text></g><g class="message" data-participant-1="DB" data-participant-2="REPO"><polygon fill="#181818" points="1429.2827,1062.4688,1419.2827,1066.4688,1429.2827,1070.4688,1425.2827,1066.4688" style="stroke:#181818;stroke-width:1;"/><line style="stroke:#181818;stroke-width:1;stroke-dasharray:2,2;" x1="1423.2827" x2="1703.606" y1="1066.4688" y2="1066.4688"/><text fill="#000000" font-family="sans-serif" font-size="13" lengthAdjust="spacing" textLength="51.8984" x="1435.2827" y="1061.7266">updated</text></g><g class="message" data-participant-1="REPO" data-participant-2="SVC"><polygon fill="#181818" points="953.3296,1091.7793,943.3296,1095.7793,953.3296,1099.7793,949.3296,1095.7793" style="stroke:#181818;stroke-width:1;"/><line style="stroke:#181818;stroke-width:1;stroke-dasharray:2,2;" x1="947.3296" x2="1412.2827" y1="1095.7793" y2="1095.7793"/><text fill="#000000" font-family="sans-serif" font-size="13" lengthAdjust="spacing" textLength="48.5088" x="959.3296" y="1091.0371">success</text></g><g class="message" data-participant-1="SVC" data-participant-2="REPO"><polygon fill="#181818" points="1396.2827,1121.0898,1406.2827,1125.0898,1396.2827,1129.0898,1400.2827,1125.0898" style="stroke:#181818;stroke-width:1;"/><line style="stroke:#181818;stroke-width:1;" x1="942.3296" x2="1402.2827" y1="1125.0898" y2="1125.0898"/><text fill="#000000" font-family="sans-serif" font-size="13" lengthAdjust="spacing" textLength="128.0068" x="949.3296" y="1120.3477">SaveChangesAsync()</text></g><g class="message" data-participant-1="REPO" data-participant-2="DB"><polygon fill="#181818" points="1687.606,1150.4004,1697.606,1154.4004,1687.606,1158.4004,1691.606,1154.4004" style="stroke:#181818;stroke-width:1;"/><line style="stroke:#181818;stroke-width:1;" x1="1418.2827" x2="1693.606" y1="1154.4004" y2="1154.4004"/><text fill="#000000" font-family="sans-serif" font-size="13" lengthAdjust="spacing" textLength="90.8921" x="1425.2827" y="1149.6582">SaveChanges()</text></g><g class="message" data-participant-1="DB" data-participant-2="REPO"><polygon fill="#181818" points="1429.2827,1179.7109,1419.2827,1183.7109,1429.2827,1187.7109,1425.2827,1183.7109" style="stroke:#181818;stroke-width:1;"/><line style="stroke:#181818;stroke-width:1;stroke-dasharray:2,2;" x1="1423.2827" x2="1703.606" y1="1183.7109" y2="1183.7109"/><text fill="#000000" font-family="sans-serif" font-size="13" lengthAdjust="spacing" textLength="15.5835" x="1435.2827" y="1178.9688">ok</text></g><g class="message" data-participant-1="REPO" data-participant-2="SVC"><polygon fill="#181818" points="953.3296,1209.0215,943.3296,1213.0215,953.3296,1217.0215,949.3296,1213.0215" style="stroke:#181818;stroke-width:1;"/><line style="stroke:#181818;stroke-width:1;stroke-dasharray:2,2;" x1="947.3296" x2="1412.2827" y1="1213.0215" y2="1213.0215"/><text fill="#000000" font-family="sans-serif" font-size="13" lengthAdjust="spacing" textLength="15.5835" x="959.3296" y="1208.2793">ok</text></g><g class="message" data-participant-1="SVC" data-participant-2="SVC"><line style="stroke:#181818;stroke-width:1;" x1="942.3296" x2="984.3296" y1="1242.332" y2="1242.332"/><line style="stroke:#181818;stroke-width:1;" x1="984.3296" x2="984.3296" y1="1242.332" y2="1255.332"/><line style="stroke:#181818;stroke-width:1;" x1="943.3296" x2="984.3296" y1="1255.332" y2="1255.332"/><polygon fill="#181818" points="953.3296,1251.332,943.3296,1255.332,953.3296,1259.332,949.3296,1255.332" style="stroke:#181818;stroke-width:1;"/><text fill="#000000" font-family="sans-serif" font-size="13" lengthAdjust="spacing" textLength="74.166" x="949.3296" y="1237.5898">ToDto(area)</text></g><g class="message" data-participant-1="SVC" data-participant-2="CTRL"><polygon fill="#181818" points="519.186,1280.6426,509.186,1284.6426,519.186,1288.6426,515.186,1284.6426" style="stroke:#181818;stroke-width:1;"/><line style="stroke:#181818;stroke-width:1;stroke-dasharray:2,2;" x1="513.186" x2="936.3296" y1="1284.6426" y2="1284.6426"/><text fill="#000000" font-family="sans-serif" font-size="13" lengthAdjust="spacing" textLength="98.9917" x="525.186" y="1279.9004">StorageAreaDto</text></g><g class="message" data-participant-1="CTRL" data-participant-2="SPA"><polygon fill="#181818" points="302.3145,1309.9531,292.3145,1313.9531,302.3145,1317.9531,298.3145,1313.9531" style="stroke:#181818;stroke-width:1;"/><line style="stroke:#181818;stroke-width:1;stroke-dasharray:2,2;" x1="296.3145" x2="502.186" y1="1313.9531" y2="1313.9531"/><text fill="#000000" font-family="sans-serif" font-size="13" lengthAdjust="spacing" textLength="164.9121" x="308.3145" y="1309.2109">200 OK + StorageAreaDto</text></g><g class="message" data-participant-1="SPA" data-participant-2="PAO"><polygon fill="#181818" points="136.6387,1339.2637,126.6387,1343.2637,136.6387,1347.2637,132.6387,1343.2637" style="stroke:#181818;stroke-width:1;"/><line style="stroke:#181818;stroke-width:1;stroke-dasharray:2,2;" x1="130.6387" x2="285.3145" y1="1343.2637" y2="1343.2637"/><text fill="#000000" font-family="sans-serif" font-size="13" lengthAdjust="spacing" textLength="131.6758" x="142.6387" y="1338.5215">updated successfully</text></g><!--SRC=[bLLTRzem57tdLrpnKhgjj9hwichj50Aig1yWeEnbqkGvXbfDuynsQAEg_ttNTXASa4uh4g34vnxVS-xrjUOwPd2NHaGpM6WXoOP181c18vX9GPbIiEBigTCX55UXEnDIGv3fUo6vpc6wNdFAP1U8WbamxQH4QavvIX8DtRF5BB0h-DzSSLkPdKAHQ2dYk609b_Fhjy4B9hUueMDTXGtWKD077p6SXbU_zc4UtvobGd5ypct0V3HhQZ22hyM6AtodXWF7E-XqDb9aQPjp7J1EmD65aGrd85AMZ2Aknq8-zWW29j4XOj1FlhMnQ0u-6p366FaOD0kMuIKSavGVAyTj8jNn2uzUVoOlRbjFnr2BLv_KkeWlB9r9PHKYgmiBL9xG7ey-HLhKCq6dJ2Q8nH3Z1SPyPtgGJw8og1PWxGA7n8ZX0F6BqVKeNC876C-dD-2bgE37vMW-Wabq_iqdGJF1X1xjzZHQ0RijoU8O5oDM1xlzAbN4cUwXR5vcZrX38ZIiHPP4-5neszbyUd8AjmWOLm1dM5KyTI-UcXIcK0WmHJupQtoTumAB5VDG1x0bCRVDGKbAg3aiMmKqav9XNmbACsmmck-oAkMiYZZRA_tG1KmfXQ_dW1Nhtv3di60yxDXm8xCY1FPC6OiK9Eofsjh2MjH_0JnzwvXJxFIG94QeP556lQH_inWjsCkxMr2s-KL5ehGa7F5CIY7BtMl6KO6Ck2zA9HPW3HGF1TZpBy9JZQTE2Sg9viZjgxce3hbddPa3aqZrZ5qcMfcXm6plMh-gRYhdWtjVCJLwsT3jkXScjn3ZEDWZ6vGqhfUzl2AN3vPc5zTiwhAGZrmfdcniJF7Qpwng4z_PbigUm814C6T_CbPjsLwj1b5xaOm31SRMoHRdN-dL0RxOqlDgyG22D8rpoEnqKdLD_Y7lk_arbkAnPsTN4rgC3t_CcRZ32jUSNEvJcrztis6m7DK7Lx_VtwUegjQSNav7k_X1OzDAdygekMpRWiffrYPrGROil2V9XYcdzrrQlUYsm3SLYeVtYMl7j-fo0Kk15rgZTeqMhrz-RVor9cjq_cSy8DCh-FWVDELLsdO-YbANrLlZVPMtfe9tV75wYll1_PjV_Fu5]--></g></svg>