<svg xmlns="http://www.w3.org/2000/svg" xmlns:xlink="http://www.w3.org/1999/xlink" contentStyleType="text/css" data-diagram-type="SEQUENCE" height="1124px" preserveAspectRatio="none" style="width:1671px;height:1124px;background:#FFFFFF;" version="1.1" viewBox="0 0 1671 1124" width="1671px" zoomAndPan="magnify"><title>Create Qualification - Process View</title><defs/><g><text fill="#000000" font-family="sans-serif" font-size="14" font-weight="bold" lengthAdjust="spacing" textLength="256.5049" x="709.1248" y="28.5352">Create Qualification - Process View</text><g><title>.QualificationController</title><rect fill="#FFFFFF" height="250.4844" style="stroke:#181818;stroke-width:1;" width="10" x="704.3389" y="285.8398"/></g><g><title>.QualificationService</title><rect fill="#FFFFFF" height="523.2793" style="stroke:#181818;stroke-width:1;" width="10" x="1076.1865" y="315.1504"/></g><g><title>.QualificationRepository</title><rect fill="#FFFFFF" height="87.9316" style="stroke:#181818;stroke-width:1;" width="10" x="1256.7349" y="603.9453"/></g><g><title>.QualificationRepository</title><rect fill="#FFFFFF" height="87.9316" style="stroke:#181818;stroke-width:1;" width="10" x="1256.7349" y="721.1875"/></g><g><title>.PortManagementDB</title><rect fill="#FFFFFF" height="29.3105" style="stroke:#181818;stroke-width:1;" width="10" x="1574.8516" y="633.2559"/></g><g><title>.PortManagementDB</title><rect fill="#FFFFFF" height="29.3105" style="stroke:#181818;stroke-width:1;" width="10" x="1574.8516" y="750.498"/></g><rect fill="none" height="81.9316" style="stroke:#000000;stroke-width:1.5;" width="831.9604" x="20" y="135.9766"/><rect fill="none" height="91.2422" style="stroke:#000000;stroke-width:1.5;" width="780.3662" x="386.73" y="231.9082"/><rect fill="none" height="214.1738" style="stroke:#000000;stroke-width:1.5;" width="1403.5415" x="10" y="337.1504"/><rect fill="none" height="105.2422" style="stroke:#000000;stroke-width:1.5;" width="1147.0962" x="20" y="439.082"/><rect fill="none" height="281.1055" style="stroke:#000000;stroke-width:1.5;" width="1052.7397" x="613.0146" y="565.3242"/><rect fill="none" height="75.9316" style="stroke:#000000;stroke-width:1.5;" width="785.6631" x="20" y="860.4297"/><rect fill="none" height="75.9316" style="stroke:#000000;stroke-width:1.5;" width="785.6631" x="20" y="950.3613"/><g><title>Logistics Operator</title><rect fill="#000000" fill-opacity="0.00000" height="924.3164" width="8" x="91.2549" y="118.9766"/><line style="stroke:#181818;stroke-width:0.5;stroke-dasharray:5,5;" x1="95" x2="95" y1="118.9766" y2="1043.293"/></g><g><title>CreateQualification.html</title><rect fill="#000000" fill-opacity="0.00000" height="924.3164" width="8" x="482.4858" y="118.9766"/><line style="stroke:#181818;stroke-width:0.5;stroke-dasharray:5,5;" x1="485.73" x2="485.73" y1="118.9766" y2="1043.293"/></g><g><title>.QualificationController</title><rect fill="#000000" fill-opacity="0.00000" height="924.3164" width="8" x="705.3389" y="118.9766"/><line style="stroke:#181818;stroke-width:0.5;stroke-dasharray:5,5;" x1="709.0146" x2="709.0146" y1="118.9766" y2="1043.293"/></g><g><title>.QualificationService</title><rect fill="#000000" fill-opacity="0.00000" height="924.3164" width="8" x="1077.1865" y="118.9766"/><line style="stroke:#181818;stroke-width:0.5;stroke-dasharray:5,5;" x1="1080.2769" x2="1080.2769" y1="118.9766" y2="1043.293"/></g><g><title>.QualificationRepository</title><rect fill="#000000" fill-opacity="0.00000" height="924.3164" width="8" x="1257.7349" y="118.9766"/><line style="stroke:#181818;stroke-width:0.5;stroke-dasharray:5,5;" x1="1261.4282" x2="1261.4282" y1="118.9766" y2="1043.293"/></g><g><title>.PortManagementDB</title><rect fill="#000000" fill-opacity="0.00000" height="924.3164" width="8" x="1575.8516" y="118.9766"/><line style="stroke:#181818;stroke-width:0.5;stroke-dasharray:5,5;" x1="1578.9487" x2="1578.9487" y1="118.9766" y2="1043.293"/></g><g class="participant participant-head" data-participant="ADMIN"><text fill="#000000" font-family="sans-serif" font-size="14" lengthAdjust="spacing" textLength="124.5098" x="30" y="116.0234">Logistics Operator</text><ellipse cx="95.2549" cy="50.9883" fill="#E2E2F0" rx="8" ry="8" style="stroke:#181818;stroke-width:0.5;"/><path d="M95.2549,58.9883 L95.2549,85.9883 M82.2549,66.9883 L108.2549,66.9883 M95.2549,85.9883 L82.2549,100.9883 M95.2549,85.9883 L108.2549,100.9883" fill="none" style="stroke:#181818;stroke-width:0.5;"/></g><g class="participant participant-tail" data-participant="ADMIN"><text fill="#000000" font-family="sans-serif" font-size="14" lengthAdjust="spacing" textLength="124.5098" x="30" y="1055.8281">Logistics Operator</text><ellipse cx="95.2549" cy="1067.2813" fill="#E2E2F0" rx="8" ry="8" style="stroke:#181818;stroke-width:0.5;"/><path d="M95.2549,1075.2813 L95.2549,1102.2813 M82.2549,1083.2813 L108.2549,1083.2813 M95.2549,1102.2813 L82.2549,1117.2813 M95.2549,1102.2813 L108.2549,1117.2813" fill="none" style="stroke:#181818;stroke-width:0.5;"/></g><g class="participant participant-head" data-participant="SPA"><rect fill="#E2E2F0" height="46.9766" rx="2.5" ry="2.5" style="stroke:#181818;stroke-width:0.5;" width="179.5117" x="396.73" y="71"/><text fill="#000000" font-family="sans-serif" font-size="14" lengthAdjust="spacing" textLength="165.5117" x="403.73" y="91.5352">CreateQualification.html</text><text fill="#000000" font-family="sans-serif" font-size="14" lengthAdjust="spacing" textLength="34.043" x="469.4644" y="108.0234">(SPA)</text></g><g class="participant participant-tail" data-participant="SPA"><rect fill="#E2E2F0" height="46.9766" rx="2.5" ry="2.5" style="stroke:#181818;stroke-width:0.5;" width="179.5117" x="396.73" y="1042.293"/><text fill="#000000" font-family="sans-serif" font-size="14" lengthAdjust="spacing" textLength="165.5117" x="403.73" y="1062.8281">CreateQualification.html</text><text fill="#000000" font-family="sans-serif" font-size="14" lengthAdjust="spacing" textLength="34.043" x="469.4644" y="1079.3164">(SPA)</text></g><g class="participant participant-head" data-participant="CTRL"><rect fill="#E2E2F0" height="30.4883" rx="2.5" ry="2.5" style="stroke:#181818;stroke-width:0.5;" width="172.6484" x="623.0146" y="87.4883"/><text fill="#000000" font-family="sans-serif" font-size="14" lengthAdjust="spacing" textLength="158.6484" x="630.0146" y="108.0234">:QualificationController</text></g><g class="participant participant-tail" data-participant="CTRL"><rect fill="#E2E2F0" height="30.4883" rx="2.5" ry="2.5" style="stroke:#181818;stroke-width:0.5;" width="172.6484" x="623.0146" y="1042.293"/><text fill="#000000" font-family="sans-serif" font-size="14" lengthAdjust="spacing" textLength="158.6484" x="630.0146" y="1062.8281">:QualificationController</text></g><g class="participant participant-head" data-participant="SVC"><rect fill="#E2E2F0" height="30.4883" rx="2.5" ry="2.5" style="stroke:#181818;stroke-width:0.5;" width="151.8193" x="1005.2769" y="87.4883"/><text fill="#000000" font-family="sans-serif" font-size="14" lengthAdjust="spacing" textLength="137.8193" x="1012.2769" y="108.0234">:QualificationService</text></g><g class="participant participant-tail" data-participant="SVC"><rect fill="#E2E2F0" height="30.4883" rx="2.5" ry="2.5" style="stroke:#181818;stroke-width:0.5;" width="151.8193" x="1005.2769" y="1042.293"/><text fill="#000000" font-family="sans-serif" font-size="14" lengthAdjust="spacing" textLength="137.8193" x="1012.2769" y="1062.8281">:QualificationService</text></g><g class="participant participant-head" data-participant="REPO"><rect fill="#E2E2F0" height="30.4883" rx="2.5" ry="2.5" style="stroke:#181818;stroke-width:0.5;" width="176.6133" x="1173.4282" y="87.4883"/><text fill="#000000" font-family="sans-serif" font-size="14" lengthAdjust="spacing" textLength="162.6133" x="1180.4282" y="108.0234">:QualificationRepository</text></g><g class="participant participant-tail" data-participant="REPO"><rect fill="#E2E2F0" height="30.4883" rx="2.5" ry="2.5" style="stroke:#181818;stroke-width:0.5;" width="176.6133" x="1173.4282" y="1042.293"/><text fill="#000000" font-family="sans-serif" font-size="14" lengthAdjust="spacing" textLength="162.6133" x="1180.4282" y="1062.8281">:QualificationRepository</text></g><g class="participant participant-head" data-participant="DB"><rect fill="#E2E2F0" height="30.4883" rx="2.5" ry="2.5" style="stroke:#181818;stroke-width:0.5;" width="151.8057" x="1503.9487" y="87.4883"/><text fill="#000000" font-family="sans-serif" font-size="14" lengthAdjust="spacing" textLength="137.8057" x="1510.9487" y="108.0234">:PortManagementDB</text></g><g class="participant participant-tail" data-participant="DB"><rect fill="#E2E2F0" height="30.4883" rx="2.5" ry="2.5" style="stroke:#181818;stroke-width:0.5;" width="151.8057" x="1503.9487" y="1042.293"/><text fill="#000000" font-family="sans-serif" font-size="14" lengthAdjust="spacing" textLength="137.8057" x="1510.9487" y="1062.8281">:PortManagementDB</text></g><g><title>.QualificationController</title><rect fill="#FFFFFF" height="250.4844" style="stroke:#181818;stroke-width:1;" width="10" x="704.3389" y="285.8398"/></g><g><title>.QualificationService</title><rect fill="#FFFFFF" height="523.2793" style="stroke:#181818;stroke-width:1;" width="10" x="1076.1865" y="315.1504"/></g><g><title>.QualificationRepository</title><rect fill="#FFFFFF" height="87.9316" style="stroke:#181818;stroke-width:1;" width="10" x="1256.7349" y="603.9453"/></g><g><title>.QualificationRepository</title><rect fill="#FFFFFF" height="87.9316" style="stroke:#181818;stroke-width:1;" width="10" x="1256.7349" y="721.1875"/></g><g><title>.PortManagementDB</title><rect fill="#FFFFFF" height="29.3105" style="stroke:#181818;stroke-width:1;" width="10" x="1574.8516" y="633.2559"/></g><g><title>.PortManagementDB</title><rect fill="#FFFFFF" height="29.3105" style="stroke:#181818;stroke-width:1;" width="10" x="1574.8516" y="750.498"/></g><path d="M20,135.9766 L203.7598,135.9766 L203.7598,143.2871 L193.7598,153.2871 L20,153.2871 L20,135.9766" fill="#EEEEEE" style="stroke:#000000;stroke-width:1.5;"/><rect fill="none" height="81.9316" style="stroke:#000000;stroke-width:1.5;" width="831.9604" x="20" y="135.9766"/><text fill="#000000" font-family="sans-serif" font-size="13" font-weight="bold" lengthAdjust="spacing" textLength="138.7598" x="35" y="149.5449">Fill and Submit Form</text><g class="message" data-participant-1="ADMIN" data-participant-2="SPA"><polygon fill="#181818" points="474.4858,170.5977,484.4858,174.5977,474.4858,178.5977,478.4858,174.5977" style="stroke:#181818;stroke-width:1;"/><line style="stroke:#181818;stroke-width:1;" x1="95.2549" x2="480.4858" y1="174.5977" y2="174.5977"/><text fill="#000000" font-family="sans-serif" font-size="13" lengthAdjust="spacing" textLength="163.1982" x="102.2549" y="169.8555">fillForm(DescriptiveName)</text></g><path d="M100,187.5977 L100,212.5977 L841,212.5977 L841,197.5977 L831,187.5977 L100,187.5977" fill="#FEFFDD" style="stroke:#181818;stroke-width:0.5;"/><path d="M831,187.5977 L831,197.5977 L841,197.5977 L831,187.5977" fill="#FEFFDD" style="stroke:#181818;stroke-width:0.5;"/><text fill="#000000" font-family="sans-serif" font-size="13" lengthAdjust="spacing" textLength="720.9604" x="106" y="205.166">The administrator enters the qualification name,\nfor example "Crane Operator", and clicks "Create Qualification".</text><path d="M386.73,231.9082 L584.2705,231.9082 L584.2705,239.2188 L574.2705,249.2188 L386.73,249.2188 L386.73,231.9082" fill="#EEEEEE" style="stroke:#000000;stroke-width:1.5;"/><rect fill="none" height="91.2422" style="stroke:#000000;stroke-width:1.5;" width="780.3662" x="386.73" y="231.9082"/><text fill="#000000" font-family="sans-serif" font-size="13" font-weight="bold" lengthAdjust="spacing" textLength="152.5405" x="401.73" y="245.4766">Submit Create Request</text><g class="message" data-participant-1="SPA" data-participant-2="CTRL"><polygon fill="#181818" points="692.3389,281.8398,702.3389,285.8398,692.3389,289.8398,696.3389,285.8398" style="stroke:#181818;stroke-width:1;"/><line style="stroke:#181818;stroke-width:1;" x1="486.4858" x2="698.3389" y1="285.8398" y2="285.8398"/><text fill="#000000" font-family="sans-serif" font-size="13" lengthAdjust="spacing" textLength="149.2842" x="493.4858" y="265.7871">POST /api/Qualification</text><text fill="#000000" font-family="sans-serif" font-size="13" lengthAdjust="spacing" textLength="122.9604" x="493.4858" y="281.0977">{ DescriptiveName }</text></g><g class="message" data-participant-1="CTRL" data-participant-2="SVC"><polygon fill="#181818" points="1064.1865,311.1504,1074.1865,315.1504,1064.1865,319.1504,1068.1865,315.1504" style="stroke:#181818;stroke-width:1;"/><line style="stroke:#181818;stroke-width:1;" x1="714.3389" x2="1070.1865" y1="315.1504" y2="315.1504"/><text fill="#000000" font-family="sans-serif" font-size="13" lengthAdjust="spacing" textLength="253.3096" x="721.3389" y="310.4082">AddQualificationAsync(QualificationDto)</text></g><path d="M10,337.1504 L148.8755,337.1504 L148.8755,344.4609 L138.8755,354.4609 L10,354.4609 L10,337.1504" fill="#EEEEEE" style="stroke:#000000;stroke-width:1.5;"/><rect fill="none" height="214.1738" style="stroke:#000000;stroke-width:1.5;" width="1403.5415" x="10" y="337.1504"/><text fill="#000000" font-family="sans-serif" font-size="13" font-weight="bold" lengthAdjust="spacing" textLength="93.8755" x="25" y="350.7188">Validate Input</text><g class="message" data-participant-1="SVC" data-participant-2="SVC"><line style="stroke:#181818;stroke-width:1;" x1="1086.1865" x2="1128.1865" y1="375.7715" y2="375.7715"/><line style="stroke:#181818;stroke-width:1;" x1="1128.1865" x2="1128.1865" y1="375.7715" y2="388.7715"/><line style="stroke:#181818;stroke-width:1;" x1="1087.1865" x2="1128.1865" y1="388.7715" y2="388.7715"/><polygon fill="#181818" points="1097.1865,384.7715,1087.1865,388.7715,1097.1865,392.7715,1093.1865,388.7715" style="stroke:#181818;stroke-width:1;"/><text fill="#000000" font-family="sans-serif" font-size="13" lengthAdjust="spacing" textLength="146.5483" x="1093.1865" y="371.0293">Validate required fields</text></g><path d="M1091,401.7715 L1091,426.7715 L1403,426.7715 L1403,411.7715 L1393,401.7715 L1091,401.7715" fill="#FEFFDD" style="stroke:#181818;stroke-width:0.5;"/><path d="M1393,401.7715 L1393,411.7715 L1403,411.7715 L1393,401.7715" fill="#FEFFDD" style="stroke:#181818;stroke-width:0.5;"/><text fill="#000000" font-family="sans-serif" font-size="13" lengthAdjust="spacing" textLength="291.5415" x="1097" y="419.3398">Ensures DescriptiveName is not null or empty.</text><path d="M20,439.082 L82.1387,439.082 L82.1387,446.3926 L72.1387,456.3926 L20,456.3926 L20,439.082" fill="#EEEEEE" style="stroke:#000000;stroke-width:1.5;"/><rect fill="none" height="105.2422" style="stroke:#000000;stroke-width:1.5;" width="1147.0962" x="20" y="439.082"/><text fill="#000000" font-family="sans-serif" font-size="13" font-weight="bold" lengthAdjust="spacing" textLength="17.1387" x="35" y="452.6504">alt</text><text fill="#000000" font-family="sans-serif" font-size="11" font-weight="bold" lengthAdjust="spacing" textLength="79.8574" x="97.1387" y="451.7168">[Invalid input]</text><g class="message" data-participant-1="SVC" data-participant-2="CTRL"><polygon fill="#181818" points="725.3389,473.7031,715.3389,477.7031,725.3389,481.7031,721.3389,477.7031" style="stroke:#181818;stroke-width:1;"/><line style="stroke:#181818;stroke-width:1;stroke-dasharray:2,2;" x1="719.3389" x2="1075.1865" y1="477.7031" y2="477.7031"/><text fill="#000000" font-family="sans-serif" font-size="13" lengthAdjust="spacing" textLength="337.8477" x="731.3389" y="472.9609">throws ArgumentException("Missing required fields.")</text></g><g class="message" data-participant-1="CTRL" data-participant-2="SPA"><polygon fill="#181818" points="497.4858,503.0137,487.4858,507.0137,497.4858,511.0137,493.4858,507.0137" style="stroke:#181818;stroke-width:1;"/><line style="stroke:#181818;stroke-width:1;stroke-dasharray:2,2;" x1="491.4858" x2="703.3389" y1="507.0137" y2="507.0137"/><text fill="#000000" font-family="sans-serif" font-size="13" lengthAdjust="spacing" textLength="106.1709" x="503.4858" y="502.2715">400 Bad Request</text></g><g class="message" data-participant-1="SPA" data-participant-2="ADMIN"><polygon fill="#181818" points="106.2549,532.3242,96.2549,536.3242,106.2549,540.3242,102.2549,536.3242" style="stroke:#181818;stroke-width:1;"/><line style="stroke:#181818;stroke-width:1;stroke-dasharray:2,2;" x1="100.2549" x2="485.4858" y1="536.3242" y2="536.3242"/><text fill="#000000" font-family="sans-serif" font-size="13" lengthAdjust="spacing" textLength="262.6343" x="112.2549" y="531.582">showError("Descriptive name is required")</text></g><path d="M613.0146,565.3242 L834.4478,565.3242 L834.4478,572.6348 L824.4478,582.6348 L613.0146,582.6348 L613.0146,565.3242" fill="#EEEEEE" style="stroke:#000000;stroke-width:1.5;"/><rect fill="none" height="281.1055" style="stroke:#000000;stroke-width:1.5;" width="1052.7397" x="613.0146" y="565.3242"/><text fill="#000000" font-family="sans-serif" font-size="13" font-weight="bold" lengthAdjust="spacing" textLength="176.4331" x="628.0146" y="578.8926">Create Qualification Entity</text><g class="message" data-participant-1="SVC" data-participant-2="REPO"><polygon fill="#181818" points="1244.7349,599.9453,1254.7349,603.9453,1244.7349,607.9453,1248.7349,603.9453" style="stroke:#181818;stroke-width:1;"/><line style="stroke:#181818;stroke-width:1;" x1="1086.1865" x2="1250.7349" y1="603.9453" y2="603.9453"/><text fill="#000000" font-family="sans-serif" font-size="13" lengthAdjust="spacing" textLength="150.814" x="1093.1865" y="599.2031">AddAsync(Qualification)</text></g><g class="message" data-participant-1="REPO" data-participant-2="DB"><polygon fill="#181818" points="1562.8516,629.2559,1572.8516,633.2559,1562.8516,637.2559,1566.8516,633.2559" style="stroke:#181818;stroke-width:1;"/><line style="stroke:#181818;stroke-width:1;" x1="1266.7349" x2="1568.8516" y1="633.2559" y2="633.2559"/><text fill="#000000" font-family="sans-serif" font-size="13" lengthAdjust="spacing" textLength="289.1167" x="1273.7349" y="628.5137">INSERT INTO Qualifications (DescriptiveName)</text></g><g class="message" data-participant-1="DB" data-participant-2="REPO"><polygon fill="#181818" points="1277.7349,658.5664,1267.7349,662.5664,1277.7349,666.5664,1273.7349,662.5664" style="stroke:#181818;stroke-width:1;"/><line style="stroke:#181818;stroke-width:1;stroke-dasharray:2,2;" x1="1271.7349" x2="1578.8516" y1="662.5664" y2="662.5664"/><text fill="#000000" font-family="sans-serif" font-size="13" lengthAdjust="spacing" textLength="258.8765" x="1283.7349" y="657.8242">Qualification with Code (auto-generated)</text></g><g class="message" data-participant-1="REPO" data-participant-2="SVC"><polygon fill="#181818" points="1097.1865,687.877,1087.1865,691.877,1097.1865,695.877,1093.1865,691.877" style="stroke:#181818;stroke-width:1;"/><line style="stroke:#181818;stroke-width:1;stroke-dasharray:2,2;" x1="1091.1865" x2="1260.7349" y1="691.877" y2="691.877"/><text fill="#000000" font-family="sans-serif" font-size="13" lengthAdjust="spacing" textLength="119.6089" x="1103.1865" y="687.1348">Qualification entity</text></g><g class="message" data-participant-1="SVC" data-participant-2="REPO"><polygon fill="#181818" points="1244.7349,717.1875,1254.7349,721.1875,1244.7349,725.1875,1248.7349,721.1875" style="stroke:#181818;stroke-width:1;"/><line style="stroke:#181818;stroke-width:1;" x1="1086.1865" x2="1250.7349" y1="721.1875" y2="721.1875"/><text fill="#000000" font-family="sans-serif" font-size="13" lengthAdjust="spacing" textLength="128.0068" x="1093.1865" y="716.4453">SaveChangesAsync()</text></g><g class="message" data-participant-1="REPO" data-participant-2="DB"><polygon fill="#181818" points="1562.8516,746.498,1572.8516,750.498,1562.8516,754.498,1566.8516,750.498" style="stroke:#181818;stroke-width:1;"/><line style="stroke:#181818;stroke-width:1;" x1="1266.7349" x2="1568.8516" y1="750.498" y2="750.498"/><text fill="#000000" font-family="sans-serif" font-size="13" lengthAdjust="spacing" textLength="149.2144" x="1273.7349" y="745.7559">COMMIT TRANSACTION</text></g><g class="message" data-participant-1="DB" data-participant-2="REPO"><polygon fill="#181818" points="1277.7349,775.8086,1267.7349,779.8086,1277.7349,783.8086,1273.7349,779.8086" style="stroke:#181818;stroke-width:1;"/><line style="stroke:#181818;stroke-width:1;stroke-dasharray:2,2;" x1="1271.7349" x2="1578.8516" y1="779.8086" y2="779.8086"/><text fill="#000000" font-family="sans-serif" font-size="13" lengthAdjust="spacing" textLength="48.5088" x="1283.7349" y="775.0664">success</text></g><g class="message" data-participant-1="REPO" data-participant-2="SVC"><polygon fill="#181818" points="1097.1865,805.1191,1087.1865,809.1191,1097.1865,813.1191,1093.1865,809.1191" style="stroke:#181818;stroke-width:1;"/><line style="stroke:#181818;stroke-width:1;stroke-dasharray:2,2;" x1="1091.1865" x2="1260.7349" y1="809.1191" y2="809.1191"/><text fill="#000000" font-family="sans-serif" font-size="13" lengthAdjust="spacing" textLength="48.5088" x="1103.1865" y="804.377">success</text></g><g class="message" data-participant-1="SVC" data-participant-2="CTRL"><polygon fill="#181818" points="720.3389,834.4297,710.3389,838.4297,720.3389,842.4297,716.3389,838.4297" style="stroke:#181818;stroke-width:1;"/><line style="stroke:#181818;stroke-width:1;stroke-dasharray:2,2;" x1="714.3389" x2="1080.1865" y1="838.4297" y2="838.4297"/><text fill="#000000" font-family="sans-serif" font-size="13" lengthAdjust="spacing" textLength="270.2007" x="726.3389" y="833.6875">QualificationDto { Code, DescriptiveName }</text></g><path d="M20,860.4297 L156.0952,860.4297 L156.0952,867.7402 L146.0952,877.7402 L20,877.7402 L20,860.4297" fill="#EEEEEE" style="stroke:#000000;stroke-width:1.5;"/><rect fill="none" height="75.9316" style="stroke:#000000;stroke-width:1.5;" width="785.6631" x="20" y="860.4297"/><text fill="#000000" font-family="sans-serif" font-size="13" font-weight="bold" lengthAdjust="spacing" textLength="91.0952" x="35" y="873.998">Return Result</text><g class="message" data-participant-1="CTRL" data-participant-2="SPA"><polygon fill="#181818" points="497.4858,895.0508,487.4858,899.0508,497.4858,903.0508,493.4858,899.0508" style="stroke:#181818;stroke-width:1;"/><line style="stroke:#181818;stroke-width:1;stroke-dasharray:2,2;" x1="491.4858" x2="708.3389" y1="899.0508" y2="899.0508"/><text fill="#000000" font-family="sans-serif" font-size="13" lengthAdjust="spacing" textLength="198.853" x="503.4858" y="894.3086">201 Created + QualificationDto</text></g><g class="message" data-participant-1="SPA" data-participant-2="ADMIN"><polygon fill="#181818" points="106.2549,924.3613,96.2549,928.3613,106.2549,932.3613,102.2549,928.3613" style="stroke:#181818;stroke-width:1;"/><line style="stroke:#181818;stroke-width:1;stroke-dasharray:2,2;" x1="100.2549" x2="485.4858" y1="928.3613" y2="928.3613"/><text fill="#000000" font-family="sans-serif" font-size="13" lengthAdjust="spacing" textLength="367.231" x="112.2549" y="923.6191">showSuccess("Qualification created successfully! Code: X")</text></g><path d="M20,950.3613 L82.1387,950.3613 L82.1387,957.6719 L72.1387,967.6719 L20,967.6719 L20,950.3613" fill="#EEEEEE" style="stroke:#000000;stroke-width:1.5;"/><rect fill="none" height="75.9316" style="stroke:#000000;stroke-width:1.5;" width="785.6631" x="20" y="950.3613"/><text fill="#000000" font-family="sans-serif" font-size="13" font-weight="bold" lengthAdjust="spacing" textLength="17.1387" x="35" y="963.9297">alt</text><text fill="#000000" font-family="sans-serif" font-size="11" font-weight="bold" lengthAdjust="spacing" textLength="123.7822" x="97.1387" y="962.9961">[Internal Server Error]</text><g class="message" data-participant-1="CTRL" data-participant-2="SPA"><polygon fill="#181818" points="497.4858,984.9824,487.4858,988.9824,497.4858,992.9824,493.4858,988.9824" style="stroke:#181818;stroke-width:1;"/><line style="stroke:#181818;stroke-width:1;stroke-dasharray:2,2;" x1="491.4858" x2="708.3389" y1="988.9824" y2="988.9824"/><text fill="#000000" font-family="sans-serif" font-size="13" lengthAdjust="spacing" textLength="155.0859" x="503.4858" y="984.2402">500 Internal Server Error</text></g><g class="message" data-participant-1="SPA" data-participant-2="ADMIN"><polygon fill="#181818" points="106.2549,1014.293,96.2549,1018.293,106.2549,1022.293,102.2549,1018.293" style="stroke:#181818;stroke-width:1;"/><line style="stroke:#181818;stroke-width:1;stroke-dasharray:2,2;" x1="100.2549" x2="485.4858" y1="1018.293" y2="1018.293"/><text fill="#000000" font-family="sans-serif" font-size="13" lengthAdjust="spacing" textLength="260.6284" x="112.2549" y="1013.5508">showError("Failed to create qualification")</text></g><!--SRC=[bLPDRziu4BthLqnzMGTDqhHeBm5s0KLMMWEsvKgkTm-vSAMnJQnCgYJbn2Zwtpka5DbovO_LHJ8rV3FlpUF8XfiS8L383CBNakLymLDck1Hm0rCbKzGQvXoVFO-bHYheZUIIQyDJ3L61Yj5Q3vW6Vp0UJho2ANh52oOCz2hK5kZjogpp9z5FflwLsqOFxKtthVX02gDadcEL99Z5erFX2QeDJx52dWUdGcCifEPK_TP5n-4qEWYVIcN6JB0bhb6OmOEB6pnutX_mvx4BlYLX37um6qQJur7UKicoW4UUvy141advxveRU9HgxG5TJaku-Skg0_Ume3ZxhZz0dIfU6Bx12LlZbGiMaZgd-79bG2xgDa1zpLO8B5jpGHrphG9YWag3eHVVMzqM17Zz91OsveMj2t85DP09tBNvsXMRvZpzJxzsj-sPtgrBZHHco_BeuRHSSVZrMvZCu74K_NrMhrgcEd6CtqlKnYMqEf5SrXwarpGYn7UiuEzQnJs97t2W8FnqsydPV6CndR_SaeEo7PW7XEXdMGlArrkHzbjB0oElsc3MW6S5cFkZuS1tTfb-yPFmh0XpofbP-A4eofezrTYKshnNf0zNc95zCCzqXrTiWQzE2OKk5UhV1EBQRW9HabMjDTQ5sHuqkMAT6wfeOvC3RofhgjirnwoKVAPnePQbFLRXIug5rQ_V6tEjkLWU5dxRksgmgguq1-FZtHqyiAnbXSOE55MTetlGA_aSAYLLlxV7prdU4dnDk9SemmvFMCR4ytnJWpZyFotjdBwXCDniz_jhHrJbnGxx7NZFZJExuZRHvi43RHrEQ3hDw3QBsjaqTC-M1e_6dlrDA3UxIje5FtEpWa1c27rM6dcpH67d1cOLr9wYDLXLMcFSDXhkwE_jTBGwD4dO1eCL4qlKbJONoH54u_5m1hFOdoJLoBw0j2vJ-qsyZDEHu0CQkyDnE57WXrFq-iZSseEyQDZ4OJAD9XSuCaPJAa4tNUR6wpXv7-xUrxRDuErlPNj7Zr3NoKmgaVgzjWFI6hxMS44JQFl6oN4F_z1HFSisZECeXY_-P30QJZwVu5pDBlek2fQ3_Gk12jouw6B-YMREyU0Ja-UHyPpeK5ChPktlRqte5m00]--></g></svg>