<svg xmlns="http://www.w3.org/2000/svg" xmlns:xlink="http://www.w3.org/1999/xlink" contentStyleType="text/css" data-diagram-type="SEQUENCE" height="843px" preserveAspectRatio="none" style="width:1508px;height:843px;background:#FFFFFF;" version="1.1" viewBox="0 0 1508 843" width="1508px" zoomAndPan="magnify"><title>Filter Qualification by ID - Process View</title><defs/><g><text fill="#000000" font-family="sans-serif" font-size="14" font-weight="bold" lengthAdjust="spacing" textLength="289.6523" x="611.115" y="28.5352">Filter Qualification by ID - Process View</text><g><title>.QualificationController</title><rect fill="#FFFFFF" height="297.1055" style="stroke:#181818;stroke-width:1;" width="10" x="615.0313" y="270.5293"/></g><g><title>.QualificationService</title><rect fill="#FFFFFF" height="312.0605" style="stroke:#181818;stroke-width:1;" width="10" x="914.2319" y="299.8398"/></g><g><title>.QualificationRepository</title><rect fill="#FFFFFF" height="87.9316" style="stroke:#181818;stroke-width:1;" width="10" x="1088.4482" y="360.4609"/></g><g><title>.PortManagementDB</title><rect fill="#FFFFFF" height="29.3105" style="stroke:#181818;stroke-width:1;" width="10" x="1411.9795" y="389.7715"/></g><rect fill="none" height="81.9316" style="stroke:#000000;stroke-width:1.5;" width="632.2378" x="10" y="135.9766"/><rect fill="none" height="75.9316" style="stroke:#000000;stroke-width:1.5;" width="677.2231" x="327.9185" y="231.9082"/><rect fill="none" height="134.5527" style="stroke:#000000;stroke-width:1.5;" width="669.5601" x="833.3223" y="321.8398"/><rect fill="none" height="149.5078" style="stroke:#000000;stroke-width:1.5;" width="995.1416" x="10" y="470.3926"/><rect fill="none" height="111.2422" style="stroke:#000000;stroke-width:1.5;" width="849.1147" x="10" y="633.9004"/><g><title>Logistics Operator</title><rect fill="#000000" fill-opacity="0.00000" height="643.166" width="8" x="81.2549" y="118.9766"/><line style="stroke:#181818;stroke-width:0.5;stroke-dasharray:5,5;" x1="85" x2="85" y1="118.9766" y2="762.1426"/></g><g><title>Qualifications.html</title><rect fill="#000000" fill-opacity="0.00000" height="643.166" width="8" x="405.2515" y="118.9766"/><line style="stroke:#181818;stroke-width:0.5;stroke-dasharray:5,5;" x1="408.9185" x2="408.9185" y1="118.9766" y2="762.1426"/></g><g><title>.QualificationController</title><rect fill="#000000" fill-opacity="0.00000" height="643.166" width="8" x="616.0313" y="118.9766"/><line style="stroke:#181818;stroke-width:0.5;stroke-dasharray:5,5;" x1="619.707" x2="619.707" y1="118.9766" y2="762.1426"/></g><g><title>.QualificationService</title><rect fill="#000000" fill-opacity="0.00000" height="643.166" width="8" x="915.2319" y="118.9766"/><line style="stroke:#181818;stroke-width:0.5;stroke-dasharray:5,5;" x1="918.3223" x2="918.3223" y1="118.9766" y2="762.1426"/></g><g><title>.QualificationRepository</title><rect fill="#000000" fill-opacity="0.00000" height="643.166" width="8" x="1089.4482" y="118.9766"/><line style="stroke:#181818;stroke-width:0.5;stroke-dasharray:5,5;" x1="1093.1416" x2="1093.1416" y1="118.9766" y2="762.1426"/></g><g><title>.PortManagementDB</title><rect fill="#000000" fill-opacity="0.00000" height="643.166" width="8" x="1412.9795" y="118.9766"/><line style="stroke:#181818;stroke-width:0.5;stroke-dasharray:5,5;" x1="1416.0767" x2="1416.0767" y1="118.9766" y2="762.1426"/></g><g class="participant participant-head" data-participant="ADMIN"><text fill="#000000" font-family="sans-serif" font-size="14" lengthAdjust="spacing" textLength="124.5098" x="20" y="116.0234">Logistics Operator</text><ellipse cx="85.2549" cy="50.9883" fill="#E2E2F0" rx="8" ry="8" style="stroke:#181818;stroke-width:0.5;"/><path d="M85.2549,58.9883 L85.2549,85.9883 M72.2549,66.9883 L98.2549,66.9883 M85.2549,85.9883 L72.2549,100.9883 M85.2549,85.9883 L98.2549,100.9883" fill="none" style="stroke:#181818;stroke-width:0.5;"/></g><g class="participant participant-tail" data-participant="ADMIN"><text fill="#000000" font-family="sans-serif" font-size="14" lengthAdjust="spacing" textLength="124.5098" x="20" y="774.6777">Logistics Operator</text><ellipse cx="85.2549" cy="786.1309" fill="#E2E2F0" rx="8" ry="8" style="stroke:#181818;stroke-width:0.5;"/><path d="M85.2549,794.1309 L85.2549,821.1309 M72.2549,802.1309 L98.2549,802.1309 M85.2549,821.1309 L72.2549,836.1309 M85.2549,821.1309 L98.2549,836.1309" fill="none" style="stroke:#181818;stroke-width:0.5;"/></g><g class="participant participant-head" data-participant="SPA"><rect fill="#E2E2F0" height="46.9766" rx="2.5" ry="2.5" style="stroke:#181818;stroke-width:0.5;" width="142.666" x="337.9185" y="71"/><text fill="#000000" font-family="sans-serif" font-size="14" lengthAdjust="spacing" textLength="128.666" x="344.9185" y="91.5352">Qualifications.html</text><text fill="#000000" font-family="sans-serif" font-size="14" lengthAdjust="spacing" textLength="34.043" x="392.23" y="108.0234">(SPA)</text></g><g class="participant participant-tail" data-participant="SPA"><rect fill="#E2E2F0" height="46.9766" rx="2.5" ry="2.5" style="stroke:#181818;stroke-width:0.5;" width="142.666" x="337.9185" y="761.1426"/><text fill="#000000" font-family="sans-serif" font-size="14" lengthAdjust="spacing" textLength="128.666" x="344.9185" y="781.6777">Qualifications.html</text><text fill="#000000" font-family="sans-serif" font-size="14" lengthAdjust="spacing" textLength="34.043" x="392.23" y="798.166">(SPA)</text></g><g class="participant participant-head" data-participant="CTRL"><rect fill="#E2E2F0" height="30.4883" rx="2.5" ry="2.5" style="stroke:#181818;stroke-width:0.5;" width="172.6484" x="533.707" y="87.4883"/><text fill="#000000" font-family="sans-serif" font-size="14" lengthAdjust="spacing" textLength="158.6484" x="540.707" y="108.0234">:QualificationController</text></g><g class="participant participant-tail" data-participant="CTRL"><rect fill="#E2E2F0" height="30.4883" rx="2.5" ry="2.5" style="stroke:#181818;stroke-width:0.5;" width="172.6484" x="533.707" y="761.1426"/><text fill="#000000" font-family="sans-serif" font-size="14" lengthAdjust="spacing" textLength="158.6484" x="540.707" y="781.6777">:QualificationController</text></g><g class="participant participant-head" data-participant="SVC"><rect fill="#E2E2F0" height="30.4883" rx="2.5" ry="2.5" style="stroke:#181818;stroke-width:0.5;" width="151.8193" x="843.3223" y="87.4883"/><text fill="#000000" font-family="sans-serif" font-size="14" lengthAdjust="spacing" textLength="137.8193" x="850.3223" y="108.0234">:QualificationService</text></g><g class="participant participant-tail" data-participant="SVC"><rect fill="#E2E2F0" height="30.4883" rx="2.5" ry="2.5" style="stroke:#181818;stroke-width:0.5;" width="151.8193" x="843.3223" y="761.1426"/><text fill="#000000" font-family="sans-serif" font-size="14" lengthAdjust="spacing" textLength="137.8193" x="850.3223" y="781.6777">:QualificationService</text></g><g class="participant participant-head" data-participant="REPO"><rect fill="#E2E2F0" height="30.4883" rx="2.5" ry="2.5" style="stroke:#181818;stroke-width:0.5;" width="176.6133" x="1005.1416" y="87.4883"/><text fill="#000000" font-family="sans-serif" font-size="14" lengthAdjust="spacing" textLength="162.6133" x="1012.1416" y="108.0234">:QualificationRepository</text></g><g class="participant participant-tail" data-participant="REPO"><rect fill="#E2E2F0" height="30.4883" rx="2.5" ry="2.5" style="stroke:#181818;stroke-width:0.5;" width="176.6133" x="1005.1416" y="761.1426"/><text fill="#000000" font-family="sans-serif" font-size="14" lengthAdjust="spacing" textLength="162.6133" x="1012.1416" y="781.6777">:QualificationRepository</text></g><g class="participant participant-head" data-participant="DB"><rect fill="#E2E2F0" height="30.4883" rx="2.5" ry="2.5" style="stroke:#181818;stroke-width:0.5;" width="151.8057" x="1341.0767" y="87.4883"/><text fill="#000000" font-family="sans-serif" font-size="14" lengthAdjust="spacing" textLength="137.8057" x="1348.0767" y="108.0234">:PortManagementDB</text></g><g class="participant participant-tail" data-participant="DB"><rect fill="#E2E2F0" height="30.4883" rx="2.5" ry="2.5" style="stroke:#181818;stroke-width:0.5;" width="151.8057" x="1341.0767" y="761.1426"/><text fill="#000000" font-family="sans-serif" font-size="14" lengthAdjust="spacing" textLength="137.8057" x="1348.0767" y="781.6777">:PortManagementDB</text></g><g><title>.QualificationController</title><rect fill="#FFFFFF" height="297.1055" style="stroke:#181818;stroke-width:1;" width="10" x="615.0313" y="270.5293"/></g><g><title>.QualificationService</title><rect fill="#FFFFFF" height="312.0605" style="stroke:#181818;stroke-width:1;" width="10" x="914.2319" y="299.8398"/></g><g><title>.QualificationRepository</title><rect fill="#FFFFFF" height="87.9316" style="stroke:#181818;stroke-width:1;" width="10" x="1088.4482" y="360.4609"/></g><g><title>.PortManagementDB</title><rect fill="#FFFFFF" height="29.3105" style="stroke:#181818;stroke-width:1;" width="10" x="1411.9795" y="389.7715"/></g><path d="M10,135.9766 L176.8115,135.9766 L176.8115,143.2871 L166.8115,153.2871 L10,153.2871 L10,135.9766" fill="#EEEEEE" style="stroke:#000000;stroke-width:1.5;"/><rect fill="none" height="81.9316" style="stroke:#000000;stroke-width:1.5;" width="632.2378" x="10" y="135.9766"/><text fill="#000000" font-family="sans-serif" font-size="13" font-weight="bold" lengthAdjust="spacing" textLength="121.8115" x="25" y="149.5449">Filter by Code (ID)</text><g class="message" data-participant-1="ADMIN" data-participant-2="SPA"><polygon fill="#181818" points="397.2515,170.5977,407.2515,174.5977,397.2515,178.5977,401.2515,174.5977" style="stroke:#181818;stroke-width:1;"/><line style="stroke:#181818;stroke-width:1;" x1="85.2549" x2="403.2515" y1="174.5977" y2="174.5977"/><text fill="#000000" font-family="sans-serif" font-size="13" lengthAdjust="spacing" textLength="71.4619" x="92.2549" y="169.8555">input(code)</text></g><path d="M90,187.5977 L90,212.5977 L632,212.5977 L632,197.5977 L622,187.5977 L90,187.5977" fill="#FEFFDD" style="stroke:#181818;stroke-width:0.5;"/><path d="M622,187.5977 L622,197.5977 L632,197.5977 L622,187.5977" fill="#FEFFDD" style="stroke:#181818;stroke-width:0.5;"/><text fill="#000000" font-family="sans-serif" font-size="13" lengthAdjust="spacing" textLength="521.2378" x="96" y="205.166">The administrator enters a Qualification Code\n(e.g., 101) and clicks "Filter by ID".</text><path d="M327.9185,231.9082 L507.3682,231.9082 L507.3682,239.2188 L497.3682,249.2188 L327.9185,249.2188 L327.9185,231.9082" fill="#EEEEEE" style="stroke:#000000;stroke-width:1.5;"/><rect fill="none" height="75.9316" style="stroke:#000000;stroke-width:1.5;" width="677.2231" x="327.9185" y="231.9082"/><text fill="#000000" font-family="sans-serif" font-size="13" font-weight="bold" lengthAdjust="spacing" textLength="134.4497" x="342.9185" y="245.4766">Send Request to API</text><g class="message" data-participant-1="SPA" data-participant-2="CTRL"><polygon fill="#181818" points="603.0313,266.5293,613.0313,270.5293,603.0313,274.5293,607.0313,270.5293" style="stroke:#181818;stroke-width:1;"/><line style="stroke:#181818;stroke-width:1;" x1="409.2515" x2="609.0313" y1="270.5293" y2="270.5293"/><text fill="#000000" font-family="sans-serif" font-size="13" lengthAdjust="spacing" textLength="186.7798" x="416.2515" y="265.7871">GET /api/Qualification/{code}</text></g><g class="message" data-participant-1="CTRL" data-participant-2="SVC"><polygon fill="#181818" points="902.2319,295.8398,912.2319,299.8398,902.2319,303.8398,906.2319,299.8398" style="stroke:#181818;stroke-width:1;"/><line style="stroke:#181818;stroke-width:1;" x1="625.0313" x2="908.2319" y1="299.8398" y2="299.8398"/><text fill="#000000" font-family="sans-serif" font-size="13" lengthAdjust="spacing" textLength="222.4346" x="632.0313" y="295.0977">getQualificationByCodeAsync(code)</text></g><path d="M833.3223,321.8398 L1082.6787,321.8398 L1082.6787,329.1504 L1072.6787,339.1504 L833.3223,339.1504 L833.3223,321.8398" fill="#EEEEEE" style="stroke:#000000;stroke-width:1.5;"/><rect fill="none" height="134.5527" style="stroke:#000000;stroke-width:1.5;" width="669.5601" x="833.3223" y="321.8398"/><text fill="#000000" font-family="sans-serif" font-size="13" font-weight="bold" lengthAdjust="spacing" textLength="204.3564" x="848.3223" y="335.4082">Retrieve Qualification from DB</text><g class="message" data-participant-1="SVC" data-participant-2="REPO"><polygon fill="#181818" points="1076.4482,356.4609,1086.4482,360.4609,1076.4482,364.4609,1080.4482,360.4609" style="stroke:#181818;stroke-width:1;"/><line style="stroke:#181818;stroke-width:1;" x1="924.2319" x2="1082.4482" y1="360.4609" y2="360.4609"/><text fill="#000000" font-family="sans-serif" font-size="13" lengthAdjust="spacing" textLength="123.335" x="931.2319" y="355.7188">GetByIdAsync(code)</text></g><g class="message" data-participant-1="REPO" data-participant-2="DB"><polygon fill="#181818" points="1399.9795,385.7715,1409.9795,389.7715,1399.9795,393.7715,1403.9795,389.7715" style="stroke:#181818;stroke-width:1;"/><line style="stroke:#181818;stroke-width:1;" x1="1098.4482" x2="1405.9795" y1="389.7715" y2="389.7715"/><text fill="#000000" font-family="sans-serif" font-size="13" lengthAdjust="spacing" textLength="294.5313" x="1105.4482" y="385.0293">SELECT * FROM Qualifications WHERE Code = ?</text></g><g class="message" data-participant-1="DB" data-participant-2="REPO"><polygon fill="#181818" points="1109.4482,415.082,1099.4482,419.082,1109.4482,423.082,1105.4482,419.082" style="stroke:#181818;stroke-width:1;"/><line style="stroke:#181818;stroke-width:1;stroke-dasharray:2,2;" x1="1103.4482" x2="1415.9795" y1="419.082" y2="419.082"/><text fill="#000000" font-family="sans-serif" font-size="13" lengthAdjust="spacing" textLength="125.0933" x="1115.4482" y="414.3398">Qualification or null</text></g><g class="message" data-participant-1="REPO" data-participant-2="SVC"><polygon fill="#181818" points="935.2319,444.3926,925.2319,448.3926,935.2319,452.3926,931.2319,448.3926" style="stroke:#181818;stroke-width:1;"/><line style="stroke:#181818;stroke-width:1;stroke-dasharray:2,2;" x1="929.2319" x2="1092.4482" y1="448.3926" y2="448.3926"/><text fill="#000000" font-family="sans-serif" font-size="13" lengthAdjust="spacing" textLength="125.0933" x="941.2319" y="443.6504">Qualification or null</text></g><path d="M10,470.3926 L72.1387,470.3926 L72.1387,477.7031 L62.1387,487.7031 L10,487.7031 L10,470.3926" fill="#EEEEEE" style="stroke:#000000;stroke-width:1.5;"/><rect fill="none" height="149.5078" style="stroke:#000000;stroke-width:1.5;" width="995.1416" x="10" y="470.3926"/><text fill="#000000" font-family="sans-serif" font-size="13" font-weight="bold" lengthAdjust="spacing" textLength="17.1387" x="25" y="483.9609">alt</text><text fill="#000000" font-family="sans-serif" font-size="11" font-weight="bold" lengthAdjust="spacing" textLength="140.0835" x="87.1387" y="483.0273">[Qualification not found]</text><g class="message" data-participant-1="SVC" data-participant-2="CTRL"><polygon fill="#181818" points="636.0313,505.0137,626.0313,509.0137,636.0313,513.0137,632.0313,509.0137" style="stroke:#181818;stroke-width:1;"/><line style="stroke:#181818;stroke-width:1;stroke-dasharray:2,2;" x1="630.0313" x2="913.2319" y1="509.0137" y2="509.0137"/><text fill="#000000" font-family="sans-serif" font-size="13" lengthAdjust="spacing" textLength="23.6514" x="642.0313" y="504.2715">null</text></g><g class="message" data-participant-1="CTRL" data-participant-2="SPA"><polygon fill="#181818" points="420.2515,534.3242,410.2515,538.3242,420.2515,542.3242,416.2515,538.3242" style="stroke:#181818;stroke-width:1;"/><line style="stroke:#181818;stroke-width:1;stroke-dasharray:2,2;" x1="414.2515" x2="614.0313" y1="538.3242" y2="538.3242"/><text fill="#000000" font-family="sans-serif" font-size="13" lengthAdjust="spacing" textLength="94.6118" x="426.2515" y="533.582">404 Not Found</text></g><g class="message" data-participant-1="SPA" data-participant-2="ADMIN"><polygon fill="#181818" points="96.2549,563.6348,86.2549,567.6348,96.2549,571.6348,92.2549,567.6348" style="stroke:#181818;stroke-width:1;"/><line style="stroke:#181818;stroke-width:1;stroke-dasharray:2,2;" x1="90.2549" x2="408.2515" y1="567.6348" y2="567.6348"/><text fill="#000000" font-family="sans-serif" font-size="13" lengthAdjust="spacing" textLength="299.9966" x="102.2549" y="562.8926">showError("No qualification found with code X")</text></g><line style="stroke:#000000;stroke-width:1;stroke-dasharray:2,2;" x1="10" x2="1005.1416" y1="576.6348" y2="576.6348"/><text fill="#000000" font-family="sans-serif" font-size="11" font-weight="bold" lengthAdjust="spacing" textLength="117.7505" x="15" y="587.2695">[Qualification found]</text><g class="message" data-participant-1="SVC" data-participant-2="CTRL"><polygon fill="#181818" points="631.0313,607.9004,621.0313,611.9004,631.0313,615.9004,627.0313,611.9004" style="stroke:#181818;stroke-width:1;"/><line style="stroke:#181818;stroke-width:1;stroke-dasharray:2,2;" x1="625.0313" x2="918.2319" y1="611.9004" y2="611.9004"/><text fill="#000000" font-family="sans-serif" font-size="13" lengthAdjust="spacing" textLength="270.2007" x="637.0313" y="607.1582">QualificationDto { Code, DescriptiveName }</text></g><path d="M10,633.9004 L195.0928,633.9004 L195.0928,641.2109 L185.0928,651.2109 L10,651.2109 L10,633.9004" fill="#EEEEEE" style="stroke:#000000;stroke-width:1.5;"/><rect fill="none" height="111.2422" style="stroke:#000000;stroke-width:1.5;" width="849.1147" x="10" y="633.9004"/><text fill="#000000" font-family="sans-serif" font-size="13" font-weight="bold" lengthAdjust="spacing" textLength="140.0928" x="25" y="647.4688">Display Qualification</text><g class="message" data-participant-1="CTRL" data-participant-2="SPA"><polygon fill="#181818" points="420.2515,668.5215,410.2515,672.5215,420.2515,676.5215,416.2515,672.5215" style="stroke:#181818;stroke-width:1;"/><line style="stroke:#181818;stroke-width:1;stroke-dasharray:2,2;" x1="414.2515" x2="619.0313" y1="672.5215" y2="672.5215"/><text fill="#000000" font-family="sans-serif" font-size="13" lengthAdjust="spacing" textLength="168.416" x="426.2515" y="667.7793">200 OK + QualificationDto</text></g><g class="message" data-participant-1="SPA" data-participant-2="ADMIN"><polygon fill="#181818" points="96.2549,697.832,86.2549,701.832,96.2549,705.832,92.2549,701.832" style="stroke:#181818;stroke-width:1;"/><line style="stroke:#181818;stroke-width:1;stroke-dasharray:2,2;" x1="90.2549" x2="408.2515" y1="701.832" y2="701.832"/><text fill="#000000" font-family="sans-serif" font-size="13" lengthAdjust="spacing" textLength="288.209" x="102.2549" y="697.0898">displayQualification([Code, DescriptiveName])</text></g><path d="M414,714.832 L414,739.832 L849,739.832 L849,724.832 L839,714.832 L414,714.832" fill="#FEFFDD" style="stroke:#181818;stroke-width:0.5;"/><path d="M839,714.832 L839,724.832 L849,724.832 L839,714.832" fill="#FEFFDD" style="stroke:#181818;stroke-width:0.5;"/><text fill="#000000" font-family="sans-serif" font-size="13" lengthAdjust="spacing" textLength="414.1147" x="420" y="732.4004">SPA updates the table showing only\nthat qualification in the list.</text><!--SRC=[ZLLDSzem4BtxL-nmARG98PsSCfDs33QjfmI8JKWxJG-AMK1J8pcII8R9vBzt9ITGEtn49u_qTlVjsoVPS9CXT7bcKC7LacLyobDck1Hmju8eW6COAfcYrZ3c-EXvB3LIGQqdPrmRdceOvAWOxTM0QV23owZlvKpH4S-PC50h9TNDkLbajwAU3Fs6Yw2FClwy5D2HmYYPPLZaxupYtZvuWkg1frXa7dVsGMFCfUP4VENGSJWSLE13gSmb4so62nGcQ3jSqFQy3t2nQy5r4iRWTqRHeByRvSsKNEQlifFG7Jb1g4T1mmDQJaKu_cB5WNFW8b-QUagGubX8Ww3uR6v0JbyaXvSrcYEmoO8BceuR2n1rL1fOPRgs8iq1cxFc4PosJXl0n0JIZAT_DTGspAAWrdJPaOvjPOy-zaiGXrVNOJA2RczmSr23nEQDyNw9se2Hu0yZLywsJWhOWPC4ty8HdB2SdvIQE7coeZmxFFcIFp0Inbd4RRbOg-AuGobcQ4h1xPMLmDShaVwdxJgDTS_1JgdF-1S4_iXl-qbuiDSOZUBuW9LHJ9LSM5-vjeahKRPkj6sZQQ-YoKwIphHsn-4fBcXJL1Bsmiu8Fa8t7boMQscu-Hx6OU6t2_XQJlV2WP8SRpYKkPAXn3BB76w2rSY2nbhoTuMw7WugFVPx4Ucy_rQnp5Hgac5XAfUKVItknbHhDeLHrlVjh7K6VGhiRWAj6Ucyk9ZdeEVoCLHAgdgjB-6-F4qR1O_SpC5E37xM6jMM2ujYfjyuOHVL4YoWQ_BaHdW40UfKyPmIOvyj49whjTxbupXCXeF-EnmSS9rdR5Nciqt3pwqM37x0fpVCjsgnJUD9KQeKN_-zjUi_szv5-sDvVHLjxcK-eNeQ3BsGXjtHNyzEaOiPI96jReMPCrCP9HSEdT5RkkKD_0S0]--></g></svg>