<svg xmlns="http://www.w3.org/2000/svg" xmlns:xlink="http://www.w3.org/1999/xlink" contentStyleType="text/css" data-diagram-type="SEQUENCE" height="1230px" preserveAspectRatio="none" style="width:1556px;height:1230px;background:#FFFFFF;" version="1.1" viewBox="0 0 1556 1230" width="1556px" zoomAndPan="magnify"><title>Update Qualification - Process View</title><defs/><g><text fill="#000000" font-family="sans-serif" font-size="14" font-weight="bold" lengthAdjust="spacing" textLength="260.8252" x="649.4414" y="28.5352">Update Qualification - Process View</text><g><title>.QualificationController</title><rect fill="#FFFFFF" height="290.1055" style="stroke:#181818;stroke-width:1;" width="10" x="662.8569" y="285.8398"/></g><g><title>.QualificationService</title><rect fill="#FFFFFF" height="539.5898" style="stroke:#181818;stroke-width:1;" width="10" x="962.0576" y="315.1504"/></g><g><title>.QualificationRepository</title><rect fill="#FFFFFF" height="87.9316" style="stroke:#181818;stroke-width:1;" width="10" x="1136.2739" y="375.7715"/></g><g><title>.QualificationRepository</title><rect fill="#FFFFFF" height="87.9316" style="stroke:#181818;stroke-width:1;" width="10" x="1136.2739" y="737.498"/></g><g><title>.PortManagementDB</title><rect fill="#FFFFFF" height="29.3105" style="stroke:#181818;stroke-width:1;" width="10" x="1459.8052" y="405.082"/></g><g><title>.PortManagementDB</title><rect fill="#FFFFFF" height="29.3105" style="stroke:#181818;stroke-width:1;" width="10" x="1459.8052" y="678.877"/></g><g><title>.PortManagementDB</title><rect fill="#FFFFFF" height="29.3105" style="stroke:#181818;stroke-width:1;" width="10" x="1459.8052" y="766.8086"/></g><rect fill="none" height="81.9316" style="stroke:#000000;stroke-width:1.5;" width="779.9795" x="20" y="135.9766"/><rect fill="none" height="91.2422" style="stroke:#000000;stroke-width:1.5;" width="704.7583" x="348.209" y="231.9082"/><rect fill="none" height="253.7949" style="stroke:#000000;stroke-width:1.5;" width="1540.708" x="10" y="337.1504"/><rect fill="none" height="105.2422" style="stroke:#000000;stroke-width:1.5;" width="1032.9673" x="20" y="478.7031"/><rect fill="none" height="257.7949" style="stroke:#000000;stroke-width:1.5;" width="979.1753" x="571.5327" y="604.9453"/><rect fill="none" height="75.9316" style="stroke:#000000;stroke-width:1.5;" width="744.1812" x="20" y="876.7402"/><rect fill="none" height="75.9316" style="stroke:#000000;stroke-width:1.5;" width="744.1812" x="20" y="966.6719"/><rect fill="none" height="75.9316" style="stroke:#000000;stroke-width:1.5;" width="744.1812" x="20" y="1056.6035"/><g><title>Logistics Operator</title><rect fill="#000000" fill-opacity="0.00000" height="1030.5586" width="8" x="91.2549" y="118.9766"/><line style="stroke:#181818;stroke-width:0.5;stroke-dasharray:5,5;" x1="95" x2="95" y1="118.9766" y2="1149.5352"/></g><g><title>EditQualification.html</title><rect fill="#000000" fill-opacity="0.00000" height="1030.5586" width="8" x="434.8149" y="118.9766"/><line style="stroke:#181818;stroke-width:0.5;stroke-dasharray:5,5;" x1="438.209" x2="438.209" y1="118.9766" y2="1149.5352"/></g><g><title>.QualificationController</title><rect fill="#000000" fill-opacity="0.00000" height="1030.5586" width="8" x="663.8569" y="118.9766"/><line style="stroke:#181818;stroke-width:0.5;stroke-dasharray:5,5;" x1="667.5327" x2="667.5327" y1="118.9766" y2="1149.5352"/></g><g><title>.QualificationService</title><rect fill="#000000" fill-opacity="0.00000" height="1030.5586" width="8" x="963.0576" y="118.9766"/><line style="stroke:#181818;stroke-width:0.5;stroke-dasharray:5,5;" x1="966.1479" x2="966.1479" y1="118.9766" y2="1149.5352"/></g><g><title>.QualificationRepository</title><rect fill="#000000" fill-opacity="0.00000" height="1030.5586" width="8" x="1137.2739" y="118.9766"/><line style="stroke:#181818;stroke-width:0.5;stroke-dasharray:5,5;" x1="1140.9673" x2="1140.9673" y1="118.9766" y2="1149.5352"/></g><g><title>.PortManagementDB</title><rect fill="#000000" fill-opacity="0.00000" height="1030.5586" width="8" x="1460.8052" y="118.9766"/><line style="stroke:#181818;stroke-width:0.5;stroke-dasharray:5,5;" x1="1463.9023" x2="1463.9023" y1="118.9766" y2="1149.5352"/></g><g class="participant participant-head" data-participant="ADMIN"><text fill="#000000" font-family="sans-serif" font-size="14" lengthAdjust="spacing" textLength="124.5098" x="30" y="116.0234">Logistics Operator</text><ellipse cx="95.2549" cy="50.9883" fill="#E2E2F0" rx="8" ry="8" style="stroke:#181818;stroke-width:0.5;"/><path d="M95.2549,58.9883 L95.2549,85.9883 M82.2549,66.9883 L108.2549,66.9883 M95.2549,85.9883 L82.2549,100.9883 M95.2549,85.9883 L108.2549,100.9883" fill="none" style="stroke:#181818;stroke-width:0.5;"/></g><g class="participant participant-tail" data-participant="ADMIN"><text fill="#000000" font-family="sans-serif" font-size="14" lengthAdjust="spacing" textLength="124.5098" x="30" y="1162.0703">Logistics Operator</text><ellipse cx="95.2549" cy="1173.5234" fill="#E2E2F0" rx="8" ry="8" style="stroke:#181818;stroke-width:0.5;"/><path d="M95.2549,1181.5234 L95.2549,1208.5234 M82.2549,1189.5234 L108.2549,1189.5234 M95.2549,1208.5234 L82.2549,1223.5234 M95.2549,1208.5234 L108.2549,1223.5234" fill="none" style="stroke:#181818;stroke-width:0.5;"/></g><g class="participant participant-head" data-participant="SPA"><rect fill="#E2E2F0" height="46.9766" rx="2.5" ry="2.5" style="stroke:#181818;stroke-width:0.5;" width="161.2119" x="358.209" y="71"/><text fill="#000000" font-family="sans-serif" font-size="14" lengthAdjust="spacing" textLength="147.2119" x="365.209" y="91.5352">EditQualification.html</text><text fill="#000000" font-family="sans-serif" font-size="14" lengthAdjust="spacing" textLength="34.043" x="421.7935" y="108.0234">(SPA)</text></g><g class="participant participant-tail" data-participant="SPA"><rect fill="#E2E2F0" height="46.9766" rx="2.5" ry="2.5" style="stroke:#181818;stroke-width:0.5;" width="161.2119" x="358.209" y="1148.5352"/><text fill="#000000" font-family="sans-serif" font-size="14" lengthAdjust="spacing" textLength="147.2119" x="365.209" y="1169.0703">EditQualification.html</text><text fill="#000000" font-family="sans-serif" font-size="14" lengthAdjust="spacing" textLength="34.043" x="421.7935" y="1185.5586">(SPA)</text></g><g class="participant participant-head" data-participant="CTRL"><rect fill="#E2E2F0" height="30.4883" rx="2.5" ry="2.5" style="stroke:#181818;stroke-width:0.5;" width="172.6484" x="581.5327" y="87.4883"/><text fill="#000000" font-family="sans-serif" font-size="14" lengthAdjust="spacing" textLength="158.6484" x="588.5327" y="108.0234">:QualificationController</text></g><g class="participant participant-tail" data-participant="CTRL"><rect fill="#E2E2F0" height="30.4883" rx="2.5" ry="2.5" style="stroke:#181818;stroke-width:0.5;" width="172.6484" x="581.5327" y="1148.5352"/><text fill="#000000" font-family="sans-serif" font-size="14" lengthAdjust="spacing" textLength="158.6484" x="588.5327" y="1169.0703">:QualificationController</text></g><g class="participant participant-head" data-participant="SVC"><rect fill="#E2E2F0" height="30.4883" rx="2.5" ry="2.5" style="stroke:#181818;stroke-width:0.5;" width="151.8193" x="891.1479" y="87.4883"/><text fill="#000000" font-family="sans-serif" font-size="14" lengthAdjust="spacing" textLength="137.8193" x="898.1479" y="108.0234">:QualificationService</text></g><g class="participant participant-tail" data-participant="SVC"><rect fill="#E2E2F0" height="30.4883" rx="2.5" ry="2.5" style="stroke:#181818;stroke-width:0.5;" width="151.8193" x="891.1479" y="1148.5352"/><text fill="#000000" font-family="sans-serif" font-size="14" lengthAdjust="spacing" textLength="137.8193" x="898.1479" y="1169.0703">:QualificationService</text></g><g class="participant participant-head" data-participant="REPO"><rect fill="#E2E2F0" height="30.4883" rx="2.5" ry="2.5" style="stroke:#181818;stroke-width:0.5;" width="176.6133" x="1052.9673" y="87.4883"/><text fill="#000000" font-family="sans-serif" font-size="14" lengthAdjust="spacing" textLength="162.6133" x="1059.9673" y="108.0234">:QualificationRepository</text></g><g class="participant participant-tail" data-participant="REPO"><rect fill="#E2E2F0" height="30.4883" rx="2.5" ry="2.5" style="stroke:#181818;stroke-width:0.5;" width="176.6133" x="1052.9673" y="1148.5352"/><text fill="#000000" font-family="sans-serif" font-size="14" lengthAdjust="spacing" textLength="162.6133" x="1059.9673" y="1169.0703">:QualificationRepository</text></g><g class="participant participant-head" data-participant="DB"><rect fill="#E2E2F0" height="30.4883" rx="2.5" ry="2.5" style="stroke:#181818;stroke-width:0.5;" width="151.8057" x="1388.9023" y="87.4883"/><text fill="#000000" font-family="sans-serif" font-size="14" lengthAdjust="spacing" textLength="137.8057" x="1395.9023" y="108.0234">:PortManagementDB</text></g><g class="participant participant-tail" data-participant="DB"><rect fill="#E2E2F0" height="30.4883" rx="2.5" ry="2.5" style="stroke:#181818;stroke-width:0.5;" width="151.8057" x="1388.9023" y="1148.5352"/><text fill="#000000" font-family="sans-serif" font-size="14" lengthAdjust="spacing" textLength="137.8057" x="1395.9023" y="1169.0703">:PortManagementDB</text></g><g><title>.QualificationController</title><rect fill="#FFFFFF" height="290.1055" style="stroke:#181818;stroke-width:1;" width="10" x="662.8569" y="285.8398"/></g><g><title>.QualificationService</title><rect fill="#FFFFFF" height="539.5898" style="stroke:#181818;stroke-width:1;" width="10" x="962.0576" y="315.1504"/></g><g><title>.QualificationRepository</title><rect fill="#FFFFFF" height="87.9316" style="stroke:#181818;stroke-width:1;" width="10" x="1136.2739" y="375.7715"/></g><g><title>.QualificationRepository</title><rect fill="#FFFFFF" height="87.9316" style="stroke:#181818;stroke-width:1;" width="10" x="1136.2739" y="737.498"/></g><g><title>.PortManagementDB</title><rect fill="#FFFFFF" height="29.3105" style="stroke:#181818;stroke-width:1;" width="10" x="1459.8052" y="405.082"/></g><g><title>.PortManagementDB</title><rect fill="#FFFFFF" height="29.3105" style="stroke:#181818;stroke-width:1;" width="10" x="1459.8052" y="678.877"/></g><g><title>.PortManagementDB</title><rect fill="#FFFFFF" height="29.3105" style="stroke:#181818;stroke-width:1;" width="10" x="1459.8052" y="766.8086"/></g><path d="M20,135.9766 L209.5298,135.9766 L209.5298,143.2871 L199.5298,153.2871 L20,153.2871 L20,135.9766" fill="#EEEEEE" style="stroke:#000000;stroke-width:1.5;"/><rect fill="none" height="81.9316" style="stroke:#000000;stroke-width:1.5;" width="779.9795" x="20" y="135.9766"/><text fill="#000000" font-family="sans-serif" font-size="13" font-weight="bold" lengthAdjust="spacing" textLength="144.5298" x="35" y="149.5449">Edit and Submit Form</text><g class="message" data-participant-1="ADMIN" data-participant-2="SPA"><polygon fill="#181818" points="426.8149,170.5977,436.8149,174.5977,426.8149,178.5977,430.8149,174.5977" style="stroke:#181818;stroke-width:1;"/><line style="stroke:#181818;stroke-width:1;" x1="95.2549" x2="432.8149" y1="174.5977" y2="174.5977"/><text fill="#000000" font-family="sans-serif" font-size="13" lengthAdjust="spacing" textLength="171.1899" x="102.2549" y="169.8555">editForm(DescriptiveName)</text></g><path d="M100,187.5977 L100,212.5977 L789,212.5977 L789,197.5977 L779,187.5977 L100,187.5977" fill="#FEFFDD" style="stroke:#181818;stroke-width:0.5;"/><path d="M779,187.5977 L779,197.5977 L789,197.5977 L779,187.5977" fill="#FEFFDD" style="stroke:#181818;stroke-width:0.5;"/><text fill="#000000" font-family="sans-serif" font-size="13" lengthAdjust="spacing" textLength="668.9795" x="106" y="205.166">Administrator updates the qualification name,\ne.g., from "Crane Operator" &#8594; "Certified Crane Operator".</text><path d="M348.209,231.9082 L549.7612,231.9082 L549.7612,239.2188 L539.7612,249.2188 L348.209,249.2188 L348.209,231.9082" fill="#EEEEEE" style="stroke:#000000;stroke-width:1.5;"/><rect fill="none" height="91.2422" style="stroke:#000000;stroke-width:1.5;" width="704.7583" x="348.209" y="231.9082"/><text fill="#000000" font-family="sans-serif" font-size="13" font-weight="bold" lengthAdjust="spacing" textLength="156.5522" x="363.209" y="245.4766">Submit Update Request</text><g class="message" data-participant-1="SPA" data-participant-2="CTRL"><polygon fill="#181818" points="650.8569,281.8398,660.8569,285.8398,650.8569,289.8398,654.8569,285.8398" style="stroke:#181818;stroke-width:1;"/><line style="stroke:#181818;stroke-width:1;" x1="438.8149" x2="656.8569" y1="285.8398" y2="285.8398"/><text fill="#000000" font-family="sans-serif" font-size="13" lengthAdjust="spacing" textLength="205.042" x="445.8149" y="265.7871">PATCH /api/Qualification/{code}</text><text fill="#000000" font-family="sans-serif" font-size="13" lengthAdjust="spacing" textLength="122.9604" x="445.8149" y="281.0977">{ DescriptiveName }</text></g><g class="message" data-participant-1="CTRL" data-participant-2="SVC"><polygon fill="#181818" points="950.0576,311.1504,960.0576,315.1504,950.0576,319.1504,954.0576,315.1504" style="stroke:#181818;stroke-width:1;"/><line style="stroke:#181818;stroke-width:1;" x1="672.8569" x2="956.0576" y1="315.1504" y2="315.1504"/><text fill="#000000" font-family="sans-serif" font-size="13" lengthAdjust="spacing" textLength="229.4614" x="679.8569" y="310.4082">UpdateQualificationAsync(code, dto)</text></g><path d="M10,337.1504 L176.6338,337.1504 L176.6338,344.4609 L166.6338,354.4609 L10,354.4609 L10,337.1504" fill="#EEEEEE" style="stroke:#000000;stroke-width:1.5;"/><rect fill="none" height="253.7949" style="stroke:#000000;stroke-width:1.5;" width="1540.708" x="10" y="337.1504"/><text fill="#000000" font-family="sans-serif" font-size="13" font-weight="bold" lengthAdjust="spacing" textLength="121.6338" x="25" y="350.7188">Validate Existence</text><g class="message" data-participant-1="SVC" data-participant-2="REPO"><polygon fill="#181818" points="1124.2739,371.7715,1134.2739,375.7715,1124.2739,379.7715,1128.2739,375.7715" style="stroke:#181818;stroke-width:1;"/><line style="stroke:#181818;stroke-width:1;" x1="972.0576" x2="1130.2739" y1="375.7715" y2="375.7715"/><text fill="#000000" font-family="sans-serif" font-size="13" lengthAdjust="spacing" textLength="123.335" x="979.0576" y="371.0293">GetByIdAsync(code)</text></g><g class="message" data-participant-1="REPO" data-participant-2="DB"><polygon fill="#181818" points="1447.8052,401.082,1457.8052,405.082,1447.8052,409.082,1451.8052,405.082" style="stroke:#181818;stroke-width:1;"/><line style="stroke:#181818;stroke-width:1;" x1="1146.2739" x2="1453.8052" y1="405.082" y2="405.082"/><text fill="#000000" font-family="sans-serif" font-size="13" lengthAdjust="spacing" textLength="294.5313" x="1153.2739" y="400.3398">SELECT * FROM Qualifications WHERE Code = ?</text></g><g class="message" data-participant-1="DB" data-participant-2="REPO"><polygon fill="#181818" points="1157.2739,430.3926,1147.2739,434.3926,1157.2739,438.3926,1153.2739,434.3926" style="stroke:#181818;stroke-width:1;"/><line style="stroke:#181818;stroke-width:1;stroke-dasharray:2,2;" x1="1151.2739" x2="1463.8052" y1="434.3926" y2="434.3926"/><text fill="#000000" font-family="sans-serif" font-size="13" lengthAdjust="spacing" textLength="125.0933" x="1163.2739" y="429.6504">Qualification or null</text></g><g class="message" data-participant-1="REPO" data-participant-2="SVC"><polygon fill="#181818" points="983.0576,459.7031,973.0576,463.7031,983.0576,467.7031,979.0576,463.7031" style="stroke:#181818;stroke-width:1;"/><line style="stroke:#181818;stroke-width:1;stroke-dasharray:2,2;" x1="977.0576" x2="1140.2739" y1="463.7031" y2="463.7031"/><text fill="#000000" font-family="sans-serif" font-size="13" lengthAdjust="spacing" textLength="125.0933" x="989.0576" y="458.9609">Qualification or null</text></g><path d="M20,478.7031 L82.1387,478.7031 L82.1387,486.0137 L72.1387,496.0137 L20,496.0137 L20,478.7031" fill="#EEEEEE" style="stroke:#000000;stroke-width:1.5;"/><rect fill="none" height="105.2422" style="stroke:#000000;stroke-width:1.5;" width="1032.9673" x="20" y="478.7031"/><text fill="#000000" font-family="sans-serif" font-size="13" font-weight="bold" lengthAdjust="spacing" textLength="17.1387" x="35" y="492.2715">alt</text><text fill="#000000" font-family="sans-serif" font-size="11" font-weight="bold" lengthAdjust="spacing" textLength="140.0835" x="97.1387" y="491.3379">[Qualification not found]</text><g class="message" data-participant-1="SVC" data-participant-2="CTRL"><polygon fill="#181818" points="683.8569,513.3242,673.8569,517.3242,683.8569,521.3242,679.8569,517.3242" style="stroke:#181818;stroke-width:1;"/><line style="stroke:#181818;stroke-width:1;stroke-dasharray:2,2;" x1="677.8569" x2="961.0576" y1="517.3242" y2="517.3242"/><text fill="#000000" font-family="sans-serif" font-size="13" lengthAdjust="spacing" textLength="66.644" x="689.8569" y="512.582">return null</text></g><g class="message" data-participant-1="CTRL" data-participant-2="SPA"><polygon fill="#181818" points="449.8149,542.6348,439.8149,546.6348,449.8149,550.6348,445.8149,546.6348" style="stroke:#181818;stroke-width:1;"/><line style="stroke:#181818;stroke-width:1;stroke-dasharray:2,2;" x1="443.8149" x2="661.8569" y1="546.6348" y2="546.6348"/><text fill="#000000" font-family="sans-serif" font-size="13" lengthAdjust="spacing" textLength="94.6118" x="455.8149" y="541.8926">404 Not Found</text></g><g class="message" data-participant-1="SPA" data-participant-2="ADMIN"><polygon fill="#181818" points="106.2549,571.9453,96.2549,575.9453,106.2549,579.9453,102.2549,575.9453" style="stroke:#181818;stroke-width:1;"/><line style="stroke:#181818;stroke-width:1;stroke-dasharray:2,2;" x1="100.2549" x2="437.8149" y1="575.9453" y2="575.9453"/><text fill="#000000" font-family="sans-serif" font-size="13" lengthAdjust="spacing" textLength="227.9888" x="112.2549" y="571.2031">showError("Qualification not found")</text></g><path d="M571.5327,604.9453 L754.0039,604.9453 L754.0039,612.2559 L744.0039,622.2559 L571.5327,622.2559 L571.5327,604.9453" fill="#EEEEEE" style="stroke:#000000;stroke-width:1.5;"/><rect fill="none" height="257.7949" style="stroke:#000000;stroke-width:1.5;" width="979.1753" x="571.5327" y="604.9453"/><text fill="#000000" font-family="sans-serif" font-size="13" font-weight="bold" lengthAdjust="spacing" textLength="137.4712" x="586.5327" y="618.5137">Update Qualification</text><path d="M977,627.2559 L977,652.2559 L1510,652.2559 L1510,637.2559 L1500,627.2559 L977,627.2559" fill="#FEFFDD" style="stroke:#181818;stroke-width:0.5;"/><path d="M1500,627.2559 L1500,637.2559 L1510,637.2559 L1500,627.2559" fill="#FEFFDD" style="stroke:#181818;stroke-width:0.5;"/><text fill="#000000" font-family="sans-serif" font-size="13" lengthAdjust="spacing" textLength="512.7954" x="983" y="644.8242">Updates DescriptiveName and saves changes\nwhile maintaining the same Code.</text><g class="message" data-participant-1="SVC" data-participant-2="DB"><polygon fill="#181818" points="1447.8052,674.877,1457.8052,678.877,1447.8052,682.877,1451.8052,678.877" style="stroke:#181818;stroke-width:1;"/><line style="stroke:#181818;stroke-width:1;" x1="972.0576" x2="1453.8052" y1="678.877" y2="678.877"/><text fill="#000000" font-family="sans-serif" font-size="13" lengthAdjust="spacing" textLength="409.2969" x="979.0576" y="674.1348">UPDATE Qualifications SET DescriptiveName = ? WHERE Code = ?</text></g><g class="message" data-participant-1="DB" data-participant-2="SVC"><polygon fill="#181818" points="983.0576,704.1875,973.0576,708.1875,983.0576,712.1875,979.0576,708.1875" style="stroke:#181818;stroke-width:1;"/><line style="stroke:#181818;stroke-width:1;stroke-dasharray:2,2;" x1="977.0576" x2="1463.8052" y1="708.1875" y2="708.1875"/><text fill="#000000" font-family="sans-serif" font-size="13" lengthAdjust="spacing" textLength="48.5088" x="989.0576" y="703.4453">success</text></g><g class="message" data-participant-1="SVC" data-participant-2="REPO"><polygon fill="#181818" points="1124.2739,733.498,1134.2739,737.498,1124.2739,741.498,1128.2739,737.498" style="stroke:#181818;stroke-width:1;"/><line style="stroke:#181818;stroke-width:1;" x1="972.0576" x2="1130.2739" y1="737.498" y2="737.498"/><text fill="#000000" font-family="sans-serif" font-size="13" lengthAdjust="spacing" textLength="128.0068" x="979.0576" y="732.7559">SaveChangesAsync()</text></g><g class="message" data-participant-1="REPO" data-participant-2="DB"><polygon fill="#181818" points="1447.8052,762.8086,1457.8052,766.8086,1447.8052,770.8086,1451.8052,766.8086" style="stroke:#181818;stroke-width:1;"/><line style="stroke:#181818;stroke-width:1;" x1="1146.2739" x2="1453.8052" y1="766.8086" y2="766.8086"/><text fill="#000000" font-family="sans-serif" font-size="13" lengthAdjust="spacing" textLength="149.2144" x="1153.2739" y="762.0664">COMMIT TRANSACTION</text></g><g class="message" data-participant-1="DB" data-participant-2="REPO"><polygon fill="#181818" points="1157.2739,792.1191,1147.2739,796.1191,1157.2739,800.1191,1153.2739,796.1191" style="stroke:#181818;stroke-width:1;"/><line style="stroke:#181818;stroke-width:1;stroke-dasharray:2,2;" x1="1151.2739" x2="1463.8052" y1="796.1191" y2="796.1191"/><text fill="#000000" font-family="sans-serif" font-size="13" lengthAdjust="spacing" textLength="48.5088" x="1163.2739" y="791.377">success</text></g><g class="message" data-participant-1="REPO" data-participant-2="SVC"><polygon fill="#181818" points="983.0576,821.4297,973.0576,825.4297,983.0576,829.4297,979.0576,825.4297" style="stroke:#181818;stroke-width:1;"/><line style="stroke:#181818;stroke-width:1;stroke-dasharray:2,2;" x1="977.0576" x2="1140.2739" y1="825.4297" y2="825.4297"/><text fill="#000000" font-family="sans-serif" font-size="13" lengthAdjust="spacing" textLength="48.5088" x="989.0576" y="820.6875">success</text></g><g class="message" data-participant-1="SVC" data-participant-2="CTRL"><polygon fill="#181818" points="678.8569,850.7402,668.8569,854.7402,678.8569,858.7402,674.8569,854.7402" style="stroke:#181818;stroke-width:1;"/><line style="stroke:#181818;stroke-width:1;stroke-dasharray:2,2;" x1="672.8569" x2="966.0576" y1="854.7402" y2="854.7402"/><text fill="#000000" font-family="sans-serif" font-size="13" lengthAdjust="spacing" textLength="270.2007" x="684.8569" y="849.998">QualificationDto { Code, DescriptiveName }</text></g><path d="M20,876.7402 L156.0952,876.7402 L156.0952,884.0508 L146.0952,894.0508 L20,894.0508 L20,876.7402" fill="#EEEEEE" style="stroke:#000000;stroke-width:1.5;"/><rect fill="none" height="75.9316" style="stroke:#000000;stroke-width:1.5;" width="744.1812" x="20" y="876.7402"/><text fill="#000000" font-family="sans-serif" font-size="13" font-weight="bold" lengthAdjust="spacing" textLength="91.0952" x="35" y="890.3086">Return Result</text><g class="message" data-participant-1="CTRL" data-participant-2="SPA"><polygon fill="#181818" points="449.8149,911.3613,439.8149,915.3613,449.8149,919.3613,445.8149,915.3613" style="stroke:#181818;stroke-width:1;"/><line style="stroke:#181818;stroke-width:1;stroke-dasharray:2,2;" x1="443.8149" x2="666.8569" y1="915.3613" y2="915.3613"/><text fill="#000000" font-family="sans-serif" font-size="13" lengthAdjust="spacing" textLength="168.416" x="455.8149" y="910.6191">200 OK + QualificationDto</text></g><g class="message" data-participant-1="SPA" data-participant-2="ADMIN"><polygon fill="#181818" points="106.2549,940.6719,96.2549,944.6719,106.2549,948.6719,102.2549,944.6719" style="stroke:#181818;stroke-width:1;"/><line style="stroke:#181818;stroke-width:1;stroke-dasharray:2,2;" x1="100.2549" x2="437.8149" y1="944.6719" y2="944.6719"/><text fill="#000000" font-family="sans-serif" font-size="13" lengthAdjust="spacing" textLength="319.5601" x="112.2549" y="939.9297">showSuccess("Qualification updated successfully!")</text></g><path d="M20,966.6719 L82.1387,966.6719 L82.1387,973.9824 L72.1387,983.9824 L20,983.9824 L20,966.6719" fill="#EEEEEE" style="stroke:#000000;stroke-width:1.5;"/><rect fill="none" height="75.9316" style="stroke:#000000;stroke-width:1.5;" width="744.1812" x="20" y="966.6719"/><text fill="#000000" font-family="sans-serif" font-size="13" font-weight="bold" lengthAdjust="spacing" textLength="17.1387" x="35" y="980.2402">alt</text><text fill="#000000" font-family="sans-serif" font-size="11" font-weight="bold" lengthAdjust="spacing" textLength="97.7593" x="97.1387" y="979.3066">[Validation Error]</text><g class="message" data-participant-1="CTRL" data-participant-2="SPA"><polygon fill="#181818" points="449.8149,1001.293,439.8149,1005.293,449.8149,1009.293,445.8149,1005.293" style="stroke:#181818;stroke-width:1;"/><line style="stroke:#181818;stroke-width:1;stroke-dasharray:2,2;" x1="443.8149" x2="666.8569" y1="1005.293" y2="1005.293"/><text fill="#000000" font-family="sans-serif" font-size="13" lengthAdjust="spacing" textLength="106.1709" x="455.8149" y="1000.5508">400 Bad Request</text></g><g class="message" data-participant-1="SPA" data-participant-2="ADMIN"><polygon fill="#181818" points="106.2549,1030.6035,96.2549,1034.6035,106.2549,1038.6035,102.2549,1034.6035" style="stroke:#181818;stroke-width:1;"/><line style="stroke:#181818;stroke-width:1;stroke-dasharray:2,2;" x1="100.2549" x2="437.8149" y1="1034.6035" y2="1034.6035"/><text fill="#000000" font-family="sans-serif" font-size="13" lengthAdjust="spacing" textLength="231.4165" x="112.2549" y="1029.8613">showError("Missing or invalid fields")</text></g><path d="M20,1056.6035 L82.1387,1056.6035 L82.1387,1063.9141 L72.1387,1073.9141 L20,1073.9141 L20,1056.6035" fill="#EEEEEE" style="stroke:#000000;stroke-width:1.5;"/><rect fill="none" height="75.9316" style="stroke:#000000;stroke-width:1.5;" width="744.1812" x="20" y="1056.6035"/><text fill="#000000" font-family="sans-serif" font-size="13" font-weight="bold" lengthAdjust="spacing" textLength="17.1387" x="35" y="1070.1719">alt</text><text fill="#000000" font-family="sans-serif" font-size="11" font-weight="bold" lengthAdjust="spacing" textLength="123.7822" x="97.1387" y="1069.2383">[Internal Server Error]</text><g class="message" data-participant-1="CTRL" data-participant-2="SPA"><polygon fill="#181818" points="449.8149,1091.2246,439.8149,1095.2246,449.8149,1099.2246,445.8149,1095.2246" style="stroke:#181818;stroke-width:1;"/><line style="stroke:#181818;stroke-width:1;stroke-dasharray:2,2;" x1="443.8149" x2="666.8569" y1="1095.2246" y2="1095.2246"/><text fill="#000000" font-family="sans-serif" font-size="13" lengthAdjust="spacing" textLength="155.0859" x="455.8149" y="1090.4824">500 Internal Server Error</text></g><g class="message" data-participant-1="SPA" data-participant-2="ADMIN"><polygon fill="#181818" points="106.2549,1120.5352,96.2549,1124.5352,106.2549,1128.5352,102.2549,1124.5352" style="stroke:#181818;stroke-width:1;"/><line style="stroke:#181818;stroke-width:1;stroke-dasharray:2,2;" x1="100.2549" x2="437.8149" y1="1124.5352" y2="1124.5352"/><text fill="#000000" font-family="sans-serif" font-size="13" lengthAdjust="spacing" textLength="265.8398" x="112.2549" y="1119.793">showError("Failed to update qualification")</text></g><!--SRC=[bLPDRziu4BthLypwiacRBopIIu3kGfQLnbZRSYNRlUJ2bSOs0PbqISff4FJQ7z2Vs5_I8UN4aIBPNW46P6auy_ZclQ4CDpd2T9qnW_2vO3cVyvGPBWMSmrZ95BM66SS7psEfaGew0xdWsl1KGxH6nUXP1vW6lpViZxmrK_IAhvamq0apRYefBvPcbT-BasJidxf5T5DTSbE93wGmIkOvbYM2IJpO5vwWsl0KoyopO5zeZ6kfEM5_TD5nE8vguMEfp909ji0L2jFhkhXUr_F-X8zj5qoJC0O_cFIZKNkKjr2oM8Db1vZ882d-Mz7jhLGh3-XoJCBvtvOTk06aEFlkf8SwLNnj-0P7R8MdBbX8wflYYwK1ETys0RQNdwsue5wv9a7XUgp1B16-LXejADlPlS2BnSKPp9LSGITGJE2h1l_wyPCU8X4qvvX1xVM5Aucq5ml7evlzDCNXvscOJE1s47qvoDEMdgr4O_nQe3QkeEM7QBAo89x6_YIuWqksvfULLby-fJB3x_VY2MeCmdUNXdJDDpQtqvTxv5BQ3im2oboMhYJrzQD8JspYCyYCFAqcik8xICBC7_HxlfFA-CvFmeD4pAY-uo3yHar5aMB90c4ag5R2XFKJckvZFzlXgq5pIhTFN3ojwtLfLH8Emc02x-0sZeRLCQ3XorqOXn1GBlW8_rJJaI7iVqfoliDG7ICaFL7akOlBiBwoXF52zL5BtHvA7BcfBI41mbmMHFwp2nm_EvaeD8KIkxoxThyuxlhg6aRIEhAInwgDOafxte1UoeTGAQbEEYqGEgSlYr-XtwdC6ePsS5Wgqp499JnI9aspl65KM8q-evjkHqFT7tOwQRQXD-cIYGNgU_6mv7HUh1WNXdvSBDmyqJRQAgGs2LuBr0bjkvEQmf9mygOsIUr_AAzKZovIUrurIAt1AGbjB2YtLRhbAAS4qN3Ody0azaT9EUYFC4GxhWOBj0JlH5yJT8NBdf7mv1WxQvbshr8UDQRYC1b7eoDq5vV6Yb4NkV4QRFNNrHL4_yBxDuYzLeSqUIuf-QcxhZpUicVwvkJlnp_8WGSt6CPn5CETF-eD-gDFUxPfXyrs1jk2pljUu_YuWYxBtXvLpSDZoBMsFg9XnyN6vWSwO_DCFuEtTVl2e18i1_kDWwgz-0SgtXwy1yOj8sDdGFefcQn-8son_0O0]--></g></svg>