<svg xmlns="http://www.w3.org/2000/svg" xmlns:xlink="http://www.w3.org/1999/xlink" contentStyleType="text/css" data-diagram-type="SEQUENCE" height="1814px" preserveAspectRatio="none" style="width:2068px;height:1814px;background:#FFFFFF;" version="1.1" viewBox="0 0 2068 1814" width="2068px" zoomAndPan="magnify"><title>Create Dock - Process View</title><defs/><g><text fill="#000000" font-family="sans-serif" font-size="14" font-weight="bold" lengthAdjust="spacing" textLength="200.3955" x="935.4756" y="28.5352">Create Dock - Process View</text><g><title>.DockController</title><rect fill="#FFFFFF" height="509.2793" style="stroke:#181818;stroke-width:1;" width="10" x="776.0117" y="301.1504"/></g><g><title>.DockService</title><rect fill="#FFFFFF" height="924.3164" style="stroke:#181818;stroke-width:1;" width="10" x="1193.0801" y="330.4609"/></g><g><title>.VesselTypeRepository</title><rect fill="#FFFFFF" height="87.9316" style="stroke:#181818;stroke-width:1;" width="10" x="1526.3848" y="610.2559"/></g><g><title>.DockRepository</title><rect fill="#FFFFFF" height="87.9316" style="stroke:#181818;stroke-width:1;" width="10" x="1682.0859" y="468.7031"/></g><g><title>.DockRepository</title><rect fill="#FFFFFF" height="87.9316" style="stroke:#181818;stroke-width:1;" width="10" x="1682.0859" y="977.9824"/></g><g><title>.DockRepository</title><rect fill="#FFFFFF" height="87.9316" style="stroke:#181818;stroke-width:1;" width="10" x="1682.0859" y="1095.2246"/></g><g><title>.PortManagementDB</title><rect fill="#FFFFFF" height="29.3105" style="stroke:#181818;stroke-width:1;" width="10" x="1961.4438" y="498.0137"/></g><g><title>.PortManagementDB</title><rect fill="#FFFFFF" height="29.3105" style="stroke:#181818;stroke-width:1;" width="10" x="1961.4438" y="639.5664"/></g><g><title>.PortManagementDB</title><rect fill="#FFFFFF" height="29.3105" style="stroke:#181818;stroke-width:1;" width="10" x="1961.4438" y="1007.293"/></g><g><title>.PortManagementDB</title><rect fill="#FFFFFF" height="29.3105" style="stroke:#181818;stroke-width:1;" width="10" x="1961.4438" y="1124.5352"/></g><rect fill="none" height="97.2422" style="stroke:#000000;stroke-width:1.5;" width="551.4092" x="30" y="135.9766"/><rect fill="none" height="91.2422" style="stroke:#000000;stroke-width:1.5;" width="929.4927" x="328.688" y="247.2188"/><rect fill="none" height="479.9688" style="stroke:#000000;stroke-width:1.5;" width="2052.3467" x="10" y="352.4609"/><rect fill="none" height="253.7949" style="stroke:#000000;stroke-width:1.5;" width="2032.3467" x="20" y="571.6348"/><rect fill="none" height="105.2422" style="stroke:#000000;stroke-width:1.5;" width="1228.1807" x="30" y="713.1875"/><rect fill="none" height="416.3477" style="stroke:#000000;stroke-width:1.5;" width="1341.8501" x="710.4966" y="846.4297"/><rect fill="none" height="111.2422" style="stroke:#000000;stroke-width:1.5;" width="834.2896" x="30" y="1276.7773"/><rect fill="none" height="105.2422" style="stroke:#000000;stroke-width:1.5;" width="1228.1807" x="30" y="1402.0195"/><rect fill="none" height="105.2422" style="stroke:#000000;stroke-width:1.5;" width="1228.1807" x="30" y="1521.2617"/><rect fill="none" height="75.9316" style="stroke:#000000;stroke-width:1.5;" width="821.5269" x="30" y="1640.5039"/><g><title>Port Authority Officer</title><rect fill="#000000" fill-opacity="0.00000" height="1614.459" width="8" x="111.6387" y="118.9766"/><line style="stroke:#181818;stroke-width:0.5;stroke-dasharray:5,5;" x1="115" x2="115" y1="118.9766" y2="1733.4355"/></g><g><title>CreateDock.html</title><rect fill="#000000" fill-opacity="0.00000" height="1614.459" width="8" x="398.6348" y="118.9766"/><line style="stroke:#181818;stroke-width:0.5;stroke-dasharray:5,5;" x1="401.688" x2="401.688" y1="118.9766" y2="1733.4355"/></g><g><title>.DockController</title><rect fill="#000000" fill-opacity="0.00000" height="1614.459" width="8" x="777.0117" y="118.9766"/><line style="stroke:#181818;stroke-width:0.5;stroke-dasharray:5,5;" x1="780.4966" x2="780.4966" y1="118.9766" y2="1733.4355"/></g><g><title>.DockService</title><rect fill="#000000" fill-opacity="0.00000" height="1614.459" width="8" x="1194.0801" y="118.9766"/><line style="stroke:#181818;stroke-width:0.5;stroke-dasharray:5,5;" x1="1197.9795" x2="1197.9795" y1="118.9766" y2="1733.4355"/></g><g><title>.VesselTypeRepository</title><rect fill="#000000" fill-opacity="0.00000" height="1614.459" width="8" x="1527.3848" y="118.9766"/><line style="stroke:#181818;stroke-width:0.5;stroke-dasharray:5,5;" x1="1531.1812" x2="1531.1812" y1="118.9766" y2="1733.4355"/></g><g><title>.DockRepository</title><rect fill="#000000" fill-opacity="0.00000" height="1614.459" width="8" x="1683.0859" y="118.9766"/><line style="stroke:#181818;stroke-width:0.5;stroke-dasharray:5,5;" x1="1686.5884" x2="1686.5884" y1="118.9766" y2="1733.4355"/></g><g><title>.PortManagementDB</title><rect fill="#000000" fill-opacity="0.00000" height="1614.459" width="8" x="1962.4438" y="118.9766"/><line style="stroke:#181818;stroke-width:0.5;stroke-dasharray:5,5;" x1="1965.541" x2="1965.541" y1="118.9766" y2="1733.4355"/></g><g class="participant participant-head" data-participant="ADMIN"><text fill="#000000" font-family="sans-serif" font-size="14" lengthAdjust="spacing" textLength="145.2773" x="40" y="116.0234">Port Authority Officer</text><ellipse cx="115.6387" cy="50.9883" fill="#E2E2F0" rx="8" ry="8" style="stroke:#181818;stroke-width:0.5;"/><path d="M115.6387,58.9883 L115.6387,85.9883 M102.6387,66.9883 L128.6387,66.9883 M115.6387,85.9883 L102.6387,100.9883 M115.6387,85.9883 L128.6387,100.9883" fill="none" style="stroke:#181818;stroke-width:0.5;"/></g><g class="participant participant-tail" data-participant="ADMIN"><text fill="#000000" font-family="sans-serif" font-size="14" lengthAdjust="spacing" textLength="145.2773" x="40" y="1745.9707">Port Authority Officer</text><ellipse cx="115.6387" cy="1757.4238" fill="#E2E2F0" rx="8" ry="8" style="stroke:#181818;stroke-width:0.5;"/><path d="M115.6387,1765.4238 L115.6387,1792.4238 M102.6387,1773.4238 L128.6387,1773.4238 M115.6387,1792.4238 L102.6387,1807.4238 M115.6387,1792.4238 L128.6387,1807.4238" fill="none" style="stroke:#181818;stroke-width:0.5;"/></g><g class="participant participant-head" data-participant="SPA"><rect fill="#E2E2F0" height="46.9766" rx="2.5" ry="2.5" style="stroke:#181818;stroke-width:0.5;" width="127.8936" x="338.688" y="71"/><text fill="#000000" font-family="sans-serif" font-size="14" lengthAdjust="spacing" textLength="113.8936" x="345.688" y="91.5352">CreateDock.html</text><text fill="#000000" font-family="sans-serif" font-size="14" lengthAdjust="spacing" textLength="34.043" x="385.6133" y="108.0234">(SPA)</text></g><g class="participant participant-tail" data-participant="SPA"><rect fill="#E2E2F0" height="46.9766" rx="2.5" ry="2.5" style="stroke:#181818;stroke-width:0.5;" width="127.8936" x="338.688" y="1732.4355"/><text fill="#000000" font-family="sans-serif" font-size="14" lengthAdjust="spacing" textLength="113.8936" x="345.688" y="1752.9707">CreateDock.html</text><text fill="#000000" font-family="sans-serif" font-size="14" lengthAdjust="spacing" textLength="34.043" x="385.6133" y="1769.459">(SPA)</text></g><g class="participant participant-head" data-participant="CTRL"><rect fill="#E2E2F0" height="30.4883" rx="2.5" ry="2.5" style="stroke:#181818;stroke-width:0.5;" width="121.0303" x="720.4966" y="87.4883"/><text fill="#000000" font-family="sans-serif" font-size="14" lengthAdjust="spacing" textLength="107.0303" x="727.4966" y="108.0234">:DockController</text></g><g class="participant participant-tail" data-participant="CTRL"><rect fill="#E2E2F0" height="30.4883" rx="2.5" ry="2.5" style="stroke:#181818;stroke-width:0.5;" width="121.0303" x="720.4966" y="1732.4355"/><text fill="#000000" font-family="sans-serif" font-size="14" lengthAdjust="spacing" textLength="107.0303" x="727.4966" y="1752.9707">:DockController</text></g><g class="participant participant-head" data-participant="SVC"><rect fill="#E2E2F0" height="30.4883" rx="2.5" ry="2.5" style="stroke:#181818;stroke-width:0.5;" width="100.2012" x="1147.9795" y="87.4883"/><text fill="#000000" font-family="sans-serif" font-size="14" lengthAdjust="spacing" textLength="86.2012" x="1154.9795" y="108.0234">:DockService</text></g><g class="participant participant-tail" data-participant="SVC"><rect fill="#E2E2F0" height="30.4883" rx="2.5" ry="2.5" style="stroke:#181818;stroke-width:0.5;" width="100.2012" x="1147.9795" y="1732.4355"/><text fill="#000000" font-family="sans-serif" font-size="14" lengthAdjust="spacing" textLength="86.2012" x="1154.9795" y="1752.9707">:DockService</text></g><g class="participant participant-head" data-participant="VREPO"><rect fill="#E2E2F0" height="30.4883" rx="2.5" ry="2.5" style="stroke:#181818;stroke-width:0.5;" width="166.4072" x="1448.1812" y="87.4883"/><text fill="#000000" font-family="sans-serif" font-size="14" lengthAdjust="spacing" textLength="152.4072" x="1455.1812" y="108.0234">:VesselTypeRepository</text></g><g class="participant participant-tail" data-participant="VREPO"><rect fill="#E2E2F0" height="30.4883" rx="2.5" ry="2.5" style="stroke:#181818;stroke-width:0.5;" width="166.4072" x="1448.1812" y="1732.4355"/><text fill="#000000" font-family="sans-serif" font-size="14" lengthAdjust="spacing" textLength="152.4072" x="1455.1812" y="1752.9707">:VesselTypeRepository</text></g><g class="participant participant-head" data-participant="DREPO"><rect fill="#E2E2F0" height="30.4883" rx="2.5" ry="2.5" style="stroke:#181818;stroke-width:0.5;" width="124.9951" x="1624.5884" y="87.4883"/><text fill="#000000" font-family="sans-serif" font-size="14" lengthAdjust="spacing" textLength="110.9951" x="1631.5884" y="108.0234">:DockRepository</text></g><g class="participant participant-tail" data-participant="DREPO"><rect fill="#E2E2F0" height="30.4883" rx="2.5" ry="2.5" style="stroke:#181818;stroke-width:0.5;" width="124.9951" x="1624.5884" y="1732.4355"/><text fill="#000000" font-family="sans-serif" font-size="14" lengthAdjust="spacing" textLength="110.9951" x="1631.5884" y="1752.9707">:DockRepository</text></g><g class="participant participant-head" data-participant="DB"><rect fill="#E2E2F0" height="30.4883" rx="2.5" ry="2.5" style="stroke:#181818;stroke-width:0.5;" width="151.8057" x="1890.541" y="87.4883"/><text fill="#000000" font-family="sans-serif" font-size="14" lengthAdjust="spacing" textLength="137.8057" x="1897.541" y="108.0234">:PortManagementDB</text></g><g class="participant participant-tail" data-participant="DB"><rect fill="#E2E2F0" height="30.4883" rx="2.5" ry="2.5" style="stroke:#181818;stroke-width:0.5;" width="151.8057" x="1890.541" y="1732.4355"/><text fill="#000000" font-family="sans-serif" font-size="14" lengthAdjust="spacing" textLength="137.8057" x="1897.541" y="1752.9707">:PortManagementDB</text></g><g><title>.DockController</title><rect fill="#FFFFFF" height="509.2793" style="stroke:#181818;stroke-width:1;" width="10" x="776.0117" y="301.1504"/></g><g><title>.DockService</title><rect fill="#FFFFFF" height="924.3164" style="stroke:#181818;stroke-width:1;" width="10" x="1193.0801" y="330.4609"/></g><g><title>.VesselTypeRepository</title><rect fill="#FFFFFF" height="87.9316" style="stroke:#181818;stroke-width:1;" width="10" x="1526.3848" y="610.2559"/></g><g><title>.DockRepository</title><rect fill="#FFFFFF" height="87.9316" style="stroke:#181818;stroke-width:1;" width="10" x="1682.0859" y="468.7031"/></g><g><title>.DockRepository</title><rect fill="#FFFFFF" height="87.9316" style="stroke:#181818;stroke-width:1;" width="10" x="1682.0859" y="977.9824"/></g><g><title>.DockRepository</title><rect fill="#FFFFFF" height="87.9316" style="stroke:#181818;stroke-width:1;" width="10" x="1682.0859" y="1095.2246"/></g><g><title>.PortManagementDB</title><rect fill="#FFFFFF" height="29.3105" style="stroke:#181818;stroke-width:1;" width="10" x="1961.4438" y="498.0137"/></g><g><title>.PortManagementDB</title><rect fill="#FFFFFF" height="29.3105" style="stroke:#181818;stroke-width:1;" width="10" x="1961.4438" y="639.5664"/></g><g><title>.PortManagementDB</title><rect fill="#FFFFFF" height="29.3105" style="stroke:#181818;stroke-width:1;" width="10" x="1961.4438" y="1007.293"/></g><g><title>.PortManagementDB</title><rect fill="#FFFFFF" height="29.3105" style="stroke:#181818;stroke-width:1;" width="10" x="1961.4438" y="1124.5352"/></g><path d="M30,135.9766 L198.646,135.9766 L198.646,143.2871 L188.646,153.2871 L30,153.2871 L30,135.9766" fill="#EEEEEE" style="stroke:#000000;stroke-width:1.5;"/><rect fill="none" height="97.2422" style="stroke:#000000;stroke-width:1.5;" width="551.4092" x="30" y="135.9766"/><text fill="#000000" font-family="sans-serif" font-size="13" font-weight="bold" lengthAdjust="spacing" textLength="123.646" x="45" y="149.5449">Fill &amp; Submit Form</text><g class="message" data-participant-1="ADMIN" data-participant-2="SPA"><polygon fill="#181818" points="390.6348,185.9082,400.6348,189.9082,390.6348,193.9082,394.6348,189.9082" style="stroke:#181818;stroke-width:1;"/><line style="stroke:#181818;stroke-width:1;" x1="115.6387" x2="396.6348" y1="189.9082" y2="189.9082"/><text fill="#000000" font-family="sans-serif" font-size="13" lengthAdjust="spacing" textLength="243.0073" x="122.6387" y="169.8555">fillForm(name, location, length, depth,</text><text fill="#000000" font-family="sans-serif" font-size="13" lengthAdjust="spacing" textLength="262.9961" x="122.6387" y="185.166">maxDraft, maxSTS, allowedVesselTypes[])</text></g><path d="M120,202.9082 L120,227.9082 L571,227.9082 L571,212.9082 L561,202.9082 L120,202.9082" fill="#FEFFDD" style="stroke:#181818;stroke-width:0.5;"/><path d="M561,202.9082 L561,212.9082 L571,212.9082 L561,202.9082" fill="#FEFFDD" style="stroke:#181818;stroke-width:0.5;"/><text fill="#000000" font-family="sans-serif" font-size="13" lengthAdjust="spacing" textLength="430.4092" x="126" y="220.4766">Administrator fills the dock creation form\nand clicks "Create Dock"</text><path d="M328.688,247.2188 L478.6274,247.2188 L478.6274,254.5293 L468.6274,264.5293 L328.688,264.5293 L328.688,247.2188" fill="#EEEEEE" style="stroke:#000000;stroke-width:1.5;"/><rect fill="none" height="91.2422" style="stroke:#000000;stroke-width:1.5;" width="929.4927" x="328.688" y="247.2188"/><text fill="#000000" font-family="sans-serif" font-size="13" font-weight="bold" lengthAdjust="spacing" textLength="104.9395" x="343.688" y="260.7871">Submit Request</text><g class="message" data-participant-1="SPA" data-participant-2="CTRL"><polygon fill="#181818" points="764.0117,297.1504,774.0117,301.1504,764.0117,305.1504,768.0117,301.1504" style="stroke:#181818;stroke-width:1;"/><line style="stroke:#181818;stroke-width:1;" x1="402.6348" x2="770.0117" y1="301.1504" y2="301.1504"/><text fill="#000000" font-family="sans-serif" font-size="13" lengthAdjust="spacing" textLength="101.353" x="409.6348" y="281.0977">POST /api/Dock</text><text fill="#000000" font-family="sans-serif" font-size="13" lengthAdjust="spacing" textLength="63.0195" x="409.6348" y="296.4082">{DockDto}</text></g><g class="message" data-participant-1="CTRL" data-participant-2="SVC"><polygon fill="#181818" points="1181.0801,326.4609,1191.0801,330.4609,1181.0801,334.4609,1185.0801,330.4609" style="stroke:#181818;stroke-width:1;"/><line style="stroke:#181818;stroke-width:1;" x1="786.0117" x2="1187.0801" y1="330.4609" y2="330.4609"/><text fill="#000000" font-family="sans-serif" font-size="13" lengthAdjust="spacing" textLength="125.4678" x="793.0117" y="325.7188">AddAsync(DockDto)</text></g><path d="M10,352.4609 L148.8755,352.4609 L148.8755,359.7715 L138.8755,369.7715 L10,369.7715 L10,352.4609" fill="#EEEEEE" style="stroke:#000000;stroke-width:1.5;"/><rect fill="none" height="479.9688" style="stroke:#000000;stroke-width:1.5;" width="2052.3467" x="10" y="352.4609"/><text fill="#000000" font-family="sans-serif" font-size="13" font-weight="bold" lengthAdjust="spacing" textLength="93.8755" x="25" y="366.0293">Validate Input</text><g class="message" data-participant-1="SVC" data-participant-2="SVC"><line style="stroke:#181818;stroke-width:1;" x1="1203.0801" x2="1245.0801" y1="391.082" y2="391.082"/><line style="stroke:#181818;stroke-width:1;" x1="1245.0801" x2="1245.0801" y1="391.082" y2="404.082"/><line style="stroke:#181818;stroke-width:1;" x1="1204.0801" x2="1245.0801" y1="404.082" y2="404.082"/><polygon fill="#181818" points="1214.0801,400.082,1204.0801,404.082,1214.0801,408.082,1210.0801,404.082" style="stroke:#181818;stroke-width:1;"/><text fill="#000000" font-family="sans-serif" font-size="13" lengthAdjust="spacing" textLength="112.125" x="1210.0801" y="386.3398">ValidateDock(dto)</text></g><path d="M1208,417.082 L1208,442.082 L1907,442.082 L1907,427.082 L1897,417.082 L1208,417.082" fill="#FEFFDD" style="stroke:#181818;stroke-width:0.5;"/><path d="M1897,417.082 L1897,427.082 L1907,427.082 L1897,417.082" fill="#FEFFDD" style="stroke:#181818;stroke-width:0.5;"/><text fill="#000000" font-family="sans-serif" font-size="13" lengthAdjust="spacing" textLength="678.063" x="1214" y="434.6504">Validates required fields:\nName, Location, Length, Depth, MaxDraft, MaxSTS.\nEnsures MaxDraft &#8804; Depth</text><g class="message" data-participant-1="SVC" data-participant-2="DREPO"><polygon fill="#181818" points="1670.0859,464.7031,1680.0859,468.7031,1670.0859,472.7031,1674.0859,468.7031" style="stroke:#181818;stroke-width:1;"/><line style="stroke:#181818;stroke-width:1;" x1="1203.0801" x2="1676.0859" y1="468.7031" y2="468.7031"/><text fill="#000000" font-family="sans-serif" font-size="13" lengthAdjust="spacing" textLength="178.8071" x="1210.0801" y="463.9609">GetByNameAsync(dto.Name)</text></g><g class="message" data-participant-1="DREPO" data-participant-2="DB"><polygon fill="#181818" points="1949.4438,494.0137,1959.4438,498.0137,1949.4438,502.0137,1953.4438,498.0137" style="stroke:#181818;stroke-width:1;"/><line style="stroke:#181818;stroke-width:1;" x1="1692.0859" x2="1955.4438" y1="498.0137" y2="498.0137"/><text fill="#000000" font-family="sans-serif" font-size="13" lengthAdjust="spacing" textLength="250.3579" x="1699.0859" y="493.2715">SELECT * FROM Docks WHERE Name = ?</text></g><g class="message" data-participant-1="DB" data-participant-2="DREPO"><polygon fill="#181818" points="1703.0859,523.3242,1693.0859,527.3242,1703.0859,531.3242,1699.0859,527.3242" style="stroke:#181818;stroke-width:1;"/><line style="stroke:#181818;stroke-width:1;stroke-dasharray:2,2;" x1="1697.0859" x2="1965.4438" y1="527.3242" y2="527.3242"/><text fill="#000000" font-family="sans-serif" font-size="13" lengthAdjust="spacing" textLength="120.9038" x="1709.0859" y="522.582">null (no duplicates)</text></g><g class="message" data-participant-1="DREPO" data-participant-2="SVC"><polygon fill="#181818" points="1214.0801,552.6348,1204.0801,556.6348,1214.0801,560.6348,1210.0801,556.6348" style="stroke:#181818;stroke-width:1;"/><line style="stroke:#181818;stroke-width:1;stroke-dasharray:2,2;" x1="1208.0801" x2="1686.0859" y1="556.6348" y2="556.6348"/><text fill="#000000" font-family="sans-serif" font-size="13" lengthAdjust="spacing" textLength="23.6514" x="1220.0801" y="551.8926">null</text></g><path d="M20,571.6348 L82.1387,571.6348 L82.1387,578.9453 L72.1387,588.9453 L20,588.9453 L20,571.6348" fill="#EEEEEE" style="stroke:#000000;stroke-width:1.5;"/><rect fill="none" height="253.7949" style="stroke:#000000;stroke-width:1.5;" width="2032.3467" x="20" y="571.6348"/><text fill="#000000" font-family="sans-serif" font-size="13" font-weight="bold" lengthAdjust="spacing" textLength="17.1387" x="35" y="585.2031">alt</text><text fill="#000000" font-family="sans-serif" font-size="11" font-weight="bold" lengthAdjust="spacing" textLength="185.437" x="97.1387" y="584.2695">[AllowedVesselTypes not empty]</text><g class="message" data-participant-1="SVC" data-participant-2="VREPO"><polygon fill="#181818" points="1514.3848,606.2559,1524.3848,610.2559,1514.3848,614.2559,1518.3848,610.2559" style="stroke:#181818;stroke-width:1;"/><line style="stroke:#181818;stroke-width:1;" x1="1203.0801" x2="1520.3848" y1="610.2559" y2="610.2559"/><text fill="#000000" font-family="sans-serif" font-size="13" lengthAdjust="spacing" textLength="187.1099" x="1210.0801" y="605.5137">GetByIdsAsync(vesselTypeIds)</text></g><g class="message" data-participant-1="VREPO" data-participant-2="DB"><polygon fill="#181818" points="1949.4438,635.5664,1959.4438,639.5664,1949.4438,643.5664,1953.4438,639.5664" style="stroke:#181818;stroke-width:1;"/><line style="stroke:#181818;stroke-width:1;" x1="1536.3848" x2="1955.4438" y1="639.5664" y2="639.5664"/><text fill="#000000" font-family="sans-serif" font-size="13" lengthAdjust="spacing" textLength="289.1294" x="1543.3848" y="634.8242">SELECT * FROM VesselTypes WHERE Id IN (ids)</text></g><g class="message" data-participant-1="DB" data-participant-2="VREPO"><polygon fill="#181818" points="1547.3848,664.877,1537.3848,668.877,1547.3848,672.877,1543.3848,668.877" style="stroke:#181818;stroke-width:1;"/><line style="stroke:#181818;stroke-width:1;stroke-dasharray:2,2;" x1="1541.3848" x2="1965.4438" y1="668.877" y2="668.877"/><text fill="#000000" font-family="sans-serif" font-size="13" lengthAdjust="spacing" textLength="113.2803" x="1553.3848" y="664.1348">List&lt;VesselType&gt;</text></g><g class="message" data-participant-1="VREPO" data-participant-2="SVC"><polygon fill="#181818" points="1214.0801,694.1875,1204.0801,698.1875,1214.0801,702.1875,1210.0801,698.1875" style="stroke:#181818;stroke-width:1;"/><line style="stroke:#181818;stroke-width:1;stroke-dasharray:2,2;" x1="1208.0801" x2="1530.3848" y1="698.1875" y2="698.1875"/><text fill="#000000" font-family="sans-serif" font-size="13" lengthAdjust="spacing" textLength="113.2803" x="1220.0801" y="693.4453">List&lt;VesselType&gt;</text></g><path d="M30,713.1875 L92.1387,713.1875 L92.1387,720.498 L82.1387,730.498 L30,730.498 L30,713.1875" fill="#EEEEEE" style="stroke:#000000;stroke-width:1.5;"/><rect fill="none" height="105.2422" style="stroke:#000000;stroke-width:1.5;" width="1228.1807" x="30" y="713.1875"/><text fill="#000000" font-family="sans-serif" font-size="13" font-weight="bold" lengthAdjust="spacing" textLength="17.1387" x="45" y="726.7559">alt</text><text fill="#000000" font-family="sans-serif" font-size="11" font-weight="bold" lengthAdjust="spacing" textLength="171.3647" x="107.1387" y="725.8223">[Some vessel types not found]</text><g class="message" data-participant-1="SVC" data-participant-2="CTRL"><polygon fill="#181818" points="797.0117,747.8086,787.0117,751.8086,797.0117,755.8086,793.0117,751.8086" style="stroke:#181818;stroke-width:1;"/><line style="stroke:#181818;stroke-width:1;stroke-dasharray:2,2;" x1="791.0117" x2="1192.0801" y1="751.8086" y2="751.8086"/><text fill="#000000" font-family="sans-serif" font-size="13" lengthAdjust="spacing" textLength="383.0684" x="803.0117" y="747.0664">throws DomainValidationException("Vessel types not found")</text></g><g class="message" data-participant-1="CTRL" data-participant-2="SPA"><polygon fill="#181818" points="413.6348,777.1191,403.6348,781.1191,413.6348,785.1191,409.6348,781.1191" style="stroke:#181818;stroke-width:1;"/><line style="stroke:#181818;stroke-width:1;stroke-dasharray:2,2;" x1="407.6348" x2="775.0117" y1="781.1191" y2="781.1191"/><text fill="#000000" font-family="sans-serif" font-size="13" lengthAdjust="spacing" textLength="155.9175" x="419.6348" y="776.377">400 Bad Request + error</text></g><g class="message" data-participant-1="SPA" data-participant-2="ADMIN"><polygon fill="#181818" points="126.6387,806.4297,116.6387,810.4297,126.6387,814.4297,122.6387,810.4297" style="stroke:#181818;stroke-width:1;"/><line style="stroke:#181818;stroke-width:1;stroke-dasharray:2,2;" x1="120.6387" x2="401.6348" y1="810.4297" y2="810.4297"/><text fill="#000000" font-family="sans-serif" font-size="13" lengthAdjust="spacing" textLength="203.4297" x="132.6387" y="805.6875">showError("Invalid vessel types")</text></g><path d="M710.4966,846.4297 L879.8281,846.4297 L879.8281,853.7402 L869.8281,863.7402 L710.4966,863.7402 L710.4966,846.4297" fill="#EEEEEE" style="stroke:#000000;stroke-width:1.5;"/><rect fill="none" height="416.3477" style="stroke:#000000;stroke-width:1.5;" width="1341.8501" x="710.4966" y="846.4297"/><text fill="#000000" font-family="sans-serif" font-size="13" font-weight="bold" lengthAdjust="spacing" textLength="124.3315" x="725.4966" y="859.998">Create Dock Entity</text><g class="message" data-participant-1="SVC" data-participant-2="SVC"><line style="stroke:#181818;stroke-width:1;" x1="1203.0801" x2="1245.0801" y1="900.3613" y2="900.3613"/><line style="stroke:#181818;stroke-width:1;" x1="1245.0801" x2="1245.0801" y1="900.3613" y2="913.3613"/><line style="stroke:#181818;stroke-width:1;" x1="1204.0801" x2="1245.0801" y1="913.3613" y2="913.3613"/><polygon fill="#181818" points="1214.0801,909.3613,1204.0801,913.3613,1214.0801,917.3613,1210.0801,913.3613" style="stroke:#181818;stroke-width:1;"/><text fill="#000000" font-family="sans-serif" font-size="13" lengthAdjust="spacing" textLength="211.1992" x="1210.0801" y="880.3086">new Dock(name, location, length,</text><text fill="#000000" font-family="sans-serif" font-size="13" lengthAdjust="spacing" textLength="299.3047" x="1210.0801" y="895.6191">depth, maxDraft, maxSTS, allowedVesselTypes)</text></g><path d="M1208,926.3613 L1208,951.3613 L1694,951.3613 L1694,936.3613 L1684,926.3613 L1208,926.3613" fill="#FEFFDD" style="stroke:#181818;stroke-width:0.5;"/><path d="M1684,926.3613 L1684,936.3613 L1694,936.3613 L1684,926.3613" fill="#FEFFDD" style="stroke:#181818;stroke-width:0.5;"/><text fill="#000000" font-family="sans-serif" font-size="13" lengthAdjust="spacing" textLength="465.5942" x="1214" y="943.9297">Creates domain entity with IsActive = true\nand initializes STSCranes = []</text><g class="message" data-participant-1="SVC" data-participant-2="DREPO"><polygon fill="#181818" points="1670.0859,973.9824,1680.0859,977.9824,1670.0859,981.9824,1674.0859,977.9824" style="stroke:#181818;stroke-width:1;"/><line style="stroke:#181818;stroke-width:1;" x1="1203.0801" x2="1676.0859" y1="977.9824" y2="977.9824"/><text fill="#000000" font-family="sans-serif" font-size="13" lengthAdjust="spacing" textLength="101.3276" x="1210.0801" y="973.2402">AddAsync(dock)</text></g><g class="message" data-participant-1="DREPO" data-participant-2="DB"><polygon fill="#181818" points="1949.4438,1003.293,1959.4438,1007.293,1949.4438,1011.293,1953.4438,1007.293" style="stroke:#181818;stroke-width:1;"/><line style="stroke:#181818;stroke-width:1;" x1="1692.0859" x2="1955.4438" y1="1007.293" y2="1007.293"/><text fill="#000000" font-family="sans-serif" font-size="13" lengthAdjust="spacing" textLength="143.1333" x="1699.0859" y="1002.5508">INSERT INTO Docks(...)</text></g><g class="message" data-participant-1="DB" data-participant-2="DREPO"><polygon fill="#181818" points="1703.0859,1032.6035,1693.0859,1036.6035,1703.0859,1040.6035,1699.0859,1036.6035" style="stroke:#181818;stroke-width:1;"/><line style="stroke:#181818;stroke-width:1;stroke-dasharray:2,2;" x1="1697.0859" x2="1965.4438" y1="1036.6035" y2="1036.6035"/><text fill="#000000" font-family="sans-serif" font-size="13" lengthAdjust="spacing" textLength="48.5088" x="1709.0859" y="1031.8613">success</text></g><g class="message" data-participant-1="DREPO" data-participant-2="SVC"><polygon fill="#181818" points="1214.0801,1061.9141,1204.0801,1065.9141,1214.0801,1069.9141,1210.0801,1065.9141" style="stroke:#181818;stroke-width:1;"/><line style="stroke:#181818;stroke-width:1;stroke-dasharray:2,2;" x1="1208.0801" x2="1686.0859" y1="1065.9141" y2="1065.9141"/><text fill="#000000" font-family="sans-serif" font-size="13" lengthAdjust="spacing" textLength="48.5088" x="1220.0801" y="1061.1719">success</text></g><g class="message" data-participant-1="SVC" data-participant-2="DREPO"><polygon fill="#181818" points="1670.0859,1091.2246,1680.0859,1095.2246,1670.0859,1099.2246,1674.0859,1095.2246" style="stroke:#181818;stroke-width:1;"/><line style="stroke:#181818;stroke-width:1;" x1="1203.0801" x2="1676.0859" y1="1095.2246" y2="1095.2246"/><text fill="#000000" font-family="sans-serif" font-size="13" lengthAdjust="spacing" textLength="128.0068" x="1210.0801" y="1090.4824">SaveChangesAsync()</text></g><g class="message" data-participant-1="DREPO" data-participant-2="DB"><polygon fill="#181818" points="1949.4438,1120.5352,1959.4438,1124.5352,1949.4438,1128.5352,1953.4438,1124.5352" style="stroke:#181818;stroke-width:1;"/><line style="stroke:#181818;stroke-width:1;" x1="1692.0859" x2="1955.4438" y1="1124.5352" y2="1124.5352"/><text fill="#000000" font-family="sans-serif" font-size="13" lengthAdjust="spacing" textLength="149.2144" x="1699.0859" y="1119.793">COMMIT TRANSACTION</text></g><g class="message" data-participant-1="DB" data-participant-2="DREPO"><polygon fill="#181818" points="1703.0859,1149.8457,1693.0859,1153.8457,1703.0859,1157.8457,1699.0859,1153.8457" style="stroke:#181818;stroke-width:1;"/><line style="stroke:#181818;stroke-width:1;stroke-dasharray:2,2;" x1="1697.0859" x2="1965.4438" y1="1153.8457" y2="1153.8457"/><text fill="#000000" font-family="sans-serif" font-size="13" lengthAdjust="spacing" textLength="48.5088" x="1709.0859" y="1149.1035">success</text></g><g class="message" data-participant-1="DREPO" data-participant-2="SVC"><polygon fill="#181818" points="1214.0801,1179.1563,1204.0801,1183.1563,1214.0801,1187.1563,1210.0801,1183.1563" style="stroke:#181818;stroke-width:1;"/><line style="stroke:#181818;stroke-width:1;stroke-dasharray:2,2;" x1="1208.0801" x2="1686.0859" y1="1183.1563" y2="1183.1563"/><text fill="#000000" font-family="sans-serif" font-size="13" lengthAdjust="spacing" textLength="48.5088" x="1220.0801" y="1178.4141">success</text></g><g class="message" data-participant-1="SVC" data-participant-2="SVC"><line style="stroke:#181818;stroke-width:1;" x1="1203.0801" x2="1245.0801" y1="1212.4668" y2="1212.4668"/><line style="stroke:#181818;stroke-width:1;" x1="1245.0801" x2="1245.0801" y1="1212.4668" y2="1225.4668"/><line style="stroke:#181818;stroke-width:1;" x1="1204.0801" x2="1245.0801" y1="1225.4668" y2="1225.4668"/><polygon fill="#181818" points="1214.0801,1221.4668,1204.0801,1225.4668,1214.0801,1229.4668,1210.0801,1225.4668" style="stroke:#181818;stroke-width:1;"/><text fill="#000000" font-family="sans-serif" font-size="13" lengthAdjust="spacing" textLength="126.8706" x="1210.0801" y="1207.7246">ConvertToDto(dock)</text></g><g class="message" data-participant-1="SVC" data-participant-2="CTRL"><polygon fill="#181818" points="792.0117,1250.7773,782.0117,1254.7773,792.0117,1258.7773,788.0117,1254.7773" style="stroke:#181818;stroke-width:1;"/><line style="stroke:#181818;stroke-width:1;stroke-dasharray:2,2;" x1="786.0117" x2="1197.0801" y1="1254.7773" y2="1254.7773"/><text fill="#000000" font-family="sans-serif" font-size="13" lengthAdjust="spacing" textLength="54.5645" x="798.0117" y="1250.0352">DockDto</text></g><path d="M30,1276.7773 L166.0952,1276.7773 L166.0952,1284.0879 L156.0952,1294.0879 L30,1294.0879 L30,1276.7773" fill="#EEEEEE" style="stroke:#000000;stroke-width:1.5;"/><rect fill="none" height="111.2422" style="stroke:#000000;stroke-width:1.5;" width="834.2896" x="30" y="1276.7773"/><text fill="#000000" font-family="sans-serif" font-size="13" font-weight="bold" lengthAdjust="spacing" textLength="91.0952" x="45" y="1290.3457">Return Result</text><g class="message" data-participant-1="CTRL" data-participant-2="SPA"><polygon fill="#181818" points="413.6348,1311.3984,403.6348,1315.3984,413.6348,1319.3984,409.6348,1315.3984" style="stroke:#181818;stroke-width:1;"/><line style="stroke:#181818;stroke-width:1;stroke-dasharray:2,2;" x1="407.6348" x2="780.0117" y1="1315.3984" y2="1315.3984"/><text fill="#000000" font-family="sans-serif" font-size="13" lengthAdjust="spacing" textLength="150.9219" x="419.6348" y="1310.6563">201 Created + DockDto</text></g><g class="message" data-participant-1="SPA" data-participant-2="ADMIN"><polygon fill="#181818" points="126.6387,1340.709,116.6387,1344.709,126.6387,1348.709,122.6387,1344.709" style="stroke:#181818;stroke-width:1;"/><line style="stroke:#181818;stroke-width:1;stroke-dasharray:2,2;" x1="120.6387" x2="401.6348" y1="1344.709" y2="1344.709"/><text fill="#000000" font-family="sans-serif" font-size="13" lengthAdjust="spacing" textLength="176.3823" x="132.6387" y="1339.9668">"Dock created successfully!"</text></g><path d="M407,1357.709 L407,1382.709 L854,1382.709 L854,1367.709 L844,1357.709 L407,1357.709" fill="#FEFFDD" style="stroke:#181818;stroke-width:0.5;"/><path d="M844,1357.709 L844,1367.709 L854,1367.709 L844,1357.709" fill="#FEFFDD" style="stroke:#181818;stroke-width:0.5;"/><text fill="#000000" font-family="sans-serif" font-size="13" lengthAdjust="spacing" textLength="426.2896" x="413" y="1375.2773">Displays confirmation message\nand redirects to dock details page</text><path d="M30,1402.0195 L92.1387,1402.0195 L92.1387,1409.3301 L82.1387,1419.3301 L30,1419.3301 L30,1402.0195" fill="#EEEEEE" style="stroke:#000000;stroke-width:1.5;"/><rect fill="none" height="105.2422" style="stroke:#000000;stroke-width:1.5;" width="1228.1807" x="30" y="1402.0195"/><text fill="#000000" font-family="sans-serif" font-size="13" font-weight="bold" lengthAdjust="spacing" textLength="17.1387" x="45" y="1415.5879">alt</text><text fill="#000000" font-family="sans-serif" font-size="11" font-weight="bold" lengthAdjust="spacing" textLength="101.041" x="107.1387" y="1414.6543">[Validation failed]</text><g class="message" data-participant-1="SVC" data-participant-2="CTRL"><polygon fill="#181818" points="792.0117,1436.6406,782.0117,1440.6406,792.0117,1444.6406,788.0117,1440.6406" style="stroke:#181818;stroke-width:1;"/><line style="stroke:#181818;stroke-width:1;stroke-dasharray:2,2;" x1="786.0117" x2="1197.0801" y1="1440.6406" y2="1440.6406"/><text fill="#000000" font-family="sans-serif" font-size="13" lengthAdjust="spacing" textLength="220.8604" x="798.0117" y="1435.8984">throws DomainValidationException</text></g><g class="message" data-participant-1="CTRL" data-participant-2="SPA"><polygon fill="#181818" points="413.6348,1465.9512,403.6348,1469.9512,413.6348,1473.9512,409.6348,1469.9512" style="stroke:#181818;stroke-width:1;"/><line style="stroke:#181818;stroke-width:1;stroke-dasharray:2,2;" x1="407.6348" x2="780.0117" y1="1469.9512" y2="1469.9512"/><text fill="#000000" font-family="sans-serif" font-size="13" lengthAdjust="spacing" textLength="236.6851" x="419.6348" y="1465.209">400 Bad Request + "Validation failed"</text></g><g class="message" data-participant-1="SPA" data-participant-2="ADMIN"><polygon fill="#181818" points="126.6387,1495.2617,116.6387,1499.2617,126.6387,1503.2617,122.6387,1499.2617" style="stroke:#181818;stroke-width:1;"/><line style="stroke:#181818;stroke-width:1;stroke-dasharray:2,2;" x1="120.6387" x2="401.6348" y1="1499.2617" y2="1499.2617"/><text fill="#000000" font-family="sans-serif" font-size="13" lengthAdjust="spacing" textLength="184.0947" x="132.6387" y="1494.5195">showError("Validation failed")</text></g><path d="M30,1521.2617 L92.1387,1521.2617 L92.1387,1528.5723 L82.1387,1538.5723 L30,1538.5723 L30,1521.2617" fill="#EEEEEE" style="stroke:#000000;stroke-width:1.5;"/><rect fill="none" height="105.2422" style="stroke:#000000;stroke-width:1.5;" width="1228.1807" x="30" y="1521.2617"/><text fill="#000000" font-family="sans-serif" font-size="13" font-weight="bold" lengthAdjust="spacing" textLength="17.1387" x="45" y="1534.8301">alt</text><text fill="#000000" font-family="sans-serif" font-size="11" font-weight="bold" lengthAdjust="spacing" textLength="126.9512" x="107.1387" y="1533.8965">[Duplicate dock name]</text><g class="message" data-participant-1="SVC" data-participant-2="CTRL"><polygon fill="#181818" points="792.0117,1555.8828,782.0117,1559.8828,792.0117,1563.8828,788.0117,1559.8828" style="stroke:#181818;stroke-width:1;"/><line style="stroke:#181818;stroke-width:1;stroke-dasharray:2,2;" x1="786.0117" x2="1197.0801" y1="1559.8828" y2="1559.8828"/><text fill="#000000" font-family="sans-serif" font-size="13" lengthAdjust="spacing" textLength="246.4033" x="798.0117" y="1555.1406">throws BusinessRuleViolationException</text></g><g class="message" data-participant-1="CTRL" data-participant-2="SPA"><polygon fill="#181818" points="413.6348,1585.1934,403.6348,1589.1934,413.6348,1593.1934,409.6348,1589.1934" style="stroke:#181818;stroke-width:1;"/><line style="stroke:#181818;stroke-width:1;stroke-dasharray:2,2;" x1="407.6348" x2="780.0117" y1="1589.1934" y2="1589.1934"/><text fill="#000000" font-family="sans-serif" font-size="13" lengthAdjust="spacing" textLength="354.377" x="419.6348" y="1584.4512">400 Bad Request + "Dock with this name already exists"</text></g><g class="message" data-participant-1="SPA" data-participant-2="ADMIN"><polygon fill="#181818" points="126.6387,1614.5039,116.6387,1618.5039,126.6387,1622.5039,122.6387,1618.5039" style="stroke:#181818;stroke-width:1;"/><line style="stroke:#181818;stroke-width:1;stroke-dasharray:2,2;" x1="120.6387" x2="401.6348" y1="1618.5039" y2="1618.5039"/><text fill="#000000" font-family="sans-serif" font-size="13" lengthAdjust="spacing" textLength="214.5762" x="132.6387" y="1613.7617">showError("Duplicate dock name")</text></g><path d="M30,1640.5039 L92.1387,1640.5039 L92.1387,1647.8145 L82.1387,1657.8145 L30,1657.8145 L30,1640.5039" fill="#EEEEEE" style="stroke:#000000;stroke-width:1.5;"/><rect fill="none" height="75.9316" style="stroke:#000000;stroke-width:1.5;" width="821.5269" x="30" y="1640.5039"/><text fill="#000000" font-family="sans-serif" font-size="13" font-weight="bold" lengthAdjust="spacing" textLength="17.1387" x="45" y="1654.0723">alt</text><text fill="#000000" font-family="sans-serif" font-size="11" font-weight="bold" lengthAdjust="spacing" textLength="123.7822" x="107.1387" y="1653.1387">[Internal Server Error]</text><g class="message" data-participant-1="CTRL" data-participant-2="SPA"><polygon fill="#181818" points="413.6348,1675.125,403.6348,1679.125,413.6348,1683.125,409.6348,1679.125" style="stroke:#181818;stroke-width:1;"/><line style="stroke:#181818;stroke-width:1;stroke-dasharray:2,2;" x1="407.6348" x2="780.0117" y1="1679.125" y2="1679.125"/><text fill="#000000" font-family="sans-serif" font-size="13" lengthAdjust="spacing" textLength="155.0859" x="419.6348" y="1674.3828">500 Internal Server Error</text></g><g class="message" data-participant-1="SPA" data-participant-2="ADMIN"><polygon fill="#181818" points="126.6387,1704.4355,116.6387,1708.4355,126.6387,1712.4355,122.6387,1708.4355" style="stroke:#181818;stroke-width:1;"/><line style="stroke:#181818;stroke-width:1;stroke-dasharray:2,2;" x1="120.6387" x2="401.6348" y1="1708.4355" y2="1708.4355"/><text fill="#000000" font-family="sans-serif" font-size="13" lengthAdjust="spacing" textLength="213.0591" x="132.6387" y="1703.6934">showError("Failed to create dock")</text></g><!--SRC=[nLVDak8s4Bxp51qEMKXcPYUfv3ALsPG1puwh-8lDieTb3uejG3L6yaeo34db0V8UUR8yILgICSR03BMN-8B0tQtkhxk_RZJJAOMkf4HJw8du2QvXB4LCbO8fevj6WyHQI6YEXTJWvNef9DDR6CtdBAQo2KI1rni4mqP6f6OnomZNq7G6ZRsRfLwbCzwAnbxRIkFXKFREY7K5rrAaQM6oEmdx9wGYAjTuhRCpxTOafkWqJIVRZ8Oq4ugXtrihEWtzyUY4kPfOxuIO2Nj0E5dG5UMwrt62dKRZ3TmVFl0XyaC8XXC_zBgJO3Ii2pGMKkGPFB0qXMyXodzVCGqFGguQW8y54QxV6NpW3kOePTwrE5dHAqX5J3GJ74-KB_Jo2XAQuSUChyXpJvAvlW8yHPFe2aYQYWrDzcYeJv_RzWukCCcIBPOQnBn86nIFbwmOPqfBOj9jhbUWbnGIKnEnIITU3tDqQSO9Jo1EMVoaTfcsfTEqnYY-D1Sry70Afj3_xOCVJU2XF_fu1g82cv1-oQdIrgf11S4nTO7eZ4Teu2t9s5jpxup_QJvwMlnbPR5YsTeuPQl8_cJr3BZJBgfxIUAfBOzRXLhxKCrKrXddfru_w7ask-D7B_BF130bAKkCgO1dUH40tbmwi7jlxcybEmSEqsEys2Ld9wz08YPCqWGpHDD4tStuq1P8looGVb4WFLiWC2ZhOs3husR6VQvoYRPsh-3Vl_znueS9jD_UG7T9iGGmyv3a6MRTn6MgiXgMRHqCx3tLdQtnoE6BeTsORpM0NQEPdvoUCT11xSZl-zq9V0SFuMXWIqh1nqS_zC4OWNlujMQduunquBhY0y-nmLfSxDrLxlw47ccwwyky6DKZKUjiWKMPsBNjBj2clQ25u52suF14jy2ufWl3aKNGATBcKKSQW86kChqjSrmWEQqY6IJA0RakLV6dTgbJEZaj4RNbyWAgLISSja62h0KjTj9m0LG5vfs3VIIBN_RMtfLonp1NV2gXlaHzkeT-1sKaLZNm3P9paME_GkMnQEu9Go-bs21nYnLXl4WYTel_76FPuw7Ld9wqsMmVM7KqKfBqJxUtq279ZgZWUw1I2ddeY24kr73yVWTgAJQ-aMer0xusdXo4Kxkm0iQUp7PDYdWqgkSpdDKD_TSPgxe1-5opeZ0FM8lJZHKuDvDct0qbk6GclKPvpY65yyUa36CqFi66wIK4oZEW64BGCgTk7k7mqWpX_0DryCgk91nFz_3fymbIgx5MEG_CiBkGgu8XZlk9cVSZnrIjcvkRzYNyfFBOh5SNKj8vwNrhr8A9o9fsbuGlQC4T5mRK7Gq6mGGceJUCt0BpFmRZn74fN5Ef9m9dT2KtjTukXdZTw0jJFFIZyGZpzs97X5JdakE7oei-gtN_ZxS_55MQOEUVyMBVjNKYQFRApGeD5CZCSG1jlscUwWrScqicPYfBoLP1BFYSoPNRpLQeZtkgQmTS4N1DY3KkSSBjS0dLXE5Ibw7CHOkQ7uQZ41wzOQyV3DyVeMJOUC-aC4VZD6by1VSsBcBMvj5TpSOh_7giqNQn6jTxvIvZqJbSQ8wSx-IA8P-eC4_fb8dqgoAm2RSCffTCsIkH6B40aYtGPvo7wjMGJdXT3Ih0tKDoaeBveqGb-EKugddtCtftNlW51nuiaAQeNELQFmeN_WC0]--></g></svg>