<svg xmlns="http://www.w3.org/2000/svg" xmlns:xlink="http://www.w3.org/1999/xlink" contentStyleType="text/css" data-diagram-type="SEQUENCE" height="1953px" preserveAspectRatio="none" style="width:2186px;height:1953px;background:#FFFFFF;" version="1.1" viewBox="0 0 2186 1953" width="2186px" zoomAndPan="magnify"><title>Update Dock - Process View</title><defs/><g><text fill="#000000" font-family="sans-serif" font-size="14" font-weight="bold" lengthAdjust="spacing" textLength="204.7158" x="992.5369" y="28.5352">Update Dock - Process View</text><g><title>.DockController</title><rect fill="#FFFFFF" height="290.1055" style="stroke:#181818;stroke-width:1;" width="10" x="805.4141" y="301.1504"/></g><g><title>.DockService</title><rect fill="#FFFFFF" height="1146.8008" style="stroke:#181818;stroke-width:1;" width="10" x="1217.4824" y="330.4609"/></g><g><title>.DockRepository</title><rect fill="#FFFFFF" height="87.9316" style="stroke:#181818;stroke-width:1;" width="10" x="1606.0562" y="391.082"/></g><g><title>.DockRepository</title><rect fill="#FFFFFF" height="87.9316" style="stroke:#181818;stroke-width:1;" width="10" x="1606.0562" y="718.498"/></g><g><title>.DockRepository</title><rect fill="#FFFFFF" height="87.9316" style="stroke:#181818;stroke-width:1;" width="10" x="1606.0562" y="1354.0195"/></g><g><title>.VesselTypeRepository</title><rect fill="#FFFFFF" height="87.9316" style="stroke:#181818;stroke-width:1;" width="10" x="1761.7573" y="986.293"/></g><g><title>.PortManagementDB</title><rect fill="#FFFFFF" height="29.3105" style="stroke:#181818;stroke-width:1;" width="10" x="2079.8867" y="420.3926"/></g><g><title>.PortManagementDB</title><rect fill="#FFFFFF" height="29.3105" style="stroke:#181818;stroke-width:1;" width="10" x="2079.8867" y="747.8086"/></g><g><title>.PortManagementDB</title><rect fill="#FFFFFF" height="29.3105" style="stroke:#181818;stroke-width:1;" width="10" x="2079.8867" y="1015.6035"/></g><g><title>.PortManagementDB</title><rect fill="#FFFFFF" height="29.3105" style="stroke:#181818;stroke-width:1;" width="10" x="2079.8867" y="1383.3301"/></g><rect fill="none" height="97.2422" style="stroke:#000000;stroke-width:1.5;" width="500.9326" x="30" y="135.9766"/><rect fill="none" height="91.2422" style="stroke:#000000;stroke-width:1.5;" width="887.9146" x="394.6685" y="247.2188"/><rect fill="none" height="253.7949" style="stroke:#000000;stroke-width:1.5;" width="2150.7896" x="20" y="352.4609"/><rect fill="none" height="105.2422" style="stroke:#000000;stroke-width:1.5;" width="1252.583" x="30" y="494.0137"/><rect fill="none" height="588.2109" style="stroke:#000000;stroke-width:1.5;" width="2170.7896" x="10" y="620.2559"/><rect fill="none" height="253.7949" style="stroke:#000000;stroke-width:1.5;" width="2150.7896" x="20" y="679.877"/><rect fill="none" height="105.2422" style="stroke:#000000;stroke-width:1.5;" width="1252.583" x="30" y="821.4297"/><rect fill="none" height="253.7949" style="stroke:#000000;stroke-width:1.5;" width="2150.7896" x="20" y="947.6719"/><rect fill="none" height="105.2422" style="stroke:#000000;stroke-width:1.5;" width="1252.583" x="30" y="1089.2246"/><rect fill="none" height="299.1055" style="stroke:#000000;stroke-width:1.5;" width="1430.8906" x="739.8989" y="1222.4668"/><rect fill="none" height="111.2422" style="stroke:#000000;stroke-width:1.5;" width="884.6372" x="30" y="1535.5723"/><rect fill="none" height="105.2422" style="stroke:#000000;stroke-width:1.5;" width="1252.583" x="30" y="1660.8145"/><rect fill="none" height="75.9316" style="stroke:#000000;stroke-width:1.5;" width="850.9292" x="30" y="1780.0566"/><g><title>Port Authority Officer</title><rect fill="#000000" fill-opacity="0.00000" height="1754.0117" width="8" x="111.6387" y="118.9766"/><line style="stroke:#181818;stroke-width:0.5;stroke-dasharray:5,5;" x1="115" x2="115" y1="118.9766" y2="1872.9883"/></g><g><title>EditDock.html</title><rect fill="#000000" fill-opacity="0.00000" height="1754.0117" width="8" x="455.4653" y="118.9766"/><line style="stroke:#181818;stroke-width:0.5;stroke-dasharray:5,5;" x1="458.6685" x2="458.6685" y1="118.9766" y2="1872.9883"/></g><g><title>.DockController</title><rect fill="#000000" fill-opacity="0.00000" height="1754.0117" width="8" x="806.4141" y="118.9766"/><line style="stroke:#181818;stroke-width:0.5;stroke-dasharray:5,5;" x1="809.8989" x2="809.8989" y1="118.9766" y2="1872.9883"/></g><g><title>.DockService</title><rect fill="#000000" fill-opacity="0.00000" height="1754.0117" width="8" x="1218.4824" y="118.9766"/><line style="stroke:#181818;stroke-width:0.5;stroke-dasharray:5,5;" x1="1222.3818" x2="1222.3818" y1="118.9766" y2="1872.9883"/></g><g><title>.DockRepository</title><rect fill="#000000" fill-opacity="0.00000" height="1754.0117" width="8" x="1607.0562" y="118.9766"/><line style="stroke:#181818;stroke-width:0.5;stroke-dasharray:5,5;" x1="1610.5586" x2="1610.5586" y1="118.9766" y2="1872.9883"/></g><g><title>.VesselTypeRepository</title><rect fill="#000000" fill-opacity="0.00000" height="1754.0117" width="8" x="1762.7573" y="118.9766"/><line style="stroke:#181818;stroke-width:0.5;stroke-dasharray:5,5;" x1="1766.5537" x2="1766.5537" y1="118.9766" y2="1872.9883"/></g><g><title>.PortManagementDB</title><rect fill="#000000" fill-opacity="0.00000" height="1754.0117" width="8" x="2080.8867" y="118.9766"/><line style="stroke:#181818;stroke-width:0.5;stroke-dasharray:5,5;" x1="2083.9839" x2="2083.9839" y1="118.9766" y2="1872.9883"/></g><g class="participant participant-head" data-participant="ADMIN"><text fill="#000000" font-family="sans-serif" font-size="14" lengthAdjust="spacing" textLength="145.2773" x="40" y="116.0234">Port Authority Officer</text><ellipse cx="115.6387" cy="50.9883" fill="#E2E2F0" rx="8" ry="8" style="stroke:#181818;stroke-width:0.5;"/><path d="M115.6387,58.9883 L115.6387,85.9883 M102.6387,66.9883 L128.6387,66.9883 M115.6387,85.9883 L102.6387,100.9883 M115.6387,85.9883 L128.6387,100.9883" fill="none" style="stroke:#181818;stroke-width:0.5;"/></g><g class="participant participant-tail" data-participant="ADMIN"><text fill="#000000" font-family="sans-serif" font-size="14" lengthAdjust="spacing" textLength="145.2773" x="40" y="1885.5234">Port Authority Officer</text><ellipse cx="115.6387" cy="1896.9766" fill="#E2E2F0" rx="8" ry="8" style="stroke:#181818;stroke-width:0.5;"/><path d="M115.6387,1904.9766 L115.6387,1931.9766 M102.6387,1912.9766 L128.6387,1912.9766 M115.6387,1931.9766 L102.6387,1946.9766 M115.6387,1931.9766 L128.6387,1946.9766" fill="none" style="stroke:#181818;stroke-width:0.5;"/></g><g class="participant participant-head" data-participant="SPA"><rect fill="#E2E2F0" height="46.9766" rx="2.5" ry="2.5" style="stroke:#181818;stroke-width:0.5;" width="109.5938" x="404.6685" y="71"/><text fill="#000000" font-family="sans-serif" font-size="14" lengthAdjust="spacing" textLength="95.5938" x="411.6685" y="91.5352">EditDock.html</text><text fill="#000000" font-family="sans-serif" font-size="14" lengthAdjust="spacing" textLength="34.043" x="442.4438" y="108.0234">(SPA)</text></g><g class="participant participant-tail" data-participant="SPA"><rect fill="#E2E2F0" height="46.9766" rx="2.5" ry="2.5" style="stroke:#181818;stroke-width:0.5;" width="109.5938" x="404.6685" y="1871.9883"/><text fill="#000000" font-family="sans-serif" font-size="14" lengthAdjust="spacing" textLength="95.5938" x="411.6685" y="1892.5234">EditDock.html</text><text fill="#000000" font-family="sans-serif" font-size="14" lengthAdjust="spacing" textLength="34.043" x="442.4438" y="1909.0117">(SPA)</text></g><g class="participant participant-head" data-participant="CTRL"><rect fill="#E2E2F0" height="30.4883" rx="2.5" ry="2.5" style="stroke:#181818;stroke-width:0.5;" width="121.0303" x="749.8989" y="87.4883"/><text fill="#000000" font-family="sans-serif" font-size="14" lengthAdjust="spacing" textLength="107.0303" x="756.8989" y="108.0234">:DockController</text></g><g class="participant participant-tail" data-participant="CTRL"><rect fill="#E2E2F0" height="30.4883" rx="2.5" ry="2.5" style="stroke:#181818;stroke-width:0.5;" width="121.0303" x="749.8989" y="1871.9883"/><text fill="#000000" font-family="sans-serif" font-size="14" lengthAdjust="spacing" textLength="107.0303" x="756.8989" y="1892.5234">:DockController</text></g><g class="participant participant-head" data-participant="SVC"><rect fill="#E2E2F0" height="30.4883" rx="2.5" ry="2.5" style="stroke:#181818;stroke-width:0.5;" width="100.2012" x="1172.3818" y="87.4883"/><text fill="#000000" font-family="sans-serif" font-size="14" lengthAdjust="spacing" textLength="86.2012" x="1179.3818" y="108.0234">:DockService</text></g><g class="participant participant-tail" data-participant="SVC"><rect fill="#E2E2F0" height="30.4883" rx="2.5" ry="2.5" style="stroke:#181818;stroke-width:0.5;" width="100.2012" x="1172.3818" y="1871.9883"/><text fill="#000000" font-family="sans-serif" font-size="14" lengthAdjust="spacing" textLength="86.2012" x="1179.3818" y="1892.5234">:DockService</text></g><g class="participant participant-head" data-participant="DREPO"><rect fill="#E2E2F0" height="30.4883" rx="2.5" ry="2.5" style="stroke:#181818;stroke-width:0.5;" width="124.9951" x="1548.5586" y="87.4883"/><text fill="#000000" font-family="sans-serif" font-size="14" lengthAdjust="spacing" textLength="110.9951" x="1555.5586" y="108.0234">:DockRepository</text></g><g class="participant participant-tail" data-participant="DREPO"><rect fill="#E2E2F0" height="30.4883" rx="2.5" ry="2.5" style="stroke:#181818;stroke-width:0.5;" width="124.9951" x="1548.5586" y="1871.9883"/><text fill="#000000" font-family="sans-serif" font-size="14" lengthAdjust="spacing" textLength="110.9951" x="1555.5586" y="1892.5234">:DockRepository</text></g><g class="participant participant-head" data-participant="VREPO"><rect fill="#E2E2F0" height="30.4883" rx="2.5" ry="2.5" style="stroke:#181818;stroke-width:0.5;" width="166.4072" x="1683.5537" y="87.4883"/><text fill="#000000" font-family="sans-serif" font-size="14" lengthAdjust="spacing" textLength="152.4072" x="1690.5537" y="108.0234">:VesselTypeRepository</text></g><g class="participant participant-tail" data-participant="VREPO"><rect fill="#E2E2F0" height="30.4883" rx="2.5" ry="2.5" style="stroke:#181818;stroke-width:0.5;" width="166.4072" x="1683.5537" y="1871.9883"/><text fill="#000000" font-family="sans-serif" font-size="14" lengthAdjust="spacing" textLength="152.4072" x="1690.5537" y="1892.5234">:VesselTypeRepository</text></g><g class="participant participant-head" data-participant="DB"><rect fill="#E2E2F0" height="30.4883" rx="2.5" ry="2.5" style="stroke:#181818;stroke-width:0.5;" width="151.8057" x="2008.9839" y="87.4883"/><text fill="#000000" font-family="sans-serif" font-size="14" lengthAdjust="spacing" textLength="137.8057" x="2015.9839" y="108.0234">:PortManagementDB</text></g><g class="participant participant-tail" data-participant="DB"><rect fill="#E2E2F0" height="30.4883" rx="2.5" ry="2.5" style="stroke:#181818;stroke-width:0.5;" width="151.8057" x="2008.9839" y="1871.9883"/><text fill="#000000" font-family="sans-serif" font-size="14" lengthAdjust="spacing" textLength="137.8057" x="2015.9839" y="1892.5234">:PortManagementDB</text></g><g><title>.DockController</title><rect fill="#FFFFFF" height="290.1055" style="stroke:#181818;stroke-width:1;" width="10" x="805.4141" y="301.1504"/></g><g><title>.DockService</title><rect fill="#FFFFFF" height="1146.8008" style="stroke:#181818;stroke-width:1;" width="10" x="1217.4824" y="330.4609"/></g><g><title>.DockRepository</title><rect fill="#FFFFFF" height="87.9316" style="stroke:#181818;stroke-width:1;" width="10" x="1606.0562" y="391.082"/></g><g><title>.DockRepository</title><rect fill="#FFFFFF" height="87.9316" style="stroke:#181818;stroke-width:1;" width="10" x="1606.0562" y="718.498"/></g><g><title>.DockRepository</title><rect fill="#FFFFFF" height="87.9316" style="stroke:#181818;stroke-width:1;" width="10" x="1606.0562" y="1354.0195"/></g><g><title>.VesselTypeRepository</title><rect fill="#FFFFFF" height="87.9316" style="stroke:#181818;stroke-width:1;" width="10" x="1761.7573" y="986.293"/></g><g><title>.PortManagementDB</title><rect fill="#FFFFFF" height="29.3105" style="stroke:#181818;stroke-width:1;" width="10" x="2079.8867" y="420.3926"/></g><g><title>.PortManagementDB</title><rect fill="#FFFFFF" height="29.3105" style="stroke:#181818;stroke-width:1;" width="10" x="2079.8867" y="747.8086"/></g><g><title>.PortManagementDB</title><rect fill="#FFFFFF" height="29.3105" style="stroke:#181818;stroke-width:1;" width="10" x="2079.8867" y="1015.6035"/></g><g><title>.PortManagementDB</title><rect fill="#FFFFFF" height="29.3105" style="stroke:#181818;stroke-width:1;" width="10" x="2079.8867" y="1383.3301"/></g><path d="M30,135.9766 L228.8481,135.9766 L228.8481,143.2871 L218.8481,153.2871 L30,153.2871 L30,135.9766" fill="#EEEEEE" style="stroke:#000000;stroke-width:1.5;"/><rect fill="none" height="97.2422" style="stroke:#000000;stroke-width:1.5;" width="500.9326" x="30" y="135.9766"/><text fill="#000000" font-family="sans-serif" font-size="13" font-weight="bold" lengthAdjust="spacing" textLength="153.8481" x="45" y="149.5449">Fill &amp; Submit Edit Form</text><g class="message" data-participant-1="ADMIN" data-participant-2="SPA"><polygon fill="#181818" points="447.4653,185.9082,457.4653,189.9082,447.4653,193.9082,451.4653,189.9082" style="stroke:#181818;stroke-width:1;"/><line style="stroke:#181818;stroke-width:1;" x1="115.6387" x2="453.4653" y1="189.9082" y2="189.9082"/><text fill="#000000" font-family="sans-serif" font-size="13" lengthAdjust="spacing" textLength="271.1655" x="122.6387" y="169.8555">editForm(id, name, location, length, depth,</text><text fill="#000000" font-family="sans-serif" font-size="13" lengthAdjust="spacing" textLength="319.8267" x="122.6387" y="185.166">maxDraft, maxSTS, allowedVesselTypes[], isActive)</text></g><path d="M120,202.9082 L120,227.9082 L520,227.9082 L520,212.9082 L510,202.9082 L120,202.9082" fill="#FEFFDD" style="stroke:#181818;stroke-width:0.5;"/><path d="M510,202.9082 L510,212.9082 L520,212.9082 L510,202.9082" fill="#FEFFDD" style="stroke:#181818;stroke-width:0.5;"/><text fill="#000000" font-family="sans-serif" font-size="13" lengthAdjust="spacing" textLength="379.9326" x="126" y="220.4766">Administrator edits dock details\nand clicks "Save Changes"</text><path d="M394.6685,247.2188 L544.6079,247.2188 L544.6079,254.5293 L534.6079,264.5293 L394.6685,264.5293 L394.6685,247.2188" fill="#EEEEEE" style="stroke:#000000;stroke-width:1.5;"/><rect fill="none" height="91.2422" style="stroke:#000000;stroke-width:1.5;" width="887.9146" x="394.6685" y="247.2188"/><text fill="#000000" font-family="sans-serif" font-size="13" font-weight="bold" lengthAdjust="spacing" textLength="104.9395" x="409.6685" y="260.7871">Submit Request</text><g class="message" data-participant-1="SPA" data-participant-2="CTRL"><polygon fill="#181818" points="793.4141,297.1504,803.4141,301.1504,793.4141,305.1504,797.4141,301.1504" style="stroke:#181818;stroke-width:1;"/><line style="stroke:#181818;stroke-width:1;" x1="459.4653" x2="799.4141" y1="301.1504" y2="301.1504"/><text fill="#000000" font-family="sans-serif" font-size="13" lengthAdjust="spacing" textLength="138.9819" x="466.4653" y="281.0977">PATCH /api/Dock/{id}</text><text fill="#000000" font-family="sans-serif" font-size="13" lengthAdjust="spacing" textLength="63.0195" x="466.4653" y="296.4082">{DockDto}</text></g><g class="message" data-participant-1="CTRL" data-participant-2="SVC"><polygon fill="#181818" points="1205.4824,326.4609,1215.4824,330.4609,1205.4824,334.4609,1209.4824,330.4609" style="stroke:#181818;stroke-width:1;"/><line style="stroke:#181818;stroke-width:1;" x1="815.4141" x2="1211.4824" y1="330.4609" y2="330.4609"/><text fill="#000000" font-family="sans-serif" font-size="13" lengthAdjust="spacing" textLength="164.9565" x="822.4141" y="325.7188">UpdateAsync(id, DockDto)</text></g><path d="M20,352.4609 L157.9805,352.4609 L157.9805,359.7715 L147.9805,369.7715 L20,369.7715 L20,352.4609" fill="#EEEEEE" style="stroke:#000000;stroke-width:1.5;"/><rect fill="none" height="253.7949" style="stroke:#000000;stroke-width:1.5;" width="2150.7896" x="20" y="352.4609"/><text fill="#000000" font-family="sans-serif" font-size="13" font-weight="bold" lengthAdjust="spacing" textLength="92.9805" x="35" y="366.0293">Retrieve Dock</text><g class="message" data-participant-1="SVC" data-participant-2="DREPO"><polygon fill="#181818" points="1594.0562,387.082,1604.0562,391.082,1594.0562,395.082,1598.0562,391.082" style="stroke:#181818;stroke-width:1;"/><line style="stroke:#181818;stroke-width:1;" x1="1227.4824" x2="1600.0562" y1="391.082" y2="391.082"/><text fill="#000000" font-family="sans-serif" font-size="13" lengthAdjust="spacing" textLength="105.2061" x="1234.4824" y="386.3398">GetByIdAsync(id)</text></g><g class="message" data-participant-1="DREPO" data-participant-2="DB"><polygon fill="#181818" points="2067.8867,416.3926,2077.8867,420.3926,2067.8867,424.3926,2071.8867,420.3926" style="stroke:#181818;stroke-width:1;"/><line style="stroke:#181818;stroke-width:1;" x1="1616.0562" x2="2073.8867" y1="420.3926" y2="420.3926"/><text fill="#000000" font-family="sans-serif" font-size="13" lengthAdjust="spacing" textLength="226.1226" x="1623.0562" y="415.6504">SELECT * FROM Docks WHERE Id = ?</text></g><g class="message" data-participant-1="DB" data-participant-2="DREPO"><polygon fill="#181818" points="1627.0562,445.7031,1617.0562,449.7031,1627.0562,453.7031,1623.0562,449.7031" style="stroke:#181818;stroke-width:1;"/><line style="stroke:#181818;stroke-width:1;stroke-dasharray:2,2;" x1="1621.0562" x2="2083.8867" y1="449.7031" y2="449.7031"/><text fill="#000000" font-family="sans-serif" font-size="13" lengthAdjust="spacing" textLength="77.1621" x="1633.0562" y="444.9609">Dock or null</text></g><g class="message" data-participant-1="DREPO" data-participant-2="SVC"><polygon fill="#181818" points="1238.4824,475.0137,1228.4824,479.0137,1238.4824,483.0137,1234.4824,479.0137" style="stroke:#181818;stroke-width:1;"/><line style="stroke:#181818;stroke-width:1;stroke-dasharray:2,2;" x1="1232.4824" x2="1610.0562" y1="479.0137" y2="479.0137"/><text fill="#000000" font-family="sans-serif" font-size="13" lengthAdjust="spacing" textLength="77.1621" x="1244.4824" y="474.2715">Dock or null</text></g><path d="M30,494.0137 L92.1387,494.0137 L92.1387,501.3242 L82.1387,511.3242 L30,511.3242 L30,494.0137" fill="#EEEEEE" style="stroke:#000000;stroke-width:1.5;"/><rect fill="none" height="105.2422" style="stroke:#000000;stroke-width:1.5;" width="1252.583" x="30" y="494.0137"/><text fill="#000000" font-family="sans-serif" font-size="13" font-weight="bold" lengthAdjust="spacing" textLength="17.1387" x="45" y="507.582">alt</text><text fill="#000000" font-family="sans-serif" font-size="11" font-weight="bold" lengthAdjust="spacing" textLength="95.9976" x="107.1387" y="506.6484">[Dock not found]</text><g class="message" data-participant-1="SVC" data-participant-2="CTRL"><polygon fill="#181818" points="826.4141,528.6348,816.4141,532.6348,826.4141,536.6348,822.4141,532.6348" style="stroke:#181818;stroke-width:1;"/><line style="stroke:#181818;stroke-width:1;stroke-dasharray:2,2;" x1="820.4141" x2="1216.4824" y1="532.6348" y2="532.6348"/><text fill="#000000" font-family="sans-serif" font-size="13" lengthAdjust="spacing" textLength="23.6514" x="832.4141" y="527.8926">null</text></g><g class="message" data-participant-1="CTRL" data-participant-2="SPA"><polygon fill="#181818" points="470.4653,557.9453,460.4653,561.9453,470.4653,565.9453,466.4653,561.9453" style="stroke:#181818;stroke-width:1;"/><line style="stroke:#181818;stroke-width:1;stroke-dasharray:2,2;" x1="464.4653" x2="804.4141" y1="561.9453" y2="561.9453"/><text fill="#000000" font-family="sans-serif" font-size="13" lengthAdjust="spacing" textLength="94.6118" x="476.4653" y="557.2031">404 Not Found</text></g><g class="message" data-participant-1="SPA" data-participant-2="ADMIN"><polygon fill="#181818" points="126.6387,587.2559,116.6387,591.2559,126.6387,595.2559,122.6387,591.2559" style="stroke:#181818;stroke-width:1;"/><line style="stroke:#181818;stroke-width:1;stroke-dasharray:2,2;" x1="120.6387" x2="458.4653" y1="591.2559" y2="591.2559"/><text fill="#000000" font-family="sans-serif" font-size="13" lengthAdjust="spacing" textLength="107.9165" x="132.6387" y="586.5137">"Dock not found"</text></g><path d="M10,620.2559 L282.3857,620.2559 L282.3857,627.5664 L272.3857,637.5664 L10,637.5664 L10,620.2559" fill="#EEEEEE" style="stroke:#000000;stroke-width:1.5;"/><rect fill="none" height="588.2109" style="stroke:#000000;stroke-width:1.5;" width="2170.7896" x="10" y="620.2559"/><text fill="#000000" font-family="sans-serif" font-size="13" font-weight="bold" lengthAdjust="spacing" textLength="227.3857" x="25" y="633.8242">Validate Input and Business Rules</text><path d="M1232,642.5664 L1232,667.5664 L1843,667.5664 L1843,652.5664 L1833,642.5664 L1232,642.5664" fill="#FEFFDD" style="stroke:#181818;stroke-width:0.5;"/><path d="M1833,642.5664 L1833,652.5664 L1843,652.5664 L1833,642.5664" fill="#FEFFDD" style="stroke:#181818;stroke-width:0.5;"/><text fill="#000000" font-family="sans-serif" font-size="13" lengthAdjust="spacing" textLength="590.9985" x="1238" y="660.1348">Checks for duplicate dock name,\nvalidates numeric values, and ensures\nMaxDraft &#8804; Depth</text><path d="M20,679.877 L82.1387,679.877 L82.1387,687.1875 L72.1387,697.1875 L20,697.1875 L20,679.877" fill="#EEEEEE" style="stroke:#000000;stroke-width:1.5;"/><rect fill="none" height="253.7949" style="stroke:#000000;stroke-width:1.5;" width="2150.7896" x="20" y="679.877"/><text fill="#000000" font-family="sans-serif" font-size="13" font-weight="bold" lengthAdjust="spacing" textLength="17.1387" x="35" y="693.4453">alt</text><text fill="#000000" font-family="sans-serif" font-size="11" font-weight="bold" lengthAdjust="spacing" textLength="122.5308" x="97.1387" y="692.5117">[Dock name changed]</text><g class="message" data-participant-1="SVC" data-participant-2="DREPO"><polygon fill="#181818" points="1594.0562,714.498,1604.0562,718.498,1594.0562,722.498,1598.0562,718.498" style="stroke:#181818;stroke-width:1;"/><line style="stroke:#181818;stroke-width:1;" x1="1227.4824" x2="1600.0562" y1="718.498" y2="718.498"/><text fill="#000000" font-family="sans-serif" font-size="13" lengthAdjust="spacing" textLength="178.8071" x="1234.4824" y="713.7559">GetByNameAsync(dto.Name)</text></g><g class="message" data-participant-1="DREPO" data-participant-2="DB"><polygon fill="#181818" points="2067.8867,743.8086,2077.8867,747.8086,2067.8867,751.8086,2071.8867,747.8086" style="stroke:#181818;stroke-width:1;"/><line style="stroke:#181818;stroke-width:1;" x1="1616.0562" x2="2073.8867" y1="747.8086" y2="747.8086"/><text fill="#000000" font-family="sans-serif" font-size="13" lengthAdjust="spacing" textLength="250.3579" x="1623.0562" y="743.0664">SELECT * FROM Docks WHERE Name = ?</text></g><g class="message" data-participant-1="DB" data-participant-2="DREPO"><polygon fill="#181818" points="1627.0562,773.1191,1617.0562,777.1191,1627.0562,781.1191,1623.0562,777.1191" style="stroke:#181818;stroke-width:1;"/><line style="stroke:#181818;stroke-width:1;stroke-dasharray:2,2;" x1="1621.0562" x2="2083.8867" y1="777.1191" y2="777.1191"/><text fill="#000000" font-family="sans-serif" font-size="13" lengthAdjust="spacing" textLength="77.1621" x="1633.0562" y="772.377">Dock or null</text></g><g class="message" data-participant-1="DREPO" data-participant-2="SVC"><polygon fill="#181818" points="1238.4824,802.4297,1228.4824,806.4297,1238.4824,810.4297,1234.4824,806.4297" style="stroke:#181818;stroke-width:1;"/><line style="stroke:#181818;stroke-width:1;stroke-dasharray:2,2;" x1="1232.4824" x2="1610.0562" y1="806.4297" y2="806.4297"/><text fill="#000000" font-family="sans-serif" font-size="13" lengthAdjust="spacing" textLength="77.1621" x="1244.4824" y="801.6875">Dock or null</text></g><path d="M30,821.4297 L92.1387,821.4297 L92.1387,828.7402 L82.1387,838.7402 L30,838.7402 L30,821.4297" fill="#EEEEEE" style="stroke:#000000;stroke-width:1.5;"/><rect fill="none" height="105.2422" style="stroke:#000000;stroke-width:1.5;" width="1252.583" x="30" y="821.4297"/><text fill="#000000" font-family="sans-serif" font-size="13" font-weight="bold" lengthAdjust="spacing" textLength="17.1387" x="45" y="834.998">alt</text><text fill="#000000" font-family="sans-serif" font-size="11" font-weight="bold" lengthAdjust="spacing" textLength="133.144" x="107.1387" y="834.0645">[Duplicate name found]</text><g class="message" data-participant-1="SVC" data-participant-2="CTRL"><polygon fill="#181818" points="821.4141,856.0508,811.4141,860.0508,821.4141,864.0508,817.4141,860.0508" style="stroke:#181818;stroke-width:1;"/><line style="stroke:#181818;stroke-width:1;stroke-dasharray:2,2;" x1="815.4141" x2="1216.4824" y1="860.0508" y2="860.0508"/><text fill="#000000" font-family="sans-serif" font-size="13" lengthAdjust="spacing" textLength="246.4033" x="827.4141" y="855.3086">throws BusinessRuleViolationException</text></g><g class="message" data-participant-1="CTRL" data-participant-2="SPA"><polygon fill="#181818" points="470.4653,885.3613,460.4653,889.3613,470.4653,893.3613,466.4653,889.3613" style="stroke:#181818;stroke-width:1;"/><line style="stroke:#181818;stroke-width:1;stroke-dasharray:2,2;" x1="464.4653" x2="809.4141" y1="889.3613" y2="889.3613"/><text fill="#000000" font-family="sans-serif" font-size="13" lengthAdjust="spacing" textLength="326.9487" x="476.4653" y="884.6191">400 Bad Request + "Dock with name already exists"</text></g><g class="message" data-participant-1="SPA" data-participant-2="ADMIN"><polygon fill="#181818" points="126.6387,914.6719,116.6387,918.6719,126.6387,922.6719,122.6387,918.6719" style="stroke:#181818;stroke-width:1;"/><line style="stroke:#181818;stroke-width:1;stroke-dasharray:2,2;" x1="120.6387" x2="458.4653" y1="918.6719" y2="918.6719"/><text fill="#000000" font-family="sans-serif" font-size="13" lengthAdjust="spacing" textLength="214.5762" x="132.6387" y="913.9297">showError("Duplicate dock name")</text></g><path d="M20,947.6719 L82.1387,947.6719 L82.1387,954.9824 L72.1387,964.9824 L20,964.9824 L20,947.6719" fill="#EEEEEE" style="stroke:#000000;stroke-width:1.5;"/><rect fill="none" height="253.7949" style="stroke:#000000;stroke-width:1.5;" width="2150.7896" x="20" y="947.6719"/><text fill="#000000" font-family="sans-serif" font-size="13" font-weight="bold" lengthAdjust="spacing" textLength="17.1387" x="35" y="961.2402">alt</text><text fill="#000000" font-family="sans-serif" font-size="11" font-weight="bold" lengthAdjust="spacing" textLength="175.5918" x="97.1387" y="960.3066">[AllowedVesselTypes changed]</text><g class="message" data-participant-1="SVC" data-participant-2="VREPO"><polygon fill="#181818" points="1749.7573,982.293,1759.7573,986.293,1749.7573,990.293,1753.7573,986.293" style="stroke:#181818;stroke-width:1;"/><line style="stroke:#181818;stroke-width:1;" x1="1227.4824" x2="1755.7573" y1="986.293" y2="986.293"/><text fill="#000000" font-family="sans-serif" font-size="13" lengthAdjust="spacing" textLength="187.1099" x="1234.4824" y="981.5508">GetByIdsAsync(vesselTypeIds)</text></g><g class="message" data-participant-1="VREPO" data-participant-2="DB"><polygon fill="#181818" points="2067.8867,1011.6035,2077.8867,1015.6035,2067.8867,1019.6035,2071.8867,1015.6035" style="stroke:#181818;stroke-width:1;"/><line style="stroke:#181818;stroke-width:1;" x1="1771.7573" x2="2073.8867" y1="1015.6035" y2="1015.6035"/><text fill="#000000" font-family="sans-serif" font-size="13" lengthAdjust="spacing" textLength="289.1294" x="1778.7573" y="1010.8613">SELECT * FROM VesselTypes WHERE Id IN (ids)</text></g><g class="message" data-participant-1="DB" data-participant-2="VREPO"><polygon fill="#181818" points="1782.7573,1040.9141,1772.7573,1044.9141,1782.7573,1048.9141,1778.7573,1044.9141" style="stroke:#181818;stroke-width:1;"/><line style="stroke:#181818;stroke-width:1;stroke-dasharray:2,2;" x1="1776.7573" x2="2083.8867" y1="1044.9141" y2="1044.9141"/><text fill="#000000" font-family="sans-serif" font-size="13" lengthAdjust="spacing" textLength="113.2803" x="1788.7573" y="1040.1719">List&lt;VesselType&gt;</text></g><g class="message" data-participant-1="VREPO" data-participant-2="SVC"><polygon fill="#181818" points="1238.4824,1070.2246,1228.4824,1074.2246,1238.4824,1078.2246,1234.4824,1074.2246" style="stroke:#181818;stroke-width:1;"/><line style="stroke:#181818;stroke-width:1;stroke-dasharray:2,2;" x1="1232.4824" x2="1765.7573" y1="1074.2246" y2="1074.2246"/><text fill="#000000" font-family="sans-serif" font-size="13" lengthAdjust="spacing" textLength="113.2803" x="1244.4824" y="1069.4824">List&lt;VesselType&gt;</text></g><path d="M30,1089.2246 L92.1387,1089.2246 L92.1387,1096.5352 L82.1387,1106.5352 L30,1106.5352 L30,1089.2246" fill="#EEEEEE" style="stroke:#000000;stroke-width:1.5;"/><rect fill="none" height="105.2422" style="stroke:#000000;stroke-width:1.5;" width="1252.583" x="30" y="1089.2246"/><text fill="#000000" font-family="sans-serif" font-size="13" font-weight="bold" lengthAdjust="spacing" textLength="17.1387" x="45" y="1102.793">alt</text><text fill="#000000" font-family="sans-serif" font-size="11" font-weight="bold" lengthAdjust="spacing" textLength="171.3647" x="107.1387" y="1101.8594">[Some vessel types not found]</text><g class="message" data-participant-1="SVC" data-participant-2="CTRL"><polygon fill="#181818" points="821.4141,1123.8457,811.4141,1127.8457,821.4141,1131.8457,817.4141,1127.8457" style="stroke:#181818;stroke-width:1;"/><line style="stroke:#181818;stroke-width:1;stroke-dasharray:2,2;" x1="815.4141" x2="1216.4824" y1="1127.8457" y2="1127.8457"/><text fill="#000000" font-family="sans-serif" font-size="13" lengthAdjust="spacing" textLength="383.0684" x="827.4141" y="1123.1035">throws DomainValidationException("Vessel types not found")</text></g><g class="message" data-participant-1="CTRL" data-participant-2="SPA"><polygon fill="#181818" points="470.4653,1153.1563,460.4653,1157.1563,470.4653,1161.1563,466.4653,1157.1563" style="stroke:#181818;stroke-width:1;"/><line style="stroke:#181818;stroke-width:1;stroke-dasharray:2,2;" x1="464.4653" x2="809.4141" y1="1157.1563" y2="1157.1563"/><text fill="#000000" font-family="sans-serif" font-size="13" lengthAdjust="spacing" textLength="155.9175" x="476.4653" y="1152.4141">400 Bad Request + error</text></g><g class="message" data-participant-1="SPA" data-participant-2="ADMIN"><polygon fill="#181818" points="126.6387,1182.4668,116.6387,1186.4668,126.6387,1190.4668,122.6387,1186.4668" style="stroke:#181818;stroke-width:1;"/><line style="stroke:#181818;stroke-width:1;stroke-dasharray:2,2;" x1="120.6387" x2="458.4653" y1="1186.4668" y2="1186.4668"/><text fill="#000000" font-family="sans-serif" font-size="13" lengthAdjust="spacing" textLength="203.4297" x="132.6387" y="1181.7246">showError("Invalid vessel types")</text></g><path d="M739.8989,1222.4668 L949.0747,1222.4668 L949.0747,1229.7773 L939.0747,1239.7773 L739.8989,1239.7773 L739.8989,1222.4668" fill="#EEEEEE" style="stroke:#000000;stroke-width:1.5;"/><rect fill="none" height="299.1055" style="stroke:#000000;stroke-width:1.5;" width="1430.8906" x="739.8989" y="1222.4668"/><text fill="#000000" font-family="sans-serif" font-size="13" font-weight="bold" lengthAdjust="spacing" textLength="164.1758" x="754.8989" y="1236.0352">Apply Changes and Save</text><g class="message" data-participant-1="SVC" data-participant-2="SVC"><line style="stroke:#181818;stroke-width:1;" x1="1227.4824" x2="1269.4824" y1="1276.3984" y2="1276.3984"/><line style="stroke:#181818;stroke-width:1;" x1="1269.4824" x2="1269.4824" y1="1276.3984" y2="1289.3984"/><line style="stroke:#181818;stroke-width:1;" x1="1228.4824" x2="1269.4824" y1="1289.3984" y2="1289.3984"/><polygon fill="#181818" points="1238.4824,1285.3984,1228.4824,1289.3984,1238.4824,1293.3984,1234.4824,1289.3984" style="stroke:#181818;stroke-width:1;"/><text fill="#000000" font-family="sans-serif" font-size="13" lengthAdjust="spacing" textLength="223.2153" x="1234.4824" y="1256.3457">Update dock fields (name, location,</text><text fill="#000000" font-family="sans-serif" font-size="13" lengthAdjust="spacing" textLength="354.5737" x="1234.4824" y="1271.6563">length, depth, maxDraft, maxSTS, vesselTypes, isActive)</text></g><path d="M1232,1302.3984 L1232,1327.3984 L1698,1327.3984 L1698,1312.3984 L1688,1302.3984 L1232,1302.3984" fill="#FEFFDD" style="stroke:#181818;stroke-width:0.5;"/><path d="M1688,1302.3984 L1688,1312.3984 L1698,1312.3984 L1688,1302.3984" fill="#FEFFDD" style="stroke:#181818;stroke-width:0.5;"/><text fill="#000000" font-family="sans-serif" font-size="13" lengthAdjust="spacing" textLength="445.7896" x="1238" y="1319.9668">Applies only modified fields\nand sets UpdatedAt = DateTime.UtcNow</text><g class="message" data-participant-1="SVC" data-participant-2="DREPO"><polygon fill="#181818" points="1594.0562,1350.0195,1604.0562,1354.0195,1594.0562,1358.0195,1598.0562,1354.0195" style="stroke:#181818;stroke-width:1;"/><line style="stroke:#181818;stroke-width:1;" x1="1227.4824" x2="1600.0562" y1="1354.0195" y2="1354.0195"/><text fill="#000000" font-family="sans-serif" font-size="13" lengthAdjust="spacing" textLength="128.0068" x="1234.4824" y="1349.2773">SaveChangesAsync()</text></g><g class="message" data-participant-1="DREPO" data-participant-2="DB"><polygon fill="#181818" points="2067.8867,1379.3301,2077.8867,1383.3301,2067.8867,1387.3301,2071.8867,1383.3301" style="stroke:#181818;stroke-width:1;"/><line style="stroke:#181818;stroke-width:1;" x1="1616.0562" x2="2073.8867" y1="1383.3301" y2="1383.3301"/><text fill="#000000" font-family="sans-serif" font-size="13" lengthAdjust="spacing" textLength="222.9043" x="1623.0562" y="1378.5879">UPDATE Docks SET ... WHERE Id = ?</text></g><g class="message" data-participant-1="DB" data-participant-2="DREPO"><polygon fill="#181818" points="1627.0562,1408.6406,1617.0562,1412.6406,1627.0562,1416.6406,1623.0562,1412.6406" style="stroke:#181818;stroke-width:1;"/><line style="stroke:#181818;stroke-width:1;stroke-dasharray:2,2;" x1="1621.0562" x2="2083.8867" y1="1412.6406" y2="1412.6406"/><text fill="#000000" font-family="sans-serif" font-size="13" lengthAdjust="spacing" textLength="48.5088" x="1633.0562" y="1407.8984">success</text></g><g class="message" data-participant-1="DREPO" data-participant-2="SVC"><polygon fill="#181818" points="1238.4824,1437.9512,1228.4824,1441.9512,1238.4824,1445.9512,1234.4824,1441.9512" style="stroke:#181818;stroke-width:1;"/><line style="stroke:#181818;stroke-width:1;stroke-dasharray:2,2;" x1="1232.4824" x2="1610.0562" y1="1441.9512" y2="1441.9512"/><text fill="#000000" font-family="sans-serif" font-size="13" lengthAdjust="spacing" textLength="48.5088" x="1244.4824" y="1437.209">success</text></g><g class="message" data-participant-1="SVC" data-participant-2="SVC"><line style="stroke:#181818;stroke-width:1;" x1="1227.4824" x2="1269.4824" y1="1476.2617" y2="1476.2617"/><line style="stroke:#181818;stroke-width:1;" x1="1269.4824" x2="1269.4824" y1="1476.2617" y2="1489.2617"/><line style="stroke:#181818;stroke-width:1;" x1="1222.4824" x2="1269.4824" y1="1489.2617" y2="1489.2617"/><polygon fill="#181818" points="1232.4824,1485.2617,1222.4824,1489.2617,1232.4824,1493.2617,1228.4824,1489.2617" style="stroke:#181818;stroke-width:1;"/><text fill="#000000" font-family="sans-serif" font-size="13" lengthAdjust="spacing" textLength="126.8706" x="1234.4824" y="1471.5195">ConvertToDto(dock)</text></g><g class="message" data-participant-1="SVC" data-participant-2="CTRL"><polygon fill="#181818" points="821.4141,1509.5723,811.4141,1513.5723,821.4141,1517.5723,817.4141,1513.5723" style="stroke:#181818;stroke-width:1;"/><line style="stroke:#181818;stroke-width:1;stroke-dasharray:2,2;" x1="815.4141" x2="1221.4824" y1="1513.5723" y2="1513.5723"/><text fill="#000000" font-family="sans-serif" font-size="13" lengthAdjust="spacing" textLength="119.0313" x="827.4141" y="1508.8301">DockDto (updated)</text></g><path d="M30,1535.5723 L166.0952,1535.5723 L166.0952,1542.8828 L156.0952,1552.8828 L30,1552.8828 L30,1535.5723" fill="#EEEEEE" style="stroke:#000000;stroke-width:1.5;"/><rect fill="none" height="111.2422" style="stroke:#000000;stroke-width:1.5;" width="884.6372" x="30" y="1535.5723"/><text fill="#000000" font-family="sans-serif" font-size="13" font-weight="bold" lengthAdjust="spacing" textLength="91.0952" x="45" y="1549.1406">Return Result</text><g class="message" data-participant-1="CTRL" data-participant-2="SPA"><polygon fill="#181818" points="470.4653,1570.1934,460.4653,1574.1934,470.4653,1578.1934,466.4653,1574.1934" style="stroke:#181818;stroke-width:1;"/><line style="stroke:#181818;stroke-width:1;stroke-dasharray:2,2;" x1="464.4653" x2="809.4141" y1="1574.1934" y2="1574.1934"/><text fill="#000000" font-family="sans-serif" font-size="13" lengthAdjust="spacing" textLength="120.4849" x="476.4653" y="1569.4512">200 OK + DockDto</text></g><g class="message" data-participant-1="SPA" data-participant-2="ADMIN"><polygon fill="#181818" points="126.6387,1599.5039,116.6387,1603.5039,126.6387,1607.5039,122.6387,1603.5039" style="stroke:#181818;stroke-width:1;"/><line style="stroke:#181818;stroke-width:1;stroke-dasharray:2,2;" x1="120.6387" x2="458.4653" y1="1603.5039" y2="1603.5039"/><text fill="#000000" font-family="sans-serif" font-size="13" lengthAdjust="spacing" textLength="181.5938" x="132.6387" y="1598.7617">"Dock updated successfully!"</text></g><path d="M464,1616.5039 L464,1641.5039 L904,1641.5039 L904,1626.5039 L894,1616.5039 L464,1616.5039" fill="#FEFFDD" style="stroke:#181818;stroke-width:0.5;"/><path d="M894,1616.5039 L894,1626.5039 L904,1626.5039 L894,1616.5039" fill="#FEFFDD" style="stroke:#181818;stroke-width:0.5;"/><text fill="#000000" font-family="sans-serif" font-size="13" lengthAdjust="spacing" textLength="419.6372" x="470" y="1634.0723">Displays success confirmation\nand redirects to dock details page</text><path d="M30,1660.8145 L92.1387,1660.8145 L92.1387,1668.125 L82.1387,1678.125 L30,1678.125 L30,1660.8145" fill="#EEEEEE" style="stroke:#000000;stroke-width:1.5;"/><rect fill="none" height="105.2422" style="stroke:#000000;stroke-width:1.5;" width="1252.583" x="30" y="1660.8145"/><text fill="#000000" font-family="sans-serif" font-size="13" font-weight="bold" lengthAdjust="spacing" textLength="17.1387" x="45" y="1674.3828">alt</text><text fill="#000000" font-family="sans-serif" font-size="11" font-weight="bold" lengthAdjust="spacing" textLength="101.041" x="107.1387" y="1673.4492">[Validation failed]</text><g class="message" data-participant-1="SVC" data-participant-2="CTRL"><polygon fill="#181818" points="821.4141,1695.4355,811.4141,1699.4355,821.4141,1703.4355,817.4141,1699.4355" style="stroke:#181818;stroke-width:1;"/><line style="stroke:#181818;stroke-width:1;stroke-dasharray:2,2;" x1="815.4141" x2="1221.4824" y1="1699.4355" y2="1699.4355"/><text fill="#000000" font-family="sans-serif" font-size="13" lengthAdjust="spacing" textLength="220.8604" x="827.4141" y="1694.6934">throws DomainValidationException</text></g><g class="message" data-participant-1="CTRL" data-participant-2="SPA"><polygon fill="#181818" points="470.4653,1724.7461,460.4653,1728.7461,470.4653,1732.7461,466.4653,1728.7461" style="stroke:#181818;stroke-width:1;"/><line style="stroke:#181818;stroke-width:1;stroke-dasharray:2,2;" x1="464.4653" x2="809.4141" y1="1728.7461" y2="1728.7461"/><text fill="#000000" font-family="sans-serif" font-size="13" lengthAdjust="spacing" textLength="236.6851" x="476.4653" y="1724.0039">400 Bad Request + "Validation failed"</text></g><g class="message" data-participant-1="SPA" data-participant-2="ADMIN"><polygon fill="#181818" points="126.6387,1754.0566,116.6387,1758.0566,126.6387,1762.0566,122.6387,1758.0566" style="stroke:#181818;stroke-width:1;"/><line style="stroke:#181818;stroke-width:1;stroke-dasharray:2,2;" x1="120.6387" x2="458.4653" y1="1758.0566" y2="1758.0566"/><text fill="#000000" font-family="sans-serif" font-size="13" lengthAdjust="spacing" textLength="189.3252" x="132.6387" y="1753.3145">showError("Invalid dock data")</text></g><path d="M30,1780.0566 L92.1387,1780.0566 L92.1387,1787.3672 L82.1387,1797.3672 L30,1797.3672 L30,1780.0566" fill="#EEEEEE" style="stroke:#000000;stroke-width:1.5;"/><rect fill="none" height="75.9316" style="stroke:#000000;stroke-width:1.5;" width="850.9292" x="30" y="1780.0566"/><text fill="#000000" font-family="sans-serif" font-size="13" font-weight="bold" lengthAdjust="spacing" textLength="17.1387" x="45" y="1793.625">alt</text><text fill="#000000" font-family="sans-serif" font-size="11" font-weight="bold" lengthAdjust="spacing" textLength="123.7822" x="107.1387" y="1792.6914">[Internal Server Error]</text><g class="message" data-participant-1="CTRL" data-participant-2="SPA"><polygon fill="#181818" points="470.4653,1814.6777,460.4653,1818.6777,470.4653,1822.6777,466.4653,1818.6777" style="stroke:#181818;stroke-width:1;"/><line style="stroke:#181818;stroke-width:1;stroke-dasharray:2,2;" x1="464.4653" x2="809.4141" y1="1818.6777" y2="1818.6777"/><text fill="#000000" font-family="sans-serif" font-size="13" lengthAdjust="spacing" textLength="155.0859" x="476.4653" y="1813.9355">500 Internal Server Error</text></g><g class="message" data-participant-1="SPA" data-participant-2="ADMIN"><polygon fill="#181818" points="126.6387,1843.9883,116.6387,1847.9883,126.6387,1851.9883,122.6387,1847.9883" style="stroke:#181818;stroke-width:1;"/><line style="stroke:#181818;stroke-width:1;stroke-dasharray:2,2;" x1="120.6387" x2="458.4653" y1="1847.9883" y2="1847.9883"/><text fill="#000000" font-family="sans-serif" font-size="13" lengthAdjust="spacing" textLength="218.2705" x="132.6387" y="1843.2461">showError("Failed to update dock")</text></g><!--SRC=[fLV1afj64BthApeSd5KYhrCfv-AAdK8IwwMYbHH0EAbi3XCOhQQCPiZCeBNAvG_8V-JByYNf6H0I2DPoXOj6qDtJy_hrez5CPnHMUKeqXQb8tiDpM4gHKAKWPlHnC2295XASfP0Qt49lX6Hw3ulrcYLKEa0KkDCxVpx8YTGiOJdX6XmlPTf4kzxeRNRFhyAbExIsk6XQlZ9c4y6r55bM1Pn4mQp3AgHoXvkMSU99XqL0Sw4OvhktHjF0MovQPZ6UZ6RHFgSjuxZ3s1pwZd3oGBUKw-cuZ3eU3Bw6ryqBLg4NW3-FlC2THFvYtZOOF4XHv733iWoUGLZykMKQ34nm8-Hs07XP7E7v6mCIl0AA3yspAvQEW9Cj7K4c4gAPuBYY_45lHf3I77_k-PPyc4gorYF0LHY58o1P9XvfUZol-lsF4J3b9fhjwD3ko0LMNRA7ZGQnhke8rUMcMyQPqfAO-fja5AI682dLX6NgdXEUGfAnvBq29oGx2fCDuGzKEJO6nQSc_W0NNO05tYyhBupWPhPurmDMXL90_ogeqZQgWGOHCWn1Y9PkDBc55oHdBqpvNtnawQTx_j6ifrfyiXx4dDUmsxBAthBU1kTuWa5AyhjgpnCBTUKzR7eRmlMU90fyB_R0-zKF8t_-5hnvv4U_zPmge5eokYlRhJmKve7fMBfYGc-f7k_zz91HAv6IrEPMQMySn-WLUZDl4i4tS1Cixcni1UzklS03FuNNy5ChohWCCORd9pjR0S1gyoBBxFEKddcKczReFUbYKoqtpdHfYfI0jIWGoGFHxEcFDQq37IjLjyJBxrx2N9YMQGGmd42RidzUWTFSoAaDJr8xai7m5BFhAsxiplofQplw6OnNeJ_tmX22rSmBU-eRaunPEVLvNcWmNJ8k5ED6KeCYewgZzGoxwZDlgAdT6a5DYnpxoyIodMT5u9xlgWqKOhMbaYM0Tx13HdOlobKXARRdNIK9yE_V_y3Kw4IpBrjrmTYGs0PkbQP5p3aQbjHCjRWs_uQrVGT9luIe9bXDrIwwNaBPRjfUHDr- -jPGrGMnU3M9t45clP7YKTNrD-MFcSYiY7iV4YmABXe1pXZ_7On9Uj10-BPYzoFJcp87aabAqZtG3oZMocbcq-eCjH6FdfH2NZdJSsevmuPpPxUSTipfkYQJU_RQwMDLt9GxLP9gLplYhGvcnGrcnKymwpI5MWWH1fJKhi3d53iaE4DWVpn6U_CPciKjcbtY7fzJBHHOt18DqFOGvzBPpxYfs1B6Aoaw9TkL4tV6R1N_ipIaXaQNaiqlDQjndF_3jXwjNYrHgJrOthgXroFERfvd-yEWOlNIJ2wdR-7JeQ3iZJMZMQhWgZM3tVFc40RdCzYHpEhfqUjK_qsA39CJ73FTYfJX_ccLH3bqAOgpM9bXwcfKp2ck8hQbrokTpCLZXywtbDmSkWAXRBiBXumAuLAqGo-2w-lhBvuoL96OxuiB1um-wsF7D0g7dn8xAdKaS8IxCkKRjZqFMBSQfnhxuAeeWHtsZtlXSZ4Fd-OP3dc5vFYZYegxhOxw7ZjgyJCsKhNleBS9kiURAii3F6jyX-s_ShgeXLzSjR0nbMTahmvUa0Y-Pd9h2LroI-AaBsc214CiJkTzoF4pwAB9tWk2HG2txdmwCyDm6o0ZRaTXWZK6hruENoXbWylUbsTxEOCBvQeyFj74gSXWKlUvffAJ3CpdA9NWrKBOIkK7JANV-8djRsoM1l_Yg49L2ly1]--></g></svg>