<svg xmlns="http://www.w3.org/2000/svg" xmlns:xlink="http://www.w3.org/1999/xlink" contentStyleType="text/css" data-diagram-type="SEQUENCE" height="1101px" preserveAspectRatio="none" style="width:1453px;height:1101px;background:#FFFFFF;" version="1.1" viewBox="0 0 1453 1101" width="1453px" zoomAndPan="magnify"><title>Create Physical Resource - Process View</title><defs/><g><text fill="#000000" font-family="sans-serif" font-size="14" font-weight="bold" lengthAdjust="spacing" textLength="293.2344" x="581.8799" y="28.5352">Create Physical Resource - Process View</text><g><title>.SPA</title><rect fill="#FFFFFF" height="767.7188" style="stroke:#181818;stroke-width:1;" width="10" x="288.4028" y="220.5293"/></g><g><title>.PhysicalResourceController</title><rect fill="#FFFFFF" height="693.7871" style="stroke:#181818;stroke-width:1;" width="10" x="548.7349" y="265.1504"/></g><g><title>.PhysicalResourceService</title><rect fill="#FFFFFF" height="635.166" style="stroke:#181818;stroke-width:1;" width="10" x="750.5615" y="294.4609"/></g><g><title>.PhysicalResourceRepository</title><rect fill="#FFFFFF" height="87.9316" style="stroke:#181818;stroke-width:1;" width="10" x="963.9102" y="323.7715"/></g><g><title>.PhysicalResourceRepository</title><rect fill="#FFFFFF" height="87.9316" style="stroke:#181818;stroke-width:1;" width="10" x="963.9102" y="652.832"/></g><g><title>.PhysicalResourceRepository</title><rect fill="#FFFFFF" height="87.9316" style="stroke:#181818;stroke-width:1;" width="10" x="963.9102" y="770.0742"/></g><g><title>.PortLogisticsDB</title><rect fill="#FFFFFF" height="29.3105" style="stroke:#181818;stroke-width:1;" width="10" x="1361.0742" y="353.082"/></g><g><title>.PortLogisticsDB</title><rect fill="#FFFFFF" height="29.3105" style="stroke:#181818;stroke-width:1;" width="10" x="1361.0742" y="682.1426"/></g><g><title>.PortLogisticsDB</title><rect fill="#FFFFFF" height="29.3105" style="stroke:#181818;stroke-width:1;" width="10" x="1361.0742" y="799.3848"/></g><rect fill="none" height="867.2715" style="stroke:#000000;stroke-width:1.5;" width="1437.9941" x="10" y="135.9766"/><rect fill="none" height="527.2344" style="stroke:#000000;stroke-width:1.5;" width="1417.9941" x="20" y="469.0137"/><g><title>Logistics Operator</title><rect fill="#000000" fill-opacity="0.00000" height="901.2715" width="8" x="91.2549" y="118.9766"/><line style="stroke:#181818;stroke-width:0.5;stroke-dasharray:5,5;" x1="95" x2="95" y1="118.9766" y2="1020.248"/></g><g><title>.SPA</title><rect fill="#000000" fill-opacity="0.00000" height="901.2715" width="8" x="289.4028" y="118.9766"/><line style="stroke:#181818;stroke-width:0.5;stroke-dasharray:5,5;" x1="292.7192" x2="292.7192" y1="118.9766" y2="1020.248"/></g><g><title>.PhysicalResourceController</title><rect fill="#000000" fill-opacity="0.00000" height="901.2715" width="8" x="549.7349" y="118.9766"/><line style="stroke:#181818;stroke-width:0.5;stroke-dasharray:5,5;" x1="553.6143" x2="553.6143" y1="118.9766" y2="1020.248"/></g><g><title>.PhysicalResourceService</title><rect fill="#000000" fill-opacity="0.00000" height="901.2715" width="8" x="751.5615" y="118.9766"/><line style="stroke:#181818;stroke-width:0.5;stroke-dasharray:5,5;" x1="754.8555" x2="754.8555" y1="118.9766" y2="1020.248"/></g><g><title>.PhysicalResourceRepository</title><rect fill="#000000" fill-opacity="0.00000" height="901.2715" width="8" x="964.9102" y="118.9766"/><line style="stroke:#181818;stroke-width:0.5;stroke-dasharray:5,5;" x1="968.8071" x2="968.8071" y1="118.9766" y2="1020.248"/></g><g><title>.PortLogisticsDB</title><rect fill="#000000" fill-opacity="0.00000" height="901.2715" width="8" x="1362.0742" y="118.9766"/><line style="stroke:#181818;stroke-width:0.5;stroke-dasharray:5,5;" x1="1365.1543" x2="1365.1543" y1="118.9766" y2="1020.248"/></g><g class="participant participant-head" data-participant="LO"><text fill="#000000" font-family="sans-serif" font-size="14" lengthAdjust="spacing" textLength="124.5098" x="30" y="116.0234">Logistics Operator</text><ellipse cx="95.2549" cy="50.9883" fill="#E2E2F0" rx="8" ry="8" style="stroke:#181818;stroke-width:0.5;"/><path d="M95.2549,58.9883 L95.2549,85.9883 M82.2549,66.9883 L108.2549,66.9883 M95.2549,85.9883 L82.2549,100.9883 M95.2549,85.9883 L108.2549,100.9883" fill="none" style="stroke:#181818;stroke-width:0.5;"/></g><g class="participant participant-tail" data-participant="LO"><text fill="#000000" font-family="sans-serif" font-size="14" lengthAdjust="spacing" textLength="124.5098" x="30" y="1032.7832">Logistics Operator</text><ellipse cx="95.2549" cy="1044.2363" fill="#E2E2F0" rx="8" ry="8" style="stroke:#181818;stroke-width:0.5;"/><path d="M95.2549,1052.2363 L95.2549,1079.2363 M82.2549,1060.2363 L108.2549,1060.2363 M95.2549,1079.2363 L82.2549,1094.2363 M95.2549,1079.2363 L108.2549,1094.2363" fill="none" style="stroke:#181818;stroke-width:0.5;"/></g><g class="participant participant-head" data-participant="SPA"><rect fill="#E2E2F0" height="30.4883" rx="2.5" ry="2.5" style="stroke:#181818;stroke-width:0.5;" width="43.3672" x="271.7192" y="87.4883"/><text fill="#000000" font-family="sans-serif" font-size="14" lengthAdjust="spacing" textLength="29.3672" x="278.7192" y="108.0234">:SPA</text></g><g class="participant participant-tail" data-participant="SPA"><rect fill="#E2E2F0" height="30.4883" rx="2.5" ry="2.5" style="stroke:#181818;stroke-width:0.5;" width="43.3672" x="271.7192" y="1019.248"/><text fill="#000000" font-family="sans-serif" font-size="14" lengthAdjust="spacing" textLength="29.3672" x="278.7192" y="1039.7832">:SPA</text></g><g class="participant participant-head" data-participant="CTRL"><rect fill="#E2E2F0" height="30.4883" rx="2.5" ry="2.5" style="stroke:#181818;stroke-width:0.5;" width="202.2412" x="452.6143" y="87.4883"/><text fill="#000000" font-family="sans-serif" font-size="14" lengthAdjust="spacing" textLength="188.2412" x="459.6143" y="108.0234">:PhysicalResourceController</text></g><g class="participant participant-tail" data-participant="CTRL"><rect fill="#E2E2F0" height="30.4883" rx="2.5" ry="2.5" style="stroke:#181818;stroke-width:0.5;" width="202.2412" x="452.6143" y="1019.248"/><text fill="#000000" font-family="sans-serif" font-size="14" lengthAdjust="spacing" textLength="188.2412" x="459.6143" y="1039.7832">:PhysicalResourceController</text></g><g class="participant participant-head" data-participant="SVC"><rect fill="#E2E2F0" height="30.4883" rx="2.5" ry="2.5" style="stroke:#181818;stroke-width:0.5;" width="181.4121" x="664.8555" y="87.4883"/><text fill="#000000" font-family="sans-serif" font-size="14" lengthAdjust="spacing" textLength="167.4121" x="671.8555" y="108.0234">:PhysicalResourceService</text></g><g class="participant participant-tail" data-participant="SVC"><rect fill="#E2E2F0" height="30.4883" rx="2.5" ry="2.5" style="stroke:#181818;stroke-width:0.5;" width="181.4121" x="664.8555" y="1019.248"/><text fill="#000000" font-family="sans-serif" font-size="14" lengthAdjust="spacing" textLength="167.4121" x="671.8555" y="1039.7832">:PhysicalResourceService</text></g><g class="participant participant-head" data-participant="REPO"><rect fill="#E2E2F0" height="30.4883" rx="2.5" ry="2.5" style="stroke:#181818;stroke-width:0.5;" width="206.2061" x="865.8071" y="87.4883"/><text fill="#000000" font-family="sans-serif" font-size="14" lengthAdjust="spacing" textLength="192.2061" x="872.8071" y="108.0234">:PhysicalResourceRepository</text></g><g class="participant participant-tail" data-participant="REPO"><rect fill="#E2E2F0" height="30.4883" rx="2.5" ry="2.5" style="stroke:#181818;stroke-width:0.5;" width="206.2061" x="865.8071" y="1019.248"/><text fill="#000000" font-family="sans-serif" font-size="14" lengthAdjust="spacing" textLength="192.2061" x="872.8071" y="1039.7832">:PhysicalResourceRepository</text></g><g class="participant participant-head" data-participant="DB"><rect fill="#E2E2F0" height="30.4883" rx="2.5" ry="2.5" style="stroke:#181818;stroke-width:0.5;" width="123.8398" x="1304.1543" y="87.4883"/><text fill="#000000" font-family="sans-serif" font-size="14" lengthAdjust="spacing" textLength="109.8398" x="1311.1543" y="108.0234">:PortLogisticsDB</text></g><g class="participant participant-tail" data-participant="DB"><rect fill="#E2E2F0" height="30.4883" rx="2.5" ry="2.5" style="stroke:#181818;stroke-width:0.5;" width="123.8398" x="1304.1543" y="1019.248"/><text fill="#000000" font-family="sans-serif" font-size="14" lengthAdjust="spacing" textLength="109.8398" x="1311.1543" y="1039.7832">:PortLogisticsDB</text></g><g><title>.SPA</title><rect fill="#FFFFFF" height="767.7188" style="stroke:#181818;stroke-width:1;" width="10" x="288.4028" y="220.5293"/></g><g><title>.PhysicalResourceController</title><rect fill="#FFFFFF" height="693.7871" style="stroke:#181818;stroke-width:1;" width="10" x="548.7349" y="265.1504"/></g><g><title>.PhysicalResourceService</title><rect fill="#FFFFFF" height="635.166" style="stroke:#181818;stroke-width:1;" width="10" x="750.5615" y="294.4609"/></g><g><title>.PhysicalResourceRepository</title><rect fill="#FFFFFF" height="87.9316" style="stroke:#181818;stroke-width:1;" width="10" x="963.9102" y="323.7715"/></g><g><title>.PhysicalResourceRepository</title><rect fill="#FFFFFF" height="87.9316" style="stroke:#181818;stroke-width:1;" width="10" x="963.9102" y="652.832"/></g><g><title>.PhysicalResourceRepository</title><rect fill="#FFFFFF" height="87.9316" style="stroke:#181818;stroke-width:1;" width="10" x="963.9102" y="770.0742"/></g><g><title>.PortLogisticsDB</title><rect fill="#FFFFFF" height="29.3105" style="stroke:#181818;stroke-width:1;" width="10" x="1361.0742" y="353.082"/></g><g><title>.PortLogisticsDB</title><rect fill="#FFFFFF" height="29.3105" style="stroke:#181818;stroke-width:1;" width="10" x="1361.0742" y="682.1426"/></g><g><title>.PortLogisticsDB</title><rect fill="#FFFFFF" height="29.3105" style="stroke:#181818;stroke-width:1;" width="10" x="1361.0742" y="799.3848"/></g><path d="M10,135.9766 L222.5654,135.9766 L222.5654,143.2871 L212.5654,153.2871 L10,153.2871 L10,135.9766" fill="#EEEEEE" style="stroke:#000000;stroke-width:1.5;"/><rect fill="none" height="867.2715" style="stroke:#000000;stroke-width:1.5;" width="1437.9941" x="10" y="135.9766"/><text fill="#000000" font-family="sans-serif" font-size="13" font-weight="bold" lengthAdjust="spacing" textLength="167.5654" x="25" y="149.5449">Create Physical Resource</text><g class="message" data-participant-1="LO" data-participant-2="SPA"><polygon fill="#181818" points="276.4028,216.5293,286.4028,220.5293,276.4028,224.5293,280.4028,220.5293" style="stroke:#181818;stroke-width:1;"/><line style="stroke:#181818;stroke-width:1;" x1="95.2549" x2="282.4028" y1="220.5293" y2="220.5293"/><text fill="#000000" font-family="sans-serif" font-size="13" lengthAdjust="spacing" textLength="165.7437" x="102.2549" y="169.8555">fillForm(code, description,</text><text fill="#000000" font-family="sans-serif" font-size="13" lengthAdjust="spacing" textLength="91.2158" x="102.2549" y="185.166">kind, capacity,</text><text fill="#000000" font-family="sans-serif" font-size="13" lengthAdjust="spacing" textLength="174.1479" x="102.2549" y="200.4766">assignedArea?, setupTime?,</text><text fill="#000000" font-family="sans-serif" font-size="13" lengthAdjust="spacing" textLength="169.1904" x="102.2549" y="215.7871">qualificationRequirements)</text></g><g class="message" data-participant-1="SPA" data-participant-2="CTRL"><polygon fill="#181818" points="536.7349,261.1504,546.7349,265.1504,536.7349,269.1504,540.7349,265.1504" style="stroke:#181818;stroke-width:1;"/><line style="stroke:#181818;stroke-width:1;" x1="298.4028" x2="542.7349" y1="265.1504" y2="265.1504"/><text fill="#000000" font-family="sans-serif" font-size="13" lengthAdjust="spacing" textLength="181.4858" x="305.4028" y="245.0977">POST /api/physicalresources</text><text fill="#000000" font-family="sans-serif" font-size="13" lengthAdjust="spacing" textLength="179.2705" x="305.4028" y="260.4082">{CreatePhysicalResourceDto}</text></g><g class="message" data-participant-1="CTRL" data-participant-2="SVC"><polygon fill="#181818" points="738.5615,290.4609,748.5615,294.4609,738.5615,298.4609,742.5615,294.4609" style="stroke:#181818;stroke-width:1;"/><line style="stroke:#181818;stroke-width:1;" x1="558.7349" x2="744.5615" y1="294.4609" y2="294.4609"/><text fill="#000000" font-family="sans-serif" font-size="13" lengthAdjust="spacing" textLength="91.9331" x="565.7349" y="289.7188">AddAsync(dto)</text></g><g class="message" data-participant-1="SVC" data-participant-2="REPO"><polygon fill="#181818" points="951.9102,319.7715,961.9102,323.7715,951.9102,327.7715,955.9102,323.7715" style="stroke:#181818;stroke-width:1;"/><line style="stroke:#181818;stroke-width:1;" x1="760.5615" x2="957.9102" y1="323.7715" y2="323.7715"/><text fill="#000000" font-family="sans-serif" font-size="13" lengthAdjust="spacing" textLength="184.3486" x="767.5615" y="319.0293">ExistsByCodeAsync(dto.code)</text></g><g class="message" data-participant-1="REPO" data-participant-2="DB"><polygon fill="#181818" points="1349.0742,349.082,1359.0742,353.082,1349.0742,357.082,1353.0742,353.082" style="stroke:#181818;stroke-width:1;"/><line style="stroke:#181818;stroke-width:1;" x1="973.9102" x2="1355.0742" y1="353.082" y2="353.082"/><text fill="#000000" font-family="sans-serif" font-size="13" lengthAdjust="spacing" textLength="368.1641" x="980.9102" y="348.3398">SELECT COUNT(*) FROM PhysicalResources WHERE Code=?</text></g><g class="message" data-participant-1="DB" data-participant-2="REPO"><polygon fill="#181818" points="984.9102,378.3926,974.9102,382.3926,984.9102,386.3926,980.9102,382.3926" style="stroke:#181818;stroke-width:1;"/><line style="stroke:#181818;stroke-width:1;stroke-dasharray:2,2;" x1="978.9102" x2="1365.0742" y1="382.3926" y2="382.3926"/><text fill="#000000" font-family="sans-serif" font-size="13" lengthAdjust="spacing" textLength="8.2202" x="990.9102" y="377.6504">0</text></g><g class="message" data-participant-1="REPO" data-participant-2="SVC"><polygon fill="#181818" points="771.5615,407.7031,761.5615,411.7031,771.5615,415.7031,767.5615,411.7031" style="stroke:#181818;stroke-width:1;"/><line style="stroke:#181818;stroke-width:1;stroke-dasharray:2,2;" x1="765.5615" x2="967.9102" y1="411.7031" y2="411.7031"/><text fill="#000000" font-family="sans-serif" font-size="13" lengthAdjust="spacing" textLength="29.5864" x="777.5615" y="406.9609">false</text></g><g class="message" data-participant-1="SVC" data-participant-2="SVC"><line style="stroke:#181818;stroke-width:1;" x1="760.5615" x2="802.5615" y1="441.0137" y2="441.0137"/><line style="stroke:#181818;stroke-width:1;" x1="802.5615" x2="802.5615" y1="441.0137" y2="454.0137"/><line style="stroke:#181818;stroke-width:1;" x1="761.5615" x2="802.5615" y1="454.0137" y2="454.0137"/><polygon fill="#181818" points="771.5615,450.0137,761.5615,454.0137,771.5615,458.0137,767.5615,454.0137" style="stroke:#181818;stroke-width:1;"/><text fill="#000000" font-family="sans-serif" font-size="13" lengthAdjust="spacing" textLength="137.1665" x="767.5615" y="436.2715">Validate(capacity &gt; 0)</text></g><path d="M20,469.0137 L82.1387,469.0137 L82.1387,476.3242 L72.1387,486.3242 L20,486.3242 L20,469.0137" fill="#EEEEEE" style="stroke:#000000;stroke-width:1.5;"/><rect fill="none" height="527.2344" style="stroke:#000000;stroke-width:1.5;" width="1417.9941" x="20" y="469.0137"/><text fill="#000000" font-family="sans-serif" font-size="13" font-weight="bold" lengthAdjust="spacing" textLength="17.1387" x="35" y="482.582">alt</text><text fill="#000000" font-family="sans-serif" font-size="11" font-weight="bold" lengthAdjust="spacing" textLength="96.395" x="97.1387" y="481.6484">[invalid capacity]</text><g class="message" data-participant-1="SVC" data-participant-2="CTRL"><polygon fill="#181818" points="569.7349,503.6348,559.7349,507.6348,569.7349,511.6348,565.7349,507.6348" style="stroke:#181818;stroke-width:1;"/><line style="stroke:#181818;stroke-width:1;stroke-dasharray:2,2;" x1="563.7349" x2="749.5615" y1="507.6348" y2="507.6348"/><text fill="#000000" font-family="sans-serif" font-size="13" lengthAdjust="spacing" textLength="106.1709" x="575.7349" y="502.8926">400 Bad Request</text></g><g class="message" data-participant-1="CTRL" data-participant-2="SPA"><polygon fill="#181818" points="309.4028,532.9453,299.4028,536.9453,309.4028,540.9453,305.4028,536.9453" style="stroke:#181818;stroke-width:1;"/><line style="stroke:#181818;stroke-width:1;stroke-dasharray:2,2;" x1="303.4028" x2="547.7349" y1="536.9453" y2="536.9453"/><text fill="#000000" font-family="sans-serif" font-size="13" lengthAdjust="spacing" textLength="174.5288" x="315.4028" y="532.2031">show form validation errors</text></g><g class="message" data-participant-1="SPA" data-participant-2="LO"><polygon fill="#181818" points="106.2549,562.2559,96.2549,566.2559,106.2549,570.2559,102.2549,566.2559" style="stroke:#181818;stroke-width:1;"/><line style="stroke:#181818;stroke-width:1;stroke-dasharray:2,2;" x1="100.2549" x2="287.4028" y1="566.2559" y2="566.2559"/><text fill="#000000" font-family="sans-serif" font-size="13" lengthAdjust="spacing" textLength="81.0977" x="112.2549" y="561.5137">correct input</text></g><line style="stroke:#000000;stroke-width:1;stroke-dasharray:2,2;" x1="20" x2="1437.9941" y1="575.2559" y2="575.2559"/><text fill="#000000" font-family="sans-serif" font-size="11" font-weight="bold" lengthAdjust="spacing" textLength="35.5889" x="25" y="585.8906">[valid]</text><g class="message" data-participant-1="SVC" data-participant-2="SVC"><line style="stroke:#181818;stroke-width:1;" x1="760.5615" x2="802.5615" y1="610.5215" y2="610.5215"/><line style="stroke:#181818;stroke-width:1;" x1="802.5615" x2="802.5615" y1="610.5215" y2="623.5215"/><line style="stroke:#181818;stroke-width:1;" x1="761.5615" x2="802.5615" y1="623.5215" y2="623.5215"/><polygon fill="#181818" points="771.5615,619.5215,761.5615,623.5215,771.5615,627.5215,767.5615,623.5215" style="stroke:#181818;stroke-width:1;"/><text fill="#000000" font-family="sans-serif" font-size="13" lengthAdjust="spacing" textLength="166.3149" x="767.5615" y="605.7793">new PhysicalResource(dto)</text></g><g class="message" data-participant-1="SVC" data-participant-2="REPO"><polygon fill="#181818" points="951.9102,648.832,961.9102,652.832,951.9102,656.832,955.9102,652.832" style="stroke:#181818;stroke-width:1;"/><line style="stroke:#181818;stroke-width:1;" x1="760.5615" x2="957.9102" y1="652.832" y2="652.832"/><text fill="#000000" font-family="sans-serif" font-size="13" lengthAdjust="spacing" textLength="106.4883" x="767.5615" y="648.0898">AddAsync(entity)</text></g><g class="message" data-participant-1="REPO" data-participant-2="DB"><polygon fill="#181818" points="1349.0742,678.1426,1359.0742,682.1426,1349.0742,686.1426,1353.0742,682.1426" style="stroke:#181818;stroke-width:1;"/><line style="stroke:#181818;stroke-width:1;" x1="973.9102" x2="1355.0742" y1="682.1426" y2="682.1426"/><text fill="#000000" font-family="sans-serif" font-size="13" lengthAdjust="spacing" textLength="214.2017" x="980.9102" y="677.4004">INSERT INTO PhysicalResources ...</text></g><g class="message" data-participant-1="DB" data-participant-2="REPO"><polygon fill="#181818" points="984.9102,707.4531,974.9102,711.4531,984.9102,715.4531,980.9102,711.4531" style="stroke:#181818;stroke-width:1;"/><line style="stroke:#181818;stroke-width:1;stroke-dasharray:2,2;" x1="978.9102" x2="1365.0742" y1="711.4531" y2="711.4531"/><text fill="#000000" font-family="sans-serif" font-size="13" lengthAdjust="spacing" textLength="71.6841" x="990.9102" y="706.7109">inserted(Id)</text></g><g class="message" data-participant-1="REPO" data-participant-2="SVC"><polygon fill="#181818" points="771.5615,736.7637,761.5615,740.7637,771.5615,744.7637,767.5615,740.7637" style="stroke:#181818;stroke-width:1;"/><line style="stroke:#181818;stroke-width:1;stroke-dasharray:2,2;" x1="765.5615" x2="967.9102" y1="740.7637" y2="740.7637"/><text fill="#000000" font-family="sans-serif" font-size="13" lengthAdjust="spacing" textLength="35.585" x="777.5615" y="736.0215">entity</text></g><g class="message" data-participant-1="SVC" data-participant-2="REPO"><polygon fill="#181818" points="951.9102,766.0742,961.9102,770.0742,951.9102,774.0742,955.9102,770.0742" style="stroke:#181818;stroke-width:1;"/><line style="stroke:#181818;stroke-width:1;" x1="760.5615" x2="957.9102" y1="770.0742" y2="770.0742"/><text fill="#000000" font-family="sans-serif" font-size="13" lengthAdjust="spacing" textLength="128.0068" x="767.5615" y="765.332">SaveChangesAsync()</text></g><g class="message" data-participant-1="REPO" data-participant-2="DB"><polygon fill="#181818" points="1349.0742,795.3848,1359.0742,799.3848,1349.0742,803.3848,1353.0742,799.3848" style="stroke:#181818;stroke-width:1;"/><line style="stroke:#181818;stroke-width:1;" x1="973.9102" x2="1355.0742" y1="799.3848" y2="799.3848"/><text fill="#000000" font-family="sans-serif" font-size="13" lengthAdjust="spacing" textLength="90.8921" x="980.9102" y="794.6426">SaveChanges()</text></g><g class="message" data-participant-1="DB" data-participant-2="REPO"><polygon fill="#181818" points="984.9102,824.6953,974.9102,828.6953,984.9102,832.6953,980.9102,828.6953" style="stroke:#181818;stroke-width:1;"/><line style="stroke:#181818;stroke-width:1;stroke-dasharray:2,2;" x1="978.9102" x2="1365.0742" y1="828.6953" y2="828.6953"/><text fill="#000000" font-family="sans-serif" font-size="13" lengthAdjust="spacing" textLength="48.5088" x="990.9102" y="823.9531">success</text></g><g class="message" data-participant-1="REPO" data-participant-2="SVC"><polygon fill="#181818" points="771.5615,854.0059,761.5615,858.0059,771.5615,862.0059,767.5615,858.0059" style="stroke:#181818;stroke-width:1;"/><line style="stroke:#181818;stroke-width:1;stroke-dasharray:2,2;" x1="765.5615" x2="967.9102" y1="858.0059" y2="858.0059"/><text fill="#000000" font-family="sans-serif" font-size="13" lengthAdjust="spacing" textLength="48.5088" x="777.5615" y="853.2637">success</text></g><g class="message" data-participant-1="SVC" data-participant-2="SVC"><line style="stroke:#181818;stroke-width:1;" x1="760.5615" x2="802.5615" y1="887.3164" y2="887.3164"/><line style="stroke:#181818;stroke-width:1;" x1="802.5615" x2="802.5615" y1="887.3164" y2="900.3164"/><line style="stroke:#181818;stroke-width:1;" x1="761.5615" x2="802.5615" y1="900.3164" y2="900.3164"/><polygon fill="#181818" points="771.5615,896.3164,761.5615,900.3164,771.5615,904.3164,767.5615,900.3164" style="stroke:#181818;stroke-width:1;"/><text fill="#000000" font-family="sans-serif" font-size="13" lengthAdjust="spacing" textLength="82.8306" x="767.5615" y="882.5742">ToDto(entity)</text></g><g class="message" data-participant-1="SVC" data-participant-2="CTRL"><polygon fill="#181818" points="569.7349,925.627,559.7349,929.627,569.7349,933.627,565.7349,929.627" style="stroke:#181818;stroke-width:1;"/><line style="stroke:#181818;stroke-width:1;stroke-dasharray:2,2;" x1="563.7349" x2="754.5615" y1="929.627" y2="929.627"/><text fill="#000000" font-family="sans-serif" font-size="13" lengthAdjust="spacing" textLength="129.9746" x="575.7349" y="924.8848">PhysicalResourceDto</text></g><g class="message" data-participant-1="CTRL" data-participant-2="SPA"><polygon fill="#181818" points="309.4028,954.9375,299.4028,958.9375,309.4028,962.9375,305.4028,958.9375" style="stroke:#181818;stroke-width:1;"/><line style="stroke:#181818;stroke-width:1;stroke-dasharray:2,2;" x1="303.4028" x2="552.7349" y1="958.9375" y2="958.9375"/><text fill="#000000" font-family="sans-serif" font-size="13" lengthAdjust="spacing" textLength="226.332" x="315.4028" y="954.1953">201 Created + PhysicalResourceDto</text></g><g class="message" data-participant-1="SPA" data-participant-2="LO"><polygon fill="#181818" points="106.2549,984.248,96.2549,988.248,106.2549,992.248,102.2549,988.248" style="stroke:#181818;stroke-width:1;"/><line style="stroke:#181818;stroke-width:1;stroke-dasharray:2,2;" x1="100.2549" x2="292.4028" y1="988.248" y2="988.248"/><text fill="#000000" font-family="sans-serif" font-size="13" lengthAdjust="spacing" textLength="107.7832" x="112.2549" y="983.5059">success message</text></g><!--SRC=[ZLJ1Rjf04Btp5QDS0YqXjEefKXE1STH8D23Zq4ikMtk0LSskixk6eAh_tjbTcy2IA3c0vVNCc_VcFQtXfa2853A3C5tjDCzO0GbgMQaCuGAcIcQeDSmvRbijbXcfu6mibrmRdccObAWOdPq1qp2Uj4gcw9oNJ1WukvfD1-u3FOClpQXcKYI5KR8eq2D5QJ9-fsE6QiCpzFZpw9tg14kfEH7TkOOadePSfrAPlQxHq9MDXgtMKicgV7D3BI3LS75j9S8LB7XHt4grRcSonoxag3F5IyEbw3wAFrpaNSXOoJ9kTdJ0jEPBWVc0m6-weD5KPShNU4FVdYfMy0NDiiq9FbLSuHg5qHqQIJRmZULZ5qllTZXni5iZ4jF9B8LBLlBBigQhQhRwKVprIiBzZ8pyTmZi3A031sdbpID27kJvGEz4riwDFEP11j3xEJm8_bGXMFcm8GMvusyf4W3XsCKJKFnCUzR3NKHrUyIUxJg2TJQ1RwBcqP1QP_4uZbA89W_tQVjJ1swJoKy8vMZuzIDEOh3utsyE8SbIi40NBsJwT9BZSOKVkHU-O8N6upB7pMcEQaTXNMa3ln6k7MIjs0FC_IwmtTXlYpgsdnK6k72xscU3Zkl-5rU_zVimP3dOBA0shiIxiq-VNiajB2X-1wi7L4egxH5jJAXwR5LdKYdCxEooicX82dsVgprl8a-PitIttApWpL22mMVpmhfHBN1xOetFpc5jRSC-N7vYnvM4KGZ2S7S_YvEK7kdabGpqUhrZ46TjQ3yN6fN1l7sN-vbX5axIu0c6jKqWGbqpji5enSGIjTVt8MK7NM73gofqbTbx-cC2tYW-KU2hKqctmv4hGJHVkKn2wFg2E8dir_wNEcWvVFu8K7Cn1Mck5S6Q_jWIJyRJFKaH5tcBVly1]--></g></svg>