<svg xmlns="http://www.w3.org/2000/svg" xmlns:xlink="http://www.w3.org/1999/xlink" contentStyleType="text/css" data-diagram-type="SEQUENCE" height="647px" preserveAspectRatio="none" style="width:1335px;height:647px;background:#FFFFFF;" version="1.1" viewBox="0 0 1335 647" width="1335px" zoomAndPan="magnify"><title>Search Physical Resources - Process View</title><defs/><g><text fill="#000000" font-family="sans-serif" font-size="14" font-weight="bold" lengthAdjust="spacing" textLength="301.9434" x="518.1738" y="28.5352">Search Physical Resources - Process View</text><g><title>.SPA</title><rect fill="#FFFFFF" height="336.7266" style="stroke:#181818;stroke-width:1;" width="10" x="285.0996" y="205.2188"/></g><g><title>.PhysicalResourceController</title><rect fill="#FFFFFF" height="278.1055" style="stroke:#181818;stroke-width:1;" width="10" x="553.5078" y="234.5293"/></g><g><title>.PhysicalResourceService</title><rect fill="#FFFFFF" height="219.4844" style="stroke:#181818;stroke-width:1;" width="10" x="781.2656" y="263.8398"/></g><g><title>.PhysicalResourceRepository</title><rect fill="#FFFFFF" height="118.5527" style="stroke:#181818;stroke-width:1;" width="10" x="1009.0234" y="293.1504"/></g><g><title>.PortLogisticsDB</title><rect fill="#FFFFFF" height="29.3105" style="stroke:#181818;stroke-width:1;" width="10" x="1252.3711" y="353.082"/></g><rect fill="none" height="413.9688" style="stroke:#000000;stroke-width:1.5;" width="1319.291" x="10" y="135.9766"/><g><title>Logistics Operator</title><rect fill="#000000" fill-opacity="0.00000" height="447.9688" width="8" x="81.2549" y="118.9766"/><line style="stroke:#181818;stroke-width:0.5;stroke-dasharray:5,5;" x1="85" x2="85" y1="118.9766" y2="566.9453"/></g><g><title>.SPA</title><rect fill="#000000" fill-opacity="0.00000" height="447.9688" width="8" x="286.0996" y="118.9766"/><line style="stroke:#181818;stroke-width:0.5;stroke-dasharray:5,5;" x1="289.416" x2="289.416" y1="118.9766" y2="566.9453"/></g><g><title>.PhysicalResourceController</title><rect fill="#000000" fill-opacity="0.00000" height="447.9688" width="8" x="554.5078" y="118.9766"/><line style="stroke:#181818;stroke-width:0.5;stroke-dasharray:5,5;" x1="558.3872" x2="558.3872" y1="118.9766" y2="566.9453"/></g><g><title>.PhysicalResourceService</title><rect fill="#000000" fill-opacity="0.00000" height="447.9688" width="8" x="782.2656" y="118.9766"/><line style="stroke:#181818;stroke-width:0.5;stroke-dasharray:5,5;" x1="785.5596" x2="785.5596" y1="118.9766" y2="566.9453"/></g><g><title>.PhysicalResourceRepository</title><rect fill="#000000" fill-opacity="0.00000" height="447.9688" width="8" x="1010.0234" y="118.9766"/><line style="stroke:#181818;stroke-width:0.5;stroke-dasharray:5,5;" x1="1013.9204" x2="1013.9204" y1="118.9766" y2="566.9453"/></g><g><title>.PortLogisticsDB</title><rect fill="#000000" fill-opacity="0.00000" height="447.9688" width="8" x="1253.3711" y="118.9766"/><line style="stroke:#181818;stroke-width:0.5;stroke-dasharray:5,5;" x1="1256.4512" x2="1256.4512" y1="118.9766" y2="566.9453"/></g><g class="participant participant-head" data-participant="LO"><text fill="#000000" font-family="sans-serif" font-size="14" lengthAdjust="spacing" textLength="124.5098" x="20" y="116.0234">Logistics Operator</text><ellipse cx="85.2549" cy="50.9883" fill="#E2E2F0" rx="8" ry="8" style="stroke:#181818;stroke-width:0.5;"/><path d="M85.2549,58.9883 L85.2549,85.9883 M72.2549,66.9883 L98.2549,66.9883 M85.2549,85.9883 L72.2549,100.9883 M85.2549,85.9883 L98.2549,100.9883" fill="none" style="stroke:#181818;stroke-width:0.5;"/></g><g class="participant participant-tail" data-participant="LO"><text fill="#000000" font-family="sans-serif" font-size="14" lengthAdjust="spacing" textLength="124.5098" x="20" y="579.4805">Logistics Operator</text><ellipse cx="85.2549" cy="590.9336" fill="#E2E2F0" rx="8" ry="8" style="stroke:#181818;stroke-width:0.5;"/><path d="M85.2549,598.9336 L85.2549,625.9336 M72.2549,606.9336 L98.2549,606.9336 M85.2549,625.9336 L72.2549,640.9336 M85.2549,625.9336 L98.2549,640.9336" fill="none" style="stroke:#181818;stroke-width:0.5;"/></g><g class="participant participant-head" data-participant="SPA"><rect fill="#E2E2F0" height="30.4883" rx="2.5" ry="2.5" style="stroke:#181818;stroke-width:0.5;" width="43.3672" x="268.416" y="87.4883"/><text fill="#000000" font-family="sans-serif" font-size="14" lengthAdjust="spacing" textLength="29.3672" x="275.416" y="108.0234">:SPA</text></g><g class="participant participant-tail" data-participant="SPA"><rect fill="#E2E2F0" height="30.4883" rx="2.5" ry="2.5" style="stroke:#181818;stroke-width:0.5;" width="43.3672" x="268.416" y="565.9453"/><text fill="#000000" font-family="sans-serif" font-size="14" lengthAdjust="spacing" textLength="29.3672" x="275.416" y="586.4805">:SPA</text></g><g class="participant participant-head" data-participant="CTRL"><rect fill="#E2E2F0" height="30.4883" rx="2.5" ry="2.5" style="stroke:#181818;stroke-width:0.5;" width="202.2412" x="457.3872" y="87.4883"/><text fill="#000000" font-family="sans-serif" font-size="14" lengthAdjust="spacing" textLength="188.2412" x="464.3872" y="108.0234">:PhysicalResourceController</text></g><g class="participant participant-tail" data-participant="CTRL"><rect fill="#E2E2F0" height="30.4883" rx="2.5" ry="2.5" style="stroke:#181818;stroke-width:0.5;" width="202.2412" x="457.3872" y="565.9453"/><text fill="#000000" font-family="sans-serif" font-size="14" lengthAdjust="spacing" textLength="188.2412" x="464.3872" y="586.4805">:PhysicalResourceController</text></g><g class="participant participant-head" data-participant="SVC"><rect fill="#E2E2F0" height="30.4883" rx="2.5" ry="2.5" style="stroke:#181818;stroke-width:0.5;" width="181.4121" x="695.5596" y="87.4883"/><text fill="#000000" font-family="sans-serif" font-size="14" lengthAdjust="spacing" textLength="167.4121" x="702.5596" y="108.0234">:PhysicalResourceService</text></g><g class="participant participant-tail" data-participant="SVC"><rect fill="#E2E2F0" height="30.4883" rx="2.5" ry="2.5" style="stroke:#181818;stroke-width:0.5;" width="181.4121" x="695.5596" y="565.9453"/><text fill="#000000" font-family="sans-serif" font-size="14" lengthAdjust="spacing" textLength="167.4121" x="702.5596" y="586.4805">:PhysicalResourceService</text></g><g class="participant participant-head" data-participant="REPO"><rect fill="#E2E2F0" height="30.4883" rx="2.5" ry="2.5" style="stroke:#181818;stroke-width:0.5;" width="206.2061" x="910.9204" y="87.4883"/><text fill="#000000" font-family="sans-serif" font-size="14" lengthAdjust="spacing" textLength="192.2061" x="917.9204" y="108.0234">:PhysicalResourceRepository</text></g><g class="participant participant-tail" data-participant="REPO"><rect fill="#E2E2F0" height="30.4883" rx="2.5" ry="2.5" style="stroke:#181818;stroke-width:0.5;" width="206.2061" x="910.9204" y="565.9453"/><text fill="#000000" font-family="sans-serif" font-size="14" lengthAdjust="spacing" textLength="192.2061" x="917.9204" y="586.4805">:PhysicalResourceRepository</text></g><g class="participant participant-head" data-participant="DB"><rect fill="#E2E2F0" height="30.4883" rx="2.5" ry="2.5" style="stroke:#181818;stroke-width:0.5;" width="123.8398" x="1195.4512" y="87.4883"/><text fill="#000000" font-family="sans-serif" font-size="14" lengthAdjust="spacing" textLength="109.8398" x="1202.4512" y="108.0234">:PortLogisticsDB</text></g><g class="participant participant-tail" data-participant="DB"><rect fill="#E2E2F0" height="30.4883" rx="2.5" ry="2.5" style="stroke:#181818;stroke-width:0.5;" width="123.8398" x="1195.4512" y="565.9453"/><text fill="#000000" font-family="sans-serif" font-size="14" lengthAdjust="spacing" textLength="109.8398" x="1202.4512" y="586.4805">:PortLogisticsDB</text></g><g><title>.SPA</title><rect fill="#FFFFFF" height="336.7266" style="stroke:#181818;stroke-width:1;" width="10" x="285.0996" y="205.2188"/></g><g><title>.PhysicalResourceController</title><rect fill="#FFFFFF" height="278.1055" style="stroke:#181818;stroke-width:1;" width="10" x="553.5078" y="234.5293"/></g><g><title>.PhysicalResourceService</title><rect fill="#FFFFFF" height="219.4844" style="stroke:#181818;stroke-width:1;" width="10" x="781.2656" y="263.8398"/></g><g><title>.PhysicalResourceRepository</title><rect fill="#FFFFFF" height="118.5527" style="stroke:#181818;stroke-width:1;" width="10" x="1009.0234" y="293.1504"/></g><g><title>.PortLogisticsDB</title><rect fill="#FFFFFF" height="29.3105" style="stroke:#181818;stroke-width:1;" width="10" x="1252.3711" y="353.082"/></g><path d="M10,135.9766 L171.9111,135.9766 L171.9111,143.2871 L161.9111,153.2871 L10,153.2871 L10,135.9766" fill="#EEEEEE" style="stroke:#000000;stroke-width:1.5;"/><rect fill="none" height="413.9688" style="stroke:#000000;stroke-width:1.5;" width="1319.291" x="10" y="135.9766"/><text fill="#000000" font-family="sans-serif" font-size="13" font-weight="bold" lengthAdjust="spacing" textLength="116.9111" x="25" y="149.5449">Search Resources</text><g class="message" data-participant-1="LO" data-participant-2="SPA"><polygon fill="#181818" points="273.0996,201.2188,283.0996,205.2188,273.0996,209.2188,277.0996,205.2188" style="stroke:#181818;stroke-width:1;"/><line style="stroke:#181818;stroke-width:1;" x1="85.2549" x2="279.0996" y1="205.2188" y2="205.2188"/><text fill="#000000" font-family="sans-serif" font-size="13" lengthAdjust="spacing" textLength="157.9678" x="92.2549" y="169.8555">filter(code?, description?,</text><text fill="#000000" font-family="sans-serif" font-size="13" lengthAdjust="spacing" textLength="176.7314" x="96.3682" y="185.166">kind?, status?, qualification?</text><text fill="#000000" font-family="sans-serif" font-size="13" lengthAdjust="spacing" textLength="68.2437" x="92.2549" y="200.4766">page, size)</text></g><g class="message" data-participant-1="SPA" data-participant-2="CTRL"><polygon fill="#181818" points="541.5078,230.5293,551.5078,234.5293,541.5078,238.5293,545.5078,234.5293" style="stroke:#181818;stroke-width:1;"/><line style="stroke:#181818;stroke-width:1;" x1="295.0996" x2="547.5078" y1="234.5293" y2="234.5293"/><text fill="#000000" font-family="sans-serif" font-size="13" lengthAdjust="spacing" textLength="239.4082" x="302.0996" y="229.7871">GET /api/physicalresources?...query...</text></g><g class="message" data-participant-1="CTRL" data-participant-2="SVC"><polygon fill="#181818" points="769.2656,259.8398,779.2656,263.8398,769.2656,267.8398,773.2656,263.8398" style="stroke:#181818;stroke-width:1;"/><line style="stroke:#181818;stroke-width:1;" x1="563.5078" x2="775.2656" y1="263.8398" y2="263.8398"/><text fill="#000000" font-family="sans-serif" font-size="13" lengthAdjust="spacing" textLength="198.7578" x="570.5078" y="259.0977">SearchAsync(filters, pagination)</text></g><g class="message" data-participant-1="SVC" data-participant-2="REPO"><polygon fill="#181818" points="997.0234,289.1504,1007.0234,293.1504,997.0234,297.1504,1001.0234,293.1504" style="stroke:#181818;stroke-width:1;"/><line style="stroke:#181818;stroke-width:1;" x1="791.2656" x2="1003.0234" y1="293.1504" y2="293.1504"/><text fill="#000000" font-family="sans-serif" font-size="13" lengthAdjust="spacing" textLength="198.7578" x="798.2656" y="288.4082">SearchAsync(filters, pagination)</text></g><g class="message" data-participant-1="REPO" data-participant-2="DB"><polygon fill="#181818" points="1240.3711,349.082,1250.3711,353.082,1240.3711,357.082,1244.3711,353.082" style="stroke:#181818;stroke-width:1;"/><line style="stroke:#181818;stroke-width:1;" x1="1019.0234" x2="1246.3711" y1="353.082" y2="353.082"/><text fill="#000000" font-family="sans-serif" font-size="13" lengthAdjust="spacing" textLength="214.3477" x="1026.0234" y="317.7188">SELECT * FROM PhysicalResources</text><text fill="#000000" font-family="sans-serif" font-size="13" lengthAdjust="spacing" textLength="146.396" x="1026.0234" y="333.0293">WHERE matching filters</text><text fill="#000000" font-family="sans-serif" font-size="13" lengthAdjust="spacing" textLength="103.4541" x="1026.0234" y="348.3398">LIMIT ? OFFSET ?</text></g><g class="message" data-participant-1="DB" data-participant-2="REPO"><polygon fill="#181818" points="1030.0234,378.3926,1020.0234,382.3926,1030.0234,386.3926,1026.0234,382.3926" style="stroke:#181818;stroke-width:1;"/><line style="stroke:#181818;stroke-width:1;stroke-dasharray:2,2;" x1="1024.0234" x2="1256.3711" y1="382.3926" y2="382.3926"/><text fill="#000000" font-family="sans-serif" font-size="13" lengthAdjust="spacing" textLength="85.5093" x="1036.0234" y="377.6504">paged results</text></g><g class="message" data-participant-1="REPO" data-participant-2="SVC"><polygon fill="#181818" points="802.2656,407.7031,792.2656,411.7031,802.2656,415.7031,798.2656,411.7031" style="stroke:#181818;stroke-width:1;"/><line style="stroke:#181818;stroke-width:1;stroke-dasharray:2,2;" x1="796.2656" x2="1013.0234" y1="411.7031" y2="411.7031"/><text fill="#000000" font-family="sans-serif" font-size="13" lengthAdjust="spacing" textLength="19.0049" x="808.2656" y="406.9609">list</text></g><g class="message" data-participant-1="SVC" data-participant-2="SVC"><line style="stroke:#181818;stroke-width:1;" x1="791.2656" x2="833.2656" y1="441.0137" y2="441.0137"/><line style="stroke:#181818;stroke-width:1;" x1="833.2656" x2="833.2656" y1="441.0137" y2="454.0137"/><line style="stroke:#181818;stroke-width:1;" x1="792.2656" x2="833.2656" y1="454.0137" y2="454.0137"/><polygon fill="#181818" points="802.2656,450.0137,792.2656,454.0137,802.2656,458.0137,798.2656,454.0137" style="stroke:#181818;stroke-width:1;"/><text fill="#000000" font-family="sans-serif" font-size="13" lengthAdjust="spacing" textLength="92.8091" x="798.2656" y="436.2715">MapToDto(list)</text></g><g class="message" data-participant-1="SVC" data-participant-2="CTRL"><polygon fill="#181818" points="574.5078,479.3242,564.5078,483.3242,574.5078,487.3242,570.5078,483.3242" style="stroke:#181818;stroke-width:1;"/><line style="stroke:#181818;stroke-width:1;stroke-dasharray:2,2;" x1="568.5078" x2="785.2656" y1="483.3242" y2="483.3242"/><text fill="#000000" font-family="sans-serif" font-size="13" lengthAdjust="spacing" textLength="180.356" x="580.5078" y="478.582">Page&lt;PhysicalResourceDto&gt;</text></g><g class="message" data-participant-1="CTRL" data-participant-2="SPA"><polygon fill="#181818" points="306.0996,508.6348,296.0996,512.6348,306.0996,516.6348,302.0996,512.6348" style="stroke:#181818;stroke-width:1;"/><line style="stroke:#181818;stroke-width:1;stroke-dasharray:2,2;" x1="300.0996" x2="557.5078" y1="512.6348" y2="512.6348"/><text fill="#000000" font-family="sans-serif" font-size="13" lengthAdjust="spacing" textLength="143.2476" x="312.0996" y="507.8926">200 OK + results page</text></g><g class="message" data-participant-1="SPA" data-participant-2="LO"><polygon fill="#181818" points="96.2549,537.9453,86.2549,541.9453,96.2549,545.9453,92.2549,541.9453" style="stroke:#181818;stroke-width:1;"/><line style="stroke:#181818;stroke-width:1;stroke-dasharray:2,2;" x1="90.2549" x2="289.0996" y1="541.9453" y2="541.9453"/><text fill="#000000" font-family="sans-serif" font-size="13" lengthAdjust="spacing" textLength="126.4326" x="102.2549" y="537.2031">display results table</text></g><!--SRC=[bL91Rjim4Bph5GkVdDPsWXw38a8iosrG6H9amRdumbACJPGb6P9AeRw-IygI8rs2daGjTsPdPkcu4mpsZ1XwXkBSMaw9W99PrHZAB2oXC0eF5WwS_OaYGfqoCClKYLl7gOLSCqEmDWDY8SiZJGpMkIRImUn-Npo62_nERlfP_QX4IMUK4AnZIgeo-m2nP-QDKzRn7v8FkakcbUKej0s0CYscMWjbtE1himvjctKKdOngT1_Ha4m4w1QM3zuQtCCB5uwPELKrYnTGCqiDruuh6I-E4dvnMMFPEk8QYuVNXWZ-Wl92nr5gSc9upV-o6-J5ZFaRSIoaXlz-0WxoaU2aRsa5jqJpMtrnQ7f9yMgrUcsOQV7xdYPaYOL0u1KV4kJf33tQLj9vfzuk08Lm6LIDXM2yNWW24U-p-q-243TqI6JOh3q-pTAaWa-mBVCTJFTbZ_BvUrgcy9iuUkRoT8aOwzdJxgc26FBjTezXnEy7uSB0qo-lEdsuDM1AZN1-RJKRTtUYXbm4Fe1nLn1_jT-rxOYkrCQfkU-_wM-lQofmwjUfAUn_67DVakrMCxocBtTtaF-0pxtgu64Cx9SQ7WS2Cs-rvbOBqWumHtwA2Sw_AIRhVm00]--></g></svg>