<svg xmlns="http://www.w3.org/2000/svg" xmlns:xlink="http://www.w3.org/1999/xlink" contentStyleType="text/css" data-diagram-type="SEQUENCE" height="1058px" preserveAspectRatio="none" style="width:1389px;height:1058px;background:#FFFFFF;" version="1.1" viewBox="0 0 1389 1058" width="1389px" zoomAndPan="magnify"><title>Update / Deactivate Physical Resource - Process View</title><defs/><g><text fill="#000000" font-family="sans-serif" font-size="14" font-weight="bold" lengthAdjust="spacing" textLength="390.3252" x="501.1582" y="28.5352">Update / Deactivate Physical Resource - Process View</text><g><title>.SPA</title><rect fill="#FFFFFF" height="756.0293" style="stroke:#181818;stroke-width:1;" width="10" x="305.5415" y="189.9082"/></g><g><title>.PhysicalResourceController</title><rect fill="#FFFFFF" height="682.0977" style="stroke:#181818;stroke-width:1;" width="10" x="553.6563" y="234.5293"/></g><g><title>.PhysicalResourceService</title><rect fill="#FFFFFF" height="623.4766" style="stroke:#181818;stroke-width:1;" width="10" x="755.4829" y="263.8398"/></g><g><title>.PhysicalResourceRepository</title><rect fill="#FFFFFF" height="87.9316" style="stroke:#181818;stroke-width:1;" width="10" x="974.4155" y="293.1504"/></g><g><title>.PhysicalResourceRepository</title><rect fill="#FFFFFF" height="87.9316" style="stroke:#181818;stroke-width:1;" width="10" x="974.4155" y="610.5215"/></g><g><title>.PhysicalResourceRepository</title><rect fill="#FFFFFF" height="87.9316" style="stroke:#181818;stroke-width:1;" width="10" x="974.4155" y="727.7637"/></g><g><title>.PortLogisticsDB</title><rect fill="#FFFFFF" height="29.3105" style="stroke:#181818;stroke-width:1;" width="10" x="1296.7217" y="322.4609"/></g><g><title>.PortLogisticsDB</title><rect fill="#FFFFFF" height="29.3105" style="stroke:#181818;stroke-width:1;" width="10" x="1296.7217" y="639.832"/></g><g><title>.PortLogisticsDB</title><rect fill="#FFFFFF" height="29.3105" style="stroke:#181818;stroke-width:1;" width="10" x="1296.7217" y="757.0742"/></g><rect fill="none" height="824.9609" style="stroke:#000000;stroke-width:1.5;" width="1373.6416" x="10" y="135.9766"/><rect fill="none" height="557.8555" style="stroke:#000000;stroke-width:1.5;" width="1353.6416" x="20" y="396.082"/><g><title>Logistics Operator</title><rect fill="#000000" fill-opacity="0.00000" height="858.9609" width="8" x="91.2549" y="118.9766"/><line style="stroke:#181818;stroke-width:0.5;stroke-dasharray:5,5;" x1="95" x2="95" y1="118.9766" y2="977.9375"/></g><g><title>.SPA</title><rect fill="#000000" fill-opacity="0.00000" height="858.9609" width="8" x="306.5415" y="118.9766"/><line style="stroke:#181818;stroke-width:0.5;stroke-dasharray:5,5;" x1="309.8579" x2="309.8579" y1="118.9766" y2="977.9375"/></g><g><title>.PhysicalResourceController</title><rect fill="#000000" fill-opacity="0.00000" height="858.9609" width="8" x="554.6563" y="118.9766"/><line style="stroke:#181818;stroke-width:0.5;stroke-dasharray:5,5;" x1="558.5356" x2="558.5356" y1="118.9766" y2="977.9375"/></g><g><title>.PhysicalResourceService</title><rect fill="#000000" fill-opacity="0.00000" height="858.9609" width="8" x="756.4829" y="118.9766"/><line style="stroke:#181818;stroke-width:0.5;stroke-dasharray:5,5;" x1="759.7769" x2="759.7769" y1="118.9766" y2="977.9375"/></g><g><title>.PhysicalResourceRepository</title><rect fill="#000000" fill-opacity="0.00000" height="858.9609" width="8" x="975.4155" y="118.9766"/><line style="stroke:#181818;stroke-width:0.5;stroke-dasharray:5,5;" x1="979.3125" x2="979.3125" y1="118.9766" y2="977.9375"/></g><g><title>.PortLogisticsDB</title><rect fill="#000000" fill-opacity="0.00000" height="858.9609" width="8" x="1297.7217" y="118.9766"/><line style="stroke:#181818;stroke-width:0.5;stroke-dasharray:5,5;" x1="1300.8018" x2="1300.8018" y1="118.9766" y2="977.9375"/></g><g class="participant participant-head" data-participant="LO"><text fill="#000000" font-family="sans-serif" font-size="14" lengthAdjust="spacing" textLength="124.5098" x="30" y="116.0234">Logistics Operator</text><ellipse cx="95.2549" cy="50.9883" fill="#E2E2F0" rx="8" ry="8" style="stroke:#181818;stroke-width:0.5;"/><path d="M95.2549,58.9883 L95.2549,85.9883 M82.2549,66.9883 L108.2549,66.9883 M95.2549,85.9883 L82.2549,100.9883 M95.2549,85.9883 L108.2549,100.9883" fill="none" style="stroke:#181818;stroke-width:0.5;"/></g><g class="participant participant-tail" data-participant="LO"><text fill="#000000" font-family="sans-serif" font-size="14" lengthAdjust="spacing" textLength="124.5098" x="30" y="990.4727">Logistics Operator</text><ellipse cx="95.2549" cy="1001.9258" fill="#E2E2F0" rx="8" ry="8" style="stroke:#181818;stroke-width:0.5;"/><path d="M95.2549,1009.9258 L95.2549,1036.9258 M82.2549,1017.9258 L108.2549,1017.9258 M95.2549,1036.9258 L82.2549,1051.9258 M95.2549,1036.9258 L108.2549,1051.9258" fill="none" style="stroke:#181818;stroke-width:0.5;"/></g><g class="participant participant-head" data-participant="SPA"><rect fill="#E2E2F0" height="30.4883" rx="2.5" ry="2.5" style="stroke:#181818;stroke-width:0.5;" width="43.3672" x="288.8579" y="87.4883"/><text fill="#000000" font-family="sans-serif" font-size="14" lengthAdjust="spacing" textLength="29.3672" x="295.8579" y="108.0234">:SPA</text></g><g class="participant participant-tail" data-participant="SPA"><rect fill="#E2E2F0" height="30.4883" rx="2.5" ry="2.5" style="stroke:#181818;stroke-width:0.5;" width="43.3672" x="288.8579" y="976.9375"/><text fill="#000000" font-family="sans-serif" font-size="14" lengthAdjust="spacing" textLength="29.3672" x="295.8579" y="997.4727">:SPA</text></g><g class="participant participant-head" data-participant="CTRL"><rect fill="#E2E2F0" height="30.4883" rx="2.5" ry="2.5" style="stroke:#181818;stroke-width:0.5;" width="202.2412" x="457.5356" y="87.4883"/><text fill="#000000" font-family="sans-serif" font-size="14" lengthAdjust="spacing" textLength="188.2412" x="464.5356" y="108.0234">:PhysicalResourceController</text></g><g class="participant participant-tail" data-participant="CTRL"><rect fill="#E2E2F0" height="30.4883" rx="2.5" ry="2.5" style="stroke:#181818;stroke-width:0.5;" width="202.2412" x="457.5356" y="976.9375"/><text fill="#000000" font-family="sans-serif" font-size="14" lengthAdjust="spacing" textLength="188.2412" x="464.5356" y="997.4727">:PhysicalResourceController</text></g><g class="participant participant-head" data-participant="SVC"><rect fill="#E2E2F0" height="30.4883" rx="2.5" ry="2.5" style="stroke:#181818;stroke-width:0.5;" width="181.4121" x="669.7769" y="87.4883"/><text fill="#000000" font-family="sans-serif" font-size="14" lengthAdjust="spacing" textLength="167.4121" x="676.7769" y="108.0234">:PhysicalResourceService</text></g><g class="participant participant-tail" data-participant="SVC"><rect fill="#E2E2F0" height="30.4883" rx="2.5" ry="2.5" style="stroke:#181818;stroke-width:0.5;" width="181.4121" x="669.7769" y="976.9375"/><text fill="#000000" font-family="sans-serif" font-size="14" lengthAdjust="spacing" textLength="167.4121" x="676.7769" y="997.4727">:PhysicalResourceService</text></g><g class="participant participant-head" data-participant="REPO"><rect fill="#E2E2F0" height="30.4883" rx="2.5" ry="2.5" style="stroke:#181818;stroke-width:0.5;" width="206.2061" x="876.3125" y="87.4883"/><text fill="#000000" font-family="sans-serif" font-size="14" lengthAdjust="spacing" textLength="192.2061" x="883.3125" y="108.0234">:PhysicalResourceRepository</text></g><g class="participant participant-tail" data-participant="REPO"><rect fill="#E2E2F0" height="30.4883" rx="2.5" ry="2.5" style="stroke:#181818;stroke-width:0.5;" width="206.2061" x="876.3125" y="976.9375"/><text fill="#000000" font-family="sans-serif" font-size="14" lengthAdjust="spacing" textLength="192.2061" x="883.3125" y="997.4727">:PhysicalResourceRepository</text></g><g class="participant participant-head" data-participant="DB"><rect fill="#E2E2F0" height="30.4883" rx="2.5" ry="2.5" style="stroke:#181818;stroke-width:0.5;" width="123.8398" x="1239.8018" y="87.4883"/><text fill="#000000" font-family="sans-serif" font-size="14" lengthAdjust="spacing" textLength="109.8398" x="1246.8018" y="108.0234">:PortLogisticsDB</text></g><g class="participant participant-tail" data-participant="DB"><rect fill="#E2E2F0" height="30.4883" rx="2.5" ry="2.5" style="stroke:#181818;stroke-width:0.5;" width="123.8398" x="1239.8018" y="976.9375"/><text fill="#000000" font-family="sans-serif" font-size="14" lengthAdjust="spacing" textLength="109.8398" x="1246.8018" y="997.4727">:PortLogisticsDB</text></g><g><title>.SPA</title><rect fill="#FFFFFF" height="756.0293" style="stroke:#181818;stroke-width:1;" width="10" x="305.5415" y="189.9082"/></g><g><title>.PhysicalResourceController</title><rect fill="#FFFFFF" height="682.0977" style="stroke:#181818;stroke-width:1;" width="10" x="553.6563" y="234.5293"/></g><g><title>.PhysicalResourceService</title><rect fill="#FFFFFF" height="623.4766" style="stroke:#181818;stroke-width:1;" width="10" x="755.4829" y="263.8398"/></g><g><title>.PhysicalResourceRepository</title><rect fill="#FFFFFF" height="87.9316" style="stroke:#181818;stroke-width:1;" width="10" x="974.4155" y="293.1504"/></g><g><title>.PhysicalResourceRepository</title><rect fill="#FFFFFF" height="87.9316" style="stroke:#181818;stroke-width:1;" width="10" x="974.4155" y="610.5215"/></g><g><title>.PhysicalResourceRepository</title><rect fill="#FFFFFF" height="87.9316" style="stroke:#181818;stroke-width:1;" width="10" x="974.4155" y="727.7637"/></g><g><title>.PortLogisticsDB</title><rect fill="#FFFFFF" height="29.3105" style="stroke:#181818;stroke-width:1;" width="10" x="1296.7217" y="322.4609"/></g><g><title>.PortLogisticsDB</title><rect fill="#FFFFFF" height="29.3105" style="stroke:#181818;stroke-width:1;" width="10" x="1296.7217" y="639.832"/></g><g><title>.PortLogisticsDB</title><rect fill="#FFFFFF" height="29.3105" style="stroke:#181818;stroke-width:1;" width="10" x="1296.7217" y="757.0742"/></g><path d="M10,135.9766 L188.4722,135.9766 L188.4722,143.2871 L178.4722,153.2871 L10,153.2871 L10,135.9766" fill="#EEEEEE" style="stroke:#000000;stroke-width:1.5;"/><rect fill="none" height="824.9609" style="stroke:#000000;stroke-width:1.5;" width="1373.6416" x="10" y="135.9766"/><text fill="#000000" font-family="sans-serif" font-size="13" font-weight="bold" lengthAdjust="spacing" textLength="133.4722" x="25" y="149.5449">Update / Deactivate</text><g class="message" data-participant-1="LO" data-participant-2="SPA"><polygon fill="#181818" points="293.5415,185.9082,303.5415,189.9082,293.5415,193.9082,297.5415,189.9082" style="stroke:#181818;stroke-width:1;"/><line style="stroke:#181818;stroke-width:1;" x1="95.2549" x2="299.5415" y1="189.9082" y2="189.9082"/><text fill="#000000" font-family="sans-serif" font-size="13" lengthAdjust="spacing" textLength="130.1714" x="102.2549" y="169.8555">openEdit(resourceId)</text><text fill="#000000" font-family="sans-serif" font-size="13" lengthAdjust="spacing" textLength="191.2866" x="102.2549" y="185.166">modify fields or change status</text></g><g class="message" data-participant-1="SPA" data-participant-2="CTRL"><polygon fill="#181818" points="541.6563,230.5293,551.6563,234.5293,541.6563,238.5293,545.6563,234.5293" style="stroke:#181818;stroke-width:1;"/><line style="stroke:#181818;stroke-width:1;" x1="315.5415" x2="547.6563" y1="234.5293" y2="234.5293"/><text fill="#000000" font-family="sans-serif" font-size="13" lengthAdjust="spacing" textLength="219.1147" x="322.5415" y="214.4766">PATCH /api/physicalresources/{id}</text><text fill="#000000" font-family="sans-serif" font-size="13" lengthAdjust="spacing" textLength="183.0854" x="322.5415" y="229.7871">{UpdatePhysicalResourceDto}</text></g><g class="message" data-participant-1="CTRL" data-participant-2="SVC"><polygon fill="#181818" points="743.4829,259.8398,753.4829,263.8398,743.4829,267.8398,747.4829,263.8398" style="stroke:#181818;stroke-width:1;"/><line style="stroke:#181818;stroke-width:1;" x1="563.6563" x2="749.4829" y1="263.8398" y2="263.8398"/><text fill="#000000" font-family="sans-serif" font-size="13" lengthAdjust="spacing" textLength="131.4219" x="570.6563" y="259.0977">UpdateAsync(id, dto)</text></g><g class="message" data-participant-1="SVC" data-participant-2="REPO"><polygon fill="#181818" points="962.4155,289.1504,972.4155,293.1504,962.4155,297.1504,966.4155,293.1504" style="stroke:#181818;stroke-width:1;"/><line style="stroke:#181818;stroke-width:1;" x1="765.4829" x2="968.4155" y1="293.1504" y2="293.1504"/><text fill="#000000" font-family="sans-serif" font-size="13" lengthAdjust="spacing" textLength="105.2061" x="772.4829" y="288.4082">GetByIdAsync(id)</text></g><g class="message" data-participant-1="REPO" data-participant-2="DB"><polygon fill="#181818" points="1284.7217,318.4609,1294.7217,322.4609,1284.7217,326.4609,1288.7217,322.4609" style="stroke:#181818;stroke-width:1;"/><line style="stroke:#181818;stroke-width:1;" x1="984.4155" x2="1290.7217" y1="322.4609" y2="322.4609"/><text fill="#000000" font-family="sans-serif" font-size="13" lengthAdjust="spacing" textLength="293.3062" x="991.4155" y="317.7188">SELECT * FROM PhysicalResources WHERE Id=?</text></g><g class="message" data-participant-1="DB" data-participant-2="REPO"><polygon fill="#181818" points="995.4155,347.7715,985.4155,351.7715,995.4155,355.7715,991.4155,351.7715" style="stroke:#181818;stroke-width:1;"/><line style="stroke:#181818;stroke-width:1;stroke-dasharray:2,2;" x1="989.4155" x2="1300.7217" y1="351.7715" y2="351.7715"/><text fill="#000000" font-family="sans-serif" font-size="13" lengthAdjust="spacing" textLength="99.6455" x="1001.4155" y="347.0293">resource or null</text></g><g class="message" data-participant-1="REPO" data-participant-2="SVC"><polygon fill="#181818" points="776.4829,377.082,766.4829,381.082,776.4829,385.082,772.4829,381.082" style="stroke:#181818;stroke-width:1;"/><line style="stroke:#181818;stroke-width:1;stroke-dasharray:2,2;" x1="770.4829" x2="978.4155" y1="381.082" y2="381.082"/><text fill="#000000" font-family="sans-serif" font-size="13" lengthAdjust="spacing" textLength="35.585" x="782.4829" y="376.3398">entity</text></g><path d="M20,396.082 L82.1387,396.082 L82.1387,403.3926 L72.1387,413.3926 L20,413.3926 L20,396.082" fill="#EEEEEE" style="stroke:#000000;stroke-width:1.5;"/><rect fill="none" height="557.8555" style="stroke:#000000;stroke-width:1.5;" width="1353.6416" x="20" y="396.082"/><text fill="#000000" font-family="sans-serif" font-size="13" font-weight="bold" lengthAdjust="spacing" textLength="17.1387" x="35" y="409.6504">alt</text><text fill="#000000" font-family="sans-serif" font-size="11" font-weight="bold" lengthAdjust="spacing" textLength="63.8086" x="97.1387" y="408.7168">[not found]</text><g class="message" data-participant-1="SVC" data-participant-2="CTRL"><polygon fill="#181818" points="574.6563,430.7031,564.6563,434.7031,574.6563,438.7031,570.6563,434.7031" style="stroke:#181818;stroke-width:1;"/><line style="stroke:#181818;stroke-width:1;stroke-dasharray:2,2;" x1="568.6563" x2="754.4829" y1="434.7031" y2="434.7031"/><text fill="#000000" font-family="sans-serif" font-size="13" lengthAdjust="spacing" textLength="94.6118" x="580.6563" y="429.9609">404 Not Found</text></g><g class="message" data-participant-1="CTRL" data-participant-2="SPA"><polygon fill="#181818" points="326.5415,460.0137,316.5415,464.0137,326.5415,468.0137,322.5415,464.0137" style="stroke:#181818;stroke-width:1;"/><line style="stroke:#181818;stroke-width:1;stroke-dasharray:2,2;" x1="320.5415" x2="552.6563" y1="464.0137" y2="464.0137"/><text fill="#000000" font-family="sans-serif" font-size="13" lengthAdjust="spacing" textLength="108.6338" x="332.5415" y="459.2715">show "not found"</text></g><g class="message" data-participant-1="SPA" data-participant-2="LO"><polygon fill="#181818" points="106.2549,489.3242,96.2549,493.3242,106.2549,497.3242,102.2549,493.3242" style="stroke:#181818;stroke-width:1;"/><line style="stroke:#181818;stroke-width:1;stroke-dasharray:2,2;" x1="100.2549" x2="304.5415" y1="493.3242" y2="493.3242"/><text fill="#000000" font-family="sans-serif" font-size="13" lengthAdjust="spacing" textLength="67.6152" x="112.2549" y="488.582">notify user</text></g><line style="stroke:#000000;stroke-width:1;stroke-dasharray:2,2;" x1="20" x2="1373.6416" y1="502.3242" y2="502.3242"/><text fill="#000000" font-family="sans-serif" font-size="11" font-weight="bold" lengthAdjust="spacing" textLength="41.4756" x="25" y="512.959">[found]</text><g class="message" data-participant-1="SVC" data-participant-2="SVC"><line style="stroke:#181818;stroke-width:1;" x1="765.4829" x2="807.4829" y1="568.2109" y2="568.2109"/><line style="stroke:#181818;stroke-width:1;" x1="807.4829" x2="807.4829" y1="568.2109" y2="581.2109"/><line style="stroke:#181818;stroke-width:1;" x1="766.4829" x2="807.4829" y1="581.2109" y2="581.2109"/><polygon fill="#181818" points="776.4829,577.2109,766.4829,581.2109,776.4829,585.2109,772.4829,581.2109" style="stroke:#181818;stroke-width:1;"/><text fill="#000000" font-family="sans-serif" font-size="13" lengthAdjust="spacing" textLength="146.25" x="772.4829" y="532.8477">entity.UpdateFrom(dto)</text><text fill="#000000" font-family="sans-serif" font-size="13" lengthAdjust="spacing" textLength="184.9326" x="772.4829" y="548.1582">(capacity, status, description,</text><text fill="#000000" font-family="sans-serif" font-size="13" lengthAdjust="spacing" textLength="169.1904" x="772.4829" y="563.4688">qualificationRequirements)</text></g><g class="message" data-participant-1="SVC" data-participant-2="REPO"><polygon fill="#181818" points="962.4155,606.5215,972.4155,610.5215,962.4155,614.5215,966.4155,610.5215" style="stroke:#181818;stroke-width:1;"/><line style="stroke:#181818;stroke-width:1;" x1="765.4829" x2="968.4155" y1="610.5215" y2="610.5215"/><text fill="#000000" font-family="sans-serif" font-size="13" lengthAdjust="spacing" textLength="125.8105" x="772.4829" y="605.7793">UpdateAsync(entity)</text></g><g class="message" data-participant-1="REPO" data-participant-2="DB"><polygon fill="#181818" points="1284.7217,635.832,1294.7217,639.832,1284.7217,643.832,1288.7217,639.832" style="stroke:#181818;stroke-width:1;"/><line style="stroke:#181818;stroke-width:1;" x1="984.4155" x2="1290.7217" y1="639.832" y2="639.832"/><text fill="#000000" font-family="sans-serif" font-size="13" lengthAdjust="spacing" textLength="184.7485" x="991.4155" y="635.0898">UPDATE PhysicalResources ...</text></g><g class="message" data-participant-1="DB" data-participant-2="REPO"><polygon fill="#181818" points="995.4155,665.1426,985.4155,669.1426,995.4155,673.1426,991.4155,669.1426" style="stroke:#181818;stroke-width:1;"/><line style="stroke:#181818;stroke-width:1;stroke-dasharray:2,2;" x1="989.4155" x2="1300.7217" y1="669.1426" y2="669.1426"/><text fill="#000000" font-family="sans-serif" font-size="13" lengthAdjust="spacing" textLength="48.5088" x="1001.4155" y="664.4004">success</text></g><g class="message" data-participant-1="REPO" data-participant-2="SVC"><polygon fill="#181818" points="776.4829,694.4531,766.4829,698.4531,776.4829,702.4531,772.4829,698.4531" style="stroke:#181818;stroke-width:1;"/><line style="stroke:#181818;stroke-width:1;stroke-dasharray:2,2;" x1="770.4829" x2="978.4155" y1="698.4531" y2="698.4531"/><text fill="#000000" font-family="sans-serif" font-size="13" lengthAdjust="spacing" textLength="48.5088" x="782.4829" y="693.7109">success</text></g><g class="message" data-participant-1="SVC" data-participant-2="REPO"><polygon fill="#181818" points="962.4155,723.7637,972.4155,727.7637,962.4155,731.7637,966.4155,727.7637" style="stroke:#181818;stroke-width:1;"/><line style="stroke:#181818;stroke-width:1;" x1="765.4829" x2="968.4155" y1="727.7637" y2="727.7637"/><text fill="#000000" font-family="sans-serif" font-size="13" lengthAdjust="spacing" textLength="128.0068" x="772.4829" y="723.0215">SaveChangesAsync()</text></g><g class="message" data-participant-1="REPO" data-participant-2="DB"><polygon fill="#181818" points="1284.7217,753.0742,1294.7217,757.0742,1284.7217,761.0742,1288.7217,757.0742" style="stroke:#181818;stroke-width:1;"/><line style="stroke:#181818;stroke-width:1;" x1="984.4155" x2="1290.7217" y1="757.0742" y2="757.0742"/><text fill="#000000" font-family="sans-serif" font-size="13" lengthAdjust="spacing" textLength="90.8921" x="991.4155" y="752.332">SaveChanges()</text></g><g class="message" data-participant-1="DB" data-participant-2="REPO"><polygon fill="#181818" points="995.4155,782.3848,985.4155,786.3848,995.4155,790.3848,991.4155,786.3848" style="stroke:#181818;stroke-width:1;"/><line style="stroke:#181818;stroke-width:1;stroke-dasharray:2,2;" x1="989.4155" x2="1300.7217" y1="786.3848" y2="786.3848"/><text fill="#000000" font-family="sans-serif" font-size="13" lengthAdjust="spacing" textLength="48.5088" x="1001.4155" y="781.6426">success</text></g><g class="message" data-participant-1="REPO" data-participant-2="SVC"><polygon fill="#181818" points="776.4829,811.6953,766.4829,815.6953,776.4829,819.6953,772.4829,815.6953" style="stroke:#181818;stroke-width:1;"/><line style="stroke:#181818;stroke-width:1;stroke-dasharray:2,2;" x1="770.4829" x2="978.4155" y1="815.6953" y2="815.6953"/><text fill="#000000" font-family="sans-serif" font-size="13" lengthAdjust="spacing" textLength="48.5088" x="782.4829" y="810.9531">success</text></g><g class="message" data-participant-1="SVC" data-participant-2="SVC"><line style="stroke:#181818;stroke-width:1;" x1="765.4829" x2="807.4829" y1="845.0059" y2="845.0059"/><line style="stroke:#181818;stroke-width:1;" x1="807.4829" x2="807.4829" y1="845.0059" y2="858.0059"/><line style="stroke:#181818;stroke-width:1;" x1="766.4829" x2="807.4829" y1="858.0059" y2="858.0059"/><polygon fill="#181818" points="776.4829,854.0059,766.4829,858.0059,776.4829,862.0059,772.4829,858.0059" style="stroke:#181818;stroke-width:1;"/><text fill="#000000" font-family="sans-serif" font-size="13" lengthAdjust="spacing" textLength="82.8306" x="772.4829" y="840.2637">ToDto(entity)</text></g><g class="message" data-participant-1="SVC" data-participant-2="CTRL"><polygon fill="#181818" points="574.6563,883.3164,564.6563,887.3164,574.6563,891.3164,570.6563,887.3164" style="stroke:#181818;stroke-width:1;"/><line style="stroke:#181818;stroke-width:1;stroke-dasharray:2,2;" x1="568.6563" x2="759.4829" y1="887.3164" y2="887.3164"/><text fill="#000000" font-family="sans-serif" font-size="13" lengthAdjust="spacing" textLength="129.9746" x="580.6563" y="882.5742">PhysicalResourceDto</text></g><g class="message" data-participant-1="CTRL" data-participant-2="SPA"><polygon fill="#181818" points="326.5415,912.627,316.5415,916.627,326.5415,920.627,322.5415,916.627" style="stroke:#181818;stroke-width:1;"/><line style="stroke:#181818;stroke-width:1;stroke-dasharray:2,2;" x1="320.5415" x2="557.6563" y1="916.627" y2="916.627"/><text fill="#000000" font-family="sans-serif" font-size="13" lengthAdjust="spacing" textLength="195.895" x="332.5415" y="911.8848">200 OK + PhysicalResourceDto</text></g><g class="message" data-participant-1="SPA" data-participant-2="LO"><polygon fill="#181818" points="106.2549,941.9375,96.2549,945.9375,106.2549,949.9375,102.2549,945.9375" style="stroke:#181818;stroke-width:1;"/><line style="stroke:#181818;stroke-width:1;stroke-dasharray:2,2;" x1="100.2549" x2="309.5415" y1="945.9375" y2="945.9375"/><text fill="#000000" font-family="sans-serif" font-size="13" lengthAdjust="spacing" textLength="131.6758" x="112.2549" y="941.1953">updated successfully</text></g><!--SRC=[lLHDRzim3BtxLn0v9LkR14DF1ROXSTorMBOOJjfTSX4ifXNWIAuajp2A_lTH_cgiP6XFEmI1pCT7yZrALjWCuJRdp29CO84ijUB97UA7qeYKPP2WKOLE4SuXrYf5O-1Eu7CG45Hf62pLlJ1Mf0PMEMf6tmR032nNGSuqVHSvanO6b-juLWNetukqfTfAeP9Mgop3cYdS9CjtCjQedqIADVzT-0uwmLmPGOsMLK8InNwliTAscsinhs2BUH3SQrNaf-GAW0Q6yszkEhW4bQECkB13tPIyuQEjt2ikTYNi16RS06cNFZ1vZs0iiuKXYavyfn6T7HbnEW68D9vjmckOi5nCycQYbjvCNWH_tSgNkZL_u8LLhuVqbQBqeI9sJT-5n5_dpamfqw7WPy2j6lMQ8c5TKmIc7ASQ9Vr0EozlU9lLIwY4XHf96OivuTVHCWety0ckajKly1iryESwIYAuuL-_7pAHzk3opzyAjwCx7MMHPGJWs4-e2tVpeRJ2bdrSrQAhb5cGoi9E5PBJkHdpJVoBwGNy9i1L1wZ5womt3-eP1Xt7e2Pn1X9awJgccBE_CAWfY9b1lro_qt5jo9LM-w7pOYk7ASjPIg6pPcV893If5haLIfvjvMF1Ch4ZHTqvmST2QDmJcna5XrKQ2GyDhqkEAfHle6VXRRoORQ8Jtet7utv-vO9ld2bIzuXK4T-n8y_-0MvjyoTQioSCgqjbwh4-DD11bf_m_oQeqHj5TxLdXhU79wwsJztSqwCD_JATmkedVFu8H_j2U2jSL1l3sw5sTE_Ae_BqTj5wqrxJxoy0]--></g></svg>