<svg xmlns="http://www.w3.org/2000/svg" xmlns:xlink="http://www.w3.org/1999/xlink" contentStyleType="text/css" data-diagram-type="SEQUENCE" height="1531px" preserveAspectRatio="none" style="width:1609px;height:1531px;background:#FFFFFF;" version="1.1" viewBox="0 0 1609 1531" width="1609px" zoomAndPan="magnify"><title>Create Vessel Type - Process View</title><defs/><g><text fill="#000000" font-family="sans-serif" font-size="14" font-weight="bold" lengthAdjust="spacing" textLength="250.5303" x="680.9268" y="28.5352">Create Vessel Type - Process View</text><g><title>.VesselTypeController</title><rect fill="#FFFFFF" height="731.1426" style="stroke:#181818;stroke-width:1;" width="10" x="713.6475" y="301.1504"/></g><g><title>.VesselTypeService</title><rect fill="#FFFFFF" height="641.2109" style="stroke:#181818;stroke-width:1;" width="10" x="984.0508" y="330.4609"/></g><g><title>.VesselTypeRepository</title><rect fill="#FFFFFF" height="87.9316" style="stroke:#181818;stroke-width:1;" width="10" x="1191.8579" y="468.7031"/></g><g><title>.VesselTypeRepository</title><rect fill="#FFFFFF" height="87.9316" style="stroke:#181818;stroke-width:1;" width="10" x="1191.8579" y="694.877"/></g><g><title>.VesselTypeRepository</title><rect fill="#FFFFFF" height="87.9316" style="stroke:#181818;stroke-width:1;" width="10" x="1191.8579" y="812.1191"/></g><g><title>.PortManagementDB</title><rect fill="#FFFFFF" height="29.3105" style="stroke:#181818;stroke-width:1;" width="10" x="1509.6699" y="498.0137"/></g><g><title>.PortManagementDB</title><rect fill="#FFFFFF" height="29.3105" style="stroke:#181818;stroke-width:1;" width="10" x="1509.6699" y="724.1875"/></g><g><title>.PortManagementDB</title><rect fill="#FFFFFF" height="29.3105" style="stroke:#181818;stroke-width:1;" width="10" x="1509.6699" y="841.4297"/></g><rect fill="none" height="97.2422" style="stroke:#000000;stroke-width:1.5;" width="577.7837" x="10" y="135.9766"/><rect fill="none" height="91.2422" style="stroke:#000000;stroke-width:1.5;" width="766.4634" x="303.394" y="247.2188"/><rect fill="none" height="212.1738" style="stroke:#000000;stroke-width:1.5;" width="695.1396" x="908.2441" y="352.4609"/><rect fill="none" height="401.0371" style="stroke:#000000;stroke-width:1.5;" width="973.1465" x="627.4263" y="578.6348"/><rect fill="none" height="111.2422" style="stroke:#000000;stroke-width:1.5;" width="820.4175" x="10" y="993.6719"/><rect fill="none" height="105.2422" style="stroke:#000000;stroke-width:1.5;" width="1059.8574" x="10" y="1118.9141"/><rect fill="none" height="105.2422" style="stroke:#000000;stroke-width:1.5;" width="1059.8574" x="10" y="1238.1563"/><rect fill="none" height="75.9316" style="stroke:#000000;stroke-width:1.5;" width="799.8687" x="10" y="1357.3984"/><g><title>Port Authority Officer</title><rect fill="#000000" fill-opacity="0.00000" height="1331.3535" width="8" x="91.6387" y="118.9766"/><line style="stroke:#181818;stroke-width:0.5;stroke-dasharray:5,5;" x1="95" x2="95" y1="118.9766" y2="1450.3301"/></g><g><title>CreateVesselType.html</title><rect fill="#000000" fill-opacity="0.00000" height="1331.3535" width="8" x="394.0469" y="118.9766"/><line style="stroke:#181818;stroke-width:0.5;stroke-dasharray:5,5;" x1="397.394" x2="397.394" y1="118.9766" y2="1450.3301"/></g><g><title>.VesselTypeController</title><rect fill="#000000" fill-opacity="0.00000" height="1331.3535" width="8" x="714.6475" y="118.9766"/><line style="stroke:#181818;stroke-width:0.5;stroke-dasharray:5,5;" x1="718.4263" x2="718.4263" y1="118.9766" y2="1450.3301"/></g><g><title>.VesselTypeService</title><rect fill="#000000" fill-opacity="0.00000" height="1331.3535" width="8" x="985.0508" y="118.9766"/><line style="stroke:#181818;stroke-width:0.5;stroke-dasharray:5,5;" x1="988.2441" x2="988.2441" y1="118.9766" y2="1450.3301"/></g><g><title>.VesselTypeRepository</title><rect fill="#000000" fill-opacity="0.00000" height="1331.3535" width="8" x="1192.8579" y="118.9766"/><line style="stroke:#181818;stroke-width:0.5;stroke-dasharray:5,5;" x1="1196.6543" x2="1196.6543" y1="118.9766" y2="1450.3301"/></g><g><title>.PortManagementDB</title><rect fill="#000000" fill-opacity="0.00000" height="1331.3535" width="8" x="1510.6699" y="118.9766"/><line style="stroke:#181818;stroke-width:0.5;stroke-dasharray:5,5;" x1="1513.7671" x2="1513.7671" y1="118.9766" y2="1450.3301"/></g><g class="participant participant-head" data-participant="ADMIN"><text fill="#000000" font-family="sans-serif" font-size="14" lengthAdjust="spacing" textLength="145.2773" x="20" y="116.0234">Port Authority Officer</text><ellipse cx="95.6387" cy="50.9883" fill="#E2E2F0" rx="8" ry="8" style="stroke:#181818;stroke-width:0.5;"/><path d="M95.6387,58.9883 L95.6387,85.9883 M82.6387,66.9883 L108.6387,66.9883 M95.6387,85.9883 L82.6387,100.9883 M95.6387,85.9883 L108.6387,100.9883" fill="none" style="stroke:#181818;stroke-width:0.5;"/></g><g class="participant participant-tail" data-participant="ADMIN"><text fill="#000000" font-family="sans-serif" font-size="14" lengthAdjust="spacing" textLength="145.2773" x="20" y="1462.8652">Port Authority Officer</text><ellipse cx="95.6387" cy="1474.3184" fill="#E2E2F0" rx="8" ry="8" style="stroke:#181818;stroke-width:0.5;"/><path d="M95.6387,1482.3184 L95.6387,1509.3184 M82.6387,1490.3184 L108.6387,1490.3184 M95.6387,1509.3184 L82.6387,1524.3184 M95.6387,1509.3184 L108.6387,1524.3184" fill="none" style="stroke:#181818;stroke-width:0.5;"/></g><g class="participant participant-head" data-participant="SPA"><rect fill="#E2E2F0" height="46.9766" rx="2.5" ry="2.5" style="stroke:#181818;stroke-width:0.5;" width="169.3057" x="313.394" y="71"/><text fill="#000000" font-family="sans-serif" font-size="14" lengthAdjust="spacing" textLength="155.3057" x="320.394" y="91.5352">CreateVesselType.html</text><text fill="#000000" font-family="sans-serif" font-size="14" lengthAdjust="spacing" textLength="34.043" x="381.0254" y="108.0234">(SPA)</text></g><g class="participant participant-tail" data-participant="SPA"><rect fill="#E2E2F0" height="46.9766" rx="2.5" ry="2.5" style="stroke:#181818;stroke-width:0.5;" width="169.3057" x="313.394" y="1449.3301"/><text fill="#000000" font-family="sans-serif" font-size="14" lengthAdjust="spacing" textLength="155.3057" x="320.394" y="1469.8652">CreateVesselType.html</text><text fill="#000000" font-family="sans-serif" font-size="14" lengthAdjust="spacing" textLength="34.043" x="381.0254" y="1486.3535">(SPA)</text></g><g class="participant participant-head" data-participant="CTRL"><rect fill="#E2E2F0" height="30.4883" rx="2.5" ry="2.5" style="stroke:#181818;stroke-width:0.5;" width="162.4424" x="637.4263" y="87.4883"/><text fill="#000000" font-family="sans-serif" font-size="14" lengthAdjust="spacing" textLength="148.4424" x="644.4263" y="108.0234">:VesselTypeController</text></g><g class="participant participant-tail" data-participant="CTRL"><rect fill="#E2E2F0" height="30.4883" rx="2.5" ry="2.5" style="stroke:#181818;stroke-width:0.5;" width="162.4424" x="637.4263" y="1449.3301"/><text fill="#000000" font-family="sans-serif" font-size="14" lengthAdjust="spacing" textLength="148.4424" x="644.4263" y="1469.8652">:VesselTypeController</text></g><g class="participant participant-head" data-participant="SVC"><rect fill="#E2E2F0" height="30.4883" rx="2.5" ry="2.5" style="stroke:#181818;stroke-width:0.5;" width="141.6133" x="918.2441" y="87.4883"/><text fill="#000000" font-family="sans-serif" font-size="14" lengthAdjust="spacing" textLength="127.6133" x="925.2441" y="108.0234">:VesselTypeService</text></g><g class="participant participant-tail" data-participant="SVC"><rect fill="#E2E2F0" height="30.4883" rx="2.5" ry="2.5" style="stroke:#181818;stroke-width:0.5;" width="141.6133" x="918.2441" y="1449.3301"/><text fill="#000000" font-family="sans-serif" font-size="14" lengthAdjust="spacing" textLength="127.6133" x="925.2441" y="1469.8652">:VesselTypeService</text></g><g class="participant participant-head" data-participant="REPO"><rect fill="#E2E2F0" height="30.4883" rx="2.5" ry="2.5" style="stroke:#181818;stroke-width:0.5;" width="166.4072" x="1113.6543" y="87.4883"/><text fill="#000000" font-family="sans-serif" font-size="14" lengthAdjust="spacing" textLength="152.4072" x="1120.6543" y="108.0234">:VesselTypeRepository</text></g><g class="participant participant-tail" data-participant="REPO"><rect fill="#E2E2F0" height="30.4883" rx="2.5" ry="2.5" style="stroke:#181818;stroke-width:0.5;" width="166.4072" x="1113.6543" y="1449.3301"/><text fill="#000000" font-family="sans-serif" font-size="14" lengthAdjust="spacing" textLength="152.4072" x="1120.6543" y="1469.8652">:VesselTypeRepository</text></g><g class="participant participant-head" data-participant="DB"><rect fill="#E2E2F0" height="30.4883" rx="2.5" ry="2.5" style="stroke:#181818;stroke-width:0.5;" width="151.8057" x="1438.7671" y="87.4883"/><text fill="#000000" font-family="sans-serif" font-size="14" lengthAdjust="spacing" textLength="137.8057" x="1445.7671" y="108.0234">:PortManagementDB</text></g><g class="participant participant-tail" data-participant="DB"><rect fill="#E2E2F0" height="30.4883" rx="2.5" ry="2.5" style="stroke:#181818;stroke-width:0.5;" width="151.8057" x="1438.7671" y="1449.3301"/><text fill="#000000" font-family="sans-serif" font-size="14" lengthAdjust="spacing" textLength="137.8057" x="1445.7671" y="1469.8652">:PortManagementDB</text></g><g><title>.VesselTypeController</title><rect fill="#FFFFFF" height="731.1426" style="stroke:#181818;stroke-width:1;" width="10" x="713.6475" y="301.1504"/></g><g><title>.VesselTypeService</title><rect fill="#FFFFFF" height="641.2109" style="stroke:#181818;stroke-width:1;" width="10" x="984.0508" y="330.4609"/></g><g><title>.VesselTypeRepository</title><rect fill="#FFFFFF" height="87.9316" style="stroke:#181818;stroke-width:1;" width="10" x="1191.8579" y="468.7031"/></g><g><title>.VesselTypeRepository</title><rect fill="#FFFFFF" height="87.9316" style="stroke:#181818;stroke-width:1;" width="10" x="1191.8579" y="694.877"/></g><g><title>.VesselTypeRepository</title><rect fill="#FFFFFF" height="87.9316" style="stroke:#181818;stroke-width:1;" width="10" x="1191.8579" y="812.1191"/></g><g><title>.PortManagementDB</title><rect fill="#FFFFFF" height="29.3105" style="stroke:#181818;stroke-width:1;" width="10" x="1509.6699" y="498.0137"/></g><g><title>.PortManagementDB</title><rect fill="#FFFFFF" height="29.3105" style="stroke:#181818;stroke-width:1;" width="10" x="1509.6699" y="724.1875"/></g><g><title>.PortManagementDB</title><rect fill="#FFFFFF" height="29.3105" style="stroke:#181818;stroke-width:1;" width="10" x="1509.6699" y="841.4297"/></g><path d="M10,135.9766 L178.646,135.9766 L178.646,143.2871 L168.646,153.2871 L10,153.2871 L10,135.9766" fill="#EEEEEE" style="stroke:#000000;stroke-width:1.5;"/><rect fill="none" height="97.2422" style="stroke:#000000;stroke-width:1.5;" width="577.7837" x="10" y="135.9766"/><text fill="#000000" font-family="sans-serif" font-size="13" font-weight="bold" lengthAdjust="spacing" textLength="123.646" x="25" y="149.5449">Fill &amp; Submit Form</text><g class="message" data-participant-1="ADMIN" data-participant-2="SPA"><polygon fill="#181818" points="386.0469,185.9082,396.0469,189.9082,386.0469,193.9082,390.0469,189.9082" style="stroke:#181818;stroke-width:1;"/><line style="stroke:#181818;stroke-width:1;" x1="95.6387" x2="392.0469" y1="189.9082" y2="189.9082"/><text fill="#000000" font-family="sans-serif" font-size="13" lengthAdjust="spacing" textLength="170.3013" x="102.6387" y="169.8555">fillForm(name, description,</text><text fill="#000000" font-family="sans-serif" font-size="13" lengthAdjust="spacing" textLength="278.4082" x="102.6387" y="185.166">capacityTEU, maxRows, maxBays, maxTiers)</text></g><path d="M100,202.9082 L100,227.9082 L577,227.9082 L577,212.9082 L567,202.9082 L100,202.9082" fill="#FEFFDD" style="stroke:#181818;stroke-width:0.5;"/><path d="M567,202.9082 L567,212.9082 L577,212.9082 L567,202.9082" fill="#FEFFDD" style="stroke:#181818;stroke-width:0.5;"/><text fill="#000000" font-family="sans-serif" font-size="13" lengthAdjust="spacing" textLength="456.7837" x="106" y="220.4766">Administrator fills the vessel type form\nand clicks "Create Vessel Type"</text><path d="M303.394,247.2188 L453.3335,247.2188 L453.3335,254.5293 L443.3335,264.5293 L303.394,264.5293 L303.394,247.2188" fill="#EEEEEE" style="stroke:#000000;stroke-width:1.5;"/><rect fill="none" height="91.2422" style="stroke:#000000;stroke-width:1.5;" width="766.4634" x="303.394" y="247.2188"/><text fill="#000000" font-family="sans-serif" font-size="13" font-weight="bold" lengthAdjust="spacing" textLength="104.9395" x="318.394" y="260.7871">Submit Request</text><g class="message" data-participant-1="SPA" data-participant-2="CTRL"><polygon fill="#181818" points="701.6475,297.1504,711.6475,301.1504,701.6475,305.1504,705.6475,301.1504" style="stroke:#181818;stroke-width:1;"/><line style="stroke:#181818;stroke-width:1;" x1="398.0469" x2="707.6475" y1="301.1504" y2="301.1504"/><text fill="#000000" font-family="sans-serif" font-size="13" lengthAdjust="spacing" textLength="139.8071" x="405.0469" y="281.0977">POST /api/VesselType</text><text fill="#000000" font-family="sans-serif" font-size="13" lengthAdjust="spacing" textLength="101.4736" x="405.0469" y="296.4082">{VesselTypeDto}</text></g><g class="message" data-participant-1="CTRL" data-participant-2="SVC"><polygon fill="#181818" points="972.0508,326.4609,982.0508,330.4609,972.0508,334.4609,976.0508,330.4609" style="stroke:#181818;stroke-width:1;"/><line style="stroke:#181818;stroke-width:1;" x1="723.6475" x2="978.0508" y1="330.4609" y2="330.4609"/><text fill="#000000" font-family="sans-serif" font-size="13" lengthAdjust="spacing" textLength="163.9219" x="730.6475" y="325.7188">AddAsync(VesselTypeDto)</text></g><path d="M908.2441,352.4609 L1047.1196,352.4609 L1047.1196,359.7715 L1037.1196,369.7715 L908.2441,369.7715 L908.2441,352.4609" fill="#EEEEEE" style="stroke:#000000;stroke-width:1.5;"/><rect fill="none" height="212.1738" style="stroke:#000000;stroke-width:1.5;" width="695.1396" x="908.2441" y="352.4609"/><text fill="#000000" font-family="sans-serif" font-size="13" font-weight="bold" lengthAdjust="spacing" textLength="93.8755" x="923.2441" y="366.0293">Validate Input</text><g class="message" data-participant-1="SVC" data-participant-2="SVC"><line style="stroke:#181818;stroke-width:1;" x1="994.0508" x2="1036.0508" y1="391.082" y2="391.082"/><line style="stroke:#181818;stroke-width:1;" x1="1036.0508" x2="1036.0508" y1="391.082" y2="404.082"/><line style="stroke:#181818;stroke-width:1;" x1="995.0508" x2="1036.0508" y1="404.082" y2="404.082"/><polygon fill="#181818" points="1005.0508,400.082,995.0508,404.082,1005.0508,408.082,1001.0508,404.082" style="stroke:#181818;stroke-width:1;"/><text fill="#000000" font-family="sans-serif" font-size="13" lengthAdjust="spacing" textLength="150.5791" x="1001.0508" y="386.3398">ValidateVesselType(dto)</text></g><path d="M999,417.082 L999,442.082 L1593,442.082 L1593,427.082 L1583,417.082 L999,417.082" fill="#FEFFDD" style="stroke:#181818;stroke-width:0.5;"/><path d="M1583,417.082 L1583,427.082 L1593,427.082 L1583,417.082" fill="#FEFFDD" style="stroke:#181818;stroke-width:0.5;"/><text fill="#000000" font-family="sans-serif" font-size="13" lengthAdjust="spacing" textLength="573.3838" x="1005" y="434.6504">Validates all required fields:\nname, description, capacity, maxRows,\nmaxBays, maxTiers</text><g class="message" data-participant-1="SVC" data-participant-2="REPO"><polygon fill="#181818" points="1179.8579,464.7031,1189.8579,468.7031,1179.8579,472.7031,1183.8579,468.7031" style="stroke:#181818;stroke-width:1;"/><line style="stroke:#181818;stroke-width:1;" x1="994.0508" x2="1185.8579" y1="468.7031" y2="468.7031"/><text fill="#000000" font-family="sans-serif" font-size="13" lengthAdjust="spacing" textLength="178.8071" x="1001.0508" y="463.9609">GetByNameAsync(dto.Name)</text></g><g class="message" data-participant-1="REPO" data-participant-2="DB"><polygon fill="#181818" points="1497.6699,494.0137,1507.6699,498.0137,1497.6699,502.0137,1501.6699,498.0137" style="stroke:#181818;stroke-width:1;"/><line style="stroke:#181818;stroke-width:1;" x1="1201.8579" x2="1503.6699" y1="498.0137" y2="498.0137"/><text fill="#000000" font-family="sans-serif" font-size="13" lengthAdjust="spacing" textLength="288.812" x="1208.8579" y="493.2715">SELECT * FROM VesselTypes WHERE Name = ?</text></g><g class="message" data-participant-1="DB" data-participant-2="REPO"><polygon fill="#181818" points="1212.8579,523.3242,1202.8579,527.3242,1212.8579,531.3242,1208.8579,527.3242" style="stroke:#181818;stroke-width:1;"/><line style="stroke:#181818;stroke-width:1;stroke-dasharray:2,2;" x1="1206.8579" x2="1513.6699" y1="527.3242" y2="527.3242"/><text fill="#000000" font-family="sans-serif" font-size="13" lengthAdjust="spacing" textLength="120.9038" x="1218.8579" y="522.582">null (no duplicates)</text></g><g class="message" data-participant-1="REPO" data-participant-2="SVC"><polygon fill="#181818" points="1005.0508,552.6348,995.0508,556.6348,1005.0508,560.6348,1001.0508,556.6348" style="stroke:#181818;stroke-width:1;"/><line style="stroke:#181818;stroke-width:1;stroke-dasharray:2,2;" x1="999.0508" x2="1195.8579" y1="556.6348" y2="556.6348"/><text fill="#000000" font-family="sans-serif" font-size="13" lengthAdjust="spacing" textLength="23.6514" x="1011.0508" y="551.8926">null</text></g><path d="M627.4263,578.6348 L843.3115,578.6348 L843.3115,585.9453 L833.3115,595.9453 L627.4263,595.9453 L627.4263,578.6348" fill="#EEEEEE" style="stroke:#000000;stroke-width:1.5;"/><rect fill="none" height="401.0371" style="stroke:#000000;stroke-width:1.5;" width="973.1465" x="627.4263" y="578.6348"/><text fill="#000000" font-family="sans-serif" font-size="13" font-weight="bold" lengthAdjust="spacing" textLength="170.8853" x="642.4263" y="592.2031">Create Vessel Type Entity</text><g class="message" data-participant-1="SVC" data-participant-2="SVC"><line style="stroke:#181818;stroke-width:1;" x1="994.0508" x2="1036.0508" y1="617.2559" y2="617.2559"/><line style="stroke:#181818;stroke-width:1;" x1="1036.0508" x2="1036.0508" y1="617.2559" y2="630.2559"/><line style="stroke:#181818;stroke-width:1;" x1="995.0508" x2="1036.0508" y1="630.2559" y2="630.2559"/><polygon fill="#181818" points="1005.0508,626.2559,995.0508,630.2559,1005.0508,634.2559,1001.0508,630.2559" style="stroke:#181818;stroke-width:1;"/><text fill="#000000" font-family="sans-serif" font-size="13" lengthAdjust="spacing" textLength="129.3589" x="1001.0508" y="612.5137">new VesselType(dto)</text></g><path d="M999,643.2559 L999,668.2559 L1497,668.2559 L1497,653.2559 L1487,643.2559 L999,643.2559" fill="#FEFFDD" style="stroke:#181818;stroke-width:0.5;"/><path d="M1487,643.2559 L1487,653.2559 L1497,653.2559 L1487,643.2559" fill="#FEFFDD" style="stroke:#181818;stroke-width:0.5;"/><text fill="#000000" font-family="sans-serif" font-size="13" lengthAdjust="spacing" textLength="477.0962" x="1005" y="660.8242">Creates new VesselType entity with\nIsActive = true and CreatedAt = now()</text><g class="message" data-participant-1="SVC" data-participant-2="REPO"><polygon fill="#181818" points="1179.8579,690.877,1189.8579,694.877,1179.8579,698.877,1183.8579,694.877" style="stroke:#181818;stroke-width:1;"/><line style="stroke:#181818;stroke-width:1;" x1="994.0508" x2="1185.8579" y1="694.877" y2="694.877"/><text fill="#000000" font-family="sans-serif" font-size="13" lengthAdjust="spacing" textLength="139.5659" x="1001.0508" y="690.1348">AddAsync(vesselType)</text></g><g class="message" data-participant-1="REPO" data-participant-2="DB"><polygon fill="#181818" points="1497.6699,720.1875,1507.6699,724.1875,1497.6699,728.1875,1501.6699,724.1875" style="stroke:#181818;stroke-width:1;"/><line style="stroke:#181818;stroke-width:1;" x1="1201.8579" x2="1503.6699" y1="724.1875" y2="724.1875"/><text fill="#000000" font-family="sans-serif" font-size="13" lengthAdjust="spacing" textLength="181.5874" x="1208.8579" y="719.4453">INSERT INTO VesselTypes(...)</text></g><g class="message" data-participant-1="DB" data-participant-2="REPO"><polygon fill="#181818" points="1212.8579,749.498,1202.8579,753.498,1212.8579,757.498,1208.8579,753.498" style="stroke:#181818;stroke-width:1;"/><line style="stroke:#181818;stroke-width:1;stroke-dasharray:2,2;" x1="1206.8579" x2="1513.6699" y1="753.498" y2="753.498"/><text fill="#000000" font-family="sans-serif" font-size="13" lengthAdjust="spacing" textLength="48.5088" x="1218.8579" y="748.7559">success</text></g><g class="message" data-participant-1="REPO" data-participant-2="SVC"><polygon fill="#181818" points="1005.0508,778.8086,995.0508,782.8086,1005.0508,786.8086,1001.0508,782.8086" style="stroke:#181818;stroke-width:1;"/><line style="stroke:#181818;stroke-width:1;stroke-dasharray:2,2;" x1="999.0508" x2="1195.8579" y1="782.8086" y2="782.8086"/><text fill="#000000" font-family="sans-serif" font-size="13" lengthAdjust="spacing" textLength="48.5088" x="1011.0508" y="778.0664">success</text></g><g class="message" data-participant-1="SVC" data-participant-2="REPO"><polygon fill="#181818" points="1179.8579,808.1191,1189.8579,812.1191,1179.8579,816.1191,1183.8579,812.1191" style="stroke:#181818;stroke-width:1;"/><line style="stroke:#181818;stroke-width:1;" x1="994.0508" x2="1185.8579" y1="812.1191" y2="812.1191"/><text fill="#000000" font-family="sans-serif" font-size="13" lengthAdjust="spacing" textLength="128.0068" x="1001.0508" y="807.377">SaveChangesAsync()</text></g><g class="message" data-participant-1="REPO" data-participant-2="DB"><polygon fill="#181818" points="1497.6699,837.4297,1507.6699,841.4297,1497.6699,845.4297,1501.6699,841.4297" style="stroke:#181818;stroke-width:1;"/><line style="stroke:#181818;stroke-width:1;" x1="1201.8579" x2="1503.6699" y1="841.4297" y2="841.4297"/><text fill="#000000" font-family="sans-serif" font-size="13" lengthAdjust="spacing" textLength="149.2144" x="1208.8579" y="836.6875">COMMIT TRANSACTION</text></g><g class="message" data-participant-1="DB" data-participant-2="REPO"><polygon fill="#181818" points="1212.8579,866.7402,1202.8579,870.7402,1212.8579,874.7402,1208.8579,870.7402" style="stroke:#181818;stroke-width:1;"/><line style="stroke:#181818;stroke-width:1;stroke-dasharray:2,2;" x1="1206.8579" x2="1513.6699" y1="870.7402" y2="870.7402"/><text fill="#000000" font-family="sans-serif" font-size="13" lengthAdjust="spacing" textLength="48.5088" x="1218.8579" y="865.998">success</text></g><g class="message" data-participant-1="REPO" data-participant-2="SVC"><polygon fill="#181818" points="1005.0508,896.0508,995.0508,900.0508,1005.0508,904.0508,1001.0508,900.0508" style="stroke:#181818;stroke-width:1;"/><line style="stroke:#181818;stroke-width:1;stroke-dasharray:2,2;" x1="999.0508" x2="1195.8579" y1="900.0508" y2="900.0508"/><text fill="#000000" font-family="sans-serif" font-size="13" lengthAdjust="spacing" textLength="48.5088" x="1011.0508" y="895.3086">success</text></g><g class="message" data-participant-1="SVC" data-participant-2="SVC"><line style="stroke:#181818;stroke-width:1;" x1="994.0508" x2="1036.0508" y1="929.3613" y2="929.3613"/><line style="stroke:#181818;stroke-width:1;" x1="1036.0508" x2="1036.0508" y1="929.3613" y2="942.3613"/><line style="stroke:#181818;stroke-width:1;" x1="995.0508" x2="1036.0508" y1="942.3613" y2="942.3613"/><polygon fill="#181818" points="1005.0508,938.3613,995.0508,942.3613,1005.0508,946.3613,1001.0508,942.3613" style="stroke:#181818;stroke-width:1;"/><text fill="#000000" font-family="sans-serif" font-size="13" lengthAdjust="spacing" textLength="165.1089" x="1001.0508" y="924.6191">ConvertToDto(vesselType)</text></g><g class="message" data-participant-1="SVC" data-participant-2="CTRL"><polygon fill="#181818" points="734.6475,967.6719,724.6475,971.6719,734.6475,975.6719,730.6475,971.6719" style="stroke:#181818;stroke-width:1;"/><line style="stroke:#181818;stroke-width:1;stroke-dasharray:2,2;" x1="728.6475" x2="988.0508" y1="971.6719" y2="971.6719"/><text fill="#000000" font-family="sans-serif" font-size="13" lengthAdjust="spacing" textLength="93.0186" x="740.6475" y="966.9297">VesselTypeDto</text></g><path d="M10,993.6719 L146.0952,993.6719 L146.0952,1000.9824 L136.0952,1010.9824 L10,1010.9824 L10,993.6719" fill="#EEEEEE" style="stroke:#000000;stroke-width:1.5;"/><rect fill="none" height="111.2422" style="stroke:#000000;stroke-width:1.5;" width="820.4175" x="10" y="993.6719"/><text fill="#000000" font-family="sans-serif" font-size="13" font-weight="bold" lengthAdjust="spacing" textLength="91.0952" x="25" y="1007.2402">Return Result</text><g class="message" data-participant-1="CTRL" data-participant-2="SPA"><polygon fill="#181818" points="409.0469,1028.293,399.0469,1032.293,409.0469,1036.293,405.0469,1032.293" style="stroke:#181818;stroke-width:1;"/><line style="stroke:#181818;stroke-width:1;stroke-dasharray:2,2;" x1="403.0469" x2="717.6475" y1="1032.293" y2="1032.293"/><text fill="#000000" font-family="sans-serif" font-size="13" lengthAdjust="spacing" textLength="189.376" x="415.0469" y="1027.5508">201 Created + VesselTypeDto</text></g><g class="message" data-participant-1="SPA" data-participant-2="ADMIN"><polygon fill="#181818" points="106.6387,1057.6035,96.6387,1061.6035,106.6387,1065.6035,102.6387,1061.6035" style="stroke:#181818;stroke-width:1;"/><line style="stroke:#181818;stroke-width:1;stroke-dasharray:2,2;" x1="100.6387" x2="397.0469" y1="1061.6035" y2="1061.6035"/><text fill="#000000" font-family="sans-serif" font-size="13" lengthAdjust="spacing" textLength="215.5918" x="112.6387" y="1056.8613">"Vessel type created successfully!"</text></g><path d="M403,1074.6035 L403,1099.6035 L820,1099.6035 L820,1084.6035 L810,1074.6035 L403,1074.6035" fill="#FEFFDD" style="stroke:#181818;stroke-width:0.5;"/><path d="M810,1074.6035 L810,1084.6035 L820,1084.6035 L810,1074.6035" fill="#FEFFDD" style="stroke:#181818;stroke-width:0.5;"/><text fill="#000000" font-family="sans-serif" font-size="13" lengthAdjust="spacing" textLength="396.4175" x="409" y="1092.1719">Displays confirmation and redirects\nto vessel type detail view</text><path d="M10,1118.9141 L72.1387,1118.9141 L72.1387,1126.2246 L62.1387,1136.2246 L10,1136.2246 L10,1118.9141" fill="#EEEEEE" style="stroke:#000000;stroke-width:1.5;"/><rect fill="none" height="105.2422" style="stroke:#000000;stroke-width:1.5;" width="1059.8574" x="10" y="1118.9141"/><text fill="#000000" font-family="sans-serif" font-size="13" font-weight="bold" lengthAdjust="spacing" textLength="17.1387" x="25" y="1132.4824">alt</text><text fill="#000000" font-family="sans-serif" font-size="11" font-weight="bold" lengthAdjust="spacing" textLength="101.041" x="87.1387" y="1131.5488">[Validation failed]</text><g class="message" data-participant-1="SVC" data-participant-2="CTRL"><polygon fill="#181818" points="729.6475,1153.5352,719.6475,1157.5352,729.6475,1161.5352,725.6475,1157.5352" style="stroke:#181818;stroke-width:1;"/><line style="stroke:#181818;stroke-width:1;stroke-dasharray:2,2;" x1="723.6475" x2="988.0508" y1="1157.5352" y2="1157.5352"/><text fill="#000000" font-family="sans-serif" font-size="13" lengthAdjust="spacing" textLength="220.8604" x="735.6475" y="1152.793">throws DomainValidationException</text></g><g class="message" data-participant-1="CTRL" data-participant-2="SPA"><polygon fill="#181818" points="409.0469,1182.8457,399.0469,1186.8457,409.0469,1190.8457,405.0469,1186.8457" style="stroke:#181818;stroke-width:1;"/><line style="stroke:#181818;stroke-width:1;stroke-dasharray:2,2;" x1="403.0469" x2="717.6475" y1="1186.8457" y2="1186.8457"/><text fill="#000000" font-family="sans-serif" font-size="13" lengthAdjust="spacing" textLength="215.1919" x="415.0469" y="1182.1035">400 Bad Request + error message</text></g><g class="message" data-participant-1="SPA" data-participant-2="ADMIN"><polygon fill="#181818" points="106.6387,1212.1563,96.6387,1216.1563,106.6387,1220.1563,102.6387,1216.1563" style="stroke:#181818;stroke-width:1;"/><line style="stroke:#181818;stroke-width:1;stroke-dasharray:2,2;" x1="100.6387" x2="397.0469" y1="1216.1563" y2="1216.1563"/><text fill="#000000" font-family="sans-serif" font-size="13" lengthAdjust="spacing" textLength="184.0947" x="112.6387" y="1211.4141">showError("Validation failed")</text></g><path d="M10,1238.1563 L72.1387,1238.1563 L72.1387,1245.4668 L62.1387,1255.4668 L10,1255.4668 L10,1238.1563" fill="#EEEEEE" style="stroke:#000000;stroke-width:1.5;"/><rect fill="none" height="105.2422" style="stroke:#000000;stroke-width:1.5;" width="1059.8574" x="10" y="1238.1563"/><text fill="#000000" font-family="sans-serif" font-size="13" font-weight="bold" lengthAdjust="spacing" textLength="17.1387" x="25" y="1251.7246">alt</text><text fill="#000000" font-family="sans-serif" font-size="11" font-weight="bold" lengthAdjust="spacing" textLength="133.144" x="87.1387" y="1250.791">[Duplicate name found]</text><g class="message" data-participant-1="SVC" data-participant-2="CTRL"><polygon fill="#181818" points="729.6475,1272.7773,719.6475,1276.7773,729.6475,1280.7773,725.6475,1276.7773" style="stroke:#181818;stroke-width:1;"/><line style="stroke:#181818;stroke-width:1;stroke-dasharray:2,2;" x1="723.6475" x2="988.0508" y1="1276.7773" y2="1276.7773"/><text fill="#000000" font-family="sans-serif" font-size="13" lengthAdjust="spacing" textLength="246.4033" x="735.6475" y="1272.0352">throws BusinessRuleViolationException</text></g><g class="message" data-participant-1="CTRL" data-participant-2="SPA"><polygon fill="#181818" points="409.0469,1302.0879,399.0469,1306.0879,409.0469,1310.0879,405.0469,1306.0879" style="stroke:#181818;stroke-width:1;"/><line style="stroke:#181818;stroke-width:1;stroke-dasharray:2,2;" x1="403.0469" x2="717.6475" y1="1306.0879" y2="1306.0879"/><text fill="#000000" font-family="sans-serif" font-size="13" lengthAdjust="spacing" textLength="296.6006" x="415.0469" y="1301.3457">400 Bad Request + "Vessel type already exists"</text></g><g class="message" data-participant-1="SPA" data-participant-2="ADMIN"><polygon fill="#181818" points="106.6387,1331.3984,96.6387,1335.3984,106.6387,1339.3984,102.6387,1335.3984" style="stroke:#181818;stroke-width:1;"/><line style="stroke:#181818;stroke-width:1;stroke-dasharray:2,2;" x1="100.6387" x2="397.0469" y1="1335.3984" y2="1335.3984"/><text fill="#000000" font-family="sans-serif" font-size="13" lengthAdjust="spacing" textLength="253.5698" x="112.6387" y="1330.6563">showError("Duplicate vessel type name")</text></g><path d="M10,1357.3984 L72.1387,1357.3984 L72.1387,1364.709 L62.1387,1374.709 L10,1374.709 L10,1357.3984" fill="#EEEEEE" style="stroke:#000000;stroke-width:1.5;"/><rect fill="none" height="75.9316" style="stroke:#000000;stroke-width:1.5;" width="799.8687" x="10" y="1357.3984"/><text fill="#000000" font-family="sans-serif" font-size="13" font-weight="bold" lengthAdjust="spacing" textLength="17.1387" x="25" y="1370.9668">alt</text><text fill="#000000" font-family="sans-serif" font-size="11" font-weight="bold" lengthAdjust="spacing" textLength="123.7822" x="87.1387" y="1370.0332">[Internal Server Error]</text><g class="message" data-participant-1="CTRL" data-participant-2="SPA"><polygon fill="#181818" points="409.0469,1392.0195,399.0469,1396.0195,409.0469,1400.0195,405.0469,1396.0195" style="stroke:#181818;stroke-width:1;"/><line style="stroke:#181818;stroke-width:1;stroke-dasharray:2,2;" x1="403.0469" x2="717.6475" y1="1396.0195" y2="1396.0195"/><text fill="#000000" font-family="sans-serif" font-size="13" lengthAdjust="spacing" textLength="155.0859" x="415.0469" y="1391.2773">500 Internal Server Error</text></g><g class="message" data-participant-1="SPA" data-participant-2="ADMIN"><polygon fill="#181818" points="106.6387,1421.3301,96.6387,1425.3301,106.6387,1429.3301,102.6387,1425.3301" style="stroke:#181818;stroke-width:1;"/><line style="stroke:#181818;stroke-width:1;stroke-dasharray:2,2;" x1="100.6387" x2="397.0469" y1="1425.3301" y2="1425.3301"/><text fill="#000000" font-family="sans-serif" font-size="13" lengthAdjust="spacing" textLength="252.0527" x="112.6387" y="1420.5879">showError("Failed to create vessel type")</text></g><!--SRC=[nLPDa-8s4BtpApeSif3CiBEfpMMgDYbZUtPS1PYrFUo5YsABGRL6SYGPXahblwSbOupvMf9BVC4stQtNx_M7DTCv1LTIeYdCg58qXsHRKBY7gHGfle0PevjEXwHQIEXEXTJWb7ef9DDR21SBbbBP1QB0ySR1f5CGgLdA2i8rTAkuLLWJTR3KgtpEU_7KwLiVl6bxF3R6hk1QYZpVXNUJQ7JHDgPoZK2gc3Ftebr42w4OPhArff4_3OziJO9ZmiahNL6klQ6ryuQTpZlurBxW9VOZ22Q97pbk4eIJOuFEgnHb0Kyip-57YCi_Lap3av2h3k1bwOBxtmm7y0WBj3B_zJXPqJl8g4ebApGJ_6xEKrAG5FbE_9SxM96tI6oKlHcIRNMJC2fLtmRc0gMKx7MfGInsgi3kSh8LuqnfIOoQvam5UabXNIclZV8BH37dX6UGvYpzfceP3ykZQoDIj36dTV3c746H_-N5ZnDu6eLVBv2pOoMYVvPKQHlLy86q6BsHbsc80TwJWhrlL9pplve7Juk_hHzMA5iRdBPIx2iRmr0ySp6KasMEslAqrtBkjvrDzLn8P-QC0i-nIa-VdTY_aDACv2mpeG9UbBkKyFmzZFh_1aKlgs6qjJDOQkLgBmK4oqaYNqpI32MaUQOUv_oqRA2kcgPavloaPjf2sgTtu2vf-iqK0cHbWKLWiZ4772PZUWUp-KprS3l1_ofgCPE1UJfYrJQQUMEzqDiRec_iZtmtWP_WAGh7qF2XuEkp7_bW0i4d-BqT2vlHF6E4-mO6Bv6L7XSDu5qtPFJOiOAmbyDu7bjQk1Ugm8tyxzV0cO7gSurQd9O3fnluTwLG1LT7dYYYEG0sJ2_dF52EISRGfsL9mRHpvPSv6bzoiUdrpsZV5dVVCUlzCJS96qnmD2PcDeQ7ilO6Wq7_1Z5LcPhDSvj-5umji3CfnMHDtINXhrHLgTsKa1kEnq42IUHCuchO_rzfLDQu6zTKwaJW03iHnres4xGrxOxZNnbtaHzFGnJoQg57L9UIuuygStqmS_TxxPU73tNXmS_NiJHpswu0357jo4VepWxsKxgBjcDiWVsx_Q5xhcVmuwBk6O-f8iV11wdW2oPNn8n8snKuHN6IfbhDkHQjHPXHJLWEQ_FzSykwywCeZE3PcNYZOFBvX32IwtgAcxCN69jcvmJJIud36Zon8emt7lvRIkraFqVpnuS769AiNgH8DPKIv_SAyy5lcREiggNO-CQgrpt1rUrNMHhGNci7u5ee-JNSmr8nZiT6PKvdJEJ_1NnBS9AZujaMw1j-kQZkzt9fu1wAQQ0V9XLmJIKdEPXFHoh1Efy3zok2ksny1SUJ9HAmgAgAFOIpG_8F]--></g></svg>