<svg xmlns="http://www.w3.org/2000/svg" xmlns:xlink="http://www.w3.org/1999/xlink" contentStyleType="text/css" data-diagram-type="SEQUENCE" height="1701px" preserveAspectRatio="none" style="width:1785px;height:1701px;background:#FFFFFF;" version="1.1" viewBox="0 0 1785 1701" width="1785px" zoomAndPan="magnify"><title>Update Vessel Type - Process View</title><defs/><g><text fill="#000000" font-family="sans-serif" font-size="14" font-weight="bold" lengthAdjust="spacing" textLength="254.8506" x="766.887" y="28.5352">Update Vessel Type - Process View</text><g><title>.VesselTypeController</title><rect fill="#FFFFFF" height="290.1055" style="stroke:#181818;stroke-width:1;" width="10" x="800.0376" y="301.1504"/></g><g><title>.VesselTypeService</title><rect fill="#FFFFFF" height="894.3164" style="stroke:#181818;stroke-width:1;" width="10" x="1075.4409" y="330.4609"/></g><g><title>.VesselTypeRepository</title><rect fill="#FFFFFF" height="87.9316" style="stroke:#181818;stroke-width:1;" width="10" x="1360.9097" y="391.082"/></g><g><title>.VesselTypeRepository</title><rect fill="#FFFFFF" height="87.9316" style="stroke:#181818;stroke-width:1;" width="10" x="1360.9097" y="718.498"/></g><g><title>.VesselTypeRepository</title><rect fill="#FFFFFF" height="87.9316" style="stroke:#181818;stroke-width:1;" width="10" x="1360.9097" y="1101.5352"/></g><g><title>.PortManagementDB</title><rect fill="#FFFFFF" height="29.3105" style="stroke:#181818;stroke-width:1;" width="10" x="1678.7217" y="420.3926"/></g><g><title>.PortManagementDB</title><rect fill="#FFFFFF" height="29.3105" style="stroke:#181818;stroke-width:1;" width="10" x="1678.7217" y="747.8086"/></g><g><title>.PortManagementDB</title><rect fill="#FFFFFF" height="29.3105" style="stroke:#181818;stroke-width:1;" width="10" x="1678.7217" y="1130.8457"/></g><rect fill="none" height="97.2422" style="stroke:#000000;stroke-width:1.5;" width="556.4619" x="30" y="135.9766"/><rect fill="none" height="91.2422" style="stroke:#000000;stroke-width:1.5;" width="771.873" x="389.3745" y="247.2188"/><rect fill="none" height="253.7949" style="stroke:#000000;stroke-width:1.5;" width="1749.6245" x="20" y="352.4609"/><rect fill="none" height="105.2422" style="stroke:#000000;stroke-width:1.5;" width="1131.2476" x="30" y="494.0137"/><rect fill="none" height="320.416" style="stroke:#000000;stroke-width:1.5;" width="1769.6245" x="10" y="620.2559"/><rect fill="none" height="253.7949" style="stroke:#000000;stroke-width:1.5;" width="1749.6245" x="20" y="679.877"/><rect fill="none" height="105.2422" style="stroke:#000000;stroke-width:1.5;" width="1131.2476" x="30" y="821.4297"/><rect fill="none" height="314.416" style="stroke:#000000;stroke-width:1.5;" width="1055.8081" x="713.8164" y="954.6719"/><rect fill="none" height="111.2422" style="stroke:#000000;stroke-width:1.5;" width="866.2588" x="30" y="1283.0879"/><rect fill="none" height="105.2422" style="stroke:#000000;stroke-width:1.5;" width="1131.2476" x="30" y="1408.3301"/><rect fill="none" height="75.9316" style="stroke:#000000;stroke-width:1.5;" width="866.2588" x="30" y="1527.5723"/><g><title>Port Authority Officer</title><rect fill="#000000" fill-opacity="0.00000" height="1501.5273" width="8" x="111.6387" y="118.9766"/><line style="stroke:#181818;stroke-width:0.5;stroke-dasharray:5,5;" x1="115" x2="115" y1="118.9766" y2="1620.5039"/></g><g><title>EditVesselType.html</title><rect fill="#000000" fill-opacity="0.00000" height="1501.5273" width="8" x="470.8774" y="118.9766"/><line style="stroke:#181818;stroke-width:0.5;stroke-dasharray:5,5;" x1="474.3745" x2="474.3745" y1="118.9766" y2="1620.5039"/></g><g><title>.VesselTypeController</title><rect fill="#000000" fill-opacity="0.00000" height="1501.5273" width="8" x="801.0376" y="118.9766"/><line style="stroke:#181818;stroke-width:0.5;stroke-dasharray:5,5;" x1="804.8164" x2="804.8164" y1="118.9766" y2="1620.5039"/></g><g><title>.VesselTypeService</title><rect fill="#000000" fill-opacity="0.00000" height="1501.5273" width="8" x="1076.4409" y="118.9766"/><line style="stroke:#181818;stroke-width:0.5;stroke-dasharray:5,5;" x1="1079.6343" x2="1079.6343" y1="118.9766" y2="1620.5039"/></g><g><title>.VesselTypeRepository</title><rect fill="#000000" fill-opacity="0.00000" height="1501.5273" width="8" x="1361.9097" y="118.9766"/><line style="stroke:#181818;stroke-width:0.5;stroke-dasharray:5,5;" x1="1365.7061" x2="1365.7061" y1="118.9766" y2="1620.5039"/></g><g><title>.PortManagementDB</title><rect fill="#000000" fill-opacity="0.00000" height="1501.5273" width="8" x="1679.7217" y="118.9766"/><line style="stroke:#181818;stroke-width:0.5;stroke-dasharray:5,5;" x1="1682.8188" x2="1682.8188" y1="118.9766" y2="1620.5039"/></g><g class="participant participant-head" data-participant="ADMIN"><text fill="#000000" font-family="sans-serif" font-size="14" lengthAdjust="spacing" textLength="145.2773" x="40" y="116.0234">Port Authority Officer</text><ellipse cx="115.6387" cy="50.9883" fill="#E2E2F0" rx="8" ry="8" style="stroke:#181818;stroke-width:0.5;"/><path d="M115.6387,58.9883 L115.6387,85.9883 M102.6387,66.9883 L128.6387,66.9883 M115.6387,85.9883 L102.6387,100.9883 M115.6387,85.9883 L128.6387,100.9883" fill="none" style="stroke:#181818;stroke-width:0.5;"/></g><g class="participant participant-tail" data-participant="ADMIN"><text fill="#000000" font-family="sans-serif" font-size="14" lengthAdjust="spacing" textLength="145.2773" x="40" y="1633.0391">Port Authority Officer</text><ellipse cx="115.6387" cy="1644.4922" fill="#E2E2F0" rx="8" ry="8" style="stroke:#181818;stroke-width:0.5;"/><path d="M115.6387,1652.4922 L115.6387,1679.4922 M102.6387,1660.4922 L128.6387,1660.4922 M115.6387,1679.4922 L102.6387,1694.4922 M115.6387,1679.4922 L128.6387,1694.4922" fill="none" style="stroke:#181818;stroke-width:0.5;"/></g><g class="participant participant-head" data-participant="SPA"><rect fill="#E2E2F0" height="46.9766" rx="2.5" ry="2.5" style="stroke:#181818;stroke-width:0.5;" width="151.0059" x="399.3745" y="71"/><text fill="#000000" font-family="sans-serif" font-size="14" lengthAdjust="spacing" textLength="137.0059" x="406.3745" y="91.5352">EditVesselType.html</text><text fill="#000000" font-family="sans-serif" font-size="14" lengthAdjust="spacing" textLength="34.043" x="457.856" y="108.0234">(SPA)</text></g><g class="participant participant-tail" data-participant="SPA"><rect fill="#E2E2F0" height="46.9766" rx="2.5" ry="2.5" style="stroke:#181818;stroke-width:0.5;" width="151.0059" x="399.3745" y="1619.5039"/><text fill="#000000" font-family="sans-serif" font-size="14" lengthAdjust="spacing" textLength="137.0059" x="406.3745" y="1640.0391">EditVesselType.html</text><text fill="#000000" font-family="sans-serif" font-size="14" lengthAdjust="spacing" textLength="34.043" x="457.856" y="1656.5273">(SPA)</text></g><g class="participant participant-head" data-participant="CTRL"><rect fill="#E2E2F0" height="30.4883" rx="2.5" ry="2.5" style="stroke:#181818;stroke-width:0.5;" width="162.4424" x="723.8164" y="87.4883"/><text fill="#000000" font-family="sans-serif" font-size="14" lengthAdjust="spacing" textLength="148.4424" x="730.8164" y="108.0234">:VesselTypeController</text></g><g class="participant participant-tail" data-participant="CTRL"><rect fill="#E2E2F0" height="30.4883" rx="2.5" ry="2.5" style="stroke:#181818;stroke-width:0.5;" width="162.4424" x="723.8164" y="1619.5039"/><text fill="#000000" font-family="sans-serif" font-size="14" lengthAdjust="spacing" textLength="148.4424" x="730.8164" y="1640.0391">:VesselTypeController</text></g><g class="participant participant-head" data-participant="SVC"><rect fill="#E2E2F0" height="30.4883" rx="2.5" ry="2.5" style="stroke:#181818;stroke-width:0.5;" width="141.6133" x="1009.6343" y="87.4883"/><text fill="#000000" font-family="sans-serif" font-size="14" lengthAdjust="spacing" textLength="127.6133" x="1016.6343" y="108.0234">:VesselTypeService</text></g><g class="participant participant-tail" data-participant="SVC"><rect fill="#E2E2F0" height="30.4883" rx="2.5" ry="2.5" style="stroke:#181818;stroke-width:0.5;" width="141.6133" x="1009.6343" y="1619.5039"/><text fill="#000000" font-family="sans-serif" font-size="14" lengthAdjust="spacing" textLength="127.6133" x="1016.6343" y="1640.0391">:VesselTypeService</text></g><g class="participant participant-head" data-participant="REPO"><rect fill="#E2E2F0" height="30.4883" rx="2.5" ry="2.5" style="stroke:#181818;stroke-width:0.5;" width="166.4072" x="1282.7061" y="87.4883"/><text fill="#000000" font-family="sans-serif" font-size="14" lengthAdjust="spacing" textLength="152.4072" x="1289.7061" y="108.0234">:VesselTypeRepository</text></g><g class="participant participant-tail" data-participant="REPO"><rect fill="#E2E2F0" height="30.4883" rx="2.5" ry="2.5" style="stroke:#181818;stroke-width:0.5;" width="166.4072" x="1282.7061" y="1619.5039"/><text fill="#000000" font-family="sans-serif" font-size="14" lengthAdjust="spacing" textLength="152.4072" x="1289.7061" y="1640.0391">:VesselTypeRepository</text></g><g class="participant participant-head" data-participant="DB"><rect fill="#E2E2F0" height="30.4883" rx="2.5" ry="2.5" style="stroke:#181818;stroke-width:0.5;" width="151.8057" x="1607.8188" y="87.4883"/><text fill="#000000" font-family="sans-serif" font-size="14" lengthAdjust="spacing" textLength="137.8057" x="1614.8188" y="108.0234">:PortManagementDB</text></g><g class="participant participant-tail" data-participant="DB"><rect fill="#E2E2F0" height="30.4883" rx="2.5" ry="2.5" style="stroke:#181818;stroke-width:0.5;" width="151.8057" x="1607.8188" y="1619.5039"/><text fill="#000000" font-family="sans-serif" font-size="14" lengthAdjust="spacing" textLength="137.8057" x="1614.8188" y="1640.0391">:PortManagementDB</text></g><g><title>.VesselTypeController</title><rect fill="#FFFFFF" height="290.1055" style="stroke:#181818;stroke-width:1;" width="10" x="800.0376" y="301.1504"/></g><g><title>.VesselTypeService</title><rect fill="#FFFFFF" height="894.3164" style="stroke:#181818;stroke-width:1;" width="10" x="1075.4409" y="330.4609"/></g><g><title>.VesselTypeRepository</title><rect fill="#FFFFFF" height="87.9316" style="stroke:#181818;stroke-width:1;" width="10" x="1360.9097" y="391.082"/></g><g><title>.VesselTypeRepository</title><rect fill="#FFFFFF" height="87.9316" style="stroke:#181818;stroke-width:1;" width="10" x="1360.9097" y="718.498"/></g><g><title>.VesselTypeRepository</title><rect fill="#FFFFFF" height="87.9316" style="stroke:#181818;stroke-width:1;" width="10" x="1360.9097" y="1101.5352"/></g><g><title>.PortManagementDB</title><rect fill="#FFFFFF" height="29.3105" style="stroke:#181818;stroke-width:1;" width="10" x="1678.7217" y="420.3926"/></g><g><title>.PortManagementDB</title><rect fill="#FFFFFF" height="29.3105" style="stroke:#181818;stroke-width:1;" width="10" x="1678.7217" y="747.8086"/></g><g><title>.PortManagementDB</title><rect fill="#FFFFFF" height="29.3105" style="stroke:#181818;stroke-width:1;" width="10" x="1678.7217" y="1130.8457"/></g><path d="M30,135.9766 L228.8481,135.9766 L228.8481,143.2871 L218.8481,153.2871 L30,153.2871 L30,135.9766" fill="#EEEEEE" style="stroke:#000000;stroke-width:1.5;"/><rect fill="none" height="97.2422" style="stroke:#000000;stroke-width:1.5;" width="556.4619" x="30" y="135.9766"/><text fill="#000000" font-family="sans-serif" font-size="13" font-weight="bold" lengthAdjust="spacing" textLength="153.8481" x="45" y="149.5449">Fill &amp; Submit Edit Form</text><g class="message" data-participant-1="ADMIN" data-participant-2="SPA"><polygon fill="#181818" points="462.8774,185.9082,472.8774,189.9082,462.8774,193.9082,466.8774,189.9082" style="stroke:#181818;stroke-width:1;"/><line style="stroke:#181818;stroke-width:1;" x1="115.6387" x2="468.8774" y1="189.9082" y2="189.9082"/><text fill="#000000" font-family="sans-serif" font-size="13" lengthAdjust="spacing" textLength="198.4595" x="122.6387" y="169.8555">editForm(id, name, description,</text><text fill="#000000" font-family="sans-serif" font-size="13" lengthAdjust="spacing" textLength="335.2388" x="122.6387" y="185.166">capacityTEU, maxRows, maxBays, maxTiers, isActive)</text></g><path d="M120,202.9082 L120,227.9082 L576,227.9082 L576,212.9082 L566,202.9082 L120,202.9082" fill="#FEFFDD" style="stroke:#181818;stroke-width:0.5;"/><path d="M566,202.9082 L566,212.9082 L576,212.9082 L566,202.9082" fill="#FEFFDD" style="stroke:#181818;stroke-width:0.5;"/><text fill="#000000" font-family="sans-serif" font-size="13" lengthAdjust="spacing" textLength="435.4619" x="126" y="220.4766">Administrator modifies vessel type fields\nand clicks "Save Changes"</text><path d="M389.3745,247.2188 L590.9268,247.2188 L590.9268,254.5293 L580.9268,264.5293 L389.3745,264.5293 L389.3745,247.2188" fill="#EEEEEE" style="stroke:#000000;stroke-width:1.5;"/><rect fill="none" height="91.2422" style="stroke:#000000;stroke-width:1.5;" width="771.873" x="389.3745" y="247.2188"/><text fill="#000000" font-family="sans-serif" font-size="13" font-weight="bold" lengthAdjust="spacing" textLength="156.5522" x="404.3745" y="260.7871">Submit Update Request</text><g class="message" data-participant-1="SPA" data-participant-2="CTRL"><polygon fill="#181818" points="788.0376,297.1504,798.0376,301.1504,788.0376,305.1504,792.0376,301.1504" style="stroke:#181818;stroke-width:1;"/><line style="stroke:#181818;stroke-width:1;" x1="474.8774" x2="794.0376" y1="301.1504" y2="301.1504"/><text fill="#000000" font-family="sans-serif" font-size="13" lengthAdjust="spacing" textLength="177.436" x="481.8774" y="281.0977">PATCH /api/VesselType/{id}</text><text fill="#000000" font-family="sans-serif" font-size="13" lengthAdjust="spacing" textLength="101.4736" x="481.8774" y="296.4082">{VesselTypeDto}</text></g><g class="message" data-participant-1="CTRL" data-participant-2="SVC"><polygon fill="#181818" points="1063.4409,326.4609,1073.4409,330.4609,1063.4409,334.4609,1067.4409,330.4609" style="stroke:#181818;stroke-width:1;"/><line style="stroke:#181818;stroke-width:1;" x1="810.0376" x2="1069.4409" y1="330.4609" y2="330.4609"/><text fill="#000000" font-family="sans-serif" font-size="13" lengthAdjust="spacing" textLength="203.4106" x="817.0376" y="325.7188">UpdateAsync(id, VesselTypeDto)</text></g><path d="M20,352.4609 L308.5596,352.4609 L308.5596,359.7715 L298.5596,369.7715 L20,369.7715 L20,352.4609" fill="#EEEEEE" style="stroke:#000000;stroke-width:1.5;"/><rect fill="none" height="253.7949" style="stroke:#000000;stroke-width:1.5;" width="1749.6245" x="20" y="352.4609"/><text fill="#000000" font-family="sans-serif" font-size="13" font-weight="bold" lengthAdjust="spacing" textLength="243.5596" x="35" y="366.0293">Retrieve and Validate Existing Entity</text><g class="message" data-participant-1="SVC" data-participant-2="REPO"><polygon fill="#181818" points="1348.9097,387.082,1358.9097,391.082,1348.9097,395.082,1352.9097,391.082" style="stroke:#181818;stroke-width:1;"/><line style="stroke:#181818;stroke-width:1;" x1="1085.4409" x2="1354.9097" y1="391.082" y2="391.082"/><text fill="#000000" font-family="sans-serif" font-size="13" lengthAdjust="spacing" textLength="105.2061" x="1092.4409" y="386.3398">GetByIdAsync(id)</text></g><g class="message" data-participant-1="REPO" data-participant-2="DB"><polygon fill="#181818" points="1666.7217,416.3926,1676.7217,420.3926,1666.7217,424.3926,1670.7217,420.3926" style="stroke:#181818;stroke-width:1;"/><line style="stroke:#181818;stroke-width:1;" x1="1370.9097" x2="1672.7217" y1="420.3926" y2="420.3926"/><text fill="#000000" font-family="sans-serif" font-size="13" lengthAdjust="spacing" textLength="264.5767" x="1377.9097" y="415.6504">SELECT * FROM VesselTypes WHERE Id = ?</text></g><g class="message" data-participant-1="DB" data-participant-2="REPO"><polygon fill="#181818" points="1381.9097,445.7031,1371.9097,449.7031,1381.9097,453.7031,1377.9097,449.7031" style="stroke:#181818;stroke-width:1;"/><line style="stroke:#181818;stroke-width:1;stroke-dasharray:2,2;" x1="1375.9097" x2="1682.7217" y1="449.7031" y2="449.7031"/><text fill="#000000" font-family="sans-serif" font-size="13" lengthAdjust="spacing" textLength="115.6162" x="1387.9097" y="444.9609">VesselType or null</text></g><g class="message" data-participant-1="REPO" data-participant-2="SVC"><polygon fill="#181818" points="1096.4409,475.0137,1086.4409,479.0137,1096.4409,483.0137,1092.4409,479.0137" style="stroke:#181818;stroke-width:1;"/><line style="stroke:#181818;stroke-width:1;stroke-dasharray:2,2;" x1="1090.4409" x2="1364.9097" y1="479.0137" y2="479.0137"/><text fill="#000000" font-family="sans-serif" font-size="13" lengthAdjust="spacing" textLength="115.6162" x="1102.4409" y="474.2715">VesselType or null</text></g><path d="M30,494.0137 L92.1387,494.0137 L92.1387,501.3242 L82.1387,511.3242 L30,511.3242 L30,494.0137" fill="#EEEEEE" style="stroke:#000000;stroke-width:1.5;"/><rect fill="none" height="105.2422" style="stroke:#000000;stroke-width:1.5;" width="1131.2476" x="30" y="494.0137"/><text fill="#000000" font-family="sans-serif" font-size="13" font-weight="bold" lengthAdjust="spacing" textLength="17.1387" x="45" y="507.582">alt</text><text fill="#000000" font-family="sans-serif" font-size="11" font-weight="bold" lengthAdjust="spacing" textLength="132.2578" x="107.1387" y="506.6484">[Vessel type not found]</text><g class="message" data-participant-1="SVC" data-participant-2="CTRL"><polygon fill="#181818" points="821.0376,528.6348,811.0376,532.6348,821.0376,536.6348,817.0376,532.6348" style="stroke:#181818;stroke-width:1;"/><line style="stroke:#181818;stroke-width:1;stroke-dasharray:2,2;" x1="815.0376" x2="1074.4409" y1="532.6348" y2="532.6348"/><text fill="#000000" font-family="sans-serif" font-size="13" lengthAdjust="spacing" textLength="23.6514" x="827.0376" y="527.8926">null</text></g><g class="message" data-participant-1="CTRL" data-participant-2="SPA"><polygon fill="#181818" points="485.8774,557.9453,475.8774,561.9453,485.8774,565.9453,481.8774,561.9453" style="stroke:#181818;stroke-width:1;"/><line style="stroke:#181818;stroke-width:1;stroke-dasharray:2,2;" x1="479.8774" x2="799.0376" y1="561.9453" y2="561.9453"/><text fill="#000000" font-family="sans-serif" font-size="13" lengthAdjust="spacing" textLength="94.6118" x="491.8774" y="557.2031">404 Not Found</text></g><g class="message" data-participant-1="SPA" data-participant-2="ADMIN"><polygon fill="#181818" points="126.6387,587.2559,116.6387,591.2559,126.6387,595.2559,122.6387,591.2559" style="stroke:#181818;stroke-width:1;"/><line style="stroke:#181818;stroke-width:1;stroke-dasharray:2,2;" x1="120.6387" x2="473.8774" y1="591.2559" y2="591.2559"/><text fill="#000000" font-family="sans-serif" font-size="13" lengthAdjust="spacing" textLength="147.126" x="132.6387" y="586.5137">"Vessel type not found"</text></g><path d="M10,620.2559 L213.3359,620.2559 L213.3359,627.5664 L203.3359,637.5664 L10,637.5664 L10,620.2559" fill="#EEEEEE" style="stroke:#000000;stroke-width:1.5;"/><rect fill="none" height="320.416" style="stroke:#000000;stroke-width:1.5;" width="1769.6245" x="10" y="620.2559"/><text fill="#000000" font-family="sans-serif" font-size="13" font-weight="bold" lengthAdjust="spacing" textLength="158.3359" x="25" y="633.8242">Validate Updated Fields</text><path d="M1090,642.5664 L1090,667.5664 L1585,667.5664 L1585,652.5664 L1575,642.5664 L1090,642.5664" fill="#FEFFDD" style="stroke:#181818;stroke-width:0.5;"/><path d="M1575,642.5664 L1575,652.5664 L1585,652.5664 L1575,642.5664" fill="#FEFFDD" style="stroke:#181818;stroke-width:0.5;"/><text fill="#000000" font-family="sans-serif" font-size="13" lengthAdjust="spacing" textLength="474.6016" x="1096" y="660.1348">Validates provided fields and checks\nfor duplicate name if it was changed</text><path d="M20,679.877 L82.1387,679.877 L82.1387,687.1875 L72.1387,697.1875 L20,697.1875 L20,679.877" fill="#EEEEEE" style="stroke:#000000;stroke-width:1.5;"/><rect fill="none" height="253.7949" style="stroke:#000000;stroke-width:1.5;" width="1749.6245" x="20" y="679.877"/><text fill="#000000" font-family="sans-serif" font-size="13" font-weight="bold" lengthAdjust="spacing" textLength="17.1387" x="35" y="693.4453">alt</text><text fill="#000000" font-family="sans-serif" font-size="11" font-weight="bold" lengthAdjust="spacing" textLength="115.1079" x="97.1387" y="692.5117">[Name has changed]</text><g class="message" data-participant-1="SVC" data-participant-2="REPO"><polygon fill="#181818" points="1348.9097,714.498,1358.9097,718.498,1348.9097,722.498,1352.9097,718.498" style="stroke:#181818;stroke-width:1;"/><line style="stroke:#181818;stroke-width:1;" x1="1085.4409" x2="1354.9097" y1="718.498" y2="718.498"/><text fill="#000000" font-family="sans-serif" font-size="13" lengthAdjust="spacing" textLength="178.8071" x="1092.4409" y="713.7559">GetByNameAsync(dto.Name)</text></g><g class="message" data-participant-1="REPO" data-participant-2="DB"><polygon fill="#181818" points="1666.7217,743.8086,1676.7217,747.8086,1666.7217,751.8086,1670.7217,747.8086" style="stroke:#181818;stroke-width:1;"/><line style="stroke:#181818;stroke-width:1;" x1="1370.9097" x2="1672.7217" y1="747.8086" y2="747.8086"/><text fill="#000000" font-family="sans-serif" font-size="13" lengthAdjust="spacing" textLength="288.812" x="1377.9097" y="743.0664">SELECT * FROM VesselTypes WHERE Name = ?</text></g><g class="message" data-participant-1="DB" data-participant-2="REPO"><polygon fill="#181818" points="1381.9097,773.1191,1371.9097,777.1191,1381.9097,781.1191,1377.9097,777.1191" style="stroke:#181818;stroke-width:1;"/><line style="stroke:#181818;stroke-width:1;stroke-dasharray:2,2;" x1="1375.9097" x2="1682.7217" y1="777.1191" y2="777.1191"/><text fill="#000000" font-family="sans-serif" font-size="13" lengthAdjust="spacing" textLength="115.6162" x="1387.9097" y="772.377">VesselType or null</text></g><g class="message" data-participant-1="REPO" data-participant-2="SVC"><polygon fill="#181818" points="1096.4409,802.4297,1086.4409,806.4297,1096.4409,810.4297,1092.4409,806.4297" style="stroke:#181818;stroke-width:1;"/><line style="stroke:#181818;stroke-width:1;stroke-dasharray:2,2;" x1="1090.4409" x2="1364.9097" y1="806.4297" y2="806.4297"/><text fill="#000000" font-family="sans-serif" font-size="13" lengthAdjust="spacing" textLength="115.6162" x="1102.4409" y="801.6875">VesselType or null</text></g><path d="M30,821.4297 L92.1387,821.4297 L92.1387,828.7402 L82.1387,838.7402 L30,838.7402 L30,821.4297" fill="#EEEEEE" style="stroke:#000000;stroke-width:1.5;"/><rect fill="none" height="105.2422" style="stroke:#000000;stroke-width:1.5;" width="1131.2476" x="30" y="821.4297"/><text fill="#000000" font-family="sans-serif" font-size="13" font-weight="bold" lengthAdjust="spacing" textLength="17.1387" x="45" y="834.998">alt</text><text fill="#000000" font-family="sans-serif" font-size="11" font-weight="bold" lengthAdjust="spacing" textLength="133.144" x="107.1387" y="834.0645">[Duplicate name found]</text><g class="message" data-participant-1="SVC" data-participant-2="CTRL"><polygon fill="#181818" points="816.0376,856.0508,806.0376,860.0508,816.0376,864.0508,812.0376,860.0508" style="stroke:#181818;stroke-width:1;"/><line style="stroke:#181818;stroke-width:1;stroke-dasharray:2,2;" x1="810.0376" x2="1074.4409" y1="860.0508" y2="860.0508"/><text fill="#000000" font-family="sans-serif" font-size="13" lengthAdjust="spacing" textLength="246.4033" x="822.0376" y="855.3086">throws BusinessRuleViolationException</text></g><g class="message" data-participant-1="CTRL" data-participant-2="SPA"><polygon fill="#181818" points="485.8774,885.3613,475.8774,889.3613,485.8774,893.3613,481.8774,889.3613" style="stroke:#181818;stroke-width:1;"/><line style="stroke:#181818;stroke-width:1;stroke-dasharray:2,2;" x1="479.8774" x2="804.0376" y1="889.3613" y2="889.3613"/><text fill="#000000" font-family="sans-serif" font-size="13" lengthAdjust="spacing" textLength="306.1602" x="491.8774" y="884.6191">400 Bad Request + "Duplicate vessel type name"</text></g><g class="message" data-participant-1="SPA" data-participant-2="ADMIN"><polygon fill="#181818" points="126.6387,914.6719,116.6387,918.6719,126.6387,922.6719,122.6387,918.6719" style="stroke:#181818;stroke-width:1;"/><line style="stroke:#181818;stroke-width:1;stroke-dasharray:2,2;" x1="120.6387" x2="473.8774" y1="918.6719" y2="918.6719"/><text fill="#000000" font-family="sans-serif" font-size="13" lengthAdjust="spacing" textLength="244.0103" x="132.6387" y="913.9297">showError("Vessel type already exists")</text></g><path d="M713.8164,954.6719 L933.7134,954.6719 L933.7134,961.9824 L923.7134,971.9824 L713.8164,971.9824 L713.8164,954.6719" fill="#EEEEEE" style="stroke:#000000;stroke-width:1.5;"/><rect fill="none" height="314.416" style="stroke:#000000;stroke-width:1.5;" width="1055.8081" x="713.8164" y="954.6719"/><text fill="#000000" font-family="sans-serif" font-size="13" font-weight="bold" lengthAdjust="spacing" textLength="174.897" x="728.8164" y="968.2402">Update Vessel Type Entity</text><g class="message" data-participant-1="SVC" data-participant-2="SVC"><line style="stroke:#181818;stroke-width:1;" x1="1085.4409" x2="1127.4409" y1="1023.9141" y2="1023.9141"/><line style="stroke:#181818;stroke-width:1;" x1="1127.4409" x2="1127.4409" y1="1023.9141" y2="1036.9141"/><line style="stroke:#181818;stroke-width:1;" x1="1086.4409" x2="1127.4409" y1="1036.9141" y2="1036.9141"/><polygon fill="#181818" points="1096.4409,1032.9141,1086.4409,1036.9141,1096.4409,1040.9141,1092.4409,1036.9141" style="stroke:#181818;stroke-width:1;"/><text fill="#000000" font-family="sans-serif" font-size="13" lengthAdjust="spacing" textLength="122.8145" x="1092.4409" y="988.5508">Update entity fields</text><text fill="#000000" font-family="sans-serif" font-size="13" lengthAdjust="spacing" textLength="205.6069" x="1092.4409" y="1003.8613">(name, description, capacityTEU,</text><text fill="#000000" font-family="sans-serif" font-size="13" lengthAdjust="spacing" textLength="251.4688" x="1092.4409" y="1019.1719">maxRows, maxBays, maxTiers, isActive)</text></g><path d="M1090,1049.9141 L1090,1074.9141 L1556,1074.9141 L1556,1059.9141 L1546,1049.9141 L1090,1049.9141" fill="#FEFFDD" style="stroke:#181818;stroke-width:0.5;"/><path d="M1546,1049.9141 L1546,1059.9141 L1556,1059.9141 L1546,1049.9141" fill="#FEFFDD" style="stroke:#181818;stroke-width:0.5;"/><text fill="#000000" font-family="sans-serif" font-size="13" lengthAdjust="spacing" textLength="445.0596" x="1096" y="1067.4824">Applies only non-null fields and sets\nUpdatedAt = DateTime.UtcNow</text><g class="message" data-participant-1="SVC" data-participant-2="REPO"><polygon fill="#181818" points="1348.9097,1097.5352,1358.9097,1101.5352,1348.9097,1105.5352,1352.9097,1101.5352" style="stroke:#181818;stroke-width:1;"/><line style="stroke:#181818;stroke-width:1;" x1="1085.4409" x2="1354.9097" y1="1101.5352" y2="1101.5352"/><text fill="#000000" font-family="sans-serif" font-size="13" lengthAdjust="spacing" textLength="128.0068" x="1092.4409" y="1096.793">SaveChangesAsync()</text></g><g class="message" data-participant-1="REPO" data-participant-2="DB"><polygon fill="#181818" points="1666.7217,1126.8457,1676.7217,1130.8457,1666.7217,1134.8457,1670.7217,1130.8457" style="stroke:#181818;stroke-width:1;"/><line style="stroke:#181818;stroke-width:1;" x1="1370.9097" x2="1672.7217" y1="1130.8457" y2="1130.8457"/><text fill="#000000" font-family="sans-serif" font-size="13" lengthAdjust="spacing" textLength="261.3584" x="1377.9097" y="1126.1035">UPDATE VesselTypes SET ... WHERE Id = ?</text></g><g class="message" data-participant-1="DB" data-participant-2="REPO"><polygon fill="#181818" points="1381.9097,1156.1563,1371.9097,1160.1563,1381.9097,1164.1563,1377.9097,1160.1563" style="stroke:#181818;stroke-width:1;"/><line style="stroke:#181818;stroke-width:1;stroke-dasharray:2,2;" x1="1375.9097" x2="1682.7217" y1="1160.1563" y2="1160.1563"/><text fill="#000000" font-family="sans-serif" font-size="13" lengthAdjust="spacing" textLength="48.5088" x="1387.9097" y="1155.4141">success</text></g><g class="message" data-participant-1="REPO" data-participant-2="SVC"><polygon fill="#181818" points="1096.4409,1185.4668,1086.4409,1189.4668,1096.4409,1193.4668,1092.4409,1189.4668" style="stroke:#181818;stroke-width:1;"/><line style="stroke:#181818;stroke-width:1;stroke-dasharray:2,2;" x1="1090.4409" x2="1364.9097" y1="1189.4668" y2="1189.4668"/><text fill="#000000" font-family="sans-serif" font-size="13" lengthAdjust="spacing" textLength="48.5088" x="1102.4409" y="1184.7246">success</text></g><g class="message" data-participant-1="SVC" data-participant-2="SVC"><line style="stroke:#181818;stroke-width:1;" x1="1085.4409" x2="1127.4409" y1="1223.7773" y2="1223.7773"/><line style="stroke:#181818;stroke-width:1;" x1="1127.4409" x2="1127.4409" y1="1223.7773" y2="1236.7773"/><line style="stroke:#181818;stroke-width:1;" x1="1080.4409" x2="1127.4409" y1="1236.7773" y2="1236.7773"/><polygon fill="#181818" points="1090.4409,1232.7773,1080.4409,1236.7773,1090.4409,1240.7773,1086.4409,1236.7773" style="stroke:#181818;stroke-width:1;"/><text fill="#000000" font-family="sans-serif" font-size="13" lengthAdjust="spacing" textLength="165.1089" x="1092.4409" y="1219.0352">ConvertToDto(vesselType)</text></g><g class="message" data-participant-1="SVC" data-participant-2="CTRL"><polygon fill="#181818" points="816.0376,1257.0879,806.0376,1261.0879,816.0376,1265.0879,812.0376,1261.0879" style="stroke:#181818;stroke-width:1;"/><line style="stroke:#181818;stroke-width:1;stroke-dasharray:2,2;" x1="810.0376" x2="1079.4409" y1="1261.0879" y2="1261.0879"/><text fill="#000000" font-family="sans-serif" font-size="13" lengthAdjust="spacing" textLength="157.4854" x="822.0376" y="1256.3457">VesselTypeDto (updated)</text></g><path d="M30,1283.0879 L166.0952,1283.0879 L166.0952,1290.3984 L156.0952,1300.3984 L30,1300.3984 L30,1283.0879" fill="#EEEEEE" style="stroke:#000000;stroke-width:1.5;"/><rect fill="none" height="111.2422" style="stroke:#000000;stroke-width:1.5;" width="866.2588" x="30" y="1283.0879"/><text fill="#000000" font-family="sans-serif" font-size="13" font-weight="bold" lengthAdjust="spacing" textLength="91.0952" x="45" y="1296.6563">Return Result</text><g class="message" data-participant-1="CTRL" data-participant-2="SPA"><polygon fill="#181818" points="485.8774,1317.709,475.8774,1321.709,485.8774,1325.709,481.8774,1321.709" style="stroke:#181818;stroke-width:1;"/><line style="stroke:#181818;stroke-width:1;stroke-dasharray:2,2;" x1="479.8774" x2="804.0376" y1="1321.709" y2="1321.709"/><text fill="#000000" font-family="sans-serif" font-size="13" lengthAdjust="spacing" textLength="158.939" x="491.8774" y="1316.9668">200 OK + VesselTypeDto</text></g><g class="message" data-participant-1="SPA" data-participant-2="ADMIN"><polygon fill="#181818" points="126.6387,1347.0195,116.6387,1351.0195,126.6387,1355.0195,122.6387,1351.0195" style="stroke:#181818;stroke-width:1;"/><line style="stroke:#181818;stroke-width:1;stroke-dasharray:2,2;" x1="120.6387" x2="473.8774" y1="1351.0195" y2="1351.0195"/><text fill="#000000" font-family="sans-serif" font-size="13" lengthAdjust="spacing" textLength="220.8032" x="132.6387" y="1346.2773">"Vessel type updated successfully!"</text></g><path d="M479,1364.0195 L479,1389.0195 L884,1389.0195 L884,1374.0195 L874,1364.0195 L479,1364.0195" fill="#FEFFDD" style="stroke:#181818;stroke-width:0.5;"/><path d="M874,1364.0195 L874,1374.0195 L884,1374.0195 L874,1364.0195" fill="#FEFFDD" style="stroke:#181818;stroke-width:0.5;"/><text fill="#000000" font-family="sans-serif" font-size="13" lengthAdjust="spacing" textLength="384.7061" x="485" y="1381.5879">Displays success message\nand refreshes vessel type details</text><path d="M30,1408.3301 L92.1387,1408.3301 L92.1387,1415.6406 L82.1387,1425.6406 L30,1425.6406 L30,1408.3301" fill="#EEEEEE" style="stroke:#000000;stroke-width:1.5;"/><rect fill="none" height="105.2422" style="stroke:#000000;stroke-width:1.5;" width="1131.2476" x="30" y="1408.3301"/><text fill="#000000" font-family="sans-serif" font-size="13" font-weight="bold" lengthAdjust="spacing" textLength="17.1387" x="45" y="1421.8984">alt</text><text fill="#000000" font-family="sans-serif" font-size="11" font-weight="bold" lengthAdjust="spacing" textLength="101.041" x="107.1387" y="1420.9648">[Validation failed]</text><g class="message" data-participant-1="SVC" data-participant-2="CTRL"><polygon fill="#181818" points="816.0376,1442.9512,806.0376,1446.9512,816.0376,1450.9512,812.0376,1446.9512" style="stroke:#181818;stroke-width:1;"/><line style="stroke:#181818;stroke-width:1;stroke-dasharray:2,2;" x1="810.0376" x2="1079.4409" y1="1446.9512" y2="1446.9512"/><text fill="#000000" font-family="sans-serif" font-size="13" lengthAdjust="spacing" textLength="220.8604" x="822.0376" y="1442.209">throws DomainValidationException</text></g><g class="message" data-participant-1="CTRL" data-participant-2="SPA"><polygon fill="#181818" points="485.8774,1472.2617,475.8774,1476.2617,485.8774,1480.2617,481.8774,1476.2617" style="stroke:#181818;stroke-width:1;"/><line style="stroke:#181818;stroke-width:1;stroke-dasharray:2,2;" x1="479.8774" x2="804.0376" y1="1476.2617" y2="1476.2617"/><text fill="#000000" font-family="sans-serif" font-size="13" lengthAdjust="spacing" textLength="236.6851" x="491.8774" y="1471.5195">400 Bad Request + "Validation failed"</text></g><g class="message" data-participant-1="SPA" data-participant-2="ADMIN"><polygon fill="#181818" points="126.6387,1501.5723,116.6387,1505.5723,126.6387,1509.5723,122.6387,1505.5723" style="stroke:#181818;stroke-width:1;"/><line style="stroke:#181818;stroke-width:1;stroke-dasharray:2,2;" x1="120.6387" x2="473.8774" y1="1505.5723" y2="1505.5723"/><text fill="#000000" font-family="sans-serif" font-size="13" lengthAdjust="spacing" textLength="228.3188" x="132.6387" y="1500.8301">showError("Invalid vessel type data")</text></g><path d="M30,1527.5723 L92.1387,1527.5723 L92.1387,1534.8828 L82.1387,1544.8828 L30,1544.8828 L30,1527.5723" fill="#EEEEEE" style="stroke:#000000;stroke-width:1.5;"/><rect fill="none" height="75.9316" style="stroke:#000000;stroke-width:1.5;" width="866.2588" x="30" y="1527.5723"/><text fill="#000000" font-family="sans-serif" font-size="13" font-weight="bold" lengthAdjust="spacing" textLength="17.1387" x="45" y="1541.1406">alt</text><text fill="#000000" font-family="sans-serif" font-size="11" font-weight="bold" lengthAdjust="spacing" textLength="123.7822" x="107.1387" y="1540.207">[Internal Server Error]</text><g class="message" data-participant-1="CTRL" data-participant-2="SPA"><polygon fill="#181818" points="485.8774,1562.1934,475.8774,1566.1934,485.8774,1570.1934,481.8774,1566.1934" style="stroke:#181818;stroke-width:1;"/><line style="stroke:#181818;stroke-width:1;stroke-dasharray:2,2;" x1="479.8774" x2="804.0376" y1="1566.1934" y2="1566.1934"/><text fill="#000000" font-family="sans-serif" font-size="13" lengthAdjust="spacing" textLength="155.0859" x="491.8774" y="1561.4512">500 Internal Server Error</text></g><g class="message" data-participant-1="SPA" data-participant-2="ADMIN"><polygon fill="#181818" points="126.6387,1591.5039,116.6387,1595.5039,126.6387,1599.5039,122.6387,1595.5039" style="stroke:#181818;stroke-width:1;"/><line style="stroke:#181818;stroke-width:1;stroke-dasharray:2,2;" x1="120.6387" x2="473.8774" y1="1595.5039" y2="1595.5039"/><text fill="#000000" font-family="sans-serif" font-size="13" lengthAdjust="spacing" textLength="257.2642" x="132.6387" y="1590.7617">showError("Failed to update vessel type")</text></g><!--SRC=[dLTHSzeu47xdL-pveGTt2UdSj2-PwTqOS1fF4w2seI-yw6mHD6TBFaacOJhzxxUIRS1W9_Jy04BUNQq-VT-kq4od51PvGZI59LMAfX3jSWhNC9SYnWbOClhSwv5O2mdEN4WDRg4tGZAzWzbwpM8g7I0AtCcZF-tbH6eMivnm3OwNC5q6DJ676vsbAzuFv-x0Uk2WQNzxC1uBhgL8qohuE0eUEcr3AhUOHXbpEUwq2sWk5CDzxAnfuCrd9xPcUu-4aoUQKQud8sit6VLwlyAdvWEBq0l0dqPUu8uZVpOzDUWzIL7aSCVI5Dv1MFoTCGq64BWJCki1FXOnkFxJ006tGF6bUTTdoHLmaj4hIAYA9Sir4_ngnMEIanXXZxp55MJa9H3FoWv6P5SE8aObZfXoOyssT62NuGBFLhAdZGQnheu9giTDCiQPqfAOuyr4mjQCAjYMJD262JYH9ch52KyWJbdyZm8d95iAumtXJrGvDXZ5jsQX7WxQu0gyhmilZE3kOVQj0weAeugC0Vste4hRu0OVXCcG076Qkz7u7cv8pcuEPtlpdIK_LlpxOMQYnG_hJGmM9gGbaPsoaGpmop46B5TqrOx75lj6Z44pXk5NnnQNxeC_SIqNtk5-ey3tSAfZim7Lab54qS2w92cpc_PUy2mOVmAFQppeSlEO8wPgs8gvVgPwjFEJEjcJx2obpOorHg_927r2xy4RH_0Rt0MpnwFTAVXsxmKU-0byWh-QaP3qvZVwNnyMFxW2ieKNQMgD4dhgLYw_1_XjFvjucK6gwq9awOUaWhKe4FAQinQG0ntsuGu7kvVKX_SVO2gCv1e139tGfjJVBJYjwpbx-wCy3nGoXCTSkyWmMeJ-r0l3OrQqCs5_-2KD4omPHd0jqZNSgtEglHJaKcnPWdwbK2sXuWr5dQxu6k5EYXnLQnOmDGNO6b1aprZNOglVf2dVCxBNPp8rpfiJjmv-6jkIeOaMG_Dhi3S_v-fFyzMcKZEsZRKNCxUTlPSpk9F5DMgJ9lXD8hUGMMya5dKO5OfnN38eKhfa8YMc0tWlCRMje17WZF7lOKIIkdp2x-0SSZWkwoOVfvdAYIpKHZnxKWhPRmY4f9AIP0VKr2hb31enMgLoB9SBfBEOeruycD-xeTUXcPOBotd5F2xkkAPvlMzc_VF-2iVjTSN_Rtyz5gcR8_98My7J7PhnQqESOvqggZ6PIlYkHb9FS1InZ0uNEfwAvwOuM_g1wSHL8ouLTr57g20-bbReHJ0S3d-s9QWYDhV4o_f0X_51DesJmolWbaeT2Up2_Uq-rS6fUutuYPGQNHpwHGdoeFk24ivdq_1rtc7NBYJ7BrLKN3wHtnyelzaNL5rZzLwdD5vjHLNADMnh9C_k5wUDStYHtjSzfl8K-LfxGOOVUA4jBt2IhYLLcvChNa8rOQcww2Bd1S4iW7jtEddmfv_FSBBjk-nDA2fOOzogLxHNked82EC7ZsQHUxkudQtbzDwePJxV6fyc04GJfwA6sO7FDPMSf63-Mb09rhKjeu-OKRVnArdSsMG1cLcUyd4wLIR_0G00]--></g></svg>