<svg xmlns="http://www.w3.org/2000/svg" xmlns:xlink="http://www.w3.org/1999/xlink" contentStyleType="text/css" data-diagram-type="SEQUENCE" height="1635px" preserveAspectRatio="none" style="width:2182px;height:1635px;background:#FFFFFF;" version="1.1" viewBox="0 0 2182 1635" width="2182px" zoomAndPan="magnify"><title>Create Shipping Agent Organization - Process View</title><defs/><g><text fill="#000000" font-family="sans-serif" font-size="14" font-weight="bold" lengthAdjust="spacing" textLength="373.1328" x="906.2209" y="28.5352">Create Shipping Agent Organization - Process View</text><g><title>.ShippingAgentOrganizationController</title><rect fill="#FFFFFF" height="367.7266" style="stroke:#181818;stroke-width:1;" width="10" x="905.144" y="285.8398"/></g><g><title>.ShippingAgentOrganizationService</title><rect fill="#FFFFFF" height="760.4531" style="stroke:#181818;stroke-width:1;" width="10" x="1342.9946" y="315.1504"/></g><g><title>.ShippingAgentOrganizationRepository</title><rect fill="#FFFFFF" height="87.9316" style="stroke:#181818;stroke-width:1;" width="10" x="1626.3262" y="453.3926"/></g><g><title>.ShippingAgentOrganizationRepository</title><rect fill="#FFFFFF" height="87.9316" style="stroke:#181818;stroke-width:1;" width="10" x="1626.3262" y="798.8086"/></g><g><title>.ShippingAgentOrganizationRepository</title><rect fill="#FFFFFF" height="87.9316" style="stroke:#181818;stroke-width:1;" width="10" x="1626.3262" y="916.0508"/></g><g><title>.PortManagementDB</title><rect fill="#FFFFFF" height="29.3105" style="stroke:#181818;stroke-width:1;" width="10" x="2085.6719" y="482.7031"/></g><g><title>.PortManagementDB</title><rect fill="#FFFFFF" height="29.3105" style="stroke:#181818;stroke-width:1;" width="10" x="2085.6719" y="828.1191"/></g><g><title>.PortManagementDB</title><rect fill="#FFFFFF" height="29.3105" style="stroke:#181818;stroke-width:1;" width="10" x="2085.6719" y="945.3613"/></g><rect fill="none" height="81.9316" style="stroke:#000000;stroke-width:1.5;" width="582.4746" x="20" y="135.9766"/><rect fill="none" height="91.2422" style="stroke:#000000;stroke-width:1.5;" width="1118.542" x="366.1362" y="231.9082"/><rect fill="none" height="331.416" style="stroke:#000000;stroke-width:1.5;" width="2166.5747" x="10" y="337.1504"/><rect fill="none" height="105.2422" style="stroke:#000000;stroke-width:1.5;" width="1464.6782" x="20" y="556.3242"/><rect fill="none" height="401.0371" style="stroke:#000000;stroke-width:1.5;" width="1413.5288" x="763.0459" y="682.5664"/><rect fill="none" height="111.2422" style="stroke:#000000;stroke-width:1.5;" width="1037.2422" x="20" y="1097.6035"/><rect fill="none" height="105.2422" style="stroke:#000000;stroke-width:1.5;" width="1464.6782" x="20" y="1222.8457"/><rect fill="none" height="105.2422" style="stroke:#000000;stroke-width:1.5;" width="1464.6782" x="20" y="1342.0879"/><rect fill="none" height="75.9316" style="stroke:#000000;stroke-width:1.5;" width="1037.2422" x="20" y="1461.3301"/><g><title>Port Authority Officer</title><rect fill="#000000" fill-opacity="0.00000" height="1435.2852" width="8" x="101.6387" y="118.9766"/><line style="stroke:#181818;stroke-width:0.5;stroke-dasharray:5,5;" x1="105" x2="105" y1="118.9766" y2="1554.2617"/></g><g><title>CreateOrganization.html</title><rect fill="#000000" fill-opacity="0.00000" height="1435.2852" width="8" x="462.9277" y="118.9766"/><line style="stroke:#181818;stroke-width:0.5;stroke-dasharray:5,5;" x1="466.1362" x2="466.1362" y1="118.9766" y2="1554.2617"/></g><g><title>.ShippingAgentOrganizationController</title><rect fill="#000000" fill-opacity="0.00000" height="1435.2852" width="8" x="906.144" y="118.9766"/><line style="stroke:#181818;stroke-width:0.5;stroke-dasharray:5,5;" x1="910.0459" x2="910.0459" y1="118.9766" y2="1554.2617"/></g><g><title>.ShippingAgentOrganizationService</title><rect fill="#000000" fill-opacity="0.00000" height="1435.2852" width="8" x="1343.9946" y="118.9766"/><line style="stroke:#181818;stroke-width:0.5;stroke-dasharray:5,5;" x1="1347.311" x2="1347.311" y1="118.9766" y2="1554.2617"/></g><g><title>.ShippingAgentOrganizationRepository</title><rect fill="#000000" fill-opacity="0.00000" height="1435.2852" width="8" x="1627.3262" y="118.9766"/><line style="stroke:#181818;stroke-width:0.5;stroke-dasharray:5,5;" x1="1631.2456" x2="1631.2456" y1="118.9766" y2="1554.2617"/></g><g><title>.PortManagementDB</title><rect fill="#000000" fill-opacity="0.00000" height="1435.2852" width="8" x="2086.6719" y="118.9766"/><line style="stroke:#181818;stroke-width:0.5;stroke-dasharray:5,5;" x1="2089.769" x2="2089.769" y1="118.9766" y2="1554.2617"/></g><g class="participant participant-head" data-participant="ADMIN"><text fill="#000000" font-family="sans-serif" font-size="14" lengthAdjust="spacing" textLength="145.2773" x="30" y="116.0234">Port Authority Officer</text><ellipse cx="105.6387" cy="50.9883" fill="#E2E2F0" rx="8" ry="8" style="stroke:#181818;stroke-width:0.5;"/><path d="M105.6387,58.9883 L105.6387,85.9883 M92.6387,66.9883 L118.6387,66.9883 M105.6387,85.9883 L92.6387,100.9883 M105.6387,85.9883 L118.6387,100.9883" fill="none" style="stroke:#181818;stroke-width:0.5;"/></g><g class="participant participant-tail" data-participant="ADMIN"><text fill="#000000" font-family="sans-serif" font-size="14" lengthAdjust="spacing" textLength="145.2773" x="30" y="1566.7969">Port Authority Officer</text><ellipse cx="105.6387" cy="1578.25" fill="#E2E2F0" rx="8" ry="8" style="stroke:#181818;stroke-width:0.5;"/><path d="M105.6387,1586.25 L105.6387,1613.25 M92.6387,1594.25 L118.6387,1594.25 M105.6387,1613.25 L92.6387,1628.25 M105.6387,1613.25 L118.6387,1628.25" fill="none" style="stroke:#181818;stroke-width:0.5;"/></g><g class="participant participant-head" data-participant="SPA"><rect fill="#E2E2F0" height="46.9766" rx="2.5" ry="2.5" style="stroke:#181818;stroke-width:0.5;" width="181.583" x="376.1362" y="71"/><text fill="#000000" font-family="sans-serif" font-size="14" lengthAdjust="spacing" textLength="167.583" x="383.1362" y="91.5352">CreateOrganization.html</text><text fill="#000000" font-family="sans-serif" font-size="14" lengthAdjust="spacing" textLength="34.043" x="449.9063" y="108.0234">(SPA)</text></g><g class="participant participant-tail" data-participant="SPA"><rect fill="#E2E2F0" height="46.9766" rx="2.5" ry="2.5" style="stroke:#181818;stroke-width:0.5;" width="181.583" x="376.1362" y="1553.2617"/><text fill="#000000" font-family="sans-serif" font-size="14" lengthAdjust="spacing" textLength="167.583" x="383.1362" y="1573.7969">CreateOrganization.html</text><text fill="#000000" font-family="sans-serif" font-size="14" lengthAdjust="spacing" textLength="34.043" x="449.9063" y="1590.2852">(SPA)</text></g><g class="participant participant-head" data-participant="CTRL"><rect fill="#E2E2F0" height="30.4883" rx="2.5" ry="2.5" style="stroke:#181818;stroke-width:0.5;" width="274.1963" x="773.0459" y="87.4883"/><text fill="#000000" font-family="sans-serif" font-size="14" lengthAdjust="spacing" textLength="260.1963" x="780.0459" y="108.0234">:ShippingAgentOrganizationController</text></g><g class="participant participant-tail" data-participant="CTRL"><rect fill="#E2E2F0" height="30.4883" rx="2.5" ry="2.5" style="stroke:#181818;stroke-width:0.5;" width="274.1963" x="773.0459" y="1553.2617"/><text fill="#000000" font-family="sans-serif" font-size="14" lengthAdjust="spacing" textLength="260.1963" x="780.0459" y="1573.7969">:ShippingAgentOrganizationController</text></g><g class="participant participant-head" data-participant="SVC"><rect fill="#E2E2F0" height="30.4883" rx="2.5" ry="2.5" style="stroke:#181818;stroke-width:0.5;" width="253.3672" x="1221.311" y="87.4883"/><text fill="#000000" font-family="sans-serif" font-size="14" lengthAdjust="spacing" textLength="239.3672" x="1228.311" y="108.0234">:ShippingAgentOrganizationService</text></g><g class="participant participant-tail" data-participant="SVC"><rect fill="#E2E2F0" height="30.4883" rx="2.5" ry="2.5" style="stroke:#181818;stroke-width:0.5;" width="253.3672" x="1221.311" y="1553.2617"/><text fill="#000000" font-family="sans-serif" font-size="14" lengthAdjust="spacing" textLength="239.3672" x="1228.311" y="1573.7969">:ShippingAgentOrganizationService</text></g><g class="participant participant-head" data-participant="REPO"><rect fill="#E2E2F0" height="30.4883" rx="2.5" ry="2.5" style="stroke:#181818;stroke-width:0.5;" width="278.1611" x="1492.2456" y="87.4883"/><text fill="#000000" font-family="sans-serif" font-size="14" lengthAdjust="spacing" textLength="264.1611" x="1499.2456" y="108.0234">:ShippingAgentOrganizationRepository</text></g><g class="participant participant-tail" data-participant="REPO"><rect fill="#E2E2F0" height="30.4883" rx="2.5" ry="2.5" style="stroke:#181818;stroke-width:0.5;" width="278.1611" x="1492.2456" y="1553.2617"/><text fill="#000000" font-family="sans-serif" font-size="14" lengthAdjust="spacing" textLength="264.1611" x="1499.2456" y="1573.7969">:ShippingAgentOrganizationRepository</text></g><g class="participant participant-head" data-participant="DB"><rect fill="#E2E2F0" height="30.4883" rx="2.5" ry="2.5" style="stroke:#181818;stroke-width:0.5;" width="151.8057" x="2014.769" y="87.4883"/><text fill="#000000" font-family="sans-serif" font-size="14" lengthAdjust="spacing" textLength="137.8057" x="2021.769" y="108.0234">:PortManagementDB</text></g><g class="participant participant-tail" data-participant="DB"><rect fill="#E2E2F0" height="30.4883" rx="2.5" ry="2.5" style="stroke:#181818;stroke-width:0.5;" width="151.8057" x="2014.769" y="1553.2617"/><text fill="#000000" font-family="sans-serif" font-size="14" lengthAdjust="spacing" textLength="137.8057" x="2021.769" y="1573.7969">:PortManagementDB</text></g><g><title>.ShippingAgentOrganizationController</title><rect fill="#FFFFFF" height="367.7266" style="stroke:#181818;stroke-width:1;" width="10" x="905.144" y="285.8398"/></g><g><title>.ShippingAgentOrganizationService</title><rect fill="#FFFFFF" height="760.4531" style="stroke:#181818;stroke-width:1;" width="10" x="1342.9946" y="315.1504"/></g><g><title>.ShippingAgentOrganizationRepository</title><rect fill="#FFFFFF" height="87.9316" style="stroke:#181818;stroke-width:1;" width="10" x="1626.3262" y="453.3926"/></g><g><title>.ShippingAgentOrganizationRepository</title><rect fill="#FFFFFF" height="87.9316" style="stroke:#181818;stroke-width:1;" width="10" x="1626.3262" y="798.8086"/></g><g><title>.ShippingAgentOrganizationRepository</title><rect fill="#FFFFFF" height="87.9316" style="stroke:#181818;stroke-width:1;" width="10" x="1626.3262" y="916.0508"/></g><g><title>.PortManagementDB</title><rect fill="#FFFFFF" height="29.3105" style="stroke:#181818;stroke-width:1;" width="10" x="2085.6719" y="482.7031"/></g><g><title>.PortManagementDB</title><rect fill="#FFFFFF" height="29.3105" style="stroke:#181818;stroke-width:1;" width="10" x="2085.6719" y="828.1191"/></g><g><title>.PortManagementDB</title><rect fill="#FFFFFF" height="29.3105" style="stroke:#181818;stroke-width:1;" width="10" x="2085.6719" y="945.3613"/></g><path d="M20,135.9766 L188.646,135.9766 L188.646,143.2871 L178.646,153.2871 L20,153.2871 L20,135.9766" fill="#EEEEEE" style="stroke:#000000;stroke-width:1.5;"/><rect fill="none" height="81.9316" style="stroke:#000000;stroke-width:1.5;" width="582.4746" x="20" y="135.9766"/><text fill="#000000" font-family="sans-serif" font-size="13" font-weight="bold" lengthAdjust="spacing" textLength="123.646" x="35" y="149.5449">Fill &amp; Submit Form</text><g class="message" data-participant-1="ADMIN" data-participant-2="SPA"><polygon fill="#181818" points="454.9277,170.5977,464.9277,174.5977,454.9277,178.5977,458.9277,174.5977" style="stroke:#181818;stroke-width:1;"/><line style="stroke:#181818;stroke-width:1;" x1="105.6387" x2="460.9277" y1="174.5977" y2="174.5977"/><text fill="#000000" font-family="sans-serif" font-size="13" lengthAdjust="spacing" textLength="312.5078" x="112.6387" y="169.8555">fillForm(legalName, alternativeName, taxNumber)</text></g><path d="M110,187.5977 L110,212.5977 L592,212.5977 L592,197.5977 L582,187.5977 L110,187.5977" fill="#FEFFDD" style="stroke:#181818;stroke-width:0.5;"/><path d="M582,187.5977 L582,197.5977 L592,197.5977 L582,187.5977" fill="#FEFFDD" style="stroke:#181818;stroke-width:0.5;"/><text fill="#000000" font-family="sans-serif" font-size="13" lengthAdjust="spacing" textLength="461.4746" x="116" y="205.166">Administrator fills organization details\nand clicks "Create Organization"</text><path d="M366.1362,231.9082 L516.0757,231.9082 L516.0757,239.2188 L506.0757,249.2188 L366.1362,249.2188 L366.1362,231.9082" fill="#EEEEEE" style="stroke:#000000;stroke-width:1.5;"/><rect fill="none" height="91.2422" style="stroke:#000000;stroke-width:1.5;" width="1118.542" x="366.1362" y="231.9082"/><text fill="#000000" font-family="sans-serif" font-size="13" font-weight="bold" lengthAdjust="spacing" textLength="104.9395" x="381.1362" y="245.4766">Submit Request</text><g class="message" data-participant-1="SPA" data-participant-2="CTRL"><polygon fill="#181818" points="893.144,281.8398,903.144,285.8398,893.144,289.8398,897.144,285.8398" style="stroke:#181818;stroke-width:1;"/><line style="stroke:#181818;stroke-width:1;" x1="466.9277" x2="899.144" y1="285.8398" y2="285.8398"/><text fill="#000000" font-family="sans-serif" font-size="13" lengthAdjust="spacing" textLength="243.5786" x="473.9277" y="265.7871">POST /api/ShippingAgentOrganization</text><text fill="#000000" font-family="sans-serif" font-size="13" lengthAdjust="spacing" textLength="205.2451" x="473.9277" y="281.0977">{ShippingAgentOrganizationDto}</text></g><g class="message" data-participant-1="CTRL" data-participant-2="SVC"><polygon fill="#181818" points="1330.9946,311.1504,1340.9946,315.1504,1330.9946,319.1504,1334.9946,315.1504" style="stroke:#181818;stroke-width:1;"/><line style="stroke:#181818;stroke-width:1;" x1="915.144" x2="1336.9946" y1="315.1504" y2="315.1504"/><text fill="#000000" font-family="sans-serif" font-size="13" lengthAdjust="spacing" textLength="283.2007" x="922.144" y="310.4082">CreateAsync(ShippingAgentOrganizationDto)</text></g><path d="M10,337.1504 L148.8755,337.1504 L148.8755,344.4609 L138.8755,354.4609 L10,354.4609 L10,337.1504" fill="#EEEEEE" style="stroke:#000000;stroke-width:1.5;"/><rect fill="none" height="331.416" style="stroke:#000000;stroke-width:1.5;" width="2166.5747" x="10" y="337.1504"/><text fill="#000000" font-family="sans-serif" font-size="13" font-weight="bold" lengthAdjust="spacing" textLength="93.8755" x="25" y="350.7188">Validate Input</text><g class="message" data-participant-1="SVC" data-participant-2="SVC"><line style="stroke:#181818;stroke-width:1;" x1="1352.9946" x2="1394.9946" y1="375.7715" y2="375.7715"/><line style="stroke:#181818;stroke-width:1;" x1="1394.9946" x2="1394.9946" y1="375.7715" y2="388.7715"/><line style="stroke:#181818;stroke-width:1;" x1="1353.9946" x2="1394.9946" y1="388.7715" y2="388.7715"/><polygon fill="#181818" points="1363.9946,384.7715,1353.9946,388.7715,1363.9946,392.7715,1359.9946,388.7715" style="stroke:#181818;stroke-width:1;"/><text fill="#000000" font-family="sans-serif" font-size="13" lengthAdjust="spacing" textLength="146.5483" x="1359.9946" y="371.0293">Validate required fields</text></g><path d="M1357,401.7715 L1357,426.7715 L1796,426.7715 L1796,411.7715 L1786,401.7715 L1357,401.7715" fill="#FEFFDD" style="stroke:#181818;stroke-width:0.5;"/><path d="M1786,401.7715 L1786,411.7715 L1796,411.7715 L1786,401.7715" fill="#FEFFDD" style="stroke:#181818;stroke-width:0.5;"/><text fill="#000000" font-family="sans-serif" font-size="13" lengthAdjust="spacing" textLength="418.2915" x="1363" y="419.3398">Ensures LegalName and TaxNumber are provided\nand not empty</text><g class="message" data-participant-1="SVC" data-participant-2="REPO"><polygon fill="#181818" points="1614.3262,449.3926,1624.3262,453.3926,1614.3262,457.3926,1618.3262,453.3926" style="stroke:#181818;stroke-width:1;"/><line style="stroke:#181818;stroke-width:1;" x1="1352.9946" x2="1620.3262" y1="453.3926" y2="453.3926"/><text fill="#000000" font-family="sans-serif" font-size="13" lengthAdjust="spacing" textLength="254.3315" x="1359.9946" y="448.6504">GetByTaxNumberAsync(dto.TaxNumber)</text></g><g class="message" data-participant-1="REPO" data-participant-2="DB"><polygon fill="#181818" points="2073.6719,478.7031,2083.6719,482.7031,2073.6719,486.7031,2077.6719,482.7031" style="stroke:#181818;stroke-width:1;"/><line style="stroke:#181818;stroke-width:1;" x1="1636.3262" x2="2079.6719" y1="482.7031" y2="482.7031"/><text fill="#000000" font-family="sans-serif" font-size="13" lengthAdjust="spacing" textLength="430.3457" x="1643.3262" y="477.9609">SELECT * FROM ShippingAgentOrganizations WHERE TaxNumber = ?</text></g><g class="message" data-participant-1="DB" data-participant-2="REPO"><polygon fill="#181818" points="1647.3262,508.0137,1637.3262,512.0137,1647.3262,516.0137,1643.3262,512.0137" style="stroke:#181818;stroke-width:1;"/><line style="stroke:#181818;stroke-width:1;stroke-dasharray:2,2;" x1="1641.3262" x2="2089.6719" y1="512.0137" y2="512.0137"/><text fill="#000000" font-family="sans-serif" font-size="13" lengthAdjust="spacing" textLength="120.9038" x="1653.3262" y="507.2715">null (no duplicates)</text></g><g class="message" data-participant-1="REPO" data-participant-2="SVC"><polygon fill="#181818" points="1363.9946,537.3242,1353.9946,541.3242,1363.9946,545.3242,1359.9946,541.3242" style="stroke:#181818;stroke-width:1;"/><line style="stroke:#181818;stroke-width:1;stroke-dasharray:2,2;" x1="1357.9946" x2="1630.3262" y1="541.3242" y2="541.3242"/><text fill="#000000" font-family="sans-serif" font-size="13" lengthAdjust="spacing" textLength="23.6514" x="1369.9946" y="536.582">null</text></g><path d="M20,556.3242 L82.1387,556.3242 L82.1387,563.6348 L72.1387,573.6348 L20,573.6348 L20,556.3242" fill="#EEEEEE" style="stroke:#000000;stroke-width:1.5;"/><rect fill="none" height="105.2422" style="stroke:#000000;stroke-width:1.5;" width="1464.6782" x="20" y="556.3242"/><text fill="#000000" font-family="sans-serif" font-size="13" font-weight="bold" lengthAdjust="spacing" textLength="17.1387" x="35" y="569.8926">alt</text><text fill="#000000" font-family="sans-serif" font-size="11" font-weight="bold" lengthAdjust="spacing" textLength="167.2397" x="97.1387" y="568.959">[Duplicate tax number found]</text><g class="message" data-participant-1="SVC" data-participant-2="CTRL"><polygon fill="#181818" points="926.144,590.9453,916.144,594.9453,926.144,598.9453,922.144,594.9453" style="stroke:#181818;stroke-width:1;"/><line style="stroke:#181818;stroke-width:1;stroke-dasharray:2,2;" x1="920.144" x2="1341.9946" y1="594.9453" y2="594.9453"/><text fill="#000000" font-family="sans-serif" font-size="13" lengthAdjust="spacing" textLength="403.8506" x="932.144" y="590.2031">throws InvalidOperationException("Organization already exists")</text></g><g class="message" data-participant-1="CTRL" data-participant-2="SPA"><polygon fill="#181818" points="477.9277,620.2559,467.9277,624.2559,477.9277,628.2559,473.9277,624.2559" style="stroke:#181818;stroke-width:1;"/><line style="stroke:#181818;stroke-width:1;stroke-dasharray:2,2;" x1="471.9277" x2="904.144" y1="624.2559" y2="624.2559"/><text fill="#000000" font-family="sans-serif" font-size="13" lengthAdjust="spacing" textLength="414.2163" x="483.9277" y="619.5137">409 Conflict + "Organization with this tax number already exists"</text></g><g class="message" data-participant-1="SPA" data-participant-2="ADMIN"><polygon fill="#181818" points="116.6387,649.5664,106.6387,653.5664,116.6387,657.5664,112.6387,653.5664" style="stroke:#181818;stroke-width:1;"/><line style="stroke:#181818;stroke-width:1;stroke-dasharray:2,2;" x1="110.6387" x2="465.9277" y1="653.5664" y2="653.5664"/><text fill="#000000" font-family="sans-serif" font-size="13" lengthAdjust="spacing" textLength="218.5562" x="122.6387" y="648.8242">showError("Duplicate tax number")</text></g><path d="M763.0459,682.5664 L985.8755,682.5664 L985.8755,689.877 L975.8755,699.877 L763.0459,699.877 L763.0459,682.5664" fill="#EEEEEE" style="stroke:#000000;stroke-width:1.5;"/><rect fill="none" height="401.0371" style="stroke:#000000;stroke-width:1.5;" width="1413.5288" x="763.0459" y="682.5664"/><text fill="#000000" font-family="sans-serif" font-size="13" font-weight="bold" lengthAdjust="spacing" textLength="177.8296" x="778.0459" y="696.1348">Create Organization Entity</text><g class="message" data-participant-1="SVC" data-participant-2="SVC"><line style="stroke:#181818;stroke-width:1;" x1="1352.9946" x2="1394.9946" y1="721.1875" y2="721.1875"/><line style="stroke:#181818;stroke-width:1;" x1="1394.9946" x2="1394.9946" y1="721.1875" y2="734.1875"/><line style="stroke:#181818;stroke-width:1;" x1="1353.9946" x2="1394.9946" y1="734.1875" y2="734.1875"/><polygon fill="#181818" points="1363.9946,730.1875,1353.9946,734.1875,1363.9946,738.1875,1359.9946,734.1875" style="stroke:#181818;stroke-width:1;"/><text fill="#000000" font-family="sans-serif" font-size="13" lengthAdjust="spacing" textLength="233.1304" x="1359.9946" y="716.4453">new ShippingAgentOrganization(dto)</text></g><path d="M1357,747.1875 L1357,772.1875 L1843,772.1875 L1843,757.1875 L1833,747.1875 L1357,747.1875" fill="#FEFFDD" style="stroke:#181818;stroke-width:0.5;"/><path d="M1833,747.1875 L1833,757.1875 L1843,757.1875 L1833,747.1875" fill="#FEFFDD" style="stroke:#181818;stroke-width:0.5;"/><text fill="#000000" font-family="sans-serif" font-size="13" lengthAdjust="spacing" textLength="465.5752" x="1363" y="764.7559">Creates domain entity with:\n&#8226; Guid Id\n&#8226; CreatedAt = DateTime.UtcNow</text><g class="message" data-participant-1="SVC" data-participant-2="REPO"><polygon fill="#181818" points="1614.3262,794.8086,1624.3262,798.8086,1614.3262,802.8086,1618.3262,798.8086" style="stroke:#181818;stroke-width:1;"/><line style="stroke:#181818;stroke-width:1;" x1="1352.9946" x2="1620.3262" y1="798.8086" y2="798.8086"/><text fill="#000000" font-family="sans-serif" font-size="13" lengthAdjust="spacing" textLength="150.6235" x="1359.9946" y="794.0664">AddAsync(organization)</text></g><g class="message" data-participant-1="REPO" data-participant-2="DB"><polygon fill="#181818" points="2073.6719,824.1191,2083.6719,828.1191,2073.6719,832.1191,2077.6719,828.1191" style="stroke:#181818;stroke-width:1;"/><line style="stroke:#181818;stroke-width:1;" x1="1636.3262" x2="2079.6719" y1="828.1191" y2="828.1191"/><text fill="#000000" font-family="sans-serif" font-size="13" lengthAdjust="spacing" textLength="285.3589" x="1643.3262" y="823.377">INSERT INTO ShippingAgentOrganizations(...)</text></g><g class="message" data-participant-1="DB" data-participant-2="REPO"><polygon fill="#181818" points="1647.3262,853.4297,1637.3262,857.4297,1647.3262,861.4297,1643.3262,857.4297" style="stroke:#181818;stroke-width:1;"/><line style="stroke:#181818;stroke-width:1;stroke-dasharray:2,2;" x1="1641.3262" x2="2089.6719" y1="857.4297" y2="857.4297"/><text fill="#000000" font-family="sans-serif" font-size="13" lengthAdjust="spacing" textLength="48.5088" x="1653.3262" y="852.6875">success</text></g><g class="message" data-participant-1="REPO" data-participant-2="SVC"><polygon fill="#181818" points="1363.9946,882.7402,1353.9946,886.7402,1363.9946,890.7402,1359.9946,886.7402" style="stroke:#181818;stroke-width:1;"/><line style="stroke:#181818;stroke-width:1;stroke-dasharray:2,2;" x1="1357.9946" x2="1630.3262" y1="886.7402" y2="886.7402"/><text fill="#000000" font-family="sans-serif" font-size="13" lengthAdjust="spacing" textLength="48.5088" x="1369.9946" y="881.998">success</text></g><g class="message" data-participant-1="SVC" data-participant-2="REPO"><polygon fill="#181818" points="1614.3262,912.0508,1624.3262,916.0508,1614.3262,920.0508,1618.3262,916.0508" style="stroke:#181818;stroke-width:1;"/><line style="stroke:#181818;stroke-width:1;" x1="1352.9946" x2="1620.3262" y1="916.0508" y2="916.0508"/><text fill="#000000" font-family="sans-serif" font-size="13" lengthAdjust="spacing" textLength="128.0068" x="1359.9946" y="911.3086">SaveChangesAsync()</text></g><g class="message" data-participant-1="REPO" data-participant-2="DB"><polygon fill="#181818" points="2073.6719,941.3613,2083.6719,945.3613,2073.6719,949.3613,2077.6719,945.3613" style="stroke:#181818;stroke-width:1;"/><line style="stroke:#181818;stroke-width:1;" x1="1636.3262" x2="2079.6719" y1="945.3613" y2="945.3613"/><text fill="#000000" font-family="sans-serif" font-size="13" lengthAdjust="spacing" textLength="149.2144" x="1643.3262" y="940.6191">COMMIT TRANSACTION</text></g><g class="message" data-participant-1="DB" data-participant-2="REPO"><polygon fill="#181818" points="1647.3262,970.6719,1637.3262,974.6719,1647.3262,978.6719,1643.3262,974.6719" style="stroke:#181818;stroke-width:1;"/><line style="stroke:#181818;stroke-width:1;stroke-dasharray:2,2;" x1="1641.3262" x2="2089.6719" y1="974.6719" y2="974.6719"/><text fill="#000000" font-family="sans-serif" font-size="13" lengthAdjust="spacing" textLength="48.5088" x="1653.3262" y="969.9297">success</text></g><g class="message" data-participant-1="REPO" data-participant-2="SVC"><polygon fill="#181818" points="1363.9946,999.9824,1353.9946,1003.9824,1363.9946,1007.9824,1359.9946,1003.9824" style="stroke:#181818;stroke-width:1;"/><line style="stroke:#181818;stroke-width:1;stroke-dasharray:2,2;" x1="1357.9946" x2="1630.3262" y1="1003.9824" y2="1003.9824"/><text fill="#000000" font-family="sans-serif" font-size="13" lengthAdjust="spacing" textLength="48.5088" x="1369.9946" y="999.2402">success</text></g><g class="message" data-participant-1="SVC" data-participant-2="SVC"><line style="stroke:#181818;stroke-width:1;" x1="1352.9946" x2="1394.9946" y1="1033.293" y2="1033.293"/><line style="stroke:#181818;stroke-width:1;" x1="1394.9946" x2="1394.9946" y1="1033.293" y2="1046.293"/><line style="stroke:#181818;stroke-width:1;" x1="1353.9946" x2="1394.9946" y1="1046.293" y2="1046.293"/><polygon fill="#181818" points="1363.9946,1042.293,1353.9946,1046.293,1363.9946,1050.293,1359.9946,1046.293" style="stroke:#181818;stroke-width:1;"/><text fill="#000000" font-family="sans-serif" font-size="13" lengthAdjust="spacing" textLength="126.9658" x="1359.9946" y="1028.5508">ToDto(organization)</text></g><g class="message" data-participant-1="SVC" data-participant-2="CTRL"><polygon fill="#181818" points="921.144,1071.6035,911.144,1075.6035,921.144,1079.6035,917.144,1075.6035" style="stroke:#181818;stroke-width:1;"/><line style="stroke:#181818;stroke-width:1;stroke-dasharray:2,2;" x1="915.144" x2="1346.9946" y1="1075.6035" y2="1075.6035"/><text fill="#000000" font-family="sans-serif" font-size="13" lengthAdjust="spacing" textLength="196.79" x="927.144" y="1070.8613">ShippingAgentOrganizationDto</text></g><path d="M20,1097.6035 L156.0952,1097.6035 L156.0952,1104.9141 L146.0952,1114.9141 L20,1114.9141 L20,1097.6035" fill="#EEEEEE" style="stroke:#000000;stroke-width:1.5;"/><rect fill="none" height="111.2422" style="stroke:#000000;stroke-width:1.5;" width="1037.2422" x="20" y="1097.6035"/><text fill="#000000" font-family="sans-serif" font-size="13" font-weight="bold" lengthAdjust="spacing" textLength="91.0952" x="35" y="1111.1719">Return Result</text><g class="message" data-participant-1="CTRL" data-participant-2="SPA"><polygon fill="#181818" points="477.9277,1132.2246,467.9277,1136.2246,477.9277,1140.2246,473.9277,1136.2246" style="stroke:#181818;stroke-width:1;"/><line style="stroke:#181818;stroke-width:1;stroke-dasharray:2,2;" x1="471.9277" x2="909.144" y1="1136.2246" y2="1136.2246"/><text fill="#000000" font-family="sans-serif" font-size="13" lengthAdjust="spacing" textLength="293.1475" x="483.9277" y="1131.4824">201 Created + ShippingAgentOrganizationDto</text></g><g class="message" data-participant-1="SPA" data-participant-2="ADMIN"><polygon fill="#181818" points="116.6387,1161.5352,106.6387,1165.5352,116.6387,1169.5352,112.6387,1165.5352" style="stroke:#181818;stroke-width:1;"/><line style="stroke:#181818;stroke-width:1;stroke-dasharray:2,2;" x1="110.6387" x2="465.9277" y1="1165.5352" y2="1165.5352"/><text fill="#000000" font-family="sans-serif" font-size="13" lengthAdjust="spacing" textLength="226.2368" x="122.6387" y="1160.793">"Organization created successfully!"</text></g><path d="M471,1178.5352 L471,1203.5352 L935,1203.5352 L935,1188.5352 L925,1178.5352 L471,1178.5352" fill="#FEFFDD" style="stroke:#181818;stroke-width:0.5;"/><path d="M925,1178.5352 L925,1188.5352 L935,1188.5352 L925,1178.5352" fill="#FEFFDD" style="stroke:#181818;stroke-width:0.5;"/><text fill="#000000" font-family="sans-serif" font-size="13" lengthAdjust="spacing" textLength="443.5361" x="477" y="1196.1035">Displays success message\nand redirects to organization details page</text><path d="M20,1222.8457 L82.1387,1222.8457 L82.1387,1230.1563 L72.1387,1240.1563 L20,1240.1563 L20,1222.8457" fill="#EEEEEE" style="stroke:#000000;stroke-width:1.5;"/><rect fill="none" height="105.2422" style="stroke:#000000;stroke-width:1.5;" width="1464.6782" x="20" y="1222.8457"/><text fill="#000000" font-family="sans-serif" font-size="13" font-weight="bold" lengthAdjust="spacing" textLength="17.1387" x="35" y="1236.4141">alt</text><text fill="#000000" font-family="sans-serif" font-size="11" font-weight="bold" lengthAdjust="spacing" textLength="101.041" x="97.1387" y="1235.4805">[Validation failed]</text><g class="message" data-participant-1="SVC" data-participant-2="CTRL"><polygon fill="#181818" points="921.144,1257.4668,911.144,1261.4668,921.144,1265.4668,917.144,1261.4668" style="stroke:#181818;stroke-width:1;"/><line style="stroke:#181818;stroke-width:1;stroke-dasharray:2,2;" x1="915.144" x2="1346.9946" y1="1261.4668" y2="1261.4668"/><text fill="#000000" font-family="sans-serif" font-size="13" lengthAdjust="spacing" textLength="276.3071" x="927.144" y="1256.7246">throws ArgumentException("Missing fields")</text></g><g class="message" data-participant-1="CTRL" data-participant-2="SPA"><polygon fill="#181818" points="477.9277,1286.7773,467.9277,1290.7773,477.9277,1294.7773,473.9277,1290.7773" style="stroke:#181818;stroke-width:1;"/><line style="stroke:#181818;stroke-width:1;stroke-dasharray:2,2;" x1="471.9277" x2="909.144" y1="1290.7773" y2="1290.7773"/><text fill="#000000" font-family="sans-serif" font-size="13" lengthAdjust="spacing" textLength="236.6851" x="483.9277" y="1286.0352">400 Bad Request + "Validation failed"</text></g><g class="message" data-participant-1="SPA" data-participant-2="ADMIN"><polygon fill="#181818" points="116.6387,1316.0879,106.6387,1320.0879,116.6387,1324.0879,112.6387,1320.0879" style="stroke:#181818;stroke-width:1;"/><line style="stroke:#181818;stroke-width:1;stroke-dasharray:2,2;" x1="110.6387" x2="465.9277" y1="1320.0879" y2="1320.0879"/><text fill="#000000" font-family="sans-serif" font-size="13" lengthAdjust="spacing" textLength="337.2891" x="122.6387" y="1315.3457">showError("Validation failed: missing required fields")</text></g><path d="M20,1342.0879 L82.1387,1342.0879 L82.1387,1349.3984 L72.1387,1359.3984 L20,1359.3984 L20,1342.0879" fill="#EEEEEE" style="stroke:#000000;stroke-width:1.5;"/><rect fill="none" height="105.2422" style="stroke:#000000;stroke-width:1.5;" width="1464.6782" x="20" y="1342.0879"/><text fill="#000000" font-family="sans-serif" font-size="13" font-weight="bold" lengthAdjust="spacing" textLength="17.1387" x="35" y="1355.6563">alt</text><text fill="#000000" font-family="sans-serif" font-size="11" font-weight="bold" lengthAdjust="spacing" textLength="130.292" x="97.1387" y="1354.7227">[Duplicate tax number]</text><g class="message" data-participant-1="SVC" data-participant-2="CTRL"><polygon fill="#181818" points="921.144,1376.709,911.144,1380.709,921.144,1384.709,917.144,1380.709" style="stroke:#181818;stroke-width:1;"/><line style="stroke:#181818;stroke-width:1;stroke-dasharray:2,2;" x1="915.144" x2="1346.9946" y1="1380.709" y2="1380.709"/><text fill="#000000" font-family="sans-serif" font-size="13" lengthAdjust="spacing" textLength="367.7515" x="927.144" y="1375.9668">throws InvalidOperationException("Duplicate tax number")</text></g><g class="message" data-participant-1="CTRL" data-participant-2="SPA"><polygon fill="#181818" points="477.9277,1406.0195,467.9277,1410.0195,477.9277,1414.0195,473.9277,1410.0195" style="stroke:#181818;stroke-width:1;"/><line style="stroke:#181818;stroke-width:1;stroke-dasharray:2,2;" x1="471.9277" x2="909.144" y1="1410.0195" y2="1410.0195"/><text fill="#000000" font-family="sans-serif" font-size="13" lengthAdjust="spacing" textLength="414.2163" x="483.9277" y="1405.2773">409 Conflict + "Organization with this tax number already exists"</text></g><g class="message" data-participant-1="SPA" data-participant-2="ADMIN"><polygon fill="#181818" points="116.6387,1435.3301,106.6387,1439.3301,116.6387,1443.3301,112.6387,1439.3301" style="stroke:#181818;stroke-width:1;"/><line style="stroke:#181818;stroke-width:1;stroke-dasharray:2,2;" x1="110.6387" x2="465.9277" y1="1439.3301" y2="1439.3301"/><text fill="#000000" font-family="sans-serif" font-size="13" lengthAdjust="spacing" textLength="218.5562" x="122.6387" y="1434.5879">showError("Duplicate tax number")</text></g><path d="M20,1461.3301 L82.1387,1461.3301 L82.1387,1468.6406 L72.1387,1478.6406 L20,1478.6406 L20,1461.3301" fill="#EEEEEE" style="stroke:#000000;stroke-width:1.5;"/><rect fill="none" height="75.9316" style="stroke:#000000;stroke-width:1.5;" width="1037.2422" x="20" y="1461.3301"/><text fill="#000000" font-family="sans-serif" font-size="13" font-weight="bold" lengthAdjust="spacing" textLength="17.1387" x="35" y="1474.8984">alt</text><text fill="#000000" font-family="sans-serif" font-size="11" font-weight="bold" lengthAdjust="spacing" textLength="123.7822" x="97.1387" y="1473.9648">[Internal Server Error]</text><g class="message" data-participant-1="CTRL" data-participant-2="SPA"><polygon fill="#181818" points="477.9277,1495.9512,467.9277,1499.9512,477.9277,1503.9512,473.9277,1499.9512" style="stroke:#181818;stroke-width:1;"/><line style="stroke:#181818;stroke-width:1;stroke-dasharray:2,2;" x1="471.9277" x2="909.144" y1="1499.9512" y2="1499.9512"/><text fill="#000000" font-family="sans-serif" font-size="13" lengthAdjust="spacing" textLength="155.0859" x="483.9277" y="1495.209">500 Internal Server Error</text></g><g class="message" data-participant-1="SPA" data-participant-2="ADMIN"><polygon fill="#181818" points="116.6387,1525.2617,106.6387,1529.2617,116.6387,1533.2617,112.6387,1529.2617" style="stroke:#181818;stroke-width:1;"/><line style="stroke:#181818;stroke-width:1;stroke-dasharray:2,2;" x1="110.6387" x2="465.9277" y1="1529.2617" y2="1529.2617"/><text fill="#000000" font-family="sans-serif" font-size="13" lengthAdjust="spacing" textLength="262.355" x="122.6387" y="1524.5195">showError("Failed to create organization")</text></g><!--SRC=[nLVTRk965BxtKvnoqOMsORTLUz58syenJe84cDfEzYOti_O0exLdt9anX5QL-Ynzj3v9pupDZubDs4fLkKWCpFdEt_UTCsYcCmgUf4HJY5QiA1XVWhkaN4CWbuIptuXcWiCLpAL8g5BmoEZ6SKYYXOJUN4WDRgbNGZAzXM2nO0cLFI0AtD5qF7CA8ZLBM44Gi5VvESOThdIUFV5-D7S7rWeVcZRNkwXiKCUsdk1QYYoh_NbnEBdKDA9oZO5M7X-zIyr2MWZ5CF6jjGpzUN1YQken9PmiQOwsenjxRdJZE6_WVVC53v4VmdWM-w7hnUDWTdh0MKfH5d3BiWo-XAZyc3CDjqBc3k3BLXUkVZ85WsjOu2dpNJ-ZIvBDI4w_0P9fAZa6lgRL1veypyhy8vK32y45zboovKg3MDJjWlhbfZdZJ6b9J9iDkW9np8UKQi8ozSG9Jo79MF99xVhR84xFGb8yPDmv-D1MYz3_vS6FOhYT11ywwb0N8AI_bbHfYsfInmgOncC9vW42l2K5UzlPloV-U-Tt8ot-iAZ8RBOsQLX2sO-i1rFhHmyTLLcwQikJ_ZcuGHFEyAmZ_KTtCXwvbWJpUpVoEqhmI3AM6gWnBygw11ZHFh3zznABn2HDiN4qIrLBjqqmkrxxN9MIAfZig0Ecf_6EB40aXKAADKjfMlKRiO3cXTuscslVlG5lHPDFi43Uf6M1p30H8VM0MxZZi8s0CEuxgc-sUtzLOLCjXd6Jh_jAMjsPJwmzuenk42No9xuNmrTm6mPJw6oCWW_tVkWVvVSUVcxYerxDUqIzEWJ9IzHXduj3KgeAAwMdXbLO-xOOozEJDeNAQwPXr58dB629RDaroLRiG7QzacAZa0Xhq_EWeD8cvpydj30F_LvZUfCCEPjkWJwZfbLli8UjcBqV8z-_-n5mh2um6WrVGnDam_GA7JDr7EK9yY5Ueqt4hURKDQYLsFXI2jdljMMB8UrDZyfqaA0X6PQgIq5UwB-kdvRnXEJNhEPnGqkSRhevPDWvU4LLbJC5gSW9unY_yMDhUFt4__xpBxWhMGhZj7fJdKvTZMmSuLFCSZfyqCbCR5eqrfIFcwQLPeu7z4MI6Szm1yLc2GLd1DCV3eU32nIYoiHS42uJHSVXWowQEKPaJRqLuKkggbmloiyBfjDn377epg9goVvVQLIdOu5heQLD9-8-jrHEFPtPAg4VpGFiy5bDX5INakC_LMRQQHa9txtxTiTEd0YV4zf1lAV3e3bNaXgzhkK2n-NsYrwRlF1kk9FNYAaY8rkriu8S_-2rgrfGkFjm_oKQHvLelRT0WMSlkfhuOHY4SE_EHfFnxEv55StuhlUkWLyWE4sTxedjocLfheP7athAb3AtxcfPryFvnM1-1pSatLr_p6n-uRNdl39uNrXSGrxxFhanO12s75tBoVbNAwbZyFzdU-ZpTz0-wJ6tT-SCp2y5XBTcRP7-W8tfFdmcWblR0SFFYlyDcjQX_0C0]--></g></svg>