<svg xmlns="http://www.w3.org/2000/svg" xmlns:xlink="http://www.w3.org/1999/xlink" contentStyleType="text/css" data-diagram-type="SEQUENCE" height="1426px" preserveAspectRatio="none" style="width:1843px;height:1426px;background:#FFFFFF;" version="1.1" viewBox="0 0 1843 1426" width="1843px" zoomAndPan="magnify"><title>Activate / Deactivate Staff Member - Process View</title><defs/><g><text fill="#000000" font-family="sans-serif" font-size="14" font-weight="bold" lengthAdjust="spacing" textLength="365.0186" x="740.7827" y="28.5352">Activate / Deactivate Staff Member - Process View</text><g><title>.StaffMemberController</title><rect fill="#FFFFFF" height="102.8867" style="stroke:#181818;stroke-width:1;" width="10" x="750.6704" y="294.8398"/></g><g><title>.StaffMemberService</title><rect fill="#FFFFFF" height="661.4766" style="stroke:#181818;stroke-width:1;" width="10" x="1021.0737" y="324.1504"/></g><g><title>.StaffMemberRepository</title><rect fill="#FFFFFF" height="87.9316" style="stroke:#181818;stroke-width:1;" width="10" x="1267.7837" y="465.3477"/></g><g><title>.StaffMemberRepository</title><rect fill="#FFFFFF" height="87.9316" style="stroke:#181818;stroke-width:1;" width="10" x="1267.7837" y="826.0742"/></g><g><title>.PortLogisticsDB</title><rect fill="#FFFFFF" height="29.3105" style="stroke:#181818;stroke-width:1;" width="10" x="1760.6641" y="494.6582"/></g><g><title>.PortLogisticsDB</title><rect fill="#FFFFFF" height="29.3105" style="stroke:#181818;stroke-width:1;" width="10" x="1760.6641" y="855.3848"/></g><rect fill="none" height="81.9316" style="stroke:#000000;stroke-width:1.5;" width="639.5059" x="20" y="135.9766"/><rect fill="none" height="180.8184" style="stroke:#000000;stroke-width:1.5;" width="739.8999" x="382.0903" y="231.9082"/><rect fill="none" height="149.5078" style="stroke:#000000;stroke-width:1.5;" width="719.8999" x="392.0903" y="256.2188"/><rect fill="none" height="253.7949" style="stroke:#000000;stroke-width:1.5;" width="1827.584" x="10" y="426.7266"/><rect fill="none" height="105.2422" style="stroke:#000000;stroke-width:1.5;" width="1091.9902" x="20" y="568.2793"/><rect fill="none" height="299.1055" style="stroke:#000000;stroke-width:1.5;" width="1178.2446" x="659.3394" y="694.5215"/><rect fill="none" height="111.2422" style="stroke:#000000;stroke-width:1.5;" width="909.8354" x="20" y="1007.627"/><rect fill="none" height="105.2422" style="stroke:#000000;stroke-width:1.5;" width="1091.9902" x="20" y="1132.8691"/><rect fill="none" height="75.9316" style="stroke:#000000;stroke-width:1.5;" width="832.0015" x="20" y="1252.1113"/><g><title>Logistics Operator</title><rect fill="#000000" fill-opacity="0.00000" height="1226.0664" width="8" x="91.2549" y="118.9766"/><line style="stroke:#181818;stroke-width:0.5;stroke-dasharray:5,5;" x1="95" x2="95" y1="118.9766" y2="1345.043"/></g><g><title>StaffList.html</title><rect fill="#000000" fill-opacity="0.00000" height="1226.0664" width="8" x="450.1699" y="118.9766"/><line style="stroke:#181818;stroke-width:0.5;stroke-dasharray:5,5;" x1="454.0903" x2="454.0903" y1="118.9766" y2="1345.043"/></g><g><title>.StaffMemberController</title><rect fill="#000000" fill-opacity="0.00000" height="1226.0664" width="8" x="751.6704" y="118.9766"/><line style="stroke:#181818;stroke-width:0.5;stroke-dasharray:5,5;" x1="755.3394" x2="755.3394" y1="118.9766" y2="1345.043"/></g><g><title>.StaffMemberService</title><rect fill="#000000" fill-opacity="0.00000" height="1226.0664" width="8" x="1022.0737" y="118.9766"/><line style="stroke:#181818;stroke-width:0.5;stroke-dasharray:5,5;" x1="1025.1572" x2="1025.1572" y1="118.9766" y2="1345.043"/></g><g><title>.StaffMemberRepository</title><rect fill="#000000" fill-opacity="0.00000" height="1226.0664" width="8" x="1268.7837" y="118.9766"/><line style="stroke:#181818;stroke-width:0.5;stroke-dasharray:5,5;" x1="1272.4702" x2="1272.4702" y1="118.9766" y2="1345.043"/></g><g><title>.PortLogisticsDB</title><rect fill="#000000" fill-opacity="0.00000" height="1226.0664" width="8" x="1761.6641" y="118.9766"/><line style="stroke:#181818;stroke-width:0.5;stroke-dasharray:5,5;" x1="1764.7441" x2="1764.7441" y1="118.9766" y2="1345.043"/></g><g class="participant participant-head" data-participant="LO"><text fill="#000000" font-family="sans-serif" font-size="14" lengthAdjust="spacing" textLength="124.5098" x="30" y="116.0234">Logistics Operator</text><ellipse cx="95.2549" cy="50.9883" fill="#E2E2F0" rx="8" ry="8" style="stroke:#181818;stroke-width:0.5;"/><path d="M95.2549,58.9883 L95.2549,85.9883 M82.2549,66.9883 L108.2549,66.9883 M95.2549,85.9883 L82.2549,100.9883 M95.2549,85.9883 L108.2549,100.9883" fill="none" style="stroke:#181818;stroke-width:0.5;"/></g><g class="participant participant-tail" data-participant="LO"><text fill="#000000" font-family="sans-serif" font-size="14" lengthAdjust="spacing" textLength="124.5098" x="30" y="1357.5781">Logistics Operator</text><ellipse cx="95.2549" cy="1369.0313" fill="#E2E2F0" rx="8" ry="8" style="stroke:#181818;stroke-width:0.5;"/><path d="M95.2549,1377.0313 L95.2549,1404.0313 M82.2549,1385.0313 L108.2549,1385.0313 M95.2549,1404.0313 L82.2549,1419.0313 M95.2549,1404.0313 L108.2549,1419.0313" fill="none" style="stroke:#181818;stroke-width:0.5;"/></g><g class="participant participant-head" data-participant="SPA"><rect fill="#E2E2F0" height="46.9766" rx="2.5" ry="2.5" style="stroke:#181818;stroke-width:0.5;" width="104.1592" x="402.0903" y="71"/><text fill="#000000" font-family="sans-serif" font-size="14" lengthAdjust="spacing" textLength="90.1592" x="409.0903" y="91.5352">StaffList.html</text><text fill="#000000" font-family="sans-serif" font-size="14" lengthAdjust="spacing" textLength="34.043" x="437.1484" y="108.0234">(SPA)</text></g><g class="participant participant-tail" data-participant="SPA"><rect fill="#E2E2F0" height="46.9766" rx="2.5" ry="2.5" style="stroke:#181818;stroke-width:0.5;" width="104.1592" x="402.0903" y="1344.043"/><text fill="#000000" font-family="sans-serif" font-size="14" lengthAdjust="spacing" textLength="90.1592" x="409.0903" y="1364.5781">StaffList.html</text><text fill="#000000" font-family="sans-serif" font-size="14" lengthAdjust="spacing" textLength="34.043" x="437.1484" y="1381.0664">(SPA)</text></g><g class="participant participant-head" data-participant="CTRL"><rect fill="#E2E2F0" height="30.4883" rx="2.5" ry="2.5" style="stroke:#181818;stroke-width:0.5;" width="172.6621" x="669.3394" y="87.4883"/><text fill="#000000" font-family="sans-serif" font-size="14" lengthAdjust="spacing" textLength="158.6621" x="676.3394" y="108.0234">:StaffMemberController</text></g><g class="participant participant-tail" data-participant="CTRL"><rect fill="#E2E2F0" height="30.4883" rx="2.5" ry="2.5" style="stroke:#181818;stroke-width:0.5;" width="172.6621" x="669.3394" y="1344.043"/><text fill="#000000" font-family="sans-serif" font-size="14" lengthAdjust="spacing" textLength="158.6621" x="676.3394" y="1364.5781">:StaffMemberController</text></g><g class="participant participant-head" data-participant="SVC"><rect fill="#E2E2F0" height="30.4883" rx="2.5" ry="2.5" style="stroke:#181818;stroke-width:0.5;" width="151.833" x="950.1572" y="87.4883"/><text fill="#000000" font-family="sans-serif" font-size="14" lengthAdjust="spacing" textLength="137.833" x="957.1572" y="108.0234">:StaffMemberService</text></g><g class="participant participant-tail" data-participant="SVC"><rect fill="#E2E2F0" height="30.4883" rx="2.5" ry="2.5" style="stroke:#181818;stroke-width:0.5;" width="151.833" x="950.1572" y="1344.043"/><text fill="#000000" font-family="sans-serif" font-size="14" lengthAdjust="spacing" textLength="137.833" x="957.1572" y="1364.5781">:StaffMemberService</text></g><g class="participant participant-head" data-participant="REPO"><rect fill="#E2E2F0" height="30.4883" rx="2.5" ry="2.5" style="stroke:#181818;stroke-width:0.5;" width="176.627" x="1184.4702" y="87.4883"/><text fill="#000000" font-family="sans-serif" font-size="14" lengthAdjust="spacing" textLength="162.627" x="1191.4702" y="108.0234">:StaffMemberRepository</text></g><g class="participant participant-tail" data-participant="REPO"><rect fill="#E2E2F0" height="30.4883" rx="2.5" ry="2.5" style="stroke:#181818;stroke-width:0.5;" width="176.627" x="1184.4702" y="1344.043"/><text fill="#000000" font-family="sans-serif" font-size="14" lengthAdjust="spacing" textLength="162.627" x="1191.4702" y="1364.5781">:StaffMemberRepository</text></g><g class="participant participant-head" data-participant="DB"><rect fill="#E2E2F0" height="30.4883" rx="2.5" ry="2.5" style="stroke:#181818;stroke-width:0.5;" width="123.8398" x="1703.7441" y="87.4883"/><text fill="#000000" font-family="sans-serif" font-size="14" lengthAdjust="spacing" textLength="109.8398" x="1710.7441" y="108.0234">:PortLogisticsDB</text></g><g class="participant participant-tail" data-participant="DB"><rect fill="#E2E2F0" height="30.4883" rx="2.5" ry="2.5" style="stroke:#181818;stroke-width:0.5;" width="123.8398" x="1703.7441" y="1344.043"/><text fill="#000000" font-family="sans-serif" font-size="14" lengthAdjust="spacing" textLength="109.8398" x="1710.7441" y="1364.5781">:PortLogisticsDB</text></g><g><title>.StaffMemberController</title><rect fill="#FFFFFF" height="102.8867" style="stroke:#181818;stroke-width:1;" width="10" x="750.6704" y="294.8398"/></g><g><title>.StaffMemberService</title><rect fill="#FFFFFF" height="661.4766" style="stroke:#181818;stroke-width:1;" width="10" x="1021.0737" y="324.1504"/></g><g><title>.StaffMemberRepository</title><rect fill="#FFFFFF" height="87.9316" style="stroke:#181818;stroke-width:1;" width="10" x="1267.7837" y="465.3477"/></g><g><title>.StaffMemberRepository</title><rect fill="#FFFFFF" height="87.9316" style="stroke:#181818;stroke-width:1;" width="10" x="1267.7837" y="826.0742"/></g><g><title>.PortLogisticsDB</title><rect fill="#FFFFFF" height="29.3105" style="stroke:#181818;stroke-width:1;" width="10" x="1760.6641" y="494.6582"/></g><g><title>.PortLogisticsDB</title><rect fill="#FFFFFF" height="29.3105" style="stroke:#181818;stroke-width:1;" width="10" x="1760.6641" y="855.3848"/></g><path d="M20,135.9766 L229.4868,135.9766 L229.4868,143.2871 L219.4868,153.2871 L20,153.2871 L20,135.9766" fill="#EEEEEE" style="stroke:#000000;stroke-width:1.5;"/><rect fill="none" height="81.9316" style="stroke:#000000;stroke-width:1.5;" width="639.5059" x="20" y="135.9766"/><text fill="#000000" font-family="sans-serif" font-size="13" font-weight="bold" lengthAdjust="spacing" textLength="164.4868" x="35" y="149.5449">Select and Toggle Status</text><g class="message" data-participant-1="LO" data-participant-2="SPA"><polygon fill="#181818" points="442.1699,170.5977,452.1699,174.5977,442.1699,178.5977,446.1699,174.5977" style="stroke:#181818;stroke-width:1;"/><line style="stroke:#181818;stroke-width:1;" x1="95.2549" x2="448.1699" y1="174.5977" y2="174.5977"/><text fill="#000000" font-family="sans-serif" font-size="13" lengthAdjust="spacing" textLength="235.3521" x="102.2549" y="169.8555">click "Activate" or "Deactivate" button</text></g><path d="M100,187.5977 L100,212.5977 L649,212.5977 L649,197.5977 L639,187.5977 L100,187.5977" fill="#FEFFDD" style="stroke:#181818;stroke-width:0.5;"/><path d="M639,187.5977 L639,197.5977 L649,197.5977 L639,187.5977" fill="#FEFFDD" style="stroke:#181818;stroke-width:0.5;"/><text fill="#000000" font-family="sans-serif" font-size="13" lengthAdjust="spacing" textLength="528.5059" x="106" y="205.166">Operator decides to change the availability\nstatus of a staff member in the system</text><path d="M382.0903,231.9082 L532.0298,231.9082 L532.0298,239.2188 L522.0298,249.2188 L382.0903,249.2188 L382.0903,231.9082" fill="#EEEEEE" style="stroke:#000000;stroke-width:1.5;"/><rect fill="none" height="180.8184" style="stroke:#000000;stroke-width:1.5;" width="739.8999" x="382.0903" y="231.9082"/><text fill="#000000" font-family="sans-serif" font-size="13" font-weight="bold" lengthAdjust="spacing" textLength="104.9395" x="397.0903" y="245.4766">Submit Request</text><path d="M392.0903,256.2188 L454.229,256.2188 L454.229,263.5293 L444.229,273.5293 L392.0903,273.5293 L392.0903,256.2188" fill="#EEEEEE" style="stroke:#000000;stroke-width:1.5;"/><rect fill="none" height="149.5078" style="stroke:#000000;stroke-width:1.5;" width="719.8999" x="392.0903" y="256.2188"/><text fill="#000000" font-family="sans-serif" font-size="13" font-weight="bold" lengthAdjust="spacing" textLength="17.1387" x="407.0903" y="269.7871">alt</text><text fill="#000000" font-family="sans-serif" font-size="11" font-weight="bold" lengthAdjust="spacing" textLength="146.9854" x="469.229" y="268.8535">[Deactivate Staff Member]</text><g class="message" data-participant-1="SPA" data-participant-2="CTRL"><polygon fill="#181818" points="738.6704,290.8398,748.6704,294.8398,738.6704,298.8398,742.6704,294.8398" style="stroke:#181818;stroke-width:1;"/><line style="stroke:#181818;stroke-width:1;" x1="454.1699" x2="744.6704" y1="294.8398" y2="294.8398"/><text fill="#000000" font-family="sans-serif" font-size="13" lengthAdjust="spacing" textLength="254.0396" x="461.1699" y="290.0977">PATCH /api/StaffMember/{id}/inactivate</text></g><g class="message" data-participant-1="CTRL" data-participant-2="SVC"><polygon fill="#181818" points="1009.0737,320.1504,1019.0737,324.1504,1009.0737,328.1504,1013.0737,324.1504" style="stroke:#181818;stroke-width:1;"/><line style="stroke:#181818;stroke-width:1;" x1="760.6704" x2="1015.0737" y1="324.1504" y2="324.1504"/><text fill="#000000" font-family="sans-serif" font-size="13" lengthAdjust="spacing" textLength="117.7935" x="767.6704" y="319.4082">InactivateAsync(id)</text></g><line style="stroke:#000000;stroke-width:1;stroke-dasharray:2,2;" x1="392.0903" x2="1111.9902" y1="333.1504" y2="333.1504"/><text fill="#000000" font-family="sans-serif" font-size="11" font-weight="bold" lengthAdjust="spacing" textLength="133.4502" x="397.0903" y="343.7852">[Activate Staff Member]</text><g class="message" data-participant-1="SPA" data-participant-2="CTRL"><polygon fill="#181818" points="738.6704,364.416,748.6704,368.416,738.6704,372.416,742.6704,368.416" style="stroke:#181818;stroke-width:1;"/><line style="stroke:#181818;stroke-width:1;" x1="454.1699" x2="744.6704" y1="368.416" y2="368.416"/><text fill="#000000" font-family="sans-serif" font-size="13" lengthAdjust="spacing" textLength="242.2139" x="461.1699" y="363.6738">PATCH /api/StaffMember/{id}/activate</text></g><g class="message" data-participant-1="CTRL" data-participant-2="SVC"><polygon fill="#181818" points="1009.0737,393.7266,1019.0737,397.7266,1009.0737,401.7266,1013.0737,397.7266" style="stroke:#181818;stroke-width:1;"/><line style="stroke:#181818;stroke-width:1;" x1="755.6704" x2="1015.0737" y1="397.7266" y2="397.7266"/><text fill="#000000" font-family="sans-serif" font-size="13" lengthAdjust="spacing" textLength="107.7705" x="762.6704" y="392.9844">ActivateAsync(id)</text></g><path d="M10,426.7266 L176.6338,426.7266 L176.6338,434.0371 L166.6338,444.0371 L10,444.0371 L10,426.7266" fill="#EEEEEE" style="stroke:#000000;stroke-width:1.5;"/><rect fill="none" height="253.7949" style="stroke:#000000;stroke-width:1.5;" width="1827.584" x="10" y="426.7266"/><text fill="#000000" font-family="sans-serif" font-size="13" font-weight="bold" lengthAdjust="spacing" textLength="121.6338" x="25" y="440.2949">Validate Existence</text><g class="message" data-participant-1="SVC" data-participant-2="REPO"><polygon fill="#181818" points="1255.7837,461.3477,1265.7837,465.3477,1255.7837,469.3477,1259.7837,465.3477" style="stroke:#181818;stroke-width:1;"/><line style="stroke:#181818;stroke-width:1;" x1="1031.0737" x2="1261.7837" y1="465.3477" y2="465.3477"/><text fill="#000000" font-family="sans-serif" font-size="13" lengthAdjust="spacing" textLength="105.2061" x="1038.0737" y="460.6055">GetByIdAsync(id)</text></g><g class="message" data-participant-1="REPO" data-participant-2="DB"><polygon fill="#181818" points="1748.6641,490.6582,1758.6641,494.6582,1748.6641,498.6582,1752.6641,494.6582" style="stroke:#181818;stroke-width:1;"/><line style="stroke:#181818;stroke-width:1;" x1="1277.7837" x2="1754.6641" y1="494.6582" y2="494.6582"/><text fill="#000000" font-family="sans-serif" font-size="13" lengthAdjust="spacing" textLength="274.0664" x="1284.7837" y="489.916">SELECT * FROM StaffMembers WHERE Id = ?</text></g><g class="message" data-participant-1="DB" data-participant-2="REPO"><polygon fill="#181818" points="1288.7837,519.9688,1278.7837,523.9688,1288.7837,527.9688,1284.7837,523.9688" style="stroke:#181818;stroke-width:1;"/><line style="stroke:#181818;stroke-width:1;stroke-dasharray:2,2;" x1="1282.7837" x2="1764.6641" y1="523.9688" y2="523.9688"/><text fill="#000000" font-family="sans-serif" font-size="13" lengthAdjust="spacing" textLength="125.106" x="1294.7837" y="519.2266">StaffMember or null</text></g><g class="message" data-participant-1="REPO" data-participant-2="SVC"><polygon fill="#181818" points="1042.0737,549.2793,1032.0737,553.2793,1042.0737,557.2793,1038.0737,553.2793" style="stroke:#181818;stroke-width:1;"/><line style="stroke:#181818;stroke-width:1;stroke-dasharray:2,2;" x1="1036.0737" x2="1271.7837" y1="553.2793" y2="553.2793"/><text fill="#000000" font-family="sans-serif" font-size="13" lengthAdjust="spacing" textLength="125.106" x="1048.0737" y="548.5371">StaffMember or null</text></g><path d="M20,568.2793 L82.1387,568.2793 L82.1387,575.5898 L72.1387,585.5898 L20,585.5898 L20,568.2793" fill="#EEEEEE" style="stroke:#000000;stroke-width:1.5;"/><rect fill="none" height="105.2422" style="stroke:#000000;stroke-width:1.5;" width="1091.9902" x="20" y="568.2793"/><text fill="#000000" font-family="sans-serif" font-size="13" font-weight="bold" lengthAdjust="spacing" textLength="17.1387" x="35" y="581.8477">alt</text><text fill="#000000" font-family="sans-serif" font-size="11" font-weight="bold" lengthAdjust="spacing" textLength="143.9023" x="97.1387" y="580.9141">[Staff member not found]</text><g class="message" data-participant-1="SVC" data-participant-2="CTRL"><polygon fill="#181818" points="766.6704,602.9004,756.6704,606.9004,766.6704,610.9004,762.6704,606.9004" style="stroke:#181818;stroke-width:1;"/><line style="stroke:#181818;stroke-width:1;stroke-dasharray:2,2;" x1="760.6704" x2="1020.0737" y1="606.9004" y2="606.9004"/><text fill="#000000" font-family="sans-serif" font-size="13" lengthAdjust="spacing" textLength="23.6514" x="772.6704" y="602.1582">null</text></g><g class="message" data-participant-1="CTRL" data-participant-2="SPA"><polygon fill="#181818" points="465.1699,632.2109,455.1699,636.2109,465.1699,640.2109,461.1699,636.2109" style="stroke:#181818;stroke-width:1;"/><line style="stroke:#181818;stroke-width:1;stroke-dasharray:2,2;" x1="459.1699" x2="754.6704" y1="636.2109" y2="636.2109"/><text fill="#000000" font-family="sans-serif" font-size="13" lengthAdjust="spacing" textLength="94.6118" x="471.1699" y="631.4688">404 Not Found</text></g><g class="message" data-participant-1="SPA" data-participant-2="LO"><polygon fill="#181818" points="106.2549,661.5215,96.2549,665.5215,106.2549,669.5215,102.2549,665.5215" style="stroke:#181818;stroke-width:1;"/><line style="stroke:#181818;stroke-width:1;stroke-dasharray:2,2;" x1="100.2549" x2="453.1699" y1="665.5215" y2="665.5215"/><text fill="#000000" font-family="sans-serif" font-size="13" lengthAdjust="spacing" textLength="160.9131" x="112.2549" y="660.7793">"Staff member not found"</text></g><path d="M659.3394,694.5215 L843.0483,694.5215 L843.0483,701.832 L833.0483,711.832 L659.3394,711.832 L659.3394,694.5215" fill="#EEEEEE" style="stroke:#000000;stroke-width:1.5;"/><rect fill="none" height="299.1055" style="stroke:#000000;stroke-width:1.5;" width="1178.2446" x="659.3394" y="694.5215"/><text fill="#000000" font-family="sans-serif" font-size="13" font-weight="bold" lengthAdjust="spacing" textLength="138.709" x="674.3394" y="708.0898">Update Active Status</text><path d="M1036,716.832 L1036,741.832 L1665,741.832 L1665,726.832 L1655,716.832 L1036,716.832" fill="#FEFFDD" style="stroke:#181818;stroke-width:0.5;"/><path d="M1655,716.832 L1655,726.832 L1665,726.832 L1655,716.832" fill="#FEFFDD" style="stroke:#181818;stroke-width:0.5;"/><text fill="#000000" font-family="sans-serif" font-size="13" lengthAdjust="spacing" textLength="608.4292" x="1042" y="734.4004">Depending on the request:\n- Sets IsActive = false (deactivate)\n- Sets IsActive = true (activate)</text><g class="message" data-participant-1="SVC" data-participant-2="SVC"><line style="stroke:#181818;stroke-width:1;" x1="1031.0737" x2="1073.0737" y1="783.7637" y2="783.7637"/><line style="stroke:#181818;stroke-width:1;" x1="1073.0737" x2="1073.0737" y1="783.7637" y2="796.7637"/><line style="stroke:#181818;stroke-width:1;" x1="1032.0737" x2="1073.0737" y1="796.7637" y2="796.7637"/><polygon fill="#181818" points="1042.0737,792.7637,1032.0737,796.7637,1042.0737,800.7637,1038.0737,796.7637" style="stroke:#181818;stroke-width:1;"/><text fill="#000000" font-family="sans-serif" font-size="13" lengthAdjust="spacing" textLength="212.71" x="1038.0737" y="763.7109">staffMember.IsActive = true/false</text><text fill="#000000" font-family="sans-serif" font-size="13" lengthAdjust="spacing" textLength="203.417" x="1038.0737" y="779.0215">staffMember.UpdatedAt = now()</text></g><g class="message" data-participant-1="SVC" data-participant-2="REPO"><polygon fill="#181818" points="1255.7837,822.0742,1265.7837,826.0742,1255.7837,830.0742,1259.7837,826.0742" style="stroke:#181818;stroke-width:1;"/><line style="stroke:#181818;stroke-width:1;" x1="1031.0737" x2="1261.7837" y1="826.0742" y2="826.0742"/><text fill="#000000" font-family="sans-serif" font-size="13" lengthAdjust="spacing" textLength="128.0068" x="1038.0737" y="821.332">SaveChangesAsync()</text></g><g class="message" data-participant-1="REPO" data-participant-2="DB"><polygon fill="#181818" points="1748.6641,851.3848,1758.6641,855.3848,1748.6641,859.3848,1752.6641,855.3848" style="stroke:#181818;stroke-width:1;"/><line style="stroke:#181818;stroke-width:1;" x1="1277.7837" x2="1754.6641" y1="855.3848" y2="855.3848"/><text fill="#000000" font-family="sans-serif" font-size="13" lengthAdjust="spacing" textLength="463.8804" x="1284.7837" y="850.6426">UPDATE StaffMembers SET IsActive = ?, UpdatedAt = NOW() WHERE Id = ?</text></g><g class="message" data-participant-1="DB" data-participant-2="REPO"><polygon fill="#181818" points="1288.7837,880.6953,1278.7837,884.6953,1288.7837,888.6953,1284.7837,884.6953" style="stroke:#181818;stroke-width:1;"/><line style="stroke:#181818;stroke-width:1;stroke-dasharray:2,2;" x1="1282.7837" x2="1764.6641" y1="884.6953" y2="884.6953"/><text fill="#000000" font-family="sans-serif" font-size="13" lengthAdjust="spacing" textLength="48.5088" x="1294.7837" y="879.9531">success</text></g><g class="message" data-participant-1="REPO" data-participant-2="SVC"><polygon fill="#181818" points="1042.0737,910.0059,1032.0737,914.0059,1042.0737,918.0059,1038.0737,914.0059" style="stroke:#181818;stroke-width:1;"/><line style="stroke:#181818;stroke-width:1;stroke-dasharray:2,2;" x1="1036.0737" x2="1271.7837" y1="914.0059" y2="914.0059"/><text fill="#000000" font-family="sans-serif" font-size="13" lengthAdjust="spacing" textLength="48.5088" x="1048.0737" y="909.2637">success</text></g><g class="message" data-participant-1="SVC" data-participant-2="SVC"><line style="stroke:#181818;stroke-width:1;" x1="1031.0737" x2="1073.0737" y1="943.3164" y2="943.3164"/><line style="stroke:#181818;stroke-width:1;" x1="1073.0737" x2="1073.0737" y1="943.3164" y2="956.3164"/><line style="stroke:#181818;stroke-width:1;" x1="1032.0737" x2="1073.0737" y1="956.3164" y2="956.3164"/><polygon fill="#181818" points="1042.0737,952.3164,1032.0737,956.3164,1042.0737,960.3164,1038.0737,956.3164" style="stroke:#181818;stroke-width:1;"/><text fill="#000000" font-family="sans-serif" font-size="13" lengthAdjust="spacing" textLength="175.9951" x="1038.0737" y="938.5742">ConvertToDto(staffMember)</text></g><g class="message" data-participant-1="SVC" data-participant-2="CTRL"><polygon fill="#181818" points="766.6704,981.627,756.6704,985.627,766.6704,989.627,762.6704,985.627" style="stroke:#181818;stroke-width:1;"/><line style="stroke:#181818;stroke-width:1;stroke-dasharray:2,2;" x1="760.6704" x2="1025.0737" y1="985.627" y2="985.627"/><text fill="#000000" font-family="sans-serif" font-size="13" lengthAdjust="spacing" textLength="102.5083" x="772.6704" y="980.8848">StaffMemberDto</text></g><path d="M20,1007.627 L156.0952,1007.627 L156.0952,1014.9375 L146.0952,1024.9375 L20,1024.9375 L20,1007.627" fill="#EEEEEE" style="stroke:#000000;stroke-width:1.5;"/><rect fill="none" height="111.2422" style="stroke:#000000;stroke-width:1.5;" width="909.8354" x="20" y="1007.627"/><text fill="#000000" font-family="sans-serif" font-size="13" font-weight="bold" lengthAdjust="spacing" textLength="91.0952" x="35" y="1021.1953">Return Result</text><g class="message" data-participant-1="CTRL" data-participant-2="SPA"><polygon fill="#181818" points="465.1699,1042.248,455.1699,1046.248,465.1699,1050.248,461.1699,1046.248" style="stroke:#181818;stroke-width:1;"/><line style="stroke:#181818;stroke-width:1;stroke-dasharray:2,2;" x1="459.1699" x2="754.6704" y1="1046.248" y2="1046.248"/><text fill="#000000" font-family="sans-serif" font-size="13" lengthAdjust="spacing" textLength="168.4287" x="471.1699" y="1041.5059">200 OK + StaffMemberDto</text></g><g class="message" data-participant-1="SPA" data-participant-2="LO"><polygon fill="#181818" points="106.2549,1071.5586,96.2549,1075.5586,106.2549,1079.5586,102.2549,1075.5586" style="stroke:#181818;stroke-width:1;"/><line style="stroke:#181818;stroke-width:1;stroke-dasharray:2,2;" x1="100.2549" x2="453.1699" y1="1075.5586" y2="1075.5586"/><text fill="#000000" font-family="sans-serif" font-size="13" lengthAdjust="spacing" textLength="334.915" x="112.2549" y="1070.8164">"Staff member successfully ${activated/deactivated}!"</text></g><path d="M459,1088.5586 L459,1113.5586 L919,1113.5586 L919,1098.5586 L909,1088.5586 L459,1088.5586" fill="#FEFFDD" style="stroke:#181818;stroke-width:0.5;"/><path d="M909,1088.5586 L909,1098.5586 L919,1098.5586 L909,1088.5586" fill="#FEFFDD" style="stroke:#181818;stroke-width:0.5;"/><text fill="#000000" font-family="sans-serif" font-size="13" lengthAdjust="spacing" textLength="439.8354" x="465" y="1106.127">Displays confirmation message\nand updates staff list or details view</text><path d="M20,1132.8691 L82.1387,1132.8691 L82.1387,1140.1797 L72.1387,1150.1797 L20,1150.1797 L20,1132.8691" fill="#EEEEEE" style="stroke:#000000;stroke-width:1.5;"/><rect fill="none" height="105.2422" style="stroke:#000000;stroke-width:1.5;" width="1091.9902" x="20" y="1132.8691"/><text fill="#000000" font-family="sans-serif" font-size="13" font-weight="bold" lengthAdjust="spacing" textLength="17.1387" x="35" y="1146.4375">alt</text><text fill="#000000" font-family="sans-serif" font-size="11" font-weight="bold" lengthAdjust="spacing" textLength="236.4463" x="97.1387" y="1145.5039">[Staff member already in requested state]</text><g class="message" data-participant-1="SVC" data-participant-2="CTRL"><polygon fill="#181818" points="766.6704,1167.4902,756.6704,1171.4902,766.6704,1175.4902,762.6704,1171.4902" style="stroke:#181818;stroke-width:1;"/><line style="stroke:#181818;stroke-width:1;stroke-dasharray:2,2;" x1="760.6704" x2="1025.0737" y1="1171.4902" y2="1171.4902"/><text fill="#000000" font-family="sans-serif" font-size="13" lengthAdjust="spacing" textLength="246.4033" x="772.6704" y="1166.748">throws BusinessRuleViolationException</text></g><g class="message" data-participant-1="CTRL" data-participant-2="SPA"><polygon fill="#181818" points="465.1699,1196.8008,455.1699,1200.8008,465.1699,1204.8008,461.1699,1200.8008" style="stroke:#181818;stroke-width:1;"/><line style="stroke:#181818;stroke-width:1;stroke-dasharray:2,2;" x1="459.1699" x2="754.6704" y1="1200.8008" y2="1200.8008"/><text fill="#000000" font-family="sans-serif" font-size="13" lengthAdjust="spacing" textLength="277.5005" x="471.1699" y="1196.0586">400 Bad Request + "Already active/inactive"</text></g><g class="message" data-participant-1="SPA" data-participant-2="LO"><polygon fill="#181818" points="106.2549,1226.1113,96.2549,1230.1113,106.2549,1234.1113,102.2549,1230.1113" style="stroke:#181818;stroke-width:1;"/><line style="stroke:#181818;stroke-width:1;stroke-dasharray:2,2;" x1="100.2549" x2="453.1699" y1="1230.1113" y2="1230.1113"/><text fill="#000000" font-family="sans-serif" font-size="13" lengthAdjust="spacing" textLength="294.8486" x="112.2549" y="1225.3691">showError("Staff member already in this state")</text></g><path d="M20,1252.1113 L82.1387,1252.1113 L82.1387,1259.4219 L72.1387,1269.4219 L20,1269.4219 L20,1252.1113" fill="#EEEEEE" style="stroke:#000000;stroke-width:1.5;"/><rect fill="none" height="75.9316" style="stroke:#000000;stroke-width:1.5;" width="832.0015" x="20" y="1252.1113"/><text fill="#000000" font-family="sans-serif" font-size="13" font-weight="bold" lengthAdjust="spacing" textLength="17.1387" x="35" y="1265.6797">alt</text><text fill="#000000" font-family="sans-serif" font-size="11" font-weight="bold" lengthAdjust="spacing" textLength="123.7822" x="97.1387" y="1264.7461">[Internal Server Error]</text><g class="message" data-participant-1="CTRL" data-participant-2="SPA"><polygon fill="#181818" points="465.1699,1286.7324,455.1699,1290.7324,465.1699,1294.7324,461.1699,1290.7324" style="stroke:#181818;stroke-width:1;"/><line style="stroke:#181818;stroke-width:1;stroke-dasharray:2,2;" x1="459.1699" x2="754.6704" y1="1290.7324" y2="1290.7324"/><text fill="#000000" font-family="sans-serif" font-size="13" lengthAdjust="spacing" textLength="155.0859" x="471.1699" y="1285.9902">500 Internal Server Error</text></g><g class="message" data-participant-1="SPA" data-participant-2="LO"><polygon fill="#181818" points="106.2549,1316.043,96.2549,1320.043,106.2549,1324.043,102.2549,1320.043" style="stroke:#181818;stroke-width:1;"/><line style="stroke:#181818;stroke-width:1;stroke-dasharray:2,2;" x1="100.2549" x2="453.1699" y1="1320.043" y2="1320.043"/><text fill="#000000" font-family="sans-serif" font-size="13" lengthAdjust="spacing" textLength="316.3926" x="112.2549" y="1315.3008">showError("Failed to change staff member status")</text></g><!--SRC=[fLPTRzis57tNhxWJ1ipUbZeOkfS0MI7RIcFKjJr9SLxwmaYqJOmcDP9oQXJzxxkaP7quLfPXUh4iN1uUddC_Q9ZX58BKi0Cn54OmfUJq9pPaiu7FTFz45Lp1IicKQWrhHfyz3wEa0dykjqmRbcfOvbGH_EO3qJ1VUZbH-9tbH1Zm7TGS8z_jp9v_4ODu5GnT9BvqGszSRBdhH0gZ9EUqH9qaqRm_EARgm59Qegud_O4HpQLcIFNeOgDmTSRsPYMLgKys7RkmwTZpVeBRxWCFSHZ1R964KJ19Pil5UO2tLRB88QQSfWQ8o22Hsortuff2Uu3FV0bNVrWXu0PIpjA_m3yPueCLkV74XwV262dSEY7H9CMsEmDoOoM7wZbP0HbDMKOr60dfZeWj1REZG0w4SVB4E3F7Bq8x8XQ1W7QExql7cN3H-gWDtJjiYlJjfXw-N18Z2lzy2EC4xkRBnpuXYgSzCn3HlmkgZKCbtFHbNNqYAmvgP1C0HLe5oUGUHYHdevQjesyi-pvYueHKBwwXNVxKdnsO5NuzGSnPlIxGHv4EM3Py2M3JoWd1TQje_YVZccyFiw2NLqQxHwiywhDd7Sndqy1bwUe-YCCUYzQ4iynYXb-n0AX8IoKj6UHagmL9VQHcV9nbNKur6rTIzekBnbNJCQw9mtauIU1dk8kMdw6bWuR7-p0AOPR1BNpeGc7PsVy8SDNitbfh2qGKd7jdWbJhIWArbczOwBZNYHctAm9p7pQoG7LhbwqeZSqrNkDYNTdlhz_30W7kkW0sJJ1cRe_bNzxDxpMyhagaskTwd0H920-hgVrvpVU7tBdkqgtJdxfzvbG3pXMQuwvCR46MpKALTNtpHLnXppCQPhh2kuKDiLKpQCuml1HbL851TKYtxxGJiJHKDuQ-EqCPkGrTWwj3oZDcWS4O8Py7G-z2RiVaG2UkNUeolz-KtPN2dRIEmwHzjW-_Gfl0Olau6FxNrDT5QgVmszAz9xX9yOwME6qFL9b4JeqSj5GRUXTIlNLE33_VmIP9xv28Lyj5_7ekHjGKIk2FBdWv9SwgwRVhQrX-Wb_-XKTJ9QyKMgNI1elt23z-EotEHWrGzlq7_r8juEMbhWMcSqwE6b8fDapjYM5O57i49blCGZlw2sU-hiOin-uARaWRdCSQ3lPUzPOn6qRHCeBxO36TpnOVNoZuecqHhYZ9ZdQWL_L9Cyl1q4l6cfsIpnh6XMO2oKS5fsickJjE-3MbkNtnBZQuQnYJx3JRqHi_g7PsCjBJRAR-IqVqJZw7IaaryFkucntJ9Mr_M4fZJpeJXYf1EDZh7ovm89Ve_Oxq-eFxoDoXDQXMSu7gN97AkrD5vny0]--></g></svg>