<svg xmlns="http://www.w3.org/2000/svg" xmlns:xlink="http://www.w3.org/1999/xlink" contentStyleType="text/css" data-diagram-type="SEQUENCE" height="1962px" preserveAspectRatio="none" style="width:2133px;height:1962px;background:#FFFFFF;" version="1.1" viewBox="0 0 2133 1962" width="2133px" zoomAndPan="magnify"><title>Create Staff Member - Process View</title><defs/><g><text fill="#000000" font-family="sans-serif" font-size="14" font-weight="bold" lengthAdjust="spacing" textLength="260.4971" x="938.054" y="28.5352">Create Staff Member - Process View</text><g><title>.StaffMemberController</title><rect fill="#FFFFFF" height="1133.4902" style="stroke:#181818;stroke-width:1;" width="10" x="831.1689" y="301.1504"/></g><g><title>.StaffMemberService</title><rect fill="#FFFFFF" height="1043.5586" style="stroke:#181818;stroke-width:1;" width="10" x="1087.1104" y="330.4609"/></g><g><title>.QualificationService</title><rect fill="#FFFFFF" height="123.2422" style="stroke:#181818;stroke-width:1;" width="10" x="1441.8403" y="820.4297"/></g><g><title>.StaffMemberRepository</title><rect fill="#FFFFFF" height="87.9316" style="stroke:#181818;stroke-width:1;" width="10" x="1616.0635" y="468.7031"/></g><g><title>.StaffMemberRepository</title><rect fill="#FFFFFF" height="87.9316" style="stroke:#181818;stroke-width:1;" width="10" x="1616.0635" y="585.9453"/></g><g><title>.StaffMemberRepository</title><rect fill="#FFFFFF" height="87.9316" style="stroke:#181818;stroke-width:1;" width="10" x="1616.0635" y="703.1875"/></g><g><title>.StaffMemberRepository</title><rect fill="#FFFFFF" height="87.9316" style="stroke:#181818;stroke-width:1;" width="10" x="1616.0635" y="1097.2246"/></g><g><title>.StaffMemberRepository</title><rect fill="#FFFFFF" height="87.9316" style="stroke:#181818;stroke-width:1;" width="10" x="1616.0635" y="1214.4668"/></g><g><title>.PortLogisticsDB</title><rect fill="#FFFFFF" height="29.3105" style="stroke:#181818;stroke-width:1;" width="10" x="2050.6851" y="498.0137"/></g><g><title>.PortLogisticsDB</title><rect fill="#FFFFFF" height="29.3105" style="stroke:#181818;stroke-width:1;" width="10" x="2050.6851" y="615.2559"/></g><g><title>.PortLogisticsDB</title><rect fill="#FFFFFF" height="29.3105" style="stroke:#181818;stroke-width:1;" width="10" x="2050.6851" y="732.498"/></g><g><title>.PortLogisticsDB</title><rect fill="#FFFFFF" height="29.3105" style="stroke:#181818;stroke-width:1;" width="10" x="2050.6851" y="885.0508"/></g><g><title>.PortLogisticsDB</title><rect fill="#FFFFFF" height="29.3105" style="stroke:#181818;stroke-width:1;" width="10" x="2050.6851" y="1126.5352"/></g><g><title>.PortLogisticsDB</title><rect fill="#FFFFFF" height="29.3105" style="stroke:#181818;stroke-width:1;" width="10" x="2050.6851" y="1243.7773"/></g><rect fill="none" height="97.2422" style="stroke:#000000;stroke-width:1.5;" width="498.9316" x="10" y="135.9766"/><rect fill="none" height="91.2422" style="stroke:#000000;stroke-width:1.5;" width="868.6206" x="309.4063" y="247.2188"/><rect fill="none" height="599.2109" style="stroke:#000000;stroke-width:1.5;" width="1121.4111" x="1006.1938" y="352.4609"/><rect fill="none" height="416.3477" style="stroke:#000000;stroke-width:1.5;" width="1387.7671" x="739.8379" y="965.6719"/><rect fill="none" height="111.2422" style="stroke:#000000;stroke-width:1.5;" width="922.5" x="10" y="1396.0195"/><rect fill="none" height="105.2422" style="stroke:#000000;stroke-width:1.5;" width="1168.0269" x="10" y="1521.2617"/><rect fill="none" height="134.5527" style="stroke:#000000;stroke-width:1.5;" width="1522.75" x="10" y="1640.5039"/><rect fill="none" height="75.9316" style="stroke:#000000;stroke-width:1.5;" width="922.5" x="10" y="1789.0566"/><g><title>Logistics Operator</title><rect fill="#000000" fill-opacity="0.00000" height="1763.0117" width="8" x="81.2549" y="118.9766"/><line style="stroke:#181818;stroke-width:0.5;stroke-dasharray:5,5;" x1="85" x2="85" y1="118.9766" y2="1881.9883"/></g><g><title>CreateStaffMember.html</title><rect fill="#000000" fill-opacity="0.00000" height="1763.0117" width="8" x="405.1689" y="118.9766"/><line style="stroke:#181818;stroke-width:0.5;stroke-dasharray:5,5;" x1="408.4063" x2="408.4063" y1="118.9766" y2="1881.9883"/></g><g><title>.StaffMemberController</title><rect fill="#000000" fill-opacity="0.00000" height="1763.0117" width="8" x="832.1689" y="118.9766"/><line style="stroke:#181818;stroke-width:0.5;stroke-dasharray:5,5;" x1="835.8379" x2="835.8379" y1="118.9766" y2="1881.9883"/></g><g><title>.StaffMemberService</title><rect fill="#000000" fill-opacity="0.00000" height="1763.0117" width="8" x="1088.1104" y="118.9766"/><line style="stroke:#181818;stroke-width:0.5;stroke-dasharray:5,5;" x1="1091.1938" x2="1091.1938" y1="118.9766" y2="1881.9883"/></g><g><title>.QualificationService</title><rect fill="#000000" fill-opacity="0.00000" height="1763.0117" width="8" x="1442.8403" y="118.9766"/><line style="stroke:#181818;stroke-width:0.5;stroke-dasharray:5,5;" x1="1445.9307" x2="1445.9307" y1="118.9766" y2="1881.9883"/></g><g><title>.StaffMemberRepository</title><rect fill="#000000" fill-opacity="0.00000" height="1763.0117" width="8" x="1617.0635" y="118.9766"/><line style="stroke:#181818;stroke-width:0.5;stroke-dasharray:5,5;" x1="1620.75" x2="1620.75" y1="118.9766" y2="1881.9883"/></g><g><title>.PortLogisticsDB</title><rect fill="#000000" fill-opacity="0.00000" height="1763.0117" width="8" x="2051.6851" y="118.9766"/><line style="stroke:#181818;stroke-width:0.5;stroke-dasharray:5,5;" x1="2054.7651" x2="2054.7651" y1="118.9766" y2="1881.9883"/></g><g class="participant participant-head" data-participant="LO"><text fill="#000000" font-family="sans-serif" font-size="14" lengthAdjust="spacing" textLength="124.5098" x="20" y="116.0234">Logistics Operator</text><ellipse cx="85.2549" cy="50.9883" fill="#E2E2F0" rx="8" ry="8" style="stroke:#181818;stroke-width:0.5;"/><path d="M85.2549,58.9883 L85.2549,85.9883 M72.2549,66.9883 L98.2549,66.9883 M85.2549,85.9883 L72.2549,100.9883 M85.2549,85.9883 L98.2549,100.9883" fill="none" style="stroke:#181818;stroke-width:0.5;"/></g><g class="participant participant-tail" data-participant="LO"><text fill="#000000" font-family="sans-serif" font-size="14" lengthAdjust="spacing" textLength="124.5098" x="20" y="1894.5234">Logistics Operator</text><ellipse cx="85.2549" cy="1905.9766" fill="#E2E2F0" rx="8" ry="8" style="stroke:#181818;stroke-width:0.5;"/><path d="M85.2549,1913.9766 L85.2549,1940.9766 M72.2549,1921.9766 L98.2549,1921.9766 M85.2549,1940.9766 L72.2549,1955.9766 M85.2549,1940.9766 L98.2549,1955.9766" fill="none" style="stroke:#181818;stroke-width:0.5;"/></g><g class="participant participant-head" data-participant="SPA"><rect fill="#E2E2F0" height="46.9766" rx="2.5" ry="2.5" style="stroke:#181818;stroke-width:0.5;" width="179.5254" x="319.4063" y="71"/><text fill="#000000" font-family="sans-serif" font-size="14" lengthAdjust="spacing" textLength="165.5254" x="326.4063" y="91.5352">CreateStaffMember.html</text><text fill="#000000" font-family="sans-serif" font-size="14" lengthAdjust="spacing" textLength="34.043" x="392.1475" y="108.0234">(SPA)</text></g><g class="participant participant-tail" data-participant="SPA"><rect fill="#E2E2F0" height="46.9766" rx="2.5" ry="2.5" style="stroke:#181818;stroke-width:0.5;" width="179.5254" x="319.4063" y="1880.9883"/><text fill="#000000" font-family="sans-serif" font-size="14" lengthAdjust="spacing" textLength="165.5254" x="326.4063" y="1901.5234">CreateStaffMember.html</text><text fill="#000000" font-family="sans-serif" font-size="14" lengthAdjust="spacing" textLength="34.043" x="392.1475" y="1918.0117">(SPA)</text></g><g class="participant participant-head" data-participant="CTRL"><rect fill="#E2E2F0" height="30.4883" rx="2.5" ry="2.5" style="stroke:#181818;stroke-width:0.5;" width="172.6621" x="749.8379" y="87.4883"/><text fill="#000000" font-family="sans-serif" font-size="14" lengthAdjust="spacing" textLength="158.6621" x="756.8379" y="108.0234">:StaffMemberController</text></g><g class="participant participant-tail" data-participant="CTRL"><rect fill="#E2E2F0" height="30.4883" rx="2.5" ry="2.5" style="stroke:#181818;stroke-width:0.5;" width="172.6621" x="749.8379" y="1880.9883"/><text fill="#000000" font-family="sans-serif" font-size="14" lengthAdjust="spacing" textLength="158.6621" x="756.8379" y="1901.5234">:StaffMemberController</text></g><g class="participant participant-head" data-participant="SVC"><rect fill="#E2E2F0" height="30.4883" rx="2.5" ry="2.5" style="stroke:#181818;stroke-width:0.5;" width="151.833" x="1016.1938" y="87.4883"/><text fill="#000000" font-family="sans-serif" font-size="14" lengthAdjust="spacing" textLength="137.833" x="1023.1938" y="108.0234">:StaffMemberService</text></g><g class="participant participant-tail" data-participant="SVC"><rect fill="#E2E2F0" height="30.4883" rx="2.5" ry="2.5" style="stroke:#181818;stroke-width:0.5;" width="151.833" x="1016.1938" y="1880.9883"/><text fill="#000000" font-family="sans-serif" font-size="14" lengthAdjust="spacing" textLength="137.833" x="1023.1938" y="1901.5234">:StaffMemberService</text></g><g class="participant participant-head" data-participant="QSVC"><rect fill="#E2E2F0" height="30.4883" rx="2.5" ry="2.5" style="stroke:#181818;stroke-width:0.5;" width="151.8193" x="1370.9307" y="87.4883"/><text fill="#000000" font-family="sans-serif" font-size="14" lengthAdjust="spacing" textLength="137.8193" x="1377.9307" y="108.0234">:QualificationService</text></g><g class="participant participant-tail" data-participant="QSVC"><rect fill="#E2E2F0" height="30.4883" rx="2.5" ry="2.5" style="stroke:#181818;stroke-width:0.5;" width="151.8193" x="1370.9307" y="1880.9883"/><text fill="#000000" font-family="sans-serif" font-size="14" lengthAdjust="spacing" textLength="137.8193" x="1377.9307" y="1901.5234">:QualificationService</text></g><g class="participant participant-head" data-participant="REPO"><rect fill="#E2E2F0" height="30.4883" rx="2.5" ry="2.5" style="stroke:#181818;stroke-width:0.5;" width="176.627" x="1532.75" y="87.4883"/><text fill="#000000" font-family="sans-serif" font-size="14" lengthAdjust="spacing" textLength="162.627" x="1539.75" y="108.0234">:StaffMemberRepository</text></g><g class="participant participant-tail" data-participant="REPO"><rect fill="#E2E2F0" height="30.4883" rx="2.5" ry="2.5" style="stroke:#181818;stroke-width:0.5;" width="176.627" x="1532.75" y="1880.9883"/><text fill="#000000" font-family="sans-serif" font-size="14" lengthAdjust="spacing" textLength="162.627" x="1539.75" y="1901.5234">:StaffMemberRepository</text></g><g class="participant participant-head" data-participant="DB"><rect fill="#E2E2F0" height="30.4883" rx="2.5" ry="2.5" style="stroke:#181818;stroke-width:0.5;" width="123.8398" x="1993.7651" y="87.4883"/><text fill="#000000" font-family="sans-serif" font-size="14" lengthAdjust="spacing" textLength="109.8398" x="2000.7651" y="108.0234">:PortLogisticsDB</text></g><g class="participant participant-tail" data-participant="DB"><rect fill="#E2E2F0" height="30.4883" rx="2.5" ry="2.5" style="stroke:#181818;stroke-width:0.5;" width="123.8398" x="1993.7651" y="1880.9883"/><text fill="#000000" font-family="sans-serif" font-size="14" lengthAdjust="spacing" textLength="109.8398" x="2000.7651" y="1901.5234">:PortLogisticsDB</text></g><g><title>.StaffMemberController</title><rect fill="#FFFFFF" height="1133.4902" style="stroke:#181818;stroke-width:1;" width="10" x="831.1689" y="301.1504"/></g><g><title>.StaffMemberService</title><rect fill="#FFFFFF" height="1043.5586" style="stroke:#181818;stroke-width:1;" width="10" x="1087.1104" y="330.4609"/></g><g><title>.QualificationService</title><rect fill="#FFFFFF" height="123.2422" style="stroke:#181818;stroke-width:1;" width="10" x="1441.8403" y="820.4297"/></g><g><title>.StaffMemberRepository</title><rect fill="#FFFFFF" height="87.9316" style="stroke:#181818;stroke-width:1;" width="10" x="1616.0635" y="468.7031"/></g><g><title>.StaffMemberRepository</title><rect fill="#FFFFFF" height="87.9316" style="stroke:#181818;stroke-width:1;" width="10" x="1616.0635" y="585.9453"/></g><g><title>.StaffMemberRepository</title><rect fill="#FFFFFF" height="87.9316" style="stroke:#181818;stroke-width:1;" width="10" x="1616.0635" y="703.1875"/></g><g><title>.StaffMemberRepository</title><rect fill="#FFFFFF" height="87.9316" style="stroke:#181818;stroke-width:1;" width="10" x="1616.0635" y="1097.2246"/></g><g><title>.StaffMemberRepository</title><rect fill="#FFFFFF" height="87.9316" style="stroke:#181818;stroke-width:1;" width="10" x="1616.0635" y="1214.4668"/></g><g><title>.PortLogisticsDB</title><rect fill="#FFFFFF" height="29.3105" style="stroke:#181818;stroke-width:1;" width="10" x="2050.6851" y="498.0137"/></g><g><title>.PortLogisticsDB</title><rect fill="#FFFFFF" height="29.3105" style="stroke:#181818;stroke-width:1;" width="10" x="2050.6851" y="615.2559"/></g><g><title>.PortLogisticsDB</title><rect fill="#FFFFFF" height="29.3105" style="stroke:#181818;stroke-width:1;" width="10" x="2050.6851" y="732.498"/></g><g><title>.PortLogisticsDB</title><rect fill="#FFFFFF" height="29.3105" style="stroke:#181818;stroke-width:1;" width="10" x="2050.6851" y="885.0508"/></g><g><title>.PortLogisticsDB</title><rect fill="#FFFFFF" height="29.3105" style="stroke:#181818;stroke-width:1;" width="10" x="2050.6851" y="1126.5352"/></g><g><title>.PortLogisticsDB</title><rect fill="#FFFFFF" height="29.3105" style="stroke:#181818;stroke-width:1;" width="10" x="2050.6851" y="1243.7773"/></g><path d="M10,135.9766 L178.646,135.9766 L178.646,143.2871 L168.646,153.2871 L10,153.2871 L10,135.9766" fill="#EEEEEE" style="stroke:#000000;stroke-width:1.5;"/><rect fill="none" height="97.2422" style="stroke:#000000;stroke-width:1.5;" width="498.9316" x="10" y="135.9766"/><text fill="#000000" font-family="sans-serif" font-size="13" font-weight="bold" lengthAdjust="spacing" textLength="123.646" x="25" y="149.5449">Fill &amp; Submit Form</text><g class="message" data-participant-1="LO" data-participant-2="SPA"><polygon fill="#181818" points="397.1689,185.9082,407.1689,189.9082,397.1689,193.9082,401.1689,189.9082" style="stroke:#181818;stroke-width:1;"/><line style="stroke:#181818;stroke-width:1;" x1="85.2549" x2="403.1689" y1="189.9082" y2="189.9082"/><text fill="#000000" font-family="sans-serif" font-size="13" lengthAdjust="spacing" textLength="266.4556" x="92.2549" y="169.8555">fillForm(shortName, email, phoneNumber,</text><text fill="#000000" font-family="sans-serif" font-size="13" lengthAdjust="spacing" textLength="172.6689" x="92.2549" y="185.166">qualifications[], isAvailable)</text></g><path d="M90,202.9082 L90,227.9082 L472,227.9082 L472,212.9082 L462,202.9082 L90,202.9082" fill="#FEFFDD" style="stroke:#181818;stroke-width:0.5;"/><path d="M462,202.9082 L462,212.9082 L472,212.9082 L462,202.9082" fill="#FEFFDD" style="stroke:#181818;stroke-width:0.5;"/><text fill="#000000" font-family="sans-serif" font-size="13" lengthAdjust="spacing" textLength="361.9053" x="96" y="220.4766">Operator fills the form and clicks\n"Create Staff Member"</text><path d="M309.4063,247.2188 L459.3457,247.2188 L459.3457,254.5293 L449.3457,264.5293 L309.4063,264.5293 L309.4063,247.2188" fill="#EEEEEE" style="stroke:#000000;stroke-width:1.5;"/><rect fill="none" height="91.2422" style="stroke:#000000;stroke-width:1.5;" width="868.6206" x="309.4063" y="247.2188"/><text fill="#000000" font-family="sans-serif" font-size="13" font-weight="bold" lengthAdjust="spacing" textLength="104.9395" x="324.4063" y="260.7871">Submit Request</text><g class="message" data-participant-1="SPA" data-participant-2="CTRL"><polygon fill="#181818" points="819.1689,297.1504,829.1689,301.1504,819.1689,305.1504,823.1689,301.1504" style="stroke:#181818;stroke-width:1;"/><line style="stroke:#181818;stroke-width:1;" x1="409.1689" x2="825.1689" y1="301.1504" y2="301.1504"/><text fill="#000000" font-family="sans-serif" font-size="13" lengthAdjust="spacing" textLength="149.2969" x="416.1689" y="281.0977">POST /api/StaffMember</text><text fill="#000000" font-family="sans-serif" font-size="13" lengthAdjust="spacing" textLength="403" x="416.1689" y="296.4082">{ shortName, email, phoneNumber, qualifications[], isAvailable }</text></g><g class="message" data-participant-1="CTRL" data-participant-2="SVC"><polygon fill="#181818" points="1075.1104,326.4609,1085.1104,330.4609,1075.1104,334.4609,1079.1104,330.4609" style="stroke:#181818;stroke-width:1;"/><line style="stroke:#181818;stroke-width:1;" x1="841.1689" x2="1081.1104" y1="330.4609" y2="330.4609"/><text fill="#000000" font-family="sans-serif" font-size="13" lengthAdjust="spacing" textLength="226.9414" x="848.1689" y="325.7188">AddAsync(CreatingStaffMemberDto)</text></g><path d="M1006.1938,352.4609 L1145.0693,352.4609 L1145.0693,359.7715 L1135.0693,369.7715 L1006.1938,369.7715 L1006.1938,352.4609" fill="#EEEEEE" style="stroke:#000000;stroke-width:1.5;"/><rect fill="none" height="599.2109" style="stroke:#000000;stroke-width:1.5;" width="1121.4111" x="1006.1938" y="352.4609"/><text fill="#000000" font-family="sans-serif" font-size="13" font-weight="bold" lengthAdjust="spacing" textLength="93.8755" x="1021.1938" y="366.0293">Validate Input</text><g class="message" data-participant-1="SVC" data-participant-2="SVC"><line style="stroke:#181818;stroke-width:1;" x1="1097.1104" x2="1139.1104" y1="391.082" y2="391.082"/><line style="stroke:#181818;stroke-width:1;" x1="1139.1104" x2="1139.1104" y1="391.082" y2="404.082"/><line style="stroke:#181818;stroke-width:1;" x1="1098.1104" x2="1139.1104" y1="404.082" y2="404.082"/><polygon fill="#181818" points="1108.1104,400.082,1098.1104,404.082,1108.1104,408.082,1104.1104,404.082" style="stroke:#181818;stroke-width:1;"/><text fill="#000000" font-family="sans-serif" font-size="13" lengthAdjust="spacing" textLength="172.8975" x="1104.1104" y="386.3398">ValidateRequiredFields(dto)</text></g><path d="M1102,417.082 L1102,442.082 L1610,442.082 L1610,427.082 L1600,417.082 L1102,417.082" fill="#FEFFDD" style="stroke:#181818;stroke-width:0.5;"/><path d="M1600,417.082 L1600,427.082 L1610,427.082 L1600,417.082" fill="#FEFFDD" style="stroke:#181818;stroke-width:0.5;"/><text fill="#000000" font-family="sans-serif" font-size="13" lengthAdjust="spacing" textLength="487.2144" x="1108" y="434.6504">Ensures short name , email and phoneNumber \nare provided and not empty</text><g class="message" data-participant-1="SVC" data-participant-2="REPO"><polygon fill="#181818" points="1604.0635,464.7031,1614.0635,468.7031,1604.0635,472.7031,1608.0635,468.7031" style="stroke:#181818;stroke-width:1;"/><line style="stroke:#181818;stroke-width:1;" x1="1097.1104" x2="1610.0635" y1="468.7031" y2="468.7031"/><text fill="#000000" font-family="sans-serif" font-size="13" lengthAdjust="spacing" textLength="244.9053" x="1104.1104" y="463.9609">GetByShortNameAsync(dto.shortName)</text></g><g class="message" data-participant-1="REPO" data-participant-2="DB"><polygon fill="#181818" points="2038.6851,494.0137,2048.6851,498.0137,2038.6851,502.0137,2042.6851,498.0137" style="stroke:#181818;stroke-width:1;"/><line style="stroke:#181818;stroke-width:1;" x1="1626.0635" x2="2044.6851" y1="498.0137" y2="498.0137"/><text fill="#000000" font-family="sans-serif" font-size="13" lengthAdjust="spacing" textLength="331.5381" x="1633.0635" y="493.2715">SELECT * FROM StaffMembers WHERE ShortName = ?</text></g><g class="message" data-participant-1="DB" data-participant-2="REPO"><polygon fill="#181818" points="1637.0635,523.3242,1627.0635,527.3242,1637.0635,531.3242,1633.0635,527.3242" style="stroke:#181818;stroke-width:1;"/><line style="stroke:#181818;stroke-width:1;stroke-dasharray:2,2;" x1="1631.0635" x2="2054.6851" y1="527.3242" y2="527.3242"/><text fill="#000000" font-family="sans-serif" font-size="13" lengthAdjust="spacing" textLength="23.6514" x="1643.0635" y="522.582">null</text></g><g class="message" data-participant-1="REPO" data-participant-2="SVC"><polygon fill="#181818" points="1108.1104,552.6348,1098.1104,556.6348,1108.1104,560.6348,1104.1104,556.6348" style="stroke:#181818;stroke-width:1;"/><line style="stroke:#181818;stroke-width:1;stroke-dasharray:2,2;" x1="1102.1104" x2="1620.0635" y1="556.6348" y2="556.6348"/><text fill="#000000" font-family="sans-serif" font-size="13" lengthAdjust="spacing" textLength="23.6514" x="1114.1104" y="551.8926">null</text></g><g class="message" data-participant-1="SVC" data-participant-2="REPO"><polygon fill="#181818" points="1604.0635,581.9453,1614.0635,585.9453,1604.0635,589.9453,1608.0635,585.9453" style="stroke:#181818;stroke-width:1;"/><line style="stroke:#181818;stroke-width:1;" x1="1097.1104" x2="1610.0635" y1="585.9453" y2="585.9453"/><text fill="#000000" font-family="sans-serif" font-size="13" lengthAdjust="spacing" textLength="189.6299" x="1104.1104" y="581.2031">ExistsByEmailAsync(dto.Email)</text></g><g class="message" data-participant-1="REPO" data-participant-2="DB"><polygon fill="#181818" points="2038.6851,611.2559,2048.6851,615.2559,2038.6851,619.2559,2042.6851,615.2559" style="stroke:#181818;stroke-width:1;"/><line style="stroke:#181818;stroke-width:1;" x1="1626.0635" x2="2044.6851" y1="615.2559" y2="615.2559"/><text fill="#000000" font-family="sans-serif" font-size="13" lengthAdjust="spacing" textLength="350.397" x="1633.0635" y="610.5137">SELECT COUNT(*) FROM StaffMembers WHERE Email = ?</text></g><g class="message" data-participant-1="DB" data-participant-2="REPO"><polygon fill="#181818" points="1637.0635,640.5664,1627.0635,644.5664,1637.0635,648.5664,1633.0635,644.5664" style="stroke:#181818;stroke-width:1;"/><line style="stroke:#181818;stroke-width:1;stroke-dasharray:2,2;" x1="1631.0635" x2="2054.6851" y1="644.5664" y2="644.5664"/><text fill="#000000" font-family="sans-serif" font-size="13" lengthAdjust="spacing" textLength="8.2202" x="1643.0635" y="639.8242">0</text></g><g class="message" data-participant-1="REPO" data-participant-2="SVC"><polygon fill="#181818" points="1108.1104,669.877,1098.1104,673.877,1108.1104,677.877,1104.1104,673.877" style="stroke:#181818;stroke-width:1;"/><line style="stroke:#181818;stroke-width:1;stroke-dasharray:2,2;" x1="1102.1104" x2="1620.0635" y1="673.877" y2="673.877"/><text fill="#000000" font-family="sans-serif" font-size="13" lengthAdjust="spacing" textLength="29.5864" x="1114.1104" y="669.1348">false</text></g><g class="message" data-participant-1="SVC" data-participant-2="REPO"><polygon fill="#181818" points="1604.0635,699.1875,1614.0635,703.1875,1604.0635,707.1875,1608.0635,703.1875" style="stroke:#181818;stroke-width:1;"/><line style="stroke:#181818;stroke-width:1;" x1="1097.1104" x2="1610.0635" y1="703.1875" y2="703.1875"/><text fill="#000000" font-family="sans-serif" font-size="13" lengthAdjust="spacing" textLength="300.0791" x="1104.1104" y="698.4453">ExistsByPhoneNumberAsync(dto.PhoneNumber)</text></g><g class="message" data-participant-1="REPO" data-participant-2="DB"><polygon fill="#181818" points="2038.6851,728.498,2048.6851,732.498,2038.6851,736.498,2042.6851,732.498" style="stroke:#181818;stroke-width:1;"/><line style="stroke:#181818;stroke-width:1;" x1="1626.0635" x2="2044.6851" y1="732.498" y2="732.498"/><text fill="#000000" font-family="sans-serif" font-size="13" lengthAdjust="spacing" textLength="405.6216" x="1633.0635" y="727.7559">SELECT COUNT(*) FROM StaffMembers WHERE PhoneNumber = ?</text></g><g class="message" data-participant-1="DB" data-participant-2="REPO"><polygon fill="#181818" points="1637.0635,757.8086,1627.0635,761.8086,1637.0635,765.8086,1633.0635,761.8086" style="stroke:#181818;stroke-width:1;"/><line style="stroke:#181818;stroke-width:1;stroke-dasharray:2,2;" x1="1631.0635" x2="2054.6851" y1="761.8086" y2="761.8086"/><text fill="#000000" font-family="sans-serif" font-size="13" lengthAdjust="spacing" textLength="8.2202" x="1643.0635" y="757.0664">0</text></g><g class="message" data-participant-1="REPO" data-participant-2="SVC"><polygon fill="#181818" points="1108.1104,787.1191,1098.1104,791.1191,1108.1104,795.1191,1104.1104,791.1191" style="stroke:#181818;stroke-width:1;"/><line style="stroke:#181818;stroke-width:1;stroke-dasharray:2,2;" x1="1102.1104" x2="1620.0635" y1="791.1191" y2="791.1191"/><text fill="#000000" font-family="sans-serif" font-size="13" lengthAdjust="spacing" textLength="29.5864" x="1114.1104" y="786.377">false</text></g><g class="message" data-participant-1="SVC" data-participant-2="QSVC"><polygon fill="#181818" points="1429.8403,816.4297,1439.8403,820.4297,1429.8403,824.4297,1433.8403,820.4297" style="stroke:#181818;stroke-width:1;"/><line style="stroke:#181818;stroke-width:1;" x1="1097.1104" x2="1435.8403" y1="820.4297" y2="820.4297"/><text fill="#000000" font-family="sans-serif" font-size="13" lengthAdjust="spacing" textLength="325.73" x="1104.1104" y="815.6875">GetQualificationIdsByNameAsync(dto.qualifications)</text></g><path d="M1102,833.4297 L1102,858.4297 L1684,858.4297 L1684,843.4297 L1674,833.4297 L1102,833.4297" fill="#FEFFDD" style="stroke:#181818;stroke-width:0.5;"/><path d="M1674,833.4297 L1674,843.4297 L1684,843.4297 L1674,833.4297" fill="#FEFFDD" style="stroke:#181818;stroke-width:0.5;"/><text fill="#000000" font-family="sans-serif" font-size="13" lengthAdjust="spacing" textLength="561.0693" x="1108" y="850.998">Validates that all provided qualification names\nexist in the system and returns their IDs</text><g class="message" data-participant-1="QSVC" data-participant-2="DB"><polygon fill="#181818" points="2038.6851,881.0508,2048.6851,885.0508,2038.6851,889.0508,2042.6851,885.0508" style="stroke:#181818;stroke-width:1;"/><line style="stroke:#181818;stroke-width:1;" x1="1451.8403" x2="2044.6851" y1="885.0508" y2="885.0508"/><text fill="#000000" font-family="sans-serif" font-size="13" lengthAdjust="spacing" textLength="415.6445" x="1458.8403" y="880.3086">SELECT * FROM Qualifications WHERE DescriptiveName IN (names)</text></g><g class="message" data-participant-1="DB" data-participant-2="QSVC"><polygon fill="#181818" points="1462.8403,910.3613,1452.8403,914.3613,1462.8403,918.3613,1458.8403,914.3613" style="stroke:#181818;stroke-width:1;"/><line style="stroke:#181818;stroke-width:1;stroke-dasharray:2,2;" x1="1456.8403" x2="2054.6851" y1="914.3613" y2="914.3613"/><text fill="#000000" font-family="sans-serif" font-size="13" lengthAdjust="spacing" textLength="122.7573" x="1468.8403" y="909.6191">List&lt;Qualification&gt;</text></g><g class="message" data-participant-1="QSVC" data-participant-2="SVC"><polygon fill="#181818" points="1108.1104,939.6719,1098.1104,943.6719,1108.1104,947.6719,1104.1104,943.6719" style="stroke:#181818;stroke-width:1;"/><line style="stroke:#181818;stroke-width:1;stroke-dasharray:2,2;" x1="1102.1104" x2="1445.8403" y1="943.6719" y2="943.6719"/><text fill="#000000" font-family="sans-serif" font-size="13" lengthAdjust="spacing" textLength="122.7573" x="1114.1104" y="938.9297">List&lt;Qualification&gt;</text></g><path d="M739.8379,965.6719 L964.978,965.6719 L964.978,972.9824 L954.978,982.9824 L739.8379,982.9824 L739.8379,965.6719" fill="#EEEEEE" style="stroke:#000000;stroke-width:1.5;"/><rect fill="none" height="416.3477" style="stroke:#000000;stroke-width:1.5;" width="1387.7671" x="739.8379" y="965.6719"/><text fill="#000000" font-family="sans-serif" font-size="13" font-weight="bold" lengthAdjust="spacing" textLength="180.1401" x="754.8379" y="979.2402">Create Staff Member Entity</text><g class="message" data-participant-1="SVC" data-participant-2="SVC"><line style="stroke:#181818;stroke-width:1;" x1="1097.1104" x2="1139.1104" y1="1019.6035" y2="1019.6035"/><line style="stroke:#181818;stroke-width:1;" x1="1139.1104" x2="1139.1104" y1="1019.6035" y2="1032.6035"/><line style="stroke:#181818;stroke-width:1;" x1="1098.1104" x2="1139.1104" y1="1032.6035" y2="1032.6035"/><polygon fill="#181818" points="1108.1104,1028.6035,1098.1104,1032.6035,1108.1104,1036.6035,1104.1104,1032.6035" style="stroke:#181818;stroke-width:1;"/><text fill="#000000" font-family="sans-serif" font-size="13" lengthAdjust="spacing" textLength="186.729" x="1104.1104" y="999.5508">new StaffMember(shortName,</text><text fill="#000000" font-family="sans-serif" font-size="13" lengthAdjust="spacing" textLength="273.8062" x="1104.1104" y="1014.8613">contactDetails, qualificationIds, isAvailable)</text></g><path d="M1102,1045.6035 L1102,1070.6035 L1536,1070.6035 L1536,1055.6035 L1526,1045.6035 L1102,1045.6035" fill="#FEFFDD" style="stroke:#181818;stroke-width:0.5;"/><path d="M1526,1045.6035 L1526,1055.6035 L1536,1055.6035 L1526,1045.6035" fill="#FEFFDD" style="stroke:#181818;stroke-width:0.5;"/><text fill="#000000" font-family="sans-serif" font-size="13" lengthAdjust="spacing" textLength="413.6958" x="1108" y="1063.1719">Creates domain entity with validated\nfields and qualification IDs</text><g class="message" data-participant-1="SVC" data-participant-2="REPO"><polygon fill="#181818" points="1604.0635,1093.2246,1614.0635,1097.2246,1604.0635,1101.2246,1608.0635,1097.2246" style="stroke:#181818;stroke-width:1;"/><line style="stroke:#181818;stroke-width:1;" x1="1097.1104" x2="1610.0635" y1="1097.2246" y2="1097.2246"/><text fill="#000000" font-family="sans-serif" font-size="13" lengthAdjust="spacing" textLength="150.4521" x="1104.1104" y="1092.4824">AddAsync(staffMember)</text></g><g class="message" data-participant-1="REPO" data-participant-2="DB"><polygon fill="#181818" points="2038.6851,1122.5352,2048.6851,1126.5352,2038.6851,1130.5352,2042.6851,1126.5352" style="stroke:#181818;stroke-width:1;"/><line style="stroke:#181818;stroke-width:1;" x1="1626.0635" x2="2044.6851" y1="1126.5352" y2="1126.5352"/><text fill="#000000" font-family="sans-serif" font-size="13" lengthAdjust="spacing" textLength="191.0771" x="1633.0635" y="1121.793">INSERT INTO StaffMembers(...)</text></g><g class="message" data-participant-1="DB" data-participant-2="REPO"><polygon fill="#181818" points="1637.0635,1151.8457,1627.0635,1155.8457,1637.0635,1159.8457,1633.0635,1155.8457" style="stroke:#181818;stroke-width:1;"/><line style="stroke:#181818;stroke-width:1;stroke-dasharray:2,2;" x1="1631.0635" x2="2054.6851" y1="1155.8457" y2="1155.8457"/><text fill="#000000" font-family="sans-serif" font-size="13" lengthAdjust="spacing" textLength="48.5088" x="1643.0635" y="1151.1035">success</text></g><g class="message" data-participant-1="REPO" data-participant-2="SVC"><polygon fill="#181818" points="1108.1104,1181.1563,1098.1104,1185.1563,1108.1104,1189.1563,1104.1104,1185.1563" style="stroke:#181818;stroke-width:1;"/><line style="stroke:#181818;stroke-width:1;stroke-dasharray:2,2;" x1="1102.1104" x2="1620.0635" y1="1185.1563" y2="1185.1563"/><text fill="#000000" font-family="sans-serif" font-size="13" lengthAdjust="spacing" textLength="48.5088" x="1114.1104" y="1180.4141">success</text></g><g class="message" data-participant-1="SVC" data-participant-2="REPO"><polygon fill="#181818" points="1604.0635,1210.4668,1614.0635,1214.4668,1604.0635,1218.4668,1608.0635,1214.4668" style="stroke:#181818;stroke-width:1;"/><line style="stroke:#181818;stroke-width:1;" x1="1097.1104" x2="1610.0635" y1="1214.4668" y2="1214.4668"/><text fill="#000000" font-family="sans-serif" font-size="13" lengthAdjust="spacing" textLength="128.0068" x="1104.1104" y="1209.7246">SaveChangesAsync()</text></g><g class="message" data-participant-1="REPO" data-participant-2="DB"><polygon fill="#181818" points="2038.6851,1239.7773,2048.6851,1243.7773,2038.6851,1247.7773,2042.6851,1243.7773" style="stroke:#181818;stroke-width:1;"/><line style="stroke:#181818;stroke-width:1;" x1="1626.0635" x2="2044.6851" y1="1243.7773" y2="1243.7773"/><text fill="#000000" font-family="sans-serif" font-size="13" lengthAdjust="spacing" textLength="149.2144" x="1633.0635" y="1239.0352">COMMIT TRANSACTION</text></g><g class="message" data-participant-1="DB" data-participant-2="REPO"><polygon fill="#181818" points="1637.0635,1269.0879,1627.0635,1273.0879,1637.0635,1277.0879,1633.0635,1273.0879" style="stroke:#181818;stroke-width:1;"/><line style="stroke:#181818;stroke-width:1;stroke-dasharray:2,2;" x1="1631.0635" x2="2054.6851" y1="1273.0879" y2="1273.0879"/><text fill="#000000" font-family="sans-serif" font-size="13" lengthAdjust="spacing" textLength="48.5088" x="1643.0635" y="1268.3457">success</text></g><g class="message" data-participant-1="REPO" data-participant-2="SVC"><polygon fill="#181818" points="1108.1104,1298.3984,1098.1104,1302.3984,1108.1104,1306.3984,1104.1104,1302.3984" style="stroke:#181818;stroke-width:1;"/><line style="stroke:#181818;stroke-width:1;stroke-dasharray:2,2;" x1="1102.1104" x2="1620.0635" y1="1302.3984" y2="1302.3984"/><text fill="#000000" font-family="sans-serif" font-size="13" lengthAdjust="spacing" textLength="48.5088" x="1114.1104" y="1297.6563">success</text></g><g class="message" data-participant-1="SVC" data-participant-2="SVC"><line style="stroke:#181818;stroke-width:1;" x1="1097.1104" x2="1139.1104" y1="1331.709" y2="1331.709"/><line style="stroke:#181818;stroke-width:1;" x1="1139.1104" x2="1139.1104" y1="1331.709" y2="1344.709"/><line style="stroke:#181818;stroke-width:1;" x1="1098.1104" x2="1139.1104" y1="1344.709" y2="1344.709"/><polygon fill="#181818" points="1108.1104,1340.709,1098.1104,1344.709,1108.1104,1348.709,1104.1104,1344.709" style="stroke:#181818;stroke-width:1;"/><text fill="#000000" font-family="sans-serif" font-size="13" lengthAdjust="spacing" textLength="175.9951" x="1104.1104" y="1326.9668">ConvertToDto(staffMember)</text></g><g class="message" data-participant-1="SVC" data-participant-2="CTRL"><polygon fill="#181818" points="852.1689,1370.0195,842.1689,1374.0195,852.1689,1378.0195,848.1689,1374.0195" style="stroke:#181818;stroke-width:1;"/><line style="stroke:#181818;stroke-width:1;stroke-dasharray:2,2;" x1="846.1689" x2="1091.1104" y1="1374.0195" y2="1374.0195"/><text fill="#000000" font-family="sans-serif" font-size="13" lengthAdjust="spacing" textLength="102.5083" x="858.1689" y="1369.2773">StaffMemberDto</text></g><path d="M10,1396.0195 L146.0952,1396.0195 L146.0952,1403.3301 L136.0952,1413.3301 L10,1413.3301 L10,1396.0195" fill="#EEEEEE" style="stroke:#000000;stroke-width:1.5;"/><rect fill="none" height="111.2422" style="stroke:#000000;stroke-width:1.5;" width="922.5" x="10" y="1396.0195"/><text fill="#000000" font-family="sans-serif" font-size="13" font-weight="bold" lengthAdjust="spacing" textLength="91.0952" x="25" y="1409.5879">Return Result</text><g class="message" data-participant-1="CTRL" data-participant-2="SPA"><polygon fill="#181818" points="420.1689,1430.6406,410.1689,1434.6406,420.1689,1438.6406,416.1689,1434.6406" style="stroke:#181818;stroke-width:1;"/><line style="stroke:#181818;stroke-width:1;stroke-dasharray:2,2;" x1="414.1689" x2="835.1689" y1="1434.6406" y2="1434.6406"/><text fill="#000000" font-family="sans-serif" font-size="13" lengthAdjust="spacing" textLength="198.8657" x="426.1689" y="1429.8984">201 Created + StaffMemberDto</text></g><g class="message" data-participant-1="SPA" data-participant-2="LO"><polygon fill="#181818" points="96.2549,1459.9512,86.2549,1463.9512,96.2549,1467.9512,92.2549,1463.9512" style="stroke:#181818;stroke-width:1;"/><line style="stroke:#181818;stroke-width:1;stroke-dasharray:2,2;" x1="90.2549" x2="408.1689" y1="1463.9512" y2="1463.9512"/><text fill="#000000" font-family="sans-serif" font-size="13" lengthAdjust="spacing" textLength="229.3789" x="102.2549" y="1459.209">"Staff member created successfully!"</text></g><path d="M414,1476.9512 L414,1501.9512 L820,1501.9512 L820,1486.9512 L810,1476.9512 L414,1476.9512" fill="#FEFFDD" style="stroke:#181818;stroke-width:0.5;"/><path d="M810,1476.9512 L810,1486.9512 L820,1486.9512 L810,1476.9512" fill="#FEFFDD" style="stroke:#181818;stroke-width:0.5;"/><text fill="#000000" font-family="sans-serif" font-size="13" lengthAdjust="spacing" textLength="385.417" x="420" y="1494.5195">Displays success message\nand redirects to staff detail page</text><path d="M10,1521.2617 L72.1387,1521.2617 L72.1387,1528.5723 L62.1387,1538.5723 L10,1538.5723 L10,1521.2617" fill="#EEEEEE" style="stroke:#000000;stroke-width:1.5;"/><rect fill="none" height="105.2422" style="stroke:#000000;stroke-width:1.5;" width="1168.0269" x="10" y="1521.2617"/><text fill="#000000" font-family="sans-serif" font-size="13" font-weight="bold" lengthAdjust="spacing" textLength="17.1387" x="25" y="1534.8301">alt</text><text fill="#000000" font-family="sans-serif" font-size="11" font-weight="bold" lengthAdjust="spacing" textLength="188.2622" x="87.1387" y="1533.8965">[Invalid input or duplicate found]</text><g class="message" data-participant-1="SVC" data-participant-2="CTRL"><polygon fill="#181818" points="847.1689,1555.8828,837.1689,1559.8828,847.1689,1563.8828,843.1689,1559.8828" style="stroke:#181818;stroke-width:1;"/><line style="stroke:#181818;stroke-width:1;stroke-dasharray:2,2;" x1="841.1689" x2="1091.1104" y1="1559.8828" y2="1559.8828"/><text fill="#000000" font-family="sans-serif" font-size="13" lengthAdjust="spacing" textLength="171.9961" x="853.1689" y="1555.1406">throws ValidationException</text></g><g class="message" data-participant-1="CTRL" data-participant-2="SPA"><polygon fill="#181818" points="420.1689,1585.1934,410.1689,1589.1934,420.1689,1593.1934,416.1689,1589.1934" style="stroke:#181818;stroke-width:1;"/><line style="stroke:#181818;stroke-width:1;stroke-dasharray:2,2;" x1="414.1689" x2="835.1689" y1="1589.1934" y2="1589.1934"/><text fill="#000000" font-family="sans-serif" font-size="13" lengthAdjust="spacing" textLength="215.1919" x="426.1689" y="1584.4512">400 Bad Request + error message</text></g><g class="message" data-participant-1="SPA" data-participant-2="LO"><polygon fill="#181818" points="96.2549,1614.5039,86.2549,1618.5039,96.2549,1622.5039,92.2549,1618.5039" style="stroke:#181818;stroke-width:1;"/><line style="stroke:#181818;stroke-width:1;stroke-dasharray:2,2;" x1="90.2549" x2="408.1689" y1="1618.5039" y2="1618.5039"/><text fill="#000000" font-family="sans-serif" font-size="13" lengthAdjust="spacing" textLength="299.9141" x="102.2549" y="1613.7617">showError("Validation failed or duplicate entry")</text></g><path d="M10,1640.5039 L72.1387,1640.5039 L72.1387,1647.8145 L62.1387,1657.8145 L10,1657.8145 L10,1640.5039" fill="#EEEEEE" style="stroke:#000000;stroke-width:1.5;"/><rect fill="none" height="134.5527" style="stroke:#000000;stroke-width:1.5;" width="1522.75" x="10" y="1640.5039"/><text fill="#000000" font-family="sans-serif" font-size="13" font-weight="bold" lengthAdjust="spacing" textLength="17.1387" x="25" y="1654.0723">alt</text><text fill="#000000" font-family="sans-serif" font-size="11" font-weight="bold" lengthAdjust="spacing" textLength="140.0835" x="87.1387" y="1653.1387">[Qualification not found]</text><g class="message" data-participant-1="QSVC" data-participant-2="SVC"><polygon fill="#181818" points="1103.1104,1675.125,1093.1104,1679.125,1103.1104,1683.125,1099.1104,1679.125" style="stroke:#181818;stroke-width:1;"/><line style="stroke:#181818;stroke-width:1;stroke-dasharray:2,2;" x1="1097.1104" x2="1445.8403" y1="1679.125" y2="1679.125"/><text fill="#000000" font-family="sans-serif" font-size="13" lengthAdjust="spacing" textLength="273.0698" x="1109.1104" y="1674.3828">throws Exception("Qualification not found")</text></g><g class="message" data-participant-1="SVC" data-participant-2="CTRL"><polygon fill="#181818" points="847.1689,1704.4355,837.1689,1708.4355,847.1689,1712.4355,843.1689,1708.4355" style="stroke:#181818;stroke-width:1;"/><line style="stroke:#181818;stroke-width:1;stroke-dasharray:2,2;" x1="841.1689" x2="1091.1104" y1="1708.4355" y2="1708.4355"/><text fill="#000000" font-family="sans-serif" font-size="13" lengthAdjust="spacing" textLength="106.1709" x="853.1689" y="1703.6934">400 Bad Request</text></g><g class="message" data-participant-1="CTRL" data-participant-2="SPA"><polygon fill="#181818" points="420.1689,1733.7461,410.1689,1737.7461,420.1689,1741.7461,416.1689,1737.7461" style="stroke:#181818;stroke-width:1;"/><line style="stroke:#181818;stroke-width:1;stroke-dasharray:2,2;" x1="414.1689" x2="835.1689" y1="1737.7461" y2="1737.7461"/><text fill="#000000" font-family="sans-serif" font-size="13" lengthAdjust="spacing" textLength="31.186" x="426.1689" y="1733.0039">error</text></g><g class="message" data-participant-1="SPA" data-participant-2="LO"><polygon fill="#181818" points="96.2549,1763.0566,86.2549,1767.0566,96.2549,1771.0566,92.2549,1767.0566" style="stroke:#181818;stroke-width:1;"/><line style="stroke:#181818;stroke-width:1;stroke-dasharray:2,2;" x1="90.2549" x2="408.1689" y1="1767.0566" y2="1767.0566"/><text fill="#000000" font-family="sans-serif" font-size="13" lengthAdjust="spacing" textLength="167.4194" x="102.2549" y="1762.3145">"Invalid qualification code"</text></g><path d="M10,1789.0566 L72.1387,1789.0566 L72.1387,1796.3672 L62.1387,1806.3672 L10,1806.3672 L10,1789.0566" fill="#EEEEEE" style="stroke:#000000;stroke-width:1.5;"/><rect fill="none" height="75.9316" style="stroke:#000000;stroke-width:1.5;" width="922.5" x="10" y="1789.0566"/><text fill="#000000" font-family="sans-serif" font-size="13" font-weight="bold" lengthAdjust="spacing" textLength="17.1387" x="25" y="1802.625">alt</text><text fill="#000000" font-family="sans-serif" font-size="11" font-weight="bold" lengthAdjust="spacing" textLength="123.7822" x="87.1387" y="1801.6914">[Internal Server Error]</text><g class="message" data-participant-1="CTRL" data-participant-2="SPA"><polygon fill="#181818" points="420.1689,1823.6777,410.1689,1827.6777,420.1689,1831.6777,416.1689,1827.6777" style="stroke:#181818;stroke-width:1;"/><line style="stroke:#181818;stroke-width:1;stroke-dasharray:2,2;" x1="414.1689" x2="835.1689" y1="1827.6777" y2="1827.6777"/><text fill="#000000" font-family="sans-serif" font-size="13" lengthAdjust="spacing" textLength="155.0859" x="426.1689" y="1822.9355">500 Internal Server Error</text></g><g class="message" data-participant-1="SPA" data-participant-2="LO"><polygon fill="#181818" points="96.2549,1852.9883,86.2549,1856.9883,96.2549,1860.9883,92.2549,1856.9883" style="stroke:#181818;stroke-width:1;"/><line style="stroke:#181818;stroke-width:1;stroke-dasharray:2,2;" x1="90.2549" x2="408.1689" y1="1856.9883" y2="1856.9883"/><text fill="#000000" font-family="sans-serif" font-size="13" lengthAdjust="spacing" textLength="267.2363" x="102.2549" y="1852.2461">showError("Failed to create staff member")</text></g><!--SRC=[nLTDazf64BtpApeSOd1srvjKSjcAdG8Xl5In22HsVGWvZAK1fYn6yio8DPNAVq_FZ2GaLc9nBj4567gw-xt-b68gfk08IXI5G97r6XxexZCLS0rpaOHKIdXYzBdJ8Q5A17IdoOP9nK89Nae5mRCk40bJhvCIWUSi9Ln1rseq2gs-cwtQnIlU2-Q3lhc1N-fNxYhIJiALIEAOMktEqf-s2mTKx5b8hTOdvqHmaP6OhLb854juLNJnKhQYrATf8Xd2EnXXtvsV8BoR9qALR8o6Hcmqx7JUmFlw0u-1wyDajdJzWRESUBDJWSv695aAOnR7y2C4sUSTKp1EnAu3-4mzkFwWwO8xMAE8_gCdjsXzHdRq2kYEiFWAqct2wIpJlb-j-DSgQlddNrV0v62FWkHpJFj6Bqymv89jjWgIjGuWv4yHM6DDWjfIMADD83o2C6RX5xdYtOQKwHeD5AMqwWv-QIB3TnUFRh24yTJxr494pe1FlsPKAgDLmqSMT28W3NCF5RmZANjNYTYA_mtdQO6phC0_nXBcETjhQ2Rfp96ngcFmvA3nGHGDv867FKC1uvkA3oELzEjQT9ArCF4qc4v60vCGy_j1uBQmyOG-HrhLXAUPPUFDyP0Ri27M2veq8I8M48kPEc08QHn9Io5wNu8exckEcQ3HsCZreiB_Ud9e44Lsk5ncWafBjJ4FETd6UeLlM74YAAGYsRE8HkPlr8l2gJhKSoL7vMnf-4Kd6qHP6kiuqOgTAWfTZmZZ8rN3Gr04tOO5CToKUN0I3LF6-iJSHpsZ8Me9tAdhBE4jZ7tl0IhXbF3ftlLTA2t0U_YZhX4hNlz6FTT7jtWMn-OuegU2rd0PXoP9u-GPHefWHrGXwxA15lSRTYKvFBWwB4TMpC_lOSJn7cVBtjj-Ap56uuMat5x6o9h4ahPJydsqj5CpF-RfaQ3AOR-y_vAg_qnNHNz9MXDnRUGr4tYMn7D4vimix1sifTgid4H8KxsiwlspfAYzMU1JT1ezI0XsA9nnPKUewJCrZgE5wWW1usRmo8DKr8uUGLKck9b7JC1aL4Qux2AdR2ughYnoi0q5NqDTX6f4PIXOYfgeAVp937h6mNwdFMXvp792fuZZzvho3vrpGRGkbZ6yxFhYp81nVFVryTAq-xbSiRn5rwO6fy_LjAvi8IkUbz_8Lj_9hCLSUdK3gUQDTKf2b623uHXXxGyyCxM5VPvFqOhRuMQIevv9HNBKvqkz4PHZN1u1NTGR9pDSvvPwd_DgDTwxkRdfNz07PHRgjVgoRjWYV2pZEgY0xAcp9Nn3fGLt4IB7UtYOB67f3sQ1tL3_BnXM6hV_FHLgcU0wzJ8yHPNaks1z-pgrSAOwV3UOUnZBizNXcwQ37pABLMKPB3VoNsv_phCrWfzUSUQuKPfr5dLCDPDTMtixMtjXhYodR8qBmk67RbEzu0jKEIoOJ6DoaCKjL2ObsL3Sm4pdZ7372nNspWGCd_cGX1HbBjhQNT_tVBWVp4RJoUpZ2x98h70zDQM9dHlNLAYDvdMIeTg6uAcjI9vbCIEmTDrl8KtrboQkVxszXI69YXS3v9iAWOPoi2-PnVxqx6gHNlTe0eSZYv7WceVOOV1Dhs_XQpIB-cZ2jVK8ugHHvo1ArtlTbilTnWG-GTK4tC1iI9o2ydht2vE8Tez89bnHmKaC-kLND_TIsOcLtz2HTk4sOiUMJSmicxbvWjbipXdz5m00]--></g></svg>