<svg xmlns="http://www.w3.org/2000/svg" xmlns:xlink="http://www.w3.org/1999/xlink" contentStyleType="text/css" data-diagram-type="SEQUENCE" height="1953px" preserveAspectRatio="none" style="width:2258px;height:1953px;background:#FFFFFF;" version="1.1" viewBox="0 0 2258 1953" width="2258px" zoomAndPan="magnify"><title>Update Staff Member - Process View</title><defs/><g><text fill="#000000" font-family="sans-serif" font-size="14" font-weight="bold" lengthAdjust="spacing" textLength="264.8174" x="998.3748" y="28.5352">Update Staff Member - Process View</text><g><title>.StaffMemberController</title><rect fill="#FFFFFF" height="290.1055" style="stroke:#181818;stroke-width:1;" width="10" x="841.1689" y="301.1504"/></g><g><title>.StaffMemberService</title><rect fill="#FFFFFF" height="260.7949" style="stroke:#181818;stroke-width:1;" width="10" x="1140.4141" y="330.4609"/></g><g><title>.StaffMemberService</title><rect fill="#FFFFFF" height="229.1738" style="stroke:#181818;stroke-width:1;" width="10" x="1140.4141" y="1135.8457"/></g><g><title>.QualificationService</title><rect fill="#FFFFFF" height="123.2422" style="stroke:#181818;stroke-width:1;" width="10" x="1490.1797" y="928.6719"/></g><g><title>.StaffMemberRepository</title><rect fill="#FFFFFF" height="87.9316" style="stroke:#181818;stroke-width:1;" width="10" x="1664.4028" y="391.082"/></g><g><title>.StaffMemberRepository</title><rect fill="#FFFFFF" height="87.9316" style="stroke:#181818;stroke-width:1;" width="10" x="1664.4028" y="694.1875"/></g><g><title>.StaffMemberRepository</title><rect fill="#FFFFFF" height="87.9316" style="stroke:#181818;stroke-width:1;" width="10" x="1664.4028" y="811.4297"/></g><g><title>.StaffMemberRepository</title><rect fill="#FFFFFF" height="87.9316" style="stroke:#181818;stroke-width:1;" width="10" x="1664.4028" y="1205.4668"/></g><g><title>.PortLogisticsDB</title><rect fill="#FFFFFF" height="29.3105" style="stroke:#181818;stroke-width:1;" width="10" x="2175.647" y="420.3926"/></g><g><title>.PortLogisticsDB</title><rect fill="#FFFFFF" height="29.3105" style="stroke:#181818;stroke-width:1;" width="10" x="2175.647" y="723.498"/></g><g><title>.PortLogisticsDB</title><rect fill="#FFFFFF" height="29.3105" style="stroke:#181818;stroke-width:1;" width="10" x="2175.647" y="840.7402"/></g><g><title>.PortLogisticsDB</title><rect fill="#FFFFFF" height="29.3105" style="stroke:#181818;stroke-width:1;" width="10" x="2175.647" y="993.293"/></g><g><title>.PortLogisticsDB</title><rect fill="#FFFFFF" height="29.3105" style="stroke:#181818;stroke-width:1;" width="10" x="2175.647" y="1234.7773"/></g><rect fill="none" height="97.2422" style="stroke:#000000;stroke-width:1.5;" width="489.7817" x="20" y="135.9766"/><rect fill="none" height="91.2422" style="stroke:#000000;stroke-width:1.5;" width="902.7744" x="328.5562" y="247.2188"/><rect fill="none" height="253.7949" style="stroke:#000000;stroke-width:1.5;" width="2242.5669" x="10" y="352.4609"/><rect fill="none" height="105.2422" style="stroke:#000000;stroke-width:1.5;" width="1211.3306" x="20" y="494.0137"/><rect fill="none" height="439.6582" style="stroke:#000000;stroke-width:1.5;" width="1193.0693" x="1059.4976" y="620.2559"/><rect fill="none" height="299.1055" style="stroke:#000000;stroke-width:1.5;" width="1502.729" x="749.8379" y="1073.9141"/><rect fill="none" height="111.2422" style="stroke:#000000;stroke-width:1.5;" width="922.5" x="20" y="1387.0195"/><rect fill="none" height="105.2422" style="stroke:#000000;stroke-width:1.5;" width="1211.3306" x="20" y="1512.2617"/><rect fill="none" height="134.5527" style="stroke:#000000;stroke-width:1.5;" width="1561.0894" x="20" y="1631.5039"/><rect fill="none" height="75.9316" style="stroke:#000000;stroke-width:1.5;" width="922.5" x="20" y="1780.0566"/><g><title>Logistics Operator</title><rect fill="#000000" fill-opacity="0.00000" height="1754.0117" width="8" x="91.2549" y="118.9766"/><line style="stroke:#181818;stroke-width:0.5;stroke-dasharray:5,5;" x1="95" x2="95" y1="118.9766" y2="1872.9883"/></g><g><title>EditStaffMember.html</title><rect fill="#000000" fill-opacity="0.00000" height="1754.0117" width="8" x="415.1689" y="118.9766"/><line style="stroke:#181818;stroke-width:0.5;stroke-dasharray:5,5;" x1="418.5562" x2="418.5562" y1="118.9766" y2="1872.9883"/></g><g><title>.StaffMemberController</title><rect fill="#000000" fill-opacity="0.00000" height="1754.0117" width="8" x="842.1689" y="118.9766"/><line style="stroke:#181818;stroke-width:0.5;stroke-dasharray:5,5;" x1="845.8379" x2="845.8379" y1="118.9766" y2="1872.9883"/></g><g><title>.StaffMemberService</title><rect fill="#000000" fill-opacity="0.00000" height="1754.0117" width="8" x="1141.4141" y="118.9766"/><line style="stroke:#181818;stroke-width:0.5;stroke-dasharray:5,5;" x1="1144.4976" x2="1144.4976" y1="118.9766" y2="1872.9883"/></g><g><title>.QualificationService</title><rect fill="#000000" fill-opacity="0.00000" height="1754.0117" width="8" x="1491.1797" y="118.9766"/><line style="stroke:#181818;stroke-width:0.5;stroke-dasharray:5,5;" x1="1494.27" x2="1494.27" y1="118.9766" y2="1872.9883"/></g><g><title>.StaffMemberRepository</title><rect fill="#000000" fill-opacity="0.00000" height="1754.0117" width="8" x="1665.4028" y="118.9766"/><line style="stroke:#181818;stroke-width:0.5;stroke-dasharray:5,5;" x1="1669.0894" x2="1669.0894" y1="118.9766" y2="1872.9883"/></g><g><title>.PortLogisticsDB</title><rect fill="#000000" fill-opacity="0.00000" height="1754.0117" width="8" x="2176.647" y="118.9766"/><line style="stroke:#181818;stroke-width:0.5;stroke-dasharray:5,5;" x1="2179.7271" x2="2179.7271" y1="118.9766" y2="1872.9883"/></g><g class="participant participant-head" data-participant="LO"><text fill="#000000" font-family="sans-serif" font-size="14" lengthAdjust="spacing" textLength="124.5098" x="30" y="116.0234">Logistics Operator</text><ellipse cx="95.2549" cy="50.9883" fill="#E2E2F0" rx="8" ry="8" style="stroke:#181818;stroke-width:0.5;"/><path d="M95.2549,58.9883 L95.2549,85.9883 M82.2549,66.9883 L108.2549,66.9883 M95.2549,85.9883 L82.2549,100.9883 M95.2549,85.9883 L108.2549,100.9883" fill="none" style="stroke:#181818;stroke-width:0.5;"/></g><g class="participant participant-tail" data-participant="LO"><text fill="#000000" font-family="sans-serif" font-size="14" lengthAdjust="spacing" textLength="124.5098" x="30" y="1885.5234">Logistics Operator</text><ellipse cx="95.2549" cy="1896.9766" fill="#E2E2F0" rx="8" ry="8" style="stroke:#181818;stroke-width:0.5;"/><path d="M95.2549,1904.9766 L95.2549,1931.9766 M82.2549,1912.9766 L108.2549,1912.9766 M95.2549,1931.9766 L82.2549,1946.9766 M95.2549,1931.9766 L108.2549,1946.9766" fill="none" style="stroke:#181818;stroke-width:0.5;"/></g><g class="participant participant-head" data-participant="SPA"><rect fill="#E2E2F0" height="46.9766" rx="2.5" ry="2.5" style="stroke:#181818;stroke-width:0.5;" width="161.2256" x="338.5562" y="71"/><text fill="#000000" font-family="sans-serif" font-size="14" lengthAdjust="spacing" textLength="147.2256" x="345.5562" y="91.5352">EditStaffMember.html</text><text fill="#000000" font-family="sans-serif" font-size="14" lengthAdjust="spacing" textLength="34.043" x="402.1475" y="108.0234">(SPA)</text></g><g class="participant participant-tail" data-participant="SPA"><rect fill="#E2E2F0" height="46.9766" rx="2.5" ry="2.5" style="stroke:#181818;stroke-width:0.5;" width="161.2256" x="338.5562" y="1871.9883"/><text fill="#000000" font-family="sans-serif" font-size="14" lengthAdjust="spacing" textLength="147.2256" x="345.5562" y="1892.5234">EditStaffMember.html</text><text fill="#000000" font-family="sans-serif" font-size="14" lengthAdjust="spacing" textLength="34.043" x="402.1475" y="1909.0117">(SPA)</text></g><g class="participant participant-head" data-participant="CTRL"><rect fill="#E2E2F0" height="30.4883" rx="2.5" ry="2.5" style="stroke:#181818;stroke-width:0.5;" width="172.6621" x="759.8379" y="87.4883"/><text fill="#000000" font-family="sans-serif" font-size="14" lengthAdjust="spacing" textLength="158.6621" x="766.8379" y="108.0234">:StaffMemberController</text></g><g class="participant participant-tail" data-participant="CTRL"><rect fill="#E2E2F0" height="30.4883" rx="2.5" ry="2.5" style="stroke:#181818;stroke-width:0.5;" width="172.6621" x="759.8379" y="1871.9883"/><text fill="#000000" font-family="sans-serif" font-size="14" lengthAdjust="spacing" textLength="158.6621" x="766.8379" y="1892.5234">:StaffMemberController</text></g><g class="participant participant-head" data-participant="SVC"><rect fill="#E2E2F0" height="30.4883" rx="2.5" ry="2.5" style="stroke:#181818;stroke-width:0.5;" width="151.833" x="1069.4976" y="87.4883"/><text fill="#000000" font-family="sans-serif" font-size="14" lengthAdjust="spacing" textLength="137.833" x="1076.4976" y="108.0234">:StaffMemberService</text></g><g class="participant participant-tail" data-participant="SVC"><rect fill="#E2E2F0" height="30.4883" rx="2.5" ry="2.5" style="stroke:#181818;stroke-width:0.5;" width="151.833" x="1069.4976" y="1871.9883"/><text fill="#000000" font-family="sans-serif" font-size="14" lengthAdjust="spacing" textLength="137.833" x="1076.4976" y="1892.5234">:StaffMemberService</text></g><g class="participant participant-head" data-participant="QSVC"><rect fill="#E2E2F0" height="30.4883" rx="2.5" ry="2.5" style="stroke:#181818;stroke-width:0.5;" width="151.8193" x="1419.27" y="87.4883"/><text fill="#000000" font-family="sans-serif" font-size="14" lengthAdjust="spacing" textLength="137.8193" x="1426.27" y="108.0234">:QualificationService</text></g><g class="participant participant-tail" data-participant="QSVC"><rect fill="#E2E2F0" height="30.4883" rx="2.5" ry="2.5" style="stroke:#181818;stroke-width:0.5;" width="151.8193" x="1419.27" y="1871.9883"/><text fill="#000000" font-family="sans-serif" font-size="14" lengthAdjust="spacing" textLength="137.8193" x="1426.27" y="1892.5234">:QualificationService</text></g><g class="participant participant-head" data-participant="REPO"><rect fill="#E2E2F0" height="30.4883" rx="2.5" ry="2.5" style="stroke:#181818;stroke-width:0.5;" width="176.627" x="1581.0894" y="87.4883"/><text fill="#000000" font-family="sans-serif" font-size="14" lengthAdjust="spacing" textLength="162.627" x="1588.0894" y="108.0234">:StaffMemberRepository</text></g><g class="participant participant-tail" data-participant="REPO"><rect fill="#E2E2F0" height="30.4883" rx="2.5" ry="2.5" style="stroke:#181818;stroke-width:0.5;" width="176.627" x="1581.0894" y="1871.9883"/><text fill="#000000" font-family="sans-serif" font-size="14" lengthAdjust="spacing" textLength="162.627" x="1588.0894" y="1892.5234">:StaffMemberRepository</text></g><g class="participant participant-head" data-participant="DB"><rect fill="#E2E2F0" height="30.4883" rx="2.5" ry="2.5" style="stroke:#181818;stroke-width:0.5;" width="123.8398" x="2118.7271" y="87.4883"/><text fill="#000000" font-family="sans-serif" font-size="14" lengthAdjust="spacing" textLength="109.8398" x="2125.7271" y="108.0234">:PortLogisticsDB</text></g><g class="participant participant-tail" data-participant="DB"><rect fill="#E2E2F0" height="30.4883" rx="2.5" ry="2.5" style="stroke:#181818;stroke-width:0.5;" width="123.8398" x="2118.7271" y="1871.9883"/><text fill="#000000" font-family="sans-serif" font-size="14" lengthAdjust="spacing" textLength="109.8398" x="2125.7271" y="1892.5234">:PortLogisticsDB</text></g><g><title>.StaffMemberController</title><rect fill="#FFFFFF" height="290.1055" style="stroke:#181818;stroke-width:1;" width="10" x="841.1689" y="301.1504"/></g><g><title>.StaffMemberService</title><rect fill="#FFFFFF" height="260.7949" style="stroke:#181818;stroke-width:1;" width="10" x="1140.4141" y="330.4609"/></g><g><title>.StaffMemberService</title><rect fill="#FFFFFF" height="229.1738" style="stroke:#181818;stroke-width:1;" width="10" x="1140.4141" y="1135.8457"/></g><g><title>.QualificationService</title><rect fill="#FFFFFF" height="123.2422" style="stroke:#181818;stroke-width:1;" width="10" x="1490.1797" y="928.6719"/></g><g><title>.StaffMemberRepository</title><rect fill="#FFFFFF" height="87.9316" style="stroke:#181818;stroke-width:1;" width="10" x="1664.4028" y="391.082"/></g><g><title>.StaffMemberRepository</title><rect fill="#FFFFFF" height="87.9316" style="stroke:#181818;stroke-width:1;" width="10" x="1664.4028" y="694.1875"/></g><g><title>.StaffMemberRepository</title><rect fill="#FFFFFF" height="87.9316" style="stroke:#181818;stroke-width:1;" width="10" x="1664.4028" y="811.4297"/></g><g><title>.StaffMemberRepository</title><rect fill="#FFFFFF" height="87.9316" style="stroke:#181818;stroke-width:1;" width="10" x="1664.4028" y="1205.4668"/></g><g><title>.PortLogisticsDB</title><rect fill="#FFFFFF" height="29.3105" style="stroke:#181818;stroke-width:1;" width="10" x="2175.647" y="420.3926"/></g><g><title>.PortLogisticsDB</title><rect fill="#FFFFFF" height="29.3105" style="stroke:#181818;stroke-width:1;" width="10" x="2175.647" y="723.498"/></g><g><title>.PortLogisticsDB</title><rect fill="#FFFFFF" height="29.3105" style="stroke:#181818;stroke-width:1;" width="10" x="2175.647" y="840.7402"/></g><g><title>.PortLogisticsDB</title><rect fill="#FFFFFF" height="29.3105" style="stroke:#181818;stroke-width:1;" width="10" x="2175.647" y="993.293"/></g><g><title>.PortLogisticsDB</title><rect fill="#FFFFFF" height="29.3105" style="stroke:#181818;stroke-width:1;" width="10" x="2175.647" y="1234.7773"/></g><path d="M20,135.9766 L188.646,135.9766 L188.646,143.2871 L178.646,153.2871 L20,153.2871 L20,135.9766" fill="#EEEEEE" style="stroke:#000000;stroke-width:1.5;"/><rect fill="none" height="97.2422" style="stroke:#000000;stroke-width:1.5;" width="489.7817" x="20" y="135.9766"/><text fill="#000000" font-family="sans-serif" font-size="13" font-weight="bold" lengthAdjust="spacing" textLength="123.646" x="35" y="149.5449">Fill &amp; Submit Form</text><g class="message" data-participant-1="LO" data-participant-2="SPA"><polygon fill="#181818" points="407.1689,185.9082,417.1689,189.9082,407.1689,193.9082,411.1689,189.9082" style="stroke:#181818;stroke-width:1;"/><line style="stroke:#181818;stroke-width:1;" x1="95.2549" x2="413.1689" y1="189.9082" y2="189.9082"/><text fill="#000000" font-family="sans-serif" font-size="13" lengthAdjust="spacing" textLength="274.4473" x="102.2549" y="169.8555">editForm(shortName, email, phoneNumber,</text><text fill="#000000" font-family="sans-serif" font-size="13" lengthAdjust="spacing" textLength="172.6689" x="102.2549" y="185.166">qualifications[], isAvailable)</text></g><path d="M100,202.9082 L100,227.9082 L447,227.9082 L447,212.9082 L437,202.9082 L100,202.9082" fill="#FEFFDD" style="stroke:#181818;stroke-width:0.5;"/><path d="M437,202.9082 L437,212.9082 L447,212.9082 L437,202.9082" fill="#FEFFDD" style="stroke:#181818;stroke-width:0.5;"/><text fill="#000000" font-family="sans-serif" font-size="13" lengthAdjust="spacing" textLength="326.9678" x="106" y="220.4766">Operator updates fields and clicks\n"Save Changes"</text><path d="M328.5562,247.2188 L478.4956,247.2188 L478.4956,254.5293 L468.4956,264.5293 L328.5562,264.5293 L328.5562,247.2188" fill="#EEEEEE" style="stroke:#000000;stroke-width:1.5;"/><rect fill="none" height="91.2422" style="stroke:#000000;stroke-width:1.5;" width="902.7744" x="328.5562" y="247.2188"/><text fill="#000000" font-family="sans-serif" font-size="13" font-weight="bold" lengthAdjust="spacing" textLength="104.9395" x="343.5562" y="260.7871">Submit Request</text><g class="message" data-participant-1="SPA" data-participant-2="CTRL"><polygon fill="#181818" points="829.1689,297.1504,839.1689,301.1504,829.1689,305.1504,833.1689,301.1504" style="stroke:#181818;stroke-width:1;"/><line style="stroke:#181818;stroke-width:1;" x1="419.1689" x2="835.1689" y1="301.1504" y2="301.1504"/><text fill="#000000" font-family="sans-serif" font-size="13" lengthAdjust="spacing" textLength="186.9258" x="426.1689" y="281.0977">PATCH /api/StaffMember/{id}</text><text fill="#000000" font-family="sans-serif" font-size="13" lengthAdjust="spacing" textLength="403" x="426.1689" y="296.4082">{ shortName, email, phoneNumber, qualifications[], isAvailable }</text></g><g class="message" data-participant-1="CTRL" data-participant-2="SVC"><polygon fill="#181818" points="1128.4141,326.4609,1138.4141,330.4609,1128.4141,334.4609,1132.4141,330.4609" style="stroke:#181818;stroke-width:1;"/><line style="stroke:#181818;stroke-width:1;" x1="851.1689" x2="1134.4141" y1="330.4609" y2="330.4609"/><text fill="#000000" font-family="sans-serif" font-size="13" lengthAdjust="spacing" textLength="270.2451" x="858.1689" y="325.7188">UpdateAsync(id, UpdatingStaffMemberDto)</text></g><path d="M10,352.4609 L298.5596,352.4609 L298.5596,359.7715 L288.5596,369.7715 L10,369.7715 L10,352.4609" fill="#EEEEEE" style="stroke:#000000;stroke-width:1.5;"/><rect fill="none" height="253.7949" style="stroke:#000000;stroke-width:1.5;" width="2242.5669" x="10" y="352.4609"/><text fill="#000000" font-family="sans-serif" font-size="13" font-weight="bold" lengthAdjust="spacing" textLength="243.5596" x="25" y="366.0293">Validate and Retrieve Existing Entity</text><g class="message" data-participant-1="SVC" data-participant-2="REPO"><polygon fill="#181818" points="1652.4028,387.082,1662.4028,391.082,1652.4028,395.082,1656.4028,391.082" style="stroke:#181818;stroke-width:1;"/><line style="stroke:#181818;stroke-width:1;" x1="1150.4141" x2="1658.4028" y1="391.082" y2="391.082"/><text fill="#000000" font-family="sans-serif" font-size="13" lengthAdjust="spacing" textLength="105.2061" x="1157.4141" y="386.3398">GetByIdAsync(id)</text></g><g class="message" data-participant-1="REPO" data-participant-2="DB"><polygon fill="#181818" points="2163.647,416.3926,2173.647,420.3926,2163.647,424.3926,2167.647,420.3926" style="stroke:#181818;stroke-width:1;"/><line style="stroke:#181818;stroke-width:1;" x1="1674.4028" x2="2169.647" y1="420.3926" y2="420.3926"/><text fill="#000000" font-family="sans-serif" font-size="13" lengthAdjust="spacing" textLength="274.0664" x="1681.4028" y="415.6504">SELECT * FROM StaffMembers WHERE Id = ?</text></g><g class="message" data-participant-1="DB" data-participant-2="REPO"><polygon fill="#181818" points="1685.4028,445.7031,1675.4028,449.7031,1685.4028,453.7031,1681.4028,449.7031" style="stroke:#181818;stroke-width:1;"/><line style="stroke:#181818;stroke-width:1;stroke-dasharray:2,2;" x1="1679.4028" x2="2179.647" y1="449.7031" y2="449.7031"/><text fill="#000000" font-family="sans-serif" font-size="13" lengthAdjust="spacing" textLength="125.106" x="1691.4028" y="444.9609">StaffMember or null</text></g><g class="message" data-participant-1="REPO" data-participant-2="SVC"><polygon fill="#181818" points="1161.4141,475.0137,1151.4141,479.0137,1161.4141,483.0137,1157.4141,479.0137" style="stroke:#181818;stroke-width:1;"/><line style="stroke:#181818;stroke-width:1;stroke-dasharray:2,2;" x1="1155.4141" x2="1668.4028" y1="479.0137" y2="479.0137"/><text fill="#000000" font-family="sans-serif" font-size="13" lengthAdjust="spacing" textLength="125.106" x="1167.4141" y="474.2715">StaffMember or null</text></g><path d="M20,494.0137 L82.1387,494.0137 L82.1387,501.3242 L72.1387,511.3242 L20,511.3242 L20,494.0137" fill="#EEEEEE" style="stroke:#000000;stroke-width:1.5;"/><rect fill="none" height="105.2422" style="stroke:#000000;stroke-width:1.5;" width="1211.3306" x="20" y="494.0137"/><text fill="#000000" font-family="sans-serif" font-size="13" font-weight="bold" lengthAdjust="spacing" textLength="17.1387" x="35" y="507.582">alt</text><text fill="#000000" font-family="sans-serif" font-size="11" font-weight="bold" lengthAdjust="spacing" textLength="143.9023" x="97.1387" y="506.6484">[Staff member not found]</text><g class="message" data-participant-1="SVC" data-participant-2="CTRL"><polygon fill="#181818" points="862.1689,528.6348,852.1689,532.6348,862.1689,536.6348,858.1689,532.6348" style="stroke:#181818;stroke-width:1;"/><line style="stroke:#181818;stroke-width:1;stroke-dasharray:2,2;" x1="856.1689" x2="1139.4141" y1="532.6348" y2="532.6348"/><text fill="#000000" font-family="sans-serif" font-size="13" lengthAdjust="spacing" textLength="23.6514" x="868.1689" y="527.8926">null</text></g><g class="message" data-participant-1="CTRL" data-participant-2="SPA"><polygon fill="#181818" points="430.1689,557.9453,420.1689,561.9453,430.1689,565.9453,426.1689,561.9453" style="stroke:#181818;stroke-width:1;"/><line style="stroke:#181818;stroke-width:1;stroke-dasharray:2,2;" x1="424.1689" x2="840.1689" y1="561.9453" y2="561.9453"/><text fill="#000000" font-family="sans-serif" font-size="13" lengthAdjust="spacing" textLength="94.6118" x="436.1689" y="557.2031">404 Not Found</text></g><g class="message" data-participant-1="SPA" data-participant-2="LO"><polygon fill="#181818" points="106.2549,587.2559,96.2549,591.2559,106.2549,595.2559,102.2549,591.2559" style="stroke:#181818;stroke-width:1;"/><line style="stroke:#181818;stroke-width:1;stroke-dasharray:2,2;" x1="100.2549" x2="418.1689" y1="591.2559" y2="591.2559"/><text fill="#000000" font-family="sans-serif" font-size="13" lengthAdjust="spacing" textLength="160.9131" x="112.2549" y="586.5137">"Staff member not found"</text></g><path d="M1059.4976,620.2559 L1216.0576,620.2559 L1216.0576,627.5664 L1206.0576,637.5664 L1059.4976,637.5664 L1059.4976,620.2559" fill="#EEEEEE" style="stroke:#000000;stroke-width:1.5;"/><rect fill="none" height="439.6582" style="stroke:#000000;stroke-width:1.5;" width="1193.0693" x="1059.4976" y="620.2559"/><text fill="#000000" font-family="sans-serif" font-size="13" font-weight="bold" lengthAdjust="spacing" textLength="111.5601" x="1074.4976" y="633.8242">Field Validations</text><path d="M1150,642.5664 L1150,667.5664 L1595,667.5664 L1595,652.5664 L1585,642.5664 L1150,642.5664" fill="#FEFFDD" style="stroke:#181818;stroke-width:0.5;"/><path d="M1585,642.5664 L1585,652.5664 L1595,652.5664 L1585,642.5664" fill="#FEFFDD" style="stroke:#181818;stroke-width:0.5;"/><text fill="#000000" font-family="sans-serif" font-size="13" lengthAdjust="spacing" textLength="424.6899" x="1156" y="660.1348">Validates provided fields\n(short name, email, phone number, etc.)</text><g class="message" data-participant-1="SVC" data-participant-2="REPO"><polygon fill="#181818" points="1652.4028,690.1875,1662.4028,694.1875,1652.4028,698.1875,1656.4028,694.1875" style="stroke:#181818;stroke-width:1;"/><line style="stroke:#181818;stroke-width:1;" x1="1145.4141" x2="1658.4028" y1="694.1875" y2="694.1875"/><text fill="#000000" font-family="sans-serif" font-size="13" lengthAdjust="spacing" textLength="189.6299" x="1152.4141" y="689.4453">ExistsByEmailAsync(dto.Email)</text></g><g class="message" data-participant-1="REPO" data-participant-2="DB"><polygon fill="#181818" points="2163.647,719.498,2173.647,723.498,2163.647,727.498,2167.647,723.498" style="stroke:#181818;stroke-width:1;"/><line style="stroke:#181818;stroke-width:1;" x1="1674.4028" x2="2169.647" y1="723.498" y2="723.498"/><text fill="#000000" font-family="sans-serif" font-size="13" lengthAdjust="spacing" textLength="427.0195" x="1681.4028" y="718.7559">SELECT COUNT(*) FROM StaffMembers WHERE Email = ? AND Id != ?</text></g><g class="message" data-participant-1="DB" data-participant-2="REPO"><polygon fill="#181818" points="1685.4028,748.8086,1675.4028,752.8086,1685.4028,756.8086,1681.4028,752.8086" style="stroke:#181818;stroke-width:1;"/><line style="stroke:#181818;stroke-width:1;stroke-dasharray:2,2;" x1="1679.4028" x2="2179.647" y1="752.8086" y2="752.8086"/><text fill="#000000" font-family="sans-serif" font-size="13" lengthAdjust="spacing" textLength="8.2202" x="1691.4028" y="748.0664">0</text></g><g class="message" data-participant-1="REPO" data-participant-2="SVC"><polygon fill="#181818" points="1156.4141,778.1191,1146.4141,782.1191,1156.4141,786.1191,1152.4141,782.1191" style="stroke:#181818;stroke-width:1;"/><line style="stroke:#181818;stroke-width:1;stroke-dasharray:2,2;" x1="1150.4141" x2="1668.4028" y1="782.1191" y2="782.1191"/><text fill="#000000" font-family="sans-serif" font-size="13" lengthAdjust="spacing" textLength="29.5864" x="1162.4141" y="777.377">false</text></g><g class="message" data-participant-1="SVC" data-participant-2="REPO"><polygon fill="#181818" points="1652.4028,807.4297,1662.4028,811.4297,1652.4028,815.4297,1656.4028,811.4297" style="stroke:#181818;stroke-width:1;"/><line style="stroke:#181818;stroke-width:1;" x1="1145.4141" x2="1658.4028" y1="811.4297" y2="811.4297"/><text fill="#000000" font-family="sans-serif" font-size="13" lengthAdjust="spacing" textLength="300.0791" x="1152.4141" y="806.6875">ExistsByPhoneNumberAsync(dto.PhoneNumber)</text></g><g class="message" data-participant-1="REPO" data-participant-2="DB"><polygon fill="#181818" points="2163.647,836.7402,2173.647,840.7402,2163.647,844.7402,2167.647,840.7402" style="stroke:#181818;stroke-width:1;"/><line style="stroke:#181818;stroke-width:1;" x1="1674.4028" x2="2169.647" y1="840.7402" y2="840.7402"/><text fill="#000000" font-family="sans-serif" font-size="13" lengthAdjust="spacing" textLength="482.2441" x="1681.4028" y="835.998">SELECT COUNT(*) FROM StaffMembers WHERE PhoneNumber = ? AND Id != ?</text></g><g class="message" data-participant-1="DB" data-participant-2="REPO"><polygon fill="#181818" points="1685.4028,866.0508,1675.4028,870.0508,1685.4028,874.0508,1681.4028,870.0508" style="stroke:#181818;stroke-width:1;"/><line style="stroke:#181818;stroke-width:1;stroke-dasharray:2,2;" x1="1679.4028" x2="2179.647" y1="870.0508" y2="870.0508"/><text fill="#000000" font-family="sans-serif" font-size="13" lengthAdjust="spacing" textLength="8.2202" x="1691.4028" y="865.3086">0</text></g><g class="message" data-participant-1="REPO" data-participant-2="SVC"><polygon fill="#181818" points="1156.4141,895.3613,1146.4141,899.3613,1156.4141,903.3613,1152.4141,899.3613" style="stroke:#181818;stroke-width:1;"/><line style="stroke:#181818;stroke-width:1;stroke-dasharray:2,2;" x1="1150.4141" x2="1668.4028" y1="899.3613" y2="899.3613"/><text fill="#000000" font-family="sans-serif" font-size="13" lengthAdjust="spacing" textLength="29.5864" x="1162.4141" y="894.6191">false</text></g><g class="message" data-participant-1="SVC" data-participant-2="QSVC"><polygon fill="#181818" points="1478.1797,924.6719,1488.1797,928.6719,1478.1797,932.6719,1482.1797,928.6719" style="stroke:#181818;stroke-width:1;"/><line style="stroke:#181818;stroke-width:1;" x1="1145.4141" x2="1484.1797" y1="928.6719" y2="928.6719"/><text fill="#000000" font-family="sans-serif" font-size="13" lengthAdjust="spacing" textLength="325.73" x="1152.4141" y="923.9297">GetQualificationIdsByNameAsync(dto.qualifications)</text></g><path d="M1150,941.6719 L1150,966.6719 L1732,966.6719 L1732,951.6719 L1722,941.6719 L1150,941.6719" fill="#FEFFDD" style="stroke:#181818;stroke-width:0.5;"/><path d="M1722,941.6719 L1722,951.6719 L1732,951.6719 L1722,941.6719" fill="#FEFFDD" style="stroke:#181818;stroke-width:0.5;"/><text fill="#000000" font-family="sans-serif" font-size="13" lengthAdjust="spacing" textLength="561.6152" x="1156" y="959.2402">Ensures that all provided qualification names\nexist in the system and retrieves their IDs</text><g class="message" data-participant-1="QSVC" data-participant-2="DB"><polygon fill="#181818" points="2163.647,989.293,2173.647,993.293,2163.647,997.293,2167.647,993.293" style="stroke:#181818;stroke-width:1;"/><line style="stroke:#181818;stroke-width:1;" x1="1500.1797" x2="2169.647" y1="993.293" y2="993.293"/><text fill="#000000" font-family="sans-serif" font-size="13" lengthAdjust="spacing" textLength="415.6445" x="1507.1797" y="988.5508">SELECT * FROM Qualifications WHERE DescriptiveName IN (names)</text></g><g class="message" data-participant-1="DB" data-participant-2="QSVC"><polygon fill="#181818" points="1511.1797,1018.6035,1501.1797,1022.6035,1511.1797,1026.6035,1507.1797,1022.6035" style="stroke:#181818;stroke-width:1;"/><line style="stroke:#181818;stroke-width:1;stroke-dasharray:2,2;" x1="1505.1797" x2="2179.647" y1="1022.6035" y2="1022.6035"/><text fill="#000000" font-family="sans-serif" font-size="13" lengthAdjust="spacing" textLength="122.7573" x="1517.1797" y="1017.8613">List&lt;Qualification&gt;</text></g><g class="message" data-participant-1="QSVC" data-participant-2="SVC"><polygon fill="#181818" points="1156.4141,1047.9141,1146.4141,1051.9141,1156.4141,1055.9141,1152.4141,1051.9141" style="stroke:#181818;stroke-width:1;"/><line style="stroke:#181818;stroke-width:1;stroke-dasharray:2,2;" x1="1150.4141" x2="1494.1797" y1="1051.9141" y2="1051.9141"/><text fill="#000000" font-family="sans-serif" font-size="13" lengthAdjust="spacing" textLength="122.7573" x="1162.4141" y="1047.1719">List&lt;Qualification&gt;</text></g><path d="M749.8379,1073.9141 L978.9897,1073.9141 L978.9897,1081.2246 L968.9897,1091.2246 L749.8379,1091.2246 L749.8379,1073.9141" fill="#EEEEEE" style="stroke:#000000;stroke-width:1.5;"/><rect fill="none" height="299.1055" style="stroke:#000000;stroke-width:1.5;" width="1502.729" x="749.8379" y="1073.9141"/><text fill="#000000" font-family="sans-serif" font-size="13" font-weight="bold" lengthAdjust="spacing" textLength="184.1519" x="764.8379" y="1087.4824">Update Staff Member Entity</text><g class="message" data-participant-1="SVC" data-participant-2="SVC"><line style="stroke:#181818;stroke-width:1;" x1="1145.4141" x2="1192.4141" y1="1122.8457" y2="1122.8457"/><line style="stroke:#181818;stroke-width:1;" x1="1192.4141" x2="1192.4141" y1="1122.8457" y2="1135.8457"/><line style="stroke:#181818;stroke-width:1;" x1="1151.4141" x2="1192.4141" y1="1135.8457" y2="1135.8457"/><polygon fill="#181818" points="1161.4141,1131.8457,1151.4141,1135.8457,1161.4141,1139.8457,1157.4141,1135.8457" style="stroke:#181818;stroke-width:1;"/><text fill="#000000" font-family="sans-serif" font-size="13" lengthAdjust="spacing" textLength="166.7783" x="1157.4141" y="1102.793">Update staffMember fields</text><text fill="#000000" font-family="sans-serif" font-size="13" lengthAdjust="spacing" textLength="335.7656" x="1157.4141" y="1118.1035">(shortName, email, phone, qualifications, isAvailable)</text></g><path d="M1155,1153.8457 L1155,1178.8457 L1666,1178.8457 L1666,1163.8457 L1656,1153.8457 L1155,1153.8457" fill="#FEFFDD" style="stroke:#181818;stroke-width:0.5;"/><path d="M1656,1153.8457 L1656,1163.8457 L1666,1163.8457 L1656,1153.8457" fill="#FEFFDD" style="stroke:#181818;stroke-width:0.5;"/><text fill="#000000" font-family="sans-serif" font-size="13" lengthAdjust="spacing" textLength="490.8325" x="1161" y="1171.4141">Applies changes to the retrieved entity\nand updates modification timestamp</text><g class="message" data-participant-1="SVC" data-participant-2="REPO"><polygon fill="#181818" points="1652.4028,1201.4668,1662.4028,1205.4668,1652.4028,1209.4668,1656.4028,1205.4668" style="stroke:#181818;stroke-width:1;"/><line style="stroke:#181818;stroke-width:1;" x1="1150.4141" x2="1658.4028" y1="1205.4668" y2="1205.4668"/><text fill="#000000" font-family="sans-serif" font-size="13" lengthAdjust="spacing" textLength="128.0068" x="1157.4141" y="1200.7246">SaveChangesAsync()</text></g><g class="message" data-participant-1="REPO" data-participant-2="DB"><polygon fill="#181818" points="2163.647,1230.7773,2173.647,1234.7773,2163.647,1238.7773,2167.647,1234.7773" style="stroke:#181818;stroke-width:1;"/><line style="stroke:#181818;stroke-width:1;" x1="1674.4028" x2="2169.647" y1="1234.7773" y2="1234.7773"/><text fill="#000000" font-family="sans-serif" font-size="13" lengthAdjust="spacing" textLength="270.8481" x="1681.4028" y="1230.0352">UPDATE StaffMembers SET ... WHERE Id = ?</text></g><g class="message" data-participant-1="DB" data-participant-2="REPO"><polygon fill="#181818" points="1685.4028,1260.0879,1675.4028,1264.0879,1685.4028,1268.0879,1681.4028,1264.0879" style="stroke:#181818;stroke-width:1;"/><line style="stroke:#181818;stroke-width:1;stroke-dasharray:2,2;" x1="1679.4028" x2="2179.647" y1="1264.0879" y2="1264.0879"/><text fill="#000000" font-family="sans-serif" font-size="13" lengthAdjust="spacing" textLength="48.5088" x="1691.4028" y="1259.3457">success</text></g><g class="message" data-participant-1="REPO" data-participant-2="SVC"><polygon fill="#181818" points="1161.4141,1289.3984,1151.4141,1293.3984,1161.4141,1297.3984,1157.4141,1293.3984" style="stroke:#181818;stroke-width:1;"/><line style="stroke:#181818;stroke-width:1;stroke-dasharray:2,2;" x1="1155.4141" x2="1668.4028" y1="1293.3984" y2="1293.3984"/><text fill="#000000" font-family="sans-serif" font-size="13" lengthAdjust="spacing" textLength="48.5088" x="1167.4141" y="1288.6563">success</text></g><g class="message" data-participant-1="SVC" data-participant-2="SVC"><line style="stroke:#181818;stroke-width:1;" x1="1150.4141" x2="1192.4141" y1="1322.709" y2="1322.709"/><line style="stroke:#181818;stroke-width:1;" x1="1192.4141" x2="1192.4141" y1="1322.709" y2="1335.709"/><line style="stroke:#181818;stroke-width:1;" x1="1151.4141" x2="1192.4141" y1="1335.709" y2="1335.709"/><polygon fill="#181818" points="1161.4141,1331.709,1151.4141,1335.709,1161.4141,1339.709,1157.4141,1335.709" style="stroke:#181818;stroke-width:1;"/><text fill="#000000" font-family="sans-serif" font-size="13" lengthAdjust="spacing" textLength="175.9951" x="1157.4141" y="1317.9668">ConvertToDto(staffMember)</text></g><g class="message" data-participant-1="SVC" data-participant-2="CTRL"><polygon fill="#181818" points="857.1689,1361.0195,847.1689,1365.0195,857.1689,1369.0195,853.1689,1365.0195" style="stroke:#181818;stroke-width:1;"/><line style="stroke:#181818;stroke-width:1;stroke-dasharray:2,2;" x1="851.1689" x2="1144.4141" y1="1365.0195" y2="1365.0195"/><text fill="#000000" font-family="sans-serif" font-size="13" lengthAdjust="spacing" textLength="166.9751" x="863.1689" y="1360.2773">StaffMemberDto (updated)</text></g><path d="M20,1387.0195 L156.0952,1387.0195 L156.0952,1394.3301 L146.0952,1404.3301 L20,1404.3301 L20,1387.0195" fill="#EEEEEE" style="stroke:#000000;stroke-width:1.5;"/><rect fill="none" height="111.2422" style="stroke:#000000;stroke-width:1.5;" width="922.5" x="20" y="1387.0195"/><text fill="#000000" font-family="sans-serif" font-size="13" font-weight="bold" lengthAdjust="spacing" textLength="91.0952" x="35" y="1400.5879">Return Result</text><g class="message" data-participant-1="CTRL" data-participant-2="SPA"><polygon fill="#181818" points="430.1689,1421.6406,420.1689,1425.6406,430.1689,1429.6406,426.1689,1425.6406" style="stroke:#181818;stroke-width:1;"/><line style="stroke:#181818;stroke-width:1;stroke-dasharray:2,2;" x1="424.1689" x2="845.1689" y1="1425.6406" y2="1425.6406"/><text fill="#000000" font-family="sans-serif" font-size="13" lengthAdjust="spacing" textLength="168.4287" x="436.1689" y="1420.8984">200 OK + StaffMemberDto</text></g><g class="message" data-participant-1="SPA" data-participant-2="LO"><polygon fill="#181818" points="106.2549,1450.9512,96.2549,1454.9512,106.2549,1458.9512,102.2549,1454.9512" style="stroke:#181818;stroke-width:1;"/><line style="stroke:#181818;stroke-width:1;stroke-dasharray:2,2;" x1="100.2549" x2="418.1689" y1="1454.9512" y2="1454.9512"/><text fill="#000000" font-family="sans-serif" font-size="13" lengthAdjust="spacing" textLength="234.5903" x="112.2549" y="1450.209">"Staff member updated successfully!"</text></g><path d="M424,1467.9512 L424,1492.9512 L845,1492.9512 L845,1477.9512 L835,1467.9512 L424,1467.9512" fill="#FEFFDD" style="stroke:#181818;stroke-width:0.5;"/><path d="M835,1467.9512 L835,1477.9512 L845,1477.9512 L835,1467.9512" fill="#FEFFDD" style="stroke:#181818;stroke-width:0.5;"/><text fill="#000000" font-family="sans-serif" font-size="13" lengthAdjust="spacing" textLength="400.772" x="430" y="1485.5195">Displays success confirmation\nand refreshes staff details view</text><path d="M20,1512.2617 L82.1387,1512.2617 L82.1387,1519.5723 L72.1387,1529.5723 L20,1529.5723 L20,1512.2617" fill="#EEEEEE" style="stroke:#000000;stroke-width:1.5;"/><rect fill="none" height="105.2422" style="stroke:#000000;stroke-width:1.5;" width="1211.3306" x="20" y="1512.2617"/><text fill="#000000" font-family="sans-serif" font-size="13" font-weight="bold" lengthAdjust="spacing" textLength="17.1387" x="35" y="1525.8301">alt</text><text fill="#000000" font-family="sans-serif" font-size="11" font-weight="bold" lengthAdjust="spacing" textLength="188.2622" x="97.1387" y="1524.8965">[Invalid input or duplicate found]</text><g class="message" data-participant-1="SVC" data-participant-2="CTRL"><polygon fill="#181818" points="857.1689,1546.8828,847.1689,1550.8828,857.1689,1554.8828,853.1689,1550.8828" style="stroke:#181818;stroke-width:1;"/><line style="stroke:#181818;stroke-width:1;stroke-dasharray:2,2;" x1="851.1689" x2="1144.4141" y1="1550.8828" y2="1550.8828"/><text fill="#000000" font-family="sans-serif" font-size="13" lengthAdjust="spacing" textLength="171.9961" x="863.1689" y="1546.1406">throws ValidationException</text></g><g class="message" data-participant-1="CTRL" data-participant-2="SPA"><polygon fill="#181818" points="430.1689,1576.1934,420.1689,1580.1934,430.1689,1584.1934,426.1689,1580.1934" style="stroke:#181818;stroke-width:1;"/><line style="stroke:#181818;stroke-width:1;stroke-dasharray:2,2;" x1="424.1689" x2="845.1689" y1="1580.1934" y2="1580.1934"/><text fill="#000000" font-family="sans-serif" font-size="13" lengthAdjust="spacing" textLength="215.1919" x="436.1689" y="1575.4512">400 Bad Request + error message</text></g><g class="message" data-participant-1="SPA" data-participant-2="LO"><polygon fill="#181818" points="106.2549,1605.5039,96.2549,1609.5039,106.2549,1613.5039,102.2549,1609.5039" style="stroke:#181818;stroke-width:1;"/><line style="stroke:#181818;stroke-width:1;stroke-dasharray:2,2;" x1="100.2549" x2="418.1689" y1="1609.5039" y2="1609.5039"/><text fill="#000000" font-family="sans-serif" font-size="13" lengthAdjust="spacing" textLength="299.9141" x="112.2549" y="1604.7617">showError("Validation failed or duplicate entry")</text></g><path d="M20,1631.5039 L82.1387,1631.5039 L82.1387,1638.8145 L72.1387,1648.8145 L20,1648.8145 L20,1631.5039" fill="#EEEEEE" style="stroke:#000000;stroke-width:1.5;"/><rect fill="none" height="134.5527" style="stroke:#000000;stroke-width:1.5;" width="1561.0894" x="20" y="1631.5039"/><text fill="#000000" font-family="sans-serif" font-size="13" font-weight="bold" lengthAdjust="spacing" textLength="17.1387" x="35" y="1645.0723">alt</text><text fill="#000000" font-family="sans-serif" font-size="11" font-weight="bold" lengthAdjust="spacing" textLength="140.0835" x="97.1387" y="1644.1387">[Qualification not found]</text><g class="message" data-participant-1="QSVC" data-participant-2="SVC"><polygon fill="#181818" points="1156.4141,1666.125,1146.4141,1670.125,1156.4141,1674.125,1152.4141,1670.125" style="stroke:#181818;stroke-width:1;"/><line style="stroke:#181818;stroke-width:1;stroke-dasharray:2,2;" x1="1150.4141" x2="1494.1797" y1="1670.125" y2="1670.125"/><text fill="#000000" font-family="sans-serif" font-size="13" lengthAdjust="spacing" textLength="273.0698" x="1162.4141" y="1665.3828">throws Exception("Qualification not found")</text></g><g class="message" data-participant-1="SVC" data-participant-2="CTRL"><polygon fill="#181818" points="857.1689,1695.4355,847.1689,1699.4355,857.1689,1703.4355,853.1689,1699.4355" style="stroke:#181818;stroke-width:1;"/><line style="stroke:#181818;stroke-width:1;stroke-dasharray:2,2;" x1="851.1689" x2="1144.4141" y1="1699.4355" y2="1699.4355"/><text fill="#000000" font-family="sans-serif" font-size="13" lengthAdjust="spacing" textLength="106.1709" x="863.1689" y="1694.6934">400 Bad Request</text></g><g class="message" data-participant-1="CTRL" data-participant-2="SPA"><polygon fill="#181818" points="430.1689,1724.7461,420.1689,1728.7461,430.1689,1732.7461,426.1689,1728.7461" style="stroke:#181818;stroke-width:1;"/><line style="stroke:#181818;stroke-width:1;stroke-dasharray:2,2;" x1="424.1689" x2="845.1689" y1="1728.7461" y2="1728.7461"/><text fill="#000000" font-family="sans-serif" font-size="13" lengthAdjust="spacing" textLength="31.186" x="436.1689" y="1724.0039">error</text></g><g class="message" data-participant-1="SPA" data-participant-2="LO"><polygon fill="#181818" points="106.2549,1754.0566,96.2549,1758.0566,106.2549,1762.0566,102.2549,1758.0566" style="stroke:#181818;stroke-width:1;"/><line style="stroke:#181818;stroke-width:1;stroke-dasharray:2,2;" x1="100.2549" x2="418.1689" y1="1758.0566" y2="1758.0566"/><text fill="#000000" font-family="sans-serif" font-size="13" lengthAdjust="spacing" textLength="171.9771" x="112.2549" y="1753.3145">"Invalid qualification name"</text></g><path d="M20,1780.0566 L82.1387,1780.0566 L82.1387,1787.3672 L72.1387,1797.3672 L20,1797.3672 L20,1780.0566" fill="#EEEEEE" style="stroke:#000000;stroke-width:1.5;"/><rect fill="none" height="75.9316" style="stroke:#000000;stroke-width:1.5;" width="922.5" x="20" y="1780.0566"/><text fill="#000000" font-family="sans-serif" font-size="13" font-weight="bold" lengthAdjust="spacing" textLength="17.1387" x="35" y="1793.625">alt</text><text fill="#000000" font-family="sans-serif" font-size="11" font-weight="bold" lengthAdjust="spacing" textLength="123.7822" x="97.1387" y="1792.6914">[Internal Server Error]</text><g class="message" data-participant-1="CTRL" data-participant-2="SPA"><polygon fill="#181818" points="430.1689,1814.6777,420.1689,1818.6777,430.1689,1822.6777,426.1689,1818.6777" style="stroke:#181818;stroke-width:1;"/><line style="stroke:#181818;stroke-width:1;stroke-dasharray:2,2;" x1="424.1689" x2="845.1689" y1="1818.6777" y2="1818.6777"/><text fill="#000000" font-family="sans-serif" font-size="13" lengthAdjust="spacing" textLength="155.0859" x="436.1689" y="1813.9355">500 Internal Server Error</text></g><g class="message" data-participant-1="SPA" data-participant-2="LO"><polygon fill="#181818" points="106.2549,1843.9883,96.2549,1847.9883,106.2549,1851.9883,102.2549,1847.9883" style="stroke:#181818;stroke-width:1;"/><line style="stroke:#181818;stroke-width:1;stroke-dasharray:2,2;" x1="100.2549" x2="418.1689" y1="1847.9883" y2="1847.9883"/><text fill="#000000" font-family="sans-serif" font-size="13" lengthAdjust="spacing" textLength="272.4478" x="112.2549" y="1843.2461">showError("Failed to update staff member")</text></g><!--SRC=[nLTBZzis4BxxLqnqQEnqNoZIow99uOSsQzJnG_9k3jqUk19j4v4fXQIyCOByzmv9oNfOSXoWG7rPMpiSpdppVJCZnLH4uI49YQBWAx9QmKUwVQO2Bc4kue1A2O-CldGw952n06SIhvbKB90mIwWW-Cm18c4owoH4u7EM4Ax0SKEcZ3lhxMgZjj4Jx_hpVi_OuvVgWTkIzJ3cIiHHHAtluTARj1lxLEnOGAtNns7DS96IYArOG1IBUTbqSMnRSkhH99OCaziROy-Tr_AxdST27R0O3OpPQD3fl8PtrGyy-Au7u-dIzVh3vNWshHjqrY9E4xXZKGI_W9y-Rvc2krXiEu2VoGmktskuu1OeWgh_qPKRl7rAjlG2w9Qmw0AIJSpfDDMnNppnB-MivT__N02J_HqQakU8zenV7cF11Ljl5CGhNJx8FdbP8JMaaB1YD0eb41v24B7WitpYZazs58ORmjTKEkOenNzhdntyqeI2vouUN7y9TvFPfnO4ijGz-YMbKXclEczCNpC0yv_tbyDxk2O9koxLwleR2xy_yMzm6XKu2GfyD_SXoTbEIy5mpZmoT-iIF0un1AkKljppeCl22_kRyNKfdf6AUrLdcceji3ps9-DHtz1YVj_ttHPe7Z5q8r5T1OygmIWMmFsgwSVNu7B5rDuYXc5Yj9gn6Eu7gWRxSPZ7MulBq5e_CTPuQZJ0CxuxSOTBU0DttkmZb1AJyEdUzLmOX_0E_gowGkhht-ZWihYzT1QGK3oD8cCLqlev6y01vJCEcjXj397AEjVMda0QmYfE4V2SqmQKWaS7VqLz3nfxU_CMfh4MOCM1vY7QJ7HQJlDjpi6w5AOkVSFZWbvQDvY1vKVU2L1mUSarLutXwu84t70ym2w93WqbYEKnYv06cM0x3J8lHvDxav28UCT26cO7iKqR9MNNbAM4o5ajKHLSzQgwjp4EDpJu366QH5fer9u6jeB0D8kmWQE6nNAmTxMfPMgeuYlpysS8EvmzJ9VTDxrMtXgFchhGduuqYr-TH-ERyqYx8f6axJGzniP2UXOsywAH5GYL7lwdE9Ny_eze7TXUxTlmlCSJCX0imKDM2z154EsuobfSXkB2teLTiB87Z4E4L0-A0ilg9RqVQCVbCXMe7BKXg3-SsmS9LVoOu51FL5SH64Tx2d8l5TqQrOgiaMj7b0aOZ-InfWxWBF885bbs3TrwKSNArdDKmAMJnbq4kYQotgboPjXDCFG_AcxVjnHuaNVPimykJWp6XpcEHVVaK6pQMeydONbkWomDbcgtEzuRwXl33vUeCaFw2QeS2skbZGMEJV7pYeTOOnte4zSyo3UjRHmMt54CAwJ8DZb12NrZGzVGsrcsd5c6dzKUCiGh3S5tbt1rTVMpWr-cWNvpEAyJj1WNlQ1II7mts56XbZ6kMTrIEKkwBmPzTIk3RgL7rAPqwzxgpsTJ_pGJSIDB1SS_CerKfs6h-Etc1cP_mQ-rY3gjQy69XIDB8iTjXSlC_fNJn4TynyhvE68oYSXUvgVqzh1YOckuPbaew0fxsWPvQ635k1IINS9El_wTi-AxdZVpu1x7nMGy_N04bTxJndodsphsmYHLUhKhfc6niTMAg3OYVf6bVSZz6j14V-aqxcytC21X_XQ1a5CXy28KaoHhUWmkgl_5rIPTfxW2nnEB4EDAX2XPV1_isVHrDejgiw-idRLkc2Ln2Bthj1ns6ebSowefSPDc0tToo8ydarDaCkQA2auYqA_8keqUdDLk-Hq3QJTk0_REeeaIJ4jzE2DqXkY_]--></g></svg>