<svg xmlns="http://www.w3.org/2000/svg" xmlns:xlink="http://www.w3.org/1999/xlink" contentStyleType="text/css" data-diagram-type="SEQUENCE" height="1307px" preserveAspectRatio="none" style="width:1683px;height:1307px;background:#FFFFFF;" version="1.1" viewBox="0 0 1683 1307" width="1683px" zoomAndPan="magnify"><title>Create Shipping Agent Representative - Process View</title><defs/><g><text fill="#000000" font-family="sans-serif" font-size="14" font-weight="bold" lengthAdjust="spacing" textLength="386.8252" x="649.835" y="28.5352">Create Shipping Agent Representative - Process View</text><g><title>.SPA</title><rect fill="#FFFFFF" height="1004.5137" style="stroke:#181818;stroke-width:1;" width="10" x="319.5879" y="189.9082"/></g><g><title>.ShippingAgentRepresentativesController</title><rect fill="#FFFFFF" height="930.582" style="stroke:#181818;stroke-width:1;" width="10" x="565.3076" y="234.5293"/></g><g><title>.ShippingAgentRepresentativeService</title><rect fill="#FFFFFF" height="871.9609" style="stroke:#181818;stroke-width:1;" width="10" x="854.4429" y="263.8398"/></g><g><title>.AgentOrganizationService</title><rect fill="#FFFFFF" height="215.4844" style="stroke:#181818;stroke-width:1;" width="10" x="1094.021" y="293.1504"/></g><g><title>.ShippingAgentRepresentativeRepository</title><rect fill="#FFFFFF" height="87.9316" style="stroke:#181818;stroke-width:1;" width="10" x="1345.9961" y="582.2109"/></g><g><title>.ShippingAgentRepresentativeRepository</title><rect fill="#FFFFFF" height="87.9316" style="stroke:#181818;stroke-width:1;" width="10" x="1345.9961" y="699.4531"/></g><g><title>.ShippingAgentRepresentativeRepository</title><rect fill="#FFFFFF" height="87.9316" style="stroke:#181818;stroke-width:1;" width="10" x="1345.9961" y="859.0059"/></g><g><title>.ShippingAgentRepresentativeRepository</title><rect fill="#FFFFFF" height="87.9316" style="stroke:#181818;stroke-width:1;" width="10" x="1345.9961" y="976.248"/></g><g><title>.PortLogisticsDB</title><rect fill="#FFFFFF" height="29.3105" style="stroke:#181818;stroke-width:1;" width="10" x="1590.5752" y="322.4609"/></g><g><title>.PortLogisticsDB</title><rect fill="#FFFFFF" height="29.3105" style="stroke:#181818;stroke-width:1;" width="10" x="1590.5752" y="611.5215"/></g><g><title>.PortLogisticsDB</title><rect fill="#FFFFFF" height="29.3105" style="stroke:#181818;stroke-width:1;" width="10" x="1590.5752" y="728.7637"/></g><g><title>.PortLogisticsDB</title><rect fill="#FFFFFF" height="29.3105" style="stroke:#181818;stroke-width:1;" width="10" x="1590.5752" y="888.3164"/></g><g><title>.PortLogisticsDB</title><rect fill="#FFFFFF" height="29.3105" style="stroke:#181818;stroke-width:1;" width="10" x="1590.5752" y="1005.5586"/></g><rect fill="none" height="1073.4453" style="stroke:#000000;stroke-width:1.5;" width="1667.4951" x="10" y="135.9766"/><rect fill="none" height="835.6504" style="stroke:#000000;stroke-width:1.5;" width="1647.4951" x="20" y="366.7715"/><g><title>Port Authority Officer</title><rect fill="#000000" fill-opacity="0.00000" height="1107.4453" width="8" x="101.6387" y="118.9766"/><line style="stroke:#181818;stroke-width:0.5;stroke-dasharray:5,5;" x1="105" x2="105" y1="118.9766" y2="1226.4219"/></g><g><title>.SPA</title><rect fill="#000000" fill-opacity="0.00000" height="1107.4453" width="8" x="320.5879" y="118.9766"/><line style="stroke:#181818;stroke-width:0.5;stroke-dasharray:5,5;" x1="323.9043" x2="323.9043" y1="118.9766" y2="1226.4219"/></g><g><title>.ShippingAgentRepresentativesController</title><rect fill="#000000" fill-opacity="0.00000" height="1107.4453" width="8" x="566.3076" y="118.9766"/><line style="stroke:#181818;stroke-width:0.5;stroke-dasharray:5,5;" x1="569.7485" x2="569.7485" y1="118.9766" y2="1226.4219"/></g><g><title>.ShippingAgentRepresentativeService</title><rect fill="#000000" fill-opacity="0.00000" height="1107.4453" width="8" x="855.4429" y="118.9766"/><line style="stroke:#181818;stroke-width:0.5;stroke-dasharray:5,5;" x1="858.8667" x2="858.8667" y1="118.9766" y2="1226.4219"/></g><g><title>.AgentOrganizationService</title><rect fill="#000000" fill-opacity="0.00000" height="1107.4453" width="8" x="1095.021" y="118.9766"/><line style="stroke:#181818;stroke-width:0.5;stroke-dasharray:5,5;" x1="1099.019" x2="1099.019" y1="118.9766" y2="1226.4219"/></g><g><title>.ShippingAgentRepresentativeRepository</title><rect fill="#000000" fill-opacity="0.00000" height="1107.4453" width="8" x="1346.9961" y="118.9766"/><line style="stroke:#181818;stroke-width:0.5;stroke-dasharray:5,5;" x1="1350.0229" x2="1350.0229" y1="118.9766" y2="1226.4219"/></g><g><title>.PortLogisticsDB</title><rect fill="#000000" fill-opacity="0.00000" height="1107.4453" width="8" x="1591.5752" y="118.9766"/><line style="stroke:#181818;stroke-width:0.5;stroke-dasharray:5,5;" x1="1594.6553" x2="1594.6553" y1="118.9766" y2="1226.4219"/></g><g class="participant participant-head" data-participant="PAO"><text fill="#000000" font-family="sans-serif" font-size="14" lengthAdjust="spacing" textLength="145.2773" x="30" y="116.0234">Port Authority Officer</text><ellipse cx="105.6387" cy="50.9883" fill="#E2E2F0" rx="8" ry="8" style="stroke:#181818;stroke-width:0.5;"/><path d="M105.6387,58.9883 L105.6387,85.9883 M92.6387,66.9883 L118.6387,66.9883 M105.6387,85.9883 L92.6387,100.9883 M105.6387,85.9883 L118.6387,100.9883" fill="none" style="stroke:#181818;stroke-width:0.5;"/></g><g class="participant participant-tail" data-participant="PAO"><text fill="#000000" font-family="sans-serif" font-size="14" lengthAdjust="spacing" textLength="145.2773" x="30" y="1238.957">Port Authority Officer</text><ellipse cx="105.6387" cy="1250.4102" fill="#E2E2F0" rx="8" ry="8" style="stroke:#181818;stroke-width:0.5;"/><path d="M105.6387,1258.4102 L105.6387,1285.4102 M92.6387,1266.4102 L118.6387,1266.4102 M105.6387,1285.4102 L92.6387,1300.4102 M105.6387,1285.4102 L118.6387,1300.4102" fill="none" style="stroke:#181818;stroke-width:0.5;"/></g><g class="participant participant-head" data-participant="SPA"><rect fill="#E2E2F0" height="30.4883" rx="2.5" ry="2.5" style="stroke:#181818;stroke-width:0.5;" width="43.3672" x="302.9043" y="87.4883"/><text fill="#000000" font-family="sans-serif" font-size="14" lengthAdjust="spacing" textLength="29.3672" x="309.9043" y="108.0234">:SPA</text></g><g class="participant participant-tail" data-participant="SPA"><rect fill="#E2E2F0" height="30.4883" rx="2.5" ry="2.5" style="stroke:#181818;stroke-width:0.5;" width="43.3672" x="302.9043" y="1225.4219"/><text fill="#000000" font-family="sans-serif" font-size="14" lengthAdjust="spacing" textLength="29.3672" x="309.9043" y="1245.957">:SPA</text></g><g class="participant participant-head" data-participant="CTRL"><rect fill="#E2E2F0" height="30.4883" rx="2.5" ry="2.5" style="stroke:#181818;stroke-width:0.5;" width="293.1182" x="423.7485" y="87.4883"/><text fill="#000000" font-family="sans-serif" font-size="14" lengthAdjust="spacing" textLength="279.1182" x="430.7485" y="108.0234">:ShippingAgentRepresentativesController</text></g><g class="participant participant-tail" data-participant="CTRL"><rect fill="#E2E2F0" height="30.4883" rx="2.5" ry="2.5" style="stroke:#181818;stroke-width:0.5;" width="293.1182" x="423.7485" y="1225.4219"/><text fill="#000000" font-family="sans-serif" font-size="14" lengthAdjust="spacing" textLength="279.1182" x="430.7485" y="1245.957">:ShippingAgentRepresentativesController</text></g><g class="participant participant-head" data-participant="SVC"><rect fill="#E2E2F0" height="30.4883" rx="2.5" ry="2.5" style="stroke:#181818;stroke-width:0.5;" width="265.1523" x="726.8667" y="87.4883"/><text fill="#000000" font-family="sans-serif" font-size="14" lengthAdjust="spacing" textLength="251.1523" x="733.8667" y="108.0234">:ShippingAgentRepresentativeService</text></g><g class="participant participant-tail" data-participant="SVC"><rect fill="#E2E2F0" height="30.4883" rx="2.5" ry="2.5" style="stroke:#181818;stroke-width:0.5;" width="265.1523" x="726.8667" y="1225.4219"/><text fill="#000000" font-family="sans-serif" font-size="14" lengthAdjust="spacing" textLength="251.1523" x="733.8667" y="1245.957">:ShippingAgentRepresentativeService</text></g><g class="participant participant-head" data-participant="ORG_SVC"><rect fill="#E2E2F0" height="30.4883" rx="2.5" ry="2.5" style="stroke:#181818;stroke-width:0.5;" width="194.0039" x="1002.019" y="87.4883"/><text fill="#000000" font-family="sans-serif" font-size="14" lengthAdjust="spacing" textLength="180.0039" x="1009.019" y="108.0234">:AgentOrganizationService</text></g><g class="participant participant-tail" data-participant="ORG_SVC"><rect fill="#E2E2F0" height="30.4883" rx="2.5" ry="2.5" style="stroke:#181818;stroke-width:0.5;" width="194.0039" x="1002.019" y="1225.4219"/><text fill="#000000" font-family="sans-serif" font-size="14" lengthAdjust="spacing" textLength="180.0039" x="1009.019" y="1245.957">:AgentOrganizationService</text></g><g class="participant participant-head" data-participant="REPO"><rect fill="#E2E2F0" height="30.4883" rx="2.5" ry="2.5" style="stroke:#181818;stroke-width:0.5;" width="289.9463" x="1206.0229" y="87.4883"/><text fill="#000000" font-family="sans-serif" font-size="14" lengthAdjust="spacing" textLength="275.9463" x="1213.0229" y="108.0234">:ShippingAgentRepresentativeRepository</text></g><g class="participant participant-tail" data-participant="REPO"><rect fill="#E2E2F0" height="30.4883" rx="2.5" ry="2.5" style="stroke:#181818;stroke-width:0.5;" width="289.9463" x="1206.0229" y="1225.4219"/><text fill="#000000" font-family="sans-serif" font-size="14" lengthAdjust="spacing" textLength="275.9463" x="1213.0229" y="1245.957">:ShippingAgentRepresentativeRepository</text></g><g class="participant participant-head" data-participant="DB"><rect fill="#E2E2F0" height="30.4883" rx="2.5" ry="2.5" style="stroke:#181818;stroke-width:0.5;" width="123.8398" x="1533.6553" y="87.4883"/><text fill="#000000" font-family="sans-serif" font-size="14" lengthAdjust="spacing" textLength="109.8398" x="1540.6553" y="108.0234">:PortLogisticsDB</text></g><g class="participant participant-tail" data-participant="DB"><rect fill="#E2E2F0" height="30.4883" rx="2.5" ry="2.5" style="stroke:#181818;stroke-width:0.5;" width="123.8398" x="1533.6553" y="1225.4219"/><text fill="#000000" font-family="sans-serif" font-size="14" lengthAdjust="spacing" textLength="109.8398" x="1540.6553" y="1245.957">:PortLogisticsDB</text></g><g><title>.SPA</title><rect fill="#FFFFFF" height="1004.5137" style="stroke:#181818;stroke-width:1;" width="10" x="319.5879" y="189.9082"/></g><g><title>.ShippingAgentRepresentativesController</title><rect fill="#FFFFFF" height="930.582" style="stroke:#181818;stroke-width:1;" width="10" x="565.3076" y="234.5293"/></g><g><title>.ShippingAgentRepresentativeService</title><rect fill="#FFFFFF" height="871.9609" style="stroke:#181818;stroke-width:1;" width="10" x="854.4429" y="263.8398"/></g><g><title>.AgentOrganizationService</title><rect fill="#FFFFFF" height="215.4844" style="stroke:#181818;stroke-width:1;" width="10" x="1094.021" y="293.1504"/></g><g><title>.ShippingAgentRepresentativeRepository</title><rect fill="#FFFFFF" height="87.9316" style="stroke:#181818;stroke-width:1;" width="10" x="1345.9961" y="582.2109"/></g><g><title>.ShippingAgentRepresentativeRepository</title><rect fill="#FFFFFF" height="87.9316" style="stroke:#181818;stroke-width:1;" width="10" x="1345.9961" y="699.4531"/></g><g><title>.ShippingAgentRepresentativeRepository</title><rect fill="#FFFFFF" height="87.9316" style="stroke:#181818;stroke-width:1;" width="10" x="1345.9961" y="859.0059"/></g><g><title>.ShippingAgentRepresentativeRepository</title><rect fill="#FFFFFF" height="87.9316" style="stroke:#181818;stroke-width:1;" width="10" x="1345.9961" y="976.248"/></g><g><title>.PortLogisticsDB</title><rect fill="#FFFFFF" height="29.3105" style="stroke:#181818;stroke-width:1;" width="10" x="1590.5752" y="322.4609"/></g><g><title>.PortLogisticsDB</title><rect fill="#FFFFFF" height="29.3105" style="stroke:#181818;stroke-width:1;" width="10" x="1590.5752" y="611.5215"/></g><g><title>.PortLogisticsDB</title><rect fill="#FFFFFF" height="29.3105" style="stroke:#181818;stroke-width:1;" width="10" x="1590.5752" y="728.7637"/></g><g><title>.PortLogisticsDB</title><rect fill="#FFFFFF" height="29.3105" style="stroke:#181818;stroke-width:1;" width="10" x="1590.5752" y="888.3164"/></g><g><title>.PortLogisticsDB</title><rect fill="#FFFFFF" height="29.3105" style="stroke:#181818;stroke-width:1;" width="10" x="1590.5752" y="1005.5586"/></g><path d="M10,135.9766 L202.5703,135.9766 L202.5703,143.2871 L192.5703,153.2871 L10,153.2871 L10,135.9766" fill="#EEEEEE" style="stroke:#000000;stroke-width:1.5;"/><rect fill="none" height="1073.4453" style="stroke:#000000;stroke-width:1.5;" width="1667.4951" x="10" y="135.9766"/><text fill="#000000" font-family="sans-serif" font-size="13" font-weight="bold" lengthAdjust="spacing" textLength="147.5703" x="25" y="149.5449">Create Representative</text><g class="message" data-participant-1="PAO" data-participant-2="SPA"><polygon fill="#181818" points="307.5879,185.9082,317.5879,189.9082,307.5879,193.9082,311.5879,189.9082" style="stroke:#181818;stroke-width:1;"/><line style="stroke:#181818;stroke-width:1;" x1="105.6387" x2="313.5879" y1="189.9082" y2="189.9082"/><text fill="#000000" font-family="sans-serif" font-size="13" lengthAdjust="spacing" textLength="194.9492" x="112.6387" y="169.8555">fillForm(orgId, name, citizenId,</text><text fill="#000000" font-family="sans-serif" font-size="13" lengthAdjust="spacing" textLength="160.5703" x="112.6387" y="185.166">nationality, email, phone)</text></g><g class="message" data-participant-1="SPA" data-participant-2="CTRL"><polygon fill="#181818" points="553.3076,230.5293,563.3076,234.5293,553.3076,238.5293,557.3076,234.5293" style="stroke:#181818;stroke-width:1;"/><line style="stroke:#181818;stroke-width:1;" x1="329.5879" x2="559.3076" y1="234.5293" y2="234.5293"/><text fill="#000000" font-family="sans-serif" font-size="13" lengthAdjust="spacing" textLength="165.877" x="336.5879" y="214.4766">POST /api/representatives</text><text fill="#000000" font-family="sans-serif" font-size="13" lengthAdjust="spacing" textLength="164.6582" x="336.5879" y="229.7871">{CreateRepresentativeDto}</text></g><g class="message" data-participant-1="CTRL" data-participant-2="SVC"><polygon fill="#181818" points="842.4429,259.8398,852.4429,263.8398,842.4429,267.8398,846.4429,263.8398" style="stroke:#181818;stroke-width:1;"/><line style="stroke:#181818;stroke-width:1;" x1="575.3076" x2="848.4429" y1="263.8398" y2="263.8398"/><text fill="#000000" font-family="sans-serif" font-size="13" lengthAdjust="spacing" textLength="91.9331" x="582.3076" y="259.0977">AddAsync(dto)</text></g><g class="message" data-participant-1="SVC" data-participant-2="ORG_SVC"><polygon fill="#181818" points="1082.021,289.1504,1092.021,293.1504,1082.021,297.1504,1086.021,293.1504" style="stroke:#181818;stroke-width:1;"/><line style="stroke:#181818;stroke-width:1;" x1="864.4429" x2="1088.021" y1="293.1504" y2="293.1504"/><text fill="#000000" font-family="sans-serif" font-size="13" lengthAdjust="spacing" textLength="210.0566" x="871.4429" y="288.4082">GetByIdAsync(dto.organizationId)</text></g><g class="message" data-participant-1="ORG_SVC" data-participant-2="DB"><polygon fill="#181818" points="1578.5752,318.4609,1588.5752,322.4609,1578.5752,326.4609,1582.5752,322.4609" style="stroke:#181818;stroke-width:1;"/><line style="stroke:#181818;stroke-width:1;" x1="1104.021" x2="1584.5752" y1="322.4609" y2="322.4609"/><text fill="#000000" font-family="sans-serif" font-size="13" lengthAdjust="spacing" textLength="257.3721" x="1111.021" y="317.7188">SELECT FROM Organizations WHERE Id=?</text></g><g class="message" data-participant-1="DB" data-participant-2="ORG_SVC"><polygon fill="#181818" points="1115.021,347.7715,1105.021,351.7715,1115.021,355.7715,1111.021,351.7715" style="stroke:#181818;stroke-width:1;"/><line style="stroke:#181818;stroke-width:1;stroke-dasharray:2,2;" x1="1109.021" x2="1594.5752" y1="351.7715" y2="351.7715"/><text fill="#000000" font-family="sans-serif" font-size="13" lengthAdjust="spacing" textLength="66.5933" x="1121.021" y="347.0293">org or null</text></g><path d="M20,366.7715 L82.1387,366.7715 L82.1387,374.082 L72.1387,384.082 L20,384.082 L20,366.7715" fill="#EEEEEE" style="stroke:#000000;stroke-width:1.5;"/><rect fill="none" height="835.6504" style="stroke:#000000;stroke-width:1.5;" width="1647.4951" x="20" y="366.7715"/><text fill="#000000" font-family="sans-serif" font-size="13" font-weight="bold" lengthAdjust="spacing" textLength="17.1387" x="35" y="380.3398">alt</text><text fill="#000000" font-family="sans-serif" font-size="11" font-weight="bold" lengthAdjust="spacing" textLength="63.8086" x="97.1387" y="379.4063">[not found]</text><g class="message" data-participant-1="ORG_SVC" data-participant-2="SVC"><polygon fill="#181818" points="875.4429,401.3926,865.4429,405.3926,875.4429,409.3926,871.4429,405.3926" style="stroke:#181818;stroke-width:1;"/><line style="stroke:#181818;stroke-width:1;stroke-dasharray:2,2;" x1="869.4429" x2="1093.021" y1="405.3926" y2="405.3926"/><text fill="#000000" font-family="sans-serif" font-size="13" lengthAdjust="spacing" textLength="23.6514" x="881.4429" y="400.6504">null</text></g><g class="message" data-participant-1="SVC" data-participant-2="CTRL"><polygon fill="#181818" points="586.3076,446.0137,576.3076,450.0137,586.3076,454.0137,582.3076,450.0137" style="stroke:#181818;stroke-width:1;"/><line style="stroke:#181818;stroke-width:1;stroke-dasharray:2,2;" x1="580.3076" x2="853.4429" y1="450.0137" y2="450.0137"/><text fill="#000000" font-family="sans-serif" font-size="13" lengthAdjust="spacing" textLength="106.1709" x="592.3076" y="429.9609">400 Bad Request</text><text fill="#000000" font-family="sans-serif" font-size="13" lengthAdjust="spacing" textLength="134.9639" x="592.3076" y="445.2715">"Invalid organization"</text></g><g class="message" data-participant-1="CTRL" data-participant-2="SPA"><polygon fill="#181818" points="340.5879,475.3242,330.5879,479.3242,340.5879,483.3242,336.5879,479.3242" style="stroke:#181818;stroke-width:1;"/><line style="stroke:#181818;stroke-width:1;stroke-dasharray:2,2;" x1="334.5879" x2="564.3076" y1="479.3242" y2="479.3242"/><text fill="#000000" font-family="sans-serif" font-size="13" lengthAdjust="spacing" textLength="79.7773" x="346.5879" y="474.582">display error</text></g><g class="message" data-participant-1="SPA" data-participant-2="PAO"><polygon fill="#181818" points="116.6387,504.6348,106.6387,508.6348,116.6387,512.6348,112.6387,508.6348" style="stroke:#181818;stroke-width:1;"/><line style="stroke:#181818;stroke-width:1;stroke-dasharray:2,2;" x1="110.6387" x2="318.5879" y1="508.6348" y2="508.6348"/><text fill="#000000" font-family="sans-serif" font-size="13" lengthAdjust="spacing" textLength="81.0977" x="122.6387" y="503.8926">correct input</text></g><line style="stroke:#000000;stroke-width:1;stroke-dasharray:2,2;" x1="20" x2="1667.4951" y1="517.6348" y2="517.6348"/><text fill="#000000" font-family="sans-serif" font-size="11" font-weight="bold" lengthAdjust="spacing" textLength="35.5889" x="25" y="528.2695">[valid]</text><g class="message" data-participant-1="ORG_SVC" data-participant-2="SVC"><polygon fill="#181818" points="875.4429,548.9004,865.4429,552.9004,875.4429,556.9004,871.4429,552.9004" style="stroke:#181818;stroke-width:1;"/><line style="stroke:#181818;stroke-width:1;stroke-dasharray:2,2;" x1="869.4429" x2="1098.021" y1="552.9004" y2="552.9004"/><text fill="#000000" font-family="sans-serif" font-size="13" lengthAdjust="spacing" textLength="43.9956" x="881.4429" y="548.1582">orgDto</text></g><g class="message" data-participant-1="SVC" data-participant-2="REPO"><polygon fill="#181818" points="1333.9961,578.2109,1343.9961,582.2109,1333.9961,586.2109,1337.9961,582.2109" style="stroke:#181818;stroke-width:1;"/><line style="stroke:#181818;stroke-width:1;" x1="864.4429" x2="1339.9961" y1="582.2109" y2="582.2109"/><text fill="#000000" font-family="sans-serif" font-size="13" lengthAdjust="spacing" textLength="189.8267" x="871.4429" y="577.4688">ExistsByEmailAsync(dto.email)</text></g><g class="message" data-participant-1="REPO" data-participant-2="DB"><polygon fill="#181818" points="1578.5752,607.5215,1588.5752,611.5215,1578.5752,615.5215,1582.5752,611.5215" style="stroke:#181818;stroke-width:1;"/><line style="stroke:#181818;stroke-width:1;" x1="1355.9961" x2="1584.5752" y1="611.5215" y2="611.5215"/><text fill="#000000" font-family="sans-serif" font-size="13" lengthAdjust="spacing" textLength="210.9072" x="1362.9961" y="606.7793">SELECT COUNT(*) WHERE Email=?</text></g><g class="message" data-participant-1="DB" data-participant-2="REPO"><polygon fill="#181818" points="1366.9961,636.832,1356.9961,640.832,1366.9961,644.832,1362.9961,640.832" style="stroke:#181818;stroke-width:1;"/><line style="stroke:#181818;stroke-width:1;stroke-dasharray:2,2;" x1="1360.9961" x2="1594.5752" y1="640.832" y2="640.832"/><text fill="#000000" font-family="sans-serif" font-size="13" lengthAdjust="spacing" textLength="8.2202" x="1372.9961" y="636.0898">0</text></g><g class="message" data-participant-1="REPO" data-participant-2="SVC"><polygon fill="#181818" points="875.4429,666.1426,865.4429,670.1426,875.4429,674.1426,871.4429,670.1426" style="stroke:#181818;stroke-width:1;"/><line style="stroke:#181818;stroke-width:1;stroke-dasharray:2,2;" x1="869.4429" x2="1349.9961" y1="670.1426" y2="670.1426"/><text fill="#000000" font-family="sans-serif" font-size="13" lengthAdjust="spacing" textLength="29.5864" x="881.4429" y="665.4004">false</text></g><g class="message" data-participant-1="SVC" data-participant-2="REPO"><polygon fill="#181818" points="1333.9961,695.4531,1343.9961,699.4531,1333.9961,703.4531,1337.9961,699.4531" style="stroke:#181818;stroke-width:1;"/><line style="stroke:#181818;stroke-width:1;" x1="864.4429" x2="1339.9961" y1="699.4531" y2="699.4531"/><text fill="#000000" font-family="sans-serif" font-size="13" lengthAdjust="spacing" textLength="199.9702" x="871.4429" y="694.7109">ExistsByPhoneAsync(dto.phone)</text></g><g class="message" data-participant-1="REPO" data-participant-2="DB"><polygon fill="#181818" points="1578.5752,724.7637,1588.5752,728.7637,1578.5752,732.7637,1582.5752,728.7637" style="stroke:#181818;stroke-width:1;"/><line style="stroke:#181818;stroke-width:1;" x1="1355.9961" x2="1584.5752" y1="728.7637" y2="728.7637"/><text fill="#000000" font-family="sans-serif" font-size="13" lengthAdjust="spacing" textLength="215.5791" x="1362.9961" y="724.0215">SELECT COUNT(*) WHERE Phone=?</text></g><g class="message" data-participant-1="DB" data-participant-2="REPO"><polygon fill="#181818" points="1366.9961,754.0742,1356.9961,758.0742,1366.9961,762.0742,1362.9961,758.0742" style="stroke:#181818;stroke-width:1;"/><line style="stroke:#181818;stroke-width:1;stroke-dasharray:2,2;" x1="1360.9961" x2="1594.5752" y1="758.0742" y2="758.0742"/><text fill="#000000" font-family="sans-serif" font-size="13" lengthAdjust="spacing" textLength="8.2202" x="1372.9961" y="753.332">0</text></g><g class="message" data-participant-1="REPO" data-participant-2="SVC"><polygon fill="#181818" points="875.4429,783.3848,865.4429,787.3848,875.4429,791.3848,871.4429,787.3848" style="stroke:#181818;stroke-width:1;"/><line style="stroke:#181818;stroke-width:1;stroke-dasharray:2,2;" x1="869.4429" x2="1349.9961" y1="787.3848" y2="787.3848"/><text fill="#000000" font-family="sans-serif" font-size="13" lengthAdjust="spacing" textLength="29.5864" x="881.4429" y="782.6426">false</text></g><g class="message" data-participant-1="SVC" data-participant-2="SVC"><line style="stroke:#181818;stroke-width:1;" x1="864.4429" x2="906.4429" y1="816.6953" y2="816.6953"/><line style="stroke:#181818;stroke-width:1;" x1="906.4429" x2="906.4429" y1="816.6953" y2="829.6953"/><line style="stroke:#181818;stroke-width:1;" x1="865.4429" x2="906.4429" y1="829.6953" y2="829.6953"/><polygon fill="#181818" points="875.4429,825.6953,865.4429,829.6953,875.4429,833.6953,871.4429,829.6953" style="stroke:#181818;stroke-width:1;"/><text fill="#000000" font-family="sans-serif" font-size="13" lengthAdjust="spacing" textLength="151.7026" x="871.4429" y="811.9531">new Representative(dto)</text></g><g class="message" data-participant-1="SVC" data-participant-2="REPO"><polygon fill="#181818" points="1333.9961,855.0059,1343.9961,859.0059,1333.9961,863.0059,1337.9961,859.0059" style="stroke:#181818;stroke-width:1;"/><line style="stroke:#181818;stroke-width:1;" x1="864.4429" x2="1339.9961" y1="859.0059" y2="859.0059"/><text fill="#000000" font-family="sans-serif" font-size="13" lengthAdjust="spacing" textLength="106.4883" x="871.4429" y="854.2637">AddAsync(entity)</text></g><g class="message" data-participant-1="REPO" data-participant-2="DB"><polygon fill="#181818" points="1578.5752,884.3164,1588.5752,888.3164,1578.5752,892.3164,1582.5752,888.3164" style="stroke:#181818;stroke-width:1;"/><line style="stroke:#181818;stroke-width:1;" x1="1355.9961" x2="1584.5752" y1="888.3164" y2="888.3164"/><text fill="#000000" font-family="sans-serif" font-size="13" lengthAdjust="spacing" textLength="195.4761" x="1362.9961" y="883.5742">INSERT INTO Representatives...</text></g><g class="message" data-participant-1="DB" data-participant-2="REPO"><polygon fill="#181818" points="1366.9961,913.627,1356.9961,917.627,1366.9961,921.627,1362.9961,917.627" style="stroke:#181818;stroke-width:1;"/><line style="stroke:#181818;stroke-width:1;stroke-dasharray:2,2;" x1="1360.9961" x2="1594.5752" y1="917.627" y2="917.627"/><text fill="#000000" font-family="sans-serif" font-size="13" lengthAdjust="spacing" textLength="71.6968" x="1372.9961" y="912.8848">inserted(id)</text></g><g class="message" data-participant-1="REPO" data-participant-2="SVC"><polygon fill="#181818" points="875.4429,942.9375,865.4429,946.9375,875.4429,950.9375,871.4429,946.9375" style="stroke:#181818;stroke-width:1;"/><line style="stroke:#181818;stroke-width:1;stroke-dasharray:2,2;" x1="869.4429" x2="1349.9961" y1="946.9375" y2="946.9375"/><text fill="#000000" font-family="sans-serif" font-size="13" lengthAdjust="spacing" textLength="35.585" x="881.4429" y="942.1953">entity</text></g><g class="message" data-participant-1="SVC" data-participant-2="REPO"><polygon fill="#181818" points="1333.9961,972.248,1343.9961,976.248,1333.9961,980.248,1337.9961,976.248" style="stroke:#181818;stroke-width:1;"/><line style="stroke:#181818;stroke-width:1;" x1="864.4429" x2="1339.9961" y1="976.248" y2="976.248"/><text fill="#000000" font-family="sans-serif" font-size="13" lengthAdjust="spacing" textLength="128.0068" x="871.4429" y="971.5059">SaveChangesAsync()</text></g><g class="message" data-participant-1="REPO" data-participant-2="DB"><polygon fill="#181818" points="1578.5752,1001.5586,1588.5752,1005.5586,1578.5752,1009.5586,1582.5752,1005.5586" style="stroke:#181818;stroke-width:1;"/><line style="stroke:#181818;stroke-width:1;" x1="1355.9961" x2="1584.5752" y1="1005.5586" y2="1005.5586"/><text fill="#000000" font-family="sans-serif" font-size="13" lengthAdjust="spacing" textLength="90.8921" x="1362.9961" y="1000.8164">SaveChanges()</text></g><g class="message" data-participant-1="DB" data-participant-2="REPO"><polygon fill="#181818" points="1366.9961,1030.8691,1356.9961,1034.8691,1366.9961,1038.8691,1362.9961,1034.8691" style="stroke:#181818;stroke-width:1;"/><line style="stroke:#181818;stroke-width:1;stroke-dasharray:2,2;" x1="1360.9961" x2="1594.5752" y1="1034.8691" y2="1034.8691"/><text fill="#000000" font-family="sans-serif" font-size="13" lengthAdjust="spacing" textLength="48.5088" x="1372.9961" y="1030.127">success</text></g><g class="message" data-participant-1="REPO" data-participant-2="SVC"><polygon fill="#181818" points="875.4429,1060.1797,865.4429,1064.1797,875.4429,1068.1797,871.4429,1064.1797" style="stroke:#181818;stroke-width:1;"/><line style="stroke:#181818;stroke-width:1;stroke-dasharray:2,2;" x1="869.4429" x2="1349.9961" y1="1064.1797" y2="1064.1797"/><text fill="#000000" font-family="sans-serif" font-size="13" lengthAdjust="spacing" textLength="48.5088" x="881.4429" y="1059.4375">success</text></g><g class="message" data-participant-1="SVC" data-participant-2="SVC"><line style="stroke:#181818;stroke-width:1;" x1="864.4429" x2="906.4429" y1="1093.4902" y2="1093.4902"/><line style="stroke:#181818;stroke-width:1;" x1="906.4429" x2="906.4429" y1="1093.4902" y2="1106.4902"/><line style="stroke:#181818;stroke-width:1;" x1="865.4429" x2="906.4429" y1="1106.4902" y2="1106.4902"/><polygon fill="#181818" points="875.4429,1102.4902,865.4429,1106.4902,875.4429,1110.4902,871.4429,1106.4902" style="stroke:#181818;stroke-width:1;"/><text fill="#000000" font-family="sans-serif" font-size="13" lengthAdjust="spacing" textLength="82.8306" x="871.4429" y="1088.748">ToDto(entity)</text></g><g class="message" data-participant-1="SVC" data-participant-2="CTRL"><polygon fill="#181818" points="586.3076,1131.8008,576.3076,1135.8008,586.3076,1139.8008,582.3076,1135.8008" style="stroke:#181818;stroke-width:1;"/><line style="stroke:#181818;stroke-width:1;stroke-dasharray:2,2;" x1="580.3076" x2="858.4429" y1="1135.8008" y2="1135.8008"/><text fill="#000000" font-family="sans-serif" font-size="13" lengthAdjust="spacing" textLength="115.3623" x="592.3076" y="1131.0586">RepresentativeDto</text></g><g class="message" data-participant-1="CTRL" data-participant-2="SPA"><polygon fill="#181818" points="340.5879,1161.1113,330.5879,1165.1113,340.5879,1169.1113,336.5879,1165.1113" style="stroke:#181818;stroke-width:1;"/><line style="stroke:#181818;stroke-width:1;stroke-dasharray:2,2;" x1="334.5879" x2="569.3076" y1="1165.1113" y2="1165.1113"/><text fill="#000000" font-family="sans-serif" font-size="13" lengthAdjust="spacing" textLength="211.7197" x="346.5879" y="1160.3691">201 Created + RepresentativeDto</text></g><g class="message" data-participant-1="SPA" data-participant-2="PAO"><polygon fill="#181818" points="116.6387,1190.4219,106.6387,1194.4219,116.6387,1198.4219,112.6387,1194.4219" style="stroke:#181818;stroke-width:1;"/><line style="stroke:#181818;stroke-width:1;stroke-dasharray:2,2;" x1="110.6387" x2="323.5879" y1="1194.4219" y2="1194.4219"/><text fill="#000000" font-family="sans-serif" font-size="13" lengthAdjust="spacing" textLength="48.5088" x="122.6387" y="1189.6797">success</text></g><!--SRC=[lLN1Rjf04Btp5ICkWPOGMlKKgQt0E2bI6blWf9T8rSeUpAhEhhkxa92g_zxPjJ6s4rBKGm_8U7VcpSnxCsF3JORWAMG6OR7YUSv52kCKXO4vvWer_ME6Rn1E8LGoHgtXbkD3fyDY8nLqGwaCZDTc9HKtMmYMInwZwWBJ48w3JiwKuJ7F6G5spnVXsDtGitrJndQXcv6r9uLHCijAM2-QNntllK2reOoAiBTUoz4v12fbWZ-HkHHrys1- -Vsvooknw4rgJhHidV_S3zi4MBQkPCerdUdfn9bD9vrEgkGwt-dG1Es09H9EFrdMu1oMFCikfBhlIPNEaW48Tey3YBdXJoZeu4u8LmdBI8y1u3tZsG3obHJO9ooIZM-SsgG1lLjGmhQa4dWOB28uOpa_KqqDxiIl8hjcSbCZVzT1dJPquE1iohSUeOwJPAot8kubHZPp87Rf_GIy5SO_GDQ407mabhJDa308gbI3u2xHJBQpFUImxZTB6X5s6aBbJr3J2Q4i_2lVY-1Y7do5UWTe-FR5d_imIpv-hYEHJ60zJnkvK6ZwWLXd6Lqds3HdcG4X3IpbMYJqNikY8gTqBUlSI_5XD889IwWRVgvHcplHdOaDYPeqQEewruBkgaKIhlECRG6Lagh0jYhJlUsaSuYbKXWRu29V6tTVItpF66OQmOKya3ebGWrm2C2Tdy2Du5G0nHJQACQ5qxHIrSu88VbExCdMjzsw5zOrRz_PL_1kgko9SssfwGKtrr7lJR_KqC4v6Tj2LbAM2OpQLPHMHP2guYKZJjgcBgDNYWhjxEsBgaRn7ujoSF-ng9FTNgAXfvLIBxJiO7nexQnYq5-WfDe41TPHBCok5_uyeaSKjCBeuN1u10rSQ5G6anvF-iSnKglq29qNR8FUYeaKTL7SSUBklTeEBrQXrx7z-XvNm07ZPnKKrf6aCMv8qjf5pvP-6xYQzzOcUZzwLtPF0c__3hFxVBGNre5ox2UCrXIjLlhz0G00]--></g></svg>