<svg xmlns="http://www.w3.org/2000/svg" xmlns:xlink="http://www.w3.org/1999/xlink" contentStyleType="text/css" data-diagram-type="SEQUENCE" height="586px" preserveAspectRatio="none" style="width:1653px;height:586px;background:#FFFFFF;" version="1.1" viewBox="0 0 1653 586" width="1653px" zoomAndPan="magnify"><title>Search Shipping Agent Representatives - Process View</title><defs/><g><text fill="#000000" font-family="sans-serif" font-size="14" font-weight="bold" lengthAdjust="spacing" textLength="395.5342" x="630.6082" y="28.5352">Search Shipping Agent Representatives - Process View</text><g><title>.SPA</title><rect fill="#FFFFFF" height="306.1055" style="stroke:#181818;stroke-width:1;" width="10" x="347.147" y="174.5977"/></g><g><title>.ShippingAgentRepresentativesController</title><rect fill="#FFFFFF" height="247.4844" style="stroke:#181818;stroke-width:1;" width="10" x="610.7817" y="203.9082"/></g><g><title>.ShippingAgentRepresentativeService</title><rect fill="#FFFFFF" height="188.8633" style="stroke:#181818;stroke-width:1;" width="10" x="899.917" y="233.2188"/></g><g><title>.ShippingAgentRepresentativeRepository</title><rect fill="#FFFFFF" height="87.9316" style="stroke:#181818;stroke-width:1;" width="10" x="1187.4663" y="262.5293"/></g><g><title>.PortLogisticsDB</title><rect fill="#FFFFFF" height="29.3105" style="stroke:#181818;stroke-width:1;" width="10" x="1570.8306" y="291.8398"/></g><rect fill="none" height="352.7266" style="stroke:#000000;stroke-width:1.5;" width="1637.7505" x="10" y="135.9766"/><g><title>Port Authority Officer</title><rect fill="#000000" fill-opacity="0.00000" height="386.7266" width="8" x="91.6387" y="118.9766"/><line style="stroke:#181818;stroke-width:0.5;stroke-dasharray:5,5;" x1="95" x2="95" y1="118.9766" y2="505.7031"/></g><g><title>.SPA</title><rect fill="#000000" fill-opacity="0.00000" height="386.7266" width="8" x="348.147" y="118.9766"/><line style="stroke:#181818;stroke-width:0.5;stroke-dasharray:5,5;" x1="351.4634" x2="351.4634" y1="118.9766" y2="505.7031"/></g><g><title>.ShippingAgentRepresentativesController</title><rect fill="#000000" fill-opacity="0.00000" height="386.7266" width="8" x="611.7817" y="118.9766"/><line style="stroke:#181818;stroke-width:0.5;stroke-dasharray:5,5;" x1="615.2227" x2="615.2227" y1="118.9766" y2="505.7031"/></g><g><title>.ShippingAgentRepresentativeService</title><rect fill="#000000" fill-opacity="0.00000" height="386.7266" width="8" x="900.917" y="118.9766"/><line style="stroke:#181818;stroke-width:0.5;stroke-dasharray:5,5;" x1="904.3408" x2="904.3408" y1="118.9766" y2="505.7031"/></g><g><title>.ShippingAgentRepresentativeRepository</title><rect fill="#000000" fill-opacity="0.00000" height="386.7266" width="8" x="1188.4663" y="118.9766"/><line style="stroke:#181818;stroke-width:0.5;stroke-dasharray:5,5;" x1="1191.4932" x2="1191.4932" y1="118.9766" y2="505.7031"/></g><g><title>.PortLogisticsDB</title><rect fill="#000000" fill-opacity="0.00000" height="386.7266" width="8" x="1571.8306" y="118.9766"/><line style="stroke:#181818;stroke-width:0.5;stroke-dasharray:5,5;" x1="1574.9106" x2="1574.9106" y1="118.9766" y2="505.7031"/></g><g class="participant participant-head" data-participant="PAO"><text fill="#000000" font-family="sans-serif" font-size="14" lengthAdjust="spacing" textLength="145.2773" x="20" y="116.0234">Port Authority Officer</text><ellipse cx="95.6387" cy="50.9883" fill="#E2E2F0" rx="8" ry="8" style="stroke:#181818;stroke-width:0.5;"/><path d="M95.6387,58.9883 L95.6387,85.9883 M82.6387,66.9883 L108.6387,66.9883 M95.6387,85.9883 L82.6387,100.9883 M95.6387,85.9883 L108.6387,100.9883" fill="none" style="stroke:#181818;stroke-width:0.5;"/></g><g class="participant participant-tail" data-participant="PAO"><text fill="#000000" font-family="sans-serif" font-size="14" lengthAdjust="spacing" textLength="145.2773" x="20" y="518.2383">Port Authority Officer</text><ellipse cx="95.6387" cy="529.6914" fill="#E2E2F0" rx="8" ry="8" style="stroke:#181818;stroke-width:0.5;"/><path d="M95.6387,537.6914 L95.6387,564.6914 M82.6387,545.6914 L108.6387,545.6914 M95.6387,564.6914 L82.6387,579.6914 M95.6387,564.6914 L108.6387,579.6914" fill="none" style="stroke:#181818;stroke-width:0.5;"/></g><g class="participant participant-head" data-participant="SPA"><rect fill="#E2E2F0" height="30.4883" rx="2.5" ry="2.5" style="stroke:#181818;stroke-width:0.5;" width="43.3672" x="330.4634" y="87.4883"/><text fill="#000000" font-family="sans-serif" font-size="14" lengthAdjust="spacing" textLength="29.3672" x="337.4634" y="108.0234">:SPA</text></g><g class="participant participant-tail" data-participant="SPA"><rect fill="#E2E2F0" height="30.4883" rx="2.5" ry="2.5" style="stroke:#181818;stroke-width:0.5;" width="43.3672" x="330.4634" y="504.7031"/><text fill="#000000" font-family="sans-serif" font-size="14" lengthAdjust="spacing" textLength="29.3672" x="337.4634" y="525.2383">:SPA</text></g><g class="participant participant-head" data-participant="CTRL"><rect fill="#E2E2F0" height="30.4883" rx="2.5" ry="2.5" style="stroke:#181818;stroke-width:0.5;" width="293.1182" x="469.2227" y="87.4883"/><text fill="#000000" font-family="sans-serif" font-size="14" lengthAdjust="spacing" textLength="279.1182" x="476.2227" y="108.0234">:ShippingAgentRepresentativesController</text></g><g class="participant participant-tail" data-participant="CTRL"><rect fill="#E2E2F0" height="30.4883" rx="2.5" ry="2.5" style="stroke:#181818;stroke-width:0.5;" width="293.1182" x="469.2227" y="504.7031"/><text fill="#000000" font-family="sans-serif" font-size="14" lengthAdjust="spacing" textLength="279.1182" x="476.2227" y="525.2383">:ShippingAgentRepresentativesController</text></g><g class="participant participant-head" data-participant="SVC"><rect fill="#E2E2F0" height="30.4883" rx="2.5" ry="2.5" style="stroke:#181818;stroke-width:0.5;" width="265.1523" x="772.3408" y="87.4883"/><text fill="#000000" font-family="sans-serif" font-size="14" lengthAdjust="spacing" textLength="251.1523" x="779.3408" y="108.0234">:ShippingAgentRepresentativeService</text></g><g class="participant participant-tail" data-participant="SVC"><rect fill="#E2E2F0" height="30.4883" rx="2.5" ry="2.5" style="stroke:#181818;stroke-width:0.5;" width="265.1523" x="772.3408" y="504.7031"/><text fill="#000000" font-family="sans-serif" font-size="14" lengthAdjust="spacing" textLength="251.1523" x="779.3408" y="525.2383">:ShippingAgentRepresentativeService</text></g><g class="participant participant-head" data-participant="REPO"><rect fill="#E2E2F0" height="30.4883" rx="2.5" ry="2.5" style="stroke:#181818;stroke-width:0.5;" width="289.9463" x="1047.4932" y="87.4883"/><text fill="#000000" font-family="sans-serif" font-size="14" lengthAdjust="spacing" textLength="275.9463" x="1054.4932" y="108.0234">:ShippingAgentRepresentativeRepository</text></g><g class="participant participant-tail" data-participant="REPO"><rect fill="#E2E2F0" height="30.4883" rx="2.5" ry="2.5" style="stroke:#181818;stroke-width:0.5;" width="289.9463" x="1047.4932" y="504.7031"/><text fill="#000000" font-family="sans-serif" font-size="14" lengthAdjust="spacing" textLength="275.9463" x="1054.4932" y="525.2383">:ShippingAgentRepresentativeRepository</text></g><g class="participant participant-head" data-participant="DB"><rect fill="#E2E2F0" height="30.4883" rx="2.5" ry="2.5" style="stroke:#181818;stroke-width:0.5;" width="123.8398" x="1513.9106" y="87.4883"/><text fill="#000000" font-family="sans-serif" font-size="14" lengthAdjust="spacing" textLength="109.8398" x="1520.9106" y="108.0234">:PortLogisticsDB</text></g><g class="participant participant-tail" data-participant="DB"><rect fill="#E2E2F0" height="30.4883" rx="2.5" ry="2.5" style="stroke:#181818;stroke-width:0.5;" width="123.8398" x="1513.9106" y="504.7031"/><text fill="#000000" font-family="sans-serif" font-size="14" lengthAdjust="spacing" textLength="109.8398" x="1520.9106" y="525.2383">:PortLogisticsDB</text></g><g><title>.SPA</title><rect fill="#FFFFFF" height="306.1055" style="stroke:#181818;stroke-width:1;" width="10" x="347.147" y="174.5977"/></g><g><title>.ShippingAgentRepresentativesController</title><rect fill="#FFFFFF" height="247.4844" style="stroke:#181818;stroke-width:1;" width="10" x="610.7817" y="203.9082"/></g><g><title>.ShippingAgentRepresentativeService</title><rect fill="#FFFFFF" height="188.8633" style="stroke:#181818;stroke-width:1;" width="10" x="899.917" y="233.2188"/></g><g><title>.ShippingAgentRepresentativeRepository</title><rect fill="#FFFFFF" height="87.9316" style="stroke:#181818;stroke-width:1;" width="10" x="1187.4663" y="262.5293"/></g><g><title>.PortLogisticsDB</title><rect fill="#FFFFFF" height="29.3105" style="stroke:#181818;stroke-width:1;" width="10" x="1570.8306" y="291.8398"/></g><path d="M10,135.9766 L210.6572,135.9766 L210.6572,143.2871 L200.6572,153.2871 L10,153.2871 L10,135.9766" fill="#EEEEEE" style="stroke:#000000;stroke-width:1.5;"/><rect fill="none" height="352.7266" style="stroke:#000000;stroke-width:1.5;" width="1637.7505" x="10" y="135.9766"/><text fill="#000000" font-family="sans-serif" font-size="13" font-weight="bold" lengthAdjust="spacing" textLength="155.6572" x="25" y="149.5449">Search Representatives</text><g class="message" data-participant-1="PAO" data-participant-2="SPA"><polygon fill="#181818" points="335.147,170.5977,345.147,174.5977,335.147,178.5977,339.147,174.5977" style="stroke:#181818;stroke-width:1;"/><line style="stroke:#181818;stroke-width:1;" x1="95.6387" x2="341.147" y1="174.5977" y2="174.5977"/><text fill="#000000" font-family="sans-serif" font-size="13" lengthAdjust="spacing" textLength="232.5083" x="102.6387" y="169.8555">search(name?,status?,org?,page,size)</text></g><g class="message" data-participant-1="SPA" data-participant-2="CTRL"><polygon fill="#181818" points="598.7817,199.9082,608.7817,203.9082,598.7817,207.9082,602.7817,203.9082" style="stroke:#181818;stroke-width:1;"/><line style="stroke:#181818;stroke-width:1;" x1="357.147" x2="604.7817" y1="203.9082" y2="203.9082"/><text fill="#000000" font-family="sans-serif" font-size="13" lengthAdjust="spacing" textLength="234.6348" x="364.147" y="199.166">GET /api/representatives?...queries...</text></g><g class="message" data-participant-1="CTRL" data-participant-2="SVC"><polygon fill="#181818" points="887.917,229.2188,897.917,233.2188,887.917,237.2188,891.917,233.2188" style="stroke:#181818;stroke-width:1;"/><line style="stroke:#181818;stroke-width:1;" x1="620.7817" x2="893.917" y1="233.2188" y2="233.2188"/><text fill="#000000" font-family="sans-serif" font-size="13" lengthAdjust="spacing" textLength="194.6445" x="627.7817" y="228.4766">SearchAsync(filters,pagination)</text></g><g class="message" data-participant-1="SVC" data-participant-2="REPO"><polygon fill="#181818" points="1175.4663,258.5293,1185.4663,262.5293,1175.4663,266.5293,1179.4663,262.5293" style="stroke:#181818;stroke-width:1;"/><line style="stroke:#181818;stroke-width:1;" x1="909.917" x2="1181.4663" y1="262.5293" y2="262.5293"/><text fill="#000000" font-family="sans-serif" font-size="13" lengthAdjust="spacing" textLength="194.6445" x="916.917" y="257.7871">SearchAsync(filters,pagination)</text></g><g class="message" data-participant-1="REPO" data-participant-2="DB"><polygon fill="#181818" points="1558.8306,287.8398,1568.8306,291.8398,1558.8306,295.8398,1562.8306,291.8398" style="stroke:#181818;stroke-width:1;"/><line style="stroke:#181818;stroke-width:1;" x1="1197.4663" x2="1564.8306" y1="291.8398" y2="291.8398"/><text fill="#000000" font-family="sans-serif" font-size="13" lengthAdjust="spacing" textLength="354.3643" x="1204.4663" y="287.0977">SELECT * FROM Representatives WHERE ... LIMIT/OFFSET</text></g><g class="message" data-participant-1="DB" data-participant-2="REPO"><polygon fill="#181818" points="1208.4663,317.1504,1198.4663,321.1504,1208.4663,325.1504,1204.4663,321.1504" style="stroke:#181818;stroke-width:1;"/><line style="stroke:#181818;stroke-width:1;stroke-dasharray:2,2;" x1="1202.4663" x2="1574.8306" y1="321.1504" y2="321.1504"/><text fill="#000000" font-family="sans-serif" font-size="13" lengthAdjust="spacing" textLength="85.5093" x="1214.4663" y="316.4082">paged results</text></g><g class="message" data-participant-1="REPO" data-participant-2="SVC"><polygon fill="#181818" points="920.917,346.4609,910.917,350.4609,920.917,354.4609,916.917,350.4609" style="stroke:#181818;stroke-width:1;"/><line style="stroke:#181818;stroke-width:1;stroke-dasharray:2,2;" x1="914.917" x2="1191.4663" y1="350.4609" y2="350.4609"/><text fill="#000000" font-family="sans-serif" font-size="13" lengthAdjust="spacing" textLength="19.0049" x="926.917" y="345.7188">list</text></g><g class="message" data-participant-1="SVC" data-participant-2="SVC"><line style="stroke:#181818;stroke-width:1;" x1="909.917" x2="951.917" y1="379.7715" y2="379.7715"/><line style="stroke:#181818;stroke-width:1;" x1="951.917" x2="951.917" y1="379.7715" y2="392.7715"/><line style="stroke:#181818;stroke-width:1;" x1="910.917" x2="951.917" y1="392.7715" y2="392.7715"/><polygon fill="#181818" points="920.917,388.7715,910.917,392.7715,920.917,396.7715,916.917,392.7715" style="stroke:#181818;stroke-width:1;"/><text fill="#000000" font-family="sans-serif" font-size="13" lengthAdjust="spacing" textLength="92.8091" x="916.917" y="375.0293">MapToDto(list)</text></g><g class="message" data-participant-1="SVC" data-participant-2="CTRL"><polygon fill="#181818" points="631.7817,418.082,621.7817,422.082,631.7817,426.082,627.7817,422.082" style="stroke:#181818;stroke-width:1;"/><line style="stroke:#181818;stroke-width:1;stroke-dasharray:2,2;" x1="625.7817" x2="903.917" y1="422.082" y2="422.082"/><text fill="#000000" font-family="sans-serif" font-size="13" lengthAdjust="spacing" textLength="165.7437" x="637.7817" y="417.3398">Page&lt;RepresentativeDto&gt;</text></g><g class="message" data-participant-1="CTRL" data-participant-2="SPA"><polygon fill="#181818" points="368.147,447.3926,358.147,451.3926,368.147,455.3926,364.147,451.3926" style="stroke:#181818;stroke-width:1;"/><line style="stroke:#181818;stroke-width:1;stroke-dasharray:2,2;" x1="362.147" x2="614.7817" y1="451.3926" y2="451.3926"/><text fill="#000000" font-family="sans-serif" font-size="13" lengthAdjust="spacing" textLength="108.4243" x="374.147" y="446.6504">200 OK + results</text></g><g class="message" data-participant-1="SPA" data-participant-2="PAO"><polygon fill="#181818" points="106.6387,476.7031,96.6387,480.7031,106.6387,484.7031,102.6387,480.7031" style="stroke:#181818;stroke-width:1;"/><line style="stroke:#181818;stroke-width:1;stroke-dasharray:2,2;" x1="100.6387" x2="351.147" y1="480.7031" y2="480.7031"/><text fill="#000000" font-family="sans-serif" font-size="13" lengthAdjust="spacing" textLength="136.3032" x="112.6387" y="475.9609">display search results</text></g><!--SRC=[bL9DR-8m4BtdLumuqIuVLOzeLHH2sAqAIfH4xDaAGnWf6tjjXuhzzJjse3IqX-ufZltUcpTlnfAj4N8KkZn0VY2bgAaWhB2naA7IQFWaB1tHm1XIBKiq1hQ4hq4WIYir35AfBOIjFKXDzWJ9VaybwW480scO14feIoKfmOg3MPw6_eM_jo_duhxsJUb8DbRBkZxBHaMs_ZexHtraHrtPRVHr8lz9GzpZoNEpEBtjnhM-bXKPlZFBXOSj5q5GQTcgIwetlGJWOe7nayi0Pc0yQjY8tpWV6GQrPZwIkfgFbAXmPEWltZ67mwQZiEYJutz7PWqN1OlyY0kO2aLJtIysdqmcVrhKX8PFxsLyXdpX1PoPRSGwdUNGd9fokAVQeZRE1ZKi9vk-3uxI-M0Uqrqu_yVtSK97P87bmj7ZTHmLS0-hBDbysBzVF-Ci1ku3ri-RvsAQh5PvNBpNvEp1AOslZbo8Es2TjhOk-ntsqLtzjm1gdcKVvNrU6-rW6w4AkRHowF1tbzVhF5Ak-htldz5FVULpWjq4tlRXyU41aXVuzhddozZy-9dZLca6EpAg5gVpBdtET7k3pUuV]--></g></svg>