<svg xmlns="http://www.w3.org/2000/svg" xmlns:xlink="http://www.w3.org/1999/xlink" contentStyleType="text/css" data-diagram-type="SEQUENCE" height="1043px" preserveAspectRatio="none" style="width:1434px;height:1043px;background:#FFFFFF;" version="1.1" viewBox="0 0 1434 1043" width="1434px" zoomAndPan="magnify"><title>Update/Deactivate Shipping Agent Representative</title><defs/><g><text fill="#000000" font-family="sans-serif" font-size="14" font-weight="bold" lengthAdjust="spacing" textLength="361.9082" x="538.0103" y="28.5352">Update/Deactivate Shipping Agent Representative</text><g><title>.SPA</title><rect fill="#FFFFFF" height="740.7188" style="stroke:#181818;stroke-width:1;" width="10" x="315.9253" y="189.9082"/></g><g><title>.ShippingAgentRepresentativesController</title><rect fill="#FFFFFF" height="666.7871" style="stroke:#181818;stroke-width:1;" width="10" x="548.4312" y="234.5293"/></g><g><title>.ShippingAgentRepresentativeService</title><rect fill="#FFFFFF" height="608.166" style="stroke:#181818;stroke-width:1;" width="10" x="837.5664" y="263.8398"/></g><g><title>.ShippingAgentRepresentativeRepository</title><rect fill="#FFFFFF" height="87.9316" style="stroke:#181818;stroke-width:1;" width="10" x="1125.1157" y="293.1504"/></g><g><title>.ShippingAgentRepresentativeRepository</title><rect fill="#FFFFFF" height="87.9316" style="stroke:#181818;stroke-width:1;" width="10" x="1125.1157" y="595.2109"/></g><g><title>.ShippingAgentRepresentativeRepository</title><rect fill="#FFFFFF" height="87.9316" style="stroke:#181818;stroke-width:1;" width="10" x="1125.1157" y="712.4531"/></g><g><title>.PortLogisticsDB</title><rect fill="#FFFFFF" height="29.3105" style="stroke:#181818;stroke-width:1;" width="10" x="1342.0088" y="322.4609"/></g><g><title>.PortLogisticsDB</title><rect fill="#FFFFFF" height="29.3105" style="stroke:#181818;stroke-width:1;" width="10" x="1342.0088" y="624.5215"/></g><g><title>.PortLogisticsDB</title><rect fill="#FFFFFF" height="29.3105" style="stroke:#181818;stroke-width:1;" width="10" x="1342.0088" y="741.7637"/></g><rect fill="none" height="809.6504" style="stroke:#000000;stroke-width:1.5;" width="1418.9287" x="10" y="135.9766"/><rect fill="none" height="542.5449" style="stroke:#000000;stroke-width:1.5;" width="1398.9287" x="20" y="396.082"/><g><title>Port Authority Officer</title><rect fill="#000000" fill-opacity="0.00000" height="843.6504" width="8" x="101.6387" y="118.9766"/><line style="stroke:#181818;stroke-width:0.5;stroke-dasharray:5,5;" x1="105" x2="105" y1="118.9766" y2="962.627"/></g><g><title>.SPA</title><rect fill="#000000" fill-opacity="0.00000" height="843.6504" width="8" x="316.9253" y="118.9766"/><line style="stroke:#181818;stroke-width:0.5;stroke-dasharray:5,5;" x1="320.2417" x2="320.2417" y1="118.9766" y2="962.627"/></g><g><title>.ShippingAgentRepresentativesController</title><rect fill="#000000" fill-opacity="0.00000" height="843.6504" width="8" x="549.4312" y="118.9766"/><line style="stroke:#181818;stroke-width:0.5;stroke-dasharray:5,5;" x1="552.8721" x2="552.8721" y1="118.9766" y2="962.627"/></g><g><title>.ShippingAgentRepresentativeService</title><rect fill="#000000" fill-opacity="0.00000" height="843.6504" width="8" x="838.5664" y="118.9766"/><line style="stroke:#181818;stroke-width:0.5;stroke-dasharray:5,5;" x1="841.9902" x2="841.9902" y1="118.9766" y2="962.627"/></g><g><title>.ShippingAgentRepresentativeRepository</title><rect fill="#000000" fill-opacity="0.00000" height="843.6504" width="8" x="1126.1157" y="118.9766"/><line style="stroke:#181818;stroke-width:0.5;stroke-dasharray:5,5;" x1="1129.1426" x2="1129.1426" y1="118.9766" y2="962.627"/></g><g><title>.PortLogisticsDB</title><rect fill="#000000" fill-opacity="0.00000" height="843.6504" width="8" x="1343.0088" y="118.9766"/><line style="stroke:#181818;stroke-width:0.5;stroke-dasharray:5,5;" x1="1346.0889" x2="1346.0889" y1="118.9766" y2="962.627"/></g><g class="participant participant-head" data-participant="PAO"><text fill="#000000" font-family="sans-serif" font-size="14" lengthAdjust="spacing" textLength="145.2773" x="30" y="116.0234">Port Authority Officer</text><ellipse cx="105.6387" cy="50.9883" fill="#E2E2F0" rx="8" ry="8" style="stroke:#181818;stroke-width:0.5;"/><path d="M105.6387,58.9883 L105.6387,85.9883 M92.6387,66.9883 L118.6387,66.9883 M105.6387,85.9883 L92.6387,100.9883 M105.6387,85.9883 L118.6387,100.9883" fill="none" style="stroke:#181818;stroke-width:0.5;"/></g><g class="participant participant-tail" data-participant="PAO"><text fill="#000000" font-family="sans-serif" font-size="14" lengthAdjust="spacing" textLength="145.2773" x="30" y="975.1621">Port Authority Officer</text><ellipse cx="105.6387" cy="986.6152" fill="#E2E2F0" rx="8" ry="8" style="stroke:#181818;stroke-width:0.5;"/><path d="M105.6387,994.6152 L105.6387,1021.6152 M92.6387,1002.6152 L118.6387,1002.6152 M105.6387,1021.6152 L92.6387,1036.6152 M105.6387,1021.6152 L118.6387,1036.6152" fill="none" style="stroke:#181818;stroke-width:0.5;"/></g><g class="participant participant-head" data-participant="SPA"><rect fill="#E2E2F0" height="30.4883" rx="2.5" ry="2.5" style="stroke:#181818;stroke-width:0.5;" width="43.3672" x="299.2417" y="87.4883"/><text fill="#000000" font-family="sans-serif" font-size="14" lengthAdjust="spacing" textLength="29.3672" x="306.2417" y="108.0234">:SPA</text></g><g class="participant participant-tail" data-participant="SPA"><rect fill="#E2E2F0" height="30.4883" rx="2.5" ry="2.5" style="stroke:#181818;stroke-width:0.5;" width="43.3672" x="299.2417" y="961.627"/><text fill="#000000" font-family="sans-serif" font-size="14" lengthAdjust="spacing" textLength="29.3672" x="306.2417" y="982.1621">:SPA</text></g><g class="participant participant-head" data-participant="CTRL"><rect fill="#E2E2F0" height="30.4883" rx="2.5" ry="2.5" style="stroke:#181818;stroke-width:0.5;" width="293.1182" x="406.8721" y="87.4883"/><text fill="#000000" font-family="sans-serif" font-size="14" lengthAdjust="spacing" textLength="279.1182" x="413.8721" y="108.0234">:ShippingAgentRepresentativesController</text></g><g class="participant participant-tail" data-participant="CTRL"><rect fill="#E2E2F0" height="30.4883" rx="2.5" ry="2.5" style="stroke:#181818;stroke-width:0.5;" width="293.1182" x="406.8721" y="961.627"/><text fill="#000000" font-family="sans-serif" font-size="14" lengthAdjust="spacing" textLength="279.1182" x="413.8721" y="982.1621">:ShippingAgentRepresentativesController</text></g><g class="participant participant-head" data-participant="SVC"><rect fill="#E2E2F0" height="30.4883" rx="2.5" ry="2.5" style="stroke:#181818;stroke-width:0.5;" width="265.1523" x="709.9902" y="87.4883"/><text fill="#000000" font-family="sans-serif" font-size="14" lengthAdjust="spacing" textLength="251.1523" x="716.9902" y="108.0234">:ShippingAgentRepresentativeService</text></g><g class="participant participant-tail" data-participant="SVC"><rect fill="#E2E2F0" height="30.4883" rx="2.5" ry="2.5" style="stroke:#181818;stroke-width:0.5;" width="265.1523" x="709.9902" y="961.627"/><text fill="#000000" font-family="sans-serif" font-size="14" lengthAdjust="spacing" textLength="251.1523" x="716.9902" y="982.1621">:ShippingAgentRepresentativeService</text></g><g class="participant participant-head" data-participant="REPO"><rect fill="#E2E2F0" height="30.4883" rx="2.5" ry="2.5" style="stroke:#181818;stroke-width:0.5;" width="289.9463" x="985.1426" y="87.4883"/><text fill="#000000" font-family="sans-serif" font-size="14" lengthAdjust="spacing" textLength="275.9463" x="992.1426" y="108.0234">:ShippingAgentRepresentativeRepository</text></g><g class="participant participant-tail" data-participant="REPO"><rect fill="#E2E2F0" height="30.4883" rx="2.5" ry="2.5" style="stroke:#181818;stroke-width:0.5;" width="289.9463" x="985.1426" y="961.627"/><text fill="#000000" font-family="sans-serif" font-size="14" lengthAdjust="spacing" textLength="275.9463" x="992.1426" y="982.1621">:ShippingAgentRepresentativeRepository</text></g><g class="participant participant-head" data-participant="DB"><rect fill="#E2E2F0" height="30.4883" rx="2.5" ry="2.5" style="stroke:#181818;stroke-width:0.5;" width="123.8398" x="1285.0889" y="87.4883"/><text fill="#000000" font-family="sans-serif" font-size="14" lengthAdjust="spacing" textLength="109.8398" x="1292.0889" y="108.0234">:PortLogisticsDB</text></g><g class="participant participant-tail" data-participant="DB"><rect fill="#E2E2F0" height="30.4883" rx="2.5" ry="2.5" style="stroke:#181818;stroke-width:0.5;" width="123.8398" x="1285.0889" y="961.627"/><text fill="#000000" font-family="sans-serif" font-size="14" lengthAdjust="spacing" textLength="109.8398" x="1292.0889" y="982.1621">:PortLogisticsDB</text></g><g><title>.SPA</title><rect fill="#FFFFFF" height="740.7188" style="stroke:#181818;stroke-width:1;" width="10" x="315.9253" y="189.9082"/></g><g><title>.ShippingAgentRepresentativesController</title><rect fill="#FFFFFF" height="666.7871" style="stroke:#181818;stroke-width:1;" width="10" x="548.4312" y="234.5293"/></g><g><title>.ShippingAgentRepresentativeService</title><rect fill="#FFFFFF" height="608.166" style="stroke:#181818;stroke-width:1;" width="10" x="837.5664" y="263.8398"/></g><g><title>.ShippingAgentRepresentativeRepository</title><rect fill="#FFFFFF" height="87.9316" style="stroke:#181818;stroke-width:1;" width="10" x="1125.1157" y="293.1504"/></g><g><title>.ShippingAgentRepresentativeRepository</title><rect fill="#FFFFFF" height="87.9316" style="stroke:#181818;stroke-width:1;" width="10" x="1125.1157" y="595.2109"/></g><g><title>.ShippingAgentRepresentativeRepository</title><rect fill="#FFFFFF" height="87.9316" style="stroke:#181818;stroke-width:1;" width="10" x="1125.1157" y="712.4531"/></g><g><title>.PortLogisticsDB</title><rect fill="#FFFFFF" height="29.3105" style="stroke:#181818;stroke-width:1;" width="10" x="1342.0088" y="322.4609"/></g><g><title>.PortLogisticsDB</title><rect fill="#FFFFFF" height="29.3105" style="stroke:#181818;stroke-width:1;" width="10" x="1342.0088" y="624.5215"/></g><g><title>.PortLogisticsDB</title><rect fill="#FFFFFF" height="29.3105" style="stroke:#181818;stroke-width:1;" width="10" x="1342.0088" y="741.7637"/></g><path d="M10,135.9766 L284.1567,135.9766 L284.1567,143.2871 L274.1567,153.2871 L10,153.2871 L10,135.9766" fill="#EEEEEE" style="stroke:#000000;stroke-width:1.5;"/><rect fill="none" height="809.6504" style="stroke:#000000;stroke-width:1.5;" width="1418.9287" x="10" y="135.9766"/><text fill="#000000" font-family="sans-serif" font-size="13" font-weight="bold" lengthAdjust="spacing" textLength="229.1567" x="25" y="149.5449">Update/Deactivate Representative</text><g class="message" data-participant-1="PAO" data-participant-2="SPA"><polygon fill="#181818" points="303.9253,185.9082,313.9253,189.9082,303.9253,193.9082,307.9253,189.9082" style="stroke:#181818;stroke-width:1;"/><line style="stroke:#181818;stroke-width:1;" x1="105.6387" x2="309.9253" y1="189.9082" y2="189.9082"/><text fill="#000000" font-family="sans-serif" font-size="13" lengthAdjust="spacing" textLength="96.4526" x="112.6387" y="169.8555">openEdit(repId)</text><text fill="#000000" font-family="sans-serif" font-size="13" lengthAdjust="spacing" textLength="191.2866" x="112.6387" y="185.166">modify fields or change status</text></g><g class="message" data-participant-1="SPA" data-participant-2="CTRL"><polygon fill="#181818" points="536.4312,230.5293,546.4312,234.5293,536.4312,238.5293,540.4312,234.5293" style="stroke:#181818;stroke-width:1;"/><line style="stroke:#181818;stroke-width:1;" x1="325.9253" x2="542.4312" y1="234.5293" y2="234.5293"/><text fill="#000000" font-family="sans-serif" font-size="13" lengthAdjust="spacing" textLength="203.5059" x="332.9253" y="214.4766">PATCH /api/representatives/{id}</text><text fill="#000000" font-family="sans-serif" font-size="13" lengthAdjust="spacing" textLength="168.4731" x="332.9253" y="229.7871">{UpdateRepresentativeDto}</text></g><g class="message" data-participant-1="CTRL" data-participant-2="SVC"><polygon fill="#181818" points="825.5664,259.8398,835.5664,263.8398,825.5664,267.8398,829.5664,263.8398" style="stroke:#181818;stroke-width:1;"/><line style="stroke:#181818;stroke-width:1;" x1="558.4312" x2="831.5664" y1="263.8398" y2="263.8398"/><text fill="#000000" font-family="sans-serif" font-size="13" lengthAdjust="spacing" textLength="127.3086" x="565.4312" y="259.0977">UpdateAsync(id,dto)</text></g><g class="message" data-participant-1="SVC" data-participant-2="REPO"><polygon fill="#181818" points="1113.1157,289.1504,1123.1157,293.1504,1113.1157,297.1504,1117.1157,293.1504" style="stroke:#181818;stroke-width:1;"/><line style="stroke:#181818;stroke-width:1;" x1="847.5664" x2="1119.1157" y1="293.1504" y2="293.1504"/><text fill="#000000" font-family="sans-serif" font-size="13" lengthAdjust="spacing" textLength="105.2061" x="854.5664" y="288.4082">GetByIdAsync(id)</text></g><g class="message" data-participant-1="REPO" data-participant-2="DB"><polygon fill="#181818" points="1330.0088,318.4609,1340.0088,322.4609,1330.0088,326.4609,1334.0088,322.4609" style="stroke:#181818;stroke-width:1;"/><line style="stroke:#181818;stroke-width:1;" x1="1135.1157" x2="1336.0088" y1="322.4609" y2="322.4609"/><text fill="#000000" font-family="sans-serif" font-size="13" lengthAdjust="spacing" textLength="134.5767" x="1142.1157" y="317.7188">SELECT * WHERE Id=?</text></g><g class="message" data-participant-1="DB" data-participant-2="REPO"><polygon fill="#181818" points="1146.1157,347.7715,1136.1157,351.7715,1146.1157,355.7715,1142.1157,351.7715" style="stroke:#181818;stroke-width:1;"/><line style="stroke:#181818;stroke-width:1;stroke-dasharray:2,2;" x1="1140.1157" x2="1346.0088" y1="351.7715" y2="351.7715"/><text fill="#000000" font-family="sans-serif" font-size="13" lengthAdjust="spacing" textLength="80.7676" x="1152.1157" y="347.0293">entity or null</text></g><g class="message" data-participant-1="REPO" data-participant-2="SVC"><polygon fill="#181818" points="858.5664,377.082,848.5664,381.082,858.5664,385.082,854.5664,381.082" style="stroke:#181818;stroke-width:1;"/><line style="stroke:#181818;stroke-width:1;stroke-dasharray:2,2;" x1="852.5664" x2="1129.1157" y1="381.082" y2="381.082"/><text fill="#000000" font-family="sans-serif" font-size="13" lengthAdjust="spacing" textLength="35.585" x="864.5664" y="376.3398">entity</text></g><path d="M20,396.082 L82.1387,396.082 L82.1387,403.3926 L72.1387,413.3926 L20,413.3926 L20,396.082" fill="#EEEEEE" style="stroke:#000000;stroke-width:1.5;"/><rect fill="none" height="542.5449" style="stroke:#000000;stroke-width:1.5;" width="1398.9287" x="20" y="396.082"/><text fill="#000000" font-family="sans-serif" font-size="13" font-weight="bold" lengthAdjust="spacing" textLength="17.1387" x="35" y="409.6504">alt</text><text fill="#000000" font-family="sans-serif" font-size="11" font-weight="bold" lengthAdjust="spacing" textLength="63.8086" x="97.1387" y="408.7168">[not found]</text><g class="message" data-participant-1="SVC" data-participant-2="CTRL"><polygon fill="#181818" points="569.4312,430.7031,559.4312,434.7031,569.4312,438.7031,565.4312,434.7031" style="stroke:#181818;stroke-width:1;"/><line style="stroke:#181818;stroke-width:1;stroke-dasharray:2,2;" x1="563.4312" x2="836.5664" y1="434.7031" y2="434.7031"/><text fill="#000000" font-family="sans-serif" font-size="13" lengthAdjust="spacing" textLength="94.6118" x="575.4312" y="429.9609">404 Not Found</text></g><g class="message" data-participant-1="CTRL" data-participant-2="SPA"><polygon fill="#181818" points="336.9253,460.0137,326.9253,464.0137,336.9253,468.0137,332.9253,464.0137" style="stroke:#181818;stroke-width:1;"/><line style="stroke:#181818;stroke-width:1;stroke-dasharray:2,2;" x1="330.9253" x2="547.4312" y1="464.0137" y2="464.0137"/><text fill="#000000" font-family="sans-serif" font-size="13" lengthAdjust="spacing" textLength="67.9961" x="342.9253" y="459.2715">show error</text></g><g class="message" data-participant-1="SPA" data-participant-2="PAO"><polygon fill="#181818" points="116.6387,489.3242,106.6387,493.3242,116.6387,497.3242,112.6387,493.3242" style="stroke:#181818;stroke-width:1;"/><line style="stroke:#181818;stroke-width:1;stroke-dasharray:2,2;" x1="110.6387" x2="314.9253" y1="493.3242" y2="493.3242"/><text fill="#000000" font-family="sans-serif" font-size="13" lengthAdjust="spacing" textLength="36.2451" x="122.6387" y="488.582">notify</text></g><line style="stroke:#000000;stroke-width:1;stroke-dasharray:2,2;" x1="20" x2="1418.9287" y1="502.3242" y2="502.3242"/><text fill="#000000" font-family="sans-serif" font-size="11" font-weight="bold" lengthAdjust="spacing" textLength="41.4756" x="25" y="512.959">[found]</text><g class="message" data-participant-1="SVC" data-participant-2="SVC"><line style="stroke:#181818;stroke-width:1;" x1="847.5664" x2="889.5664" y1="552.9004" y2="552.9004"/><line style="stroke:#181818;stroke-width:1;" x1="889.5664" x2="889.5664" y1="552.9004" y2="565.9004"/><line style="stroke:#181818;stroke-width:1;" x1="848.5664" x2="889.5664" y1="565.9004" y2="565.9004"/><polygon fill="#181818" points="858.5664,561.9004,848.5664,565.9004,858.5664,569.9004,854.5664,565.9004" style="stroke:#181818;stroke-width:1;"/><text fill="#000000" font-family="sans-serif" font-size="13" lengthAdjust="spacing" textLength="146.25" x="854.5664" y="532.8477">entity.UpdateFrom(dto)</text><text fill="#000000" font-family="sans-serif" font-size="13" lengthAdjust="spacing" textLength="135.8652" x="854.5664" y="548.1582">(e.g. deactivate=true)</text></g><g class="message" data-participant-1="SVC" data-participant-2="REPO"><polygon fill="#181818" points="1113.1157,591.2109,1123.1157,595.2109,1113.1157,599.2109,1117.1157,595.2109" style="stroke:#181818;stroke-width:1;"/><line style="stroke:#181818;stroke-width:1;" x1="847.5664" x2="1119.1157" y1="595.2109" y2="595.2109"/><text fill="#000000" font-family="sans-serif" font-size="13" lengthAdjust="spacing" textLength="125.8105" x="854.5664" y="590.4688">UpdateAsync(entity)</text></g><g class="message" data-participant-1="REPO" data-participant-2="DB"><polygon fill="#181818" points="1330.0088,620.5215,1340.0088,624.5215,1330.0088,628.5215,1334.0088,624.5215" style="stroke:#181818;stroke-width:1;"/><line style="stroke:#181818;stroke-width:1;" x1="1135.1157" x2="1336.0088" y1="624.5215" y2="624.5215"/><text fill="#000000" font-family="sans-serif" font-size="13" lengthAdjust="spacing" textLength="170.1362" x="1142.1157" y="619.7793">UPDATE Representatives ...</text></g><g class="message" data-participant-1="DB" data-participant-2="REPO"><polygon fill="#181818" points="1146.1157,649.832,1136.1157,653.832,1146.1157,657.832,1142.1157,653.832" style="stroke:#181818;stroke-width:1;"/><line style="stroke:#181818;stroke-width:1;stroke-dasharray:2,2;" x1="1140.1157" x2="1346.0088" y1="653.832" y2="653.832"/><text fill="#000000" font-family="sans-serif" font-size="13" lengthAdjust="spacing" textLength="51.8984" x="1152.1157" y="649.0898">updated</text></g><g class="message" data-participant-1="REPO" data-participant-2="SVC"><polygon fill="#181818" points="858.5664,679.1426,848.5664,683.1426,858.5664,687.1426,854.5664,683.1426" style="stroke:#181818;stroke-width:1;"/><line style="stroke:#181818;stroke-width:1;stroke-dasharray:2,2;" x1="852.5664" x2="1129.1157" y1="683.1426" y2="683.1426"/><text fill="#000000" font-family="sans-serif" font-size="13" lengthAdjust="spacing" textLength="48.5088" x="864.5664" y="678.4004">success</text></g><g class="message" data-participant-1="SVC" data-participant-2="REPO"><polygon fill="#181818" points="1113.1157,708.4531,1123.1157,712.4531,1113.1157,716.4531,1117.1157,712.4531" style="stroke:#181818;stroke-width:1;"/><line style="stroke:#181818;stroke-width:1;" x1="847.5664" x2="1119.1157" y1="712.4531" y2="712.4531"/><text fill="#000000" font-family="sans-serif" font-size="13" lengthAdjust="spacing" textLength="128.0068" x="854.5664" y="707.7109">SaveChangesAsync()</text></g><g class="message" data-participant-1="REPO" data-participant-2="DB"><polygon fill="#181818" points="1330.0088,737.7637,1340.0088,741.7637,1330.0088,745.7637,1334.0088,741.7637" style="stroke:#181818;stroke-width:1;"/><line style="stroke:#181818;stroke-width:1;" x1="1135.1157" x2="1336.0088" y1="741.7637" y2="741.7637"/><text fill="#000000" font-family="sans-serif" font-size="13" lengthAdjust="spacing" textLength="90.8921" x="1142.1157" y="737.0215">SaveChanges()</text></g><g class="message" data-participant-1="DB" data-participant-2="REPO"><polygon fill="#181818" points="1146.1157,767.0742,1136.1157,771.0742,1146.1157,775.0742,1142.1157,771.0742" style="stroke:#181818;stroke-width:1;"/><line style="stroke:#181818;stroke-width:1;stroke-dasharray:2,2;" x1="1140.1157" x2="1346.0088" y1="771.0742" y2="771.0742"/><text fill="#000000" font-family="sans-serif" font-size="13" lengthAdjust="spacing" textLength="48.5088" x="1152.1157" y="766.332">success</text></g><g class="message" data-participant-1="REPO" data-participant-2="SVC"><polygon fill="#181818" points="858.5664,796.3848,848.5664,800.3848,858.5664,804.3848,854.5664,800.3848" style="stroke:#181818;stroke-width:1;"/><line style="stroke:#181818;stroke-width:1;stroke-dasharray:2,2;" x1="852.5664" x2="1129.1157" y1="800.3848" y2="800.3848"/><text fill="#000000" font-family="sans-serif" font-size="13" lengthAdjust="spacing" textLength="48.5088" x="864.5664" y="795.6426">success</text></g><g class="message" data-participant-1="SVC" data-participant-2="SVC"><line style="stroke:#181818;stroke-width:1;" x1="847.5664" x2="889.5664" y1="829.6953" y2="829.6953"/><line style="stroke:#181818;stroke-width:1;" x1="889.5664" x2="889.5664" y1="829.6953" y2="842.6953"/><line style="stroke:#181818;stroke-width:1;" x1="848.5664" x2="889.5664" y1="842.6953" y2="842.6953"/><polygon fill="#181818" points="858.5664,838.6953,848.5664,842.6953,858.5664,846.6953,854.5664,842.6953" style="stroke:#181818;stroke-width:1;"/><text fill="#000000" font-family="sans-serif" font-size="13" lengthAdjust="spacing" textLength="82.8306" x="854.5664" y="824.9531">ToDto(entity)</text></g><g class="message" data-participant-1="SVC" data-participant-2="CTRL"><polygon fill="#181818" points="569.4312,868.0059,559.4312,872.0059,569.4312,876.0059,565.4312,872.0059" style="stroke:#181818;stroke-width:1;"/><line style="stroke:#181818;stroke-width:1;stroke-dasharray:2,2;" x1="563.4312" x2="841.5664" y1="872.0059" y2="872.0059"/><text fill="#000000" font-family="sans-serif" font-size="13" lengthAdjust="spacing" textLength="115.3623" x="575.4312" y="867.2637">RepresentativeDto</text></g><g class="message" data-participant-1="CTRL" data-participant-2="SPA"><polygon fill="#181818" points="336.9253,897.3164,326.9253,901.3164,336.9253,905.3164,332.9253,901.3164" style="stroke:#181818;stroke-width:1;"/><line style="stroke:#181818;stroke-width:1;stroke-dasharray:2,2;" x1="330.9253" x2="552.4312" y1="901.3164" y2="901.3164"/><text fill="#000000" font-family="sans-serif" font-size="13" lengthAdjust="spacing" textLength="181.2827" x="342.9253" y="896.5742">200 OK + RepresentativeDto</text></g><g class="message" data-participant-1="SPA" data-participant-2="PAO"><polygon fill="#181818" points="116.6387,926.627,106.6387,930.627,116.6387,934.627,112.6387,930.627" style="stroke:#181818;stroke-width:1;"/><line style="stroke:#181818;stroke-width:1;stroke-dasharray:2,2;" x1="110.6387" x2="319.9253" y1="930.627" y2="930.627"/><text fill="#000000" font-family="sans-serif" font-size="13" lengthAdjust="spacing" textLength="132.6152" x="122.6387" y="925.8848">Updated successfully</text></g><!--SRC=[fLHHRvim47xdLvpwqcHTIJJrAL8t4Q1hj6X1ITgzv0LXGonHZ6pJ2LNzxplR906dqoBj8Ghcxhwxx_lEAAPA2ayrIHMTH3JD57l5HzZiMLspge2We9M2DQq5bVYKOfnw7kPn0LS95mg2HksvOAg5LPwpZ8ehI2KamSghKw5OnkeK4QvccoGm4Vnt8rqpqslOIeQyKeANPGSRRjVBowitLBpYHBRjStXv8PwuPCYnDRNhE77PQEfBNZ29xsGqDsdHtFCAmPlw0q4T1K4B1BTVjHem0rxJAYPCZGIj5sIygruuONaBEQCbaO1QP_kqAYX8h6yabf-SGZdnh74GJkk3U4cm3HzXajPi8ePwJjuOUTzLRtR2uLIHukzzQ2CslZ2WUjRd4B5jPI3RAXinyfaeFXxCWphZ-HgMF2M0qBWPUZwiHGYj969yfshUBiW1P01Wn0QRYHNH7FCtyJ8Ej_09VZt6wnWMvFvRlmI51vruU-fW6slbggOiCKpeCDtY7raT1-tbcKbqdr91nHNalAa8dZis9xdlfdVm4nCUZWbMigE_Siz_0nM22rkkpSAWte6PXaQlCK1BINjDhY6ewxBjh9UdniEPVMl8W-0l8st6hXfHl_1xHEwLQEZOwq0tgTa_rvA-hHPuRB9SNnnddf8esCREUalmVNzORJHtJMfCJylMzUVC8Tba6PNIJJwOvFBHD4Ehd2Lr4PrUbLlm8OE_3FL_36psbkDz75ZXRDtPvNM1kwjujerVfbDO_O2RVoCSlW3kojfb8GT6ELwnzgmxVfXmft6PyVS7]--></g></svg>