<svg xmlns="http://www.w3.org/2000/svg" xmlns:xlink="http://www.w3.org/1999/xlink" contentStyleType="text/css" data-diagram-type="SEQUENCE" height="1381px" preserveAspectRatio="none" style="width:1357px;height:1381px;background:#FFFFFF;" version="1.1" viewBox="0 0 1357 1381" width="1357px" zoomAndPan="magnify"><title>Create Vessel Record - Process View</title><defs/><g><text fill="#000000" font-family="sans-serif" font-size="14" font-weight="bold" lengthAdjust="spacing" textLength="265.125" x="547.7468" y="28.5352">Create Vessel Record - Process View</text><g><title>.SPA</title><rect fill="#FFFFFF" height="1072.0898" style="stroke:#181818;stroke-width:1;" width="10" x="308.7295" y="189.9082"/></g><g><title>.VesselsController</title><rect fill="#FFFFFF" height="998.1582" style="stroke:#181818;stroke-width:1;" width="10" x="501.6685" y="234.5293"/></g><g><title>.VesselService</title><rect fill="#FFFFFF" height="939.5371" style="stroke:#181818;stroke-width:1;" width="10" x="669.0835" y="263.8398"/></g><g><title>.VesselTypeService</title><rect fill="#FFFFFF" height="259.75" style="stroke:#181818;stroke-width:1;" width="10" x="931.269" y="595.2109"/></g><g><title>.VesselRepository</title><rect fill="#FFFFFF" height="87.9316" style="stroke:#181818;stroke-width:1;" width="10" x="1078.8901" y="477.9688"/></g><g><title>.VesselRepository</title><rect fill="#FFFFFF" height="87.9316" style="stroke:#181818;stroke-width:1;" width="10" x="1078.8901" y="926.582"/></g><g><title>.VesselRepository</title><rect fill="#FFFFFF" height="87.9316" style="stroke:#181818;stroke-width:1;" width="10" x="1078.8901" y="1043.8242"/></g><g><title>.PortLogisticsDB</title><rect fill="#FFFFFF" height="29.3105" style="stroke:#181818;stroke-width:1;" width="10" x="1254.6987" y="507.2793"/></g><g><title>.PortLogisticsDB</title><rect fill="#FFFFFF" height="29.3105" style="stroke:#181818;stroke-width:1;" width="10" x="1254.6987" y="624.5215"/></g><g><title>.PortLogisticsDB</title><rect fill="#FFFFFF" height="29.3105" style="stroke:#181818;stroke-width:1;" width="10" x="1254.6987" y="955.8926"/></g><g><title>.PortLogisticsDB</title><rect fill="#FFFFFF" height="29.3105" style="stroke:#181818;stroke-width:1;" width="10" x="1254.6987" y="1073.1348"/></g><rect fill="none" height="1148.0215" style="stroke:#000000;stroke-width:1.5;" width="1341.6187" x="10" y="135.9766"/><rect fill="none" height="955.8477" style="stroke:#000000;stroke-width:1.5;" width="1321.6187" x="20" y="321.1504"/><rect fill="none" height="601.166" style="stroke:#000000;stroke-width:1.5;" width="1301.6187" x="30" y="668.832"/><g><title>Port Authority Officer</title><rect fill="#000000" fill-opacity="0.00000" height="1182.0215" width="8" x="111.6387" y="118.9766"/><line style="stroke:#181818;stroke-width:0.5;stroke-dasharray:5,5;" x1="115" x2="115" y1="118.9766" y2="1300.998"/></g><g><title>.SPA</title><rect fill="#000000" fill-opacity="0.00000" height="1182.0215" width="8" x="309.7295" y="118.9766"/><line style="stroke:#181818;stroke-width:0.5;stroke-dasharray:5,5;" x1="313.0459" x2="313.0459" y1="118.9766" y2="1300.998"/></g><g><title>.VesselsController</title><rect fill="#000000" fill-opacity="0.00000" height="1182.0215" width="8" x="502.6685" y="118.9766"/><line style="stroke:#181818;stroke-width:0.5;stroke-dasharray:5,5;" x1="506.2681" x2="506.2681" y1="118.9766" y2="1300.998"/></g><g><title>.VesselService</title><rect fill="#000000" fill-opacity="0.00000" height="1182.0215" width="8" x="670.0835" y="118.9766"/><line style="stroke:#181818;stroke-width:0.5;stroke-dasharray:5,5;" x1="673.666" x2="673.666" y1="118.9766" y2="1300.998"/></g><g><title>.VesselTypeService</title><rect fill="#000000" fill-opacity="0.00000" height="1182.0215" width="8" x="932.269" y="118.9766"/><line style="stroke:#181818;stroke-width:0.5;stroke-dasharray:5,5;" x1="935.4624" x2="935.4624" y1="118.9766" y2="1300.998"/></g><g><title>.VesselRepository</title><rect fill="#000000" fill-opacity="0.00000" height="1182.0215" width="8" x="1079.8901" y="118.9766"/><line style="stroke:#181818;stroke-width:0.5;stroke-dasharray:5,5;" x1="1083.0757" x2="1083.0757" y1="118.9766" y2="1300.998"/></g><g><title>.PortLogisticsDB</title><rect fill="#000000" fill-opacity="0.00000" height="1182.0215" width="8" x="1255.6987" y="118.9766"/><line style="stroke:#181818;stroke-width:0.5;stroke-dasharray:5,5;" x1="1258.7788" x2="1258.7788" y1="118.9766" y2="1300.998"/></g><g class="participant participant-head" data-participant="PAO"><text fill="#000000" font-family="sans-serif" font-size="14" lengthAdjust="spacing" textLength="145.2773" x="40" y="116.0234">Port Authority Officer</text><ellipse cx="115.6387" cy="50.9883" fill="#E2E2F0" rx="8" ry="8" style="stroke:#181818;stroke-width:0.5;"/><path d="M115.6387,58.9883 L115.6387,85.9883 M102.6387,66.9883 L128.6387,66.9883 M115.6387,85.9883 L102.6387,100.9883 M115.6387,85.9883 L128.6387,100.9883" fill="none" style="stroke:#181818;stroke-width:0.5;"/></g><g class="participant participant-tail" data-participant="PAO"><text fill="#000000" font-family="sans-serif" font-size="14" lengthAdjust="spacing" textLength="145.2773" x="40" y="1313.5332">Port Authority Officer</text><ellipse cx="115.6387" cy="1324.9863" fill="#E2E2F0" rx="8" ry="8" style="stroke:#181818;stroke-width:0.5;"/><path d="M115.6387,1332.9863 L115.6387,1359.9863 M102.6387,1340.9863 L128.6387,1340.9863 M115.6387,1359.9863 L102.6387,1374.9863 M115.6387,1359.9863 L128.6387,1374.9863" fill="none" style="stroke:#181818;stroke-width:0.5;"/></g><g class="participant participant-head" data-participant="SPA"><rect fill="#E2E2F0" height="30.4883" rx="2.5" ry="2.5" style="stroke:#181818;stroke-width:0.5;" width="43.3672" x="292.0459" y="87.4883"/><text fill="#000000" font-family="sans-serif" font-size="14" lengthAdjust="spacing" textLength="29.3672" x="299.0459" y="108.0234">:SPA</text></g><g class="participant participant-tail" data-participant="SPA"><rect fill="#E2E2F0" height="30.4883" rx="2.5" ry="2.5" style="stroke:#181818;stroke-width:0.5;" width="43.3672" x="292.0459" y="1299.998"/><text fill="#000000" font-family="sans-serif" font-size="14" lengthAdjust="spacing" textLength="29.3672" x="299.0459" y="1320.5332">:SPA</text></g><g class="participant participant-head" data-participant="CTRL"><rect fill="#E2E2F0" height="30.4883" rx="2.5" ry="2.5" style="stroke:#181818;stroke-width:0.5;" width="136.8008" x="438.2681" y="87.4883"/><text fill="#000000" font-family="sans-serif" font-size="14" lengthAdjust="spacing" textLength="122.8008" x="445.2681" y="108.0234">:VesselsController</text></g><g class="participant participant-tail" data-participant="CTRL"><rect fill="#E2E2F0" height="30.4883" rx="2.5" ry="2.5" style="stroke:#181818;stroke-width:0.5;" width="136.8008" x="438.2681" y="1299.998"/><text fill="#000000" font-family="sans-serif" font-size="14" lengthAdjust="spacing" textLength="122.8008" x="445.2681" y="1320.5332">:VesselsController</text></g><g class="participant participant-head" data-participant="SVC"><rect fill="#E2E2F0" height="30.4883" rx="2.5" ry="2.5" style="stroke:#181818;stroke-width:0.5;" width="108.835" x="619.666" y="87.4883"/><text fill="#000000" font-family="sans-serif" font-size="14" lengthAdjust="spacing" textLength="94.835" x="626.666" y="108.0234">:VesselService</text></g><g class="participant participant-tail" data-participant="SVC"><rect fill="#E2E2F0" height="30.4883" rx="2.5" ry="2.5" style="stroke:#181818;stroke-width:0.5;" width="108.835" x="619.666" y="1299.998"/><text fill="#000000" font-family="sans-serif" font-size="14" lengthAdjust="spacing" textLength="94.835" x="626.666" y="1320.5332">:VesselService</text></g><g class="participant participant-head" data-participant="VT_SVC"><rect fill="#E2E2F0" height="30.4883" rx="2.5" ry="2.5" style="stroke:#181818;stroke-width:0.5;" width="141.6133" x="865.4624" y="87.4883"/><text fill="#000000" font-family="sans-serif" font-size="14" lengthAdjust="spacing" textLength="127.6133" x="872.4624" y="108.0234">:VesselTypeService</text></g><g class="participant participant-tail" data-participant="VT_SVC"><rect fill="#E2E2F0" height="30.4883" rx="2.5" ry="2.5" style="stroke:#181818;stroke-width:0.5;" width="141.6133" x="865.4624" y="1299.998"/><text fill="#000000" font-family="sans-serif" font-size="14" lengthAdjust="spacing" textLength="127.6133" x="872.4624" y="1320.5332">:VesselTypeService</text></g><g class="participant participant-head" data-participant="REPO"><rect fill="#E2E2F0" height="30.4883" rx="2.5" ry="2.5" style="stroke:#181818;stroke-width:0.5;" width="133.6289" x="1017.0757" y="87.4883"/><text fill="#000000" font-family="sans-serif" font-size="14" lengthAdjust="spacing" textLength="119.6289" x="1024.0757" y="108.0234">:VesselRepository</text></g><g class="participant participant-tail" data-participant="REPO"><rect fill="#E2E2F0" height="30.4883" rx="2.5" ry="2.5" style="stroke:#181818;stroke-width:0.5;" width="133.6289" x="1017.0757" y="1299.998"/><text fill="#000000" font-family="sans-serif" font-size="14" lengthAdjust="spacing" textLength="119.6289" x="1024.0757" y="1320.5332">:VesselRepository</text></g><g class="participant participant-head" data-participant="DB"><rect fill="#E2E2F0" height="30.4883" rx="2.5" ry="2.5" style="stroke:#181818;stroke-width:0.5;" width="123.8398" x="1197.7788" y="87.4883"/><text fill="#000000" font-family="sans-serif" font-size="14" lengthAdjust="spacing" textLength="109.8398" x="1204.7788" y="108.0234">:PortLogisticsDB</text></g><g class="participant participant-tail" data-participant="DB"><rect fill="#E2E2F0" height="30.4883" rx="2.5" ry="2.5" style="stroke:#181818;stroke-width:0.5;" width="123.8398" x="1197.7788" y="1299.998"/><text fill="#000000" font-family="sans-serif" font-size="14" lengthAdjust="spacing" textLength="109.8398" x="1204.7788" y="1320.5332">:PortLogisticsDB</text></g><g><title>.SPA</title><rect fill="#FFFFFF" height="1072.0898" style="stroke:#181818;stroke-width:1;" width="10" x="308.7295" y="189.9082"/></g><g><title>.VesselsController</title><rect fill="#FFFFFF" height="998.1582" style="stroke:#181818;stroke-width:1;" width="10" x="501.6685" y="234.5293"/></g><g><title>.VesselService</title><rect fill="#FFFFFF" height="939.5371" style="stroke:#181818;stroke-width:1;" width="10" x="669.0835" y="263.8398"/></g><g><title>.VesselTypeService</title><rect fill="#FFFFFF" height="259.75" style="stroke:#181818;stroke-width:1;" width="10" x="931.269" y="595.2109"/></g><g><title>.VesselRepository</title><rect fill="#FFFFFF" height="87.9316" style="stroke:#181818;stroke-width:1;" width="10" x="1078.8901" y="477.9688"/></g><g><title>.VesselRepository</title><rect fill="#FFFFFF" height="87.9316" style="stroke:#181818;stroke-width:1;" width="10" x="1078.8901" y="926.582"/></g><g><title>.VesselRepository</title><rect fill="#FFFFFF" height="87.9316" style="stroke:#181818;stroke-width:1;" width="10" x="1078.8901" y="1043.8242"/></g><g><title>.PortLogisticsDB</title><rect fill="#FFFFFF" height="29.3105" style="stroke:#181818;stroke-width:1;" width="10" x="1254.6987" y="507.2793"/></g><g><title>.PortLogisticsDB</title><rect fill="#FFFFFF" height="29.3105" style="stroke:#181818;stroke-width:1;" width="10" x="1254.6987" y="624.5215"/></g><g><title>.PortLogisticsDB</title><rect fill="#FFFFFF" height="29.3105" style="stroke:#181818;stroke-width:1;" width="10" x="1254.6987" y="955.8926"/></g><g><title>.PortLogisticsDB</title><rect fill="#FFFFFF" height="29.3105" style="stroke:#181818;stroke-width:1;" width="10" x="1254.6987" y="1073.1348"/></g><path d="M10,135.9766 L145.8477,135.9766 L145.8477,143.2871 L135.8477,153.2871 L10,153.2871 L10,135.9766" fill="#EEEEEE" style="stroke:#000000;stroke-width:1.5;"/><rect fill="none" height="1148.0215" style="stroke:#000000;stroke-width:1.5;" width="1341.6187" x="10" y="135.9766"/><text fill="#000000" font-family="sans-serif" font-size="13" font-weight="bold" lengthAdjust="spacing" textLength="90.8477" x="25" y="149.5449">Create Vessel</text><g class="message" data-participant-1="PAO" data-participant-2="SPA"><polygon fill="#181818" points="296.7295,185.9082,306.7295,189.9082,296.7295,193.9082,300.7295,189.9082" style="stroke:#181818;stroke-width:1;"/><line style="stroke:#181818;stroke-width:1;" x1="115.6387" x2="302.7295" y1="189.9082" y2="189.9082"/><text fill="#000000" font-family="sans-serif" font-size="13" lengthAdjust="spacing" textLength="174.0908" x="122.6387" y="169.8555">fillForm(imoNumber, name,</text><text fill="#000000" font-family="sans-serif" font-size="13" lengthAdjust="spacing" textLength="147.1196" x="122.6387" y="185.166">vesselTypeId, operator)</text></g><g class="message" data-participant-1="SPA" data-participant-2="CTRL"><polygon fill="#181818" points="489.6685,230.5293,499.6685,234.5293,489.6685,238.5293,493.6685,234.5293" style="stroke:#181818;stroke-width:1;"/><line style="stroke:#181818;stroke-width:1;" x1="318.7295" x2="495.6685" y1="234.5293" y2="234.5293"/><text fill="#000000" font-family="sans-serif" font-size="13" lengthAdjust="spacing" textLength="114.2261" x="325.7295" y="214.4766">POST /api/vessels</text><text fill="#000000" font-family="sans-serif" font-size="13" lengthAdjust="spacing" textLength="111.8774" x="325.7295" y="229.7871">{CreateVesselDto}</text></g><g class="message" data-participant-1="CTRL" data-participant-2="SVC"><polygon fill="#181818" points="657.0835,259.8398,667.0835,263.8398,657.0835,267.8398,661.0835,263.8398" style="stroke:#181818;stroke-width:1;"/><line style="stroke:#181818;stroke-width:1;" x1="511.6685" x2="663.0835" y1="263.8398" y2="263.8398"/><text fill="#000000" font-family="sans-serif" font-size="13" lengthAdjust="spacing" textLength="91.9331" x="518.6685" y="259.0977">AddAsync(dto)</text></g><g class="message" data-participant-1="SVC" data-participant-2="SVC"><line style="stroke:#181818;stroke-width:1;" x1="679.0835" x2="721.0835" y1="293.1504" y2="293.1504"/><line style="stroke:#181818;stroke-width:1;" x1="721.0835" x2="721.0835" y1="293.1504" y2="306.1504"/><line style="stroke:#181818;stroke-width:1;" x1="680.0835" x2="721.0835" y1="306.1504" y2="306.1504"/><polygon fill="#181818" points="690.0835,302.1504,680.0835,306.1504,690.0835,310.1504,686.0835,306.1504" style="stroke:#181818;stroke-width:1;"/><text fill="#000000" font-family="sans-serif" font-size="13" lengthAdjust="spacing" textLength="228.1855" x="686.0835" y="288.4082">ValidateIMOFormat(dto.imoNumber)</text></g><path d="M20,321.1504 L82.1387,321.1504 L82.1387,328.4609 L72.1387,338.4609 L20,338.4609 L20,321.1504" fill="#EEEEEE" style="stroke:#000000;stroke-width:1.5;"/><rect fill="none" height="955.8477" style="stroke:#000000;stroke-width:1.5;" width="1321.6187" x="20" y="321.1504"/><text fill="#000000" font-family="sans-serif" font-size="13" font-weight="bold" lengthAdjust="spacing" textLength="17.1387" x="35" y="334.7188">alt</text><text fill="#000000" font-family="sans-serif" font-size="11" font-weight="bold" lengthAdjust="spacing" textLength="72.7031" x="97.1387" y="333.7852">[invalid IMO]</text><g class="message" data-participant-1="SVC" data-participant-2="CTRL"><polygon fill="#181818" points="522.6685,371.082,512.6685,375.082,522.6685,379.082,518.6685,375.082" style="stroke:#181818;stroke-width:1;"/><line style="stroke:#181818;stroke-width:1;stroke-dasharray:2,2;" x1="516.6685" x2="668.0835" y1="375.082" y2="375.082"/><text fill="#000000" font-family="sans-serif" font-size="13" lengthAdjust="spacing" textLength="106.1709" x="528.6685" y="355.0293">400 Bad Request</text><text fill="#000000" font-family="sans-serif" font-size="13" lengthAdjust="spacing" textLength="133.415" x="528.6685" y="370.3398">"Invalid IMO number"</text></g><g class="message" data-participant-1="CTRL" data-participant-2="SPA"><polygon fill="#181818" points="329.7295,400.3926,319.7295,404.3926,329.7295,408.3926,325.7295,404.3926" style="stroke:#181818;stroke-width:1;"/><line style="stroke:#181818;stroke-width:1;stroke-dasharray:2,2;" x1="323.7295" x2="500.6685" y1="404.3926" y2="404.3926"/><text fill="#000000" font-family="sans-serif" font-size="13" lengthAdjust="spacing" textLength="67.9961" x="335.7295" y="399.6504">show error</text></g><g class="message" data-participant-1="SPA" data-participant-2="PAO"><polygon fill="#181818" points="126.6387,429.7031,116.6387,433.7031,126.6387,437.7031,122.6387,433.7031" style="stroke:#181818;stroke-width:1;"/><line style="stroke:#181818;stroke-width:1;stroke-dasharray:2,2;" x1="120.6387" x2="307.7295" y1="433.7031" y2="433.7031"/><text fill="#000000" font-family="sans-serif" font-size="13" lengthAdjust="spacing" textLength="53.5615" x="132.6387" y="428.9609">fix input</text></g><line style="stroke:#000000;stroke-width:1;stroke-dasharray:2,2;" x1="20" x2="1341.6187" y1="442.7031" y2="442.7031"/><text fill="#000000" font-family="sans-serif" font-size="11" font-weight="bold" lengthAdjust="spacing" textLength="61.9019" x="25" y="453.3379">[valid IMO]</text><g class="message" data-participant-1="SVC" data-participant-2="REPO"><polygon fill="#181818" points="1066.8901,473.9688,1076.8901,477.9688,1066.8901,481.9688,1070.8901,477.9688" style="stroke:#181818;stroke-width:1;"/><line style="stroke:#181818;stroke-width:1;" x1="679.0835" x2="1072.8901" y1="477.9688" y2="477.9688"/><text fill="#000000" font-family="sans-serif" font-size="13" lengthAdjust="spacing" textLength="220.1748" x="686.0835" y="473.2266">ExistsByImoAsync(dto.imoNumber)</text></g><g class="message" data-participant-1="REPO" data-participant-2="DB"><polygon fill="#181818" points="1242.6987,503.2793,1252.6987,507.2793,1242.6987,511.2793,1246.6987,507.2793" style="stroke:#181818;stroke-width:1;"/><line style="stroke:#181818;stroke-width:1;" x1="1088.8901" x2="1248.6987" y1="507.2793" y2="507.2793"/><text fill="#000000" font-family="sans-serif" font-size="13" lengthAdjust="spacing" textLength="126.4517" x="1095.8901" y="502.5371">SELECT COUNT(*) ...</text></g><g class="message" data-participant-1="DB" data-participant-2="REPO"><polygon fill="#181818" points="1099.8901,532.5898,1089.8901,536.5898,1099.8901,540.5898,1095.8901,536.5898" style="stroke:#181818;stroke-width:1;"/><line style="stroke:#181818;stroke-width:1;stroke-dasharray:2,2;" x1="1093.8901" x2="1258.6987" y1="536.5898" y2="536.5898"/><text fill="#000000" font-family="sans-serif" font-size="13" lengthAdjust="spacing" textLength="8.2202" x="1105.8901" y="531.8477">0</text></g><g class="message" data-participant-1="REPO" data-participant-2="SVC"><polygon fill="#181818" points="690.0835,561.9004,680.0835,565.9004,690.0835,569.9004,686.0835,565.9004" style="stroke:#181818;stroke-width:1;"/><line style="stroke:#181818;stroke-width:1;stroke-dasharray:2,2;" x1="684.0835" x2="1082.8901" y1="565.9004" y2="565.9004"/><text fill="#000000" font-family="sans-serif" font-size="13" lengthAdjust="spacing" textLength="29.5864" x="696.0835" y="561.1582">false</text></g><g class="message" data-participant-1="SVC" data-participant-2="VT_SVC"><polygon fill="#181818" points="919.269,591.2109,929.269,595.2109,919.269,599.2109,923.269,595.2109" style="stroke:#181818;stroke-width:1;"/><line style="stroke:#181818;stroke-width:1;" x1="679.0835" x2="925.269" y1="595.2109" y2="595.2109"/><text fill="#000000" font-family="sans-serif" font-size="13" lengthAdjust="spacing" textLength="173.856" x="686.0835" y="590.4688">GetByIdAsync(vesselTypeId)</text></g><g class="message" data-participant-1="VT_SVC" data-participant-2="DB"><polygon fill="#181818" points="1242.6987,620.5215,1252.6987,624.5215,1242.6987,628.5215,1246.6987,624.5215" style="stroke:#181818;stroke-width:1;"/><line style="stroke:#181818;stroke-width:1;" x1="941.269" x2="1248.6987" y1="624.5215" y2="624.5215"/><text fill="#000000" font-family="sans-serif" font-size="13" lengthAdjust="spacing" textLength="245.9717" x="948.269" y="619.7793">SELECT FROM VesselTypes WHERE Id=?</text></g><g class="message" data-participant-1="DB" data-participant-2="VT_SVC"><polygon fill="#181818" points="952.269,649.832,942.269,653.832,952.269,657.832,948.269,653.832" style="stroke:#181818;stroke-width:1;"/><line style="stroke:#181818;stroke-width:1;stroke-dasharray:2,2;" x1="946.269" x2="1258.6987" y1="653.832" y2="653.832"/><text fill="#000000" font-family="sans-serif" font-size="13" lengthAdjust="spacing" textLength="113.8452" x="958.269" y="649.0898">vesselType or null</text></g><path d="M30,668.832 L92.1387,668.832 L92.1387,676.1426 L82.1387,686.1426 L30,686.1426 L30,668.832" fill="#EEEEEE" style="stroke:#000000;stroke-width:1.5;"/><rect fill="none" height="601.166" style="stroke:#000000;stroke-width:1.5;" width="1301.6187" x="30" y="668.832"/><text fill="#000000" font-family="sans-serif" font-size="13" font-weight="bold" lengthAdjust="spacing" textLength="17.1387" x="45" y="682.4004">alt</text><text fill="#000000" font-family="sans-serif" font-size="11" font-weight="bold" lengthAdjust="spacing" textLength="131.0977" x="107.1387" y="681.4668">[vessel type not found]</text><g class="message" data-participant-1="VT_SVC" data-participant-2="SVC"><polygon fill="#181818" points="690.0835,703.4531,680.0835,707.4531,690.0835,711.4531,686.0835,707.4531" style="stroke:#181818;stroke-width:1;"/><line style="stroke:#181818;stroke-width:1;stroke-dasharray:2,2;" x1="684.0835" x2="930.269" y1="707.4531" y2="707.4531"/><text fill="#000000" font-family="sans-serif" font-size="13" lengthAdjust="spacing" textLength="23.6514" x="696.0835" y="702.7109">null</text></g><g class="message" data-participant-1="SVC" data-participant-2="CTRL"><polygon fill="#181818" points="522.6685,748.0742,512.6685,752.0742,522.6685,756.0742,518.6685,752.0742" style="stroke:#181818;stroke-width:1;"/><line style="stroke:#181818;stroke-width:1;stroke-dasharray:2,2;" x1="516.6685" x2="668.0835" y1="752.0742" y2="752.0742"/><text fill="#000000" font-family="sans-serif" font-size="13" lengthAdjust="spacing" textLength="106.1709" x="528.6685" y="732.0215">400 Bad Request</text><text fill="#000000" font-family="sans-serif" font-size="13" lengthAdjust="spacing" textLength="124.6616" x="528.6685" y="747.332">"Invalid vessel type"</text></g><g class="message" data-participant-1="CTRL" data-participant-2="SPA"><polygon fill="#181818" points="329.7295,777.3848,319.7295,781.3848,329.7295,785.3848,325.7295,781.3848" style="stroke:#181818;stroke-width:1;"/><line style="stroke:#181818;stroke-width:1;stroke-dasharray:2,2;" x1="323.7295" x2="500.6685" y1="781.3848" y2="781.3848"/><text fill="#000000" font-family="sans-serif" font-size="13" lengthAdjust="spacing" textLength="67.9961" x="335.7295" y="776.6426">show error</text></g><g class="message" data-participant-1="SPA" data-participant-2="PAO"><polygon fill="#181818" points="126.6387,806.6953,116.6387,810.6953,126.6387,814.6953,122.6387,810.6953" style="stroke:#181818;stroke-width:1;"/><line style="stroke:#181818;stroke-width:1;stroke-dasharray:2,2;" x1="120.6387" x2="307.7295" y1="810.6953" y2="810.6953"/><text fill="#000000" font-family="sans-serif" font-size="13" lengthAdjust="spacing" textLength="109.897" x="132.6387" y="805.9531">correct form data</text></g><line style="stroke:#000000;stroke-width:1;stroke-dasharray:2,2;" x1="30" x2="1331.6187" y1="819.6953" y2="819.6953"/><text fill="#000000" font-family="sans-serif" font-size="11" font-weight="bold" lengthAdjust="spacing" textLength="102.8779" x="35" y="830.3301">[vessel type valid]</text><g class="message" data-participant-1="VT_SVC" data-participant-2="SVC"><polygon fill="#181818" points="690.0835,850.9609,680.0835,854.9609,690.0835,858.9609,686.0835,854.9609" style="stroke:#181818;stroke-width:1;"/><line style="stroke:#181818;stroke-width:1;stroke-dasharray:2,2;" x1="684.0835" x2="935.269" y1="854.9609" y2="854.9609"/><text fill="#000000" font-family="sans-serif" font-size="13" lengthAdjust="spacing" textLength="91.2476" x="696.0835" y="850.2188">vesselTypeDto</text></g><g class="message" data-participant-1="SVC" data-participant-2="SVC"><line style="stroke:#181818;stroke-width:1;" x1="679.0835" x2="721.0835" y1="884.2715" y2="884.2715"/><line style="stroke:#181818;stroke-width:1;" x1="721.0835" x2="721.0835" y1="884.2715" y2="897.2715"/><line style="stroke:#181818;stroke-width:1;" x1="680.0835" x2="721.0835" y1="897.2715" y2="897.2715"/><polygon fill="#181818" points="690.0835,893.2715,680.0835,897.2715,690.0835,901.2715,686.0835,897.2715" style="stroke:#181818;stroke-width:1;"/><text fill="#000000" font-family="sans-serif" font-size="13" lengthAdjust="spacing" textLength="98.9219" x="686.0835" y="879.5293">new Vessel(dto)</text></g><g class="message" data-participant-1="SVC" data-participant-2="REPO"><polygon fill="#181818" points="1066.8901,922.582,1076.8901,926.582,1066.8901,930.582,1070.8901,926.582" style="stroke:#181818;stroke-width:1;"/><line style="stroke:#181818;stroke-width:1;" x1="679.0835" x2="1072.8901" y1="926.582" y2="926.582"/><text fill="#000000" font-family="sans-serif" font-size="13" lengthAdjust="spacing" textLength="106.4883" x="686.0835" y="921.8398">AddAsync(entity)</text></g><g class="message" data-participant-1="REPO" data-participant-2="DB"><polygon fill="#181818" points="1242.6987,951.8926,1252.6987,955.8926,1242.6987,959.8926,1246.6987,955.8926" style="stroke:#181818;stroke-width:1;"/><line style="stroke:#181818;stroke-width:1;" x1="1088.8901" x2="1248.6987" y1="955.8926" y2="955.8926"/><text fill="#000000" font-family="sans-serif" font-size="13" lengthAdjust="spacing" textLength="146.8086" x="1095.8901" y="951.1504">INSERT INTO Vessels ...</text></g><g class="message" data-participant-1="DB" data-participant-2="REPO"><polygon fill="#181818" points="1099.8901,981.2031,1089.8901,985.2031,1099.8901,989.2031,1095.8901,985.2031" style="stroke:#181818;stroke-width:1;"/><line style="stroke:#181818;stroke-width:1;stroke-dasharray:2,2;" x1="1093.8901" x2="1258.6987" y1="985.2031" y2="985.2031"/><text fill="#000000" font-family="sans-serif" font-size="13" lengthAdjust="spacing" textLength="71.6841" x="1105.8901" y="980.4609">inserted(Id)</text></g><g class="message" data-participant-1="REPO" data-participant-2="SVC"><polygon fill="#181818" points="690.0835,1010.5137,680.0835,1014.5137,690.0835,1018.5137,686.0835,1014.5137" style="stroke:#181818;stroke-width:1;"/><line style="stroke:#181818;stroke-width:1;stroke-dasharray:2,2;" x1="684.0835" x2="1082.8901" y1="1014.5137" y2="1014.5137"/><text fill="#000000" font-family="sans-serif" font-size="13" lengthAdjust="spacing" textLength="35.585" x="696.0835" y="1009.7715">entity</text></g><g class="message" data-participant-1="SVC" data-participant-2="REPO"><polygon fill="#181818" points="1066.8901,1039.8242,1076.8901,1043.8242,1066.8901,1047.8242,1070.8901,1043.8242" style="stroke:#181818;stroke-width:1;"/><line style="stroke:#181818;stroke-width:1;" x1="679.0835" x2="1072.8901" y1="1043.8242" y2="1043.8242"/><text fill="#000000" font-family="sans-serif" font-size="13" lengthAdjust="spacing" textLength="128.0068" x="686.0835" y="1039.082">SaveChangesAsync()</text></g><g class="message" data-participant-1="REPO" data-participant-2="DB"><polygon fill="#181818" points="1242.6987,1069.1348,1252.6987,1073.1348,1242.6987,1077.1348,1246.6987,1073.1348" style="stroke:#181818;stroke-width:1;"/><line style="stroke:#181818;stroke-width:1;" x1="1088.8901" x2="1248.6987" y1="1073.1348" y2="1073.1348"/><text fill="#000000" font-family="sans-serif" font-size="13" lengthAdjust="spacing" textLength="90.8921" x="1095.8901" y="1068.3926">SaveChanges()</text></g><g class="message" data-participant-1="DB" data-participant-2="REPO"><polygon fill="#181818" points="1099.8901,1098.4453,1089.8901,1102.4453,1099.8901,1106.4453,1095.8901,1102.4453" style="stroke:#181818;stroke-width:1;"/><line style="stroke:#181818;stroke-width:1;stroke-dasharray:2,2;" x1="1093.8901" x2="1258.6987" y1="1102.4453" y2="1102.4453"/><text fill="#000000" font-family="sans-serif" font-size="13" lengthAdjust="spacing" textLength="48.5088" x="1105.8901" y="1097.7031">success</text></g><g class="message" data-participant-1="REPO" data-participant-2="SVC"><polygon fill="#181818" points="690.0835,1127.7559,680.0835,1131.7559,690.0835,1135.7559,686.0835,1131.7559" style="stroke:#181818;stroke-width:1;"/><line style="stroke:#181818;stroke-width:1;stroke-dasharray:2,2;" x1="684.0835" x2="1082.8901" y1="1131.7559" y2="1131.7559"/><text fill="#000000" font-family="sans-serif" font-size="13" lengthAdjust="spacing" textLength="48.5088" x="696.0835" y="1127.0137">success</text></g><g class="message" data-participant-1="SVC" data-participant-2="SVC"><line style="stroke:#181818;stroke-width:1;" x1="679.0835" x2="721.0835" y1="1161.0664" y2="1161.0664"/><line style="stroke:#181818;stroke-width:1;" x1="721.0835" x2="721.0835" y1="1161.0664" y2="1174.0664"/><line style="stroke:#181818;stroke-width:1;" x1="680.0835" x2="721.0835" y1="1174.0664" y2="1174.0664"/><polygon fill="#181818" points="690.0835,1170.0664,680.0835,1174.0664,690.0835,1178.0664,686.0835,1174.0664" style="stroke:#181818;stroke-width:1;"/><text fill="#000000" font-family="sans-serif" font-size="13" lengthAdjust="spacing" textLength="82.8306" x="686.0835" y="1156.3242">ToDto(entity)</text></g><g class="message" data-participant-1="SVC" data-participant-2="CTRL"><polygon fill="#181818" points="522.6685,1199.377,512.6685,1203.377,522.6685,1207.377,518.6685,1203.377" style="stroke:#181818;stroke-width:1;"/><line style="stroke:#181818;stroke-width:1;stroke-dasharray:2,2;" x1="516.6685" x2="673.0835" y1="1203.377" y2="1203.377"/><text fill="#000000" font-family="sans-serif" font-size="13" lengthAdjust="spacing" textLength="62.5815" x="528.6685" y="1198.6348">VesselDto</text></g><g class="message" data-participant-1="CTRL" data-participant-2="SPA"><polygon fill="#181818" points="329.7295,1228.6875,319.7295,1232.6875,329.7295,1236.6875,325.7295,1232.6875" style="stroke:#181818;stroke-width:1;"/><line style="stroke:#181818;stroke-width:1;stroke-dasharray:2,2;" x1="323.7295" x2="505.6685" y1="1232.6875" y2="1232.6875"/><text fill="#000000" font-family="sans-serif" font-size="13" lengthAdjust="spacing" textLength="158.939" x="335.7295" y="1227.9453">201 Created + VesselDto</text></g><g class="message" data-participant-1="SPA" data-participant-2="PAO"><polygon fill="#181818" points="126.6387,1257.998,116.6387,1261.998,126.6387,1265.998,122.6387,1261.998" style="stroke:#181818;stroke-width:1;"/><line style="stroke:#181818;stroke-width:1;stroke-dasharray:2,2;" x1="120.6387" x2="312.7295" y1="1261.998" y2="1261.998"/><text fill="#000000" font-family="sans-serif" font-size="13" lengthAdjust="spacing" textLength="107.7832" x="132.6387" y="1257.2559">success message</text></g><!--SRC=[bLLDRzf04BtpAqPS86r2QDLJfAO2uxH8QOp0fPT8rTPUO5LxrzrTaw2g_xsp7nZRG9GUCFBip9jvCs_MckcCGY0fqHIML2cQmPmcGgPm1JCf4ZJ1aj6dJeSaMaZepeJKC2hrHaYcTn2jLYoXiWj4mMmKTGeYDKjOGRY6xirYDh8d-DywSRbK8BYM8iiyGX3FxqywBgZSOXu7jWnE-iIxWjRzbl6FSwvpMWZ5aC_EUix3MRjoG_DUh9b2cvgChTjatEcifIYBPiCwO9Z3rQsX2JUmObbs9sJUPxbuAFEVL5u29pczVEJRgj1fUWcYe99W4HU8WDrbMuDfMeNl1WeHJKCGSXOjOhWc1Rjs2EgH_t4rk18cMlojWzW-ei66cyAM0QACqdIaTZpffreqSsARyBq7IvAnr5YcNoCm78Y6VhAXoIzLvYR405LuUszqThu6U52njYao3OnlZQF1H8l7E73xC1p2cAGekzybLVgHTwU70E0Mgci37PkgpseZde1AAQI3DHt3GpCBCuHdJ5oK6i-mNnIQDVGWvAgK54hEC6spjbih20G9dt7-QhoRvg9gN9DVhObMHCPYWn5aCaQ8HNWV1Z44qRU7kF_c0WQ3GJCCHMNUqVdga7XeRIbjUpdeQW0hWipQhhOEJxAQfvCDQ5HUdQTR4KJwJ3NIzFAegxH5qk-KiVdO5j6xUVGL3lkeuFkNS1x2DFtuwINULI67t82t3I-px4Gh719AgqOBkD2m4YLFxUcXlgfR5TX_IB2MeEjZNrPXMuTubKgQcCfa3ZWAOhsS8cl5sspd2Z_q1FVSEzKQucVY3thxouboZHTqdN3L2FhaH-HkWYfoGRQq6U3rMDqS3lJ2EnrhlwN-wSCYdCVu5qS-ewesu5WBxIrWN56fQThVo_3KIXmjHOFtoRreipEqWmtXQweSorVpgqKU1vrXfSh4V5LVJ-XiG9rH3yMh2e4TWqaSdPfwB50zhG6szg3wc1pdgYcijG3lX- -yv59u-nB4_gDql2IU8UJu86jw8Zj-5EtUsEqsJ_pz0m00]--></g></svg>