<svg xmlns="http://www.w3.org/2000/svg" xmlns:xlink="http://www.w3.org/1999/xlink" contentStyleType="text/css" data-diagram-type="SEQUENCE" height="586px" preserveAspectRatio="none" style="width:1444px;height:586px;background:#FFFFFF;" version="1.1" viewBox="0 0 1444 586" width="1444px" zoomAndPan="magnify"><title>Search/List Vessels - Process View</title><defs/><g><text fill="#000000" font-family="sans-serif" font-size="14" font-weight="bold" lengthAdjust="spacing" textLength="253.5244" x="597.2075" y="28.5352">Search/List Vessels - Process View</text><g><title>.SPA</title><rect fill="#FFFFFF" height="306.1055" style="stroke:#181818;stroke-width:1;" width="10" x="382.9985" y="174.5977"/></g><g><title>.VesselsController</title><rect fill="#FFFFFF" height="247.4844" style="stroke:#181818;stroke-width:1;" width="10" x="584.147" y="203.9082"/></g><g><title>.VesselService</title><rect fill="#FFFFFF" height="188.8633" style="stroke:#181818;stroke-width:1;" width="10" x="807.7915" y="233.2188"/></g><g><title>.VesselRepository</title><rect fill="#FFFFFF" height="87.9316" style="stroke:#181818;stroke-width:1;" width="10" x="1031.436" y="262.5293"/></g><g><title>.PortLogisticsDB</title><rect fill="#FFFFFF" height="29.3105" style="stroke:#181818;stroke-width:1;" width="10" x="1362.0195" y="291.8398"/></g><rect fill="none" height="352.7266" style="stroke:#000000;stroke-width:1.5;" width="1428.9395" x="10" y="135.9766"/><g><title>Port Authority Officer</title><rect fill="#000000" fill-opacity="0.00000" height="386.7266" width="8" x="91.6387" y="118.9766"/><line style="stroke:#181818;stroke-width:0.5;stroke-dasharray:5,5;" x1="95" x2="95" y1="118.9766" y2="505.7031"/></g><g><title>.SPA</title><rect fill="#000000" fill-opacity="0.00000" height="386.7266" width="8" x="383.9985" y="118.9766"/><line style="stroke:#181818;stroke-width:0.5;stroke-dasharray:5,5;" x1="387.3149" x2="387.3149" y1="118.9766" y2="505.7031"/></g><g><title>.VesselsController</title><rect fill="#000000" fill-opacity="0.00000" height="386.7266" width="8" x="585.147" y="118.9766"/><line style="stroke:#181818;stroke-width:0.5;stroke-dasharray:5,5;" x1="588.7466" x2="588.7466" y1="118.9766" y2="505.7031"/></g><g><title>.VesselService</title><rect fill="#000000" fill-opacity="0.00000" height="386.7266" width="8" x="808.7915" y="118.9766"/><line style="stroke:#181818;stroke-width:0.5;stroke-dasharray:5,5;" x1="812.374" x2="812.374" y1="118.9766" y2="505.7031"/></g><g><title>.VesselRepository</title><rect fill="#000000" fill-opacity="0.00000" height="386.7266" width="8" x="1032.436" y="118.9766"/><line style="stroke:#181818;stroke-width:0.5;stroke-dasharray:5,5;" x1="1035.6216" x2="1035.6216" y1="118.9766" y2="505.7031"/></g><g><title>.PortLogisticsDB</title><rect fill="#000000" fill-opacity="0.00000" height="386.7266" width="8" x="1363.0195" y="118.9766"/><line style="stroke:#181818;stroke-width:0.5;stroke-dasharray:5,5;" x1="1366.0996" x2="1366.0996" y1="118.9766" y2="505.7031"/></g><g class="participant participant-head" data-participant="PAO"><text fill="#000000" font-family="sans-serif" font-size="14" lengthAdjust="spacing" textLength="145.2773" x="20" y="116.0234">Port Authority Officer</text><ellipse cx="95.6387" cy="50.9883" fill="#E2E2F0" rx="8" ry="8" style="stroke:#181818;stroke-width:0.5;"/><path d="M95.6387,58.9883 L95.6387,85.9883 M82.6387,66.9883 L108.6387,66.9883 M95.6387,85.9883 L82.6387,100.9883 M95.6387,85.9883 L108.6387,100.9883" fill="none" style="stroke:#181818;stroke-width:0.5;"/></g><g class="participant participant-tail" data-participant="PAO"><text fill="#000000" font-family="sans-serif" font-size="14" lengthAdjust="spacing" textLength="145.2773" x="20" y="518.2383">Port Authority Officer</text><ellipse cx="95.6387" cy="529.6914" fill="#E2E2F0" rx="8" ry="8" style="stroke:#181818;stroke-width:0.5;"/><path d="M95.6387,537.6914 L95.6387,564.6914 M82.6387,545.6914 L108.6387,545.6914 M95.6387,564.6914 L82.6387,579.6914 M95.6387,564.6914 L108.6387,579.6914" fill="none" style="stroke:#181818;stroke-width:0.5;"/></g><g class="participant participant-head" data-participant="SPA"><rect fill="#E2E2F0" height="30.4883" rx="2.5" ry="2.5" style="stroke:#181818;stroke-width:0.5;" width="43.3672" x="366.3149" y="87.4883"/><text fill="#000000" font-family="sans-serif" font-size="14" lengthAdjust="spacing" textLength="29.3672" x="373.3149" y="108.0234">:SPA</text></g><g class="participant participant-tail" data-participant="SPA"><rect fill="#E2E2F0" height="30.4883" rx="2.5" ry="2.5" style="stroke:#181818;stroke-width:0.5;" width="43.3672" x="366.3149" y="504.7031"/><text fill="#000000" font-family="sans-serif" font-size="14" lengthAdjust="spacing" textLength="29.3672" x="373.3149" y="525.2383">:SPA</text></g><g class="participant participant-head" data-participant="CTRL"><rect fill="#E2E2F0" height="30.4883" rx="2.5" ry="2.5" style="stroke:#181818;stroke-width:0.5;" width="136.8008" x="520.7466" y="87.4883"/><text fill="#000000" font-family="sans-serif" font-size="14" lengthAdjust="spacing" textLength="122.8008" x="527.7466" y="108.0234">:VesselsController</text></g><g class="participant participant-tail" data-participant="CTRL"><rect fill="#E2E2F0" height="30.4883" rx="2.5" ry="2.5" style="stroke:#181818;stroke-width:0.5;" width="136.8008" x="520.7466" y="504.7031"/><text fill="#000000" font-family="sans-serif" font-size="14" lengthAdjust="spacing" textLength="122.8008" x="527.7466" y="525.2383">:VesselsController</text></g><g class="participant participant-head" data-participant="SVC"><rect fill="#E2E2F0" height="30.4883" rx="2.5" ry="2.5" style="stroke:#181818;stroke-width:0.5;" width="108.835" x="758.374" y="87.4883"/><text fill="#000000" font-family="sans-serif" font-size="14" lengthAdjust="spacing" textLength="94.835" x="765.374" y="108.0234">:VesselService</text></g><g class="participant participant-tail" data-participant="SVC"><rect fill="#E2E2F0" height="30.4883" rx="2.5" ry="2.5" style="stroke:#181818;stroke-width:0.5;" width="108.835" x="758.374" y="504.7031"/><text fill="#000000" font-family="sans-serif" font-size="14" lengthAdjust="spacing" textLength="94.835" x="765.374" y="525.2383">:VesselService</text></g><g class="participant participant-head" data-participant="REPO"><rect fill="#E2E2F0" height="30.4883" rx="2.5" ry="2.5" style="stroke:#181818;stroke-width:0.5;" width="133.6289" x="969.6216" y="87.4883"/><text fill="#000000" font-family="sans-serif" font-size="14" lengthAdjust="spacing" textLength="119.6289" x="976.6216" y="108.0234">:VesselRepository</text></g><g class="participant participant-tail" data-participant="REPO"><rect fill="#E2E2F0" height="30.4883" rx="2.5" ry="2.5" style="stroke:#181818;stroke-width:0.5;" width="133.6289" x="969.6216" y="504.7031"/><text fill="#000000" font-family="sans-serif" font-size="14" lengthAdjust="spacing" textLength="119.6289" x="976.6216" y="525.2383">:VesselRepository</text></g><g class="participant participant-head" data-participant="DB"><rect fill="#E2E2F0" height="30.4883" rx="2.5" ry="2.5" style="stroke:#181818;stroke-width:0.5;" width="123.8398" x="1305.0996" y="87.4883"/><text fill="#000000" font-family="sans-serif" font-size="14" lengthAdjust="spacing" textLength="109.8398" x="1312.0996" y="108.0234">:PortLogisticsDB</text></g><g class="participant participant-tail" data-participant="DB"><rect fill="#E2E2F0" height="30.4883" rx="2.5" ry="2.5" style="stroke:#181818;stroke-width:0.5;" width="123.8398" x="1305.0996" y="504.7031"/><text fill="#000000" font-family="sans-serif" font-size="14" lengthAdjust="spacing" textLength="109.8398" x="1312.0996" y="525.2383">:PortLogisticsDB</text></g><g><title>.SPA</title><rect fill="#FFFFFF" height="306.1055" style="stroke:#181818;stroke-width:1;" width="10" x="382.9985" y="174.5977"/></g><g><title>.VesselsController</title><rect fill="#FFFFFF" height="247.4844" style="stroke:#181818;stroke-width:1;" width="10" x="584.147" y="203.9082"/></g><g><title>.VesselService</title><rect fill="#FFFFFF" height="188.8633" style="stroke:#181818;stroke-width:1;" width="10" x="807.7915" y="233.2188"/></g><g><title>.VesselRepository</title><rect fill="#FFFFFF" height="87.9316" style="stroke:#181818;stroke-width:1;" width="10" x="1031.436" y="262.5293"/></g><g><title>.PortLogisticsDB</title><rect fill="#FFFFFF" height="29.3105" style="stroke:#181818;stroke-width:1;" width="10" x="1362.0195" y="291.8398"/></g><path d="M10,135.9766 L153.9346,135.9766 L153.9346,143.2871 L143.9346,153.2871 L10,153.2871 L10,135.9766" fill="#EEEEEE" style="stroke:#000000;stroke-width:1.5;"/><rect fill="none" height="352.7266" style="stroke:#000000;stroke-width:1.5;" width="1428.9395" x="10" y="135.9766"/><text fill="#000000" font-family="sans-serif" font-size="13" font-weight="bold" lengthAdjust="spacing" textLength="98.9346" x="25" y="149.5449">Search Vessels</text><g class="message" data-participant-1="PAO" data-participant-2="SPA"><polygon fill="#181818" points="370.9985,170.5977,380.9985,174.5977,370.9985,178.5977,374.9985,174.5977" style="stroke:#181818;stroke-width:1;"/><line style="stroke:#181818;stroke-width:1;" x1="95.6387" x2="376.9985" y1="174.5977" y2="174.5977"/><text fill="#000000" font-family="sans-serif" font-size="13" lengthAdjust="spacing" textLength="268.3599" x="102.6387" y="169.8555">filter(imo?,name?,operator?,page,size,sort)</text></g><g class="message" data-participant-1="SPA" data-participant-2="CTRL"><polygon fill="#181818" points="572.147,199.9082,582.147,203.9082,572.147,207.9082,576.147,203.9082" style="stroke:#181818;stroke-width:1;"/><line style="stroke:#181818;stroke-width:1;" x1="392.9985" x2="578.147" y1="203.9082" y2="203.9082"/><text fill="#000000" font-family="sans-serif" font-size="13" lengthAdjust="spacing" textLength="172.1484" x="399.9985" y="199.166">GET /api/vessels?...query...</text></g><g class="message" data-participant-1="CTRL" data-participant-2="SVC"><polygon fill="#181818" points="795.7915,229.2188,805.7915,233.2188,795.7915,237.2188,799.7915,233.2188" style="stroke:#181818;stroke-width:1;"/><line style="stroke:#181818;stroke-width:1;" x1="594.147" x2="801.7915" y1="233.2188" y2="233.2188"/><text fill="#000000" font-family="sans-serif" font-size="13" lengthAdjust="spacing" textLength="194.6445" x="601.147" y="228.4766">SearchAsync(filters,pagination)</text></g><g class="message" data-participant-1="SVC" data-participant-2="REPO"><polygon fill="#181818" points="1019.436,258.5293,1029.436,262.5293,1019.436,266.5293,1023.436,262.5293" style="stroke:#181818;stroke-width:1;"/><line style="stroke:#181818;stroke-width:1;" x1="817.7915" x2="1025.436" y1="262.5293" y2="262.5293"/><text fill="#000000" font-family="sans-serif" font-size="13" lengthAdjust="spacing" textLength="194.6445" x="824.7915" y="257.7871">SearchAsync(filters,pagination)</text></g><g class="message" data-participant-1="REPO" data-participant-2="DB"><polygon fill="#181818" points="1350.0195,287.8398,1360.0195,291.8398,1350.0195,295.8398,1354.0195,291.8398" style="stroke:#181818;stroke-width:1;"/><line style="stroke:#181818;stroke-width:1;" x1="1041.436" x2="1356.0195" y1="291.8398" y2="291.8398"/><text fill="#000000" font-family="sans-serif" font-size="13" lengthAdjust="spacing" textLength="301.5835" x="1048.436" y="287.0977">SELECT * FROM Vessels WHERE ... LIMIT/OFFSET</text></g><g class="message" data-participant-1="DB" data-participant-2="REPO"><polygon fill="#181818" points="1052.436,317.1504,1042.436,321.1504,1052.436,325.1504,1048.436,321.1504" style="stroke:#181818;stroke-width:1;"/><line style="stroke:#181818;stroke-width:1;stroke-dasharray:2,2;" x1="1046.436" x2="1366.0195" y1="321.1504" y2="321.1504"/><text fill="#000000" font-family="sans-serif" font-size="13" lengthAdjust="spacing" textLength="98.5601" x="1058.436" y="316.4082">Paged&lt;Vessel&gt;</text></g><g class="message" data-participant-1="REPO" data-participant-2="SVC"><polygon fill="#181818" points="828.7915,346.4609,818.7915,350.4609,828.7915,354.4609,824.7915,350.4609" style="stroke:#181818;stroke-width:1;"/><line style="stroke:#181818;stroke-width:1;stroke-dasharray:2,2;" x1="822.7915" x2="1035.436" y1="350.4609" y2="350.4609"/><text fill="#000000" font-family="sans-serif" font-size="13" lengthAdjust="spacing" textLength="42.5039" x="834.7915" y="345.7188">results</text></g><g class="message" data-participant-1="SVC" data-participant-2="SVC"><line style="stroke:#181818;stroke-width:1;" x1="817.7915" x2="859.7915" y1="379.7715" y2="379.7715"/><line style="stroke:#181818;stroke-width:1;" x1="859.7915" x2="859.7915" y1="379.7715" y2="392.7715"/><line style="stroke:#181818;stroke-width:1;" x1="818.7915" x2="859.7915" y1="392.7715" y2="392.7715"/><polygon fill="#181818" points="828.7915,388.7715,818.7915,392.7715,828.7915,396.7715,824.7915,392.7715" style="stroke:#181818;stroke-width:1;"/><text fill="#000000" font-family="sans-serif" font-size="13" lengthAdjust="spacing" textLength="92.8091" x="824.7915" y="375.0293">MapToDto(list)</text></g><g class="message" data-participant-1="SVC" data-participant-2="CTRL"><polygon fill="#181818" points="605.147,418.082,595.147,422.082,605.147,426.082,601.147,422.082" style="stroke:#181818;stroke-width:1;"/><line style="stroke:#181818;stroke-width:1;stroke-dasharray:2,2;" x1="599.147" x2="811.7915" y1="422.082" y2="422.082"/><text fill="#000000" font-family="sans-serif" font-size="13" lengthAdjust="spacing" textLength="112.9629" x="611.147" y="417.3398">Page&lt;VesselDto&gt;</text></g><g class="message" data-participant-1="CTRL" data-participant-2="SPA"><polygon fill="#181818" points="403.9985,447.3926,393.9985,451.3926,403.9985,455.3926,399.9985,451.3926" style="stroke:#181818;stroke-width:1;"/><line style="stroke:#181818;stroke-width:1;stroke-dasharray:2,2;" x1="397.9985" x2="588.147" y1="451.3926" y2="451.3926"/><text fill="#000000" font-family="sans-serif" font-size="13" lengthAdjust="spacing" textLength="143.2476" x="409.9985" y="446.6504">200 OK + page results</text></g><g class="message" data-participant-1="SPA" data-participant-2="PAO"><polygon fill="#181818" points="106.6387,476.7031,96.6387,480.7031,106.6387,484.7031,102.6387,480.7031" style="stroke:#181818;stroke-width:1;"/><line style="stroke:#181818;stroke-width:1;stroke-dasharray:2,2;" x1="100.6387" x2="386.9985" y1="480.7031" y2="480.7031"/><text fill="#000000" font-family="sans-serif" font-size="13" lengthAdjust="spacing" textLength="134.7227" x="112.6387" y="475.9609">display table + filters</text></g><!--SRC=[bLDBR-8m4BxdLumuqIsFQezeLGGXTAiDIXGYzkmD0nqfZLtRiCh- -XtR0GhYqakiPEPxp3UE9LiZh57ewcsSah6mGMEmDZ24NCkANs13-3UAH6MbXbukjONPmRv9JRQ5RBUZ2dKFX85ybaLAQ4iLAT5Ow4tM-SnN-BofT2gnRAoMTTqnn6MHtcrSepwoJY3Rn7Tx2bJI49jiVLkHvBTsdFTKxdbAginYxjiMyoZQQtbGNGYd-IDmyy3msPc72UoejgZxz2wdWqQyutGW5Mh1SjE14diS6Fh73rPuO2Y7HKTXqK_Exuw3gTnypFMIb30MYiR7e3KTZKOV1zGjdv_1FWx-u67EoIPcTF0vCsrJzOChunnG8op9vbgTetBgZ6EuI-HhU9yX120JBEOEdgH9NC8tM1RPwdnRVlzCYWJOFwIlgzTod2sNwwJypCL1WsCONfpadDlsHw1uvkeMhxk3xdbmZUPGMtFTw2rUPWoTAw5AkR2oN_Ek7qxLomASSAVBNJVINMWXzFF-lpyzGVOB7i4j-xwLqxhyiXdexiy4jcHKBLgmuW__QO_THRg1kck2pVO_]--></g></svg>