<svg xmlns="http://www.w3.org/2000/svg" xmlns:xlink="http://www.w3.org/1999/xlink" contentStyleType="text/css" data-diagram-type="SEQUENCE" height="1587px" preserveAspectRatio="none" style="width:1400px;height:1587px;background:#FFFFFF;" version="1.1" viewBox="0 0 1400 1587" width="1400px" zoomAndPan="magnify"><title>Update Vessel Record - Process View</title><defs/><g><text fill="#000000" font-family="sans-serif" font-size="14" font-weight="bold" lengthAdjust="spacing" textLength="269.4453" x="566.8928" y="28.5352">Update Vessel Record - Process View</text><g><title>.SPA</title><rect fill="#FFFFFF" height="1285.9082" style="stroke:#181818;stroke-width:1;" width="10" x="281.3145" y="174.5977"/></g><g><title>.VesselsController</title><rect fill="#FFFFFF" height="1211.9766" style="stroke:#181818;stroke-width:1;" width="10" x="462.1694" y="219.2188"/></g><g><title>.VesselService</title><rect fill="#FFFFFF" height="1153.3555" style="stroke:#181818;stroke-width:1;" width="10" x="622.5913" y="248.5293"/></g><g><title>.VesselTypeService</title><rect fill="#FFFFFF" height="244.4395" style="stroke:#181818;stroke-width:1;" width="10" x="884.7769" y="809.0293"/></g><g><title>.VesselRepository</title><rect fill="#FFFFFF" height="87.9316" style="stroke:#181818;stroke-width:1;" width="10" x="1032.3979" y="277.8398"/></g><g><title>.VesselRepository</title><rect fill="#FFFFFF" height="87.9316" style="stroke:#181818;stroke-width:1;" width="10" x="1032.3979" y="691.7871"/></g><g><title>.VesselRepository</title><rect fill="#FFFFFF" height="87.9316" style="stroke:#181818;stroke-width:1;" width="10" x="1032.3979" y="1125.0898"/></g><g><title>.VesselRepository</title><rect fill="#FFFFFF" height="87.9316" style="stroke:#181818;stroke-width:1;" width="10" x="1032.3979" y="1242.332"/></g><g><title>.PortLogisticsDB</title><rect fill="#FFFFFF" height="29.3105" style="stroke:#181818;stroke-width:1;" width="10" x="1287.311" y="307.1504"/></g><g><title>.PortLogisticsDB</title><rect fill="#FFFFFF" height="29.3105" style="stroke:#181818;stroke-width:1;" width="10" x="1287.311" y="721.0977"/></g><g><title>.PortLogisticsDB</title><rect fill="#FFFFFF" height="29.3105" style="stroke:#181818;stroke-width:1;" width="10" x="1287.311" y="838.3398"/></g><g><title>.PortLogisticsDB</title><rect fill="#FFFFFF" height="29.3105" style="stroke:#181818;stroke-width:1;" width="10" x="1287.311" y="1154.4004"/></g><g><title>.PortLogisticsDB</title><rect fill="#FFFFFF" height="29.3105" style="stroke:#181818;stroke-width:1;" width="10" x="1287.311" y="1271.6426"/></g><rect fill="none" height="1353.5293" style="stroke:#000000;stroke-width:1.5;" width="1384.231" x="10" y="135.9766"/><rect fill="none" height="1101.7344" style="stroke:#000000;stroke-width:1.5;" width="1364.231" x="20" y="380.7715"/><rect fill="none" height="925.2266" style="stroke:#000000;stroke-width:1.5;" width="1344.231" x="30" y="550.2793"/><rect fill="none" height="585.8555" style="stroke:#000000;stroke-width:1.5;" width="1324.231" x="40" y="882.6504"/><g><title>Port Authority Officer</title><rect fill="#000000" fill-opacity="0.00000" height="1387.5293" width="8" x="121.6387" y="118.9766"/><line style="stroke:#181818;stroke-width:0.5;stroke-dasharray:5,5;" x1="125" x2="125" y1="118.9766" y2="1506.5059"/></g><g><title>.SPA</title><rect fill="#000000" fill-opacity="0.00000" height="1387.5293" width="8" x="282.3145" y="118.9766"/><line style="stroke:#181818;stroke-width:0.5;stroke-dasharray:5,5;" x1="285.6309" x2="285.6309" y1="118.9766" y2="1506.5059"/></g><g><title>.VesselsController</title><rect fill="#000000" fill-opacity="0.00000" height="1387.5293" width="8" x="463.1694" y="118.9766"/><line style="stroke:#181818;stroke-width:0.5;stroke-dasharray:5,5;" x1="466.769" x2="466.769" y1="118.9766" y2="1506.5059"/></g><g><title>.VesselService</title><rect fill="#000000" fill-opacity="0.00000" height="1387.5293" width="8" x="623.5913" y="118.9766"/><line style="stroke:#181818;stroke-width:0.5;stroke-dasharray:5,5;" x1="627.1738" x2="627.1738" y1="118.9766" y2="1506.5059"/></g><g><title>.VesselTypeService</title><rect fill="#000000" fill-opacity="0.00000" height="1387.5293" width="8" x="885.7769" y="118.9766"/><line style="stroke:#181818;stroke-width:0.5;stroke-dasharray:5,5;" x1="888.9702" x2="888.9702" y1="118.9766" y2="1506.5059"/></g><g><title>.VesselRepository</title><rect fill="#000000" fill-opacity="0.00000" height="1387.5293" width="8" x="1033.3979" y="118.9766"/><line style="stroke:#181818;stroke-width:0.5;stroke-dasharray:5,5;" x1="1036.5835" x2="1036.5835" y1="118.9766" y2="1506.5059"/></g><g><title>.PortLogisticsDB</title><rect fill="#000000" fill-opacity="0.00000" height="1387.5293" width="8" x="1288.311" y="118.9766"/><line style="stroke:#181818;stroke-width:0.5;stroke-dasharray:5,5;" x1="1291.3911" x2="1291.3911" y1="118.9766" y2="1506.5059"/></g><g class="participant participant-head" data-participant="PAO"><text fill="#000000" font-family="sans-serif" font-size="14" lengthAdjust="spacing" textLength="145.2773" x="50" y="116.0234">Port Authority Officer</text><ellipse cx="125.6387" cy="50.9883" fill="#E2E2F0" rx="8" ry="8" style="stroke:#181818;stroke-width:0.5;"/><path d="M125.6387,58.9883 L125.6387,85.9883 M112.6387,66.9883 L138.6387,66.9883 M125.6387,85.9883 L112.6387,100.9883 M125.6387,85.9883 L138.6387,100.9883" fill="none" style="stroke:#181818;stroke-width:0.5;"/></g><g class="participant participant-tail" data-participant="PAO"><text fill="#000000" font-family="sans-serif" font-size="14" lengthAdjust="spacing" textLength="145.2773" x="50" y="1519.041">Port Authority Officer</text><ellipse cx="125.6387" cy="1530.4941" fill="#E2E2F0" rx="8" ry="8" style="stroke:#181818;stroke-width:0.5;"/><path d="M125.6387,1538.4941 L125.6387,1565.4941 M112.6387,1546.4941 L138.6387,1546.4941 M125.6387,1565.4941 L112.6387,1580.4941 M125.6387,1565.4941 L138.6387,1580.4941" fill="none" style="stroke:#181818;stroke-width:0.5;"/></g><g class="participant participant-head" data-participant="SPA"><rect fill="#E2E2F0" height="30.4883" rx="2.5" ry="2.5" style="stroke:#181818;stroke-width:0.5;" width="43.3672" x="264.6309" y="87.4883"/><text fill="#000000" font-family="sans-serif" font-size="14" lengthAdjust="spacing" textLength="29.3672" x="271.6309" y="108.0234">:SPA</text></g><g class="participant participant-tail" data-participant="SPA"><rect fill="#E2E2F0" height="30.4883" rx="2.5" ry="2.5" style="stroke:#181818;stroke-width:0.5;" width="43.3672" x="264.6309" y="1505.5059"/><text fill="#000000" font-family="sans-serif" font-size="14" lengthAdjust="spacing" textLength="29.3672" x="271.6309" y="1526.041">:SPA</text></g><g class="participant participant-head" data-participant="CTRL"><rect fill="#E2E2F0" height="30.4883" rx="2.5" ry="2.5" style="stroke:#181818;stroke-width:0.5;" width="136.8008" x="398.769" y="87.4883"/><text fill="#000000" font-family="sans-serif" font-size="14" lengthAdjust="spacing" textLength="122.8008" x="405.769" y="108.0234">:VesselsController</text></g><g class="participant participant-tail" data-participant="CTRL"><rect fill="#E2E2F0" height="30.4883" rx="2.5" ry="2.5" style="stroke:#181818;stroke-width:0.5;" width="136.8008" x="398.769" y="1505.5059"/><text fill="#000000" font-family="sans-serif" font-size="14" lengthAdjust="spacing" textLength="122.8008" x="405.769" y="1526.041">:VesselsController</text></g><g class="participant participant-head" data-participant="SVC"><rect fill="#E2E2F0" height="30.4883" rx="2.5" ry="2.5" style="stroke:#181818;stroke-width:0.5;" width="108.835" x="573.1738" y="87.4883"/><text fill="#000000" font-family="sans-serif" font-size="14" lengthAdjust="spacing" textLength="94.835" x="580.1738" y="108.0234">:VesselService</text></g><g class="participant participant-tail" data-participant="SVC"><rect fill="#E2E2F0" height="30.4883" rx="2.5" ry="2.5" style="stroke:#181818;stroke-width:0.5;" width="108.835" x="573.1738" y="1505.5059"/><text fill="#000000" font-family="sans-serif" font-size="14" lengthAdjust="spacing" textLength="94.835" x="580.1738" y="1526.041">:VesselService</text></g><g class="participant participant-head" data-participant="VT_SVC"><rect fill="#E2E2F0" height="30.4883" rx="2.5" ry="2.5" style="stroke:#181818;stroke-width:0.5;" width="141.6133" x="818.9702" y="87.4883"/><text fill="#000000" font-family="sans-serif" font-size="14" lengthAdjust="spacing" textLength="127.6133" x="825.9702" y="108.0234">:VesselTypeService</text></g><g class="participant participant-tail" data-participant="VT_SVC"><rect fill="#E2E2F0" height="30.4883" rx="2.5" ry="2.5" style="stroke:#181818;stroke-width:0.5;" width="141.6133" x="818.9702" y="1505.5059"/><text fill="#000000" font-family="sans-serif" font-size="14" lengthAdjust="spacing" textLength="127.6133" x="825.9702" y="1526.041">:VesselTypeService</text></g><g class="participant participant-head" data-participant="REPO"><rect fill="#E2E2F0" height="30.4883" rx="2.5" ry="2.5" style="stroke:#181818;stroke-width:0.5;" width="133.6289" x="970.5835" y="87.4883"/><text fill="#000000" font-family="sans-serif" font-size="14" lengthAdjust="spacing" textLength="119.6289" x="977.5835" y="108.0234">:VesselRepository</text></g><g class="participant participant-tail" data-participant="REPO"><rect fill="#E2E2F0" height="30.4883" rx="2.5" ry="2.5" style="stroke:#181818;stroke-width:0.5;" width="133.6289" x="970.5835" y="1505.5059"/><text fill="#000000" font-family="sans-serif" font-size="14" lengthAdjust="spacing" textLength="119.6289" x="977.5835" y="1526.041">:VesselRepository</text></g><g class="participant participant-head" data-participant="DB"><rect fill="#E2E2F0" height="30.4883" rx="2.5" ry="2.5" style="stroke:#181818;stroke-width:0.5;" width="123.8398" x="1230.3911" y="87.4883"/><text fill="#000000" font-family="sans-serif" font-size="14" lengthAdjust="spacing" textLength="109.8398" x="1237.3911" y="108.0234">:PortLogisticsDB</text></g><g class="participant participant-tail" data-participant="DB"><rect fill="#E2E2F0" height="30.4883" rx="2.5" ry="2.5" style="stroke:#181818;stroke-width:0.5;" width="123.8398" x="1230.3911" y="1505.5059"/><text fill="#000000" font-family="sans-serif" font-size="14" lengthAdjust="spacing" textLength="109.8398" x="1237.3911" y="1526.041">:PortLogisticsDB</text></g><g><title>.SPA</title><rect fill="#FFFFFF" height="1285.9082" style="stroke:#181818;stroke-width:1;" width="10" x="281.3145" y="174.5977"/></g><g><title>.VesselsController</title><rect fill="#FFFFFF" height="1211.9766" style="stroke:#181818;stroke-width:1;" width="10" x="462.1694" y="219.2188"/></g><g><title>.VesselService</title><rect fill="#FFFFFF" height="1153.3555" style="stroke:#181818;stroke-width:1;" width="10" x="622.5913" y="248.5293"/></g><g><title>.VesselTypeService</title><rect fill="#FFFFFF" height="244.4395" style="stroke:#181818;stroke-width:1;" width="10" x="884.7769" y="809.0293"/></g><g><title>.VesselRepository</title><rect fill="#FFFFFF" height="87.9316" style="stroke:#181818;stroke-width:1;" width="10" x="1032.3979" y="277.8398"/></g><g><title>.VesselRepository</title><rect fill="#FFFFFF" height="87.9316" style="stroke:#181818;stroke-width:1;" width="10" x="1032.3979" y="691.7871"/></g><g><title>.VesselRepository</title><rect fill="#FFFFFF" height="87.9316" style="stroke:#181818;stroke-width:1;" width="10" x="1032.3979" y="1125.0898"/></g><g><title>.VesselRepository</title><rect fill="#FFFFFF" height="87.9316" style="stroke:#181818;stroke-width:1;" width="10" x="1032.3979" y="1242.332"/></g><g><title>.PortLogisticsDB</title><rect fill="#FFFFFF" height="29.3105" style="stroke:#181818;stroke-width:1;" width="10" x="1287.311" y="307.1504"/></g><g><title>.PortLogisticsDB</title><rect fill="#FFFFFF" height="29.3105" style="stroke:#181818;stroke-width:1;" width="10" x="1287.311" y="721.0977"/></g><g><title>.PortLogisticsDB</title><rect fill="#FFFFFF" height="29.3105" style="stroke:#181818;stroke-width:1;" width="10" x="1287.311" y="838.3398"/></g><g><title>.PortLogisticsDB</title><rect fill="#FFFFFF" height="29.3105" style="stroke:#181818;stroke-width:1;" width="10" x="1287.311" y="1154.4004"/></g><g><title>.PortLogisticsDB</title><rect fill="#FFFFFF" height="29.3105" style="stroke:#181818;stroke-width:1;" width="10" x="1287.311" y="1271.6426"/></g><path d="M10,135.9766 L149.8594,135.9766 L149.8594,143.2871 L139.8594,153.2871 L10,153.2871 L10,135.9766" fill="#EEEEEE" style="stroke:#000000;stroke-width:1.5;"/><rect fill="none" height="1353.5293" style="stroke:#000000;stroke-width:1.5;" width="1384.231" x="10" y="135.9766"/><text fill="#000000" font-family="sans-serif" font-size="13" font-weight="bold" lengthAdjust="spacing" textLength="94.8594" x="25" y="149.5449">Update Vessel</text><g class="message" data-participant-1="PAO" data-participant-2="SPA"><polygon fill="#181818" points="269.3145,170.5977,279.3145,174.5977,269.3145,178.5977,273.3145,174.5977" style="stroke:#181818;stroke-width:1;"/><line style="stroke:#181818;stroke-width:1;" x1="125.6387" x2="275.3145" y1="174.5977" y2="174.5977"/><text fill="#000000" font-family="sans-serif" font-size="13" lengthAdjust="spacing" textLength="108.1323" x="132.6387" y="169.8555">openEditForm(id)</text></g><g class="message" data-participant-1="SPA" data-participant-2="CTRL"><polygon fill="#181818" points="450.1694,215.2188,460.1694,219.2188,450.1694,223.2188,454.1694,219.2188" style="stroke:#181818;stroke-width:1;"/><line style="stroke:#181818;stroke-width:1;" x1="291.3145" x2="456.1694" y1="219.2188" y2="219.2188"/><text fill="#000000" font-family="sans-serif" font-size="13" lengthAdjust="spacing" textLength="151.855" x="298.3145" y="199.166">PATCH /api/vessels/{id}</text><text fill="#000000" font-family="sans-serif" font-size="13" lengthAdjust="spacing" textLength="115.6924" x="298.3145" y="214.4766">{UpdateVesselDto}</text></g><g class="message" data-participant-1="CTRL" data-participant-2="SVC"><polygon fill="#181818" points="610.5913,244.5293,620.5913,248.5293,610.5913,252.5293,614.5913,248.5293" style="stroke:#181818;stroke-width:1;"/><line style="stroke:#181818;stroke-width:1;" x1="472.1694" x2="616.5913" y1="248.5293" y2="248.5293"/><text fill="#000000" font-family="sans-serif" font-size="13" lengthAdjust="spacing" textLength="131.4219" x="479.1694" y="243.7871">UpdateAsync(id, dto)</text></g><g class="message" data-participant-1="SVC" data-participant-2="REPO"><polygon fill="#181818" points="1020.3979,273.8398,1030.3979,277.8398,1020.3979,281.8398,1024.3979,277.8398" style="stroke:#181818;stroke-width:1;"/><line style="stroke:#181818;stroke-width:1;" x1="632.5913" x2="1026.3979" y1="277.8398" y2="277.8398"/><text fill="#000000" font-family="sans-serif" font-size="13" lengthAdjust="spacing" textLength="105.2061" x="639.5913" y="273.0977">GetByIdAsync(id)</text></g><g class="message" data-participant-1="REPO" data-participant-2="DB"><polygon fill="#181818" points="1275.311,303.1504,1285.311,307.1504,1275.311,311.1504,1279.311,307.1504" style="stroke:#181818;stroke-width:1;"/><line style="stroke:#181818;stroke-width:1;" x1="1042.3979" x2="1281.311" y1="307.1504" y2="307.1504"/><text fill="#000000" font-family="sans-serif" font-size="13" lengthAdjust="spacing" textLength="225.9131" x="1049.3979" y="302.4082">SELECT * FROM Vessels WHERE Id=?</text></g><g class="message" data-participant-1="DB" data-participant-2="REPO"><polygon fill="#181818" points="1053.3979,332.4609,1043.3979,336.4609,1053.3979,340.4609,1049.3979,336.4609" style="stroke:#181818;stroke-width:1;"/><line style="stroke:#181818;stroke-width:1;stroke-dasharray:2,2;" x1="1047.3979" x2="1291.311" y1="336.4609" y2="336.4609"/><text fill="#000000" font-family="sans-serif" font-size="13" lengthAdjust="spacing" textLength="80.7676" x="1059.3979" y="331.7188">entity or null</text></g><g class="message" data-participant-1="REPO" data-participant-2="SVC"><polygon fill="#181818" points="643.5913,361.7715,633.5913,365.7715,643.5913,369.7715,639.5913,365.7715" style="stroke:#181818;stroke-width:1;"/><line style="stroke:#181818;stroke-width:1;stroke-dasharray:2,2;" x1="637.5913" x2="1036.3979" y1="365.7715" y2="365.7715"/><text fill="#000000" font-family="sans-serif" font-size="13" lengthAdjust="spacing" textLength="38.2256" x="649.5913" y="361.0293">vessel</text></g><path d="M20,380.7715 L82.1387,380.7715 L82.1387,388.082 L72.1387,398.082 L20,398.082 L20,380.7715" fill="#EEEEEE" style="stroke:#000000;stroke-width:1.5;"/><rect fill="none" height="1101.7344" style="stroke:#000000;stroke-width:1.5;" width="1364.231" x="20" y="380.7715"/><text fill="#000000" font-family="sans-serif" font-size="13" font-weight="bold" lengthAdjust="spacing" textLength="17.1387" x="35" y="394.3398">alt</text><text fill="#000000" font-family="sans-serif" font-size="11" font-weight="bold" lengthAdjust="spacing" textLength="63.8086" x="97.1387" y="393.4063">[not found]</text><g class="message" data-participant-1="SVC" data-participant-2="CTRL"><polygon fill="#181818" points="483.1694,415.3926,473.1694,419.3926,483.1694,423.3926,479.1694,419.3926" style="stroke:#181818;stroke-width:1;"/><line style="stroke:#181818;stroke-width:1;stroke-dasharray:2,2;" x1="477.1694" x2="621.5913" y1="419.3926" y2="419.3926"/><text fill="#000000" font-family="sans-serif" font-size="13" lengthAdjust="spacing" textLength="94.6118" x="489.1694" y="414.6504">404 Not Found</text></g><g class="message" data-participant-1="CTRL" data-participant-2="SPA"><polygon fill="#181818" points="302.3145,444.7031,292.3145,448.7031,302.3145,452.7031,298.3145,448.7031" style="stroke:#181818;stroke-width:1;"/><line style="stroke:#181818;stroke-width:1;stroke-dasharray:2,2;" x1="296.3145" x2="461.1694" y1="448.7031" y2="448.7031"/><text fill="#000000" font-family="sans-serif" font-size="13" lengthAdjust="spacing" textLength="108.6338" x="308.3145" y="443.9609">show "not found"</text></g><g class="message" data-participant-1="SPA" data-participant-2="PAO"><polygon fill="#181818" points="136.6387,474.0137,126.6387,478.0137,136.6387,482.0137,132.6387,478.0137" style="stroke:#181818;stroke-width:1;"/><line style="stroke:#181818;stroke-width:1;stroke-dasharray:2,2;" x1="130.6387" x2="280.3145" y1="478.0137" y2="478.0137"/><text fill="#000000" font-family="sans-serif" font-size="13" lengthAdjust="spacing" textLength="36.2451" x="142.6387" y="473.2715">notify</text></g><line style="stroke:#000000;stroke-width:1;stroke-dasharray:2,2;" x1="20" x2="1384.231" y1="487.0137" y2="487.0137"/><text fill="#000000" font-family="sans-serif" font-size="11" font-weight="bold" lengthAdjust="spacing" textLength="41.4756" x="25" y="497.6484">[found]</text><g class="message" data-participant-1="SVC" data-participant-2="SVC"><line style="stroke:#181818;stroke-width:1;" x1="632.5913" x2="674.5913" y1="522.2793" y2="522.2793"/><line style="stroke:#181818;stroke-width:1;" x1="674.5913" x2="674.5913" y1="522.2793" y2="535.2793"/><line style="stroke:#181818;stroke-width:1;" x1="633.5913" x2="674.5913" y1="535.2793" y2="535.2793"/><polygon fill="#181818" points="643.5913,531.2793,633.5913,535.2793,643.5913,539.2793,639.5913,535.2793" style="stroke:#181818;stroke-width:1;"/><text fill="#000000" font-family="sans-serif" font-size="13" lengthAdjust="spacing" textLength="228.1855" x="639.5913" y="517.5371">ValidateIMOFormat(dto.imoNumber)</text></g><path d="M30,550.2793 L92.1387,550.2793 L92.1387,557.5898 L82.1387,567.5898 L30,567.5898 L30,550.2793" fill="#EEEEEE" style="stroke:#000000;stroke-width:1.5;"/><rect fill="none" height="925.2266" style="stroke:#000000;stroke-width:1.5;" width="1344.231" x="30" y="550.2793"/><text fill="#000000" font-family="sans-serif" font-size="13" font-weight="bold" lengthAdjust="spacing" textLength="17.1387" x="45" y="563.8477">alt</text><text fill="#000000" font-family="sans-serif" font-size="11" font-weight="bold" lengthAdjust="spacing" textLength="72.7031" x="107.1387" y="562.9141">[invalid IMO]</text><g class="message" data-participant-1="SVC" data-participant-2="CTRL"><polygon fill="#181818" points="483.1694,584.9004,473.1694,588.9004,483.1694,592.9004,479.1694,588.9004" style="stroke:#181818;stroke-width:1;"/><line style="stroke:#181818;stroke-width:1;stroke-dasharray:2,2;" x1="477.1694" x2="621.5913" y1="588.9004" y2="588.9004"/><text fill="#000000" font-family="sans-serif" font-size="13" lengthAdjust="spacing" textLength="106.1709" x="489.1694" y="584.1582">400 Bad Request</text></g><g class="message" data-participant-1="CTRL" data-participant-2="SPA"><polygon fill="#181818" points="302.3145,614.2109,292.3145,618.2109,302.3145,622.2109,298.3145,618.2109" style="stroke:#181818;stroke-width:1;"/><line style="stroke:#181818;stroke-width:1;stroke-dasharray:2,2;" x1="296.3145" x2="461.1694" y1="618.2109" y2="618.2109"/><text fill="#000000" font-family="sans-serif" font-size="13" lengthAdjust="spacing" textLength="74.623" x="308.3145" y="613.4688">show errors</text></g><g class="message" data-participant-1="SPA" data-participant-2="PAO"><polygon fill="#181818" points="136.6387,643.5215,126.6387,647.5215,136.6387,651.5215,132.6387,647.5215" style="stroke:#181818;stroke-width:1;"/><line style="stroke:#181818;stroke-width:1;stroke-dasharray:2,2;" x1="130.6387" x2="280.3145" y1="647.5215" y2="647.5215"/><text fill="#000000" font-family="sans-serif" font-size="13" lengthAdjust="spacing" textLength="75.5625" x="142.6387" y="642.7793">correct data</text></g><line style="stroke:#000000;stroke-width:1;stroke-dasharray:2,2;" x1="30" x2="1374.231" y1="656.5215" y2="656.5215"/><text fill="#000000" font-family="sans-serif" font-size="11" font-weight="bold" lengthAdjust="spacing" textLength="61.9019" x="35" y="667.1563">[valid IMO]</text><g class="message" data-participant-1="SVC" data-participant-2="REPO"><polygon fill="#181818" points="1020.3979,687.7871,1030.3979,691.7871,1020.3979,695.7871,1024.3979,691.7871" style="stroke:#181818;stroke-width:1;"/><line style="stroke:#181818;stroke-width:1;" x1="632.5913" x2="1026.3979" y1="691.7871" y2="691.7871"/><text fill="#000000" font-family="sans-serif" font-size="13" lengthAdjust="spacing" textLength="294.2329" x="639.5913" y="687.0449">ExistsByImoExceptIdAsync(dto.imoNumber, id)</text></g><g class="message" data-participant-1="REPO" data-participant-2="DB"><polygon fill="#181818" points="1275.311,717.0977,1285.311,721.0977,1275.311,725.0977,1279.311,721.0977" style="stroke:#181818;stroke-width:1;"/><line style="stroke:#181818;stroke-width:1;" x1="1042.3979" x2="1281.311" y1="721.0977" y2="721.0977"/><text fill="#000000" font-family="sans-serif" font-size="13" lengthAdjust="spacing" textLength="126.4517" x="1049.3979" y="716.3555">SELECT COUNT(*) ...</text></g><g class="message" data-participant-1="DB" data-participant-2="REPO"><polygon fill="#181818" points="1053.3979,746.4082,1043.3979,750.4082,1053.3979,754.4082,1049.3979,750.4082" style="stroke:#181818;stroke-width:1;"/><line style="stroke:#181818;stroke-width:1;stroke-dasharray:2,2;" x1="1047.3979" x2="1291.311" y1="750.4082" y2="750.4082"/><text fill="#000000" font-family="sans-serif" font-size="13" lengthAdjust="spacing" textLength="8.2202" x="1059.3979" y="745.666">0</text></g><g class="message" data-participant-1="REPO" data-participant-2="SVC"><polygon fill="#181818" points="643.5913,775.7188,633.5913,779.7188,643.5913,783.7188,639.5913,779.7188" style="stroke:#181818;stroke-width:1;"/><line style="stroke:#181818;stroke-width:1;stroke-dasharray:2,2;" x1="637.5913" x2="1036.3979" y1="779.7188" y2="779.7188"/><text fill="#000000" font-family="sans-serif" font-size="13" lengthAdjust="spacing" textLength="29.5864" x="649.5913" y="774.9766">false</text></g><g class="message" data-participant-1="SVC" data-participant-2="VT_SVC"><polygon fill="#181818" points="872.7769,805.0293,882.7769,809.0293,872.7769,813.0293,876.7769,809.0293" style="stroke:#181818;stroke-width:1;"/><line style="stroke:#181818;stroke-width:1;" x1="632.5913" x2="878.7769" y1="809.0293" y2="809.0293"/><text fill="#000000" font-family="sans-serif" font-size="13" lengthAdjust="spacing" textLength="198.999" x="639.5913" y="804.2871">GetByIdAsync(dto.vesselTypeId)</text></g><g class="message" data-participant-1="VT_SVC" data-participant-2="DB"><polygon fill="#181818" points="1275.311,834.3398,1285.311,838.3398,1275.311,842.3398,1279.311,838.3398" style="stroke:#181818;stroke-width:1;"/><line style="stroke:#181818;stroke-width:1;" x1="894.7769" x2="1281.311" y1="838.3398" y2="838.3398"/><text fill="#000000" font-family="sans-serif" font-size="13" lengthAdjust="spacing" textLength="245.9717" x="901.7769" y="833.5977">SELECT FROM VesselTypes WHERE Id=?</text></g><g class="message" data-participant-1="DB" data-participant-2="VT_SVC"><polygon fill="#181818" points="905.7769,863.6504,895.7769,867.6504,905.7769,871.6504,901.7769,867.6504" style="stroke:#181818;stroke-width:1;"/><line style="stroke:#181818;stroke-width:1;stroke-dasharray:2,2;" x1="899.7769" x2="1291.311" y1="867.6504" y2="867.6504"/><text fill="#000000" font-family="sans-serif" font-size="13" lengthAdjust="spacing" textLength="113.8452" x="911.7769" y="862.9082">vesselType or null</text></g><path d="M40,882.6504 L102.1387,882.6504 L102.1387,889.9609 L92.1387,899.9609 L40,899.9609 L40,882.6504" fill="#EEEEEE" style="stroke:#000000;stroke-width:1.5;"/><rect fill="none" height="585.8555" style="stroke:#000000;stroke-width:1.5;" width="1324.231" x="40" y="882.6504"/><text fill="#000000" font-family="sans-serif" font-size="13" font-weight="bold" lengthAdjust="spacing" textLength="17.1387" x="55" y="896.2188">alt</text><text fill="#000000" font-family="sans-serif" font-size="11" font-weight="bold" lengthAdjust="spacing" textLength="92.0391" x="117.1387" y="895.2852">[type not found]</text><g class="message" data-participant-1="VT_SVC" data-participant-2="SVC"><polygon fill="#181818" points="643.5913,917.2715,633.5913,921.2715,643.5913,925.2715,639.5913,921.2715" style="stroke:#181818;stroke-width:1;"/><line style="stroke:#181818;stroke-width:1;stroke-dasharray:2,2;" x1="637.5913" x2="883.7769" y1="921.2715" y2="921.2715"/><text fill="#000000" font-family="sans-serif" font-size="13" lengthAdjust="spacing" textLength="23.6514" x="649.5913" y="916.5293">null</text></g><g class="message" data-participant-1="SVC" data-participant-2="CTRL"><polygon fill="#181818" points="483.1694,946.582,473.1694,950.582,483.1694,954.582,479.1694,950.582" style="stroke:#181818;stroke-width:1;"/><line style="stroke:#181818;stroke-width:1;stroke-dasharray:2,2;" x1="477.1694" x2="621.5913" y1="950.582" y2="950.582"/><text fill="#000000" font-family="sans-serif" font-size="13" lengthAdjust="spacing" textLength="106.1709" x="489.1694" y="945.8398">400 Bad Request</text></g><g class="message" data-participant-1="CTRL" data-participant-2="SPA"><polygon fill="#181818" points="302.3145,975.8926,292.3145,979.8926,302.3145,983.8926,298.3145,979.8926" style="stroke:#181818;stroke-width:1;"/><line style="stroke:#181818;stroke-width:1;stroke-dasharray:2,2;" x1="296.3145" x2="461.1694" y1="979.8926" y2="979.8926"/><text fill="#000000" font-family="sans-serif" font-size="13" lengthAdjust="spacing" textLength="67.9961" x="308.3145" y="975.1504">show error</text></g><g class="message" data-participant-1="SPA" data-participant-2="PAO"><polygon fill="#181818" points="136.6387,1005.2031,126.6387,1009.2031,136.6387,1013.2031,132.6387,1009.2031" style="stroke:#181818;stroke-width:1;"/><line style="stroke:#181818;stroke-width:1;stroke-dasharray:2,2;" x1="130.6387" x2="280.3145" y1="1009.2031" y2="1009.2031"/><text fill="#000000" font-family="sans-serif" font-size="13" lengthAdjust="spacing" textLength="82.5068" x="142.6387" y="1004.4609">correct fields</text></g><line style="stroke:#000000;stroke-width:1;stroke-dasharray:2,2;" x1="40" x2="1364.231" y1="1018.2031" y2="1018.2031"/><text fill="#000000" font-family="sans-serif" font-size="11" font-weight="bold" lengthAdjust="spacing" textLength="63.8193" x="45" y="1028.8379">[type valid]</text><g class="message" data-participant-1="VT_SVC" data-participant-2="SVC"><polygon fill="#181818" points="643.5913,1049.4688,633.5913,1053.4688,643.5913,1057.4688,639.5913,1053.4688" style="stroke:#181818;stroke-width:1;"/><line style="stroke:#181818;stroke-width:1;stroke-dasharray:2,2;" x1="637.5913" x2="888.7769" y1="1053.4688" y2="1053.4688"/><text fill="#000000" font-family="sans-serif" font-size="13" lengthAdjust="spacing" textLength="91.2476" x="649.5913" y="1048.7266">vesselTypeDto</text></g><g class="message" data-participant-1="SVC" data-participant-2="SVC"><line style="stroke:#181818;stroke-width:1;" x1="632.5913" x2="674.5913" y1="1082.7793" y2="1082.7793"/><line style="stroke:#181818;stroke-width:1;" x1="674.5913" x2="674.5913" y1="1082.7793" y2="1095.7793"/><line style="stroke:#181818;stroke-width:1;" x1="633.5913" x2="674.5913" y1="1095.7793" y2="1095.7793"/><polygon fill="#181818" points="643.5913,1091.7793,633.5913,1095.7793,643.5913,1099.7793,639.5913,1095.7793" style="stroke:#181818;stroke-width:1;"/><text fill="#000000" font-family="sans-serif" font-size="13" lengthAdjust="spacing" textLength="148.8906" x="639.5913" y="1078.0371">vessel.UpdateFrom(dto)</text></g><g class="message" data-participant-1="SVC" data-participant-2="REPO"><polygon fill="#181818" points="1020.3979,1121.0898,1030.3979,1125.0898,1020.3979,1129.0898,1024.3979,1125.0898" style="stroke:#181818;stroke-width:1;"/><line style="stroke:#181818;stroke-width:1;" x1="632.5913" x2="1026.3979" y1="1125.0898" y2="1125.0898"/><text fill="#000000" font-family="sans-serif" font-size="13" lengthAdjust="spacing" textLength="128.4512" x="639.5913" y="1120.3477">UpdateAsync(vessel)</text></g><g class="message" data-participant-1="REPO" data-participant-2="DB"><polygon fill="#181818" points="1275.311,1150.4004,1285.311,1154.4004,1275.311,1158.4004,1279.311,1154.4004" style="stroke:#181818;stroke-width:1;"/><line style="stroke:#181818;stroke-width:1;" x1="1042.3979" x2="1281.311" y1="1154.4004" y2="1154.4004"/><text fill="#000000" font-family="sans-serif" font-size="13" lengthAdjust="spacing" textLength="117.3555" x="1049.3979" y="1149.6582">UPDATE Vessels ...</text></g><g class="message" data-participant-1="DB" data-participant-2="REPO"><polygon fill="#181818" points="1053.3979,1179.7109,1043.3979,1183.7109,1053.3979,1187.7109,1049.3979,1183.7109" style="stroke:#181818;stroke-width:1;"/><line style="stroke:#181818;stroke-width:1;stroke-dasharray:2,2;" x1="1047.3979" x2="1291.311" y1="1183.7109" y2="1183.7109"/><text fill="#000000" font-family="sans-serif" font-size="13" lengthAdjust="spacing" textLength="51.8984" x="1059.3979" y="1178.9688">updated</text></g><g class="message" data-participant-1="REPO" data-participant-2="SVC"><polygon fill="#181818" points="643.5913,1209.0215,633.5913,1213.0215,643.5913,1217.0215,639.5913,1213.0215" style="stroke:#181818;stroke-width:1;"/><line style="stroke:#181818;stroke-width:1;stroke-dasharray:2,2;" x1="637.5913" x2="1036.3979" y1="1213.0215" y2="1213.0215"/><text fill="#000000" font-family="sans-serif" font-size="13" lengthAdjust="spacing" textLength="48.5088" x="649.5913" y="1208.2793">success</text></g><g class="message" data-participant-1="SVC" data-participant-2="REPO"><polygon fill="#181818" points="1020.3979,1238.332,1030.3979,1242.332,1020.3979,1246.332,1024.3979,1242.332" style="stroke:#181818;stroke-width:1;"/><line style="stroke:#181818;stroke-width:1;" x1="632.5913" x2="1026.3979" y1="1242.332" y2="1242.332"/><text fill="#000000" font-family="sans-serif" font-size="13" lengthAdjust="spacing" textLength="128.0068" x="639.5913" y="1237.5898">SaveChangesAsync()</text></g><g class="message" data-participant-1="REPO" data-participant-2="DB"><polygon fill="#181818" points="1275.311,1267.6426,1285.311,1271.6426,1275.311,1275.6426,1279.311,1271.6426" style="stroke:#181818;stroke-width:1;"/><line style="stroke:#181818;stroke-width:1;" x1="1042.3979" x2="1281.311" y1="1271.6426" y2="1271.6426"/><text fill="#000000" font-family="sans-serif" font-size="13" lengthAdjust="spacing" textLength="90.8921" x="1049.3979" y="1266.9004">SaveChanges()</text></g><g class="message" data-participant-1="DB" data-participant-2="REPO"><polygon fill="#181818" points="1053.3979,1296.9531,1043.3979,1300.9531,1053.3979,1304.9531,1049.3979,1300.9531" style="stroke:#181818;stroke-width:1;"/><line style="stroke:#181818;stroke-width:1;stroke-dasharray:2,2;" x1="1047.3979" x2="1291.311" y1="1300.9531" y2="1300.9531"/><text fill="#000000" font-family="sans-serif" font-size="13" lengthAdjust="spacing" textLength="48.5088" x="1059.3979" y="1296.2109">success</text></g><g class="message" data-participant-1="REPO" data-participant-2="SVC"><polygon fill="#181818" points="643.5913,1326.2637,633.5913,1330.2637,643.5913,1334.2637,639.5913,1330.2637" style="stroke:#181818;stroke-width:1;"/><line style="stroke:#181818;stroke-width:1;stroke-dasharray:2,2;" x1="637.5913" x2="1036.3979" y1="1330.2637" y2="1330.2637"/><text fill="#000000" font-family="sans-serif" font-size="13" lengthAdjust="spacing" textLength="48.5088" x="649.5913" y="1325.5215">success</text></g><g class="message" data-participant-1="SVC" data-participant-2="SVC"><line style="stroke:#181818;stroke-width:1;" x1="632.5913" x2="674.5913" y1="1359.5742" y2="1359.5742"/><line style="stroke:#181818;stroke-width:1;" x1="674.5913" x2="674.5913" y1="1359.5742" y2="1372.5742"/><line style="stroke:#181818;stroke-width:1;" x1="633.5913" x2="674.5913" y1="1372.5742" y2="1372.5742"/><polygon fill="#181818" points="643.5913,1368.5742,633.5913,1372.5742,643.5913,1376.5742,639.5913,1372.5742" style="stroke:#181818;stroke-width:1;"/><text fill="#000000" font-family="sans-serif" font-size="13" lengthAdjust="spacing" textLength="85.4712" x="639.5913" y="1354.832">ToDto(vessel)</text></g><g class="message" data-participant-1="SVC" data-participant-2="CTRL"><polygon fill="#181818" points="483.1694,1397.8848,473.1694,1401.8848,483.1694,1405.8848,479.1694,1401.8848" style="stroke:#181818;stroke-width:1;"/><line style="stroke:#181818;stroke-width:1;stroke-dasharray:2,2;" x1="477.1694" x2="626.5913" y1="1401.8848" y2="1401.8848"/><text fill="#000000" font-family="sans-serif" font-size="13" lengthAdjust="spacing" textLength="62.5815" x="489.1694" y="1397.1426">VesselDto</text></g><g class="message" data-participant-1="CTRL" data-participant-2="SPA"><polygon fill="#181818" points="302.3145,1427.1953,292.3145,1431.1953,302.3145,1435.1953,298.3145,1431.1953" style="stroke:#181818;stroke-width:1;"/><line style="stroke:#181818;stroke-width:1;stroke-dasharray:2,2;" x1="296.3145" x2="466.1694" y1="1431.1953" y2="1431.1953"/><text fill="#000000" font-family="sans-serif" font-size="13" lengthAdjust="spacing" textLength="128.502" x="308.3145" y="1426.4531">200 OK + VesselDto</text></g><g class="message" data-participant-1="SPA" data-participant-2="PAO"><polygon fill="#181818" points="136.6387,1456.5059,126.6387,1460.5059,136.6387,1464.5059,132.6387,1460.5059" style="stroke:#181818;stroke-width:1;"/><line style="stroke:#181818;stroke-width:1;stroke-dasharray:2,2;" x1="130.6387" x2="285.3145" y1="1460.5059" y2="1460.5059"/><text fill="#000000" font-family="sans-serif" font-size="13" lengthAdjust="spacing" textLength="131.6758" x="142.6387" y="1455.7637">updated successfully</text></g><!--SRC=[hLPTRzem57tdLrpnKkXQMarxghHD4CAAHaiKKlOoQSeIKwo5EBCTMbJrl-_QpgT9qIODgKMOSp_EkUSwI2eJ0WzP74e2Qo84IS0d4UCnN8B7MOH7iARagTSB8yauz3t69OnpkMMSoWCiDniQ4Tw7K80tNlQoa4iQqInC9VHlLjvOVuFlrZUcbd1OAZbBaYA34_YBJk2Ay3tMCSdMJYScE6IaYLi7Fzw2-YHZWYAVWqRwhcTthcWks2CLU2Qc4msRJdgzHyxoh2rO3nHpkFoaQC8Di8oaRapbZF7TWCP3_1wretiLeOJ0pmg8U4KN0xnnuDp2LPZHgxsHvUg5ng_VqnTJnvIPIlRQJAMrmWETH1LVEvZBH8p58OsmzWN4ahKRG4NmynaiM1W3IIKEKJM4mPX32O59lX0vESpZCaihWTOA318ZfXF4hzo5wmHm3ZD_ULUe8k3RhUkxC8y_Vcx6euYWeYxhSgOBG7UbUQBaZ4aRRefL7FUbx0sSRalLIIIaJCA6vMcCdmjgjTWVhZ_0FG9c5S08M8rFRDaJzAiSVPD43GmXQj0tgW3TADcG9h5BbLskmuIgMSplbie9eHpWB4Pqn-xptK_2Xpf2jKlJlO820lLPHylNCC5f-UHtJeGiG5rj4yuP5sMMLi-uqvn44h2bK0DqxtRbCt1JaNC2ANbInq05v2d5kitMgicvpxWW0hsoO-vpH39PcgP5zGACXpHXoqVgrUKbP_bm7mpEXp0QZUnGxGdrQjlekZYrtLENg6Qp2P7yCRmqaL72sPBeLs4sa7Yvj2KmrukzBOhulhgEviUyYrl9d1OvBEwDBL99h4qwAKNLLDr3Ow-ErIdpeGqLGsjrcYrMsZLo_QLJJtYrJjHfrWqbILpwMHjMTwbT-tQ7DNUyCojOWtWnWpQBTlJ8NAGppdO3VOVQuC9qpVlMH0uhP9VNBRS_UDDnu5PNPctshXdRXizrxRYBOIF6ihx88_LGxmfgsj_ckGhtnDc6wICHXkm_qMn4TmM-oV14i_-FeOaA69hbQ8IMlwidSLVobgKinx_7nLX-XNUdCvIFzAwLA8PTijlW5Xuwky1V6CM-55jitjL__Fi3]--></g></svg>