<svg xmlns="http://www.w3.org/2000/svg" xmlns:xlink="http://www.w3.org/1999/xlink" contentStyleType="text/css" data-diagram-type="SEQUENCE" height="1088px" preserveAspectRatio="none" style="width:1474px;height:1088px;background:#FFFFFF;" version="1.1" viewBox="0 0 1474 1088" width="1474px" zoomAndPan="magnify"><title>Create Vessel Visit Notification (VVN) - Initial Creation</title><defs/><g><text fill="#000000" font-family="sans-serif" font-size="14" font-weight="bold" lengthAdjust="spacing" textLength="394.502" x="541.5237" y="28.5352">Create Vessel Visit Notification (VVN) - Initial Creation</text><g><title>.SPA</title><rect fill="#FFFFFF" height="785.3398" style="stroke:#181818;stroke-width:1;" width="10" x="388.0176" y="189.9082"/></g><g><title>.VesselVisitNotificationsController</title><rect fill="#FFFFFF" height="711.4082" style="stroke:#181818;stroke-width:1;" width="10" x="564.2559" y="234.5293"/></g><g><title>.VesselVisitNotificationService</title><rect fill="#FFFFFF" height="652.7871" style="stroke:#181818;stroke-width:1;" width="10" x="805.5874" y="263.8398"/></g><g><title>.VesselService</title><rect fill="#FFFFFF" height="200.1738" style="stroke:#181818;stroke-width:1;" width="10" x="1003.1494" y="293.1504"/></g><g><title>.VesselVisitNotificationRepository</title><rect fill="#FFFFFF" height="87.9316" style="stroke:#181818;stroke-width:1;" width="10" x="1188.6382" y="639.832"/></g><g><title>.VesselVisitNotificationRepository</title><rect fill="#FFFFFF" height="87.9316" style="stroke:#181818;stroke-width:1;" width="10" x="1188.6382" y="757.0742"/></g><g><title>.PortLogisticsDB</title><rect fill="#FFFFFF" height="29.3105" style="stroke:#181818;stroke-width:1;" width="10" x="1381.6294" y="322.4609"/></g><g><title>.PortLogisticsDB</title><rect fill="#FFFFFF" height="29.3105" style="stroke:#181818;stroke-width:1;" width="10" x="1381.6294" y="669.1426"/></g><g><title>.PortLogisticsDB</title><rect fill="#FFFFFF" height="29.3105" style="stroke:#181818;stroke-width:1;" width="10" x="1381.6294" y="786.3848"/></g><rect fill="none" height="854.2715" style="stroke:#000000;stroke-width:1.5;" width="1458.5493" x="10" y="135.9766"/><rect fill="none" height="616.4766" style="stroke:#000000;stroke-width:1.5;" width="1438.5493" x="20" y="366.7715"/><g><title>Shipping Agent Representative</title><rect fill="#000000" fill-opacity="0.00000" height="888.2715" width="8" x="133.125" y="118.9766"/><line style="stroke:#181818;stroke-width:0.5;stroke-dasharray:5,5;" x1="137" x2="137" y1="118.9766" y2="1007.248"/></g><g><title>.SPA</title><rect fill="#000000" fill-opacity="0.00000" height="888.2715" width="8" x="389.0176" y="118.9766"/><line style="stroke:#181818;stroke-width:0.5;stroke-dasharray:5,5;" x1="392.334" x2="392.334" y1="118.9766" y2="1007.248"/></g><g><title>.VesselVisitNotificationsController</title><rect fill="#000000" fill-opacity="0.00000" height="888.2715" width="8" x="565.2559" y="118.9766"/><line style="stroke:#181818;stroke-width:0.5;stroke-dasharray:5,5;" x1="568.5986" x2="568.5986" y1="118.9766" y2="1007.248"/></g><g><title>.VesselVisitNotificationService</title><rect fill="#000000" fill-opacity="0.00000" height="888.2715" width="8" x="806.5874" y="118.9766"/><line style="stroke:#181818;stroke-width:0.5;stroke-dasharray:5,5;" x1="809.9131" x2="809.9131" y1="118.9766" y2="1007.248"/></g><g><title>.VesselService</title><rect fill="#000000" fill-opacity="0.00000" height="888.2715" width="8" x="1004.1494" y="118.9766"/><line style="stroke:#181818;stroke-width:0.5;stroke-dasharray:5,5;" x1="1007.7319" x2="1007.7319" y1="118.9766" y2="1007.248"/></g><g><title>.VesselVisitNotificationRepository</title><rect fill="#000000" fill-opacity="0.00000" height="888.2715" width="8" x="1189.6382" y="118.9766"/><line style="stroke:#181818;stroke-width:0.5;stroke-dasharray:5,5;" x1="1193.5669" x2="1193.5669" y1="118.9766" y2="1007.248"/></g><g><title>.PortLogisticsDB</title><rect fill="#000000" fill-opacity="0.00000" height="888.2715" width="8" x="1382.6294" y="118.9766"/><line style="stroke:#181818;stroke-width:0.5;stroke-dasharray:5,5;" x1="1385.7095" x2="1385.7095" y1="118.9766" y2="1007.248"/></g><g class="participant participant-head" data-participant="SAR"><text fill="#000000" font-family="sans-serif" font-size="14" lengthAdjust="spacing" textLength="208.25" x="30" y="116.0234">Shipping Agent Representative</text><ellipse cx="137.125" cy="50.9883" fill="#E2E2F0" rx="8" ry="8" style="stroke:#181818;stroke-width:0.5;"/><path d="M137.125,58.9883 L137.125,85.9883 M124.125,66.9883 L150.125,66.9883 M137.125,85.9883 L124.125,100.9883 M137.125,85.9883 L150.125,100.9883" fill="none" style="stroke:#181818;stroke-width:0.5;"/></g><g class="participant participant-tail" data-participant="SAR"><text fill="#000000" font-family="sans-serif" font-size="14" lengthAdjust="spacing" textLength="208.25" x="30" y="1019.7832">Shipping Agent Representative</text><ellipse cx="137.125" cy="1031.2363" fill="#E2E2F0" rx="8" ry="8" style="stroke:#181818;stroke-width:0.5;"/><path d="M137.125,1039.2363 L137.125,1066.2363 M124.125,1047.2363 L150.125,1047.2363 M137.125,1066.2363 L124.125,1081.2363 M137.125,1066.2363 L150.125,1081.2363" fill="none" style="stroke:#181818;stroke-width:0.5;"/></g><g class="participant participant-head" data-participant="SPA"><rect fill="#E2E2F0" height="30.4883" rx="2.5" ry="2.5" style="stroke:#181818;stroke-width:0.5;" width="43.3672" x="371.334" y="87.4883"/><text fill="#000000" font-family="sans-serif" font-size="14" lengthAdjust="spacing" textLength="29.3672" x="378.334" y="108.0234">:SPA</text></g><g class="participant participant-tail" data-participant="SPA"><rect fill="#E2E2F0" height="30.4883" rx="2.5" ry="2.5" style="stroke:#181818;stroke-width:0.5;" width="43.3672" x="371.334" y="1006.248"/><text fill="#000000" font-family="sans-serif" font-size="14" lengthAdjust="spacing" textLength="29.3672" x="378.334" y="1026.7832">:SPA</text></g><g class="participant participant-head" data-participant="CTRL"><rect fill="#E2E2F0" height="30.4883" rx="2.5" ry="2.5" style="stroke:#181818;stroke-width:0.5;" width="245.3145" x="446.5986" y="87.4883"/><text fill="#000000" font-family="sans-serif" font-size="14" lengthAdjust="spacing" textLength="231.3145" x="453.5986" y="108.0234">:VesselVisitNotificationsController</text></g><g class="participant participant-tail" data-participant="CTRL"><rect fill="#E2E2F0" height="30.4883" rx="2.5" ry="2.5" style="stroke:#181818;stroke-width:0.5;" width="245.3145" x="446.5986" y="1006.248"/><text fill="#000000" font-family="sans-serif" font-size="14" lengthAdjust="spacing" textLength="231.3145" x="453.5986" y="1026.7832">:VesselVisitNotificationsController</text></g><g class="participant participant-head" data-participant="SVC"><rect fill="#E2E2F0" height="30.4883" rx="2.5" ry="2.5" style="stroke:#181818;stroke-width:0.5;" width="217.3486" x="701.9131" y="87.4883"/><text fill="#000000" font-family="sans-serif" font-size="14" lengthAdjust="spacing" textLength="203.3486" x="708.9131" y="108.0234">:VesselVisitNotificationService</text></g><g class="participant participant-tail" data-participant="SVC"><rect fill="#E2E2F0" height="30.4883" rx="2.5" ry="2.5" style="stroke:#181818;stroke-width:0.5;" width="217.3486" x="701.9131" y="1006.248"/><text fill="#000000" font-family="sans-serif" font-size="14" lengthAdjust="spacing" textLength="203.3486" x="708.9131" y="1026.7832">:VesselVisitNotificationService</text></g><g class="participant participant-head" data-participant="VES_SVC"><rect fill="#E2E2F0" height="30.4883" rx="2.5" ry="2.5" style="stroke:#181818;stroke-width:0.5;" width="108.835" x="953.7319" y="87.4883"/><text fill="#000000" font-family="sans-serif" font-size="14" lengthAdjust="spacing" textLength="94.835" x="960.7319" y="108.0234">:VesselService</text></g><g class="participant participant-tail" data-participant="VES_SVC"><rect fill="#E2E2F0" height="30.4883" rx="2.5" ry="2.5" style="stroke:#181818;stroke-width:0.5;" width="108.835" x="953.7319" y="1006.248"/><text fill="#000000" font-family="sans-serif" font-size="14" lengthAdjust="spacing" textLength="94.835" x="960.7319" y="1026.7832">:VesselService</text></g><g class="participant participant-head" data-participant="REPO"><rect fill="#E2E2F0" height="30.4883" rx="2.5" ry="2.5" style="stroke:#181818;stroke-width:0.5;" width="242.1426" x="1072.5669" y="87.4883"/><text fill="#000000" font-family="sans-serif" font-size="14" lengthAdjust="spacing" textLength="228.1426" x="1079.5669" y="108.0234">:VesselVisitNotificationRepository</text></g><g class="participant participant-tail" data-participant="REPO"><rect fill="#E2E2F0" height="30.4883" rx="2.5" ry="2.5" style="stroke:#181818;stroke-width:0.5;" width="242.1426" x="1072.5669" y="1006.248"/><text fill="#000000" font-family="sans-serif" font-size="14" lengthAdjust="spacing" textLength="228.1426" x="1079.5669" y="1026.7832">:VesselVisitNotificationRepository</text></g><g class="participant participant-head" data-participant="DB"><rect fill="#E2E2F0" height="30.4883" rx="2.5" ry="2.5" style="stroke:#181818;stroke-width:0.5;" width="123.8398" x="1324.7095" y="87.4883"/><text fill="#000000" font-family="sans-serif" font-size="14" lengthAdjust="spacing" textLength="109.8398" x="1331.7095" y="108.0234">:PortLogisticsDB</text></g><g class="participant participant-tail" data-participant="DB"><rect fill="#E2E2F0" height="30.4883" rx="2.5" ry="2.5" style="stroke:#181818;stroke-width:0.5;" width="123.8398" x="1324.7095" y="1006.248"/><text fill="#000000" font-family="sans-serif" font-size="14" lengthAdjust="spacing" textLength="109.8398" x="1331.7095" y="1026.7832">:PortLogisticsDB</text></g><g><title>.SPA</title><rect fill="#FFFFFF" height="785.3398" style="stroke:#181818;stroke-width:1;" width="10" x="388.0176" y="189.9082"/></g><g><title>.VesselVisitNotificationsController</title><rect fill="#FFFFFF" height="711.4082" style="stroke:#181818;stroke-width:1;" width="10" x="564.2559" y="234.5293"/></g><g><title>.VesselVisitNotificationService</title><rect fill="#FFFFFF" height="652.7871" style="stroke:#181818;stroke-width:1;" width="10" x="805.5874" y="263.8398"/></g><g><title>.VesselService</title><rect fill="#FFFFFF" height="200.1738" style="stroke:#181818;stroke-width:1;" width="10" x="1003.1494" y="293.1504"/></g><g><title>.VesselVisitNotificationRepository</title><rect fill="#FFFFFF" height="87.9316" style="stroke:#181818;stroke-width:1;" width="10" x="1188.6382" y="639.832"/></g><g><title>.VesselVisitNotificationRepository</title><rect fill="#FFFFFF" height="87.9316" style="stroke:#181818;stroke-width:1;" width="10" x="1188.6382" y="757.0742"/></g><g><title>.PortLogisticsDB</title><rect fill="#FFFFFF" height="29.3105" style="stroke:#181818;stroke-width:1;" width="10" x="1381.6294" y="322.4609"/></g><g><title>.PortLogisticsDB</title><rect fill="#FFFFFF" height="29.3105" style="stroke:#181818;stroke-width:1;" width="10" x="1381.6294" y="669.1426"/></g><g><title>.PortLogisticsDB</title><rect fill="#FFFFFF" height="29.3105" style="stroke:#181818;stroke-width:1;" width="10" x="1381.6294" y="786.3848"/></g><path d="M10,135.9766 L130.7593,135.9766 L130.7593,143.2871 L120.7593,153.2871 L10,153.2871 L10,135.9766" fill="#EEEEEE" style="stroke:#000000;stroke-width:1.5;"/><rect fill="none" height="854.2715" style="stroke:#000000;stroke-width:1.5;" width="1458.5493" x="10" y="135.9766"/><text fill="#000000" font-family="sans-serif" font-size="13" font-weight="bold" lengthAdjust="spacing" textLength="75.7593" x="25" y="149.5449">Create VVN</text><g class="message" data-participant-1="SAR" data-participant-2="SPA"><polygon fill="#181818" points="376.0176,185.9082,386.0176,189.9082,376.0176,193.9082,380.0176,189.9082" style="stroke:#181818;stroke-width:1;"/><line style="stroke:#181818;stroke-width:1;" x1="137.125" x2="382.0176" y1="189.9082" y2="189.9082"/><text fill="#000000" font-family="sans-serif" font-size="13" lengthAdjust="spacing" textLength="142.0859" x="144.125" y="169.8555">fillInitialForm(vesselId,</text><text fill="#000000" font-family="sans-serif" font-size="13" lengthAdjust="spacing" textLength="231.8926" x="144.125" y="185.166">ETA, ETD, cargoManifest?, crewInfo?)</text></g><g class="message" data-participant-1="SPA" data-participant-2="CTRL"><polygon fill="#181818" points="552.2559,230.5293,562.2559,234.5293,552.2559,238.5293,556.2559,234.5293" style="stroke:#181818;stroke-width:1;"/><line style="stroke:#181818;stroke-width:1;" x1="398.0176" x2="558.2559" y1="234.5293" y2="234.5293"/><text fill="#000000" font-family="sans-serif" font-size="13" lengthAdjust="spacing" textLength="97.5254" x="405.0176" y="214.4766">POST /api/vvns</text><text fill="#000000" font-family="sans-serif" font-size="13" lengthAdjust="spacing" textLength="98.4839" x="405.0176" y="229.7871">{CreateVVNDto}</text></g><g class="message" data-participant-1="CTRL" data-participant-2="SVC"><polygon fill="#181818" points="793.5874,259.8398,803.5874,263.8398,793.5874,267.8398,797.5874,263.8398" style="stroke:#181818;stroke-width:1;"/><line style="stroke:#181818;stroke-width:1;" x1="574.2559" x2="799.5874" y1="263.8398" y2="263.8398"/><text fill="#000000" font-family="sans-serif" font-size="13" lengthAdjust="spacing" textLength="161.0273" x="581.2559" y="259.0977">AddAsync(dto, repUserId)</text></g><g class="message" data-participant-1="SVC" data-participant-2="VES_SVC"><polygon fill="#181818" points="991.1494,289.1504,1001.1494,293.1504,991.1494,297.1504,995.1494,293.1504" style="stroke:#181818;stroke-width:1;"/><line style="stroke:#181818;stroke-width:1;" x1="815.5874" x2="997.1494" y1="293.1504" y2="293.1504"/><text fill="#000000" font-family="sans-serif" font-size="13" lengthAdjust="spacing" textLength="168.562" x="822.5874" y="288.4082">GetByIdAsync(dto.vesselId)</text></g><g class="message" data-participant-1="VES_SVC" data-participant-2="DB"><polygon fill="#181818" points="1369.6294,318.4609,1379.6294,322.4609,1369.6294,326.4609,1373.6294,322.4609" style="stroke:#181818;stroke-width:1;"/><line style="stroke:#181818;stroke-width:1;" x1="1013.1494" x2="1375.6294" y1="322.4609" y2="322.4609"/><text fill="#000000" font-family="sans-serif" font-size="13" lengthAdjust="spacing" textLength="215.5347" x="1020.1494" y="317.7188">SELECT FROM Vessels WHERE Id=?</text></g><g class="message" data-participant-1="DB" data-participant-2="VES_SVC"><polygon fill="#181818" points="1024.1494,347.7715,1014.1494,351.7715,1024.1494,355.7715,1020.1494,351.7715" style="stroke:#181818;stroke-width:1;"/><line style="stroke:#181818;stroke-width:1;stroke-dasharray:2,2;" x1="1018.1494" x2="1385.6294" y1="351.7715" y2="351.7715"/><text fill="#000000" font-family="sans-serif" font-size="13" lengthAdjust="spacing" textLength="83.4082" x="1030.1494" y="347.0293">vessel or null</text></g><path d="M20,366.7715 L82.1387,366.7715 L82.1387,374.082 L72.1387,384.082 L20,384.082 L20,366.7715" fill="#EEEEEE" style="stroke:#000000;stroke-width:1.5;"/><rect fill="none" height="616.4766" style="stroke:#000000;stroke-width:1.5;" width="1438.5493" x="20" y="366.7715"/><text fill="#000000" font-family="sans-serif" font-size="13" font-weight="bold" lengthAdjust="spacing" textLength="17.1387" x="35" y="380.3398">alt</text><text fill="#000000" font-family="sans-serif" font-size="11" font-weight="bold" lengthAdjust="spacing" textLength="102.8672" x="97.1387" y="379.4063">[vessel not found]</text><g class="message" data-participant-1="VES_SVC" data-participant-2="SVC"><polygon fill="#181818" points="826.5874,401.3926,816.5874,405.3926,826.5874,409.3926,822.5874,405.3926" style="stroke:#181818;stroke-width:1;"/><line style="stroke:#181818;stroke-width:1;stroke-dasharray:2,2;" x1="820.5874" x2="1002.1494" y1="405.3926" y2="405.3926"/><text fill="#000000" font-family="sans-serif" font-size="13" lengthAdjust="spacing" textLength="23.6514" x="832.5874" y="400.6504">null</text></g><g class="message" data-participant-1="SVC" data-participant-2="CTRL"><polygon fill="#181818" points="585.2559,430.7031,575.2559,434.7031,585.2559,438.7031,581.2559,434.7031" style="stroke:#181818;stroke-width:1;"/><line style="stroke:#181818;stroke-width:1;stroke-dasharray:2,2;" x1="579.2559" x2="804.5874" y1="434.7031" y2="434.7031"/><text fill="#000000" font-family="sans-serif" font-size="13" lengthAdjust="spacing" textLength="106.1709" x="591.2559" y="429.9609">400 Bad Request</text></g><g class="message" data-participant-1="CTRL" data-participant-2="SPA"><polygon fill="#181818" points="409.0176,460.0137,399.0176,464.0137,409.0176,468.0137,405.0176,464.0137" style="stroke:#181818;stroke-width:1;"/><line style="stroke:#181818;stroke-width:1;stroke-dasharray:2,2;" x1="403.0176" x2="563.2559" y1="464.0137" y2="464.0137"/><text fill="#000000" font-family="sans-serif" font-size="13" lengthAdjust="spacing" textLength="67.9961" x="415.0176" y="459.2715">show error</text></g><g class="message" data-participant-1="SPA" data-participant-2="SAR"><polygon fill="#181818" points="148.125,489.3242,138.125,493.3242,148.125,497.3242,144.125,493.3242" style="stroke:#181818;stroke-width:1;"/><line style="stroke:#181818;stroke-width:1;stroke-dasharray:2,2;" x1="142.125" x2="387.0176" y1="493.3242" y2="493.3242"/><text fill="#000000" font-family="sans-serif" font-size="13" lengthAdjust="spacing" textLength="81.0977" x="154.125" y="488.582">correct input</text></g><line style="stroke:#000000;stroke-width:1;stroke-dasharray:2,2;" x1="20" x2="1458.5493" y1="502.3242" y2="502.3242"/><text fill="#000000" font-family="sans-serif" font-size="11" font-weight="bold" lengthAdjust="spacing" textLength="61.1982" x="25" y="512.959">[vessel ok]</text><g class="message" data-participant-1="VES_SVC" data-participant-2="SVC"><polygon fill="#181818" points="826.5874,533.5898,816.5874,537.5898,826.5874,541.5898,822.5874,537.5898" style="stroke:#181818;stroke-width:1;"/><line style="stroke:#181818;stroke-width:1;stroke-dasharray:2,2;" x1="820.5874" x2="1007.1494" y1="537.5898" y2="537.5898"/><text fill="#000000" font-family="sans-serif" font-size="13" lengthAdjust="spacing" textLength="60.8105" x="832.5874" y="532.8477">vesselDto</text></g><g class="message" data-participant-1="SVC" data-participant-2="SVC"><line style="stroke:#181818;stroke-width:1;" x1="815.5874" x2="857.5874" y1="597.5215" y2="597.5215"/><line style="stroke:#181818;stroke-width:1;" x1="857.5874" x2="857.5874" y1="597.5215" y2="610.5215"/><line style="stroke:#181818;stroke-width:1;" x1="816.5874" x2="857.5874" y1="610.5215" y2="610.5215"/><polygon fill="#181818" points="826.5874,606.5215,816.5874,610.5215,826.5874,614.5215,822.5874,610.5215" style="stroke:#181818;stroke-width:1;"/><text fill="#000000" font-family="sans-serif" font-size="13" lengthAdjust="spacing" textLength="85.5283" x="822.5874" y="562.1582">new VVN(dto)</text><text fill="#000000" font-family="sans-serif" font-size="13" lengthAdjust="spacing" textLength="129.6191" x="822.5874" y="577.4688">status="in progress"</text><text fill="#000000" font-family="sans-serif" font-size="13" lengthAdjust="spacing" textLength="132.1582" x="822.5874" y="592.7793">createdBy=repUserId</text></g><g class="message" data-participant-1="SVC" data-participant-2="REPO"><polygon fill="#181818" points="1176.6382,635.832,1186.6382,639.832,1176.6382,643.832,1180.6382,639.832" style="stroke:#181818;stroke-width:1;"/><line style="stroke:#181818;stroke-width:1;" x1="815.5874" x2="1182.6382" y1="639.832" y2="639.832"/><text fill="#000000" font-family="sans-serif" font-size="13" lengthAdjust="spacing" textLength="92.4282" x="822.5874" y="635.0898">AddAsync(vvn)</text></g><g class="message" data-participant-1="REPO" data-participant-2="DB"><polygon fill="#181818" points="1369.6294,665.1426,1379.6294,669.1426,1369.6294,673.1426,1373.6294,669.1426" style="stroke:#181818;stroke-width:1;"/><line style="stroke:#181818;stroke-width:1;" x1="1198.6382" x2="1375.6294" y1="669.1426" y2="669.1426"/><text fill="#000000" font-family="sans-serif" font-size="13" lengthAdjust="spacing" textLength="133.415" x="1205.6382" y="664.4004">INSERT INTO VVNs ...</text></g><g class="message" data-participant-1="DB" data-participant-2="REPO"><polygon fill="#181818" points="1209.6382,694.4531,1199.6382,698.4531,1209.6382,702.4531,1205.6382,698.4531" style="stroke:#181818;stroke-width:1;"/><line style="stroke:#181818;stroke-width:1;stroke-dasharray:2,2;" x1="1203.6382" x2="1385.6294" y1="698.4531" y2="698.4531"/><text fill="#000000" font-family="sans-serif" font-size="13" lengthAdjust="spacing" textLength="71.6841" x="1215.6382" y="693.7109">inserted(Id)</text></g><g class="message" data-participant-1="REPO" data-participant-2="SVC"><polygon fill="#181818" points="826.5874,723.7637,816.5874,727.7637,826.5874,731.7637,822.5874,727.7637" style="stroke:#181818;stroke-width:1;"/><line style="stroke:#181818;stroke-width:1;stroke-dasharray:2,2;" x1="820.5874" x2="1192.6382" y1="727.7637" y2="727.7637"/><text fill="#000000" font-family="sans-serif" font-size="13" lengthAdjust="spacing" textLength="35.585" x="832.5874" y="723.0215">entity</text></g><g class="message" data-participant-1="SVC" data-participant-2="REPO"><polygon fill="#181818" points="1176.6382,753.0742,1186.6382,757.0742,1176.6382,761.0742,1180.6382,757.0742" style="stroke:#181818;stroke-width:1;"/><line style="stroke:#181818;stroke-width:1;" x1="815.5874" x2="1182.6382" y1="757.0742" y2="757.0742"/><text fill="#000000" font-family="sans-serif" font-size="13" lengthAdjust="spacing" textLength="128.0068" x="822.5874" y="752.332">SaveChangesAsync()</text></g><g class="message" data-participant-1="REPO" data-participant-2="DB"><polygon fill="#181818" points="1369.6294,782.3848,1379.6294,786.3848,1369.6294,790.3848,1373.6294,786.3848" style="stroke:#181818;stroke-width:1;"/><line style="stroke:#181818;stroke-width:1;" x1="1198.6382" x2="1375.6294" y1="786.3848" y2="786.3848"/><text fill="#000000" font-family="sans-serif" font-size="13" lengthAdjust="spacing" textLength="90.8921" x="1205.6382" y="781.6426">SaveChanges()</text></g><g class="message" data-participant-1="DB" data-participant-2="REPO"><polygon fill="#181818" points="1209.6382,811.6953,1199.6382,815.6953,1209.6382,819.6953,1205.6382,815.6953" style="stroke:#181818;stroke-width:1;"/><line style="stroke:#181818;stroke-width:1;stroke-dasharray:2,2;" x1="1203.6382" x2="1385.6294" y1="815.6953" y2="815.6953"/><text fill="#000000" font-family="sans-serif" font-size="13" lengthAdjust="spacing" textLength="48.5088" x="1215.6382" y="810.9531">success</text></g><g class="message" data-participant-1="REPO" data-participant-2="SVC"><polygon fill="#181818" points="826.5874,841.0059,816.5874,845.0059,826.5874,849.0059,822.5874,845.0059" style="stroke:#181818;stroke-width:1;"/><line style="stroke:#181818;stroke-width:1;stroke-dasharray:2,2;" x1="820.5874" x2="1192.6382" y1="845.0059" y2="845.0059"/><text fill="#000000" font-family="sans-serif" font-size="13" lengthAdjust="spacing" textLength="48.5088" x="832.5874" y="840.2637">success</text></g><g class="message" data-participant-1="SVC" data-participant-2="SVC"><line style="stroke:#181818;stroke-width:1;" x1="815.5874" x2="857.5874" y1="874.3164" y2="874.3164"/><line style="stroke:#181818;stroke-width:1;" x1="857.5874" x2="857.5874" y1="874.3164" y2="887.3164"/><line style="stroke:#181818;stroke-width:1;" x1="816.5874" x2="857.5874" y1="887.3164" y2="887.3164"/><polygon fill="#181818" points="826.5874,883.3164,816.5874,887.3164,826.5874,891.3164,822.5874,887.3164" style="stroke:#181818;stroke-width:1;"/><text fill="#000000" font-family="sans-serif" font-size="13" lengthAdjust="spacing" textLength="82.8306" x="822.5874" y="869.5742">ToDto(entity)</text></g><g class="message" data-participant-1="SVC" data-participant-2="CTRL"><polygon fill="#181818" points="585.2559,912.627,575.2559,916.627,585.2559,920.627,581.2559,916.627" style="stroke:#181818;stroke-width:1;"/><line style="stroke:#181818;stroke-width:1;stroke-dasharray:2,2;" x1="579.2559" x2="809.5874" y1="916.627" y2="916.627"/><text fill="#000000" font-family="sans-serif" font-size="13" lengthAdjust="spacing" textLength="188.0684" x="591.2559" y="911.8848">VvnDto (status="in progress")</text></g><g class="message" data-participant-1="CTRL" data-participant-2="SPA"><polygon fill="#181818" points="409.0176,941.9375,399.0176,945.9375,409.0176,949.9375,405.0176,945.9375" style="stroke:#181818;stroke-width:1;"/><line style="stroke:#181818;stroke-width:1;stroke-dasharray:2,2;" x1="403.0176" x2="568.2559" y1="945.9375" y2="945.9375"/><text fill="#000000" font-family="sans-serif" font-size="13" lengthAdjust="spacing" textLength="142.2383" x="415.0176" y="941.1953">201 Created + VvnDto</text></g><g class="message" data-participant-1="SPA" data-participant-2="SAR"><polygon fill="#181818" points="148.125,971.248,138.125,975.248,148.125,979.248,144.125,975.248" style="stroke:#181818;stroke-width:1;"/><line style="stroke:#181818;stroke-width:1;stroke-dasharray:2,2;" x1="142.125" x2="392.0176" y1="975.248" y2="975.248"/><text fill="#000000" font-family="sans-serif" font-size="13" lengthAdjust="spacing" textLength="117.9331" x="154.125" y="970.5059">show draft created</text></g><!--SRC=[ZLHTRzem57tdLrpnKj0exQOzLUgg4D8DgGMKPDaBqcGbJcejipFRf4BJfFwGxS_rb-pQ-I04aFfGKUnxZiyzzrmqqpa5LrAYAKHKAPf3n1JJi1IQfImccWaEeoXQZk4I5fnfHl8AW1U30Ocra30CdbXHC9w1ar6kmQU5f0h_mwgI3e4e21n_K12fMSmAWYN3cs3jL3ThftTJ2R4wkZAKAxYM8i-fj40tz1_UXWoeB5bS2udSaw1kJUG5ty_L7P5ZimAFXDnPhE-jLptWMaZz83Acy4pDPxPiFXiCCYcsHUj-j1o0iGakFnbFu0PIbkUrvVT2_XoLLi0YcMou5peJyCBv168YC_58E4kfqdVuNTBd1K_5tHZfS3oiDEp6P4EFl4Xld4F-zIe8uOeKxAeikThmtvKKL3BNuayNRgt60miq-Y8NyKwIE6h7ur6YnGGaBRugAXV9uSDe8tw_W8ZaB34dLHTOdb99UKoDBAH3rjfsPFvCzMotsBDFczOFk9inGOj4alaCyO7tuBaXtFkhnphM2hvzyNmF5idjNPS3vm06StdmVgqHeystUOuL2Jr4a5mtHLneICMM9tZSKTAwL3FKNUxT_tXz3JEIuBByskBeR4dbRni0zIIUWKefP4LWfcSkCIGt40ifQQo1yM9ReJiYzzPWwwtduiSPZTKzJlqSZps_QBAAcytqpiJuzUKlur18aU72gzUNV_jEs_xfimct6UDumnN-9cpLxR236cvuR7cJsUwsJL7pv9fAXPjJxqVBRTQi6q5CyDZUjzBj8feJMzeaOx4CF3_4Zt1bA1LCfzD3d9rlcudw7SPH52eSLH4y3aJpJDjsvL6_reggEmj8IK-qP8xT9y8pgghMtjHN1zK7d6n8RUCOlNzRBsUAzyqS33mK6AHHrV_uLFAZacC5Z4vbuSZTDdsztVXm_RwEOmBlQie-jldPwg-EtQj4abH3dRoZL_7t4dS7bnh__WC0]--></g></svg>