<svg xmlns="http://www.w3.org/2000/svg" xmlns:xlink="http://www.w3.org/1999/xlink" contentStyleType="text/css" data-diagram-type="SEQUENCE" height="1070px" preserveAspectRatio="none" style="width:1369px;height:1070px;background:#FFFFFF;" version="1.1" viewBox="0 0 1369 1070" width="1369px" zoomAndPan="magnify"><title>Submit VVN - Change Status to "submitted"</title><defs/><g><text fill="#000000" font-family="sans-serif" font-size="14" font-weight="bold" lengthAdjust="spacing" textLength="316.5449" x="527.9968" y="28.5352">Submit VVN - Change Status to "submitted"</text><g><title>.SPA</title><rect fill="#FFFFFF" height="783.0293" style="stroke:#181818;stroke-width:1;" width="10" x="318.2441" y="174.5977"/></g><g><title>.VesselVisitNotificationsController</title><rect fill="#FFFFFF" height="724.4082" style="stroke:#181818;stroke-width:1;" width="10" x="532.8496" y="203.9082"/></g><g><title>.VesselVisitNotificationService</title><rect fill="#FFFFFF" height="665.7871" style="stroke:#181818;stroke-width:1;" width="10" x="774.1812" y="233.2188"/></g><g><title>.VesselVisitNotificationRepository</title><rect fill="#FFFFFF" height="103.2422" style="stroke:#181818;stroke-width:1;" width="10" x="1053.7168" y="262.5293"/></g><g><title>.VesselVisitNotificationRepository</title><rect fill="#FFFFFF" height="87.9316" style="stroke:#181818;stroke-width:1;" width="10" x="1053.7168" y="622.2109"/></g><g><title>.VesselVisitNotificationRepository</title><rect fill="#FFFFFF" height="87.9316" style="stroke:#181818;stroke-width:1;" width="10" x="1053.7168" y="739.4531"/></g><g><title>.PortLogisticsDB</title><rect fill="#FFFFFF" height="29.3105" style="stroke:#181818;stroke-width:1;" width="10" x="1276.6187" y="307.1504"/></g><g><title>.PortLogisticsDB</title><rect fill="#FFFFFF" height="29.3105" style="stroke:#181818;stroke-width:1;" width="10" x="1276.6187" y="651.5215"/></g><g><title>.PortLogisticsDB</title><rect fill="#FFFFFF" height="29.3105" style="stroke:#181818;stroke-width:1;" width="10" x="1276.6187" y="768.7637"/></g><rect fill="none" height="836.6504" style="stroke:#000000;stroke-width:1.5;" width="1353.5386" x="10" y="135.9766"/><rect fill="none" height="542.5449" style="stroke:#000000;stroke-width:1.5;" width="1333.5386" x="20" y="423.082"/><g><title>Shipping Agent Representative</title><rect fill="#000000" fill-opacity="0.00000" height="870.6504" width="8" x="133.125" y="118.9766"/><line style="stroke:#181818;stroke-width:0.5;stroke-dasharray:5,5;" x1="137" x2="137" y1="118.9766" y2="989.627"/></g><g><title>.SPA</title><rect fill="#000000" fill-opacity="0.00000" height="870.6504" width="8" x="319.2441" y="118.9766"/><line style="stroke:#181818;stroke-width:0.5;stroke-dasharray:5,5;" x1="322.5605" x2="322.5605" y1="118.9766" y2="989.627"/></g><g><title>.VesselVisitNotificationsController</title><rect fill="#000000" fill-opacity="0.00000" height="870.6504" width="8" x="533.8496" y="118.9766"/><line style="stroke:#181818;stroke-width:0.5;stroke-dasharray:5,5;" x1="537.1924" x2="537.1924" y1="118.9766" y2="989.627"/></g><g><title>.VesselVisitNotificationService</title><rect fill="#000000" fill-opacity="0.00000" height="870.6504" width="8" x="775.1812" y="118.9766"/><line style="stroke:#181818;stroke-width:0.5;stroke-dasharray:5,5;" x1="778.5068" x2="778.5068" y1="118.9766" y2="989.627"/></g><g><title>.VesselVisitNotificationRepository</title><rect fill="#000000" fill-opacity="0.00000" height="870.6504" width="8" x="1054.7168" y="118.9766"/><line style="stroke:#181818;stroke-width:0.5;stroke-dasharray:5,5;" x1="1058.6455" x2="1058.6455" y1="118.9766" y2="989.627"/></g><g><title>.PortLogisticsDB</title><rect fill="#000000" fill-opacity="0.00000" height="870.6504" width="8" x="1277.6187" y="118.9766"/><line style="stroke:#181818;stroke-width:0.5;stroke-dasharray:5,5;" x1="1280.6987" x2="1280.6987" y1="118.9766" y2="989.627"/></g><g class="participant participant-head" data-participant="SAR"><text fill="#000000" font-family="sans-serif" font-size="14" lengthAdjust="spacing" textLength="208.25" x="30" y="116.0234">Shipping Agent Representative</text><ellipse cx="137.125" cy="50.9883" fill="#E2E2F0" rx="8" ry="8" style="stroke:#181818;stroke-width:0.5;"/><path d="M137.125,58.9883 L137.125,85.9883 M124.125,66.9883 L150.125,66.9883 M137.125,85.9883 L124.125,100.9883 M137.125,85.9883 L150.125,100.9883" fill="none" style="stroke:#181818;stroke-width:0.5;"/></g><g class="participant participant-tail" data-participant="SAR"><text fill="#000000" font-family="sans-serif" font-size="14" lengthAdjust="spacing" textLength="208.25" x="30" y="1002.1621">Shipping Agent Representative</text><ellipse cx="137.125" cy="1013.6152" fill="#E2E2F0" rx="8" ry="8" style="stroke:#181818;stroke-width:0.5;"/><path d="M137.125,1021.6152 L137.125,1048.6152 M124.125,1029.6152 L150.125,1029.6152 M137.125,1048.6152 L124.125,1063.6152 M137.125,1048.6152 L150.125,1063.6152" fill="none" style="stroke:#181818;stroke-width:0.5;"/></g><g class="participant participant-head" data-participant="SPA"><rect fill="#E2E2F0" height="30.4883" rx="2.5" ry="2.5" style="stroke:#181818;stroke-width:0.5;" width="43.3672" x="301.5605" y="87.4883"/><text fill="#000000" font-family="sans-serif" font-size="14" lengthAdjust="spacing" textLength="29.3672" x="308.5605" y="108.0234">:SPA</text></g><g class="participant participant-tail" data-participant="SPA"><rect fill="#E2E2F0" height="30.4883" rx="2.5" ry="2.5" style="stroke:#181818;stroke-width:0.5;" width="43.3672" x="301.5605" y="988.627"/><text fill="#000000" font-family="sans-serif" font-size="14" lengthAdjust="spacing" textLength="29.3672" x="308.5605" y="1009.1621">:SPA</text></g><g class="participant participant-head" data-participant="CTRL"><rect fill="#E2E2F0" height="30.4883" rx="2.5" ry="2.5" style="stroke:#181818;stroke-width:0.5;" width="245.3145" x="415.1924" y="87.4883"/><text fill="#000000" font-family="sans-serif" font-size="14" lengthAdjust="spacing" textLength="231.3145" x="422.1924" y="108.0234">:VesselVisitNotificationsController</text></g><g class="participant participant-tail" data-participant="CTRL"><rect fill="#E2E2F0" height="30.4883" rx="2.5" ry="2.5" style="stroke:#181818;stroke-width:0.5;" width="245.3145" x="415.1924" y="988.627"/><text fill="#000000" font-family="sans-serif" font-size="14" lengthAdjust="spacing" textLength="231.3145" x="422.1924" y="1009.1621">:VesselVisitNotificationsController</text></g><g class="participant participant-head" data-participant="SVC"><rect fill="#E2E2F0" height="30.4883" rx="2.5" ry="2.5" style="stroke:#181818;stroke-width:0.5;" width="217.3486" x="670.5068" y="87.4883"/><text fill="#000000" font-family="sans-serif" font-size="14" lengthAdjust="spacing" textLength="203.3486" x="677.5068" y="108.0234">:VesselVisitNotificationService</text></g><g class="participant participant-tail" data-participant="SVC"><rect fill="#E2E2F0" height="30.4883" rx="2.5" ry="2.5" style="stroke:#181818;stroke-width:0.5;" width="217.3486" x="670.5068" y="988.627"/><text fill="#000000" font-family="sans-serif" font-size="14" lengthAdjust="spacing" textLength="203.3486" x="677.5068" y="1009.1621">:VesselVisitNotificationService</text></g><g class="participant participant-head" data-participant="REPO"><rect fill="#E2E2F0" height="30.4883" rx="2.5" ry="2.5" style="stroke:#181818;stroke-width:0.5;" width="242.1426" x="937.6455" y="87.4883"/><text fill="#000000" font-family="sans-serif" font-size="14" lengthAdjust="spacing" textLength="228.1426" x="944.6455" y="108.0234">:VesselVisitNotificationRepository</text></g><g class="participant participant-tail" data-participant="REPO"><rect fill="#E2E2F0" height="30.4883" rx="2.5" ry="2.5" style="stroke:#181818;stroke-width:0.5;" width="242.1426" x="937.6455" y="988.627"/><text fill="#000000" font-family="sans-serif" font-size="14" lengthAdjust="spacing" textLength="228.1426" x="944.6455" y="1009.1621">:VesselVisitNotificationRepository</text></g><g class="participant participant-head" data-participant="DB"><rect fill="#E2E2F0" height="30.4883" rx="2.5" ry="2.5" style="stroke:#181818;stroke-width:0.5;" width="123.8398" x="1219.6987" y="87.4883"/><text fill="#000000" font-family="sans-serif" font-size="14" lengthAdjust="spacing" textLength="109.8398" x="1226.6987" y="108.0234">:PortLogisticsDB</text></g><g class="participant participant-tail" data-participant="DB"><rect fill="#E2E2F0" height="30.4883" rx="2.5" ry="2.5" style="stroke:#181818;stroke-width:0.5;" width="123.8398" x="1219.6987" y="988.627"/><text fill="#000000" font-family="sans-serif" font-size="14" lengthAdjust="spacing" textLength="109.8398" x="1226.6987" y="1009.1621">:PortLogisticsDB</text></g><g><title>.SPA</title><rect fill="#FFFFFF" height="783.0293" style="stroke:#181818;stroke-width:1;" width="10" x="318.2441" y="174.5977"/></g><g><title>.VesselVisitNotificationsController</title><rect fill="#FFFFFF" height="724.4082" style="stroke:#181818;stroke-width:1;" width="10" x="532.8496" y="203.9082"/></g><g><title>.VesselVisitNotificationService</title><rect fill="#FFFFFF" height="665.7871" style="stroke:#181818;stroke-width:1;" width="10" x="774.1812" y="233.2188"/></g><g><title>.VesselVisitNotificationRepository</title><rect fill="#FFFFFF" height="103.2422" style="stroke:#181818;stroke-width:1;" width="10" x="1053.7168" y="262.5293"/></g><g><title>.VesselVisitNotificationRepository</title><rect fill="#FFFFFF" height="87.9316" style="stroke:#181818;stroke-width:1;" width="10" x="1053.7168" y="622.2109"/></g><g><title>.VesselVisitNotificationRepository</title><rect fill="#FFFFFF" height="87.9316" style="stroke:#181818;stroke-width:1;" width="10" x="1053.7168" y="739.4531"/></g><g><title>.PortLogisticsDB</title><rect fill="#FFFFFF" height="29.3105" style="stroke:#181818;stroke-width:1;" width="10" x="1276.6187" y="307.1504"/></g><g><title>.PortLogisticsDB</title><rect fill="#FFFFFF" height="29.3105" style="stroke:#181818;stroke-width:1;" width="10" x="1276.6187" y="651.5215"/></g><g><title>.PortLogisticsDB</title><rect fill="#FFFFFF" height="29.3105" style="stroke:#181818;stroke-width:1;" width="10" x="1276.6187" y="768.7637"/></g><path d="M10,135.9766 L134.1235,135.9766 L134.1235,143.2871 L124.1235,153.2871 L10,153.2871 L10,135.9766" fill="#EEEEEE" style="stroke:#000000;stroke-width:1.5;"/><rect fill="none" height="836.6504" style="stroke:#000000;stroke-width:1.5;" width="1353.5386" x="10" y="135.9766"/><text fill="#000000" font-family="sans-serif" font-size="13" font-weight="bold" lengthAdjust="spacing" textLength="79.1235" x="25" y="149.5449">Submit VVN</text><g class="message" data-participant-1="SAR" data-participant-2="SPA"><polygon fill="#181818" points="306.2441,170.5977,316.2441,174.5977,306.2441,178.5977,310.2441,174.5977" style="stroke:#181818;stroke-width:1;"/><line style="stroke:#181818;stroke-width:1;" x1="137.125" x2="312.2441" y1="174.5977" y2="174.5977"/><text fill="#000000" font-family="sans-serif" font-size="13" lengthAdjust="spacing" textLength="162.1191" x="144.125" y="169.8555">submitForApproval(vvnId)</text></g><g class="message" data-participant-1="SPA" data-participant-2="CTRL"><polygon fill="#181818" points="520.8496,199.9082,530.8496,203.9082,520.8496,207.9082,524.8496,203.9082" style="stroke:#181818;stroke-width:1;"/><line style="stroke:#181818;stroke-width:1;" x1="328.2441" x2="526.8496" y1="203.9082" y2="203.9082"/><text fill="#000000" font-family="sans-serif" font-size="13" lengthAdjust="spacing" textLength="185.6055" x="335.2441" y="199.166">PATCH /api/vvns/{id}/submit</text></g><g class="message" data-participant-1="CTRL" data-participant-2="SVC"><polygon fill="#181818" points="762.1812,229.2188,772.1812,233.2188,762.1812,237.2188,766.1812,233.2188" style="stroke:#181818;stroke-width:1;"/><line style="stroke:#181818;stroke-width:1;" x1="542.8496" x2="768.1812" y1="233.2188" y2="233.2188"/><text fill="#000000" font-family="sans-serif" font-size="13" lengthAdjust="spacing" textLength="166.499" x="549.8496" y="228.4766">SubmitAsync(id,repUserId)</text></g><g class="message" data-participant-1="SVC" data-participant-2="REPO"><polygon fill="#181818" points="1041.7168,258.5293,1051.7168,262.5293,1041.7168,266.5293,1045.7168,262.5293" style="stroke:#181818;stroke-width:1;"/><line style="stroke:#181818;stroke-width:1;" x1="784.1812" x2="1047.7168" y1="262.5293" y2="262.5293"/><text fill="#000000" font-family="sans-serif" font-size="13" lengthAdjust="spacing" textLength="250.5356" x="791.1812" y="257.7871">GetDraftByIdForUserAsync(id,repUserId)</text></g><g class="message" data-participant-1="REPO" data-participant-2="DB"><polygon fill="#181818" points="1264.6187,303.1504,1274.6187,307.1504,1264.6187,311.1504,1268.6187,307.1504" style="stroke:#181818;stroke-width:1;"/><line style="stroke:#181818;stroke-width:1;" x1="1063.7168" x2="1270.6187" y1="307.1504" y2="307.1504"/><text fill="#000000" font-family="sans-serif" font-size="13" lengthAdjust="spacing" textLength="180.6606" x="1070.7168" y="287.0977">SELECT * FROM VVNs WHERE</text><text fill="#000000" font-family="sans-serif" font-size="13" lengthAdjust="spacing" textLength="193.9019" x="1070.7168" y="302.4082">Id=? AND status="in progress"</text></g><g class="message" data-participant-1="DB" data-participant-2="REPO"><polygon fill="#181818" points="1074.7168,332.4609,1064.7168,336.4609,1074.7168,340.4609,1070.7168,336.4609" style="stroke:#181818;stroke-width:1;"/><line style="stroke:#181818;stroke-width:1;stroke-dasharray:2,2;" x1="1068.7168" x2="1280.6187" y1="336.4609" y2="336.4609"/><text fill="#000000" font-family="sans-serif" font-size="13" lengthAdjust="spacing" textLength="35.585" x="1080.7168" y="331.7188">entity</text></g><g class="message" data-participant-1="REPO" data-participant-2="SVC"><polygon fill="#181818" points="795.1812,361.7715,785.1812,365.7715,795.1812,369.7715,791.1812,365.7715" style="stroke:#181818;stroke-width:1;"/><line style="stroke:#181818;stroke-width:1;stroke-dasharray:2,2;" x1="789.1812" x2="1057.7168" y1="365.7715" y2="365.7715"/><text fill="#000000" font-family="sans-serif" font-size="13" lengthAdjust="spacing" textLength="21.5249" x="801.1812" y="361.0293">vvn</text></g><g class="message" data-participant-1="SVC" data-participant-2="SVC"><line style="stroke:#181818;stroke-width:1;" x1="784.1812" x2="826.1812" y1="395.082" y2="395.082"/><line style="stroke:#181818;stroke-width:1;" x1="826.1812" x2="826.1812" y1="395.082" y2="408.082"/><line style="stroke:#181818;stroke-width:1;" x1="785.1812" x2="826.1812" y1="408.082" y2="408.082"/><polygon fill="#181818" points="795.1812,404.082,785.1812,408.082,795.1812,412.082,791.1812,408.082" style="stroke:#181818;stroke-width:1;"/><text fill="#000000" font-family="sans-serif" font-size="13" lengthAdjust="spacing" textLength="189.8774" x="791.1812" y="390.3398">ValidateAllRequiredFields(vvn)</text></g><path d="M20,423.082 L82.1387,423.082 L82.1387,430.3926 L72.1387,440.3926 L20,440.3926 L20,423.082" fill="#EEEEEE" style="stroke:#000000;stroke-width:1.5;"/><rect fill="none" height="542.5449" style="stroke:#000000;stroke-width:1.5;" width="1333.5386" x="20" y="423.082"/><text fill="#000000" font-family="sans-serif" font-size="13" font-weight="bold" lengthAdjust="spacing" textLength="17.1387" x="35" y="436.6504">alt</text><text fill="#000000" font-family="sans-serif" font-size="11" font-weight="bold" lengthAdjust="spacing" textLength="221.3643" x="97.1387" y="435.7168">[missing fields/cargo validation failed]</text><g class="message" data-participant-1="SVC" data-participant-2="CTRL"><polygon fill="#181818" points="553.8496,473.0137,543.8496,477.0137,553.8496,481.0137,549.8496,477.0137" style="stroke:#181818;stroke-width:1;"/><line style="stroke:#181818;stroke-width:1;stroke-dasharray:2,2;" x1="547.8496" x2="773.1812" y1="477.0137" y2="477.0137"/><text fill="#000000" font-family="sans-serif" font-size="13" lengthAdjust="spacing" textLength="106.1709" x="559.8496" y="456.9609">400 Bad Request</text><text fill="#000000" font-family="sans-serif" font-size="13" lengthAdjust="spacing" textLength="110.3223" x="559.8496" y="472.2715">"VVN incomplete"</text></g><g class="message" data-participant-1="CTRL" data-participant-2="SPA"><polygon fill="#181818" points="339.2441,502.3242,329.2441,506.3242,339.2441,510.3242,335.2441,506.3242" style="stroke:#181818;stroke-width:1;"/><line style="stroke:#181818;stroke-width:1;stroke-dasharray:2,2;" x1="333.2441" x2="531.8496" y1="506.3242" y2="506.3242"/><text fill="#000000" font-family="sans-serif" font-size="13" lengthAdjust="spacing" textLength="85.8584" x="345.2441" y="501.582">show reasons</text></g><g class="message" data-participant-1="SPA" data-participant-2="SAR"><polygon fill="#181818" points="148.125,531.6348,138.125,535.6348,148.125,539.6348,144.125,535.6348" style="stroke:#181818;stroke-width:1;"/><line style="stroke:#181818;stroke-width:1;stroke-dasharray:2,2;" x1="142.125" x2="317.2441" y1="535.6348" y2="535.6348"/><text fill="#000000" font-family="sans-serif" font-size="13" lengthAdjust="spacing" textLength="50.8447" x="154.125" y="530.8926">fix form</text></g><line style="stroke:#000000;stroke-width:1;stroke-dasharray:2,2;" x1="20" x2="1353.5386" y1="544.6348" y2="544.6348"/><text fill="#000000" font-family="sans-serif" font-size="11" font-weight="bold" lengthAdjust="spacing" textLength="35.5889" x="25" y="555.2695">[valid]</text><g class="message" data-participant-1="SVC" data-participant-2="SVC"><line style="stroke:#181818;stroke-width:1;" x1="784.1812" x2="826.1812" y1="579.9004" y2="579.9004"/><line style="stroke:#181818;stroke-width:1;" x1="826.1812" x2="826.1812" y1="579.9004" y2="592.9004"/><line style="stroke:#181818;stroke-width:1;" x1="785.1812" x2="826.1812" y1="592.9004" y2="592.9004"/><polygon fill="#181818" points="795.1812,588.9004,785.1812,592.9004,795.1812,596.9004,791.1812,592.9004" style="stroke:#181818;stroke-width:1;"/><text fill="#000000" font-family="sans-serif" font-size="13" lengthAdjust="spacing" textLength="148.2051" x="791.1812" y="575.1582">vvn.Status="submitted"</text></g><g class="message" data-participant-1="SVC" data-participant-2="REPO"><polygon fill="#181818" points="1041.7168,618.2109,1051.7168,622.2109,1041.7168,626.2109,1045.7168,622.2109" style="stroke:#181818;stroke-width:1;"/><line style="stroke:#181818;stroke-width:1;" x1="784.1812" x2="1047.7168" y1="622.2109" y2="622.2109"/><text fill="#000000" font-family="sans-serif" font-size="13" lengthAdjust="spacing" textLength="111.7505" x="791.1812" y="617.4688">UpdateAsync(vvn)</text></g><g class="message" data-participant-1="REPO" data-participant-2="DB"><polygon fill="#181818" points="1264.6187,647.5215,1274.6187,651.5215,1264.6187,655.5215,1268.6187,651.5215" style="stroke:#181818;stroke-width:1;"/><line style="stroke:#181818;stroke-width:1;" x1="1063.7168" x2="1270.6187" y1="651.5215" y2="651.5215"/><text fill="#000000" font-family="sans-serif" font-size="13" lengthAdjust="spacing" textLength="103.9619" x="1070.7168" y="646.7793">UPDATE VVNs ...</text></g><g class="message" data-participant-1="DB" data-participant-2="REPO"><polygon fill="#181818" points="1074.7168,676.832,1064.7168,680.832,1074.7168,684.832,1070.7168,680.832" style="stroke:#181818;stroke-width:1;"/><line style="stroke:#181818;stroke-width:1;stroke-dasharray:2,2;" x1="1068.7168" x2="1280.6187" y1="680.832" y2="680.832"/><text fill="#000000" font-family="sans-serif" font-size="13" lengthAdjust="spacing" textLength="15.5835" x="1080.7168" y="676.0898">ok</text></g><g class="message" data-participant-1="REPO" data-participant-2="SVC"><polygon fill="#181818" points="795.1812,706.1426,785.1812,710.1426,795.1812,714.1426,791.1812,710.1426" style="stroke:#181818;stroke-width:1;"/><line style="stroke:#181818;stroke-width:1;stroke-dasharray:2,2;" x1="789.1812" x2="1057.7168" y1="710.1426" y2="710.1426"/><text fill="#000000" font-family="sans-serif" font-size="13" lengthAdjust="spacing" textLength="15.5835" x="801.1812" y="705.4004">ok</text></g><g class="message" data-participant-1="SVC" data-participant-2="REPO"><polygon fill="#181818" points="1041.7168,735.4531,1051.7168,739.4531,1041.7168,743.4531,1045.7168,739.4531" style="stroke:#181818;stroke-width:1;"/><line style="stroke:#181818;stroke-width:1;" x1="784.1812" x2="1047.7168" y1="739.4531" y2="739.4531"/><text fill="#000000" font-family="sans-serif" font-size="13" lengthAdjust="spacing" textLength="128.0068" x="791.1812" y="734.7109">SaveChangesAsync()</text></g><g class="message" data-participant-1="REPO" data-participant-2="DB"><polygon fill="#181818" points="1264.6187,764.7637,1274.6187,768.7637,1264.6187,772.7637,1268.6187,768.7637" style="stroke:#181818;stroke-width:1;"/><line style="stroke:#181818;stroke-width:1;" x1="1063.7168" x2="1270.6187" y1="768.7637" y2="768.7637"/><text fill="#000000" font-family="sans-serif" font-size="13" lengthAdjust="spacing" textLength="90.8921" x="1070.7168" y="764.0215">SaveChanges()</text></g><g class="message" data-participant-1="DB" data-participant-2="REPO"><polygon fill="#181818" points="1074.7168,794.0742,1064.7168,798.0742,1074.7168,802.0742,1070.7168,798.0742" style="stroke:#181818;stroke-width:1;"/><line style="stroke:#181818;stroke-width:1;stroke-dasharray:2,2;" x1="1068.7168" x2="1280.6187" y1="798.0742" y2="798.0742"/><text fill="#000000" font-family="sans-serif" font-size="13" lengthAdjust="spacing" textLength="15.5835" x="1080.7168" y="793.332">ok</text></g><g class="message" data-participant-1="REPO" data-participant-2="SVC"><polygon fill="#181818" points="795.1812,823.3848,785.1812,827.3848,795.1812,831.3848,791.1812,827.3848" style="stroke:#181818;stroke-width:1;"/><line style="stroke:#181818;stroke-width:1;stroke-dasharray:2,2;" x1="789.1812" x2="1057.7168" y1="827.3848" y2="827.3848"/><text fill="#000000" font-family="sans-serif" font-size="13" lengthAdjust="spacing" textLength="15.5835" x="801.1812" y="822.6426">ok</text></g><g class="message" data-participant-1="SVC" data-participant-2="SVC"><line style="stroke:#181818;stroke-width:1;" x1="784.1812" x2="826.1812" y1="856.6953" y2="856.6953"/><line style="stroke:#181818;stroke-width:1;" x1="826.1812" x2="826.1812" y1="856.6953" y2="869.6953"/><line style="stroke:#181818;stroke-width:1;" x1="785.1812" x2="826.1812" y1="869.6953" y2="869.6953"/><polygon fill="#181818" points="795.1812,865.6953,785.1812,869.6953,795.1812,873.6953,791.1812,869.6953" style="stroke:#181818;stroke-width:1;"/><text fill="#000000" font-family="sans-serif" font-size="13" lengthAdjust="spacing" textLength="68.7705" x="791.1812" y="851.9531">ToDto(vvn)</text></g><g class="message" data-participant-1="SVC" data-participant-2="CTRL"><polygon fill="#181818" points="553.8496,895.0059,543.8496,899.0059,553.8496,903.0059,549.8496,899.0059" style="stroke:#181818;stroke-width:1;"/><line style="stroke:#181818;stroke-width:1;stroke-dasharray:2,2;" x1="547.8496" x2="778.1812" y1="899.0059" y2="899.0059"/><text fill="#000000" font-family="sans-serif" font-size="13" lengthAdjust="spacing" textLength="176.5283" x="559.8496" y="894.2637">VvnDto(status="submitted")</text></g><g class="message" data-participant-1="CTRL" data-participant-2="SPA"><polygon fill="#181818" points="339.2441,924.3164,329.2441,928.3164,339.2441,932.3164,335.2441,928.3164" style="stroke:#181818;stroke-width:1;"/><line style="stroke:#181818;stroke-width:1;stroke-dasharray:2,2;" x1="333.2441" x2="536.8496" y1="928.3164" y2="928.3164"/><text fill="#000000" font-family="sans-serif" font-size="13" lengthAdjust="spacing" textLength="133.5864" x="345.2441" y="923.5742">200 OK + new status</text></g><g class="message" data-participant-1="SPA" data-participant-2="SAR"><polygon fill="#181818" points="148.125,953.627,138.125,957.627,148.125,961.627,144.125,957.627" style="stroke:#181818;stroke-width:1;"/><line style="stroke:#181818;stroke-width:1;stroke-dasharray:2,2;" x1="142.125" x2="322.2441" y1="957.627" y2="957.627"/><text fill="#000000" font-family="sans-serif" font-size="13" lengthAdjust="spacing" textLength="107.999" x="154.125" y="952.8848">Sent for approval</text></g><!--SRC=[jLN1Sjem4Btp5Jk-96aRo7HwOYRj69iqcLB2sCIzvABWnMWg95UIdJAT_djN4Yd679fB3yo0j6_twRqdORaL27dpjEKMYc8Ebv1icAnepJBR6B0A8kEtBPRHOC1MLcc8yWslQouhY2kK5ZAiDHhwnYnlCG9c88-pGSsqvIjUCog9nlaY3ZkBkBTJe34e2cwudIlBrtn5VPGqYP9MAo5GUs2op6QlG-QeMxxQ4ocIru7e48gMbDvvN3PTtFU02wNjJ5NSq9f99xuidGm6bLPDtL5n0ExuSFdHdHN640IyKJgkQwrQ9ixRLjwL5rH7UlAMMVIgE1m12EUEIi15l4nkOSHgFYA46VtYvUzHwDR5Uc5emQFSr28XSE0JcvrSdVFodSRwmQ3kZoLrwFSPp1GheTHiRU49XPALSvVSjnjkG1_vwsZI11haDA99dz6c3ZdPtPLqIZVc7sEzk13mr2UTEBxJsJHPmXkuoUw_EXaDVBkTPjD7akhw4yJp58mFvNN49P2G5N4oKRSjcG6ksUM16v7cTaVB9HwNXTb_rI9zZuiyHI_Df35SqYZGZS0nR1lZD89r8yGELcfR2xGTKKA_WWbUKfzOY0n_D5nZUSDHbCPvV-4QCs5XournGg_zrcZ5TAMW3L2A9AmP5rXIyRxx8HeVhgvWGfQvvcZieupSzUNoXK_aGI4HXo1kr3EPoGnThj3KnSrjKrp7nE8dh9NUqXOAWu68hpk3fMQIReSZvLp00wUEWiDyRr3toUWKxZrvgBqoFY9U3LVIpqOl7G-BD5vEGoo6m-4nn1lQTrvzzujztq-SFwrxiRxFEsSjXkVH1FAlOjv1zG7_ctSeNAhKgeFGlI0LhNJRviIvYtxx_Ljnaght5CNxB_0M93xlhsWV-l92zHENktyFYXom_SjuCfEUHKgZB0Vq-GC0]--></g></svg>