<svg xmlns="http://www.w3.org/2000/svg" xmlns:xlink="http://www.w3.org/1999/xlink" contentStyleType="text/css" data-diagram-type="SEQUENCE" height="1028px" preserveAspectRatio="none" style="width:1495px;height:1028px;background:#FFFFFF;" version="1.1" viewBox="0 0 1495 1028" width="1495px" zoomAndPan="magnify"><title>Update VVN - Status maintained "in progress"</title><defs/><g><text fill="#000000" font-family="sans-serif" font-size="14" font-weight="bold" lengthAdjust="spacing" textLength="333.9014" x="582.3635" y="28.5352">Update VVN - Status maintained "in progress"</text><g><title>.SPA</title><rect fill="#FFFFFF" height="725.4082" style="stroke:#181818;stroke-width:1;" width="10" x="310.0112" y="189.9082"/></g><g><title>.VesselVisitNotificationsController</title><rect fill="#FFFFFF" height="651.4766" style="stroke:#181818;stroke-width:1;" width="10" x="474.1655" y="234.5293"/></g><g><title>.VesselVisitNotificationService</title><rect fill="#FFFFFF" height="592.8555" style="stroke:#181818;stroke-width:1;" width="10" x="715.4971" y="263.8398"/></g><g><title>.VesselVisitNotificationRepository</title><rect fill="#FFFFFF" height="87.9316" style="stroke:#181818;stroke-width:1;" width="10" x="995.0327" y="293.1504"/></g><g><title>.VesselVisitNotificationRepository</title><rect fill="#FFFFFF" height="87.9316" style="stroke:#181818;stroke-width:1;" width="10" x="995.0327" y="579.9004"/></g><g><title>.VesselVisitNotificationRepository</title><rect fill="#FFFFFF" height="87.9316" style="stroke:#181818;stroke-width:1;" width="10" x="995.0327" y="697.1426"/></g><g><title>.PortLogisticsDB</title><rect fill="#FFFFFF" height="29.3105" style="stroke:#181818;stroke-width:1;" width="10" x="1402.7085" y="322.4609"/></g><g><title>.PortLogisticsDB</title><rect fill="#FFFFFF" height="29.3105" style="stroke:#181818;stroke-width:1;" width="10" x="1402.7085" y="609.2109"/></g><g><title>.PortLogisticsDB</title><rect fill="#FFFFFF" height="29.3105" style="stroke:#181818;stroke-width:1;" width="10" x="1402.7085" y="726.4531"/></g><rect fill="none" height="794.3398" style="stroke:#000000;stroke-width:1.5;" width="1479.6284" x="10" y="135.9766"/><rect fill="none" height="527.2344" style="stroke:#000000;stroke-width:1.5;" width="1459.6284" x="20" y="396.082"/><g><title>Shipping Agent Representative</title><rect fill="#000000" fill-opacity="0.00000" height="828.3398" width="8" x="133.125" y="118.9766"/><line style="stroke:#181818;stroke-width:0.5;stroke-dasharray:5,5;" x1="137" x2="137" y1="118.9766" y2="947.3164"/></g><g><title>.SPA</title><rect fill="#000000" fill-opacity="0.00000" height="828.3398" width="8" x="311.0112" y="118.9766"/><line style="stroke:#181818;stroke-width:0.5;stroke-dasharray:5,5;" x1="314.3276" x2="314.3276" y1="118.9766" y2="947.3164"/></g><g><title>.VesselVisitNotificationsController</title><rect fill="#000000" fill-opacity="0.00000" height="828.3398" width="8" x="475.1655" y="118.9766"/><line style="stroke:#181818;stroke-width:0.5;stroke-dasharray:5,5;" x1="478.5083" x2="478.5083" y1="118.9766" y2="947.3164"/></g><g><title>.VesselVisitNotificationService</title><rect fill="#000000" fill-opacity="0.00000" height="828.3398" width="8" x="716.4971" y="118.9766"/><line style="stroke:#181818;stroke-width:0.5;stroke-dasharray:5,5;" x1="719.8228" x2="719.8228" y1="118.9766" y2="947.3164"/></g><g><title>.VesselVisitNotificationRepository</title><rect fill="#000000" fill-opacity="0.00000" height="828.3398" width="8" x="996.0327" y="118.9766"/><line style="stroke:#181818;stroke-width:0.5;stroke-dasharray:5,5;" x1="999.9614" x2="999.9614" y1="118.9766" y2="947.3164"/></g><g><title>.PortLogisticsDB</title><rect fill="#000000" fill-opacity="0.00000" height="828.3398" width="8" x="1403.7085" y="118.9766"/><line style="stroke:#181818;stroke-width:0.5;stroke-dasharray:5,5;" x1="1406.7886" x2="1406.7886" y1="118.9766" y2="947.3164"/></g><g class="participant participant-head" data-participant="SAR"><text fill="#000000" font-family="sans-serif" font-size="14" lengthAdjust="spacing" textLength="208.25" x="30" y="116.0234">Shipping Agent Representative</text><ellipse cx="137.125" cy="50.9883" fill="#E2E2F0" rx="8" ry="8" style="stroke:#181818;stroke-width:0.5;"/><path d="M137.125,58.9883 L137.125,85.9883 M124.125,66.9883 L150.125,66.9883 M137.125,85.9883 L124.125,100.9883 M137.125,85.9883 L150.125,100.9883" fill="none" style="stroke:#181818;stroke-width:0.5;"/></g><g class="participant participant-tail" data-participant="SAR"><text fill="#000000" font-family="sans-serif" font-size="14" lengthAdjust="spacing" textLength="208.25" x="30" y="959.8516">Shipping Agent Representative</text><ellipse cx="137.125" cy="971.3047" fill="#E2E2F0" rx="8" ry="8" style="stroke:#181818;stroke-width:0.5;"/><path d="M137.125,979.3047 L137.125,1006.3047 M124.125,987.3047 L150.125,987.3047 M137.125,1006.3047 L124.125,1021.3047 M137.125,1006.3047 L150.125,1021.3047" fill="none" style="stroke:#181818;stroke-width:0.5;"/></g><g class="participant participant-head" data-participant="SPA"><rect fill="#E2E2F0" height="30.4883" rx="2.5" ry="2.5" style="stroke:#181818;stroke-width:0.5;" width="43.3672" x="293.3276" y="87.4883"/><text fill="#000000" font-family="sans-serif" font-size="14" lengthAdjust="spacing" textLength="29.3672" x="300.3276" y="108.0234">:SPA</text></g><g class="participant participant-tail" data-participant="SPA"><rect fill="#E2E2F0" height="30.4883" rx="2.5" ry="2.5" style="stroke:#181818;stroke-width:0.5;" width="43.3672" x="293.3276" y="946.3164"/><text fill="#000000" font-family="sans-serif" font-size="14" lengthAdjust="spacing" textLength="29.3672" x="300.3276" y="966.8516">:SPA</text></g><g class="participant participant-head" data-participant="CTRL"><rect fill="#E2E2F0" height="30.4883" rx="2.5" ry="2.5" style="stroke:#181818;stroke-width:0.5;" width="245.3145" x="356.5083" y="87.4883"/><text fill="#000000" font-family="sans-serif" font-size="14" lengthAdjust="spacing" textLength="231.3145" x="363.5083" y="108.0234">:VesselVisitNotificationsController</text></g><g class="participant participant-tail" data-participant="CTRL"><rect fill="#E2E2F0" height="30.4883" rx="2.5" ry="2.5" style="stroke:#181818;stroke-width:0.5;" width="245.3145" x="356.5083" y="946.3164"/><text fill="#000000" font-family="sans-serif" font-size="14" lengthAdjust="spacing" textLength="231.3145" x="363.5083" y="966.8516">:VesselVisitNotificationsController</text></g><g class="participant participant-head" data-participant="SVC"><rect fill="#E2E2F0" height="30.4883" rx="2.5" ry="2.5" style="stroke:#181818;stroke-width:0.5;" width="217.3486" x="611.8228" y="87.4883"/><text fill="#000000" font-family="sans-serif" font-size="14" lengthAdjust="spacing" textLength="203.3486" x="618.8228" y="108.0234">:VesselVisitNotificationService</text></g><g class="participant participant-tail" data-participant="SVC"><rect fill="#E2E2F0" height="30.4883" rx="2.5" ry="2.5" style="stroke:#181818;stroke-width:0.5;" width="217.3486" x="611.8228" y="946.3164"/><text fill="#000000" font-family="sans-serif" font-size="14" lengthAdjust="spacing" textLength="203.3486" x="618.8228" y="966.8516">:VesselVisitNotificationService</text></g><g class="participant participant-head" data-participant="REPO"><rect fill="#E2E2F0" height="30.4883" rx="2.5" ry="2.5" style="stroke:#181818;stroke-width:0.5;" width="242.1426" x="878.9614" y="87.4883"/><text fill="#000000" font-family="sans-serif" font-size="14" lengthAdjust="spacing" textLength="228.1426" x="885.9614" y="108.0234">:VesselVisitNotificationRepository</text></g><g class="participant participant-tail" data-participant="REPO"><rect fill="#E2E2F0" height="30.4883" rx="2.5" ry="2.5" style="stroke:#181818;stroke-width:0.5;" width="242.1426" x="878.9614" y="946.3164"/><text fill="#000000" font-family="sans-serif" font-size="14" lengthAdjust="spacing" textLength="228.1426" x="885.9614" y="966.8516">:VesselVisitNotificationRepository</text></g><g class="participant participant-head" data-participant="DB"><rect fill="#E2E2F0" height="30.4883" rx="2.5" ry="2.5" style="stroke:#181818;stroke-width:0.5;" width="123.8398" x="1345.7886" y="87.4883"/><text fill="#000000" font-family="sans-serif" font-size="14" lengthAdjust="spacing" textLength="109.8398" x="1352.7886" y="108.0234">:PortLogisticsDB</text></g><g class="participant participant-tail" data-participant="DB"><rect fill="#E2E2F0" height="30.4883" rx="2.5" ry="2.5" style="stroke:#181818;stroke-width:0.5;" width="123.8398" x="1345.7886" y="946.3164"/><text fill="#000000" font-family="sans-serif" font-size="14" lengthAdjust="spacing" textLength="109.8398" x="1352.7886" y="966.8516">:PortLogisticsDB</text></g><g><title>.SPA</title><rect fill="#FFFFFF" height="725.4082" style="stroke:#181818;stroke-width:1;" width="10" x="310.0112" y="189.9082"/></g><g><title>.VesselVisitNotificationsController</title><rect fill="#FFFFFF" height="651.4766" style="stroke:#181818;stroke-width:1;" width="10" x="474.1655" y="234.5293"/></g><g><title>.VesselVisitNotificationService</title><rect fill="#FFFFFF" height="592.8555" style="stroke:#181818;stroke-width:1;" width="10" x="715.4971" y="263.8398"/></g><g><title>.VesselVisitNotificationRepository</title><rect fill="#FFFFFF" height="87.9316" style="stroke:#181818;stroke-width:1;" width="10" x="995.0327" y="293.1504"/></g><g><title>.VesselVisitNotificationRepository</title><rect fill="#FFFFFF" height="87.9316" style="stroke:#181818;stroke-width:1;" width="10" x="995.0327" y="579.9004"/></g><g><title>.VesselVisitNotificationRepository</title><rect fill="#FFFFFF" height="87.9316" style="stroke:#181818;stroke-width:1;" width="10" x="995.0327" y="697.1426"/></g><g><title>.PortLogisticsDB</title><rect fill="#FFFFFF" height="29.3105" style="stroke:#181818;stroke-width:1;" width="10" x="1402.7085" y="322.4609"/></g><g><title>.PortLogisticsDB</title><rect fill="#FFFFFF" height="29.3105" style="stroke:#181818;stroke-width:1;" width="10" x="1402.7085" y="609.2109"/></g><g><title>.PortLogisticsDB</title><rect fill="#FFFFFF" height="29.3105" style="stroke:#181818;stroke-width:1;" width="10" x="1402.7085" y="726.4531"/></g><path d="M10,135.9766 L176.4814,135.9766 L176.4814,143.2871 L166.4814,153.2871 L10,153.2871 L10,135.9766" fill="#EEEEEE" style="stroke:#000000;stroke-width:1.5;"/><rect fill="none" height="794.3398" style="stroke:#000000;stroke-width:1.5;" width="1479.6284" x="10" y="135.9766"/><text fill="#000000" font-family="sans-serif" font-size="13" font-weight="bold" lengthAdjust="spacing" textLength="121.4814" x="25" y="149.5449">Update VVN fields</text><g class="message" data-participant-1="SAR" data-participant-2="SPA"><polygon fill="#181818" points="298.0112,185.9082,308.0112,189.9082,298.0112,193.9082,302.0112,189.9082" style="stroke:#181818;stroke-width:1;"/><line style="stroke:#181818;stroke-width:1;" x1="137.125" x2="304.0112" y1="189.9082" y2="189.9082"/><text fill="#000000" font-family="sans-serif" font-size="13" lengthAdjust="spacing" textLength="97.8301" x="144.125" y="169.8555">editDraft(vvnId)</text><text fill="#000000" font-family="sans-serif" font-size="13" lengthAdjust="spacing" textLength="153.8862" x="144.125" y="185.166">(change cargo/ETA/etc.)</text></g><g class="message" data-participant-1="SPA" data-participant-2="CTRL"><polygon fill="#181818" points="462.1655,230.5293,472.1655,234.5293,462.1655,238.5293,466.1655,234.5293" style="stroke:#181818;stroke-width:1;"/><line style="stroke:#181818;stroke-width:1;" x1="320.0112" x2="468.1655" y1="234.5293" y2="234.5293"/><text fill="#000000" font-family="sans-serif" font-size="13" lengthAdjust="spacing" textLength="135.1543" x="327.0112" y="214.4766">PATCH /api/vvns/{id}</text><text fill="#000000" font-family="sans-serif" font-size="13" lengthAdjust="spacing" textLength="102.2988" x="327.0112" y="229.7871">{UpdateVVNDto}</text></g><g class="message" data-participant-1="CTRL" data-participant-2="SVC"><polygon fill="#181818" points="703.4971,259.8398,713.4971,263.8398,703.4971,267.8398,707.4971,263.8398" style="stroke:#181818;stroke-width:1;"/><line style="stroke:#181818;stroke-width:1;" x1="484.1655" x2="709.4971" y1="263.8398" y2="263.8398"/><text fill="#000000" font-family="sans-serif" font-size="13" lengthAdjust="spacing" textLength="192.2896" x="491.1655" y="259.0977">UpdateAsync(id,dto,repUserId)</text></g><g class="message" data-participant-1="SVC" data-participant-2="REPO"><polygon fill="#181818" points="983.0327,289.1504,993.0327,293.1504,983.0327,297.1504,987.0327,293.1504" style="stroke:#181818;stroke-width:1;"/><line style="stroke:#181818;stroke-width:1;" x1="725.4971" x2="989.0327" y1="293.1504" y2="293.1504"/><text fill="#000000" font-family="sans-serif" font-size="13" lengthAdjust="spacing" textLength="250.5356" x="732.4971" y="288.4082">GetDraftByIdForUserAsync(id,repUserId)</text></g><g class="message" data-participant-1="REPO" data-participant-2="DB"><polygon fill="#181818" points="1390.7085,318.4609,1400.7085,322.4609,1390.7085,326.4609,1394.7085,322.4609" style="stroke:#181818;stroke-width:1;"/><line style="stroke:#181818;stroke-width:1;" x1="1005.0327" x2="1396.7085" y1="322.4609" y2="322.4609"/><text fill="#000000" font-family="sans-serif" font-size="13" lengthAdjust="spacing" textLength="378.6758" x="1012.0327" y="317.7188">SELECT * FROM VVNs WHERE Id=? AND status="in progress"</text></g><g class="message" data-participant-1="DB" data-participant-2="REPO"><polygon fill="#181818" points="1016.0327,347.7715,1006.0327,351.7715,1016.0327,355.7715,1012.0327,351.7715" style="stroke:#181818;stroke-width:1;"/><line style="stroke:#181818;stroke-width:1;stroke-dasharray:2,2;" x1="1010.0327" x2="1406.7085" y1="351.7715" y2="351.7715"/><text fill="#000000" font-family="sans-serif" font-size="13" lengthAdjust="spacing" textLength="66.7075" x="1022.0327" y="347.0293">vvn or null</text></g><g class="message" data-participant-1="REPO" data-participant-2="SVC"><polygon fill="#181818" points="736.4971,377.082,726.4971,381.082,736.4971,385.082,732.4971,381.082" style="stroke:#181818;stroke-width:1;"/><line style="stroke:#181818;stroke-width:1;stroke-dasharray:2,2;" x1="730.4971" x2="999.0327" y1="381.082" y2="381.082"/><text fill="#000000" font-family="sans-serif" font-size="13" lengthAdjust="spacing" textLength="21.5249" x="742.4971" y="376.3398">vvn</text></g><path d="M20,396.082 L82.1387,396.082 L82.1387,403.3926 L72.1387,413.3926 L20,413.3926 L20,396.082" fill="#EEEEEE" style="stroke:#000000;stroke-width:1.5;"/><rect fill="none" height="527.2344" style="stroke:#000000;stroke-width:1.5;" width="1459.6284" x="20" y="396.082"/><text fill="#000000" font-family="sans-serif" font-size="13" font-weight="bold" lengthAdjust="spacing" textLength="17.1387" x="35" y="409.6504">alt</text><text fill="#000000" font-family="sans-serif" font-size="11" font-weight="bold" lengthAdjust="spacing" textLength="63.8086" x="97.1387" y="408.7168">[not found]</text><g class="message" data-participant-1="SVC" data-participant-2="CTRL"><polygon fill="#181818" points="495.1655,430.7031,485.1655,434.7031,495.1655,438.7031,491.1655,434.7031" style="stroke:#181818;stroke-width:1;"/><line style="stroke:#181818;stroke-width:1;stroke-dasharray:2,2;" x1="489.1655" x2="714.4971" y1="434.7031" y2="434.7031"/><text fill="#000000" font-family="sans-serif" font-size="13" lengthAdjust="spacing" textLength="94.6118" x="501.1655" y="429.9609">404 Not Found</text></g><g class="message" data-participant-1="CTRL" data-participant-2="SPA"><polygon fill="#181818" points="331.0112,460.0137,321.0112,464.0137,331.0112,468.0137,327.0112,464.0137" style="stroke:#181818;stroke-width:1;"/><line style="stroke:#181818;stroke-width:1;stroke-dasharray:2,2;" x1="325.0112" x2="473.1655" y1="464.0137" y2="464.0137"/><text fill="#000000" font-family="sans-serif" font-size="13" lengthAdjust="spacing" textLength="67.9961" x="337.0112" y="459.2715">show error</text></g><g class="message" data-participant-1="SPA" data-participant-2="SAR"><polygon fill="#181818" points="148.125,489.3242,138.125,493.3242,148.125,497.3242,144.125,493.3242" style="stroke:#181818;stroke-width:1;"/><line style="stroke:#181818;stroke-width:1;stroke-dasharray:2,2;" x1="142.125" x2="309.0112" y1="493.3242" y2="493.3242"/><text fill="#000000" font-family="sans-serif" font-size="13" lengthAdjust="spacing" textLength="36.2451" x="154.125" y="488.582">notify</text></g><line style="stroke:#000000;stroke-width:1;stroke-dasharray:2,2;" x1="20" x2="1479.6284" y1="502.3242" y2="502.3242"/><text fill="#000000" font-family="sans-serif" font-size="11" font-weight="bold" lengthAdjust="spacing" textLength="41.4756" x="25" y="512.959">[found]</text><g class="message" data-participant-1="SVC" data-participant-2="SVC"><line style="stroke:#181818;stroke-width:1;" x1="725.4971" x2="767.4971" y1="537.5898" y2="537.5898"/><line style="stroke:#181818;stroke-width:1;" x1="767.4971" x2="767.4971" y1="537.5898" y2="550.5898"/><line style="stroke:#181818;stroke-width:1;" x1="726.4971" x2="767.4971" y1="550.5898" y2="550.5898"/><polygon fill="#181818" points="736.4971,546.5898,726.4971,550.5898,736.4971,554.5898,732.4971,550.5898" style="stroke:#181818;stroke-width:1;"/><text fill="#000000" font-family="sans-serif" font-size="13" lengthAdjust="spacing" textLength="132.1899" x="732.4971" y="532.8477">vvn.UpdateFrom(dto)</text></g><g class="message" data-participant-1="SVC" data-participant-2="REPO"><polygon fill="#181818" points="983.0327,575.9004,993.0327,579.9004,983.0327,583.9004,987.0327,579.9004" style="stroke:#181818;stroke-width:1;"/><line style="stroke:#181818;stroke-width:1;" x1="725.4971" x2="989.0327" y1="579.9004" y2="579.9004"/><text fill="#000000" font-family="sans-serif" font-size="13" lengthAdjust="spacing" textLength="111.7505" x="732.4971" y="575.1582">UpdateAsync(vvn)</text></g><g class="message" data-participant-1="REPO" data-participant-2="DB"><polygon fill="#181818" points="1390.7085,605.2109,1400.7085,609.2109,1390.7085,613.2109,1394.7085,609.2109" style="stroke:#181818;stroke-width:1;"/><line style="stroke:#181818;stroke-width:1;" x1="1005.0327" x2="1396.7085" y1="609.2109" y2="609.2109"/><text fill="#000000" font-family="sans-serif" font-size="13" lengthAdjust="spacing" textLength="103.9619" x="1012.0327" y="604.4688">UPDATE VVNs ...</text></g><g class="message" data-participant-1="DB" data-participant-2="REPO"><polygon fill="#181818" points="1016.0327,634.5215,1006.0327,638.5215,1016.0327,642.5215,1012.0327,638.5215" style="stroke:#181818;stroke-width:1;"/><line style="stroke:#181818;stroke-width:1;stroke-dasharray:2,2;" x1="1010.0327" x2="1406.7085" y1="638.5215" y2="638.5215"/><text fill="#000000" font-family="sans-serif" font-size="13" lengthAdjust="spacing" textLength="51.8984" x="1022.0327" y="633.7793">updated</text></g><g class="message" data-participant-1="REPO" data-participant-2="SVC"><polygon fill="#181818" points="736.4971,663.832,726.4971,667.832,736.4971,671.832,732.4971,667.832" style="stroke:#181818;stroke-width:1;"/><line style="stroke:#181818;stroke-width:1;stroke-dasharray:2,2;" x1="730.4971" x2="999.0327" y1="667.832" y2="667.832"/><text fill="#000000" font-family="sans-serif" font-size="13" lengthAdjust="spacing" textLength="48.5088" x="742.4971" y="663.0898">success</text></g><g class="message" data-participant-1="SVC" data-participant-2="REPO"><polygon fill="#181818" points="983.0327,693.1426,993.0327,697.1426,983.0327,701.1426,987.0327,697.1426" style="stroke:#181818;stroke-width:1;"/><line style="stroke:#181818;stroke-width:1;" x1="725.4971" x2="989.0327" y1="697.1426" y2="697.1426"/><text fill="#000000" font-family="sans-serif" font-size="13" lengthAdjust="spacing" textLength="128.0068" x="732.4971" y="692.4004">SaveChangesAsync()</text></g><g class="message" data-participant-1="REPO" data-participant-2="DB"><polygon fill="#181818" points="1390.7085,722.4531,1400.7085,726.4531,1390.7085,730.4531,1394.7085,726.4531" style="stroke:#181818;stroke-width:1;"/><line style="stroke:#181818;stroke-width:1;" x1="1005.0327" x2="1396.7085" y1="726.4531" y2="726.4531"/><text fill="#000000" font-family="sans-serif" font-size="13" lengthAdjust="spacing" textLength="90.8921" x="1012.0327" y="721.7109">SaveChanges()</text></g><g class="message" data-participant-1="DB" data-participant-2="REPO"><polygon fill="#181818" points="1016.0327,751.7637,1006.0327,755.7637,1016.0327,759.7637,1012.0327,755.7637" style="stroke:#181818;stroke-width:1;"/><line style="stroke:#181818;stroke-width:1;stroke-dasharray:2,2;" x1="1010.0327" x2="1406.7085" y1="755.7637" y2="755.7637"/><text fill="#000000" font-family="sans-serif" font-size="13" lengthAdjust="spacing" textLength="15.5835" x="1022.0327" y="751.0215">ok</text></g><g class="message" data-participant-1="REPO" data-participant-2="SVC"><polygon fill="#181818" points="736.4971,781.0742,726.4971,785.0742,736.4971,789.0742,732.4971,785.0742" style="stroke:#181818;stroke-width:1;"/><line style="stroke:#181818;stroke-width:1;stroke-dasharray:2,2;" x1="730.4971" x2="999.0327" y1="785.0742" y2="785.0742"/><text fill="#000000" font-family="sans-serif" font-size="13" lengthAdjust="spacing" textLength="15.5835" x="742.4971" y="780.332">ok</text></g><g class="message" data-participant-1="SVC" data-participant-2="SVC"><line style="stroke:#181818;stroke-width:1;" x1="725.4971" x2="767.4971" y1="814.3848" y2="814.3848"/><line style="stroke:#181818;stroke-width:1;" x1="767.4971" x2="767.4971" y1="814.3848" y2="827.3848"/><line style="stroke:#181818;stroke-width:1;" x1="726.4971" x2="767.4971" y1="827.3848" y2="827.3848"/><polygon fill="#181818" points="736.4971,823.3848,726.4971,827.3848,736.4971,831.3848,732.4971,827.3848" style="stroke:#181818;stroke-width:1;"/><text fill="#000000" font-family="sans-serif" font-size="13" lengthAdjust="spacing" textLength="68.7705" x="732.4971" y="809.6426">ToDto(vvn)</text></g><g class="message" data-participant-1="SVC" data-participant-2="CTRL"><polygon fill="#181818" points="495.1655,852.6953,485.1655,856.6953,495.1655,860.6953,491.1655,856.6953" style="stroke:#181818;stroke-width:1;"/><line style="stroke:#181818;stroke-width:1;stroke-dasharray:2,2;" x1="489.1655" x2="719.4971" y1="856.6953" y2="856.6953"/><text fill="#000000" font-family="sans-serif" font-size="13" lengthAdjust="spacing" textLength="183.9551" x="501.1655" y="851.9531">VvnDto(status="in progress")</text></g><g class="message" data-participant-1="CTRL" data-participant-2="SPA"><polygon fill="#181818" points="331.0112,882.0059,321.0112,886.0059,331.0112,890.0059,327.0112,886.0059" style="stroke:#181818;stroke-width:1;"/><line style="stroke:#181818;stroke-width:1;stroke-dasharray:2,2;" x1="325.0112" x2="478.1655" y1="886.0059" y2="886.0059"/><text fill="#000000" font-family="sans-serif" font-size="13" lengthAdjust="spacing" textLength="111.8013" x="337.0112" y="881.2637">200 OK + VvnDto</text></g><g class="message" data-participant-1="SPA" data-participant-2="SAR"><polygon fill="#181818" points="148.125,911.3164,138.125,915.3164,148.125,919.3164,144.125,915.3164" style="stroke:#181818;stroke-width:1;"/><line style="stroke:#181818;stroke-width:1;stroke-dasharray:2,2;" x1="142.125" x2="314.0112" y1="915.3164" y2="915.3164"/><text fill="#000000" font-family="sans-serif" font-size="13" lengthAdjust="spacing" textLength="86.3345" x="154.125" y="910.5742">draft updated</text></g><!--SRC=[ZLJ1Rk8m4BtdAqPS5dPRg5Oz8NLN8GdRQjaM4Pgzz6B59hKsjIFRIOMg_dl7DgN1T2KEaKWyxysRDyyORce6zmqbXa5HtC8vv8QOLiCJuSBWmoWCk816oKenhGTHH4eZ5GpoHzuqN5GGLqmOMB46p_4NCRnZ0o0QydWLDKGPNlA6OCbWcYzZVxACWvC2kLbTSCtDhJHymqlaaK8dKXWbwvef1qpMgyLfo9ofZfSx8KLo6WY7aFX9ggt3hRBbNG1SIcKMik8Ql-bqvihIMHHLIhPDtyWDPpNL4LWNuFo77Hccm2WtgI8RC-mwSKD73s9OFX9HCIY9gkGaMySJPihn287eC-yidNNB4Y434baBa6aPhvDhc926Jv1AJruuVNqGBru12aYDVEsJEEVmWuDRFKM2BBuyrbjH3ZazeqQUATRSQwPGt846j13Vly124ke6P4AtokvVFWkcDAR1QaHM9BV68VilveUTRM_eN2fBks_rUHldE7WyygGpPCcpHPQiuIlCLtT_R6iDVw-pLGOtzEednBSfQ1VPgyESzbXnGM2vpZ-aeMU0AHPjNUCPPOUrll_U9Im-B78oROVQW906Dh8L5Dzt1dniwVBY4Z1WCDyNUF_tWT2FyXcOKb9vkDsnFSJGJ2qrtspnWDMQXKrwuiP-ZNCbduQumb7KhzeDtDyqGaQk9FGzSFv-cSRhp5i-7eyF8SweqDRMTV4gGrEFRDLjMUAgmk9tSyC9SjAnn5qMxSSuQOOUAWHyEe7yTvhuuxeZtRvmBV4gVbWU1AJeX3t-BC6ZiC7k3XvbwFl51TpzXcyxiX3sVlF3T55xDV-tCVkVWxd3mE7p1W00]--></g></svg>