<svg xmlns="http://www.w3.org/2000/svg" xmlns:xlink="http://www.w3.org/1999/xlink" contentStyleType="text/css" data-diagram-type="SEQUENCE" height="1008px" preserveAspectRatio="none" style="width:1702px;height:1008px;background:#FFFFFF;" version="1.1" viewBox="0 0 1702 1008" width="1702px" zoomAndPan="magnify"><title>Cargo/Container Validation (ISO 6346:2022)</title><defs/><g><text fill="#000000" font-family="sans-serif" font-size="14" font-weight="bold" lengthAdjust="spacing" textLength="319.7031" x="692.8875" y="28.5352">Cargo/Container Validation (ISO 6346:2022)</text><g><title>.SPA</title><rect fill="#FFFFFF" height="720.7188" style="stroke:#181818;stroke-width:1;" width="10" x="296.1606" y="174.5977"/></g><g><title>.VesselVisitNotificationsController</title><rect fill="#FFFFFF" height="646.7871" style="stroke:#181818;stroke-width:1;" width="10" x="502.3809" y="219.2188"/></g><g><title>.VesselVisitNotificationService</title><rect fill="#FFFFFF" height="588.166" style="stroke:#181818;stroke-width:1;" width="10" x="775.4736" y="248.5293"/></g><g><title>.ContainerValidationService</title><rect fill="#FFFFFF" height="236.4395" style="stroke:#181818;stroke-width:1;" width="10" x="1069.228" y="277.8398"/></g><g><title>.CargoService</title><rect fill="#FFFFFF" height="29.3105" style="stroke:#181818;stroke-width:1;" width="10" x="1232.377" y="543.5898"/></g><g><title>.VesselVisitNotificationRepository</title><rect fill="#FFFFFF" height="87.9316" style="stroke:#181818;stroke-width:1;" width="10" x="1416.5669" y="602.2109"/></g><g><title>.VesselVisitNotificationRepository</title><rect fill="#FFFFFF" height="87.9316" style="stroke:#181818;stroke-width:1;" width="10" x="1416.5669" y="719.4531"/></g><g><title>.PortLogisticsDB</title><rect fill="#FFFFFF" height="29.3105" style="stroke:#181818;stroke-width:1;" width="10" x="1609.5581" y="631.5215"/></g><g><title>.PortLogisticsDB</title><rect fill="#FFFFFF" height="29.3105" style="stroke:#181818;stroke-width:1;" width="10" x="1609.5581" y="748.7637"/></g><rect fill="none" height="774.3398" style="stroke:#000000;stroke-width:1.5;" width="1686.478" x="10" y="135.9766"/><rect fill="none" height="575.166" style="stroke:#000000;stroke-width:1.5;" width="1666.478" x="20" y="328.1504"/><g><title>Shipping Agent Representative</title><rect fill="#000000" fill-opacity="0.00000" height="808.3398" width="8" x="133.125" y="118.9766"/><line style="stroke:#181818;stroke-width:0.5;stroke-dasharray:5,5;" x1="137" x2="137" y1="118.9766" y2="927.3164"/></g><g><title>.SPA</title><rect fill="#000000" fill-opacity="0.00000" height="808.3398" width="8" x="297.1606" y="118.9766"/><line style="stroke:#181818;stroke-width:0.5;stroke-dasharray:5,5;" x1="300.4771" x2="300.4771" y1="118.9766" y2="927.3164"/></g><g><title>.VesselVisitNotificationsController</title><rect fill="#000000" fill-opacity="0.00000" height="808.3398" width="8" x="503.3809" y="118.9766"/><line style="stroke:#181818;stroke-width:0.5;stroke-dasharray:5,5;" x1="506.7236" x2="506.7236" y1="118.9766" y2="927.3164"/></g><g><title>.VesselVisitNotificationService</title><rect fill="#000000" fill-opacity="0.00000" height="808.3398" width="8" x="776.4736" y="118.9766"/><line style="stroke:#181818;stroke-width:0.5;stroke-dasharray:5,5;" x1="779.7993" x2="779.7993" y1="118.9766" y2="927.3164"/></g><g><title>.ContainerValidationService</title><rect fill="#000000" fill-opacity="0.00000" height="808.3398" width="8" x="1070.228" y="118.9766"/><line style="stroke:#181818;stroke-width:0.5;stroke-dasharray:5,5;" x1="1074.1978" x2="1074.1978" y1="118.9766" y2="927.3164"/></g><g><title>.CargoService</title><rect fill="#000000" fill-opacity="0.00000" height="808.3398" width="8" x="1233.377" y="118.9766"/><line style="stroke:#181818;stroke-width:0.5;stroke-dasharray:5,5;" x1="1237.2583" x2="1237.2583" y1="118.9766" y2="927.3164"/></g><g><title>.VesselVisitNotificationRepository</title><rect fill="#000000" fill-opacity="0.00000" height="808.3398" width="8" x="1417.5669" y="118.9766"/><line style="stroke:#181818;stroke-width:0.5;stroke-dasharray:5,5;" x1="1421.4956" x2="1421.4956" y1="118.9766" y2="927.3164"/></g><g><title>.PortLogisticsDB</title><rect fill="#000000" fill-opacity="0.00000" height="808.3398" width="8" x="1610.5581" y="118.9766"/><line style="stroke:#181818;stroke-width:0.5;stroke-dasharray:5,5;" x1="1613.6382" x2="1613.6382" y1="118.9766" y2="927.3164"/></g><g class="participant participant-head" data-participant="SAR"><text fill="#000000" font-family="sans-serif" font-size="14" lengthAdjust="spacing" textLength="208.25" x="30" y="116.0234">Shipping Agent Representative</text><ellipse cx="137.125" cy="50.9883" fill="#E2E2F0" rx="8" ry="8" style="stroke:#181818;stroke-width:0.5;"/><path d="M137.125,58.9883 L137.125,85.9883 M124.125,66.9883 L150.125,66.9883 M137.125,85.9883 L124.125,100.9883 M137.125,85.9883 L150.125,100.9883" fill="none" style="stroke:#181818;stroke-width:0.5;"/></g><g class="participant participant-tail" data-participant="SAR"><text fill="#000000" font-family="sans-serif" font-size="14" lengthAdjust="spacing" textLength="208.25" x="30" y="939.8516">Shipping Agent Representative</text><ellipse cx="137.125" cy="951.3047" fill="#E2E2F0" rx="8" ry="8" style="stroke:#181818;stroke-width:0.5;"/><path d="M137.125,959.3047 L137.125,986.3047 M124.125,967.3047 L150.125,967.3047 M137.125,986.3047 L124.125,1001.3047 M137.125,986.3047 L150.125,1001.3047" fill="none" style="stroke:#181818;stroke-width:0.5;"/></g><g class="participant participant-head" data-participant="SPA"><rect fill="#E2E2F0" height="30.4883" rx="2.5" ry="2.5" style="stroke:#181818;stroke-width:0.5;" width="43.3672" x="279.4771" y="87.4883"/><text fill="#000000" font-family="sans-serif" font-size="14" lengthAdjust="spacing" textLength="29.3672" x="286.4771" y="108.0234">:SPA</text></g><g class="participant participant-tail" data-participant="SPA"><rect fill="#E2E2F0" height="30.4883" rx="2.5" ry="2.5" style="stroke:#181818;stroke-width:0.5;" width="43.3672" x="279.4771" y="926.3164"/><text fill="#000000" font-family="sans-serif" font-size="14" lengthAdjust="spacing" textLength="29.3672" x="286.4771" y="946.8516">:SPA</text></g><g class="participant participant-head" data-participant="CTRL"><rect fill="#E2E2F0" height="30.4883" rx="2.5" ry="2.5" style="stroke:#181818;stroke-width:0.5;" width="245.3145" x="384.7236" y="87.4883"/><text fill="#000000" font-family="sans-serif" font-size="14" lengthAdjust="spacing" textLength="231.3145" x="391.7236" y="108.0234">:VesselVisitNotificationsController</text></g><g class="participant participant-tail" data-participant="CTRL"><rect fill="#E2E2F0" height="30.4883" rx="2.5" ry="2.5" style="stroke:#181818;stroke-width:0.5;" width="245.3145" x="384.7236" y="926.3164"/><text fill="#000000" font-family="sans-serif" font-size="14" lengthAdjust="spacing" textLength="231.3145" x="391.7236" y="946.8516">:VesselVisitNotificationsController</text></g><g class="participant participant-head" data-participant="SVC"><rect fill="#E2E2F0" height="30.4883" rx="2.5" ry="2.5" style="stroke:#181818;stroke-width:0.5;" width="217.3486" x="671.7993" y="87.4883"/><text fill="#000000" font-family="sans-serif" font-size="14" lengthAdjust="spacing" textLength="203.3486" x="678.7993" y="108.0234">:VesselVisitNotificationService</text></g><g class="participant participant-tail" data-participant="SVC"><rect fill="#E2E2F0" height="30.4883" rx="2.5" ry="2.5" style="stroke:#181818;stroke-width:0.5;" width="217.3486" x="671.7993" y="926.3164"/><text fill="#000000" font-family="sans-serif" font-size="14" lengthAdjust="spacing" textLength="203.3486" x="678.7993" y="946.8516">:VesselVisitNotificationService</text></g><g class="participant participant-head" data-participant="CONT_SVC"><rect fill="#E2E2F0" height="30.4883" rx="2.5" ry="2.5" style="stroke:#181818;stroke-width:0.5;" width="200.0605" x="974.1978" y="87.4883"/><text fill="#000000" font-family="sans-serif" font-size="14" lengthAdjust="spacing" textLength="186.0605" x="981.1978" y="108.0234">:ContainerValidationService</text></g><g class="participant participant-tail" data-participant="CONT_SVC"><rect fill="#E2E2F0" height="30.4883" rx="2.5" ry="2.5" style="stroke:#181818;stroke-width:0.5;" width="200.0605" x="974.1978" y="926.3164"/><text fill="#000000" font-family="sans-serif" font-size="14" lengthAdjust="spacing" textLength="186.0605" x="981.1978" y="946.8516">:ContainerValidationService</text></g><g class="participant participant-head" data-participant="CARGO_SVC"><rect fill="#E2E2F0" height="30.4883" rx="2.5" ry="2.5" style="stroke:#181818;stroke-width:0.5;" width="106.2373" x="1184.2583" y="87.4883"/><text fill="#000000" font-family="sans-serif" font-size="14" lengthAdjust="spacing" textLength="92.2373" x="1191.2583" y="108.0234">:CargoService</text></g><g class="participant participant-tail" data-participant="CARGO_SVC"><rect fill="#E2E2F0" height="30.4883" rx="2.5" ry="2.5" style="stroke:#181818;stroke-width:0.5;" width="106.2373" x="1184.2583" y="926.3164"/><text fill="#000000" font-family="sans-serif" font-size="14" lengthAdjust="spacing" textLength="92.2373" x="1191.2583" y="946.8516">:CargoService</text></g><g class="participant participant-head" data-participant="REPO"><rect fill="#E2E2F0" height="30.4883" rx="2.5" ry="2.5" style="stroke:#181818;stroke-width:0.5;" width="242.1426" x="1300.4956" y="87.4883"/><text fill="#000000" font-family="sans-serif" font-size="14" lengthAdjust="spacing" textLength="228.1426" x="1307.4956" y="108.0234">:VesselVisitNotificationRepository</text></g><g class="participant participant-tail" data-participant="REPO"><rect fill="#E2E2F0" height="30.4883" rx="2.5" ry="2.5" style="stroke:#181818;stroke-width:0.5;" width="242.1426" x="1300.4956" y="926.3164"/><text fill="#000000" font-family="sans-serif" font-size="14" lengthAdjust="spacing" textLength="228.1426" x="1307.4956" y="946.8516">:VesselVisitNotificationRepository</text></g><g class="participant participant-head" data-participant="DB"><rect fill="#E2E2F0" height="30.4883" rx="2.5" ry="2.5" style="stroke:#181818;stroke-width:0.5;" width="123.8398" x="1552.6382" y="87.4883"/><text fill="#000000" font-family="sans-serif" font-size="14" lengthAdjust="spacing" textLength="109.8398" x="1559.6382" y="108.0234">:PortLogisticsDB</text></g><g class="participant participant-tail" data-participant="DB"><rect fill="#E2E2F0" height="30.4883" rx="2.5" ry="2.5" style="stroke:#181818;stroke-width:0.5;" width="123.8398" x="1552.6382" y="926.3164"/><text fill="#000000" font-family="sans-serif" font-size="14" lengthAdjust="spacing" textLength="109.8398" x="1559.6382" y="946.8516">:PortLogisticsDB</text></g><g><title>.SPA</title><rect fill="#FFFFFF" height="720.7188" style="stroke:#181818;stroke-width:1;" width="10" x="296.1606" y="174.5977"/></g><g><title>.VesselVisitNotificationsController</title><rect fill="#FFFFFF" height="646.7871" style="stroke:#181818;stroke-width:1;" width="10" x="502.3809" y="219.2188"/></g><g><title>.VesselVisitNotificationService</title><rect fill="#FFFFFF" height="588.166" style="stroke:#181818;stroke-width:1;" width="10" x="775.4736" y="248.5293"/></g><g><title>.ContainerValidationService</title><rect fill="#FFFFFF" height="236.4395" style="stroke:#181818;stroke-width:1;" width="10" x="1069.228" y="277.8398"/></g><g><title>.CargoService</title><rect fill="#FFFFFF" height="29.3105" style="stroke:#181818;stroke-width:1;" width="10" x="1232.377" y="543.5898"/></g><g><title>.VesselVisitNotificationRepository</title><rect fill="#FFFFFF" height="87.9316" style="stroke:#181818;stroke-width:1;" width="10" x="1416.5669" y="602.2109"/></g><g><title>.VesselVisitNotificationRepository</title><rect fill="#FFFFFF" height="87.9316" style="stroke:#181818;stroke-width:1;" width="10" x="1416.5669" y="719.4531"/></g><g><title>.PortLogisticsDB</title><rect fill="#FFFFFF" height="29.3105" style="stroke:#181818;stroke-width:1;" width="10" x="1609.5581" y="631.5215"/></g><g><title>.PortLogisticsDB</title><rect fill="#FFFFFF" height="29.3105" style="stroke:#181818;stroke-width:1;" width="10" x="1609.5581" y="748.7637"/></g><path d="M10,135.9766 L215.418,135.9766 L215.418,143.2871 L205.418,153.2871 L10,153.2871 L10,135.9766" fill="#EEEEEE" style="stroke:#000000;stroke-width:1.5;"/><rect fill="none" height="774.3398" style="stroke:#000000;stroke-width:1.5;" width="1686.478" x="10" y="135.9766"/><text fill="#000000" font-family="sans-serif" font-size="13" font-weight="bold" lengthAdjust="spacing" textLength="160.418" x="25" y="149.5449">Validate Cargo Manifest</text><g class="message" data-participant-1="SAR" data-participant-2="SPA"><polygon fill="#181818" points="284.1606,170.5977,294.1606,174.5977,284.1606,178.5977,288.1606,174.5977" style="stroke:#181818;stroke-width:1;"/><line style="stroke:#181818;stroke-width:1;" x1="137.125" x2="290.1606" y1="174.5977" y2="174.5977"/><text fill="#000000" font-family="sans-serif" font-size="13" lengthAdjust="spacing" textLength="140.0356" x="144.125" y="169.8555">addOrModifyCargo(...)</text></g><g class="message" data-participant-1="SPA" data-participant-2="CTRL"><polygon fill="#181818" points="490.3809,215.2188,500.3809,219.2188,490.3809,223.2188,494.3809,219.2188" style="stroke:#181818;stroke-width:1;"/><line style="stroke:#181818;stroke-width:1;" x1="306.1606" x2="496.3809" y1="219.2188" y2="219.2188"/><text fill="#000000" font-family="sans-serif" font-size="13" lengthAdjust="spacing" textLength="177.2202" x="313.1606" y="199.166">PATCH /api/vvns/{id}/cargo</text><text fill="#000000" font-family="sans-serif" font-size="13" lengthAdjust="spacing" textLength="99.7534" x="313.1606" y="214.4766">{CargoManifest}</text></g><g class="message" data-participant-1="CTRL" data-participant-2="SVC"><polygon fill="#181818" points="763.4736,244.5293,773.4736,248.5293,763.4736,252.5293,767.4736,248.5293" style="stroke:#181818;stroke-width:1;"/><line style="stroke:#181818;stroke-width:1;" x1="512.3809" x2="769.4736" y1="248.5293" y2="248.5293"/><text fill="#000000" font-family="sans-serif" font-size="13" lengthAdjust="spacing" textLength="244.0928" x="519.3809" y="243.7871">UpdateCargoAsync(id,cargo,repUserId)</text></g><g class="message" data-participant-1="SVC" data-participant-2="CONT_SVC"><polygon fill="#181818" points="1057.228,273.8398,1067.228,277.8398,1057.228,281.8398,1061.228,277.8398" style="stroke:#181818;stroke-width:1;"/><line style="stroke:#181818;stroke-width:1;" x1="785.4736" x2="1063.228" y1="277.8398" y2="277.8398"/><text fill="#000000" font-family="sans-serif" font-size="13" lengthAdjust="spacing" textLength="264.7544" x="792.4736" y="273.0977">ValidateContainerCodes(cargo.containers)</text></g><path d="M1084,290.8398 L1084,315.8398 L1434,315.8398 L1434,300.8398 L1424,290.8398 L1084,290.8398" fill="#FEFFDD" style="stroke:#181818;stroke-width:0.5;"/><path d="M1424,290.8398 L1424,300.8398 L1434,300.8398 L1424,290.8398" fill="#FEFFDD" style="stroke:#181818;stroke-width:0.5;"/><text fill="#000000" font-family="sans-serif" font-size="13" lengthAdjust="spacing" textLength="329.6084" x="1090" y="308.4082">Perform ISO-6346 structure + check digit validation</text><path d="M20,328.1504 L82.1387,328.1504 L82.1387,335.4609 L72.1387,345.4609 L20,345.4609 L20,328.1504" fill="#EEEEEE" style="stroke:#000000;stroke-width:1.5;"/><rect fill="none" height="575.166" style="stroke:#000000;stroke-width:1.5;" width="1666.478" x="20" y="328.1504"/><text fill="#000000" font-family="sans-serif" font-size="13" font-weight="bold" lengthAdjust="spacing" textLength="17.1387" x="35" y="341.7188">alt</text><text fill="#000000" font-family="sans-serif" font-size="11" font-weight="bold" lengthAdjust="spacing" textLength="103.2915" x="97.1387" y="340.7852">[invalid container]</text><g class="message" data-participant-1="CONT_SVC" data-participant-2="SVC"><polygon fill="#181818" points="796.4736,362.7715,786.4736,366.7715,796.4736,370.7715,792.4736,366.7715" style="stroke:#181818;stroke-width:1;"/><line style="stroke:#181818;stroke-width:1;stroke-dasharray:2,2;" x1="790.4736" x2="1068.228" y1="366.7715" y2="366.7715"/><text fill="#000000" font-family="sans-serif" font-size="13" lengthAdjust="spacing" textLength="156.146" x="802.4736" y="362.0293">error("ISO-6346 invalid")</text></g><g class="message" data-participant-1="SVC" data-participant-2="CTRL"><polygon fill="#181818" points="523.3809,407.3926,513.3809,411.3926,523.3809,415.3926,519.3809,411.3926" style="stroke:#181818;stroke-width:1;"/><line style="stroke:#181818;stroke-width:1;stroke-dasharray:2,2;" x1="517.3809" x2="774.4736" y1="411.3926" y2="411.3926"/><text fill="#000000" font-family="sans-serif" font-size="13" lengthAdjust="spacing" textLength="106.1709" x="529.3809" y="391.3398">400 Bad Request</text><text fill="#000000" font-family="sans-serif" font-size="13" lengthAdjust="spacing" textLength="119.7676" x="529.3809" y="406.6504">{invalid containers}</text></g><g class="message" data-participant-1="CTRL" data-participant-2="SPA"><polygon fill="#181818" points="317.1606,436.7031,307.1606,440.7031,317.1606,444.7031,313.1606,440.7031" style="stroke:#181818;stroke-width:1;"/><line style="stroke:#181818;stroke-width:1;stroke-dasharray:2,2;" x1="311.1606" x2="501.3809" y1="440.7031" y2="440.7031"/><text fill="#000000" font-family="sans-serif" font-size="13" lengthAdjust="spacing" textLength="137.2808" x="323.1606" y="435.9609">show failed validation</text></g><g class="message" data-participant-1="SPA" data-participant-2="SAR"><polygon fill="#181818" points="148.125,466.0137,138.125,470.0137,148.125,474.0137,144.125,470.0137" style="stroke:#181818;stroke-width:1;"/><line style="stroke:#181818;stroke-width:1;stroke-dasharray:2,2;" x1="142.125" x2="295.1606" y1="470.0137" y2="470.0137"/><text fill="#000000" font-family="sans-serif" font-size="13" lengthAdjust="spacing" textLength="103.9873" x="154.125" y="465.2715">fix container IDs</text></g><line style="stroke:#000000;stroke-width:1;stroke-dasharray:2,2;" x1="20" x2="1686.478" y1="479.0137" y2="479.0137"/><text fill="#000000" font-family="sans-serif" font-size="11" font-weight="bold" lengthAdjust="spacing" textLength="35.5889" x="25" y="489.6484">[valid]</text><g class="message" data-participant-1="CONT_SVC" data-participant-2="SVC"><polygon fill="#181818" points="796.4736,510.2793,786.4736,514.2793,796.4736,518.2793,792.4736,514.2793" style="stroke:#181818;stroke-width:1;"/><line style="stroke:#181818;stroke-width:1;stroke-dasharray:2,2;" x1="790.4736" x2="1073.228" y1="514.2793" y2="514.2793"/><text fill="#000000" font-family="sans-serif" font-size="13" lengthAdjust="spacing" textLength="29.6055" x="802.4736" y="509.5371">valid</text></g><g class="message" data-participant-1="SVC" data-participant-2="CARGO_SVC"><polygon fill="#181818" points="1220.377,539.5898,1230.377,543.5898,1220.377,547.5898,1224.377,543.5898" style="stroke:#181818;stroke-width:1;"/><line style="stroke:#181818;stroke-width:1;" x1="785.4736" x2="1226.377" y1="543.5898" y2="543.5898"/><text fill="#000000" font-family="sans-serif" font-size="13" lengthAdjust="spacing" textLength="162.8491" x="792.4736" y="538.8477">ProcessCargoRules(cargo)</text></g><g class="message" data-participant-1="CARGO_SVC" data-participant-2="SVC"><polygon fill="#181818" points="796.4736,568.9004,786.4736,572.9004,796.4736,576.9004,792.4736,572.9004" style="stroke:#181818;stroke-width:1;"/><line style="stroke:#181818;stroke-width:1;stroke-dasharray:2,2;" x1="790.4736" x2="1236.377" y1="572.9004" y2="572.9004"/><text fill="#000000" font-family="sans-serif" font-size="13" lengthAdjust="spacing" textLength="94.0913" x="802.4736" y="568.1582">cargoValidated</text></g><g class="message" data-participant-1="SVC" data-participant-2="REPO"><polygon fill="#181818" points="1404.5669,598.2109,1414.5669,602.2109,1404.5669,606.2109,1408.5669,602.2109" style="stroke:#181818;stroke-width:1;"/><line style="stroke:#181818;stroke-width:1;" x1="785.4736" x2="1410.5669" y1="602.2109" y2="602.2109"/><text fill="#000000" font-family="sans-serif" font-size="13" lengthAdjust="spacing" textLength="226.4653" x="792.4736" y="597.4688">UpdateCargo(vvnId, cargoValidated)</text></g><g class="message" data-participant-1="REPO" data-participant-2="DB"><polygon fill="#181818" points="1597.5581,627.5215,1607.5581,631.5215,1597.5581,635.5215,1601.5581,631.5215" style="stroke:#181818;stroke-width:1;"/><line style="stroke:#181818;stroke-width:1;" x1="1426.5669" x2="1603.5581" y1="631.5215" y2="631.5215"/><text fill="#000000" font-family="sans-serif" font-size="13" lengthAdjust="spacing" textLength="108.3164" x="1433.5669" y="626.7793">UPDATE Cargo ...</text></g><g class="message" data-participant-1="DB" data-participant-2="REPO"><polygon fill="#181818" points="1437.5669,656.832,1427.5669,660.832,1437.5669,664.832,1433.5669,660.832" style="stroke:#181818;stroke-width:1;"/><line style="stroke:#181818;stroke-width:1;stroke-dasharray:2,2;" x1="1431.5669" x2="1613.5581" y1="660.832" y2="660.832"/><text fill="#000000" font-family="sans-serif" font-size="13" lengthAdjust="spacing" textLength="51.8984" x="1443.5669" y="656.0898">updated</text></g><g class="message" data-participant-1="REPO" data-participant-2="SVC"><polygon fill="#181818" points="796.4736,686.1426,786.4736,690.1426,796.4736,694.1426,792.4736,690.1426" style="stroke:#181818;stroke-width:1;"/><line style="stroke:#181818;stroke-width:1;stroke-dasharray:2,2;" x1="790.4736" x2="1420.5669" y1="690.1426" y2="690.1426"/><text fill="#000000" font-family="sans-serif" font-size="13" lengthAdjust="spacing" textLength="48.5088" x="802.4736" y="685.4004">success</text></g><g class="message" data-participant-1="SVC" data-participant-2="REPO"><polygon fill="#181818" points="1404.5669,715.4531,1414.5669,719.4531,1404.5669,723.4531,1408.5669,719.4531" style="stroke:#181818;stroke-width:1;"/><line style="stroke:#181818;stroke-width:1;" x1="785.4736" x2="1410.5669" y1="719.4531" y2="719.4531"/><text fill="#000000" font-family="sans-serif" font-size="13" lengthAdjust="spacing" textLength="128.0068" x="792.4736" y="714.7109">SaveChangesAsync()</text></g><g class="message" data-participant-1="REPO" data-participant-2="DB"><polygon fill="#181818" points="1597.5581,744.7637,1607.5581,748.7637,1597.5581,752.7637,1601.5581,748.7637" style="stroke:#181818;stroke-width:1;"/><line style="stroke:#181818;stroke-width:1;" x1="1426.5669" x2="1603.5581" y1="748.7637" y2="748.7637"/><text fill="#000000" font-family="sans-serif" font-size="13" lengthAdjust="spacing" textLength="90.8921" x="1433.5669" y="744.0215">SaveChanges()</text></g><g class="message" data-participant-1="DB" data-participant-2="REPO"><polygon fill="#181818" points="1437.5669,774.0742,1427.5669,778.0742,1437.5669,782.0742,1433.5669,778.0742" style="stroke:#181818;stroke-width:1;"/><line style="stroke:#181818;stroke-width:1;stroke-dasharray:2,2;" x1="1431.5669" x2="1613.5581" y1="778.0742" y2="778.0742"/><text fill="#000000" font-family="sans-serif" font-size="13" lengthAdjust="spacing" textLength="15.5835" x="1443.5669" y="773.332">ok</text></g><g class="message" data-participant-1="REPO" data-participant-2="SVC"><polygon fill="#181818" points="796.4736,803.3848,786.4736,807.3848,796.4736,811.3848,792.4736,807.3848" style="stroke:#181818;stroke-width:1;"/><line style="stroke:#181818;stroke-width:1;stroke-dasharray:2,2;" x1="790.4736" x2="1420.5669" y1="807.3848" y2="807.3848"/><text fill="#000000" font-family="sans-serif" font-size="13" lengthAdjust="spacing" textLength="15.5835" x="802.4736" y="802.6426">ok</text></g><g class="message" data-participant-1="SVC" data-participant-2="CTRL"><polygon fill="#181818" points="523.3809,832.6953,513.3809,836.6953,523.3809,840.6953,519.3809,836.6953" style="stroke:#181818;stroke-width:1;"/><line style="stroke:#181818;stroke-width:1;stroke-dasharray:2,2;" x1="517.3809" x2="779.4736" y1="836.6953" y2="836.6953"/><text fill="#000000" font-family="sans-serif" font-size="13" lengthAdjust="spacing" textLength="47.3599" x="529.3809" y="831.9531">200 OK</text></g><g class="message" data-participant-1="CTRL" data-participant-2="SPA"><polygon fill="#181818" points="317.1606,862.0059,307.1606,866.0059,317.1606,870.0059,313.1606,866.0059" style="stroke:#181818;stroke-width:1;"/><line style="stroke:#181818;stroke-width:1;stroke-dasharray:2,2;" x1="311.1606" x2="506.3809" y1="866.0059" y2="866.0059"/><text fill="#000000" font-family="sans-serif" font-size="13" lengthAdjust="spacing" textLength="95.5703" x="323.1606" y="861.2637">cargo accepted</text></g><g class="message" data-participant-1="SPA" data-participant-2="SAR"><polygon fill="#181818" points="148.125,891.3164,138.125,895.3164,148.125,899.3164,144.125,895.3164" style="stroke:#181818;stroke-width:1;"/><line style="stroke:#181818;stroke-width:1;stroke-dasharray:2,2;" x1="142.125" x2="300.1606" y1="895.3164" y2="895.3164"/><text fill="#000000" font-family="sans-serif" font-size="13" lengthAdjust="spacing" textLength="96.4336" x="154.125" y="890.5742">cargo validated</text></g><!--SRC=[ZLJ1Rk8m4BtdAqPSbceBL6pL0uTA8LIxQDiI0UMqqigodM0r6sTj9xjLrN_ls4aS25Jg0OdOyzwycJTZ8qp68I8gbPD8veQ8d2lOaKmmOeJCORZShE3cs_NDR7erdLu40Q56AXXizg8eH9v2cFBSm9eNYclyXwYA3u1es8Jhe23A22eAWY63sIOEwviuxDtikDOysmajpACq8X7KPTTMaf9PnfK3Hjlr_UUG6wugGHiXkwW7yfLsXHu2ejNZzlSPbEtIKLou_huw4_Y19koHn2EfNXnwVHUlUi1OAdClKw7nJ2_cBcmn3u9KoR9eNMdiWWUIYuHh4u1jDOnkRLzX1eInbNgGJ2GlBd0u7eylC0YD4vM5s_PR44OZoFOKKN6uZNx0X1HYKbMvdhmAzZQX5lyhVtKyRRwtGoxd21uu5YjX5o7PKs5rEbIeNt8w5EpISLqgNZnfhfRiM16sq2f2i5NKj1-9sfAzOP5aN0yTrvYsX_g8pBi7a4lyLYBT6v39uGL0p5KYrH_0yHxPyGPjL4bDgJXy1Rhdz1cOI8M1oey8udZE7AbLIp838dVNuAKuRb_0o7U4AoNLSE2pDS31XGEqiOqNrrTNC2SCb-flYGr70qxowBSwaskxjrxlvJz8YCWuEzRTk6q3SLHca8Z_7HSi5zhMbcbUepugehja_BJTxk8Bp4kDf5f3XeDC0PiCpgwkqDjkSUpWAKant0tBkinQT-l6T5dygZbj7j-9SwXsNavLUdmZ4_tNk6TeDSbJhW_LsSKy7k8XhiIINVPoz2IwVROd3eyyYxbbYHVXzgvPMTp4Ommkj_t6o56Nk2pEbj34rko-R5rIsxv-i1DpfgWDgNXKbrnlvgUAE43r0MShaC-V4tyQrzFTxSGKTsBrin_k3UqjWZCAHL9Ud1k6vj7gRqMDgZwQ8VjkkYSWmDyx]--></g></svg>