<svg xmlns="http://www.w3.org/2000/svg" xmlns:xlink="http://www.w3.org/1999/xlink" contentStyleType="text/css" data-diagram-type="SEQUENCE" height="2022px" preserveAspectRatio="none" style="width:2246px;height:2022px;background:#FFFFFF;" version="1.1" viewBox="0 0 2246 2022" width="2246px" zoomAndPan="magnify"><title>Edit or Submit Vessel Visit Notification - Process View</title><defs/><g><text fill="#000000" font-family="sans-serif" font-size="14" font-weight="bold" lengthAdjust="spacing" textLength="392.7178" x="928.2014" y="28.5352">Edit or Submit Vessel Visit Notification - Process View</text><g><title>.VesselVisitNotificationController</title><rect fill="#FFFFFF" height="205.1738" style="stroke:#181818;stroke-width:1;" width="10" x="852.1768" y="239.2188"/></g><g><title>.VesselVisitNotificationController</title><rect fill="#FFFFFF" height="290.1055" style="stroke:#181818;stroke-width:1;" width="10" x="852.1768" y="643.5664"/></g><g><title>.VesselVisitNotificationService</title><rect fill="#FFFFFF" height="146.5527" style="stroke:#181818;stroke-width:1;" width="10" x="1443.4648" y="268.5293"/></g><g><title>.VesselVisitNotificationService</title><rect fill="#FFFFFF" height="909.627" style="stroke:#181818;stroke-width:1;" width="10" x="1443.4648" y="672.877"/></g><g><title>.VesselVisitNotificationRepository</title><rect fill="#FFFFFF" height="87.9316" style="stroke:#181818;stroke-width:1;" width="10" x="1687.3521" y="297.8398"/></g><g><title>.VesselVisitNotificationRepository</title><rect fill="#FFFFFF" height="87.9316" style="stroke:#181818;stroke-width:1;" width="10" x="1687.3521" y="733.498"/></g><g><title>.VesselVisitNotificationRepository</title><rect fill="#FFFFFF" height="87.9316" style="stroke:#181818;stroke-width:1;" width="10" x="1687.3521" y="1348.0195"/></g><g><title>.VesselVisitNotificationRepository</title><rect fill="#FFFFFF" height="87.9316" style="stroke:#181818;stroke-width:1;" width="10" x="1687.3521" y="1465.2617"/></g><g><title>.PortManagementDB</title><rect fill="#FFFFFF" height="29.3105" style="stroke:#181818;stroke-width:1;" width="10" x="2149.2178" y="327.1504"/></g><g><title>.PortManagementDB</title><rect fill="#FFFFFF" height="29.3105" style="stroke:#181818;stroke-width:1;" width="10" x="2149.2178" y="762.8086"/></g><g><title>.PortManagementDB</title><rect fill="#FFFFFF" height="29.3105" style="stroke:#181818;stroke-width:1;" width="10" x="2149.2178" y="1377.3301"/></g><g><title>.PortManagementDB</title><rect fill="#FFFFFF" height="29.3105" style="stroke:#181818;stroke-width:1;" width="10" x="2149.2178" y="1494.5723"/></g><rect fill="none" height="345.7266" style="stroke:#000000;stroke-width:1.5;" width="2220.1206" x="20" y="135.9766"/><rect fill="none" height="185.1738" style="stroke:#000000;stroke-width:1.5;" width="1547.1392" x="20" y="495.7031"/><rect fill="none" height="373.0371" style="stroke:#000000;stroke-width:1.5;" width="2230.1206" x="10" y="694.877"/><rect fill="none" height="105.2422" style="stroke:#000000;stroke-width:1.5;" width="1547.1392" x="20" y="836.4297"/><rect fill="none" height="105.2422" style="stroke:#000000;stroke-width:1.5;" width="1547.1392" x="20" y="955.6719"/><rect fill="none" height="508.5898" style="stroke:#000000;stroke-width:1.5;" width="2230.1206" x="10" y="1081.9141"/><rect fill="none" height="105.2422" style="stroke:#000000;stroke-width:1.5;" width="1547.1392" x="20" y="1214.4668"/><rect fill="none" height="111.2422" style="stroke:#000000;stroke-width:1.5;" width="1005.2837" x="20" y="1604.5039"/><rect fill="none" height="105.2422" style="stroke:#000000;stroke-width:1.5;" width="1547.1392" x="20" y="1729.7461"/><rect fill="none" height="75.9316" style="stroke:#000000;stroke-width:1.5;" width="966.2656" x="20" y="1848.9883"/><g><title>Shipping Agent Representative</title><rect fill="#000000" fill-opacity="0.00000" height="1822.9434" width="8" x="133.125" y="118.9766"/><line style="stroke:#181818;stroke-width:0.5;stroke-dasharray:5,5;" x1="137" x2="137" y1="118.9766" y2="1941.9199"/></g><g><title>EditNotification.html</title><rect fill="#000000" fill-opacity="0.00000" height="1822.9434" width="8" x="509.6357" y="118.9766"/><line style="stroke:#181818;stroke-width:0.5;stroke-dasharray:5,5;" x1="513.6118" x2="513.6118" y1="118.9766" y2="1941.9199"/></g><g><title>.VesselVisitNotificationController</title><rect fill="#000000" fill-opacity="0.00000" height="1822.9434" width="8" x="853.1768" y="118.9766"/><line style="stroke:#181818;stroke-width:0.5;stroke-dasharray:5,5;" x1="857.0879" x2="857.0879" y1="118.9766" y2="1941.9199"/></g><g><title>.VesselVisitNotificationService</title><rect fill="#000000" fill-opacity="0.00000" height="1822.9434" width="8" x="1444.4648" y="118.9766"/><line style="stroke:#181818;stroke-width:0.5;stroke-dasharray:5,5;" x1="1447.7905" x2="1447.7905" y1="118.9766" y2="1941.9199"/></g><g><title>.VesselVisitNotificationRepository</title><rect fill="#000000" fill-opacity="0.00000" height="1822.9434" width="8" x="1688.3521" y="118.9766"/><line style="stroke:#181818;stroke-width:0.5;stroke-dasharray:5,5;" x1="1692.2808" x2="1692.2808" y1="118.9766" y2="1941.9199"/></g><g><title>.PortManagementDB</title><rect fill="#000000" fill-opacity="0.00000" height="1822.9434" width="8" x="2150.2178" y="118.9766"/><line style="stroke:#181818;stroke-width:0.5;stroke-dasharray:5,5;" x1="2153.3149" x2="2153.3149" y1="118.9766" y2="1941.9199"/></g><g class="participant participant-head" data-participant="AGENT"><text fill="#000000" font-family="sans-serif" font-size="14" lengthAdjust="spacing" textLength="208.25" x="30" y="116.0234">Shipping Agent Representative</text><ellipse cx="137.125" cy="50.9883" fill="#E2E2F0" rx="8" ry="8" style="stroke:#181818;stroke-width:0.5;"/><path d="M137.125,58.9883 L137.125,85.9883 M124.125,66.9883 L150.125,66.9883 M137.125,85.9883 L124.125,100.9883 M137.125,85.9883 L150.125,100.9883" fill="none" style="stroke:#181818;stroke-width:0.5;"/></g><g class="participant participant-tail" data-participant="AGENT"><text fill="#000000" font-family="sans-serif" font-size="14" lengthAdjust="spacing" textLength="208.25" x="30" y="1954.4551">Shipping Agent Representative</text><ellipse cx="137.125" cy="1965.9082" fill="#E2E2F0" rx="8" ry="8" style="stroke:#181818;stroke-width:0.5;"/><path d="M137.125,1973.9082 L137.125,2000.9082 M124.125,1981.9082 L150.125,1981.9082 M137.125,2000.9082 L124.125,2015.9082 M137.125,2000.9082 L150.125,2015.9082" fill="none" style="stroke:#181818;stroke-width:0.5;"/></g><g class="participant participant-head" data-participant="SPA"><rect fill="#E2E2F0" height="46.9766" rx="2.5" ry="2.5" style="stroke:#181818;stroke-width:0.5;" width="154.0479" x="436.6118" y="71"/><text fill="#000000" font-family="sans-serif" font-size="14" lengthAdjust="spacing" textLength="140.0479" x="443.6118" y="91.5352">EditNotification.html</text><text fill="#000000" font-family="sans-serif" font-size="14" lengthAdjust="spacing" textLength="34.043" x="496.6143" y="108.0234">(SPA)</text></g><g class="participant participant-tail" data-participant="SPA"><rect fill="#E2E2F0" height="46.9766" rx="2.5" ry="2.5" style="stroke:#181818;stroke-width:0.5;" width="154.0479" x="436.6118" y="1940.9199"/><text fill="#000000" font-family="sans-serif" font-size="14" lengthAdjust="spacing" textLength="140.0479" x="443.6118" y="1961.4551">EditNotification.html</text><text fill="#000000" font-family="sans-serif" font-size="14" lengthAdjust="spacing" textLength="34.043" x="496.6143" y="1977.9434">(SPA)</text></g><g class="participant participant-head" data-participant="CTRL"><rect fill="#E2E2F0" height="30.4883" rx="2.5" ry="2.5" style="stroke:#181818;stroke-width:0.5;" width="238.1777" x="738.0879" y="87.4883"/><text fill="#000000" font-family="sans-serif" font-size="14" lengthAdjust="spacing" textLength="224.1777" x="745.0879" y="108.0234">:VesselVisitNotificationController</text></g><g class="participant participant-tail" data-participant="CTRL"><rect fill="#E2E2F0" height="30.4883" rx="2.5" ry="2.5" style="stroke:#181818;stroke-width:0.5;" width="238.1777" x="738.0879" y="1940.9199"/><text fill="#000000" font-family="sans-serif" font-size="14" lengthAdjust="spacing" textLength="224.1777" x="745.0879" y="1961.4551">:VesselVisitNotificationController</text></g><g class="participant participant-head" data-participant="SVC"><rect fill="#E2E2F0" height="30.4883" rx="2.5" ry="2.5" style="stroke:#181818;stroke-width:0.5;" width="217.3486" x="1339.7905" y="87.4883"/><text fill="#000000" font-family="sans-serif" font-size="14" lengthAdjust="spacing" textLength="203.3486" x="1346.7905" y="108.0234">:VesselVisitNotificationService</text></g><g class="participant participant-tail" data-participant="SVC"><rect fill="#E2E2F0" height="30.4883" rx="2.5" ry="2.5" style="stroke:#181818;stroke-width:0.5;" width="217.3486" x="1339.7905" y="1940.9199"/><text fill="#000000" font-family="sans-serif" font-size="14" lengthAdjust="spacing" textLength="203.3486" x="1346.7905" y="1961.4551">:VesselVisitNotificationService</text></g><g class="participant participant-head" data-participant="REPO"><rect fill="#E2E2F0" height="30.4883" rx="2.5" ry="2.5" style="stroke:#181818;stroke-width:0.5;" width="242.1426" x="1571.2808" y="87.4883"/><text fill="#000000" font-family="sans-serif" font-size="14" lengthAdjust="spacing" textLength="228.1426" x="1578.2808" y="108.0234">:VesselVisitNotificationRepository</text></g><g class="participant participant-tail" data-participant="REPO"><rect fill="#E2E2F0" height="30.4883" rx="2.5" ry="2.5" style="stroke:#181818;stroke-width:0.5;" width="242.1426" x="1571.2808" y="1940.9199"/><text fill="#000000" font-family="sans-serif" font-size="14" lengthAdjust="spacing" textLength="228.1426" x="1578.2808" y="1961.4551">:VesselVisitNotificationRepository</text></g><g class="participant participant-head" data-participant="DB"><rect fill="#E2E2F0" height="30.4883" rx="2.5" ry="2.5" style="stroke:#181818;stroke-width:0.5;" width="151.8057" x="2078.3149" y="87.4883"/><text fill="#000000" font-family="sans-serif" font-size="14" lengthAdjust="spacing" textLength="137.8057" x="2085.3149" y="108.0234">:PortManagementDB</text></g><g class="participant participant-tail" data-participant="DB"><rect fill="#E2E2F0" height="30.4883" rx="2.5" ry="2.5" style="stroke:#181818;stroke-width:0.5;" width="151.8057" x="2078.3149" y="1940.9199"/><text fill="#000000" font-family="sans-serif" font-size="14" lengthAdjust="spacing" textLength="137.8057" x="2085.3149" y="1961.4551">:PortManagementDB</text></g><g><title>.VesselVisitNotificationController</title><rect fill="#FFFFFF" height="205.1738" style="stroke:#181818;stroke-width:1;" width="10" x="852.1768" y="239.2188"/></g><g><title>.VesselVisitNotificationController</title><rect fill="#FFFFFF" height="290.1055" style="stroke:#181818;stroke-width:1;" width="10" x="852.1768" y="643.5664"/></g><g><title>.VesselVisitNotificationService</title><rect fill="#FFFFFF" height="146.5527" style="stroke:#181818;stroke-width:1;" width="10" x="1443.4648" y="268.5293"/></g><g><title>.VesselVisitNotificationService</title><rect fill="#FFFFFF" height="909.627" style="stroke:#181818;stroke-width:1;" width="10" x="1443.4648" y="672.877"/></g><g><title>.VesselVisitNotificationRepository</title><rect fill="#FFFFFF" height="87.9316" style="stroke:#181818;stroke-width:1;" width="10" x="1687.3521" y="297.8398"/></g><g><title>.VesselVisitNotificationRepository</title><rect fill="#FFFFFF" height="87.9316" style="stroke:#181818;stroke-width:1;" width="10" x="1687.3521" y="733.498"/></g><g><title>.VesselVisitNotificationRepository</title><rect fill="#FFFFFF" height="87.9316" style="stroke:#181818;stroke-width:1;" width="10" x="1687.3521" y="1348.0195"/></g><g><title>.VesselVisitNotificationRepository</title><rect fill="#FFFFFF" height="87.9316" style="stroke:#181818;stroke-width:1;" width="10" x="1687.3521" y="1465.2617"/></g><g><title>.PortManagementDB</title><rect fill="#FFFFFF" height="29.3105" style="stroke:#181818;stroke-width:1;" width="10" x="2149.2178" y="327.1504"/></g><g><title>.PortManagementDB</title><rect fill="#FFFFFF" height="29.3105" style="stroke:#181818;stroke-width:1;" width="10" x="2149.2178" y="762.8086"/></g><g><title>.PortManagementDB</title><rect fill="#FFFFFF" height="29.3105" style="stroke:#181818;stroke-width:1;" width="10" x="2149.2178" y="1377.3301"/></g><g><title>.PortManagementDB</title><rect fill="#FFFFFF" height="29.3105" style="stroke:#181818;stroke-width:1;" width="10" x="2149.2178" y="1494.5723"/></g><path d="M20,135.9766 L212.0752,135.9766 L212.0752,143.2871 L202.0752,153.2871 L20,153.2871 L20,135.9766" fill="#EEEEEE" style="stroke:#000000;stroke-width:1.5;"/><rect fill="none" height="345.7266" style="stroke:#000000;stroke-width:1.5;" width="2220.1206" x="20" y="135.9766"/><text fill="#000000" font-family="sans-serif" font-size="13" font-weight="bold" lengthAdjust="spacing" textLength="147.0752" x="35" y="149.5449">Edit Notification Form</text><g class="message" data-participant-1="AGENT" data-participant-2="SPA"><polygon fill="#181818" points="501.6357,170.5977,511.6357,174.5977,501.6357,178.5977,505.6357,174.5977" style="stroke:#181818;stroke-width:1;"/><line style="stroke:#181818;stroke-width:1;" x1="137.125" x2="507.6357" y1="174.5977" y2="174.5977"/><text fill="#000000" font-family="sans-serif" font-size="13" lengthAdjust="spacing" textLength="195.9141" x="144.125" y="169.8555">open edit.html?id={businessId}</text></g><path d="M142,187.5977 L142,212.5977 L892,212.5977 L892,197.5977 L882,187.5977 L142,187.5977" fill="#FEFFDD" style="stroke:#181818;stroke-width:0.5;"/><path d="M882,187.5977 L882,197.5977 L892,197.5977 L882,187.5977" fill="#FEFFDD" style="stroke:#181818;stroke-width:0.5;"/><text fill="#000000" font-family="sans-serif" font-size="13" lengthAdjust="spacing" textLength="729.9487" x="148" y="205.166">The representative opens an existing Vessel Visit Notification\nin "InProgress" status to modify or complete details.</text><g class="message" data-participant-1="SPA" data-participant-2="CTRL"><polygon fill="#181818" points="840.1768,235.2188,850.1768,239.2188,840.1768,243.2188,844.1768,239.2188" style="stroke:#181818;stroke-width:1;"/><line style="stroke:#181818;stroke-width:1;" x1="513.6357" x2="846.1768" y1="239.2188" y2="239.2188"/><text fill="#000000" font-family="sans-serif" font-size="13" lengthAdjust="spacing" textLength="301.2788" x="520.6357" y="234.4766">GET /api/vessel-visit-notifications/{businessId}</text></g><g class="message" data-participant-1="CTRL" data-participant-2="SVC"><polygon fill="#181818" points="1431.4648,264.5293,1441.4648,268.5293,1431.4648,272.5293,1435.4648,268.5293" style="stroke:#181818;stroke-width:1;"/><line style="stroke:#181818;stroke-width:1;" x1="862.1768" x2="1437.4648" y1="268.5293" y2="268.5293"/><text fill="#000000" font-family="sans-serif" font-size="13" lengthAdjust="spacing" textLength="214.8872" x="869.1768" y="263.7871">GetByBusinessIdAsync(businessId)</text></g><g class="message" data-participant-1="SVC" data-participant-2="REPO"><polygon fill="#181818" points="1675.3521,293.8398,1685.3521,297.8398,1675.3521,301.8398,1679.3521,297.8398" style="stroke:#181818;stroke-width:1;"/><line style="stroke:#181818;stroke-width:1;" x1="1453.4648" x2="1681.3521" y1="297.8398" y2="297.8398"/><text fill="#000000" font-family="sans-serif" font-size="13" lengthAdjust="spacing" textLength="214.8872" x="1460.4648" y="293.0977">GetByBusinessIdAsync(businessId)</text></g><g class="message" data-participant-1="REPO" data-participant-2="DB"><polygon fill="#181818" points="2137.2178,323.1504,2147.2178,327.1504,2137.2178,331.1504,2141.2178,327.1504" style="stroke:#181818;stroke-width:1;"/><line style="stroke:#181818;stroke-width:1;" x1="1697.3521" x2="2143.2178" y1="327.1504" y2="327.1504"/><text fill="#000000" font-family="sans-serif" font-size="13" lengthAdjust="spacing" textLength="389.397" x="1704.3521" y="322.4082">SELECT * FROM VesselVisitNotifications WHERE BusinessId = ?</text></g><g class="message" data-participant-1="DB" data-participant-2="REPO"><polygon fill="#181818" points="1708.3521,352.4609,1698.3521,356.4609,1708.3521,360.4609,1704.3521,356.4609" style="stroke:#181818;stroke-width:1;"/><line style="stroke:#181818;stroke-width:1;stroke-dasharray:2,2;" x1="1702.3521" x2="2153.2178" y1="356.4609" y2="356.4609"/><text fill="#000000" font-family="sans-serif" font-size="13" lengthAdjust="spacing" textLength="140.7593" x="1714.3521" y="351.7188">VesselVisitNotification</text></g><g class="message" data-participant-1="REPO" data-participant-2="SVC"><polygon fill="#181818" points="1464.4648,381.7715,1454.4648,385.7715,1464.4648,389.7715,1460.4648,385.7715" style="stroke:#181818;stroke-width:1;"/><line style="stroke:#181818;stroke-width:1;stroke-dasharray:2,2;" x1="1458.4648" x2="1691.3521" y1="385.7715" y2="385.7715"/><text fill="#000000" font-family="sans-serif" font-size="13" lengthAdjust="spacing" textLength="140.7593" x="1470.4648" y="381.0293">VesselVisitNotification</text></g><g class="message" data-participant-1="SVC" data-participant-2="CTRL"><polygon fill="#181818" points="873.1768,411.082,863.1768,415.082,873.1768,419.082,869.1768,415.082" style="stroke:#181818;stroke-width:1;"/><line style="stroke:#181818;stroke-width:1;stroke-dasharray:2,2;" x1="867.1768" x2="1447.4648" y1="415.082" y2="415.082"/><text fill="#000000" font-family="sans-serif" font-size="13" lengthAdjust="spacing" textLength="163.3442" x="879.1768" y="410.3398">VesselVisitNotificationDto</text></g><g class="message" data-participant-1="CTRL" data-participant-2="SPA"><polygon fill="#181818" points="524.6357,440.3926,514.6357,444.3926,524.6357,448.3926,520.6357,444.3926" style="stroke:#181818;stroke-width:1;"/><line style="stroke:#181818;stroke-width:1;stroke-dasharray:2,2;" x1="518.6357" x2="856.1768" y1="444.3926" y2="444.3926"/><text fill="#000000" font-family="sans-serif" font-size="13" lengthAdjust="spacing" textLength="172.25" x="530.6357" y="439.6504">200 OK + Notification Data</text></g><g class="message" data-participant-1="SPA" data-participant-2="AGENT"><polygon fill="#181818" points="148.125,469.7031,138.125,473.7031,148.125,477.7031,144.125,473.7031" style="stroke:#181818;stroke-width:1;"/><line style="stroke:#181818;stroke-width:1;" x1="142.125" x2="512.6357" y1="473.7031" y2="473.7031"/><text fill="#000000" font-family="sans-serif" font-size="13" lengthAdjust="spacing" textLength="177.8105" x="154.125" y="468.9609">renderEditForm(notification)</text></g><path d="M20,495.7031 L174.6748,495.7031 L174.6748,503.0137 L164.6748,513.0137 L20,513.0137 L20,495.7031" fill="#EEEEEE" style="stroke:#000000;stroke-width:1.5;"/><rect fill="none" height="185.1738" style="stroke:#000000;stroke-width:1.5;" width="1547.1392" x="20" y="495.7031"/><text fill="#000000" font-family="sans-serif" font-size="13" font-weight="bold" lengthAdjust="spacing" textLength="109.6748" x="35" y="509.2715">Modify and Save</text><g class="message" data-participant-1="AGENT" data-participant-2="SPA"><polygon fill="#181818" points="501.6357,530.3242,511.6357,534.3242,501.6357,538.3242,505.6357,534.3242" style="stroke:#181818;stroke-width:1;"/><line style="stroke:#181818;stroke-width:1;" x1="137.125" x2="507.6357" y1="534.3242" y2="534.3242"/><text fill="#000000" font-family="sans-serif" font-size="13" lengthAdjust="spacing" textLength="349.8257" x="144.125" y="529.582">fill fields (ETA, ETD, Dock, Cargo, Crew, Safety Officers)</text></g><g class="message" data-participant-1="AGENT" data-participant-2="SPA"><polygon fill="#181818" points="501.6357,559.6348,511.6357,563.6348,501.6357,567.6348,505.6357,563.6348" style="stroke:#181818;stroke-width:1;"/><line style="stroke:#181818;stroke-width:1;" x1="137.125" x2="507.6357" y1="563.6348" y2="563.6348"/><text fill="#000000" font-family="sans-serif" font-size="13" lengthAdjust="spacing" textLength="128.8066" x="144.125" y="558.8926">click "Save Changes"</text></g><path d="M142,576.6348 L142,601.6348 L867,601.6348 L867,586.6348 L857,576.6348 L142,576.6348" fill="#FEFFDD" style="stroke:#181818;stroke-width:0.5;"/><path d="M857,576.6348 L857,586.6348 L867,586.6348 L857,576.6348" fill="#FEFFDD" style="stroke:#181818;stroke-width:0.5;"/><text fill="#000000" font-family="sans-serif" font-size="13" lengthAdjust="spacing" textLength="704.9009" x="148" y="594.2031">Representative can:\n&#8226; Keep status "InProgress" (save draft)\n&#8226; Or change status to "PendingApproval" (submit)</text><g class="message" data-participant-1="SPA" data-participant-2="CTRL"><polygon fill="#181818" points="840.1768,639.5664,850.1768,643.5664,840.1768,647.5664,844.1768,643.5664" style="stroke:#181818;stroke-width:1;"/><line style="stroke:#181818;stroke-width:1;" x1="513.6357" x2="846.1768" y1="643.5664" y2="643.5664"/><text fill="#000000" font-family="sans-serif" font-size="13" lengthAdjust="spacing" textLength="319.541" x="520.6357" y="623.5137">PATCH /api/vessel-visit-notifications/{businessId}</text><text fill="#000000" font-family="sans-serif" font-size="13" lengthAdjust="spacing" textLength="133.6753" x="520.6357" y="638.8242">{updated fields JSON}</text></g><g class="message" data-participant-1="CTRL" data-participant-2="SVC"><polygon fill="#181818" points="1431.4648,668.877,1441.4648,672.877,1431.4648,676.877,1435.4648,672.877" style="stroke:#181818;stroke-width:1;"/><line style="stroke:#181818;stroke-width:1;" x1="862.1768" x2="1437.4648" y1="672.877" y2="672.877"/><text fill="#000000" font-family="sans-serif" font-size="13" lengthAdjust="spacing" textLength="186.6084" x="869.1768" y="668.1348">UpdateAsync(businessId, dto)</text></g><path d="M10,694.877 L213.4058,694.877 L213.4058,702.1875 L203.4058,712.1875 L10,712.1875 L10,694.877" fill="#EEEEEE" style="stroke:#000000;stroke-width:1.5;"/><rect fill="none" height="373.0371" style="stroke:#000000;stroke-width:1.5;" width="2230.1206" x="10" y="694.877"/><text fill="#000000" font-family="sans-serif" font-size="13" font-weight="bold" lengthAdjust="spacing" textLength="158.4058" x="25" y="708.4453">Validate Editable Status</text><g class="message" data-participant-1="SVC" data-participant-2="REPO"><polygon fill="#181818" points="1675.3521,729.498,1685.3521,733.498,1675.3521,737.498,1679.3521,733.498" style="stroke:#181818;stroke-width:1;"/><line style="stroke:#181818;stroke-width:1;" x1="1453.4648" x2="1681.3521" y1="733.498" y2="733.498"/><text fill="#000000" font-family="sans-serif" font-size="13" lengthAdjust="spacing" textLength="214.8872" x="1460.4648" y="728.7559">GetByBusinessIdAsync(businessId)</text></g><g class="message" data-participant-1="REPO" data-participant-2="DB"><polygon fill="#181818" points="2137.2178,758.8086,2147.2178,762.8086,2137.2178,766.8086,2141.2178,762.8086" style="stroke:#181818;stroke-width:1;"/><line style="stroke:#181818;stroke-width:1;" x1="1697.3521" x2="2143.2178" y1="762.8086" y2="762.8086"/><text fill="#000000" font-family="sans-serif" font-size="13" lengthAdjust="spacing" textLength="389.397" x="1704.3521" y="758.0664">SELECT * FROM VesselVisitNotifications WHERE BusinessId = ?</text></g><g class="message" data-participant-1="DB" data-participant-2="REPO"><polygon fill="#181818" points="1708.3521,788.1191,1698.3521,792.1191,1708.3521,796.1191,1704.3521,792.1191" style="stroke:#181818;stroke-width:1;"/><line style="stroke:#181818;stroke-width:1;stroke-dasharray:2,2;" x1="1702.3521" x2="2153.2178" y1="792.1191" y2="792.1191"/><text fill="#000000" font-family="sans-serif" font-size="13" lengthAdjust="spacing" textLength="140.7593" x="1714.3521" y="787.377">VesselVisitNotification</text></g><g class="message" data-participant-1="REPO" data-participant-2="SVC"><polygon fill="#181818" points="1464.4648,817.4297,1454.4648,821.4297,1464.4648,825.4297,1460.4648,821.4297" style="stroke:#181818;stroke-width:1;"/><line style="stroke:#181818;stroke-width:1;stroke-dasharray:2,2;" x1="1458.4648" x2="1691.3521" y1="821.4297" y2="821.4297"/><text fill="#000000" font-family="sans-serif" font-size="13" lengthAdjust="spacing" textLength="140.7593" x="1470.4648" y="816.6875">VesselVisitNotification</text></g><path d="M20,836.4297 L82.1387,836.4297 L82.1387,843.7402 L72.1387,853.7402 L20,853.7402 L20,836.4297" fill="#EEEEEE" style="stroke:#000000;stroke-width:1.5;"/><rect fill="none" height="105.2422" style="stroke:#000000;stroke-width:1.5;" width="1547.1392" x="20" y="836.4297"/><text fill="#000000" font-family="sans-serif" font-size="13" font-weight="bold" lengthAdjust="spacing" textLength="17.1387" x="35" y="849.998">alt</text><text fill="#000000" font-family="sans-serif" font-size="11" font-weight="bold" lengthAdjust="spacing" textLength="133.6919" x="97.1387" y="849.0645">[Notification not found]</text><g class="message" data-participant-1="SVC" data-participant-2="CTRL"><polygon fill="#181818" points="873.1768,871.0508,863.1768,875.0508,873.1768,879.0508,869.1768,875.0508" style="stroke:#181818;stroke-width:1;"/><line style="stroke:#181818;stroke-width:1;stroke-dasharray:2,2;" x1="867.1768" x2="1442.4648" y1="875.0508" y2="875.0508"/><text fill="#000000" font-family="sans-serif" font-size="13" lengthAdjust="spacing" textLength="378.5107" x="879.1768" y="870.3086">throws DomainValidationException("Notification not found")</text></g><g class="message" data-participant-1="CTRL" data-participant-2="SPA"><polygon fill="#181818" points="524.6357,900.3613,514.6357,904.3613,524.6357,908.3613,520.6357,904.3613" style="stroke:#181818;stroke-width:1;"/><line style="stroke:#181818;stroke-width:1;stroke-dasharray:2,2;" x1="518.6357" x2="851.1768" y1="904.3613" y2="904.3613"/><text fill="#000000" font-family="sans-serif" font-size="13" lengthAdjust="spacing" textLength="94.6118" x="530.6357" y="899.6191">404 Not Found</text></g><g class="message" data-participant-1="SPA" data-participant-2="AGENT"><polygon fill="#181818" points="148.125,929.6719,138.125,933.6719,148.125,937.6719,144.125,933.6719" style="stroke:#181818;stroke-width:1;"/><line style="stroke:#181818;stroke-width:1;stroke-dasharray:2,2;" x1="142.125" x2="512.6357" y1="933.6719" y2="933.6719"/><text fill="#000000" font-family="sans-serif" font-size="13" lengthAdjust="spacing" textLength="221.3364" x="154.125" y="928.9297">showError("Notification not found")</text></g><path d="M20,955.6719 L82.1387,955.6719 L82.1387,962.9824 L72.1387,972.9824 L20,972.9824 L20,955.6719" fill="#EEEEEE" style="stroke:#000000;stroke-width:1.5;"/><rect fill="none" height="105.2422" style="stroke:#000000;stroke-width:1.5;" width="1547.1392" x="20" y="955.6719"/><text fill="#000000" font-family="sans-serif" font-size="13" font-weight="bold" lengthAdjust="spacing" textLength="17.1387" x="35" y="969.2402">alt</text><text fill="#000000" font-family="sans-serif" font-size="11" font-weight="bold" lengthAdjust="spacing" textLength="123.4976" x="97.1387" y="968.3066">[Status != InProgress]</text><g class="message" data-participant-1="SVC" data-participant-2="CTRL"><polygon fill="#181818" points="868.1768,990.293,858.1768,994.293,868.1768,998.293,864.1768,994.293" style="stroke:#181818;stroke-width:1;"/><line style="stroke:#181818;stroke-width:1;stroke-dasharray:2,2;" x1="862.1768" x2="1442.4648" y1="994.293" y2="994.293"/><text fill="#000000" font-family="sans-serif" font-size="13" lengthAdjust="spacing" textLength="562.2881" x="874.1768" y="989.5508">throws BusinessRuleViolationException("Cannot edit submitted or approved notification")</text></g><g class="message" data-participant-1="CTRL" data-participant-2="SPA"><polygon fill="#181818" points="524.6357,1019.6035,514.6357,1023.6035,524.6357,1027.6035,520.6357,1023.6035" style="stroke:#181818;stroke-width:1;"/><line style="stroke:#181818;stroke-width:1;stroke-dasharray:2,2;" x1="518.6357" x2="856.1768" y1="1023.6035" y2="1023.6035"/><text fill="#000000" font-family="sans-serif" font-size="13" lengthAdjust="spacing" textLength="106.1709" x="530.6357" y="1018.8613">400 Bad Request</text></g><g class="message" data-participant-1="SPA" data-participant-2="AGENT"><polygon fill="#181818" points="148.125,1048.9141,138.125,1052.9141,148.125,1056.9141,144.125,1052.9141" style="stroke:#181818;stroke-width:1;"/><line style="stroke:#181818;stroke-width:1;stroke-dasharray:2,2;" x1="142.125" x2="512.6357" y1="1052.9141" y2="1052.9141"/><text fill="#000000" font-family="sans-serif" font-size="13" lengthAdjust="spacing" textLength="352.5107" x="154.125" y="1048.1719">showError("Only InProgress notifications can be edited")</text></g><path d="M10,1081.9141 L152.5698,1081.9141 L152.5698,1089.2246 L142.5698,1099.2246 L10,1099.2246 L10,1081.9141" fill="#EEEEEE" style="stroke:#000000;stroke-width:1.5;"/><rect fill="none" height="508.5898" style="stroke:#000000;stroke-width:1.5;" width="2230.1206" x="10" y="1081.9141"/><text fill="#000000" font-family="sans-serif" font-size="13" font-weight="bold" lengthAdjust="spacing" textLength="97.5698" x="25" y="1095.4824">Apply Updates</text><path d="M1458,1104.2246 L1458,1159.2246 L1909,1159.2246 L1909,1114.2246 L1899,1104.2246 L1458,1104.2246" fill="#FEFFDD" style="stroke:#181818;stroke-width:0.5;"/><path d="M1899,1104.2246 L1899,1114.2246 L1909,1114.2246 L1899,1104.2246" fill="#FEFFDD" style="stroke:#181818;stroke-width:0.5;"/><text fill="#000000" font-family="sans-serif" font-size="13" lengthAdjust="spacing" textLength="417.479" x="1464" y="1121.793">&#8226; Update ETA, ETD, DockAssignment, Crew, Cargo manifests&lt;br&gt;</text><text fill="#000000" font-family="sans-serif" font-size="13" lengthAdjust="spacing" textLength="430.7202" x="1464" y="1137.1035">&#8226; Recalculate validation if status changes to "PendingApproval"&lt;br&gt;</text><text fill="#000000" font-family="sans-serif" font-size="13" lengthAdjust="spacing" textLength="237.1865" x="1464" y="1152.4141">&#8226; Maintain "InProgress" if saving draft</text><g class="message" data-participant-1="SVC" data-participant-2="SVC"><line style="stroke:#181818;stroke-width:1;" x1="1453.4648" x2="1495.4648" y1="1186.4668" y2="1186.4668"/><line style="stroke:#181818;stroke-width:1;" x1="1495.4648" x2="1495.4648" y1="1186.4668" y2="1199.4668"/><line style="stroke:#181818;stroke-width:1;" x1="1454.4648" x2="1495.4648" y1="1199.4668" y2="1199.4668"/><polygon fill="#181818" points="1464.4648,1195.4668,1454.4648,1199.4668,1464.4648,1203.4668,1460.4648,1199.4668" style="stroke:#181818;stroke-width:1;"/><text fill="#000000" font-family="sans-serif" font-size="13" lengthAdjust="spacing" textLength="109.1035" x="1460.4648" y="1181.7246">ValidateData(dto)</text></g><path d="M20,1214.4668 L82.1387,1214.4668 L82.1387,1221.7773 L72.1387,1231.7773 L20,1231.7773 L20,1214.4668" fill="#EEEEEE" style="stroke:#000000;stroke-width:1.5;"/><rect fill="none" height="105.2422" style="stroke:#000000;stroke-width:1.5;" width="1547.1392" x="20" y="1214.4668"/><text fill="#000000" font-family="sans-serif" font-size="13" font-weight="bold" lengthAdjust="spacing" textLength="17.1387" x="35" y="1228.0352">alt</text><text fill="#000000" font-family="sans-serif" font-size="11" font-weight="bold" lengthAdjust="spacing" textLength="93.5269" x="97.1387" y="1227.1016">[Validation fails]</text><g class="message" data-participant-1="SVC" data-participant-2="CTRL"><polygon fill="#181818" points="868.1768,1249.0879,858.1768,1253.0879,868.1768,1257.0879,864.1768,1253.0879" style="stroke:#181818;stroke-width:1;"/><line style="stroke:#181818;stroke-width:1;stroke-dasharray:2,2;" x1="862.1768" x2="1442.4648" y1="1253.0879" y2="1253.0879"/><text fill="#000000" font-family="sans-serif" font-size="13" lengthAdjust="spacing" textLength="381.6465" x="874.1768" y="1248.3457">throws DomainValidationException("Missing or invalid data")</text></g><g class="message" data-participant-1="CTRL" data-participant-2="SPA"><polygon fill="#181818" points="524.6357,1278.3984,514.6357,1282.3984,524.6357,1286.3984,520.6357,1282.3984" style="stroke:#181818;stroke-width:1;"/><line style="stroke:#181818;stroke-width:1;stroke-dasharray:2,2;" x1="518.6357" x2="856.1768" y1="1282.3984" y2="1282.3984"/><text fill="#000000" font-family="sans-serif" font-size="13" lengthAdjust="spacing" textLength="229.8867" x="530.6357" y="1277.6563">400 Bad Request + Validation errors</text></g><g class="message" data-participant-1="SPA" data-participant-2="AGENT"><polygon fill="#181818" points="148.125,1307.709,138.125,1311.709,148.125,1315.709,144.125,1311.709" style="stroke:#181818;stroke-width:1;"/><line style="stroke:#181818;stroke-width:1;stroke-dasharray:2,2;" x1="142.125" x2="512.6357" y1="1311.709" y2="1311.709"/><text fill="#000000" font-family="sans-serif" font-size="13" lengthAdjust="spacing" textLength="184.0947" x="154.125" y="1306.9668">showError("Validation failed")</text></g><g class="message" data-participant-1="SVC" data-participant-2="REPO"><polygon fill="#181818" points="1675.3521,1344.0195,1685.3521,1348.0195,1675.3521,1352.0195,1679.3521,1348.0195" style="stroke:#181818;stroke-width:1;"/><line style="stroke:#181818;stroke-width:1;" x1="1453.4648" x2="1681.3521" y1="1348.0195" y2="1348.0195"/><text fill="#000000" font-family="sans-serif" font-size="13" lengthAdjust="spacing" textLength="161.9478" x="1460.4648" y="1343.2773">UpdateAsync(notification)</text></g><g class="message" data-participant-1="REPO" data-participant-2="DB"><polygon fill="#181818" points="2137.2178,1373.3301,2147.2178,1377.3301,2137.2178,1381.3301,2141.2178,1377.3301" style="stroke:#181818;stroke-width:1;"/><line style="stroke:#181818;stroke-width:1;" x1="1697.3521" x2="2143.2178" y1="1377.3301" y2="1377.3301"/><text fill="#000000" font-family="sans-serif" font-size="13" lengthAdjust="spacing" textLength="432.8657" x="1704.3521" y="1372.5879">UPDATE VesselVisitNotifications SET ...fields... WHERE BusinessId = ?</text></g><g class="message" data-participant-1="DB" data-participant-2="REPO"><polygon fill="#181818" points="1708.3521,1402.6406,1698.3521,1406.6406,1708.3521,1410.6406,1704.3521,1406.6406" style="stroke:#181818;stroke-width:1;"/><line style="stroke:#181818;stroke-width:1;stroke-dasharray:2,2;" x1="1702.3521" x2="2153.2178" y1="1406.6406" y2="1406.6406"/><text fill="#000000" font-family="sans-serif" font-size="13" lengthAdjust="spacing" textLength="48.5088" x="1714.3521" y="1401.8984">success</text></g><g class="message" data-participant-1="REPO" data-participant-2="SVC"><polygon fill="#181818" points="1464.4648,1431.9512,1454.4648,1435.9512,1464.4648,1439.9512,1460.4648,1435.9512" style="stroke:#181818;stroke-width:1;"/><line style="stroke:#181818;stroke-width:1;stroke-dasharray:2,2;" x1="1458.4648" x2="1691.3521" y1="1435.9512" y2="1435.9512"/><text fill="#000000" font-family="sans-serif" font-size="13" lengthAdjust="spacing" textLength="48.5088" x="1470.4648" y="1431.209">success</text></g><g class="message" data-participant-1="SVC" data-participant-2="REPO"><polygon fill="#181818" points="1675.3521,1461.2617,1685.3521,1465.2617,1675.3521,1469.2617,1679.3521,1465.2617" style="stroke:#181818;stroke-width:1;"/><line style="stroke:#181818;stroke-width:1;" x1="1453.4648" x2="1681.3521" y1="1465.2617" y2="1465.2617"/><text fill="#000000" font-family="sans-serif" font-size="13" lengthAdjust="spacing" textLength="128.0068" x="1460.4648" y="1460.5195">SaveChangesAsync()</text></g><g class="message" data-participant-1="REPO" data-participant-2="DB"><polygon fill="#181818" points="2137.2178,1490.5723,2147.2178,1494.5723,2137.2178,1498.5723,2141.2178,1494.5723" style="stroke:#181818;stroke-width:1;"/><line style="stroke:#181818;stroke-width:1;" x1="1697.3521" x2="2143.2178" y1="1494.5723" y2="1494.5723"/><text fill="#000000" font-family="sans-serif" font-size="13" lengthAdjust="spacing" textLength="149.2144" x="1704.3521" y="1489.8301">COMMIT TRANSACTION</text></g><g class="message" data-participant-1="DB" data-participant-2="REPO"><polygon fill="#181818" points="1708.3521,1519.8828,1698.3521,1523.8828,1708.3521,1527.8828,1704.3521,1523.8828" style="stroke:#181818;stroke-width:1;"/><line style="stroke:#181818;stroke-width:1;stroke-dasharray:2,2;" x1="1702.3521" x2="2153.2178" y1="1523.8828" y2="1523.8828"/><text fill="#000000" font-family="sans-serif" font-size="13" lengthAdjust="spacing" textLength="48.5088" x="1714.3521" y="1519.1406">success</text></g><g class="message" data-participant-1="REPO" data-participant-2="SVC"><polygon fill="#181818" points="1464.4648,1549.1934,1454.4648,1553.1934,1464.4648,1557.1934,1460.4648,1553.1934" style="stroke:#181818;stroke-width:1;"/><line style="stroke:#181818;stroke-width:1;stroke-dasharray:2,2;" x1="1458.4648" x2="1691.3521" y1="1553.1934" y2="1553.1934"/><text fill="#000000" font-family="sans-serif" font-size="13" lengthAdjust="spacing" textLength="48.5088" x="1470.4648" y="1548.4512">success</text></g><g class="message" data-participant-1="SVC" data-participant-2="CTRL"><polygon fill="#181818" points="868.1768,1578.5039,858.1768,1582.5039,868.1768,1586.5039,864.1768,1582.5039" style="stroke:#181818;stroke-width:1;"/><line style="stroke:#181818;stroke-width:1;stroke-dasharray:2,2;" x1="862.1768" x2="1447.4648" y1="1582.5039" y2="1582.5039"/><text fill="#000000" font-family="sans-serif" font-size="13" lengthAdjust="spacing" textLength="220.2954" x="874.1768" y="1577.7617">Updated VesselVisitNotificationDto</text></g><path d="M20,1604.5039 L156.0952,1604.5039 L156.0952,1611.8145 L146.0952,1621.8145 L20,1621.8145 L20,1604.5039" fill="#EEEEEE" style="stroke:#000000;stroke-width:1.5;"/><rect fill="none" height="111.2422" style="stroke:#000000;stroke-width:1.5;" width="1005.2837" x="20" y="1604.5039"/><text fill="#000000" font-family="sans-serif" font-size="13" font-weight="bold" lengthAdjust="spacing" textLength="91.0952" x="35" y="1618.0723">Return Result</text><g class="message" data-participant-1="CTRL" data-participant-2="SPA"><polygon fill="#181818" points="524.6357,1639.125,514.6357,1643.125,524.6357,1647.125,520.6357,1643.125" style="stroke:#181818;stroke-width:1;"/><line style="stroke:#181818;stroke-width:1;stroke-dasharray:2,2;" x1="518.6357" x2="856.1768" y1="1643.125" y2="1643.125"/><text fill="#000000" font-family="sans-serif" font-size="13" lengthAdjust="spacing" textLength="218.7148" x="530.6357" y="1638.3828">200 OK + Updated NotificationDto</text></g><g class="message" data-participant-1="SPA" data-participant-2="AGENT"><polygon fill="#181818" points="148.125,1668.4355,138.125,1672.4355,148.125,1676.4355,144.125,1672.4355" style="stroke:#181818;stroke-width:1;"/><line style="stroke:#181818;stroke-width:1;stroke-dasharray:2,2;" x1="142.125" x2="512.6357" y1="1672.4355" y2="1672.4355"/><text fill="#000000" font-family="sans-serif" font-size="13" lengthAdjust="spacing" textLength="308.7944" x="154.125" y="1667.6934">showSuccess("Notification updated successfully")</text></g><path d="M518,1685.4355 L518,1710.4355 L1015,1710.4355 L1015,1695.4355 L1005,1685.4355 L518,1685.4355" fill="#FEFFDD" style="stroke:#181818;stroke-width:0.5;"/><path d="M1005,1685.4355 L1005,1695.4355 L1015,1695.4355 L1005,1685.4355" fill="#FEFFDD" style="stroke:#181818;stroke-width:0.5;"/><text fill="#000000" font-family="sans-serif" font-size="13" lengthAdjust="spacing" textLength="476.2837" x="524" y="1703.0039">Displays confirmation and redirects to\nView Notification (view.html?id=...)</text><path d="M20,1729.7461 L82.1387,1729.7461 L82.1387,1737.0566 L72.1387,1747.0566 L20,1747.0566 L20,1729.7461" fill="#EEEEEE" style="stroke:#000000;stroke-width:1.5;"/><rect fill="none" height="105.2422" style="stroke:#000000;stroke-width:1.5;" width="1547.1392" x="20" y="1729.7461"/><text fill="#000000" font-family="sans-serif" font-size="13" font-weight="bold" lengthAdjust="spacing" textLength="17.1387" x="35" y="1743.3145">alt</text><text fill="#000000" font-family="sans-serif" font-size="11" font-weight="bold" lengthAdjust="spacing" textLength="101.041" x="97.1387" y="1742.3809">[Validation failed]</text><g class="message" data-participant-1="SVC" data-participant-2="CTRL"><polygon fill="#181818" points="868.1768,1764.3672,858.1768,1768.3672,868.1768,1772.3672,864.1768,1768.3672" style="stroke:#181818;stroke-width:1;"/><line style="stroke:#181818;stroke-width:1;stroke-dasharray:2,2;" x1="862.1768" x2="1447.4648" y1="1768.3672" y2="1768.3672"/><text fill="#000000" font-family="sans-serif" font-size="13" lengthAdjust="spacing" textLength="220.8604" x="874.1768" y="1763.625">throws DomainValidationException</text></g><g class="message" data-participant-1="CTRL" data-participant-2="SPA"><polygon fill="#181818" points="524.6357,1793.6777,514.6357,1797.6777,524.6357,1801.6777,520.6357,1797.6777" style="stroke:#181818;stroke-width:1;"/><line style="stroke:#181818;stroke-width:1;stroke-dasharray:2,2;" x1="518.6357" x2="856.1768" y1="1797.6777" y2="1797.6777"/><text fill="#000000" font-family="sans-serif" font-size="13" lengthAdjust="spacing" textLength="179.8926" x="530.6357" y="1792.9355">400 Bad Request + message</text></g><g class="message" data-participant-1="SPA" data-participant-2="AGENT"><polygon fill="#181818" points="148.125,1822.9883,138.125,1826.9883,148.125,1830.9883,144.125,1826.9883" style="stroke:#181818;stroke-width:1;"/><line style="stroke:#181818;stroke-width:1;stroke-dasharray:2,2;" x1="142.125" x2="512.6357" y1="1826.9883" y2="1826.9883"/><text fill="#000000" font-family="sans-serif" font-size="13" lengthAdjust="spacing" textLength="184.0947" x="154.125" y="1822.2461">showError("Validation failed")</text></g><path d="M20,1848.9883 L82.1387,1848.9883 L82.1387,1856.2988 L72.1387,1866.2988 L20,1866.2988 L20,1848.9883" fill="#EEEEEE" style="stroke:#000000;stroke-width:1.5;"/><rect fill="none" height="75.9316" style="stroke:#000000;stroke-width:1.5;" width="966.2656" x="20" y="1848.9883"/><text fill="#000000" font-family="sans-serif" font-size="13" font-weight="bold" lengthAdjust="spacing" textLength="17.1387" x="35" y="1862.5566">alt</text><text fill="#000000" font-family="sans-serif" font-size="11" font-weight="bold" lengthAdjust="spacing" textLength="84.2939" x="97.1387" y="1861.623">[Internal error]</text><g class="message" data-participant-1="CTRL" data-participant-2="SPA"><polygon fill="#181818" points="524.6357,1883.6094,514.6357,1887.6094,524.6357,1891.6094,520.6357,1887.6094" style="stroke:#181818;stroke-width:1;"/><line style="stroke:#181818;stroke-width:1;stroke-dasharray:2,2;" x1="518.6357" x2="856.1768" y1="1887.6094" y2="1887.6094"/><text fill="#000000" font-family="sans-serif" font-size="13" lengthAdjust="spacing" textLength="155.0859" x="530.6357" y="1882.8672">500 Internal Server Error</text></g><g class="message" data-participant-1="SPA" data-participant-2="AGENT"><polygon fill="#181818" points="148.125,1912.9199,138.125,1916.9199,148.125,1920.9199,144.125,1916.9199" style="stroke:#181818;stroke-width:1;"/><line style="stroke:#181818;stroke-width:1;stroke-dasharray:2,2;" x1="142.125" x2="512.6357" y1="1916.9199" y2="1916.9199"/><text fill="#000000" font-family="sans-serif" font-size="13" lengthAdjust="spacing" textLength="234.4063" x="154.125" y="1912.1777">showError("Unexpected server error")</text></g><!--SRC=[xLZBSk965Dtp5JTi0ebVbPfiNF5C2T2CcJ6FacIoyQOjjQ1hccwbkuLDJQKgtv9FovVaTWi1qe2HlSacMjX2wlliSqvVCCnm2dx234W5OVwunBiPrPfoc36D7yRIi9J5n30fu1ocIiRu6b_IfrQBn0RDsk62PHaJS_3cL1W8QAQenZiqMj4s40tU9tySjJAY38jPHd1HsmRTTtwnC4l-83hXrEiw6xofMbmNYRcyzYtxKXWbEQVAsVMZuAwPOKZLYiL5Xk6itym8gvFuIAgrimlywQHcE9NAZ8WWSxh49WnwRjsWrshz23V7BhWF_G2yVZISZ8-lQisLpBDYloeRyr6gPGlmSes6y_UsUt0DCgC2A2vttVt0afjlZxbc0aiR9dyw2o4D1SNc2uH0kjaes5pH0bzLTjDvr43GwpFJncxwKRWy22QWFHI8cJcwq6tGw2JNO2GiPSBIjGLTB9SPfvX3GWrXN5-uw5GaBhEM-sIBmPhipc9Hd_m8Bad6BbSkyldAHZuNUv7rvNTb8bJPYc0O1m_xn7cpdPhrhLDgUklUriZJQn5tTawwLISMBIunj4KN5WIlzk6GOvyuQ_GowA6FqB_p-n7y11-3oGYEO533xxT-uCCk5jp0Xwfx19pzZ4xFTnaUyUTM9hHkMoIsRL53usrThZcxRJjYFZ2oxg7iRh53Mp3_SdK5ao_mSnNw0s98tO7Rutta5BIuHZ2BX2hB7ykOpZvckYryru2Z_c0OXJ3m8kyaJqS5o0bYEIGhUeYWAUCS_r2UQEZuaNS6VZGuWu6Clvv1dwYvn7-AFfsXXvIQDKnIJ9WgtJtaBUOi_efwZC6Wlo1YJdNx9CchSWqn4TSFuf-__eOlb6ObPIiqxcWR854aDTrYwGHvxEBjKRmznOQYG7XPfkIAS6ld3fZkIOPFlQX_-ogEFuXlUPRWtYTbDp-7at4pwjyxmpfRpo0nyW3jJw9avjqD4HvMoAUtNkYVXCcCS6OpSBfE7l503bqJ_rUObnIco8NN3a942AGonpqguLrJ8RDGyWcFOxaaJ6mwZuR-SqmpUzDf7_RNxcuzrcJftTKxcmEUmPMm5j1xogCNyibNIge60GugcUKBbhkhkm09_703EswUgBhSpI3dTCOahvVU9yBcOmS6ABXg2OM7D74SfewnsznVQiaLz4Y2ql97JhLfqfI9uEkzGYg1j1KbUAGkCTguKwVrV8eyzHko56KCCooqGXyGrVBGifULn68bL3NTqvhDXHqBIrbt6WzB8bYAdTA_FQht5JS1ZGcFSsvzhRPm1PQMIblexc75_SxR246FKrPjBBFEoChESaxJ3ybpeK8RbcxqofwydPr88YHtV8BKpd9l9-68OQSm8SGU4wvkm3MaCUHmIjXBXbgCwIOmh5L0NqVBgbZldolLIQE1Ic-mULIUGno2BoukYiCERzwgrpgFur8uJkhpaSKxFQusmCuXcp6aw4AZolkJqMWOGHHuux3uGlJVbB63w_rcidZT17jIVW8_d4x63QGde2PN0l_fd9iN9-CoqnFfrURZ6XN2eZsrWweShpRDItFErnjor8GGlxUNb1amdN6oHfMI8cLgMRYo0x52BLSqDbQu7eJzEQ5wa7TM-6ZxhHK1NfiQJtRN3u990BVUU70t77zweSS7X8ichJUeLgkHB2snUMHEMsyG8bUpJNSe35M2y4BO3iNz5UDkLzdVEQW2VxluXRZtWZvdk2zsfmip5sCJ_Ly0]--></g></svg>