<svg xmlns="http://www.w3.org/2000/svg" xmlns:xlink="http://www.w3.org/1999/xlink" contentStyleType="text/css" data-diagram-type="SEQUENCE" height="2009px" preserveAspectRatio="none" style="width:2560px;height:2009px;background:#FFFFFF;" version="1.1" viewBox="0 0 2560 2009" width="2560px" zoomAndPan="magnify"><title>Approve Vessel Visit Notification - Process View</title><defs/><g><text fill="#000000" font-family="sans-serif" font-size="14" font-weight="bold" lengthAdjust="spacing" textLength="350.6768" x="1106.3508" y="28.5352">Approve Vessel Visit Notification - Process View</text><g><title>.VesselVisitNotificationController</title><rect fill="#FFFFFF" height="290.1055" style="stroke:#181818;stroke-width:1;" width="10" x="887.8994" y="285.8398"/></g><g><title>.VesselVisitNotificationService</title><rect fill="#FFFFFF" height="1289.2852" style="stroke:#181818;stroke-width:1;" width="10" x="1457.0405" y="315.1504"/></g><g><title>.VesselVisitNotificationRepository</title><rect fill="#FFFFFF" height="87.9316" style="stroke:#181818;stroke-width:1;" width="10" x="1865.332" y="375.7715"/></g><g><title>.VesselVisitNotificationRepository</title><rect fill="#FFFFFF" height="87.9316" style="stroke:#181818;stroke-width:1;" width="10" x="1865.332" y="1080.5352"/></g><g><title>.VesselVisitNotificationRepository</title><rect fill="#FFFFFF" height="87.9316" style="stroke:#181818;stroke-width:1;" width="10" x="1865.332" y="1487.1934"/></g><g><title>.DockRepository</title><rect fill="#FFFFFF" height="87.9316" style="stroke:#181818;stroke-width:1;" width="10" x="2058.9009" y="844.0508"/></g><g><title>.PortManagementDB</title><rect fill="#FFFFFF" height="29.3105" style="stroke:#181818;stroke-width:1;" width="10" x="2463.4756" y="405.082"/></g><g><title>.PortManagementDB</title><rect fill="#FFFFFF" height="29.3105" style="stroke:#181818;stroke-width:1;" width="10" x="2463.4756" y="873.3613"/></g><g><title>.PortManagementDB</title><rect fill="#FFFFFF" height="29.3105" style="stroke:#181818;stroke-width:1;" width="10" x="2463.4756" y="1109.8457"/></g><g><title>.PortManagementDB</title><rect fill="#FFFFFF" height="29.3105" style="stroke:#181818;stroke-width:1;" width="10" x="2463.4756" y="1516.5039"/></g><rect fill="none" height="81.9316" style="stroke:#000000;stroke-width:1.5;" width="561.7979" x="20" y="135.9766"/><rect fill="none" height="91.2422" style="stroke:#000000;stroke-width:1.5;" width="1179.0693" x="401.6455" y="231.9082"/><rect fill="none" height="253.7949" style="stroke:#000000;stroke-width:1.5;" width="2544.3784" x="10" y="337.1504"/><rect fill="none" height="105.2422" style="stroke:#000000;stroke-width:1.5;" width="1560.7148" x="20" y="478.7031"/><rect fill="none" height="690.7637" style="stroke:#000000;stroke-width:1.5;" width="2544.3784" x="10" y="604.9453"/><rect fill="none" height="105.2422" style="stroke:#000000;stroke-width:1.5;" width="1560.7148" x="20" y="710.498"/><rect fill="none" height="105.2422" style="stroke:#000000;stroke-width:1.5;" width="1560.7148" x="20" y="946.9824"/><rect fill="none" height="105.2422" style="stroke:#000000;stroke-width:1.5;" width="1560.7148" x="20" y="1183.4668"/><rect fill="none" height="302.7266" style="stroke:#000000;stroke-width:1.5;" width="1790.5679" x="763.8105" y="1309.709"/><rect fill="none" height="75.9316" style="stroke:#000000;stroke-width:1.5;" width="1001.9883" x="20" y="1626.4355"/><rect fill="none" height="105.2422" style="stroke:#000000;stroke-width:1.5;" width="1560.7148" x="20" y="1716.3672"/><rect fill="none" height="75.9316" style="stroke:#000000;stroke-width:1.5;" width="1001.9883" x="20" y="1835.6094"/><g><title>Port Authority Officer</title><rect fill="#000000" fill-opacity="0.00000" height="1809.5645" width="8" x="101.6387" y="118.9766"/><line style="stroke:#181818;stroke-width:0.5;stroke-dasharray:5,5;" x1="105" x2="105" y1="118.9766" y2="1928.541"/></g><g><title>ViewNotification.html</title><rect fill="#000000" fill-opacity="0.00000" height="1809.5645" width="8" x="487.7217" y="118.9766"/><line style="stroke:#181818;stroke-width:0.5;stroke-dasharray:5,5;" x1="491.6455" x2="491.6455" y1="118.9766" y2="1928.541"/></g><g><title>.VesselVisitNotificationController</title><rect fill="#000000" fill-opacity="0.00000" height="1809.5645" width="8" x="888.8994" y="118.9766"/><line style="stroke:#181818;stroke-width:0.5;stroke-dasharray:5,5;" x1="892.8105" x2="892.8105" y1="118.9766" y2="1928.541"/></g><g><title>.VesselVisitNotificationService</title><rect fill="#000000" fill-opacity="0.00000" height="1809.5645" width="8" x="1458.0405" y="118.9766"/><line style="stroke:#181818;stroke-width:0.5;stroke-dasharray:5,5;" x1="1461.3662" x2="1461.3662" y1="118.9766" y2="1928.541"/></g><g><title>.VesselVisitNotificationRepository</title><rect fill="#000000" fill-opacity="0.00000" height="1809.5645" width="8" x="1866.332" y="118.9766"/><line style="stroke:#181818;stroke-width:0.5;stroke-dasharray:5,5;" x1="1870.2607" x2="1870.2607" y1="118.9766" y2="1928.541"/></g><g><title>.DockRepository</title><rect fill="#000000" fill-opacity="0.00000" height="1809.5645" width="8" x="2059.9009" y="118.9766"/><line style="stroke:#181818;stroke-width:0.5;stroke-dasharray:5,5;" x1="2063.4033" x2="2063.4033" y1="118.9766" y2="1928.541"/></g><g><title>.PortManagementDB</title><rect fill="#000000" fill-opacity="0.00000" height="1809.5645" width="8" x="2464.4756" y="118.9766"/><line style="stroke:#181818;stroke-width:0.5;stroke-dasharray:5,5;" x1="2467.5728" x2="2467.5728" y1="118.9766" y2="1928.541"/></g><g class="participant participant-head" data-participant="OFFICER"><text fill="#000000" font-family="sans-serif" font-size="14" lengthAdjust="spacing" textLength="145.2773" x="30" y="116.0234">Port Authority Officer</text><ellipse cx="105.6387" cy="50.9883" fill="#E2E2F0" rx="8" ry="8" style="stroke:#181818;stroke-width:0.5;"/><path d="M105.6387,58.9883 L105.6387,85.9883 M92.6387,66.9883 L118.6387,66.9883 M105.6387,85.9883 L92.6387,100.9883 M105.6387,85.9883 L118.6387,100.9883" fill="none" style="stroke:#181818;stroke-width:0.5;"/></g><g class="participant participant-tail" data-participant="OFFICER"><text fill="#000000" font-family="sans-serif" font-size="14" lengthAdjust="spacing" textLength="145.2773" x="30" y="1941.0762">Port Authority Officer</text><ellipse cx="105.6387" cy="1952.5293" fill="#E2E2F0" rx="8" ry="8" style="stroke:#181818;stroke-width:0.5;"/><path d="M105.6387,1960.5293 L105.6387,1987.5293 M92.6387,1968.5293 L118.6387,1968.5293 M105.6387,1987.5293 L92.6387,2002.5293 M105.6387,1987.5293 L118.6387,2002.5293" fill="none" style="stroke:#181818;stroke-width:0.5;"/></g><g class="participant participant-head" data-participant="SPA"><rect fill="#E2E2F0" height="46.9766" rx="2.5" ry="2.5" style="stroke:#181818;stroke-width:0.5;" width="160.1523" x="411.6455" y="71"/><text fill="#000000" font-family="sans-serif" font-size="14" lengthAdjust="spacing" textLength="146.1523" x="418.6455" y="91.5352">ViewNotification.html</text><text fill="#000000" font-family="sans-serif" font-size="14" lengthAdjust="spacing" textLength="34.043" x="474.7002" y="108.0234">(SPA)</text></g><g class="participant participant-tail" data-participant="SPA"><rect fill="#E2E2F0" height="46.9766" rx="2.5" ry="2.5" style="stroke:#181818;stroke-width:0.5;" width="160.1523" x="411.6455" y="1927.541"/><text fill="#000000" font-family="sans-serif" font-size="14" lengthAdjust="spacing" textLength="146.1523" x="418.6455" y="1948.0762">ViewNotification.html</text><text fill="#000000" font-family="sans-serif" font-size="14" lengthAdjust="spacing" textLength="34.043" x="474.7002" y="1964.5645">(SPA)</text></g><g class="participant participant-head" data-participant="CTRL"><rect fill="#E2E2F0" height="30.4883" rx="2.5" ry="2.5" style="stroke:#181818;stroke-width:0.5;" width="238.1777" x="773.8105" y="87.4883"/><text fill="#000000" font-family="sans-serif" font-size="14" lengthAdjust="spacing" textLength="224.1777" x="780.8105" y="108.0234">:VesselVisitNotificationController</text></g><g class="participant participant-tail" data-participant="CTRL"><rect fill="#E2E2F0" height="30.4883" rx="2.5" ry="2.5" style="stroke:#181818;stroke-width:0.5;" width="238.1777" x="773.8105" y="1927.541"/><text fill="#000000" font-family="sans-serif" font-size="14" lengthAdjust="spacing" textLength="224.1777" x="780.8105" y="1948.0762">:VesselVisitNotificationController</text></g><g class="participant participant-head" data-participant="SVC"><rect fill="#E2E2F0" height="30.4883" rx="2.5" ry="2.5" style="stroke:#181818;stroke-width:0.5;" width="217.3486" x="1353.3662" y="87.4883"/><text fill="#000000" font-family="sans-serif" font-size="14" lengthAdjust="spacing" textLength="203.3486" x="1360.3662" y="108.0234">:VesselVisitNotificationService</text></g><g class="participant participant-tail" data-participant="SVC"><rect fill="#E2E2F0" height="30.4883" rx="2.5" ry="2.5" style="stroke:#181818;stroke-width:0.5;" width="217.3486" x="1353.3662" y="1927.541"/><text fill="#000000" font-family="sans-serif" font-size="14" lengthAdjust="spacing" textLength="203.3486" x="1360.3662" y="1948.0762">:VesselVisitNotificationService</text></g><g class="participant participant-head" data-participant="NREPO"><rect fill="#E2E2F0" height="30.4883" rx="2.5" ry="2.5" style="stroke:#181818;stroke-width:0.5;" width="242.1426" x="1749.2607" y="87.4883"/><text fill="#000000" font-family="sans-serif" font-size="14" lengthAdjust="spacing" textLength="228.1426" x="1756.2607" y="108.0234">:VesselVisitNotificationRepository</text></g><g class="participant participant-tail" data-participant="NREPO"><rect fill="#E2E2F0" height="30.4883" rx="2.5" ry="2.5" style="stroke:#181818;stroke-width:0.5;" width="242.1426" x="1749.2607" y="1927.541"/><text fill="#000000" font-family="sans-serif" font-size="14" lengthAdjust="spacing" textLength="228.1426" x="1756.2607" y="1948.0762">:VesselVisitNotificationRepository</text></g><g class="participant participant-head" data-participant="DREPO"><rect fill="#E2E2F0" height="30.4883" rx="2.5" ry="2.5" style="stroke:#181818;stroke-width:0.5;" width="124.9951" x="2001.4033" y="87.4883"/><text fill="#000000" font-family="sans-serif" font-size="14" lengthAdjust="spacing" textLength="110.9951" x="2008.4033" y="108.0234">:DockRepository</text></g><g class="participant participant-tail" data-participant="DREPO"><rect fill="#E2E2F0" height="30.4883" rx="2.5" ry="2.5" style="stroke:#181818;stroke-width:0.5;" width="124.9951" x="2001.4033" y="1927.541"/><text fill="#000000" font-family="sans-serif" font-size="14" lengthAdjust="spacing" textLength="110.9951" x="2008.4033" y="1948.0762">:DockRepository</text></g><g class="participant participant-head" data-participant="DB"><rect fill="#E2E2F0" height="30.4883" rx="2.5" ry="2.5" style="stroke:#181818;stroke-width:0.5;" width="151.8057" x="2392.5728" y="87.4883"/><text fill="#000000" font-family="sans-serif" font-size="14" lengthAdjust="spacing" textLength="137.8057" x="2399.5728" y="108.0234">:PortManagementDB</text></g><g class="participant participant-tail" data-participant="DB"><rect fill="#E2E2F0" height="30.4883" rx="2.5" ry="2.5" style="stroke:#181818;stroke-width:0.5;" width="151.8057" x="2392.5728" y="1927.541"/><text fill="#000000" font-family="sans-serif" font-size="14" lengthAdjust="spacing" textLength="137.8057" x="2399.5728" y="1948.0762">:PortManagementDB</text></g><g><title>.VesselVisitNotificationController</title><rect fill="#FFFFFF" height="290.1055" style="stroke:#181818;stroke-width:1;" width="10" x="887.8994" y="285.8398"/></g><g><title>.VesselVisitNotificationService</title><rect fill="#FFFFFF" height="1289.2852" style="stroke:#181818;stroke-width:1;" width="10" x="1457.0405" y="315.1504"/></g><g><title>.VesselVisitNotificationRepository</title><rect fill="#FFFFFF" height="87.9316" style="stroke:#181818;stroke-width:1;" width="10" x="1865.332" y="375.7715"/></g><g><title>.VesselVisitNotificationRepository</title><rect fill="#FFFFFF" height="87.9316" style="stroke:#181818;stroke-width:1;" width="10" x="1865.332" y="1080.5352"/></g><g><title>.VesselVisitNotificationRepository</title><rect fill="#FFFFFF" height="87.9316" style="stroke:#181818;stroke-width:1;" width="10" x="1865.332" y="1487.1934"/></g><g><title>.DockRepository</title><rect fill="#FFFFFF" height="87.9316" style="stroke:#181818;stroke-width:1;" width="10" x="2058.9009" y="844.0508"/></g><g><title>.PortManagementDB</title><rect fill="#FFFFFF" height="29.3105" style="stroke:#181818;stroke-width:1;" width="10" x="2463.4756" y="405.082"/></g><g><title>.PortManagementDB</title><rect fill="#FFFFFF" height="29.3105" style="stroke:#181818;stroke-width:1;" width="10" x="2463.4756" y="873.3613"/></g><g><title>.PortManagementDB</title><rect fill="#FFFFFF" height="29.3105" style="stroke:#181818;stroke-width:1;" width="10" x="2463.4756" y="1109.8457"/></g><g><title>.PortManagementDB</title><rect fill="#FFFFFF" height="29.3105" style="stroke:#181818;stroke-width:1;" width="10" x="2463.4756" y="1516.5039"/></g><path d="M20,135.9766 L203.9312,135.9766 L203.9312,143.2871 L193.9312,153.2871 L20,153.2871 L20,135.9766" fill="#EEEEEE" style="stroke:#000000;stroke-width:1.5;"/><rect fill="none" height="81.9316" style="stroke:#000000;stroke-width:1.5;" width="561.7979" x="20" y="135.9766"/><text fill="#000000" font-family="sans-serif" font-size="13" font-weight="bold" lengthAdjust="spacing" textLength="138.9312" x="35" y="149.5449">Approve Notification</text><g class="message" data-participant-1="OFFICER" data-participant-2="SPA"><polygon fill="#181818" points="479.7217,170.5977,489.7217,174.5977,479.7217,178.5977,483.7217,174.5977" style="stroke:#181818;stroke-width:1;"/><line style="stroke:#181818;stroke-width:1;" x1="105.6387" x2="485.7217" y1="174.5977" y2="174.5977"/><text fill="#000000" font-family="sans-serif" font-size="13" lengthAdjust="spacing" textLength="269.8135" x="112.6387" y="169.8555">click "Approve" and enter DockAssignment</text></g><path d="M110,187.5977 L110,212.5977 L558,212.5977 L558,197.5977 L548,187.5977 L110,187.5977" fill="#FEFFDD" style="stroke:#181818;stroke-width:0.5;"/><path d="M548,187.5977 L548,197.5977 L558,197.5977 L548,187.5977" fill="#FEFFDD" style="stroke:#181818;stroke-width:0.5;"/><text fill="#000000" font-family="sans-serif" font-size="13" lengthAdjust="spacing" textLength="427.2861" x="116" y="205.166">Officer assigns a dock and approves\nnotification for vessel arrival.</text><path d="M401.6455,231.9082 L616.4644,231.9082 L616.4644,239.2188 L606.4644,249.2188 L401.6455,249.2188 L401.6455,231.9082" fill="#EEEEEE" style="stroke:#000000;stroke-width:1.5;"/><rect fill="none" height="91.2422" style="stroke:#000000;stroke-width:1.5;" width="1179.0693" x="401.6455" y="231.9082"/><text fill="#000000" font-family="sans-serif" font-size="13" font-weight="bold" lengthAdjust="spacing" textLength="169.8188" x="416.6455" y="245.4766">Submit Approval Request</text><g class="message" data-participant-1="SPA" data-participant-2="CTRL"><polygon fill="#181818" points="875.8994,281.8398,885.8994,285.8398,875.8994,289.8398,879.8994,285.8398" style="stroke:#181818;stroke-width:1;"/><line style="stroke:#181818;stroke-width:1;" x1="491.7217" x2="881.8994" y1="285.8398" y2="285.8398"/><text fill="#000000" font-family="sans-serif" font-size="13" lengthAdjust="spacing" textLength="377.1777" x="498.7217" y="265.7871">PATCH /api/vessel-visit-notifications/{businessId}/approve</text><text fill="#000000" font-family="sans-serif" font-size="13" lengthAdjust="spacing" textLength="114.8989" x="498.7217" y="281.0977">{DockAssignment}</text></g><g class="message" data-participant-1="CTRL" data-participant-2="SVC"><polygon fill="#181818" points="1445.0405,311.1504,1455.0405,315.1504,1445.0405,319.1504,1449.0405,315.1504" style="stroke:#181818;stroke-width:1;"/><line style="stroke:#181818;stroke-width:1;" x1="897.8994" x2="1451.0405" y1="315.1504" y2="315.1504"/><text fill="#000000" font-family="sans-serif" font-size="13" lengthAdjust="spacing" textLength="340.6533" x="904.8994" y="310.4082">ApproveAsync(businessId, DockAssignment, officerId)</text></g><path d="M10,337.1504 L192.5283,337.1504 L192.5283,344.4609 L182.5283,354.4609 L10,354.4609 L10,337.1504" fill="#EEEEEE" style="stroke:#000000;stroke-width:1.5;"/><rect fill="none" height="253.7949" style="stroke:#000000;stroke-width:1.5;" width="2544.3784" x="10" y="337.1504"/><text fill="#000000" font-family="sans-serif" font-size="13" font-weight="bold" lengthAdjust="spacing" textLength="137.5283" x="25" y="350.7188">Retrieve Notification</text><g class="message" data-participant-1="SVC" data-participant-2="NREPO"><polygon fill="#181818" points="1853.332,371.7715,1863.332,375.7715,1853.332,379.7715,1857.332,375.7715" style="stroke:#181818;stroke-width:1;"/><line style="stroke:#181818;stroke-width:1;" x1="1467.0405" x2="1859.332" y1="375.7715" y2="375.7715"/><text fill="#000000" font-family="sans-serif" font-size="13" lengthAdjust="spacing" textLength="214.8872" x="1474.0405" y="371.0293">GetByBusinessIdAsync(businessId)</text></g><g class="message" data-participant-1="NREPO" data-participant-2="DB"><polygon fill="#181818" points="2451.4756,401.082,2461.4756,405.082,2451.4756,409.082,2455.4756,405.082" style="stroke:#181818;stroke-width:1;"/><line style="stroke:#181818;stroke-width:1;" x1="1875.332" x2="2457.4756" y1="405.082" y2="405.082"/><text fill="#000000" font-family="sans-serif" font-size="13" lengthAdjust="spacing" textLength="389.397" x="1882.332" y="400.3398">SELECT * FROM VesselVisitNotifications WHERE BusinessId = ?</text></g><g class="message" data-participant-1="DB" data-participant-2="NREPO"><polygon fill="#181818" points="1886.332,430.3926,1876.332,434.3926,1886.332,438.3926,1882.332,434.3926" style="stroke:#181818;stroke-width:1;"/><line style="stroke:#181818;stroke-width:1;stroke-dasharray:2,2;" x1="1880.332" x2="2467.4756" y1="434.3926" y2="434.3926"/><text fill="#000000" font-family="sans-serif" font-size="13" lengthAdjust="spacing" textLength="185.9419" x="1892.332" y="429.6504">VesselVisitNotification or null</text></g><g class="message" data-participant-1="NREPO" data-participant-2="SVC"><polygon fill="#181818" points="1478.0405,459.7031,1468.0405,463.7031,1478.0405,467.7031,1474.0405,463.7031" style="stroke:#181818;stroke-width:1;"/><line style="stroke:#181818;stroke-width:1;stroke-dasharray:2,2;" x1="1472.0405" x2="1869.332" y1="463.7031" y2="463.7031"/><text fill="#000000" font-family="sans-serif" font-size="13" lengthAdjust="spacing" textLength="185.9419" x="1484.0405" y="458.9609">VesselVisitNotification or null</text></g><path d="M20,478.7031 L82.1387,478.7031 L82.1387,486.0137 L72.1387,496.0137 L20,496.0137 L20,478.7031" fill="#EEEEEE" style="stroke:#000000;stroke-width:1.5;"/><rect fill="none" height="105.2422" style="stroke:#000000;stroke-width:1.5;" width="1560.7148" x="20" y="478.7031"/><text fill="#000000" font-family="sans-serif" font-size="13" font-weight="bold" lengthAdjust="spacing" textLength="17.1387" x="35" y="492.2715">alt</text><text fill="#000000" font-family="sans-serif" font-size="11" font-weight="bold" lengthAdjust="spacing" textLength="133.6919" x="97.1387" y="491.3379">[Notification not found]</text><g class="message" data-participant-1="SVC" data-participant-2="CTRL"><polygon fill="#181818" points="908.8994,513.3242,898.8994,517.3242,908.8994,521.3242,904.8994,517.3242" style="stroke:#181818;stroke-width:1;"/><line style="stroke:#181818;stroke-width:1;stroke-dasharray:2,2;" x1="902.8994" x2="1456.0405" y1="517.3242" y2="517.3242"/><text fill="#000000" font-family="sans-serif" font-size="13" lengthAdjust="spacing" textLength="378.5107" x="914.8994" y="512.582">throws DomainValidationException("Notification not found")</text></g><g class="message" data-participant-1="CTRL" data-participant-2="SPA"><polygon fill="#181818" points="502.7217,542.6348,492.7217,546.6348,502.7217,550.6348,498.7217,546.6348" style="stroke:#181818;stroke-width:1;"/><line style="stroke:#181818;stroke-width:1;stroke-dasharray:2,2;" x1="496.7217" x2="886.8994" y1="546.6348" y2="546.6348"/><text fill="#000000" font-family="sans-serif" font-size="13" lengthAdjust="spacing" textLength="94.6118" x="508.7217" y="541.8926">404 Not Found</text></g><g class="message" data-participant-1="SPA" data-participant-2="OFFICER"><polygon fill="#181818" points="116.6387,571.9453,106.6387,575.9453,116.6387,579.9453,112.6387,575.9453" style="stroke:#181818;stroke-width:1;"/><line style="stroke:#181818;stroke-width:1;stroke-dasharray:2,2;" x1="110.6387" x2="490.7217" y1="575.9453" y2="575.9453"/><text fill="#000000" font-family="sans-serif" font-size="13" lengthAdjust="spacing" textLength="221.3364" x="122.6387" y="571.2031">showError("Notification not found")</text></g><path d="M10,604.9453 L251.1172,604.9453 L251.1172,612.2559 L241.1172,622.2559 L10,622.2559 L10,604.9453" fill="#EEEEEE" style="stroke:#000000;stroke-width:1.5;"/><rect fill="none" height="690.7637" style="stroke:#000000;stroke-width:1.5;" width="2544.3784" x="10" y="604.9453"/><text fill="#000000" font-family="sans-serif" font-size="13" font-weight="bold" lengthAdjust="spacing" textLength="196.1172" x="25" y="618.5137">Validate Approval Conditions</text><path d="M1472,627.2559 L1472,698.2559 L1702,698.2559 L1702,637.2559 L1692,627.2559 L1472,627.2559" fill="#FEFFDD" style="stroke:#181818;stroke-width:0.5;"/><path d="M1692,627.2559 L1692,637.2559 L1702,637.2559 L1692,627.2559" fill="#FEFFDD" style="stroke:#181818;stroke-width:0.5;"/><text fill="#000000" font-family="sans-serif" font-size="13" lengthAdjust="spacing" textLength="206.8892" x="1478" y="644.8242">&#8226; Must be PendingApproval&lt;br&gt;</text><text fill="#000000" font-family="sans-serif" font-size="13" lengthAdjust="spacing" textLength="209.4409" x="1478" y="660.1348">&#8226; DockAssignment required&lt;br&gt;</text><text fill="#000000" font-family="sans-serif" font-size="13" lengthAdjust="spacing" textLength="147.9321" x="1478" y="675.4453">&#8226; Dock must exist&lt;br&gt;</text><text fill="#000000" font-family="sans-serif" font-size="13" lengthAdjust="spacing" textLength="158.9072" x="1478" y="690.7559">&#8226; No scheduling conflicts</text><path d="M20,710.498 L82.1387,710.498 L82.1387,717.8086 L72.1387,727.8086 L20,727.8086 L20,710.498" fill="#EEEEEE" style="stroke:#000000;stroke-width:1.5;"/><rect fill="none" height="105.2422" style="stroke:#000000;stroke-width:1.5;" width="1560.7148" x="20" y="710.498"/><text fill="#000000" font-family="sans-serif" font-size="13" font-weight="bold" lengthAdjust="spacing" textLength="17.1387" x="35" y="724.0664">alt</text><text fill="#000000" font-family="sans-serif" font-size="11" font-weight="bold" lengthAdjust="spacing" textLength="159.7471" x="97.1387" y="723.1328">[Status != PendingApproval]</text><g class="message" data-participant-1="SVC" data-participant-2="CTRL"><polygon fill="#181818" points="903.8994,745.1191,893.8994,749.1191,903.8994,753.1191,899.8994,749.1191" style="stroke:#181818;stroke-width:1;"/><line style="stroke:#181818;stroke-width:1;stroke-dasharray:2,2;" x1="897.8994" x2="1456.0405" y1="749.1191" y2="749.1191"/><text fill="#000000" font-family="sans-serif" font-size="13" lengthAdjust="spacing" textLength="540.1411" x="909.8994" y="744.377">throws BusinessRuleViolationException("Only pending notifications can be approved")</text></g><g class="message" data-participant-1="CTRL" data-participant-2="SPA"><polygon fill="#181818" points="502.7217,774.4297,492.7217,778.4297,502.7217,782.4297,498.7217,778.4297" style="stroke:#181818;stroke-width:1;"/><line style="stroke:#181818;stroke-width:1;stroke-dasharray:2,2;" x1="496.7217" x2="891.8994" y1="778.4297" y2="778.4297"/><text fill="#000000" font-family="sans-serif" font-size="13" lengthAdjust="spacing" textLength="275.6343" x="508.7217" y="773.6875">400 Bad Request + "Business rule violation"</text></g><g class="message" data-participant-1="SPA" data-participant-2="OFFICER"><polygon fill="#181818" points="116.6387,803.7402,106.6387,807.7402,116.6387,811.7402,112.6387,807.7402" style="stroke:#181818;stroke-width:1;"/><line style="stroke:#181818;stroke-width:1;stroke-dasharray:2,2;" x1="110.6387" x2="490.7217" y1="807.7402" y2="807.7402"/><text fill="#000000" font-family="sans-serif" font-size="13" lengthAdjust="spacing" textLength="246.4351" x="122.6387" y="802.998">showError("Invalid status for approval")</text></g><g class="message" data-participant-1="SVC" data-participant-2="DREPO"><polygon fill="#181818" points="2046.9009,840.0508,2056.9009,844.0508,2046.9009,848.0508,2050.9009,844.0508" style="stroke:#181818;stroke-width:1;"/><line style="stroke:#181818;stroke-width:1;" x1="1467.0405" x2="2052.9009" y1="844.0508" y2="844.0508"/><text fill="#000000" font-family="sans-serif" font-size="13" lengthAdjust="spacing" textLength="223.9453" x="1474.0405" y="839.3086">GetByNameAsync(DockAssignment)</text></g><g class="message" data-participant-1="DREPO" data-participant-2="DB"><polygon fill="#181818" points="2451.4756,869.3613,2461.4756,873.3613,2451.4756,877.3613,2455.4756,873.3613" style="stroke:#181818;stroke-width:1;"/><line style="stroke:#181818;stroke-width:1;" x1="2068.9009" x2="2457.4756" y1="873.3613" y2="873.3613"/><text fill="#000000" font-family="sans-serif" font-size="13" lengthAdjust="spacing" textLength="250.3579" x="2075.9009" y="868.6191">SELECT * FROM Docks WHERE Name = ?</text></g><g class="message" data-participant-1="DB" data-participant-2="DREPO"><polygon fill="#181818" points="2079.9009,898.6719,2069.9009,902.6719,2079.9009,906.6719,2075.9009,902.6719" style="stroke:#181818;stroke-width:1;"/><line style="stroke:#181818;stroke-width:1;stroke-dasharray:2,2;" x1="2073.9009" x2="2467.4756" y1="902.6719" y2="902.6719"/><text fill="#000000" font-family="sans-serif" font-size="13" lengthAdjust="spacing" textLength="77.1621" x="2085.9009" y="897.9297">Dock or null</text></g><g class="message" data-participant-1="DREPO" data-participant-2="SVC"><polygon fill="#181818" points="1478.0405,927.9824,1468.0405,931.9824,1478.0405,935.9824,1474.0405,931.9824" style="stroke:#181818;stroke-width:1;"/><line style="stroke:#181818;stroke-width:1;stroke-dasharray:2,2;" x1="1472.0405" x2="2062.9009" y1="931.9824" y2="931.9824"/><text fill="#000000" font-family="sans-serif" font-size="13" lengthAdjust="spacing" textLength="77.1621" x="1484.0405" y="927.2402">Dock or null</text></g><path d="M20,946.9824 L82.1387,946.9824 L82.1387,954.293 L72.1387,964.293 L20,964.293 L20,946.9824" fill="#EEEEEE" style="stroke:#000000;stroke-width:1.5;"/><rect fill="none" height="105.2422" style="stroke:#000000;stroke-width:1.5;" width="1560.7148" x="20" y="946.9824"/><text fill="#000000" font-family="sans-serif" font-size="13" font-weight="bold" lengthAdjust="spacing" textLength="17.1387" x="35" y="960.5508">alt</text><text fill="#000000" font-family="sans-serif" font-size="11" font-weight="bold" lengthAdjust="spacing" textLength="95.9976" x="97.1387" y="959.6172">[Dock not found]</text><g class="message" data-participant-1="SVC" data-participant-2="CTRL"><polygon fill="#181818" points="903.8994,981.6035,893.8994,985.6035,903.8994,989.6035,899.8994,985.6035" style="stroke:#181818;stroke-width:1;"/><line style="stroke:#181818;stroke-width:1;stroke-dasharray:2,2;" x1="897.8994" x2="1456.0405" y1="985.6035" y2="985.6035"/><text fill="#000000" font-family="sans-serif" font-size="13" lengthAdjust="spacing" textLength="390.3047" x="909.8994" y="980.8613">throws BusinessRuleViolationException("Dock does not exist")</text></g><g class="message" data-participant-1="CTRL" data-participant-2="SPA"><polygon fill="#181818" points="502.7217,1010.9141,492.7217,1014.9141,502.7217,1018.9141,498.7217,1014.9141" style="stroke:#181818;stroke-width:1;"/><line style="stroke:#181818;stroke-width:1;stroke-dasharray:2,2;" x1="496.7217" x2="891.8994" y1="1014.9141" y2="1014.9141"/><text fill="#000000" font-family="sans-serif" font-size="13" lengthAdjust="spacing" textLength="232.6479" x="508.7217" y="1010.1719">400 Bad Request + "Dock not found"</text></g><g class="message" data-participant-1="SPA" data-participant-2="OFFICER"><polygon fill="#181818" points="116.6387,1040.2246,106.6387,1044.2246,116.6387,1048.2246,112.6387,1044.2246" style="stroke:#181818;stroke-width:1;"/><line style="stroke:#181818;stroke-width:1;stroke-dasharray:2,2;" x1="110.6387" x2="490.7217" y1="1044.2246" y2="1044.2246"/><text fill="#000000" font-family="sans-serif" font-size="13" lengthAdjust="spacing" textLength="234.5967" x="122.6387" y="1039.4824">showError("Invalid dock assignment")</text></g><g class="message" data-participant-1="SVC" data-participant-2="NREPO"><polygon fill="#181818" points="1853.332,1076.5352,1863.332,1080.5352,1853.332,1084.5352,1857.332,1080.5352" style="stroke:#181818;stroke-width:1;"/><line style="stroke:#181818;stroke-width:1;" x1="1467.0405" x2="1859.332" y1="1080.5352" y2="1080.5352"/><text fill="#000000" font-family="sans-serif" font-size="13" lengthAdjust="spacing" textLength="379.2915" x="1474.0405" y="1075.793">GetByDockAndTimeRangeAsync(dockAssignment, ETA, ETD)</text></g><g class="message" data-participant-1="NREPO" data-participant-2="DB"><polygon fill="#181818" points="2451.4756,1105.8457,2461.4756,1109.8457,2451.4756,1113.8457,2455.4756,1109.8457" style="stroke:#181818;stroke-width:1;"/><line style="stroke:#181818;stroke-width:1;" x1="1875.332" x2="2457.4756" y1="1109.8457" y2="1109.8457"/><text fill="#000000" font-family="sans-serif" font-size="13" lengthAdjust="spacing" textLength="569.1436" x="1882.332" y="1105.1035">SELECT * FROM VesselVisitNotifications WHERE DockAssignment = ? AND ...time overlap...</text></g><g class="message" data-participant-1="DB" data-participant-2="NREPO"><polygon fill="#181818" points="1886.332,1135.1563,1876.332,1139.1563,1886.332,1143.1563,1882.332,1139.1563" style="stroke:#181818;stroke-width:1;"/><line style="stroke:#181818;stroke-width:1;stroke-dasharray:2,2;" x1="1880.332" x2="2467.4756" y1="1139.1563" y2="1139.1563"/><text fill="#000000" font-family="sans-serif" font-size="13" lengthAdjust="spacing" textLength="183.606" x="1892.332" y="1134.4141">List&lt;VesselVisitNotification&gt;</text></g><g class="message" data-participant-1="NREPO" data-participant-2="SVC"><polygon fill="#181818" points="1478.0405,1164.4668,1468.0405,1168.4668,1478.0405,1172.4668,1474.0405,1168.4668" style="stroke:#181818;stroke-width:1;"/><line style="stroke:#181818;stroke-width:1;stroke-dasharray:2,2;" x1="1472.0405" x2="1869.332" y1="1168.4668" y2="1168.4668"/><text fill="#000000" font-family="sans-serif" font-size="13" lengthAdjust="spacing" textLength="183.606" x="1484.0405" y="1163.7246">List&lt;VesselVisitNotification&gt;</text></g><path d="M20,1183.4668 L82.1387,1183.4668 L82.1387,1190.7773 L72.1387,1200.7773 L20,1200.7773 L20,1183.4668" fill="#EEEEEE" style="stroke:#000000;stroke-width:1.5;"/><rect fill="none" height="105.2422" style="stroke:#000000;stroke-width:1.5;" width="1560.7148" x="20" y="1183.4668"/><text fill="#000000" font-family="sans-serif" font-size="13" font-weight="bold" lengthAdjust="spacing" textLength="17.1387" x="35" y="1197.0352">alt</text><text fill="#000000" font-family="sans-serif" font-size="11" font-weight="bold" lengthAdjust="spacing" textLength="161.1758" x="97.1387" y="1196.1016">[Conflicting schedule found]</text><g class="message" data-participant-1="SVC" data-participant-2="CTRL"><polygon fill="#181818" points="903.8994,1218.0879,893.8994,1222.0879,903.8994,1226.0879,899.8994,1222.0879" style="stroke:#181818;stroke-width:1;"/><line style="stroke:#181818;stroke-width:1;stroke-dasharray:2,2;" x1="897.8994" x2="1456.0405" y1="1222.0879" y2="1222.0879"/><text fill="#000000" font-family="sans-serif" font-size="13" lengthAdjust="spacing" textLength="397.6045" x="909.8994" y="1217.3457">throws BusinessRuleViolationException("Dock already booked")</text></g><g class="message" data-participant-1="CTRL" data-participant-2="SPA"><polygon fill="#181818" points="502.7217,1247.3984,492.7217,1251.3984,502.7217,1255.3984,498.7217,1251.3984" style="stroke:#181818;stroke-width:1;"/><line style="stroke:#181818;stroke-width:1;stroke-dasharray:2,2;" x1="496.7217" x2="891.8994" y1="1251.3984" y2="1251.3984"/><text fill="#000000" font-family="sans-serif" font-size="13" lengthAdjust="spacing" textLength="183.3076" x="508.7217" y="1246.6563">400 Bad Request + "Conflict"</text></g><g class="message" data-participant-1="SPA" data-participant-2="OFFICER"><polygon fill="#181818" points="116.6387,1276.709,106.6387,1280.709,116.6387,1284.709,112.6387,1280.709" style="stroke:#181818;stroke-width:1;"/><line style="stroke:#181818;stroke-width:1;stroke-dasharray:2,2;" x1="110.6387" x2="490.7217" y1="1280.709" y2="1280.709"/><text fill="#000000" font-family="sans-serif" font-size="13" lengthAdjust="spacing" textLength="362.083" x="122.6387" y="1275.9668">showError("Dock already booked for the selected period")</text></g><path d="M763.8105,1309.709 L928.9146,1309.709 L928.9146,1317.0195 L918.9146,1327.0195 L763.8105,1327.0195 L763.8105,1309.709" fill="#EEEEEE" style="stroke:#000000;stroke-width:1.5;"/><rect fill="none" height="302.7266" style="stroke:#000000;stroke-width:1.5;" width="1790.5679" x="763.8105" y="1309.709"/><text fill="#000000" font-family="sans-serif" font-size="13" font-weight="bold" lengthAdjust="spacing" textLength="120.104" x="778.8105" y="1323.2773">Approve and Save</text><g class="message" data-participant-1="SVC" data-participant-2="SVC"><line style="stroke:#181818;stroke-width:1;" x1="1467.0405" x2="1509.0405" y1="1409.5723" y2="1409.5723"/><line style="stroke:#181818;stroke-width:1;" x1="1509.0405" x2="1509.0405" y1="1409.5723" y2="1422.5723"/><line style="stroke:#181818;stroke-width:1;" x1="1468.0405" x2="1509.0405" y1="1422.5723" y2="1422.5723"/><polygon fill="#181818" points="1478.0405,1418.5723,1468.0405,1422.5723,1478.0405,1426.5723,1474.0405,1422.5723" style="stroke:#181818;stroke-width:1;"/><text fill="#000000" font-family="sans-serif" font-size="13" lengthAdjust="spacing" textLength="122.8145" x="1474.0405" y="1343.5879">Update entity fields</text><text fill="#000000" font-family="sans-serif" font-size="13" lengthAdjust="spacing" textLength="117.9521" x="1474.0405" y="1358.8984">Status = Approved</text><text fill="#000000" font-family="sans-serif" font-size="13" lengthAdjust="spacing" textLength="231.4482" x="1474.0405" y="1374.209">DockAssignment = DockAssignment</text><text fill="#000000" font-family="sans-serif" font-size="13" lengthAdjust="spacing" textLength="146.0723" x="1474.0405" y="1389.5195">ApprovedBy = officerId</text><text fill="#000000" font-family="sans-serif" font-size="13" lengthAdjust="spacing" textLength="141.3179" x="1474.0405" y="1404.8301">ApprovedAt = UtcNow</text></g><path d="M1472,1435.5723 L1472,1460.5723 L1914,1460.5723 L1914,1445.5723 L1904,1435.5723 L1472,1435.5723" fill="#FEFFDD" style="stroke:#181818;stroke-width:0.5;"/><path d="M1904,1435.5723 L1904,1445.5723 L1914,1445.5723 L1904,1435.5723" fill="#FEFFDD" style="stroke:#181818;stroke-width:0.5;"/><text fill="#000000" font-family="sans-serif" font-size="13" lengthAdjust="spacing" textLength="421.167" x="1478" y="1453.1406">Updates notification to Approved\nand logs officer and timestamp</text><g class="message" data-participant-1="SVC" data-participant-2="NREPO"><polygon fill="#181818" points="1853.332,1483.1934,1863.332,1487.1934,1853.332,1491.1934,1857.332,1487.1934" style="stroke:#181818;stroke-width:1;"/><line style="stroke:#181818;stroke-width:1;" x1="1467.0405" x2="1859.332" y1="1487.1934" y2="1487.1934"/><text fill="#000000" font-family="sans-serif" font-size="13" lengthAdjust="spacing" textLength="161.9478" x="1474.0405" y="1482.4512">UpdateAsync(notification)</text></g><g class="message" data-participant-1="NREPO" data-participant-2="DB"><polygon fill="#181818" points="2451.4756,1512.5039,2461.4756,1516.5039,2451.4756,1520.5039,2455.4756,1516.5039" style="stroke:#181818;stroke-width:1;"/><line style="stroke:#181818;stroke-width:1;" x1="1875.332" x2="2457.4756" y1="1516.5039" y2="1516.5039"/><text fill="#000000" font-family="sans-serif" font-size="13" lengthAdjust="spacing" textLength="380.7451" x="1882.332" y="1511.7617">UPDATE VesselVisitNotifications SET ... Status='Approved' ...</text></g><g class="message" data-participant-1="DB" data-participant-2="NREPO"><polygon fill="#181818" points="1886.332,1541.8145,1876.332,1545.8145,1886.332,1549.8145,1882.332,1545.8145" style="stroke:#181818;stroke-width:1;"/><line style="stroke:#181818;stroke-width:1;stroke-dasharray:2,2;" x1="1880.332" x2="2467.4756" y1="1545.8145" y2="1545.8145"/><text fill="#000000" font-family="sans-serif" font-size="13" lengthAdjust="spacing" textLength="48.5088" x="1892.332" y="1541.0723">success</text></g><g class="message" data-participant-1="NREPO" data-participant-2="SVC"><polygon fill="#181818" points="1478.0405,1571.125,1468.0405,1575.125,1478.0405,1579.125,1474.0405,1575.125" style="stroke:#181818;stroke-width:1;"/><line style="stroke:#181818;stroke-width:1;stroke-dasharray:2,2;" x1="1472.0405" x2="1869.332" y1="1575.125" y2="1575.125"/><text fill="#000000" font-family="sans-serif" font-size="13" lengthAdjust="spacing" textLength="48.5088" x="1484.0405" y="1570.3828">success</text></g><g class="message" data-participant-1="SVC" data-participant-2="CTRL"><polygon fill="#181818" points="903.8994,1600.4355,893.8994,1604.4355,903.8994,1608.4355,899.8994,1604.4355" style="stroke:#181818;stroke-width:1;"/><line style="stroke:#181818;stroke-width:1;stroke-dasharray:2,2;" x1="897.8994" x2="1461.0405" y1="1604.4355" y2="1604.4355"/><text fill="#000000" font-family="sans-serif" font-size="13" lengthAdjust="spacing" textLength="48.5088" x="909.8994" y="1599.6934">success</text></g><path d="M20,1626.4355 L156.0952,1626.4355 L156.0952,1633.7461 L146.0952,1643.7461 L20,1643.7461 L20,1626.4355" fill="#EEEEEE" style="stroke:#000000;stroke-width:1.5;"/><rect fill="none" height="75.9316" style="stroke:#000000;stroke-width:1.5;" width="1001.9883" x="20" y="1626.4355"/><text fill="#000000" font-family="sans-serif" font-size="13" font-weight="bold" lengthAdjust="spacing" textLength="91.0952" x="35" y="1640.0039">Return Result</text><g class="message" data-participant-1="CTRL" data-participant-2="SPA"><polygon fill="#181818" points="502.7217,1661.0566,492.7217,1665.0566,502.7217,1669.0566,498.7217,1665.0566" style="stroke:#181818;stroke-width:1;"/><line style="stroke:#181818;stroke-width:1;stroke-dasharray:2,2;" x1="496.7217" x2="891.8994" y1="1665.0566" y2="1665.0566"/><text fill="#000000" font-family="sans-serif" font-size="13" lengthAdjust="spacing" textLength="100.5596" x="508.7217" y="1660.3145">204 No Content</text></g><g class="message" data-participant-1="SPA" data-participant-2="OFFICER"><polygon fill="#181818" points="116.6387,1690.3672,106.6387,1694.3672,116.6387,1698.3672,112.6387,1694.3672" style="stroke:#181818;stroke-width:1;"/><line style="stroke:#181818;stroke-width:1;stroke-dasharray:2,2;" x1="110.6387" x2="490.7217" y1="1694.3672" y2="1694.3672"/><text fill="#000000" font-family="sans-serif" font-size="13" lengthAdjust="spacing" textLength="315.8975" x="122.6387" y="1689.625">showSuccess("Notification approved successfully")</text></g><path d="M20,1716.3672 L82.1387,1716.3672 L82.1387,1723.6777 L72.1387,1733.6777 L20,1733.6777 L20,1716.3672" fill="#EEEEEE" style="stroke:#000000;stroke-width:1.5;"/><rect fill="none" height="105.2422" style="stroke:#000000;stroke-width:1.5;" width="1560.7148" x="20" y="1716.3672"/><text fill="#000000" font-family="sans-serif" font-size="13" font-weight="bold" lengthAdjust="spacing" textLength="17.1387" x="35" y="1729.9355">alt</text><text fill="#000000" font-family="sans-serif" font-size="11" font-weight="bold" lengthAdjust="spacing" textLength="170.7417" x="97.1387" y="1729.002">[Dock conflict or invalid dock]</text><g class="message" data-participant-1="SVC" data-participant-2="CTRL"><polygon fill="#181818" points="903.8994,1750.9883,893.8994,1754.9883,903.8994,1758.9883,899.8994,1754.9883" style="stroke:#181818;stroke-width:1;"/><line style="stroke:#181818;stroke-width:1;stroke-dasharray:2,2;" x1="897.8994" x2="1461.0405" y1="1754.9883" y2="1754.9883"/><text fill="#000000" font-family="sans-serif" font-size="13" lengthAdjust="spacing" textLength="246.4033" x="909.8994" y="1750.2461">throws BusinessRuleViolationException</text></g><g class="message" data-participant-1="CTRL" data-participant-2="SPA"><polygon fill="#181818" points="502.7217,1780.2988,492.7217,1784.2988,502.7217,1788.2988,498.7217,1784.2988" style="stroke:#181818;stroke-width:1;"/><line style="stroke:#181818;stroke-width:1;stroke-dasharray:2,2;" x1="496.7217" x2="891.8994" y1="1784.2988" y2="1784.2988"/><text fill="#000000" font-family="sans-serif" font-size="13" lengthAdjust="spacing" textLength="106.1709" x="508.7217" y="1779.5566">400 Bad Request</text></g><g class="message" data-participant-1="SPA" data-participant-2="OFFICER"><polygon fill="#181818" points="116.6387,1809.6094,106.6387,1813.6094,116.6387,1817.6094,112.6387,1813.6094" style="stroke:#181818;stroke-width:1;"/><line style="stroke:#181818;stroke-width:1;stroke-dasharray:2,2;" x1="110.6387" x2="490.7217" y1="1813.6094" y2="1813.6094"/><text fill="#000000" font-family="sans-serif" font-size="13" lengthAdjust="spacing" textLength="261.9741" x="122.6387" y="1808.8672">showError("Dock conflict or invalid dock")</text></g><path d="M20,1835.6094 L82.1387,1835.6094 L82.1387,1842.9199 L72.1387,1852.9199 L20,1852.9199 L20,1835.6094" fill="#EEEEEE" style="stroke:#000000;stroke-width:1.5;"/><rect fill="none" height="75.9316" style="stroke:#000000;stroke-width:1.5;" width="1001.9883" x="20" y="1835.6094"/><text fill="#000000" font-family="sans-serif" font-size="13" font-weight="bold" lengthAdjust="spacing" textLength="17.1387" x="35" y="1849.1777">alt</text><text fill="#000000" font-family="sans-serif" font-size="11" font-weight="bold" lengthAdjust="spacing" textLength="123.5566" x="97.1387" y="1848.2441">[Internal server error]</text><g class="message" data-participant-1="CTRL" data-participant-2="SPA"><polygon fill="#181818" points="502.7217,1870.2305,492.7217,1874.2305,502.7217,1878.2305,498.7217,1874.2305" style="stroke:#181818;stroke-width:1;"/><line style="stroke:#181818;stroke-width:1;stroke-dasharray:2,2;" x1="496.7217" x2="891.8994" y1="1874.2305" y2="1874.2305"/><text fill="#000000" font-family="sans-serif" font-size="13" lengthAdjust="spacing" textLength="155.0859" x="508.7217" y="1869.4883">500 Internal Server Error</text></g><g class="message" data-participant-1="SPA" data-participant-2="OFFICER"><polygon fill="#181818" points="116.6387,1899.541,106.6387,1903.541,116.6387,1907.541,112.6387,1903.541" style="stroke:#181818;stroke-width:1;"/><line style="stroke:#181818;stroke-width:1;stroke-dasharray:2,2;" x1="110.6387" x2="490.7217" y1="1903.541" y2="1903.541"/><text fill="#000000" font-family="sans-serif" font-size="13" lengthAdjust="spacing" textLength="266.0557" x="122.6387" y="1898.7988">showError("System error during approval")</text></g><!--SRC=[jLVDRkCs4BxxAQO-D4cxIHR5zX8qAMHRsHXmR5Tol9TS68csYSYaIbBE6ei5-Ynzj3v9XwIaI5h_A8jMXqIMEF_VV3FIJ2SKl3ILOaDXJfMY2SoPOXh6GhC5YuXcWiCvJAM8y3M-f2-T3ecqaD2T2gd1o_HAIAQtC5cW09LT80ecjxV3lXzqKY8rYrXAk8Qk4QxglLZfTVB8JyEfTsQbyAOkSULyiYvL9Vk2QocI9BVMdmMZTe8XbHjqqbcRzzi91JGL-4Z8hPKR1_vqqf0SYEYvSMomuvZ9s3tXP4dNbEj1pntiTJedSBtlWeVG3y3hpuQJyVvJdQKKMLhMikf-1_3A2mBdDoRBS0LHmg9dwEO2w0YF0NsY4amidb9ioOsJLfeBJK6ovKg3M9J5XVpA2u-n6245169KOJKIfruzSbu5r0BXit5m8rAo3Kakh3QA8iPM1syE9oNm_tZmmndSZYQVZcObp9xMY6aNAqaWe7zcLBdGJ3OmAGP2c9MfD-lVmIL9sQNpxtnZq71UzLvTVddA5EFuVXX_lSn3VEHVwedxQjLZgs1uc3sBKVl8cZ9rcFVHObu0JsrvTFggzrsZ3EymyJRBm_YihjZ0k4MwPi7Gd_lm8yozqN3WpVoZMGkebepk0fFn70EmZO0XVAIwj-sLhZT3QVZhsiSySlAeQD13BQ4_ylip-0bkWyazx6b51P_k_C27Lsjm3R_N3M0_cT-ezBpYv1w5W4ZaMP9OaPWsbUGkbjLwenONgtClQP0gGWhx8CFA5Nraq_gAHRsIuWNfGQm9utEIiDWA-fyZcfgRq-vkVTspKgE3Mjdp7zv_C3x0RTsiwG0yKr345QYLUF6b5BA5YKgqhn0tVOm1ErmwDEK1qDSkH1AFcItg3eung2vC_FFNtt2VAGrF5AQeal5beUIt9tbJErVl6f3OwKpIUESvM1kbz3DJ-fltOm4gMj4uIz0QH88la2-rghDKMTXG4vqf-E6wwT-HsXOm3hA4pfb8cWMUy6GBgLC9DGw2Y72JZvnz3XRzFVH8N90U_0pTmYn8j0kRmd2t7II6V6Dg2Se5RRYSvE6snKMLHGPL5XcJTKw5zK8sE6HGSiZW08SO5GLX6CN7gABmn6BZC2yC6hnmKAHE0lPes-O_1X2hB1PKMOqMocz2GjsPDmB0JVcoHjzJ_De8iINdyOojQK3uCWT2t9Y3_impVmR_nrXfi0VY1Rpn02ukBZGw1TXeCY4f_cmpSKQ6L_OOl6avRzwaep5j-Zbf6Ux8kOp-Tw0ZYQGatiAJ4Czlf9_2iPPmss7EaevUKS2yq4ZZWvHA9jusbmxjIzvq6anmKsgzS9jbDoGRMWMtA-53QiSUuiby92qOJM9SX_E9SLqeY1_vD-2hFtZanT7U5b-Mw-3hSyy8FUXeB5wEJ5JdawgD5D2Yueo99n5BLTYn0PecGDPVfpl6OAEXdGNNmLKhBRlsOMfNrBtj6lepqvNvuBq-AHm_WPRDgRB8VD2sRCCzfoiDr-YaFG8jT_LmEXc7hHRqJ7Byfx94TtRqtYzstpD4e8ilkPrjiRlzGXT3OmSi5euYn0LEl2tstT6m_22O1727V3eQZZyU2AuSaiNMPGOhgyoSplTIL-SuFtNQqT4-ruf4c1Y6vckQuwAhgCJ10TJ8xtBXLtIXF1owmtvv-A0puLPfkdQg8SwauVhACcPy-HS0]--></g></svg>