<svg xmlns="http://www.w3.org/2000/svg" xmlns:xlink="http://www.w3.org/1999/xlink" contentStyleType="text/css" data-diagram-type="SEQUENCE" height="1084px" preserveAspectRatio="none" style="width:2086px;height:1084px;background:#FFFFFF;" version="1.1" viewBox="0 0 2086 1084" width="2086px" zoomAndPan="magnify"><title>Review Vessel Visit Notification - Process View</title><defs/><g><text fill="#000000" font-family="sans-serif" font-size="14" font-weight="bold" lengthAdjust="spacing" textLength="341.0039" x="874.1167" y="28.5352">Review Vessel Visit Notification - Process View</text><g><title>.VesselVisitNotificationController</title><rect fill="#FFFFFF" height="290.1055" style="stroke:#181818;stroke-width:1;" width="10" x="760.7793" y="270.5293"/></g><g><title>.VesselVisitNotificationService</title><rect fill="#FFFFFF" height="406.0371" style="stroke:#181818;stroke-width:1;" width="10" x="1004.6665" y="299.8398"/></g><g><title>.VesselVisitNotificationRepository</title><rect fill="#FFFFFF" height="87.9316" style="stroke:#181818;stroke-width:1;" width="10" x="1248.5537" y="360.4609"/></g><g><title>.PortManagementDB</title><rect fill="#FFFFFF" height="29.3105" style="stroke:#181818;stroke-width:1;" width="10" x="1666.9507" y="389.7715"/></g><rect fill="none" height="81.9316" style="stroke:#000000;stroke-width:1.5;" width="642.4473" x="20" y="135.9766"/><rect fill="none" height="75.9316" style="stroke:#000000;stroke-width:1.5;" width="800.0996" x="328.2412" y="231.9082"/><rect fill="none" height="253.7949" style="stroke:#000000;stroke-width:1.5;" width="1747.8535" x="10" y="321.8398"/><rect fill="none" height="105.2422" style="stroke:#000000;stroke-width:1.5;" width="1108.3408" x="20" y="463.3926"/><rect fill="none" height="124.2422" style="stroke:#000000;stroke-width:1.5;" width="1443.5469" x="636.6904" y="589.6348"/><rect fill="none" height="168.8633" style="stroke:#000000;stroke-width:1.5;" width="1524.959" x="20" y="727.877"/><rect fill="none" height="75.9316" style="stroke:#000000;stroke-width:1.5;" width="874.8682" x="20" y="910.7402"/><g><title>Port Authority Officer</title><rect fill="#000000" fill-opacity="0.00000" height="884.6953" width="8" x="101.6387" y="118.9766"/><line style="stroke:#181818;stroke-width:0.5;stroke-dasharray:5,5;" x1="105" x2="105" y1="118.9766" y2="1003.6719"/></g><g><title>ViewNotification.html</title><rect fill="#000000" fill-opacity="0.00000" height="884.6953" width="8" x="414.3174" y="118.9766"/><line style="stroke:#181818;stroke-width:0.5;stroke-dasharray:5,5;" x1="418.2412" x2="418.2412" y1="118.9766" y2="1003.6719"/></g><g><title>.VesselVisitNotificationController</title><rect fill="#000000" fill-opacity="0.00000" height="884.6953" width="8" x="761.7793" y="118.9766"/><line style="stroke:#181818;stroke-width:0.5;stroke-dasharray:5,5;" x1="765.6904" x2="765.6904" y1="118.9766" y2="1003.6719"/></g><g><title>.VesselVisitNotificationService</title><rect fill="#000000" fill-opacity="0.00000" height="884.6953" width="8" x="1005.6665" y="118.9766"/><line style="stroke:#181818;stroke-width:0.5;stroke-dasharray:5,5;" x1="1008.9922" x2="1008.9922" y1="118.9766" y2="1003.6719"/></g><g><title>.VesselVisitNotificationRepository</title><rect fill="#000000" fill-opacity="0.00000" height="884.6953" width="8" x="1249.5537" y="118.9766"/><line style="stroke:#181818;stroke-width:0.5;stroke-dasharray:5,5;" x1="1253.4824" x2="1253.4824" y1="118.9766" y2="1003.6719"/></g><g><title>.PortManagementDB</title><rect fill="#000000" fill-opacity="0.00000" height="884.6953" width="8" x="1667.9507" y="118.9766"/><line style="stroke:#181818;stroke-width:0.5;stroke-dasharray:5,5;" x1="1671.0479" x2="1671.0479" y1="118.9766" y2="1003.6719"/></g><g class="participant participant-head" data-participant="OFFICER"><text fill="#000000" font-family="sans-serif" font-size="14" lengthAdjust="spacing" textLength="145.2773" x="30" y="116.0234">Port Authority Officer</text><ellipse cx="105.6387" cy="50.9883" fill="#E2E2F0" rx="8" ry="8" style="stroke:#181818;stroke-width:0.5;"/><path d="M105.6387,58.9883 L105.6387,85.9883 M92.6387,66.9883 L118.6387,66.9883 M105.6387,85.9883 L92.6387,100.9883 M105.6387,85.9883 L118.6387,100.9883" fill="none" style="stroke:#181818;stroke-width:0.5;"/></g><g class="participant participant-tail" data-participant="OFFICER"><text fill="#000000" font-family="sans-serif" font-size="14" lengthAdjust="spacing" textLength="145.2773" x="30" y="1016.207">Port Authority Officer</text><ellipse cx="105.6387" cy="1027.6602" fill="#E2E2F0" rx="8" ry="8" style="stroke:#181818;stroke-width:0.5;"/><path d="M105.6387,1035.6602 L105.6387,1062.6602 M92.6387,1043.6602 L118.6387,1043.6602 M105.6387,1062.6602 L92.6387,1077.6602 M105.6387,1062.6602 L118.6387,1077.6602" fill="none" style="stroke:#181818;stroke-width:0.5;"/></g><g class="participant participant-head" data-participant="SPA"><rect fill="#E2E2F0" height="46.9766" rx="2.5" ry="2.5" style="stroke:#181818;stroke-width:0.5;" width="160.1523" x="338.2412" y="71"/><text fill="#000000" font-family="sans-serif" font-size="14" lengthAdjust="spacing" textLength="146.1523" x="345.2412" y="91.5352">ViewNotification.html</text><text fill="#000000" font-family="sans-serif" font-size="14" lengthAdjust="spacing" textLength="34.043" x="401.2959" y="108.0234">(SPA)</text></g><g class="participant participant-tail" data-participant="SPA"><rect fill="#E2E2F0" height="46.9766" rx="2.5" ry="2.5" style="stroke:#181818;stroke-width:0.5;" width="160.1523" x="338.2412" y="1002.6719"/><text fill="#000000" font-family="sans-serif" font-size="14" lengthAdjust="spacing" textLength="146.1523" x="345.2412" y="1023.207">ViewNotification.html</text><text fill="#000000" font-family="sans-serif" font-size="14" lengthAdjust="spacing" textLength="34.043" x="401.2959" y="1039.6953">(SPA)</text></g><g class="participant participant-head" data-participant="CTRL"><rect fill="#E2E2F0" height="30.4883" rx="2.5" ry="2.5" style="stroke:#181818;stroke-width:0.5;" width="238.1777" x="646.6904" y="87.4883"/><text fill="#000000" font-family="sans-serif" font-size="14" lengthAdjust="spacing" textLength="224.1777" x="653.6904" y="108.0234">:VesselVisitNotificationController</text></g><g class="participant participant-tail" data-participant="CTRL"><rect fill="#E2E2F0" height="30.4883" rx="2.5" ry="2.5" style="stroke:#181818;stroke-width:0.5;" width="238.1777" x="646.6904" y="1002.6719"/><text fill="#000000" font-family="sans-serif" font-size="14" lengthAdjust="spacing" textLength="224.1777" x="653.6904" y="1023.207">:VesselVisitNotificationController</text></g><g class="participant participant-head" data-participant="SVC"><rect fill="#E2E2F0" height="30.4883" rx="2.5" ry="2.5" style="stroke:#181818;stroke-width:0.5;" width="217.3486" x="900.9922" y="87.4883"/><text fill="#000000" font-family="sans-serif" font-size="14" lengthAdjust="spacing" textLength="203.3486" x="907.9922" y="108.0234">:VesselVisitNotificationService</text></g><g class="participant participant-tail" data-participant="SVC"><rect fill="#E2E2F0" height="30.4883" rx="2.5" ry="2.5" style="stroke:#181818;stroke-width:0.5;" width="217.3486" x="900.9922" y="1002.6719"/><text fill="#000000" font-family="sans-serif" font-size="14" lengthAdjust="spacing" textLength="203.3486" x="907.9922" y="1023.207">:VesselVisitNotificationService</text></g><g class="participant participant-head" data-participant="REPO"><rect fill="#E2E2F0" height="30.4883" rx="2.5" ry="2.5" style="stroke:#181818;stroke-width:0.5;" width="242.1426" x="1132.4824" y="87.4883"/><text fill="#000000" font-family="sans-serif" font-size="14" lengthAdjust="spacing" textLength="228.1426" x="1139.4824" y="108.0234">:VesselVisitNotificationRepository</text></g><g class="participant participant-tail" data-participant="REPO"><rect fill="#E2E2F0" height="30.4883" rx="2.5" ry="2.5" style="stroke:#181818;stroke-width:0.5;" width="242.1426" x="1132.4824" y="1002.6719"/><text fill="#000000" font-family="sans-serif" font-size="14" lengthAdjust="spacing" textLength="228.1426" x="1139.4824" y="1023.207">:VesselVisitNotificationRepository</text></g><g class="participant participant-head" data-participant="DB"><rect fill="#E2E2F0" height="30.4883" rx="2.5" ry="2.5" style="stroke:#181818;stroke-width:0.5;" width="151.8057" x="1596.0479" y="87.4883"/><text fill="#000000" font-family="sans-serif" font-size="14" lengthAdjust="spacing" textLength="137.8057" x="1603.0479" y="108.0234">:PortManagementDB</text></g><g class="participant participant-tail" data-participant="DB"><rect fill="#E2E2F0" height="30.4883" rx="2.5" ry="2.5" style="stroke:#181818;stroke-width:0.5;" width="151.8057" x="1596.0479" y="1002.6719"/><text fill="#000000" font-family="sans-serif" font-size="14" lengthAdjust="spacing" textLength="137.8057" x="1603.0479" y="1023.207">:PortManagementDB</text></g><g><title>.VesselVisitNotificationController</title><rect fill="#FFFFFF" height="290.1055" style="stroke:#181818;stroke-width:1;" width="10" x="760.7793" y="270.5293"/></g><g><title>.VesselVisitNotificationService</title><rect fill="#FFFFFF" height="406.0371" style="stroke:#181818;stroke-width:1;" width="10" x="1004.6665" y="299.8398"/></g><g><title>.VesselVisitNotificationRepository</title><rect fill="#FFFFFF" height="87.9316" style="stroke:#181818;stroke-width:1;" width="10" x="1248.5537" y="360.4609"/></g><g><title>.PortManagementDB</title><rect fill="#FFFFFF" height="29.3105" style="stroke:#181818;stroke-width:1;" width="10" x="1666.9507" y="389.7715"/></g><path d="M20,135.9766 L233.9873,135.9766 L233.9873,143.2871 L223.9873,153.2871 L20,153.2871 L20,135.9766" fill="#EEEEEE" style="stroke:#000000;stroke-width:1.5;"/><rect fill="none" height="81.9316" style="stroke:#000000;stroke-width:1.5;" width="642.4473" x="20" y="135.9766"/><text fill="#000000" font-family="sans-serif" font-size="13" font-weight="bold" lengthAdjust="spacing" textLength="168.9873" x="35" y="149.5449">Open Notification Details</text><g class="message" data-participant-1="OFFICER" data-participant-2="SPA"><polygon fill="#181818" points="406.3174,170.5977,416.3174,174.5977,406.3174,178.5977,410.3174,174.5977" style="stroke:#181818;stroke-width:1;"/><line style="stroke:#181818;stroke-width:1;" x1="105.6387" x2="412.3174" y1="174.5977" y2="174.5977"/><text fill="#000000" font-family="sans-serif" font-size="13" lengthAdjust="spacing" textLength="256.3311" x="112.6387" y="169.8555">click "View" on a Vessel Visit Notification</text></g><path d="M110,187.5977 L110,212.5977 L652,212.5977 L652,197.5977 L642,187.5977 L110,187.5977" fill="#FEFFDD" style="stroke:#181818;stroke-width:0.5;"/><path d="M642,187.5977 L642,197.5977 L652,197.5977 L642,187.5977" fill="#FEFFDD" style="stroke:#181818;stroke-width:0.5;"/><text fill="#000000" font-family="sans-serif" font-size="13" lengthAdjust="spacing" textLength="521.4473" x="116" y="205.166">The officer selects a notification from the list\nfor detailed review before decision.</text><path d="M328.2412,231.9082 L526.7847,231.9082 L526.7847,239.2188 L516.7847,249.2188 L328.2412,249.2188 L328.2412,231.9082" fill="#EEEEEE" style="stroke:#000000;stroke-width:1.5;"/><rect fill="none" height="75.9316" style="stroke:#000000;stroke-width:1.5;" width="800.0996" x="328.2412" y="231.9082"/><text fill="#000000" font-family="sans-serif" font-size="13" font-weight="bold" lengthAdjust="spacing" textLength="153.5435" x="343.2412" y="245.4766">Fetch Notification Data</text><g class="message" data-participant-1="SPA" data-participant-2="CTRL"><polygon fill="#181818" points="748.7793,266.5293,758.7793,270.5293,748.7793,274.5293,752.7793,270.5293" style="stroke:#181818;stroke-width:1;"/><line style="stroke:#181818;stroke-width:1;" x1="418.3174" x2="754.7793" y1="270.5293" y2="270.5293"/><text fill="#000000" font-family="sans-serif" font-size="13" lengthAdjust="spacing" textLength="301.2788" x="425.3174" y="265.7871">GET /api/vessel-visit-notifications/{businessId}</text></g><g class="message" data-participant-1="CTRL" data-participant-2="SVC"><polygon fill="#181818" points="992.6665,295.8398,1002.6665,299.8398,992.6665,303.8398,996.6665,299.8398" style="stroke:#181818;stroke-width:1;"/><line style="stroke:#181818;stroke-width:1;" x1="770.7793" x2="998.6665" y1="299.8398" y2="299.8398"/><text fill="#000000" font-family="sans-serif" font-size="13" lengthAdjust="spacing" textLength="214.8872" x="777.7793" y="295.0977">GetByBusinessIdAsync(businessId)</text></g><path d="M10,321.8398 L235.502,321.8398 L235.502,329.1504 L225.502,339.1504 L10,339.1504 L10,321.8398" fill="#EEEEEE" style="stroke:#000000;stroke-width:1.5;"/><rect fill="none" height="253.7949" style="stroke:#000000;stroke-width:1.5;" width="1747.8535" x="10" y="321.8398"/><text fill="#000000" font-family="sans-serif" font-size="13" font-weight="bold" lengthAdjust="spacing" textLength="180.502" x="25" y="335.4082">Retrieve Notification Entity</text><g class="message" data-participant-1="SVC" data-participant-2="REPO"><polygon fill="#181818" points="1236.5537,356.4609,1246.5537,360.4609,1236.5537,364.4609,1240.5537,360.4609" style="stroke:#181818;stroke-width:1;"/><line style="stroke:#181818;stroke-width:1;" x1="1014.6665" x2="1242.5537" y1="360.4609" y2="360.4609"/><text fill="#000000" font-family="sans-serif" font-size="13" lengthAdjust="spacing" textLength="214.8872" x="1021.6665" y="355.7188">GetByBusinessIdAsync(businessId)</text></g><g class="message" data-participant-1="REPO" data-participant-2="DB"><polygon fill="#181818" points="1654.9507,385.7715,1664.9507,389.7715,1654.9507,393.7715,1658.9507,389.7715" style="stroke:#181818;stroke-width:1;"/><line style="stroke:#181818;stroke-width:1;" x1="1258.5537" x2="1660.9507" y1="389.7715" y2="389.7715"/><text fill="#000000" font-family="sans-serif" font-size="13" lengthAdjust="spacing" textLength="389.397" x="1265.5537" y="385.0293">SELECT * FROM VesselVisitNotifications WHERE BusinessId = ?</text></g><g class="message" data-participant-1="DB" data-participant-2="REPO"><polygon fill="#181818" points="1269.5537,415.082,1259.5537,419.082,1269.5537,423.082,1265.5537,419.082" style="stroke:#181818;stroke-width:1;"/><line style="stroke:#181818;stroke-width:1;stroke-dasharray:2,2;" x1="1263.5537" x2="1670.9507" y1="419.082" y2="419.082"/><text fill="#000000" font-family="sans-serif" font-size="13" lengthAdjust="spacing" textLength="185.9419" x="1275.5537" y="414.3398">VesselVisitNotification or null</text></g><g class="message" data-participant-1="REPO" data-participant-2="SVC"><polygon fill="#181818" points="1025.6665,444.3926,1015.6665,448.3926,1025.6665,452.3926,1021.6665,448.3926" style="stroke:#181818;stroke-width:1;"/><line style="stroke:#181818;stroke-width:1;stroke-dasharray:2,2;" x1="1019.6665" x2="1252.5537" y1="448.3926" y2="448.3926"/><text fill="#000000" font-family="sans-serif" font-size="13" lengthAdjust="spacing" textLength="185.9419" x="1031.6665" y="443.6504">VesselVisitNotification or null</text></g><path d="M20,463.3926 L82.1387,463.3926 L82.1387,470.7031 L72.1387,480.7031 L20,480.7031 L20,463.3926" fill="#EEEEEE" style="stroke:#000000;stroke-width:1.5;"/><rect fill="none" height="105.2422" style="stroke:#000000;stroke-width:1.5;" width="1108.3408" x="20" y="463.3926"/><text fill="#000000" font-family="sans-serif" font-size="13" font-weight="bold" lengthAdjust="spacing" textLength="17.1387" x="35" y="476.9609">alt</text><text fill="#000000" font-family="sans-serif" font-size="11" font-weight="bold" lengthAdjust="spacing" textLength="133.6919" x="97.1387" y="476.0273">[Notification not found]</text><g class="message" data-participant-1="SVC" data-participant-2="CTRL"><polygon fill="#181818" points="781.7793,498.0137,771.7793,502.0137,781.7793,506.0137,777.7793,502.0137" style="stroke:#181818;stroke-width:1;"/><line style="stroke:#181818;stroke-width:1;stroke-dasharray:2,2;" x1="775.7793" x2="1003.6665" y1="502.0137" y2="502.0137"/><text fill="#000000" font-family="sans-serif" font-size="13" lengthAdjust="spacing" textLength="23.6514" x="787.7793" y="497.2715">null</text></g><g class="message" data-participant-1="CTRL" data-participant-2="SPA"><polygon fill="#181818" points="429.3174,527.3242,419.3174,531.3242,429.3174,535.3242,425.3174,531.3242" style="stroke:#181818;stroke-width:1;"/><line style="stroke:#181818;stroke-width:1;stroke-dasharray:2,2;" x1="423.3174" x2="759.7793" y1="531.3242" y2="531.3242"/><text fill="#000000" font-family="sans-serif" font-size="13" lengthAdjust="spacing" textLength="318.4619" x="435.3174" y="526.582">404 Not Found + { error: "Notification not found" }</text></g><g class="message" data-participant-1="SPA" data-participant-2="OFFICER"><polygon fill="#181818" points="116.6387,556.6348,106.6387,560.6348,116.6387,564.6348,112.6387,560.6348" style="stroke:#181818;stroke-width:1;"/><line style="stroke:#181818;stroke-width:1;stroke-dasharray:2,2;" x1="110.6387" x2="417.3174" y1="560.6348" y2="560.6348"/><text fill="#000000" font-family="sans-serif" font-size="13" lengthAdjust="spacing" textLength="221.3364" x="122.6387" y="555.8926">showError("Notification not found")</text></g><path d="M636.6904,589.6348 L804.8413,589.6348 L804.8413,596.9453 L794.8413,606.9453 L636.6904,606.9453 L636.6904,589.6348" fill="#EEEEEE" style="stroke:#000000;stroke-width:1.5;"/><rect fill="none" height="124.2422" style="stroke:#000000;stroke-width:1.5;" width="1443.5469" x="636.6904" y="589.6348"/><text fill="#000000" font-family="sans-serif" font-size="13" font-weight="bold" lengthAdjust="spacing" textLength="123.1509" x="651.6904" y="603.2031">Map Entity to DTO</text><g class="message" data-participant-1="SVC" data-participant-2="SVC"><line style="stroke:#181818;stroke-width:1;" x1="1014.6665" x2="1056.6665" y1="628.2559" y2="628.2559"/><line style="stroke:#181818;stroke-width:1;" x1="1056.6665" x2="1056.6665" y1="628.2559" y2="641.2559"/><line style="stroke:#181818;stroke-width:1;" x1="1015.6665" x2="1056.6665" y1="641.2559" y2="641.2559"/><polygon fill="#181818" points="1025.6665,637.2559,1015.6665,641.2559,1025.6665,645.2559,1021.6665,641.2559" style="stroke:#181818;stroke-width:1;"/><text fill="#000000" font-family="sans-serif" font-size="13" lengthAdjust="spacing" textLength="109.3892" x="1021.6665" y="623.5137">MapToDto(entity)</text></g><path d="M1019,654.2559 L1019,679.2559 L2070,679.2559 L2070,664.2559 L2060,654.2559 L1019,654.2559" fill="#FEFFDD" style="stroke:#181818;stroke-width:0.5;"/><path d="M2060,654.2559 L2060,664.2559 L2070,664.2559 L2060,654.2559" fill="#FEFFDD" style="stroke:#181818;stroke-width:0.5;"/><text fill="#000000" font-family="sans-serif" font-size="13" lengthAdjust="spacing" textLength="1030.2373" x="1025" y="671.8242">Converts domain entity to VesselVisitNotificationDto:\n&#8226; BusinessId\n&#8226; Vessel info\n&#8226; Cargo manifests\n&#8226; Crew\n&#8226; Status\n&#8226; Dates\n&#8226; Approval/Rejection details</text><g class="message" data-participant-1="SVC" data-participant-2="CTRL"><polygon fill="#181818" points="776.7793,701.877,766.7793,705.877,776.7793,709.877,772.7793,705.877" style="stroke:#181818;stroke-width:1;"/><line style="stroke:#181818;stroke-width:1;stroke-dasharray:2,2;" x1="770.7793" x2="1008.6665" y1="705.877" y2="705.877"/><text fill="#000000" font-family="sans-serif" font-size="13" lengthAdjust="spacing" textLength="163.3442" x="782.7793" y="701.1348">VesselVisitNotificationDto</text></g><path d="M20,727.877 L156.0952,727.877 L156.0952,735.1875 L146.0952,745.1875 L20,745.1875 L20,727.877" fill="#EEEEEE" style="stroke:#000000;stroke-width:1.5;"/><rect fill="none" height="168.8633" style="stroke:#000000;stroke-width:1.5;" width="1524.959" x="20" y="727.877"/><text fill="#000000" font-family="sans-serif" font-size="13" font-weight="bold" lengthAdjust="spacing" textLength="91.0952" x="35" y="741.4453">Return Result</text><g class="message" data-participant-1="CTRL" data-participant-2="SPA"><polygon fill="#181818" points="429.3174,762.498,419.3174,766.498,429.3174,770.498,425.3174,766.498" style="stroke:#181818;stroke-width:1;"/><line style="stroke:#181818;stroke-width:1;stroke-dasharray:2,2;" x1="423.3174" x2="764.7793" y1="766.498" y2="766.498"/><text fill="#000000" font-family="sans-serif" font-size="13" lengthAdjust="spacing" textLength="229.2646" x="435.3174" y="761.7559">200 OK + VesselVisitNotificationDto</text></g><g class="message" data-participant-1="SPA" data-participant-2="SPA"><line style="stroke:#181818;stroke-width:1;" x1="418.3174" x2="460.3174" y1="811.1191" y2="811.1191"/><line style="stroke:#181818;stroke-width:1;" x1="460.3174" x2="460.3174" y1="811.1191" y2="824.1191"/><line style="stroke:#181818;stroke-width:1;" x1="419.3174" x2="460.3174" y1="824.1191" y2="824.1191"/><polygon fill="#181818" points="429.3174,820.1191,419.3174,824.1191,429.3174,828.1191,425.3174,824.1191" style="stroke:#181818;stroke-width:1;"/><text fill="#000000" font-family="sans-serif" font-size="13" lengthAdjust="spacing" textLength="165.8325" x="425.3174" y="791.0664">Render notification details</text><text fill="#000000" font-family="sans-serif" font-size="13" lengthAdjust="spacing" textLength="219.3433" x="425.3174" y="806.377">(ETA, ETD, crew, manifests, status)</text></g><path d="M423,837.1191 L423,862.1191 L1534,862.1191 L1534,847.1191 L1524,837.1191 L423,837.1191" fill="#FEFFDD" style="stroke:#181818;stroke-width:0.5;"/><path d="M1524,837.1191 L1524,847.1191 L1534,847.1191 L1524,837.1191" fill="#FEFFDD" style="stroke:#181818;stroke-width:0.5;"/><text fill="#000000" font-family="sans-serif" font-size="13" lengthAdjust="spacing" textLength="1090.959" x="429" y="854.6875">Populates all fields:\n&#8226; Vessel and dock\n&#8226; Manifests (Loading/Unloading)\n&#8226; Crew &amp; officers\n&#8226; Approval/Rejection metadata\n&#8226; Status badge\n&#8226; Edit button if InProgress</text><g class="message" data-participant-1="SPA" data-participant-2="OFFICER"><polygon fill="#181818" points="116.6387,884.7402,106.6387,888.7402,116.6387,892.7402,112.6387,888.7402" style="stroke:#181818;stroke-width:1;"/><line style="stroke:#181818;stroke-width:1;stroke-dasharray:2,2;" x1="110.6387" x2="417.3174" y1="888.7402" y2="888.7402"/><text fill="#000000" font-family="sans-serif" font-size="13" lengthAdjust="spacing" textLength="201.5698" x="122.6387" y="883.998">Display "View Notification" page</text></g><path d="M20,910.7402 L82.1387,910.7402 L82.1387,918.0508 L72.1387,928.0508 L20,928.0508 L20,910.7402" fill="#EEEEEE" style="stroke:#000000;stroke-width:1.5;"/><rect fill="none" height="75.9316" style="stroke:#000000;stroke-width:1.5;" width="874.8682" x="20" y="910.7402"/><text fill="#000000" font-family="sans-serif" font-size="13" font-weight="bold" lengthAdjust="spacing" textLength="17.1387" x="35" y="924.3086">alt</text><text fill="#000000" font-family="sans-serif" font-size="11" font-weight="bold" lengthAdjust="spacing" textLength="123.5566" x="97.1387" y="923.375">[Internal server error]</text><g class="message" data-participant-1="CTRL" data-participant-2="SPA"><polygon fill="#181818" points="429.3174,945.3613,419.3174,949.3613,429.3174,953.3613,425.3174,949.3613" style="stroke:#181818;stroke-width:1;"/><line style="stroke:#181818;stroke-width:1;stroke-dasharray:2,2;" x1="423.3174" x2="764.7793" y1="949.3613" y2="949.3613"/><text fill="#000000" font-family="sans-serif" font-size="13" lengthAdjust="spacing" textLength="155.0859" x="435.3174" y="944.6191">500 Internal Server Error</text></g><g class="message" data-participant-1="SPA" data-participant-2="OFFICER"><polygon fill="#181818" points="116.6387,974.6719,106.6387,978.6719,116.6387,982.6719,112.6387,978.6719" style="stroke:#181818;stroke-width:1;"/><line style="stroke:#181818;stroke-width:1;stroke-dasharray:2,2;" x1="110.6387" x2="417.3174" y1="978.6719" y2="978.6719"/><text fill="#000000" font-family="sans-serif" font-size="13" lengthAdjust="spacing" textLength="288.6787" x="122.6387" y="973.9297">showError("Failed to load notification details")</text></g><!--SRC=[bLPHZ-8s47xdLunuQA5ToggwlY1Tgq3C7IeG6hBSoxvu4mFk1Jjo75ReT59_It_Q_P8Rso41H1OkqchDPERp-9jlnj5Sfmn2jkVi5LOipraAAvvp3NEf-Ph7L7Cfe0SB9MDyZI_PQwj5OoqLj1TIQV0AlPMAwmC4QmnWgWqqXs0yden8sCgeqZpc6HKQsYRu5FUthTwbpwApN7XT6uMByuY1oyccT1evaa8hcQRbRgCedDuNk6HgZqcwtLQZ-u92baaqINMmSI5P11U1XeaP5NJ3TaneVsZz_66hzJEyRthWQKb2y4RH99WtUxKsIXOP11aJvpNncQOypLk0JyaszFuq5C80ufJ7dntXRK1dsbnS2o2aPg3uPgj1hglYGVb4MuPcMrn041Rh7175QJPh9NUWqI_bkNuMQvH7OXDa2IWdhnU6LeRc67F0ubju9XAxUGiNRxCLad-Uo3A2yJJuT9EkCTFnze8lggdTqZ24H1dD85CVI0Hzcl7-tXBKsnk2UgTdo_jVNegS2tm_IRvQ2DG_trEap0hFcYoSuNyrCgXC3m_3AihB3oBkr2ZTSnGZn3lE7uKJiYBWUv5tau2GQSNPdfrpG8J6HdKiO9wOhj7o3-Th6y1OR3IY-4F4M98f6KNm2up3O0ODhPJ3fuya953l1U_XhtDux1lp6q5xTOODU8124qMQseY4NMAu1Ako_228FQVBBRsOY2WGMCi2YtPi4ajehQiAhnP7rPtl7jyPD1WR0FWLlW1JIge1jA_lqOQlzJP6lOXqRFa1v5lvIanyfocyMqMV7AwMhkb1FE1j2Swy1KG1-FXtItypcfLg0orDnAdeN37G9PA-bXrc_RfN1f5fZ8f3AVPCuUH9v8vo0Qn2RwWgGW-UnRV__ZyHc_jTpaAEOyePHbHj9Eoeu6kMwxmqAlRgLajDTL5QSOomSkbbcP9xclP3zY_EHCDvSZAKgz5sHHtDALzgyCxPi5m4yoMvPomKIk2_lC22Nv7cxu-F4FoDchm_mrf8vMHrI25cZVV5sIrHqeDNFecy1o2H_m0nqlnGS_y0kMNxgXpmy-0eXuNCYjJK0gMRmfgpDCa7P-Mbo7yYuy_EE3jk09sff0aNc_wJIDsgMnSSVZhUTCr5tk4f4hnDJiK1BpJPC6SX2LwnBuNMwClNC17uyRHHcDIvB5hNszddUPRIWxkypuPE6pBymBYj1XA6GGWVlRa_dSm_lA49CzKcGZCbQ8eNkyB-SfFecZB-G6LKpaldJ2hdDyVIs7q7OAiQmgzA0cUKETTt]--></g></svg>