<svg xmlns="http://www.w3.org/2000/svg" xmlns:xlink="http://www.w3.org/1999/xlink" contentStyleType="text/css" data-diagram-type="SEQUENCE" height="1655px" preserveAspectRatio="none" style="width:2089px;height:1655px;background:#FFFFFF;" version="1.1" viewBox="0 0 2089 1655" width="2089px" zoomAndPan="magnify"><title>Reject Vessel Visit Notification - Process View</title><defs/><g><text fill="#000000" font-family="sans-serif" font-size="14" font-weight="bold" lengthAdjust="spacing" textLength="333.8535" x="879.4348" y="28.5352">Reject Vessel Visit Notification - Process View</text><g><title>.VesselVisitNotificationController</title><rect fill="#FFFFFF" height="290.1055" style="stroke:#181818;stroke-width:1;" width="10" x="859.4048" y="285.8398"/></g><g><title>.VesselVisitNotificationService</title><rect fill="#FFFFFF" height="935.5586" style="stroke:#181818;stroke-width:1;" width="10" x="1318.1348" y="315.1504"/></g><g><title>.VesselVisitNotificationRepository</title><rect fill="#FFFFFF" height="87.9316" style="stroke:#181818;stroke-width:1;" width="10" x="1574.4233" y="375.7715"/></g><g><title>.VesselVisitNotificationRepository</title><rect fill="#FFFFFF" height="87.9316" style="stroke:#181818;stroke-width:1;" width="10" x="1574.4233" y="1133.4668"/></g><g><title>.PortManagementDB</title><rect fill="#FFFFFF" height="29.3105" style="stroke:#181818;stroke-width:1;" width="10" x="1992.8203" y="405.082"/></g><g><title>.PortManagementDB</title><rect fill="#FFFFFF" height="29.3105" style="stroke:#181818;stroke-width:1;" width="10" x="1992.8203" y="1162.7773"/></g><rect fill="none" height="81.9316" style="stroke:#000000;stroke-width:1.5;" width="597.2456" x="20" y="135.9766"/><rect fill="none" height="91.2422" style="stroke:#000000;stroke-width:1.5;" width="1053.1191" x="388.6899" y="231.9082"/><rect fill="none" height="253.7949" style="stroke:#000000;stroke-width:1.5;" width="2073.7231" x="10" y="337.1504"/><rect fill="none" height="105.2422" style="stroke:#000000;stroke-width:1.5;" width="1421.8091" x="20" y="478.7031"/><rect fill="none" height="337.0371" style="stroke:#000000;stroke-width:1.5;" width="1611.937" x="10" y="604.9453"/><rect fill="none" height="105.2422" style="stroke:#000000;stroke-width:1.5;" width="1421.8091" x="20" y="710.498"/><rect fill="none" height="105.2422" style="stroke:#000000;stroke-width:1.5;" width="1421.8091" x="20" y="829.7402"/><rect fill="none" height="302.7266" style="stroke:#000000;stroke-width:1.5;" width="1348.4072" x="735.3159" y="955.9824"/><rect fill="none" height="75.9316" style="stroke:#000000;stroke-width:1.5;" width="973.4937" x="20" y="1272.709"/><rect fill="none" height="105.2422" style="stroke:#000000;stroke-width:1.5;" width="1421.8091" x="20" y="1362.6406"/><rect fill="none" height="75.9316" style="stroke:#000000;stroke-width:1.5;" width="973.4937" x="20" y="1481.8828"/><g><title>Port Authority Officer</title><rect fill="#000000" fill-opacity="0.00000" height="1455.8379" width="8" x="101.6387" y="118.9766"/><line style="stroke:#181818;stroke-width:0.5;stroke-dasharray:5,5;" x1="105" x2="105" y1="118.9766" y2="1574.8145"/></g><g><title>ViewNotification.html</title><rect fill="#000000" fill-opacity="0.00000" height="1455.8379" width="8" x="474.7661" y="118.9766"/><line style="stroke:#181818;stroke-width:0.5;stroke-dasharray:5,5;" x1="478.6899" x2="478.6899" y1="118.9766" y2="1574.8145"/></g><g><title>.VesselVisitNotificationController</title><rect fill="#000000" fill-opacity="0.00000" height="1455.8379" width="8" x="860.4048" y="118.9766"/><line style="stroke:#181818;stroke-width:0.5;stroke-dasharray:5,5;" x1="864.3159" x2="864.3159" y1="118.9766" y2="1574.8145"/></g><g><title>.VesselVisitNotificationService</title><rect fill="#000000" fill-opacity="0.00000" height="1455.8379" width="8" x="1319.1348" y="118.9766"/><line style="stroke:#181818;stroke-width:0.5;stroke-dasharray:5,5;" x1="1322.4604" x2="1322.4604" y1="118.9766" y2="1574.8145"/></g><g><title>.VesselVisitNotificationRepository</title><rect fill="#000000" fill-opacity="0.00000" height="1455.8379" width="8" x="1575.4233" y="118.9766"/><line style="stroke:#181818;stroke-width:0.5;stroke-dasharray:5,5;" x1="1579.3521" x2="1579.3521" y1="118.9766" y2="1574.8145"/></g><g><title>.PortManagementDB</title><rect fill="#000000" fill-opacity="0.00000" height="1455.8379" width="8" x="1993.8203" y="118.9766"/><line style="stroke:#181818;stroke-width:0.5;stroke-dasharray:5,5;" x1="1996.9175" x2="1996.9175" y1="118.9766" y2="1574.8145"/></g><g class="participant participant-head" data-participant="OFFICER"><text fill="#000000" font-family="sans-serif" font-size="14" lengthAdjust="spacing" textLength="145.2773" x="30" y="116.0234">Port Authority Officer</text><ellipse cx="105.6387" cy="50.9883" fill="#E2E2F0" rx="8" ry="8" style="stroke:#181818;stroke-width:0.5;"/><path d="M105.6387,58.9883 L105.6387,85.9883 M92.6387,66.9883 L118.6387,66.9883 M105.6387,85.9883 L92.6387,100.9883 M105.6387,85.9883 L118.6387,100.9883" fill="none" style="stroke:#181818;stroke-width:0.5;"/></g><g class="participant participant-tail" data-participant="OFFICER"><text fill="#000000" font-family="sans-serif" font-size="14" lengthAdjust="spacing" textLength="145.2773" x="30" y="1587.3496">Port Authority Officer</text><ellipse cx="105.6387" cy="1598.8027" fill="#E2E2F0" rx="8" ry="8" style="stroke:#181818;stroke-width:0.5;"/><path d="M105.6387,1606.8027 L105.6387,1633.8027 M92.6387,1614.8027 L118.6387,1614.8027 M105.6387,1633.8027 L92.6387,1648.8027 M105.6387,1633.8027 L118.6387,1648.8027" fill="none" style="stroke:#181818;stroke-width:0.5;"/></g><g class="participant participant-head" data-participant="SPA"><rect fill="#E2E2F0" height="46.9766" rx="2.5" ry="2.5" style="stroke:#181818;stroke-width:0.5;" width="160.1523" x="398.6899" y="71"/><text fill="#000000" font-family="sans-serif" font-size="14" lengthAdjust="spacing" textLength="146.1523" x="405.6899" y="91.5352">ViewNotification.html</text><text fill="#000000" font-family="sans-serif" font-size="14" lengthAdjust="spacing" textLength="34.043" x="461.7446" y="108.0234">(SPA)</text></g><g class="participant participant-tail" data-participant="SPA"><rect fill="#E2E2F0" height="46.9766" rx="2.5" ry="2.5" style="stroke:#181818;stroke-width:0.5;" width="160.1523" x="398.6899" y="1573.8145"/><text fill="#000000" font-family="sans-serif" font-size="14" lengthAdjust="spacing" textLength="146.1523" x="405.6899" y="1594.3496">ViewNotification.html</text><text fill="#000000" font-family="sans-serif" font-size="14" lengthAdjust="spacing" textLength="34.043" x="461.7446" y="1610.8379">(SPA)</text></g><g class="participant participant-head" data-participant="CTRL"><rect fill="#E2E2F0" height="30.4883" rx="2.5" ry="2.5" style="stroke:#181818;stroke-width:0.5;" width="238.1777" x="745.3159" y="87.4883"/><text fill="#000000" font-family="sans-serif" font-size="14" lengthAdjust="spacing" textLength="224.1777" x="752.3159" y="108.0234">:VesselVisitNotificationController</text></g><g class="participant participant-tail" data-participant="CTRL"><rect fill="#E2E2F0" height="30.4883" rx="2.5" ry="2.5" style="stroke:#181818;stroke-width:0.5;" width="238.1777" x="745.3159" y="1573.8145"/><text fill="#000000" font-family="sans-serif" font-size="14" lengthAdjust="spacing" textLength="224.1777" x="752.3159" y="1594.3496">:VesselVisitNotificationController</text></g><g class="participant participant-head" data-participant="SVC"><rect fill="#E2E2F0" height="30.4883" rx="2.5" ry="2.5" style="stroke:#181818;stroke-width:0.5;" width="217.3486" x="1214.4604" y="87.4883"/><text fill="#000000" font-family="sans-serif" font-size="14" lengthAdjust="spacing" textLength="203.3486" x="1221.4604" y="108.0234">:VesselVisitNotificationService</text></g><g class="participant participant-tail" data-participant="SVC"><rect fill="#E2E2F0" height="30.4883" rx="2.5" ry="2.5" style="stroke:#181818;stroke-width:0.5;" width="217.3486" x="1214.4604" y="1573.8145"/><text fill="#000000" font-family="sans-serif" font-size="14" lengthAdjust="spacing" textLength="203.3486" x="1221.4604" y="1594.3496">:VesselVisitNotificationService</text></g><g class="participant participant-head" data-participant="NREPO"><rect fill="#E2E2F0" height="30.4883" rx="2.5" ry="2.5" style="stroke:#181818;stroke-width:0.5;" width="242.1426" x="1458.3521" y="87.4883"/><text fill="#000000" font-family="sans-serif" font-size="14" lengthAdjust="spacing" textLength="228.1426" x="1465.3521" y="108.0234">:VesselVisitNotificationRepository</text></g><g class="participant participant-tail" data-participant="NREPO"><rect fill="#E2E2F0" height="30.4883" rx="2.5" ry="2.5" style="stroke:#181818;stroke-width:0.5;" width="242.1426" x="1458.3521" y="1573.8145"/><text fill="#000000" font-family="sans-serif" font-size="14" lengthAdjust="spacing" textLength="228.1426" x="1465.3521" y="1594.3496">:VesselVisitNotificationRepository</text></g><g class="participant participant-head" data-participant="DB"><rect fill="#E2E2F0" height="30.4883" rx="2.5" ry="2.5" style="stroke:#181818;stroke-width:0.5;" width="151.8057" x="1921.9175" y="87.4883"/><text fill="#000000" font-family="sans-serif" font-size="14" lengthAdjust="spacing" textLength="137.8057" x="1928.9175" y="108.0234">:PortManagementDB</text></g><g class="participant participant-tail" data-participant="DB"><rect fill="#E2E2F0" height="30.4883" rx="2.5" ry="2.5" style="stroke:#181818;stroke-width:0.5;" width="151.8057" x="1921.9175" y="1573.8145"/><text fill="#000000" font-family="sans-serif" font-size="14" lengthAdjust="spacing" textLength="137.8057" x="1928.9175" y="1594.3496">:PortManagementDB</text></g><g><title>.VesselVisitNotificationController</title><rect fill="#FFFFFF" height="290.1055" style="stroke:#181818;stroke-width:1;" width="10" x="859.4048" y="285.8398"/></g><g><title>.VesselVisitNotificationService</title><rect fill="#FFFFFF" height="935.5586" style="stroke:#181818;stroke-width:1;" width="10" x="1318.1348" y="315.1504"/></g><g><title>.VesselVisitNotificationRepository</title><rect fill="#FFFFFF" height="87.9316" style="stroke:#181818;stroke-width:1;" width="10" x="1574.4233" y="375.7715"/></g><g><title>.VesselVisitNotificationRepository</title><rect fill="#FFFFFF" height="87.9316" style="stroke:#181818;stroke-width:1;" width="10" x="1574.4233" y="1133.4668"/></g><g><title>.PortManagementDB</title><rect fill="#FFFFFF" height="29.3105" style="stroke:#181818;stroke-width:1;" width="10" x="1992.8203" y="405.082"/></g><g><title>.PortManagementDB</title><rect fill="#FFFFFF" height="29.3105" style="stroke:#181818;stroke-width:1;" width="10" x="1992.8203" y="1162.7773"/></g><path d="M20,135.9766 L188.3096,135.9766 L188.3096,143.2871 L178.3096,153.2871 L20,153.2871 L20,135.9766" fill="#EEEEEE" style="stroke:#000000;stroke-width:1.5;"/><rect fill="none" height="81.9316" style="stroke:#000000;stroke-width:1.5;" width="597.2456" x="20" y="135.9766"/><text fill="#000000" font-family="sans-serif" font-size="13" font-weight="bold" lengthAdjust="spacing" textLength="123.3096" x="35" y="149.5449">Reject Notification</text><g class="message" data-participant-1="OFFICER" data-participant-2="SPA"><polygon fill="#181818" points="466.7661,170.5977,476.7661,174.5977,466.7661,178.5977,470.7661,174.5977" style="stroke:#181818;stroke-width:1;"/><line style="stroke:#181818;stroke-width:1;" x1="105.6387" x2="472.7661" y1="174.5977" y2="174.5977"/><text fill="#000000" font-family="sans-serif" font-size="13" lengthAdjust="spacing" textLength="252.2559" x="112.6387" y="169.8555">click "Reject" and enter RejectionReason</text></g><path d="M110,187.5977 L110,212.5977 L607,212.5977 L607,197.5977 L597,187.5977 L110,187.5977" fill="#FEFFDD" style="stroke:#181818;stroke-width:0.5;"/><path d="M597,187.5977 L597,197.5977 L607,197.5977 L597,187.5977" fill="#FEFFDD" style="stroke:#181818;stroke-width:0.5;"/><text fill="#000000" font-family="sans-serif" font-size="13" lengthAdjust="spacing" textLength="476.2456" x="116" y="205.166">Officer rejects a pending notification,\nproviding a mandatory justification.</text><path d="M388.6899,231.9082 L604.7021,231.9082 L604.7021,239.2188 L594.7021,249.2188 L388.6899,249.2188 L388.6899,231.9082" fill="#EEEEEE" style="stroke:#000000;stroke-width:1.5;"/><rect fill="none" height="91.2422" style="stroke:#000000;stroke-width:1.5;" width="1053.1191" x="388.6899" y="231.9082"/><text fill="#000000" font-family="sans-serif" font-size="13" font-weight="bold" lengthAdjust="spacing" textLength="171.0122" x="403.6899" y="245.4766">Submit Rejection Request</text><g class="message" data-participant-1="SPA" data-participant-2="CTRL"><polygon fill="#181818" points="847.4048,281.8398,857.4048,285.8398,847.4048,289.8398,851.4048,285.8398" style="stroke:#181818;stroke-width:1;"/><line style="stroke:#181818;stroke-width:1;" x1="478.7661" x2="853.4048" y1="285.8398" y2="285.8398"/><text fill="#000000" font-family="sans-serif" font-size="13" lengthAdjust="spacing" textLength="361.6387" x="485.7661" y="265.7871">PATCH /api/vessel-visit-notifications/{businessId}/reject</text><text fill="#000000" font-family="sans-serif" font-size="13" lengthAdjust="spacing" textLength="111.7695" x="485.7661" y="281.0977">{RejectionReason}</text></g><g class="message" data-participant-1="CTRL" data-participant-2="SVC"><polygon fill="#181818" points="1306.1348,311.1504,1316.1348,315.1504,1306.1348,319.1504,1310.1348,315.1504" style="stroke:#181818;stroke-width:1;"/><line style="stroke:#181818;stroke-width:1;" x1="869.4048" x2="1312.1348" y1="315.1504" y2="315.1504"/><text fill="#000000" font-family="sans-serif" font-size="13" lengthAdjust="spacing" textLength="320.1948" x="876.4048" y="310.4082">RejectAsync(businessId, rejectionReason, officerId)</text></g><path d="M10,337.1504 L192.5283,337.1504 L192.5283,344.4609 L182.5283,354.4609 L10,354.4609 L10,337.1504" fill="#EEEEEE" style="stroke:#000000;stroke-width:1.5;"/><rect fill="none" height="253.7949" style="stroke:#000000;stroke-width:1.5;" width="2073.7231" x="10" y="337.1504"/><text fill="#000000" font-family="sans-serif" font-size="13" font-weight="bold" lengthAdjust="spacing" textLength="137.5283" x="25" y="350.7188">Retrieve Notification</text><g class="message" data-participant-1="SVC" data-participant-2="NREPO"><polygon fill="#181818" points="1562.4233,371.7715,1572.4233,375.7715,1562.4233,379.7715,1566.4233,375.7715" style="stroke:#181818;stroke-width:1;"/><line style="stroke:#181818;stroke-width:1;" x1="1328.1348" x2="1568.4233" y1="375.7715" y2="375.7715"/><text fill="#000000" font-family="sans-serif" font-size="13" lengthAdjust="spacing" textLength="214.8872" x="1335.1348" y="371.0293">GetByBusinessIdAsync(businessId)</text></g><g class="message" data-participant-1="NREPO" data-participant-2="DB"><polygon fill="#181818" points="1980.8203,401.082,1990.8203,405.082,1980.8203,409.082,1984.8203,405.082" style="stroke:#181818;stroke-width:1;"/><line style="stroke:#181818;stroke-width:1;" x1="1584.4233" x2="1986.8203" y1="405.082" y2="405.082"/><text fill="#000000" font-family="sans-serif" font-size="13" lengthAdjust="spacing" textLength="389.397" x="1591.4233" y="400.3398">SELECT * FROM VesselVisitNotifications WHERE BusinessId = ?</text></g><g class="message" data-participant-1="DB" data-participant-2="NREPO"><polygon fill="#181818" points="1595.4233,430.3926,1585.4233,434.3926,1595.4233,438.3926,1591.4233,434.3926" style="stroke:#181818;stroke-width:1;"/><line style="stroke:#181818;stroke-width:1;stroke-dasharray:2,2;" x1="1589.4233" x2="1996.8203" y1="434.3926" y2="434.3926"/><text fill="#000000" font-family="sans-serif" font-size="13" lengthAdjust="spacing" textLength="185.9419" x="1601.4233" y="429.6504">VesselVisitNotification or null</text></g><g class="message" data-participant-1="NREPO" data-participant-2="SVC"><polygon fill="#181818" points="1339.1348,459.7031,1329.1348,463.7031,1339.1348,467.7031,1335.1348,463.7031" style="stroke:#181818;stroke-width:1;"/><line style="stroke:#181818;stroke-width:1;stroke-dasharray:2,2;" x1="1333.1348" x2="1578.4233" y1="463.7031" y2="463.7031"/><text fill="#000000" font-family="sans-serif" font-size="13" lengthAdjust="spacing" textLength="185.9419" x="1345.1348" y="458.9609">VesselVisitNotification or null</text></g><path d="M20,478.7031 L82.1387,478.7031 L82.1387,486.0137 L72.1387,496.0137 L20,496.0137 L20,478.7031" fill="#EEEEEE" style="stroke:#000000;stroke-width:1.5;"/><rect fill="none" height="105.2422" style="stroke:#000000;stroke-width:1.5;" width="1421.8091" x="20" y="478.7031"/><text fill="#000000" font-family="sans-serif" font-size="13" font-weight="bold" lengthAdjust="spacing" textLength="17.1387" x="35" y="492.2715">alt</text><text fill="#000000" font-family="sans-serif" font-size="11" font-weight="bold" lengthAdjust="spacing" textLength="133.6919" x="97.1387" y="491.3379">[Notification not found]</text><g class="message" data-participant-1="SVC" data-participant-2="CTRL"><polygon fill="#181818" points="880.4048,513.3242,870.4048,517.3242,880.4048,521.3242,876.4048,517.3242" style="stroke:#181818;stroke-width:1;"/><line style="stroke:#181818;stroke-width:1;stroke-dasharray:2,2;" x1="874.4048" x2="1317.1348" y1="517.3242" y2="517.3242"/><text fill="#000000" font-family="sans-serif" font-size="13" lengthAdjust="spacing" textLength="378.5107" x="886.4048" y="512.582">throws DomainValidationException("Notification not found")</text></g><g class="message" data-participant-1="CTRL" data-participant-2="SPA"><polygon fill="#181818" points="489.7661,542.6348,479.7661,546.6348,489.7661,550.6348,485.7661,546.6348" style="stroke:#181818;stroke-width:1;"/><line style="stroke:#181818;stroke-width:1;stroke-dasharray:2,2;" x1="483.7661" x2="858.4048" y1="546.6348" y2="546.6348"/><text fill="#000000" font-family="sans-serif" font-size="13" lengthAdjust="spacing" textLength="94.6118" x="495.7661" y="541.8926">404 Not Found</text></g><g class="message" data-participant-1="SPA" data-participant-2="OFFICER"><polygon fill="#181818" points="116.6387,571.9453,106.6387,575.9453,116.6387,579.9453,112.6387,575.9453" style="stroke:#181818;stroke-width:1;"/><line style="stroke:#181818;stroke-width:1;stroke-dasharray:2,2;" x1="110.6387" x2="477.7661" y1="575.9453" y2="575.9453"/><text fill="#000000" font-family="sans-serif" font-size="13" lengthAdjust="spacing" textLength="221.3364" x="122.6387" y="571.2031">showError("Notification not found")</text></g><path d="M10,604.9453 L175.396,604.9453 L175.396,612.2559 L165.396,622.2559 L10,622.2559 L10,604.9453" fill="#EEEEEE" style="stroke:#000000;stroke-width:1.5;"/><rect fill="none" height="337.0371" style="stroke:#000000;stroke-width:1.5;" width="1611.937" x="10" y="604.9453"/><text fill="#000000" font-family="sans-serif" font-size="13" font-weight="bold" lengthAdjust="spacing" textLength="120.396" x="25" y="618.5137">Validate Rejection</text><path d="M1333,627.2559 L1333,698.2559 L1611,698.2559 L1611,637.2559 L1601,627.2559 L1333,627.2559" fill="#FEFFDD" style="stroke:#181818;stroke-width:0.5;"/><path d="M1601,627.2559 L1601,637.2559 L1611,637.2559 L1601,627.2559" fill="#FEFFDD" style="stroke:#181818;stroke-width:0.5;"/><text fill="#000000" font-family="sans-serif" font-size="13" lengthAdjust="spacing" textLength="206.8892" x="1339" y="644.8242">&#8226; Must be PendingApproval&lt;br&gt;</text><text fill="#000000" font-family="sans-serif" font-size="13" lengthAdjust="spacing" textLength="206.3115" x="1339" y="660.1348">&#8226; RejectionReason required&lt;br&gt;</text><text fill="#000000" font-family="sans-serif" font-size="13" lengthAdjust="spacing" textLength="195.127" x="1339" y="675.4453">&#8226; Reason &#8805; 10 characters&lt;br&gt;</text><text fill="#000000" font-family="sans-serif" font-size="13" lengthAdjust="spacing" textLength="257.937" x="1339" y="690.7559">&#8226; If includes "reject", must be &#8805; 20 chars</text><path d="M20,710.498 L82.1387,710.498 L82.1387,717.8086 L72.1387,727.8086 L20,727.8086 L20,710.498" fill="#EEEEEE" style="stroke:#000000;stroke-width:1.5;"/><rect fill="none" height="105.2422" style="stroke:#000000;stroke-width:1.5;" width="1421.8091" x="20" y="710.498"/><text fill="#000000" font-family="sans-serif" font-size="13" font-weight="bold" lengthAdjust="spacing" textLength="17.1387" x="35" y="724.0664">alt</text><text fill="#000000" font-family="sans-serif" font-size="11" font-weight="bold" lengthAdjust="spacing" textLength="159.7471" x="97.1387" y="723.1328">[Status != PendingApproval]</text><g class="message" data-participant-1="SVC" data-participant-2="CTRL"><polygon fill="#181818" points="875.4048,745.1191,865.4048,749.1191,875.4048,753.1191,871.4048,749.1191" style="stroke:#181818;stroke-width:1;"/><line style="stroke:#181818;stroke-width:1;stroke-dasharray:2,2;" x1="869.4048" x2="1317.1348" y1="749.1191" y2="749.1191"/><text fill="#000000" font-family="sans-serif" font-size="13" lengthAdjust="spacing" textLength="429.73" x="881.4048" y="744.377">throws BusinessRuleViolationException("Invalid status for rejection")</text></g><g class="message" data-participant-1="CTRL" data-participant-2="SPA"><polygon fill="#181818" points="489.7661,774.4297,479.7661,778.4297,489.7661,782.4297,485.7661,778.4297" style="stroke:#181818;stroke-width:1;"/><line style="stroke:#181818;stroke-width:1;stroke-dasharray:2,2;" x1="483.7661" x2="863.4048" y1="778.4297" y2="778.4297"/><text fill="#000000" font-family="sans-serif" font-size="13" lengthAdjust="spacing" textLength="106.1709" x="495.7661" y="773.6875">400 Bad Request</text></g><g class="message" data-participant-1="SPA" data-participant-2="OFFICER"><polygon fill="#181818" points="116.6387,803.7402,106.6387,807.7402,116.6387,811.7402,112.6387,807.7402" style="stroke:#181818;stroke-width:1;"/><line style="stroke:#181818;stroke-width:1;stroke-dasharray:2,2;" x1="110.6387" x2="477.7661" y1="807.7402" y2="807.7402"/><text fill="#000000" font-family="sans-serif" font-size="13" lengthAdjust="spacing" textLength="349.1274" x="122.6387" y="802.998">showError("Only pending notifications can be rejected")</text></g><path d="M20,829.7402 L82.1387,829.7402 L82.1387,837.0508 L72.1387,847.0508 L20,847.0508 L20,829.7402" fill="#EEEEEE" style="stroke:#000000;stroke-width:1.5;"/><rect fill="none" height="105.2422" style="stroke:#000000;stroke-width:1.5;" width="1421.8091" x="20" y="829.7402"/><text fill="#000000" font-family="sans-serif" font-size="13" font-weight="bold" lengthAdjust="spacing" textLength="17.1387" x="35" y="843.3086">alt</text><text fill="#000000" font-family="sans-serif" font-size="11" font-weight="bold" lengthAdjust="spacing" textLength="165.5586" x="97.1387" y="842.375">[Missing or too short reason]</text><g class="message" data-participant-1="SVC" data-participant-2="CTRL"><polygon fill="#181818" points="875.4048,864.3613,865.4048,868.3613,875.4048,872.3613,871.4048,868.3613" style="stroke:#181818;stroke-width:1;"/><line style="stroke:#181818;stroke-width:1;stroke-dasharray:2,2;" x1="869.4048" x2="1317.1348" y1="868.3613" y2="868.3613"/><text fill="#000000" font-family="sans-serif" font-size="13" lengthAdjust="spacing" textLength="416.8823" x="881.4048" y="863.6191">throws DomainValidationException("Reason too short or missing")</text></g><g class="message" data-participant-1="CTRL" data-participant-2="SPA"><polygon fill="#181818" points="489.7661,893.6719,479.7661,897.6719,489.7661,901.6719,485.7661,897.6719" style="stroke:#181818;stroke-width:1;"/><line style="stroke:#181818;stroke-width:1;stroke-dasharray:2,2;" x1="483.7661" x2="863.4048" y1="897.6719" y2="897.6719"/><text fill="#000000" font-family="sans-serif" font-size="13" lengthAdjust="spacing" textLength="106.1709" x="495.7661" y="892.9297">400 Bad Request</text></g><g class="message" data-participant-1="SPA" data-participant-2="OFFICER"><polygon fill="#181818" points="116.6387,922.9824,106.6387,926.9824,116.6387,930.9824,112.6387,926.9824" style="stroke:#181818;stroke-width:1;"/><line style="stroke:#181818;stroke-width:1;stroke-dasharray:2,2;" x1="110.6387" x2="477.7661" y1="926.9824" y2="926.9824"/><text fill="#000000" font-family="sans-serif" font-size="13" lengthAdjust="spacing" textLength="299.8062" x="122.6387" y="922.2402">showError("Provide a detailed rejection reason")</text></g><path d="M735.3159,955.9824 L884.7983,955.9824 L884.7983,963.293 L874.7983,973.293 L735.3159,973.293 L735.3159,955.9824" fill="#EEEEEE" style="stroke:#000000;stroke-width:1.5;"/><rect fill="none" height="302.7266" style="stroke:#000000;stroke-width:1.5;" width="1348.4072" x="735.3159" y="955.9824"/><text fill="#000000" font-family="sans-serif" font-size="13" font-weight="bold" lengthAdjust="spacing" textLength="104.4824" x="750.3159" y="969.5508">Reject and Save</text><g class="message" data-participant-1="SVC" data-participant-2="SVC"><line style="stroke:#181818;stroke-width:1;" x1="1328.1348" x2="1370.1348" y1="1055.8457" y2="1055.8457"/><line style="stroke:#181818;stroke-width:1;" x1="1370.1348" x2="1370.1348" y1="1055.8457" y2="1068.8457"/><line style="stroke:#181818;stroke-width:1;" x1="1329.1348" x2="1370.1348" y1="1068.8457" y2="1068.8457"/><polygon fill="#181818" points="1339.1348,1064.8457,1329.1348,1068.8457,1339.1348,1072.8457,1335.1348,1068.8457" style="stroke:#181818;stroke-width:1;"/><text fill="#000000" font-family="sans-serif" font-size="13" lengthAdjust="spacing" textLength="122.8145" x="1335.1348" y="989.8613">Update entity fields</text><text fill="#000000" font-family="sans-serif" font-size="13" lengthAdjust="spacing" textLength="110.7666" x="1335.1348" y="1005.1719">Status = Rejected</text><text fill="#000000" font-family="sans-serif" font-size="13" lengthAdjust="spacing" textLength="222.2886" x="1335.1348" y="1020.4824">RejectionReason = rejectionReason</text><text fill="#000000" font-family="sans-serif" font-size="13" lengthAdjust="spacing" textLength="138.8867" x="1335.1348" y="1035.793">RejectedBy = officerId</text><text fill="#000000" font-family="sans-serif" font-size="13" lengthAdjust="spacing" textLength="134.1323" x="1335.1348" y="1051.1035">RejectedAt = UtcNow</text></g><path d="M1333,1081.8457 L1333,1106.8457 L1672,1106.8457 L1672,1091.8457 L1662,1081.8457 L1333,1081.8457" fill="#FEFFDD" style="stroke:#181818;stroke-width:0.5;"/><path d="M1662,1081.8457 L1662,1091.8457 L1672,1091.8457 L1662,1081.8457" fill="#FEFFDD" style="stroke:#181818;stroke-width:0.5;"/><text fill="#000000" font-family="sans-serif" font-size="13" lengthAdjust="spacing" textLength="318.9761" x="1339" y="1099.4141">Sets rejection details and logs officer + timestamp</text><g class="message" data-participant-1="SVC" data-participant-2="NREPO"><polygon fill="#181818" points="1562.4233,1129.4668,1572.4233,1133.4668,1562.4233,1137.4668,1566.4233,1133.4668" style="stroke:#181818;stroke-width:1;"/><line style="stroke:#181818;stroke-width:1;" x1="1328.1348" x2="1568.4233" y1="1133.4668" y2="1133.4668"/><text fill="#000000" font-family="sans-serif" font-size="13" lengthAdjust="spacing" textLength="161.9478" x="1335.1348" y="1128.7246">UpdateAsync(notification)</text></g><g class="message" data-participant-1="NREPO" data-participant-2="DB"><polygon fill="#181818" points="1980.8203,1158.7773,1990.8203,1162.7773,1980.8203,1166.7773,1984.8203,1162.7773" style="stroke:#181818;stroke-width:1;"/><line style="stroke:#181818;stroke-width:1;" x1="1584.4233" x2="1986.8203" y1="1162.7773" y2="1162.7773"/><text fill="#000000" font-family="sans-serif" font-size="13" lengthAdjust="spacing" textLength="373.5596" x="1591.4233" y="1158.0352">UPDATE VesselVisitNotifications SET ... Status='Rejected' ...</text></g><g class="message" data-participant-1="DB" data-participant-2="NREPO"><polygon fill="#181818" points="1595.4233,1188.0879,1585.4233,1192.0879,1595.4233,1196.0879,1591.4233,1192.0879" style="stroke:#181818;stroke-width:1;"/><line style="stroke:#181818;stroke-width:1;stroke-dasharray:2,2;" x1="1589.4233" x2="1996.8203" y1="1192.0879" y2="1192.0879"/><text fill="#000000" font-family="sans-serif" font-size="13" lengthAdjust="spacing" textLength="48.5088" x="1601.4233" y="1187.3457">success</text></g><g class="message" data-participant-1="NREPO" data-participant-2="SVC"><polygon fill="#181818" points="1339.1348,1217.3984,1329.1348,1221.3984,1339.1348,1225.3984,1335.1348,1221.3984" style="stroke:#181818;stroke-width:1;"/><line style="stroke:#181818;stroke-width:1;stroke-dasharray:2,2;" x1="1333.1348" x2="1578.4233" y1="1221.3984" y2="1221.3984"/><text fill="#000000" font-family="sans-serif" font-size="13" lengthAdjust="spacing" textLength="48.5088" x="1345.1348" y="1216.6563">success</text></g><g class="message" data-participant-1="SVC" data-participant-2="CTRL"><polygon fill="#181818" points="875.4048,1246.709,865.4048,1250.709,875.4048,1254.709,871.4048,1250.709" style="stroke:#181818;stroke-width:1;"/><line style="stroke:#181818;stroke-width:1;stroke-dasharray:2,2;" x1="869.4048" x2="1322.1348" y1="1250.709" y2="1250.709"/><text fill="#000000" font-family="sans-serif" font-size="13" lengthAdjust="spacing" textLength="48.5088" x="881.4048" y="1245.9668">success</text></g><path d="M20,1272.709 L156.0952,1272.709 L156.0952,1280.0195 L146.0952,1290.0195 L20,1290.0195 L20,1272.709" fill="#EEEEEE" style="stroke:#000000;stroke-width:1.5;"/><rect fill="none" height="75.9316" style="stroke:#000000;stroke-width:1.5;" width="973.4937" x="20" y="1272.709"/><text fill="#000000" font-family="sans-serif" font-size="13" font-weight="bold" lengthAdjust="spacing" textLength="91.0952" x="35" y="1286.2773">Return Result</text><g class="message" data-participant-1="CTRL" data-participant-2="SPA"><polygon fill="#181818" points="489.7661,1307.3301,479.7661,1311.3301,489.7661,1315.3301,485.7661,1311.3301" style="stroke:#181818;stroke-width:1;"/><line style="stroke:#181818;stroke-width:1;stroke-dasharray:2,2;" x1="483.7661" x2="863.4048" y1="1311.3301" y2="1311.3301"/><text fill="#000000" font-family="sans-serif" font-size="13" lengthAdjust="spacing" textLength="100.5596" x="495.7661" y="1306.5879">204 No Content</text></g><g class="message" data-participant-1="SPA" data-participant-2="OFFICER"><polygon fill="#181818" points="116.6387,1336.6406,106.6387,1340.6406,116.6387,1344.6406,112.6387,1340.6406" style="stroke:#181818;stroke-width:1;"/><line style="stroke:#181818;stroke-width:1;stroke-dasharray:2,2;" x1="110.6387" x2="477.7661" y1="1340.6406" y2="1340.6406"/><text fill="#000000" font-family="sans-serif" font-size="13" lengthAdjust="spacing" textLength="307.6011" x="122.6387" y="1335.8984">showSuccess("Notification rejected successfully")</text></g><path d="M20,1362.6406 L82.1387,1362.6406 L82.1387,1369.9512 L72.1387,1379.9512 L20,1379.9512 L20,1362.6406" fill="#EEEEEE" style="stroke:#000000;stroke-width:1.5;"/><rect fill="none" height="105.2422" style="stroke:#000000;stroke-width:1.5;" width="1421.8091" x="20" y="1362.6406"/><text fill="#000000" font-family="sans-serif" font-size="13" font-weight="bold" lengthAdjust="spacing" textLength="17.1387" x="35" y="1376.209">alt</text><text fill="#000000" font-family="sans-serif" font-size="11" font-weight="bold" lengthAdjust="spacing" textLength="101.041" x="97.1387" y="1375.2754">[Validation failed]</text><g class="message" data-participant-1="SVC" data-participant-2="CTRL"><polygon fill="#181818" points="875.4048,1397.2617,865.4048,1401.2617,875.4048,1405.2617,871.4048,1401.2617" style="stroke:#181818;stroke-width:1;"/><line style="stroke:#181818;stroke-width:1;stroke-dasharray:2,2;" x1="869.4048" x2="1322.1348" y1="1401.2617" y2="1401.2617"/><text fill="#000000" font-family="sans-serif" font-size="13" lengthAdjust="spacing" textLength="220.8604" x="881.4048" y="1396.5195">throws DomainValidationException</text></g><g class="message" data-participant-1="CTRL" data-participant-2="SPA"><polygon fill="#181818" points="489.7661,1426.5723,479.7661,1430.5723,489.7661,1434.5723,485.7661,1430.5723" style="stroke:#181818;stroke-width:1;"/><line style="stroke:#181818;stroke-width:1;stroke-dasharray:2,2;" x1="483.7661" x2="863.4048" y1="1430.5723" y2="1430.5723"/><text fill="#000000" font-family="sans-serif" font-size="13" lengthAdjust="spacing" textLength="179.8926" x="495.7661" y="1425.8301">400 Bad Request + message</text></g><g class="message" data-participant-1="SPA" data-participant-2="OFFICER"><polygon fill="#181818" points="116.6387,1455.8828,106.6387,1459.8828,116.6387,1463.8828,112.6387,1459.8828" style="stroke:#181818;stroke-width:1;"/><line style="stroke:#181818;stroke-width:1;stroke-dasharray:2,2;" x1="110.6387" x2="477.7661" y1="1459.8828" y2="1459.8828"/><text fill="#000000" font-family="sans-serif" font-size="13" lengthAdjust="spacing" textLength="184.0947" x="122.6387" y="1455.1406">showError("Validation failed")</text></g><path d="M20,1481.8828 L82.1387,1481.8828 L82.1387,1489.1934 L72.1387,1499.1934 L20,1499.1934 L20,1481.8828" fill="#EEEEEE" style="stroke:#000000;stroke-width:1.5;"/><rect fill="none" height="75.9316" style="stroke:#000000;stroke-width:1.5;" width="973.4937" x="20" y="1481.8828"/><text fill="#000000" font-family="sans-serif" font-size="13" font-weight="bold" lengthAdjust="spacing" textLength="17.1387" x="35" y="1495.4512">alt</text><text fill="#000000" font-family="sans-serif" font-size="11" font-weight="bold" lengthAdjust="spacing" textLength="84.2939" x="97.1387" y="1494.5176">[Internal error]</text><g class="message" data-participant-1="CTRL" data-participant-2="SPA"><polygon fill="#181818" points="489.7661,1516.5039,479.7661,1520.5039,489.7661,1524.5039,485.7661,1520.5039" style="stroke:#181818;stroke-width:1;"/><line style="stroke:#181818;stroke-width:1;stroke-dasharray:2,2;" x1="483.7661" x2="863.4048" y1="1520.5039" y2="1520.5039"/><text fill="#000000" font-family="sans-serif" font-size="13" lengthAdjust="spacing" textLength="155.0859" x="495.7661" y="1515.7617">500 Internal Server Error</text></g><g class="message" data-participant-1="SPA" data-participant-2="OFFICER"><polygon fill="#181818" points="116.6387,1545.8145,106.6387,1549.8145,116.6387,1553.8145,112.6387,1549.8145" style="stroke:#181818;stroke-width:1;"/><line style="stroke:#181818;stroke-width:1;stroke-dasharray:2,2;" x1="110.6387" x2="477.7661" y1="1549.8145" y2="1549.8145"/><text fill="#000000" font-family="sans-serif" font-size="13" lengthAdjust="spacing" textLength="266.6333" x="122.6387" y="1545.0723">showError("System error during rejection")</text></g><!--SRC=[hLVDSjis4BxpAROwr7RhlsRIYwTAHvBfM1rRKabPkVW2av25b08O09IhoMIcrxv6P_fYUP8k0Fw9bYmwKvueSFztlsyXpNH28Q0VQQHXHfMY2SoOOXf6GhCvYuXcWiC9JAI8y3D-f4-UHo8j97GcGchePNeX9DDh6CzHWSeE40NZgwlXm0-yb4ZD8fOIhg5ZbEjsJnTwcTppmt3IEx9Q-BAfSU5YiY7LDGU2QocI9FSsc0OtxHH3AbSOfFCs6xHJ2cWgy4Z8jTKR1VvatD0qfRWbd3pI9UNwicy5B_kUTm3TNG_SXNu0lS5qE1xjbl8UfSZIeaVri3p09oyqdBmprOCBY18M_G4T9uzXy1Wm8Yfp2pOTed9jBZG5oHuN6iIyR1haJzvGa5PJ0O6KyfZnHwDNXd5yprCfLin-8B14ZyJK2ZvcgjPhQnNLhKyFNrwkJU3_VkU7KxYw6N_OMvmmUrZYp9OPujkdZ2fjVPgoO7NCZ61v9htfu1hEIChELhRR9olJxfDwHkhiyqEc6CVlm_ZBcKl_ddzkLF2BDOzOO2k2PRH3Q8-iAzEGsG0zEgsUMlFei39xd5Urj7QC7R3b7iP7cuRDdBQerpGO-ZCVleTPxsPusPlwBMPAIqPNzFbKcSWn0JlfcC9xgllhVXbxCvT6l0uVviZfew7BFbe9_Hj_C8KVu2eOty8Eh2duSEq7FbJUe0k_RZf0N9dVQFIa5kGEWu1CnRCaiIenRHh9GooxzKehBbSNNj9WJHmfc8iCErS0ofQrcaMzaE89QK8i2UCpah3OAlf_HZGrBuUTxVOwHwL5Dseb-D-UlpKnmDMcMuC0b2cuuWBKGZpvKWhPmaKjssh43P0nOJUNRfho16W5moqKOsQvCFprht_W5Za27YXC7B7qKaCb9FdbGRxRa6j03y7pAMEInbi4xVUlV_yBFvr3j20IewTIFHCSpe7nACbYgg3ZiDWvXcKUZz5_u_JL9dELlGurqPc2xxhDuFUqkvZi84leZ8casVCXNvbAWdBsvq9MLF5Ivy-XJ-8DvjlR-p5FrbivNK54kAc3yqnRpqDPdLkcbB6AqMiXZ5EyAyXgytmJ7FBcLWRH-j8v-fyhCx4RZU8-YwacBA5nrOGyZLT1v6Ng_ir_rIN0xFIGh6YTgXrxtQKMWRZmpOLipcWIgtkUJsetrwVnFM_YgTjSHuK8ZVjh_5hkfkgyf_7yJaSZyRG7w275oqDLFbTHPTD8nACgZCEFeDaIMqIMwHRCDNQIIzMjelhejbn6TnEx8dTkeT2VmkdfQOxoxa6HzO4vRREEL1QP6tFBjRD3khPU6c3PeT3ohX1EngEmrGKXa-OsfR94UrkmzSRk6p3NSPmvRoSMjcCjT3aqTb11EKMASroxQmJRthJy81W7SDqRNTuCH-zVICxmKyKlCBVuzhw1aRpzT8D3ZIEjy8-1jvTqdiLKP6q27ffBF2S9K2EypVFFwBcKCdzq459-AVoYvt2jD5qwqn1dqZ1tVUcOAFu3]--></g></svg>